<?xml version="1.0" encoding="iso-8859-1"?>
<!-- Generator: Adobe Illustrator 19.0.0, SVG Export Plug-In . SVG Version: 6.00 Build 0)  -->
<svg xmlns="http://www.w3.org/2000/svg" xmlns:xlink="http://www.w3.org/1999/xlink" version="1.1" id="Layer_1" x="0px" y="0px" viewBox="0 0 512.004 512.004" style="enable-background:new 0 0 512.004 512.004;" xml:space="preserve">
<circle style="fill:#EAC71C;" cx="200.219" cy="240.622" r="124.485"/>
<path style="fill:#EDE21B;" d="M278.123,140.662c-21.286-15.92-47.711-25.347-76.337-25.347h-0.001h-0.001  c-7.637,0-15.117,0.676-22.385,1.963c-28.035,25.608-45.622,62.461-45.622,103.423c0,70.612,52.262,129.007,120.215,138.64  c0.375-0.169,0.753-0.333,1.126-0.503c0.34-0.158,0.683-0.315,1.022-0.475c0.884-0.418,1.762-0.845,2.634-1.282  c0.261-0.13,0.523-0.256,0.783-0.388c1.107-0.563,2.205-1.142,3.294-1.734c0.23-0.126,0.459-0.258,0.69-0.386  c0.867-0.482,1.733-0.973,2.588-1.474c0.162-0.094,0.327-0.183,0.488-0.279l0.084-0.06c6.522-3.862,12.674-8.284,18.384-13.208  l0.019-0.015c0.022-0.019,0.04-0.037,0.062-0.054c0.826-0.714,1.644-1.438,2.452-2.172c0.002-0.002,0.004-0.004,0.007-0.005  c0.79-0.72,1.572-1.451,2.344-2.19c0.229-0.219,0.453-0.443,0.679-0.665c0.542-0.525,1.082-1.053,1.614-1.587  c0.281-0.282,0.556-0.568,0.833-0.852c0.473-0.485,0.943-0.968,1.409-1.463c0.294-0.31,0.585-0.627,0.878-0.941  c0.438-0.473,0.874-0.947,1.305-1.427c0.298-0.333,0.594-0.665,0.888-0.999c0.417-0.473,0.831-0.95,1.241-1.43  c0.293-0.345,0.587-0.689,0.877-1.037c0.401-0.48,0.798-0.964,1.193-1.449c0.287-0.354,0.573-0.705,0.856-1.061  c0.393-0.496,0.782-0.996,1.167-1.497c0.271-0.351,0.543-0.702,0.812-1.058c0.393-0.522,0.779-1.049,1.166-1.577  c0.248-0.341,0.501-0.682,0.747-1.025c0.41-0.574,0.813-1.156,1.214-1.737c0.211-0.305,0.425-0.606,0.632-0.912  c0.52-0.769,1.031-1.544,1.533-2.322c0.082-0.125,0.166-0.248,0.246-0.374c0.582-0.906,1.15-1.821,1.711-2.743  c0.171-0.283,0.335-0.569,0.504-0.854c0.381-0.643,0.764-1.285,1.135-1.935c0.208-0.365,0.409-0.732,0.614-1.097  c0.323-0.578,0.645-1.155,0.958-1.737c0.215-0.399,0.425-0.802,0.636-1.203c0.293-0.558,0.583-1.115,0.868-1.678  c0.212-0.417,0.418-0.837,0.624-1.256c0.274-0.555,0.546-1.112,0.81-1.673c0.204-0.428,0.404-0.858,0.603-1.289  c0.258-0.56,0.512-1.12,0.763-1.685c0.192-0.435,0.382-0.871,0.571-1.308c0.245-0.571,0.484-1.146,0.722-1.722  c0.179-0.433,0.359-0.866,0.531-1.304c0.239-0.592,0.468-1.189,0.697-1.786c0.162-0.426,0.326-0.846,0.483-1.275  c0.237-0.635,0.46-1.273,0.685-1.913c0.138-0.393,0.282-0.785,0.417-1.182c0.253-0.743,0.496-1.494,0.735-2.245  c0.095-0.295,0.197-0.59,0.288-0.885c0.326-1.049,0.641-2.099,0.941-3.159c0.069-0.241,0.13-0.486,0.198-0.728  c0.226-0.821,0.452-1.643,0.662-2.469c0.1-0.395,0.192-0.791,0.289-1.187c0.166-0.681,0.334-1.361,0.489-2.047  c0.102-0.443,0.194-0.889,0.291-1.332c0.14-0.644,0.278-1.288,0.406-1.936c0.095-0.466,0.181-0.933,0.27-1.4  c0.118-0.632,0.235-1.266,0.345-1.901c0.083-0.477,0.161-0.957,0.238-1.436c0.102-0.634,0.201-1.267,0.293-1.903  c0.07-0.483,0.138-0.965,0.203-1.451c0.084-0.641,0.164-1.283,0.242-1.925c0.057-0.483,0.113-0.964,0.165-1.448  c0.069-0.657,0.132-1.316,0.192-1.975c0.043-0.473,0.089-0.946,0.126-1.42c0.054-0.689,0.099-1.377,0.144-2.071  c0.028-0.448,0.062-0.895,0.084-1.345c0.041-0.765,0.07-1.532,0.097-2.3c0.013-0.38,0.032-0.758,0.042-1.141  c0.031-1.148,0.049-2.302,0.049-3.458c0-12.111-1.688-23.83-4.839-34.929C316.796,180.726,300.23,157.194,278.123,140.662z"/>
<circle style="fill:#EF8229;" cx="200.219" cy="239.607" r="93.601"/>
<path style="fill:#F29F26;" d="M298.057,238.766c-0.094-2.196-0.259-4.372-0.496-6.529c-0.03-0.266-0.062-0.533-0.093-0.798  c-0.255-2.154-0.581-4.286-0.977-6.392c-0.046-0.257-0.097-0.515-0.148-0.769c-0.412-2.105-0.891-4.185-1.439-6.237  c-0.066-0.248-0.132-0.495-0.201-0.741c-0.563-2.049-1.191-4.072-1.885-6.063c-0.082-0.238-0.165-0.473-0.248-0.708  c-0.71-1.989-1.482-3.946-2.315-5.872c-0.097-0.226-0.197-0.449-0.295-0.676c-0.848-1.917-1.758-3.803-2.725-5.655  c-0.112-0.217-0.227-0.432-0.342-0.65c-0.98-1.841-2.018-3.645-3.112-5.413c-0.13-0.208-0.259-0.42-0.392-0.629  c-4.635-7.363-10.237-14.055-16.63-19.897l-0.012-0.013c-0.023-0.022-0.046-0.042-0.069-0.063c-0.259-0.238-0.524-0.47-0.787-0.702  c-0.295-0.262-0.589-0.528-0.886-0.787c-0.275-0.238-0.555-0.474-0.833-0.709c-0.293-0.248-0.584-0.5-0.88-0.745  c-0.283-0.235-0.57-0.466-0.857-0.698c-0.295-0.239-0.589-0.477-0.886-0.714c-0.293-0.231-0.589-0.458-0.883-0.685  c-0.298-0.231-0.596-0.461-0.897-0.688c-0.299-0.228-0.601-0.448-0.902-0.672c-0.301-0.221-0.605-0.441-0.907-0.661  c-0.306-0.219-0.614-0.435-0.921-0.652c-0.307-0.215-0.616-0.431-0.925-0.641c-0.309-0.212-0.619-0.422-0.929-0.629  c-0.315-0.21-0.632-0.418-0.951-0.624c-0.312-0.203-0.624-0.406-0.939-0.604c-0.321-0.204-0.645-0.403-0.968-0.603  c-0.318-0.197-0.634-0.39-0.953-0.582c-0.329-0.198-0.659-0.391-0.989-0.585c-0.319-0.186-0.636-0.373-0.956-0.556  c-0.338-0.191-0.677-0.378-1.016-0.567c-0.321-0.177-0.639-0.355-0.964-0.529c-0.345-0.187-0.695-0.368-1.042-0.55  c-0.32-0.167-0.639-0.336-0.961-0.501c-0.361-0.184-0.726-0.362-1.091-0.541c-0.312-0.156-0.624-0.311-0.941-0.463  c-0.39-0.187-0.784-0.367-1.176-0.55c-0.294-0.137-0.585-0.277-0.88-0.409c-0.496-0.223-0.994-0.437-1.494-0.652  c-0.197-0.086-0.392-0.175-0.591-0.258c-0.691-0.293-1.386-0.576-2.087-0.852c-0.269-0.107-0.542-0.206-0.812-0.31  c-0.442-0.172-0.881-0.342-1.327-0.507c-0.305-0.111-0.611-0.217-0.918-0.326c-0.414-0.148-0.827-0.296-1.242-0.439  c-0.324-0.109-0.65-0.214-0.974-0.321c-0.403-0.132-0.806-0.266-1.211-0.393c-0.334-0.105-0.669-0.203-1.005-0.305  c-0.401-0.121-0.802-0.243-1.203-0.358c-0.341-0.098-0.685-0.193-1.026-0.287c-0.401-0.112-0.802-0.221-1.206-0.326  c-0.346-0.091-0.693-0.178-1.041-0.265c-0.404-0.1-0.806-0.201-1.211-0.295c-0.35-0.083-0.701-0.162-1.053-0.243  c-0.407-0.09-0.814-0.179-1.224-0.266c-0.352-0.073-0.706-0.146-1.061-0.216c-0.41-0.082-0.823-0.16-1.235-0.235  c-0.354-0.068-0.709-0.133-1.065-0.194c-0.418-0.071-0.835-0.14-1.255-0.207c-0.354-0.056-0.709-0.112-1.063-0.165  c-0.427-0.063-0.853-0.121-1.281-0.179c-0.352-0.048-0.702-0.095-1.055-0.138c-0.436-0.054-0.873-0.103-1.31-0.149  c-0.349-0.039-0.698-0.079-1.049-0.113c-0.445-0.044-0.894-0.08-1.343-0.119c-0.342-0.027-0.684-0.062-1.026-0.084  c-0.473-0.037-0.945-0.065-1.418-0.092c-0.323-0.018-0.644-0.041-0.968-0.058c-0.528-0.025-1.058-0.042-1.587-0.059  c-0.271-0.009-0.542-0.022-0.814-0.028c-0.798-0.019-1.599-0.03-2.401-0.03c-0.005,0-0.009,0-0.014,0l0,0l0,0  c-0.006,0-0.009,0-0.015,0c-0.802,0-1.602,0.011-2.4,0.03c-0.272,0.006-0.543,0.021-0.816,0.028  c-0.529,0.017-1.059,0.035-1.587,0.059c-0.323,0.017-0.644,0.04-0.967,0.058c-0.473,0.027-0.947,0.055-1.418,0.092  c-0.344,0.023-0.685,0.057-1.027,0.084c-0.447,0.039-0.897,0.075-1.343,0.119c-0.35,0.035-0.699,0.075-1.049,0.113  c-0.438,0.046-0.875,0.095-1.309,0.149c-0.352,0.043-0.703,0.091-1.055,0.138c-0.428,0.058-0.854,0.117-1.281,0.179  c-0.356,0.054-0.71,0.11-1.064,0.165c-0.419,0.068-0.836,0.136-1.254,0.207c-0.356,0.062-0.711,0.126-1.065,0.194  c-0.414,0.075-0.825,0.153-1.236,0.235c-0.353,0.071-0.708,0.143-1.06,0.216c-0.409,0.086-0.818,0.176-1.224,0.266  c-0.352,0.08-0.702,0.16-1.053,0.243c-0.405,0.095-0.808,0.196-1.211,0.295c-0.348,0.086-0.697,0.174-1.042,0.265  c-0.403,0.105-0.804,0.214-1.203,0.326c-0.342,0.094-0.687,0.189-1.028,0.287c-0.402,0.115-0.802,0.237-1.201,0.358  c-0.336,0.102-0.671,0.201-1.006,0.305c-0.405,0.127-0.808,0.261-1.211,0.393c-0.325,0.107-0.652,0.212-0.974,0.321  c-0.417,0.143-0.83,0.292-1.242,0.439c-0.306,0.109-0.614,0.215-0.918,0.326c-0.445,0.163-0.886,0.335-1.328,0.507  c-0.271,0.104-0.544,0.203-0.813,0.31c-0.699,0.277-1.396,0.56-2.086,0.852c-0.2,0.083-0.394,0.172-0.593,0.258  c-0.498,0.214-0.997,0.429-1.492,0.652c-0.295,0.133-0.587,0.272-0.88,0.409c-0.393,0.183-0.786,0.363-1.177,0.55  c-0.315,0.152-0.63,0.309-0.944,0.463c-0.363,0.179-0.726,0.358-1.087,0.541c-0.323,0.163-0.643,0.334-0.965,0.502  c-0.346,0.181-0.695,0.363-1.04,0.549c-0.323,0.174-0.642,0.352-0.962,0.529c-0.339,0.189-0.679,0.377-1.016,0.567  c-0.321,0.184-0.637,0.371-0.956,0.556c-0.332,0.194-0.662,0.388-0.989,0.585c-0.321,0.192-0.637,0.386-0.954,0.582  c-0.323,0.2-0.646,0.399-0.966,0.603c-0.314,0.199-0.627,0.401-0.94,0.604c-0.318,0.206-0.634,0.415-0.95,0.624  c-0.311,0.206-0.62,0.417-0.929,0.629c-0.31,0.21-0.618,0.425-0.925,0.641c-0.309,0.216-0.615,0.432-0.92,0.652  c-0.068,0.051-0.136,0.099-0.204,0.15c-7.477,17.137-11.634,36.058-11.634,55.95c0,49.907,26.111,93.712,65.413,118.513  c0.865,0.022,1.726,0.055,2.597,0.055l0,0l0,0c44.073,0,81.236-29.589,92.708-69.984c1.081-3.811,1.936-7.718,2.545-11.705  c0.243-1.597,0.447-3.203,0.612-4.823c0.328-3.241,0.497-6.526,0.497-9.853c0-1.109-0.025-2.213-0.064-3.313  C298.077,239.315,298.068,239.04,298.057,238.766z"/>
<path style="fill:#83D4ED;" d="M450.332,365.107c29.286,0,53.026-23.741,53.026-53.026s-23.74-53.024-53.026-53.024  c-4.604,0-9.072,0.591-13.334,1.694c-7.633-11.021-20.362-18.244-34.784-18.244c-4.686,0-9.186,0.775-13.399,2.18  c-7.099-31.424-35.171-54.897-68.742-54.897c-38.932,0-70.493,31.561-70.493,70.495c0,0.802,0.031,1.598,0.062,2.391  c-4.956-1.553-10.226-2.391-15.695-2.391c-23.851,0-43.968,15.938-50.312,37.742c10.732-6.619,23.377-10.439,36.915-10.439  c38.932,0,70.495,31.561,70.495,70.493c0,0.804-0.034,1.599-0.062,2.393c4.954-1.553,10.224-2.393,15.69-2.393  c9.549,0,18.49,2.566,26.202,7.026h86.048"/>
<path style="fill:#C7E6F9;" d="M306.673,358.081c-5.467,0-10.736,0.839-15.69,2.393c0.027-0.793,0.062-1.589,0.062-2.393  c0-38.932-31.563-70.493-70.495-70.493c-33.571,0-61.641,23.472-68.742,54.895c-4.211-1.405-8.713-2.178-13.399-2.178  c-14.423,0-27.151,7.222-34.784,18.242c-4.261-1.102-8.728-1.692-13.336-1.692c-29.284,0-53.024,23.74-53.024,53.024  s23.739,53.026,53.024,53.026h216.386c28.947,0,52.412-23.468,52.412-52.412C359.085,381.547,335.619,358.081,306.673,358.081z"/>
<path style="fill:#E4F2F9;" d="M308.001,357.001c-5.466,0-10.736,0.839-15.69,2.393c0.027-0.793,0.062-1.589,0.062-2.393  c0-38.932-31.563-70.493-70.495-70.493c-33.571,0-61.64,23.472-68.742,54.895c-4.211-1.405-8.713-2.178-13.399-2.178  c-4.178,0-8.209,0.623-12.02,1.752c22.389,59.181,72.484,104.745,134.467,120.847h45.818c28.947,0,52.412-23.468,52.412-52.412  C360.413,380.466,336.948,357.001,308.001,357.001z"/>
<path style="fill:#9FDEF7;" d="M451.66,259.057c-4.604,0-9.073,0.591-13.334,1.694c-7.633-11.021-20.362-18.244-34.784-18.244  c-4.686,0-9.186,0.775-13.399,2.18c-7.099-31.424-35.171-54.897-68.742-54.897c-17.226,0-33.003,6.188-45.248,16.451  c0,0.025,0,0.05,0,0.075c0,75.974,51.519,139.906,121.525,158.791h22.573h31.409c29.286,0,53.026-23.741,53.026-53.026  S480.946,259.057,451.66,259.057z"/>
<g>
	<path style="fill:#231F20;" d="M198.176,95.777c4.772,0,8.642-3.869,8.642-8.642V49.1c0-4.772-3.869-8.642-8.642-8.642   s-8.642,3.869-8.642,8.642v38.036C189.535,91.908,193.404,95.777,198.176,95.777z"/>
	<path style="fill:#231F20;" d="M114.941,111.753c1.601,2.772,4.506,4.322,7.493,4.322c1.465,0,2.951-0.374,4.312-1.158   c4.133-2.387,5.55-7.672,3.164-11.806l-19.017-32.94c-2.386-4.132-7.671-5.549-11.806-3.164c-4.133,2.387-5.55,7.673-3.164,11.806   L114.941,111.753z"/>
	<path style="fill:#231F20;" d="M29.715,151.349l32.938,19.018c1.361,0.786,2.846,1.159,4.312,1.159c2.987,0,5.892-1.55,7.492-4.322   c2.387-4.133,0.97-9.418-3.163-11.805l-32.938-19.017c-4.132-2.387-9.418-0.97-11.805,3.163   C24.165,143.679,25.582,148.963,29.715,151.349z"/>
	<path style="fill:#231F20;" d="M55.319,238.632c0-4.772-3.869-8.642-8.642-8.642H8.642C3.869,229.99,0,233.86,0,238.632   s3.869,8.642,8.642,8.642h38.036C51.45,247.274,55.319,243.405,55.319,238.632z"/>
	<path style="fill:#231F20;" d="M38.356,340.882l32.938-19.017c4.133-2.386,5.55-7.672,3.163-11.805   c-2.385-4.132-7.67-5.551-11.805-3.163l-32.938,19.017c-4.133,2.386-5.55,7.672-3.163,11.805c1.6,2.772,4.505,4.322,7.491,4.322   C35.509,342.042,36.995,341.668,38.356,340.882z"/>
	<path style="fill:#231F20;" d="M329.383,171.527c1.465,0,2.951-0.374,4.312-1.158l32.94-19.017   c4.133-2.387,5.55-7.673,3.164-11.806c-2.387-4.132-7.671-5.548-11.806-3.164l-32.94,19.018c-4.133,2.387-5.55,7.672-3.164,11.806   C323.492,169.978,326.395,171.527,329.383,171.527z"/>
	<path style="fill:#231F20;" d="M269.602,114.917c1.361,0.785,2.846,1.158,4.312,1.158c2.987,0,5.892-1.55,7.493-4.322l19.017-32.94   c2.386-4.133,0.97-9.418-3.164-11.806c-4.132-2.383-9.417-0.969-11.806,3.164l-19.017,32.94   C264.051,107.244,265.469,112.529,269.602,114.917z"/>
	<path style="fill:#231F20;" d="M450.332,250.415c-3.303,0-6.597,0.264-9.846,0.787c-9.615-10.947-23.538-17.336-38.272-17.336   c-2.472,0-4.93,0.179-7.365,0.535c-4.822-13.886-13.518-26.335-25.041-35.664c-14.013-11.342-31.675-17.589-49.736-17.589   c-1.336,0-2.664,0.037-3.984,0.103c-21.897-45-67.497-73.748-117.912-73.748c-72.307,0-131.131,58.825-131.131,131.129   c0,38.764,16.963,75.011,46.054,99.788c-4.833,2.77-9.227,6.326-12.965,10.58c-3.25-0.522-6.546-0.786-9.847-0.786   c-34.003,0-61.666,27.662-61.666,61.665s27.662,61.668,61.666,61.668h216.386c33.665,0,61.054-27.388,61.054-61.053   c0-13.785-4.597-26.514-12.332-36.745h63.529c4.772,0,8.642-3.869,8.642-8.642c0-4.772-3.869-8.642-8.642-8.642H335.1   c-0.26-0.137-0.53-0.254-0.793-0.387c-0.661-0.337-1.328-0.664-2.003-0.979c-0.342-0.159-0.686-0.314-1.031-0.467   c-0.808-0.358-1.625-0.695-2.451-1.018c-0.216-0.084-0.43-0.174-0.647-0.256c-2.207-0.834-4.474-1.543-6.794-2.118   c-0.076-0.018-0.152-0.035-0.229-0.053c-1.038-0.254-2.087-0.479-3.145-0.677c-0.232-0.044-0.465-0.083-0.697-0.125   c-0.903-0.16-1.813-0.298-2.729-0.418c-0.295-0.039-0.589-0.079-0.884-0.112c-0.879-0.102-1.766-0.18-2.656-0.243   c-0.294-0.022-0.587-0.051-0.88-0.067c-1.155-0.066-2.317-0.106-3.488-0.106c-2.486,0-4.958,0.15-7.408,0.447   c-4.115-39.799-37.847-70.94-78.716-70.94c-1.075,0-2.143,0.025-3.212,0.068c-0.009,0-0.017,0.002-0.026,0.002   c-0.176,0.008-0.351,0.019-0.526,0.028c-0.326,0.015-0.652,0.038-0.979,0.057c-0.565,0.034-1.13,0.066-1.691,0.112   c-0.017,0.001-0.033,0.005-0.051,0.007c-0.301,0.025-0.602,0.057-0.902,0.085c-0.063,0.004-0.125,0.002-0.188,0.008   c-0.093,0.009-0.186,0.021-0.279,0.03c-0.31,0.031-0.619,0.067-0.928,0.1c-0.29,0.032-0.581,0.061-0.87,0.095   c-0.059,0.008-0.117,0.021-0.175,0.029c-0.216,0.027-0.431,0.057-0.647,0.086c-0.099,0.01-0.198,0.012-0.297,0.025   c-0.367,0.05-0.731,0.112-1.099,0.167c-0.255,0.039-0.51,0.076-0.764,0.117c-0.202,0.032-0.407,0.059-0.608,0.093   c-0.097,0.016-0.19,0.042-0.286,0.062c-0.115,0.016-0.228,0.023-0.344,0.043c-0.724,0.126-1.439,0.277-2.154,0.426   c-0.099,0.021-0.2,0.033-0.299,0.055c0.117-0.108,0.234-0.216,0.352-0.323c0.271-0.245,0.546-0.488,0.823-0.727   c0.204-0.176,0.409-0.35,0.618-0.523c0.288-0.239,0.58-0.473,0.875-0.704c0.203-0.16,0.405-0.321,0.61-0.476   c0.328-0.25,0.662-0.49,0.997-0.73c0.177-0.127,0.352-0.258,0.531-0.382c0.511-0.354,1.027-0.7,1.553-1.033   c0.109-0.069,0.221-0.133,0.331-0.201c0.427-0.265,0.857-0.526,1.292-0.777c0.202-0.117,0.408-0.227,0.612-0.339   c0.35-0.194,0.701-0.387,1.056-0.571c0.227-0.118,0.456-0.231,0.685-0.346c0.342-0.171,0.686-0.337,1.033-0.498   c0.235-0.11,0.472-0.218,0.71-0.323c0.353-0.157,0.71-0.308,1.067-0.456c0.231-0.095,0.461-0.192,0.695-0.284   c0.395-0.156,0.794-0.301,1.194-0.445c0.199-0.071,0.395-0.147,0.596-0.216c0.598-0.205,1.201-0.401,1.809-0.58   c0.064-0.018,0.129-0.035,0.192-0.053c0.549-0.16,1.101-0.309,1.657-0.447c0.213-0.053,0.428-0.098,0.642-0.148   c0.413-0.096,0.825-0.189,1.241-0.273c0.244-0.05,0.49-0.094,0.737-0.138c0.392-0.072,0.786-0.14,1.182-0.201   c0.254-0.039,0.508-0.077,0.762-0.111c0.4-0.055,0.802-0.103,1.204-0.147c0.246-0.027,0.493-0.055,0.74-0.078   c0.44-0.04,0.88-0.07,1.323-0.096c0.211-0.013,0.421-0.03,0.633-0.04c0.654-0.03,1.309-0.048,1.968-0.048   c4.475,0,8.886,0.671,13.112,1.995c0.262,0.082,0.528,0.145,0.795,0.198c0.165,0.036,0.332,0.064,0.498,0.089   c0.028,0.004,0.057,0.006,0.085,0.011c0.318,0.044,0.634,0.073,0.953,0.083c0.099,0.004,0.199,0.013,0.297,0.015   c0.084,0,0.166-0.011,0.251-0.013c0.118-0.004,0.235-0.01,0.353-0.018c0.243-0.017,0.482-0.046,0.718-0.083   c0.065-0.011,0.129-0.018,0.193-0.03c4.037-0.727,7.102-4.25,7.102-8.497c0-0.251-0.019-0.496-0.04-0.741   c-0.021-0.548-0.042-1.096-0.042-1.65c0-0.959,0.029-1.911,0.072-2.859c0.004-0.107,0.01-0.213,0.015-0.32   c0.019-0.372,0.052-0.739,0.078-1.108c0.039-0.562,0.075-1.125,0.129-1.682c0.054-0.551,0.124-1.098,0.192-1.644   c0.051-0.41,0.098-0.822,0.157-1.23c0.092-0.634,0.199-1.265,0.31-1.894c0.053-0.3,0.104-0.602,0.161-0.901   c0.136-0.706,0.285-1.409,0.445-2.108c0.045-0.199,0.091-0.399,0.138-0.597c0.186-0.777,0.386-1.55,0.601-2.316   c0.026-0.094,0.053-0.188,0.08-0.282c3.045-10.629,8.879-20.161,16.705-27.678c0.05-0.048,0.099-0.095,0.149-0.143   c0.598-0.571,1.21-1.131,1.831-1.679c0.093-0.082,0.188-0.163,0.282-0.244c0.593-0.516,1.196-1.023,1.808-1.518   c0.129-0.104,0.259-0.203,0.389-0.306c0.593-0.47,1.193-0.933,1.804-1.383c0.15-0.11,0.305-0.216,0.457-0.325   c0.605-0.436,1.214-0.867,1.835-1.282c0.133-0.089,0.27-0.172,0.404-0.259c2.752-1.806,5.66-3.396,8.701-4.752   c0.243-0.108,0.482-0.224,0.726-0.328c0.607-0.261,1.224-0.504,1.842-0.746c0.273-0.107,0.543-0.219,0.818-0.323   c0.631-0.238,1.27-0.458,1.911-0.675c0.263-0.089,0.523-0.181,0.786-0.267c0.67-0.217,1.347-0.418,2.027-0.612   c0.234-0.067,0.468-0.136,0.702-0.2c0.719-0.197,1.444-0.378,2.174-0.549c0.192-0.045,0.385-0.091,0.577-0.134   c0.777-0.174,1.559-0.334,2.346-0.477c0.139-0.026,0.28-0.051,0.419-0.075c0.841-0.148,1.687-0.281,2.541-0.394   c2.698-0.361,5.445-0.565,8.24-0.565c29.104,0,53.905,19.804,60.312,48.16c0.538,2.382,2.059,4.425,4.186,5.624   c2.128,1.2,4.661,1.443,6.978,0.67c3.452-1.15,7.041-1.736,10.665-1.736c11.034,0,21.382,5.428,27.68,14.521   c2.063,2.978,5.767,4.351,9.27,3.446c3.635-0.942,7.393-1.418,11.168-1.418c24.474,0,44.384,19.91,44.384,44.382   c0,24.474-19.911,44.384-44.384,44.384c-4.772,0-8.642,3.869-8.642,8.642s3.869,8.642,8.642,8.642   c34.004,0,61.668-27.663,61.668-61.668C512,278.079,484.336,250.415,450.332,250.415z M282.402,358.081   c0,0.575-0.023,1.145-0.042,1.712l-0.014,0.382c-0.097,2.802,1.171,5.476,3.401,7.175c2.228,1.697,5.143,2.21,7.82,1.371   c4.227-1.325,8.636-1.997,13.106-1.997c0.883,0,1.764,0.034,2.642,0.087c0.225,0.013,0.447,0.035,0.67,0.051   c0.693,0.053,1.385,0.12,2.074,0.205c0.197,0.025,0.394,0.049,0.591,0.076c1.794,0.247,3.572,0.601,5.319,1.067   c0.042,0.011,0.083,0.024,0.124,0.036c0.811,0.219,1.614,0.466,2.411,0.731c0.152,0.051,0.304,0.102,0.455,0.154   c0.752,0.26,1.497,0.54,2.235,0.84c0.095,0.039,0.193,0.075,0.288,0.113c0.799,0.333,1.587,0.692,2.367,1.072   c0.213,0.105,0.421,0.217,0.633,0.324c0.541,0.275,1.076,0.562,1.606,0.859c13.329,7.511,22.356,21.793,22.356,38.153   c0,24.135-19.635,43.77-43.771,43.77H90.287c-24.472,0-44.382-19.911-44.382-44.384c0-24.472,19.91-44.382,44.382-44.382   c3.775,0,7.536,0.476,11.174,1.417c3.507,0.906,7.205-0.47,9.266-3.445c5.141-7.421,12.98-12.399,21.689-13.978h0.001   c0.691-0.125,1.383-0.227,2.074-0.308c0.124-0.014,0.25-0.022,0.374-0.035c0.561-0.059,1.121-0.111,1.682-0.143   c0.245-0.014,0.492-0.014,0.737-0.023c0.429-0.015,0.858-0.029,1.285-0.028c0.819,0.004,1.637,0.036,2.45,0.098   c0.16,0.012,0.319,0.036,0.479,0.05c0.663,0.062,1.325,0.14,1.983,0.241c0.251,0.038,0.5,0.082,0.75,0.126   c0.591,0.104,1.18,0.225,1.765,0.361c0.234,0.054,0.47,0.105,0.703,0.164c0.796,0.203,1.589,0.426,2.372,0.687   c0.4,0.134,0.807,0.226,1.215,0.299c0.091,0.016,0.18,0.031,0.271,0.045c0.409,0.059,0.82,0.097,1.23,0.098   c0.005,0,0.012,0.001,0.017,0.001c0.037,0,0.072-0.007,0.109-0.007c0.296-0.003,0.592-0.023,0.886-0.056   c0.1-0.012,0.2-0.029,0.3-0.044c0.24-0.037,0.477-0.082,0.714-0.138c0.108-0.026,0.215-0.053,0.321-0.082   c0.239-0.067,0.474-0.146,0.708-0.234c0.09-0.034,0.181-0.064,0.27-0.1c0.319-0.132,0.632-0.279,0.935-0.449   c1.351-0.762,2.455-1.867,3.22-3.179c0.44-0.754,0.77-1.576,0.967-2.445c0.224-0.992,0.474-1.975,0.746-2.951   c0.015-0.056,0.033-0.111,0.05-0.167c1.601-5.66,4.026-11.046,7.139-16.001c0.159-0.253,0.311-0.509,0.473-0.758   c0.417-0.643,0.851-1.273,1.291-1.899c0.21-0.299,0.421-0.597,0.636-0.892c0.434-0.597,0.878-1.188,1.334-1.769   c0.251-0.319,0.509-0.632,0.766-0.945c0.449-0.551,0.899-1.104,1.366-1.64c0.36-0.41,0.736-0.806,1.106-1.207   c0.664-0.72,1.345-1.426,2.043-2.115c0.485-0.479,0.969-0.957,1.469-1.419c0.36-0.333,0.729-0.654,1.096-0.978   c0.531-0.468,1.068-0.93,1.616-1.379c0.352-0.29,0.706-0.577,1.065-0.859c0.62-0.487,1.251-0.959,1.889-1.423   c0.306-0.223,0.607-0.449,0.917-0.667c0.957-0.669,1.929-1.317,2.923-1.93c0.001-0.001,0.003-0.001,0.004-0.002   c0.082-0.051,0.166-0.097,0.248-0.147c0.002-0.001,0.004-0.002,0.008-0.003c0.106-0.064,0.213-0.125,0.319-0.19   c0.756-0.455,1.522-0.892,2.295-1.314c0.006-0.003,0.013-0.005,0.018-0.009l0.218-0.119c0.253-0.138,0.507-0.277,0.763-0.412   c0.001,0,0.001-0.001,0.002-0.001c0.407-0.212,0.819-0.416,1.23-0.618c0.275-0.135,0.55-0.27,0.826-0.401   c0.004-0.002,0.009-0.005,0.013-0.008c0.426-0.201,0.852-0.398,1.282-0.59c0.301-0.133,0.604-0.265,0.907-0.393   c0.001,0,0.002-0.001,0.002-0.001c0.439-0.187,0.877-0.376,1.32-0.552c0.11-0.043,0.221-0.084,0.331-0.128   c1.766-0.693,3.564-1.304,5.387-1.831c0.171-0.05,0.341-0.1,0.512-0.149c0.54-0.151,1.083-0.294,1.628-0.43   c0.212-0.052,0.423-0.104,0.635-0.154c0.535-0.127,1.069-0.253,1.608-0.366c0.179-0.038,0.36-0.07,0.539-0.107   c0.973-0.197,1.951-0.367,2.934-0.517c0.295-0.045,0.589-0.095,0.885-0.136c0.405-0.056,0.812-0.1,1.218-0.148   c0.432-0.05,0.865-0.1,1.301-0.142c0.001,0,0.002,0,0.003,0c0.334-0.032,0.668-0.059,1.001-0.086   c0.544-0.043,1.091-0.077,1.638-0.107c0.001,0,0.003,0,0.004,0c0.275-0.015,0.551-0.031,0.827-0.043   c0.823-0.032,1.645-0.054,2.473-0.054C254.655,296.231,282.402,323.976,282.402,358.081z M231.475,251.695   c-0.269,0.011-0.535,0.033-0.803,0.049c-0.55,0.03-1.101,0.058-1.648,0.104c-0.321,0.026-0.638,0.065-0.957,0.096   c-0.439,0.043-0.878,0.079-1.315,0.132c-0.053,0.006-0.106,0.016-0.159,0.023c-0.337,0.041-0.672,0.094-1.008,0.142   c-0.468,0.066-0.937,0.129-1.401,0.205c-0.345,0.056-0.687,0.123-1.029,0.186c-0.452,0.082-0.904,0.163-1.352,0.255   c-0.347,0.071-0.69,0.152-1.036,0.229c-0.442,0.098-0.883,0.197-1.321,0.306c-0.346,0.085-0.689,0.179-1.033,0.271   c-0.431,0.115-0.863,0.23-1.291,0.354c-0.345,0.1-0.686,0.207-1.028,0.313c-0.423,0.131-0.846,0.262-1.265,0.402   c-0.34,0.113-0.677,0.233-1.014,0.352c-0.417,0.147-0.833,0.296-1.245,0.452c-0.334,0.126-0.664,0.257-0.996,0.389   c-0.41,0.163-0.82,0.329-1.227,0.501c-0.326,0.138-0.65,0.28-0.974,0.423c-0.406,0.18-0.81,0.363-1.212,0.552   c-0.318,0.149-0.633,0.301-0.947,0.456c-0.401,0.197-0.798,0.397-1.195,0.603c-0.31,0.16-0.618,0.323-0.925,0.488   c-0.394,0.213-0.785,0.43-1.174,0.651c-0.3,0.171-0.601,0.342-0.898,0.518c-0.389,0.23-0.773,0.465-1.157,0.703   c-0.29,0.18-0.579,0.36-0.866,0.544c-0.382,0.246-0.76,0.498-1.137,0.753c-0.281,0.189-0.562,0.378-0.838,0.573   c-0.376,0.263-0.746,0.533-1.116,0.804c-0.269,0.198-0.539,0.393-0.805,0.594c-0.372,0.282-0.737,0.57-1.102,0.861   c-0.255,0.203-0.512,0.403-0.764,0.61c-0.368,0.301-0.729,0.611-1.09,0.923c-0.24,0.206-0.482,0.409-0.718,0.62   c-0.366,0.325-0.725,0.659-1.083,0.993c-0.221,0.206-0.446,0.409-0.665,0.619c-0.368,0.353-0.728,0.716-1.088,1.078   c-0.2,0.201-0.403,0.398-0.6,0.601c-0.378,0.392-0.746,0.794-1.115,1.196c-0.169,0.184-0.341,0.363-0.508,0.549   c-0.419,0.469-0.826,0.948-1.231,1.43c-0.107,0.126-0.217,0.25-0.323,0.377c-1.022,1.237-1.997,2.516-2.923,3.834   c-0.072,0.104-0.14,0.212-0.213,0.315c-0.382,0.552-0.759,1.107-1.123,1.673c-0.135,0.21-0.261,0.426-0.394,0.636   c-0.293,0.467-0.584,0.932-0.865,1.408c-0.152,0.257-0.295,0.522-0.443,0.781c-0.25,0.438-0.499,0.874-0.738,1.318   c-0.154,0.287-0.3,0.581-0.45,0.871c-0.219,0.426-0.441,0.849-0.65,1.281c-0.15,0.309-0.293,0.623-0.437,0.935   c-0.197,0.421-0.393,0.841-0.58,1.268c-0.143,0.325-0.277,0.655-0.414,0.983c-0.176,0.422-0.352,0.844-0.518,1.271   c-0.133,0.339-0.257,0.683-0.385,1.025c-0.107,0.291-0.223,0.578-0.326,0.871c-0.013,0.009-0.025,0.018-0.038,0.027   c-1.888,1.273-3.725,2.627-5.502,4.065c-1.767,1.431-3.46,2.944-5.091,4.515c-0.041,0.04-0.082,0.08-0.124,0.12   c-0.773,0.749-1.533,1.511-2.274,2.29c-0.043,0.045-0.087,0.09-0.13,0.135c-1.509,1.592-2.952,3.242-4.321,4.948   c-0.207,0.258-0.407,0.522-0.611,0.783c-0.42,0.537-0.836,1.077-1.241,1.625c-0.131,0.176-0.269,0.345-0.399,0.522   c-25.929-14.827-42.316-42.665-42.316-72.84c0-46.245,37.623-83.867,83.869-83.867c9.911,0,19.605,1.711,28.816,5.085   c4.482,1.643,9.445-0.66,11.087-5.142c1.642-4.481-0.66-9.445-5.142-11.087c-11.121-4.074-22.816-6.14-34.762-6.14   c-55.776,0-101.153,45.376-101.153,101.151c0,36.382,19.762,69.936,51.01,87.819c-0.367,0.838-0.719,1.684-1.058,2.535   c-0.038,0.096-0.079,0.19-0.117,0.285c-0.38,0.968-0.746,1.942-1.088,2.926c-2.433-0.355-4.892-0.534-7.365-0.534   c-1.828,0-3.644,0.099-5.439,0.293c-30.519-21.348-48.639-55.993-48.639-93.325c0-62.774,51.072-113.846,113.848-113.846   c42.036,0,80.227,23.011,100.03,59.439c-0.743,0.214-1.474,0.453-2.208,0.688c-0.268,0.085-0.538,0.166-0.805,0.255   c-0.668,0.221-1.329,0.458-1.989,0.697c-0.377,0.136-0.753,0.273-1.127,0.415c-0.622,0.237-1.241,0.48-1.857,0.731   c-0.395,0.162-0.786,0.329-1.179,0.497c-0.604,0.258-1.208,0.517-1.804,0.791c-0.351,0.161-0.697,0.332-1.045,0.498   c-0.007,0.003-0.013,0.006-0.019,0.009c-6.191-10.895-14.417-20.667-24.142-28.6c-3.699-3.015-9.143-2.465-12.159,1.235   c-3.017,3.698-2.464,9.142,1.235,12.159c8.229,6.714,15.168,15.01,20.337,24.262c-15.109,11.739-25.292,28.33-28.973,46.862   c-0.01,0.046-0.016,0.093-0.025,0.139c-0.071,0.362-0.13,0.726-0.197,1.089c-0.027,0.145-0.052,0.29-0.078,0.434   c-0.149,0.847-0.293,1.696-0.415,2.55c-0.07,0.481-0.124,0.966-0.186,1.45c-0.071,0.569-0.16,1.133-0.218,1.706   c-1.177-0.143-2.362-0.247-3.55-0.321c-0.046-0.003-0.092-0.01-0.138-0.013c-1.237-0.075-2.477-0.112-3.721-0.112   C233.119,251.643,232.296,251.662,231.475,251.695z"/>
</g>
<g>
</g>
<g>
</g>
<g>
</g>
<g>
</g>
<g>
</g>
<g>
</g>
<g>
</g>
<g>
</g>
<g>
</g>
<g>
</g>
<g>
</g>
<g>
</g>
<g>
</g>
<g>
</g>
<g>
</g>
</svg>
