<?xml version="1.0" encoding="iso-8859-1"?>
<!-- Generator: Adobe Illustrator 19.0.0, SVG Export Plug-In . SVG Version: 6.00 Build 0)  -->
<svg xmlns="http://www.w3.org/2000/svg" xmlns:xlink="http://www.w3.org/1999/xlink" version="1.1" id="Layer_1" x="0px" y="0px" viewBox="0 0 512.002 512.002" style="enable-background:new 0 0 512.002 512.002;" xml:space="preserve">
<path style="fill:#F29F26;" d="M164.127,455.385l-2.517-14.674l33.282-32.44c3.929-3.831,5.342-9.558,3.647-14.773  c-1.696-5.219-6.205-9.021-11.634-9.811l-45.995-6.683l-20.57-41.679c-2.427-4.917-7.437-8.032-12.922-8.032  c-5.487,0-10.496,3.115-12.923,8.032l-20.569,41.679l-45.996,6.683c-5.429,0.79-9.938,4.592-11.634,9.811  c-1.695,5.216-0.282,10.942,3.647,14.773l33.282,32.44l-7.858,45.808c-0.926,5.407,1.297,10.871,5.734,14.096  c4.438,3.225,10.323,3.65,15.176,1.099l41.139-21.63l41.138,21.63c2.109,1.107,4.41,1.655,6.705,1.655  c2.987,0,5.962-0.93,8.472-2.753c4.437-3.224,6.66-8.688,5.734-14.096l-0.64-3.729"/>
<g>
	<path style="fill:#EF8229;" d="M98.809,379.833l21.111-42.412c-2.464-1.878-5.512-2.955-8.729-2.955   c-5.487,0-10.496,3.115-12.923,8.032l-20.569,41.679L98.809,379.833z"/>
	<path style="fill:#EF8229;" d="M126.614,462.498l-19.196,9.78l41.138,21.63c2.108,1.107,4.41,1.655,6.705,1.655   c2.987,0,5.961-0.93,8.471-2.753c2.698-1.959,4.572-4.75,5.423-7.851L126.614,462.498z"/>
	<path style="fill:#EF8229;" d="M81.772,489.677c-4.437-3.224-6.66-8.688-5.735-14.096l7.858-45.808l-33.282-32.44   c-3.928-3.831-5.341-9.558-3.647-14.773c0.479-1.476,1.191-2.833,2.078-4.046l-13.397,1.946c-5.429,0.79-9.938,4.592-11.634,9.811   c-1.695,5.216-0.282,10.942,3.647,14.773l33.282,32.44l-7.858,45.808c-0.926,5.407,1.297,10.871,5.735,14.096   c4.438,3.225,10.323,3.65,15.176,1.099l12.483-6.563C84.814,491.471,83.216,490.725,81.772,489.677z"/>
</g>
<g>
	<path style="fill:#231F20;" d="M188.143,375.169l-41.517-6.032l-18.568-37.622c-3.907-7.914-11.816-12.83-20.641-12.83   c-8.826,0-16.736,4.916-20.642,12.831l-18.567,37.621l-41.519,6.032c-8.732,1.272-15.852,7.276-18.581,15.67   c-2.726,8.392-0.495,17.434,5.825,23.597l30.042,29.282l-7.093,41.35c-1.49,8.7,2.02,17.327,9.16,22.512   c4.035,2.932,8.755,4.421,13.509,4.421c3.657,0,7.335-0.882,10.733-2.667l37.134-19.524l37.135,19.524   c3.291,1.728,6.994,2.643,10.708,2.643c4.891,0,9.57-1.52,13.53-4.396c7.14-5.186,10.65-13.813,9.159-22.515l-0.64-3.729   c-0.805-4.685-5.254-7.831-9.94-7.028c-4.685,0.804-7.832,5.254-7.028,9.939l0.639,3.727c0.377,2.195-0.509,4.372-2.308,5.678   c-1.76,1.278-4.194,1.451-6.113,0.443l-41.138-21.63c-2.508-1.318-5.505-1.318-8.012,0l-41.138,21.629   c-1.97,1.037-4.311,0.866-6.114-0.442c-1.8-1.308-2.686-3.483-2.309-5.676l7.858-45.808c0.479-2.793-0.447-5.641-2.476-7.619   L25.952,402.11c-1.593-1.555-2.157-3.835-1.47-5.95c0.689-2.117,2.484-3.632,4.686-3.953l45.995-6.683   c2.804-0.408,5.227-2.169,6.48-4.709l20.569-41.678c0.984-1.995,2.978-3.234,5.204-3.234c2.225,0,4.219,1.24,5.203,3.233   l20.57,41.679c1.253,2.54,3.678,4.302,6.48,4.709l45.993,6.683c2.204,0.321,3.999,1.834,4.687,3.953   c0.688,2.115,0.125,4.395-1.469,5.949l-33.282,32.44c-2.029,1.978-2.955,4.826-2.476,7.619l2.517,14.674   c0.805,4.687,5.256,7.828,9.939,7.028c4.686-0.804,7.832-5.254,7.028-9.939l-1.752-10.213l30.043-29.283   c6.319-6.162,8.552-15.203,5.824-23.597C203.998,382.444,196.878,376.44,188.143,375.169z"/>
	<path style="fill:#231F20;" d="M231.765,55.242c0.48,14.246,6.48,27.452,16.894,37.186c1.659,1.55,3.77,2.319,5.876,2.319   c2.3,0,4.595-0.917,6.29-2.73c3.247-3.473,3.063-8.92-0.411-12.167c-7.054-6.593-11.118-15.539-11.443-25.188   c-0.325-9.65,3.127-18.85,9.72-25.904c0.282-0.301,0.527-0.621,0.757-0.949c13.723-13.738,36.042-14.218,50.333-0.861   c7.065,6.605,11.136,15.567,11.462,25.234c0.326,9.666-3.132,18.882-9.737,25.948L123.544,279.202   c-3.246,3.473-3.063,8.92,0.41,12.166c1.66,1.552,3.77,2.32,5.877,2.32c2.3,0,4.595-0.917,6.29-2.73l187.96-201.072   c9.746-10.425,14.848-24.021,14.366-38.285c-0.48-14.263-6.487-27.484-16.912-37.23c-21.522-20.114-55.397-18.976-75.515,2.545   c-0.394,0.421-0.734,0.872-1.028,1.343C236,28.498,231.303,41.559,231.765,55.242z"/>
	<path style="fill:#231F20;" d="M488.118,170.092c-21.523-20.118-55.399-18.976-75.514,2.544L224.642,373.707   c-3.246,3.473-3.063,8.92,0.41,12.166c1.66,1.552,3.77,2.32,5.877,2.32c2.3,0,4.595-0.917,6.29-2.73l187.963-201.072   c13.634-14.585,36.595-15.358,51.182-1.724c14.288,13.358,15.313,35.658,2.532,50.273c-0.313,0.253-0.618,0.521-0.901,0.823   c-6.592,7.054-15.538,11.118-25.188,11.443c-9.653,0.329-18.851-3.127-25.904-9.721c-3.474-3.244-8.92-3.063-12.167,0.411   c-3.246,3.473-3.062,8.92,0.411,12.167c9.963,9.312,22.825,14.38,36.396,14.38c0.612,0,1.228-0.011,1.842-0.03   c13.684-0.462,26.399-6.026,36.008-15.692c0.451-0.324,0.877-0.695,1.27-1.116C510.781,224.086,509.638,190.21,488.118,170.092z"/>
	<path style="fill:#231F20;" d="M179.542,320.627l-9.083,9.716c-3.246,3.472-3.063,8.92,0.41,12.166   c1.66,1.552,3.77,2.32,5.877,2.32c2.3,0,4.594-0.917,6.29-2.73l9.083-9.716c3.246-3.473,3.063-8.92-0.41-12.166   C188.236,316.971,182.789,317.153,179.542,320.627z"/>
	<path style="fill:#231F20;" d="M449.827,44.095c-3.473-3.247-8.921-3.064-12.166,0.41l-237.764,254.35   c-3.246,3.472-3.063,8.92,0.41,12.166c1.659,1.552,3.77,2.32,5.876,2.32c2.3,0,4.595-0.917,6.29-2.73L450.236,56.26   C453.483,52.788,453.299,47.34,449.827,44.095z"/>
	<path style="fill:#231F20;" d="M54.514,276.544c2.3,0,4.595-0.917,6.29-2.73l88.996-95.206c3.246-3.473,3.063-8.92-0.41-12.166   c-3.472-3.247-8.919-3.065-12.166,0.41l-88.996,95.205c-3.246,3.473-3.063,8.92,0.41,12.166   C50.298,275.776,52.409,276.544,54.514,276.544z"/>
	<path style="fill:#231F20;" d="M300.162,388.373l-63.796,68.247c-3.246,3.472-3.063,8.92,0.41,12.166   c1.66,1.551,3.77,2.32,5.877,2.32c2.3,0,4.595-0.917,6.29-2.73l63.795-68.247c3.246-3.473,3.063-8.92-0.41-12.166   C308.853,384.717,303.408,384.901,300.162,388.373z"/>
	<path style="fill:#231F20;" d="M325.364,361.414l-5.003,5.352c-3.247,3.472-3.064,8.92,0.409,12.167   c1.66,1.552,3.771,2.32,5.877,2.32c2.3,0,4.594-0.917,6.29-2.729l5.003-5.352c3.247-3.473,3.064-8.92-0.409-12.167   S328.61,357.943,325.364,361.414z"/>
</g>
<g>
</g>
<g>
</g>
<g>
</g>
<g>
</g>
<g>
</g>
<g>
</g>
<g>
</g>
<g>
</g>
<g>
</g>
<g>
</g>
<g>
</g>
<g>
</g>
<g>
</g>
<g>
</g>
<g>
</g>
</svg>
