<?xml version="1.0" encoding="iso-8859-1"?>
<!-- Generator: Adobe Illustrator 19.0.0, SVG Export Plug-In . SVG Version: 6.00 Build 0)  -->
<svg xmlns="http://www.w3.org/2000/svg" xmlns:xlink="http://www.w3.org/1999/xlink" version="1.1" id="Layer_1" x="0px" y="0px" viewBox="0 0 512 512" style="enable-background:new 0 0 512 512;" xml:space="preserve">
<path style="fill:#EAC71C;" d="M70.574,214.494c0.025,0.68,0.048,1.359,0.085,2.037c0.023,0.397,0.049,0.796,0.075,1.192  c0.04,0.613,0.078,1.227,0.128,1.835c0.033,0.422,0.073,0.84,0.112,1.26c0.052,0.584,0.107,1.167,0.169,1.749  c0.046,0.43,0.097,0.857,0.146,1.282c0.068,0.571,0.139,1.141,0.214,1.707c0.059,0.43,0.118,0.859,0.181,1.285  c0.082,0.562,0.169,1.126,0.258,1.686c0.069,0.425,0.138,0.848,0.211,1.275c0.098,0.56,0.201,1.123,0.306,1.681  c0.078,0.416,0.157,0.831,0.239,1.243c0.113,0.573,0.238,1.144,0.36,1.716c0.085,0.392,0.167,0.787,0.257,1.183  c0.139,0.605,0.287,1.209,0.435,1.812c0.085,0.348,0.167,0.701,0.255,1.052c0.187,0.733,0.385,1.459,0.587,2.188  c0.06,0.214,0.114,0.432,0.175,0.647c0.267,0.938,0.544,1.868,0.833,2.797c0.082,0.264,0.17,0.525,0.254,0.785  c0.213,0.668,0.426,1.331,0.653,1.991c0.118,0.35,0.245,0.697,0.369,1.046c0.2,0.567,0.398,1.134,0.605,1.696  c0.139,0.376,0.286,0.751,0.429,1.13c0.202,0.529,0.405,1.056,0.615,1.583c0.155,0.386,0.313,0.769,0.473,1.155  c0.209,0.508,0.421,1.02,0.641,1.524c0.166,0.388,0.336,0.773,0.506,1.159c0.223,0.5,0.445,1,0.674,1.493  c0.175,0.382,0.354,0.764,0.533,1.144c0.238,0.496,0.476,0.989,0.718,1.482c0.185,0.372,0.368,0.743,0.555,1.113  c0.253,0.498,0.511,0.993,0.77,1.487c0.188,0.357,0.373,0.714,0.563,1.066c0.278,0.516,0.563,1.029,0.849,1.542  c0.181,0.324,0.358,0.649,0.544,0.972c0.329,0.575,0.667,1.144,1.006,1.714c0.149,0.252,0.295,0.506,0.447,0.758  c0.496,0.815,1,1.628,1.516,2.432c0.071,0.112,0.146,0.218,0.217,0.33c0.445,0.691,0.898,1.377,1.358,2.058  c0.186,0.273,0.376,0.54,0.562,0.811c0.357,0.515,0.713,1.029,1.077,1.539c0.217,0.304,0.441,0.605,0.663,0.909  c0.34,0.467,0.683,0.934,1.033,1.396c0.237,0.315,0.477,0.628,0.719,0.938c0.342,0.443,0.685,0.886,1.033,1.327  c0.25,0.315,0.504,0.626,0.758,0.938c0.349,0.43,0.702,0.861,1.057,1.285c0.257,0.309,0.517,0.615,0.778,0.919  c0.363,0.425,0.729,0.846,1.099,1.264c0.26,0.298,0.521,0.594,0.788,0.888c0.381,0.426,0.769,0.846,1.156,1.264  c0.258,0.282,0.516,0.56,0.779,0.835c0.41,0.434,0.827,0.865,1.246,1.293c0.246,0.254,0.489,0.508,0.739,0.758  c0.471,0.474,0.95,0.941,1.429,1.407c0.204,0.196,0.401,0.395,0.605,0.588c0.685,0.655,1.377,1.302,2.078,1.94l0.005,0.006  c0.716,0.65,1.441,1.291,2.173,1.923c0.018,0.017,0.034,0.033,0.053,0.048l0.019,0.013c3.524,3.04,7.251,5.849,11.136,8.441  c11.488-10.234,26.626-16.457,43.226-16.457c7.201,0,14.125,1.186,20.598,3.349c10.919-48.314,54.076-84.405,105.691-84.405  c2.078,0,4.138,0.08,6.187,0.196c-0.269-9.589-1.721-18.88-4.234-27.728c-6.857-24.148-21.539-45.005-41.13-59.654  c-18.865-14.109-42.284-22.463-67.655-22.463c-25.371,0-48.788,8.354-67.655,22.463c-19.592,14.649-34.272,35.506-41.13,59.654  c-2.795,9.836-4.29,20.222-4.29,30.955c0,1.024,0.016,2.047,0.043,3.066C70.545,213.82,70.564,214.159,70.574,214.494z"/>
<path style="fill:#EDE21B;" d="M251.181,118.545c-17.613-13.17-39.196-21.321-62.628-22.339  c-34.092,19.167-57.127,55.68-57.127,97.576c0,61.469,49.574,111.352,110.922,111.867c5.295-3.232,10.322-6.866,14.997-10.901  l0.019-0.012c0.017-0.016,0.033-0.031,0.053-0.048c0.733-0.63,1.456-1.274,2.172-1.923c0.002-0.003,0.004-0.003,0.004-0.003  c0.703-0.64,1.393-1.286,2.079-1.941c0.203-0.196,0.401-0.395,0.603-0.588c0.479-0.468,0.96-0.934,1.43-1.408  c0.249-0.248,0.491-0.504,0.739-0.756c0.419-0.429,0.836-0.859,1.247-1.294c0.261-0.275,0.519-0.555,0.778-0.835  c0.388-0.416,0.775-0.836,1.157-1.262c0.264-0.293,0.525-0.59,0.787-0.886c0.369-0.42,0.734-0.842,1.098-1.266  c0.261-0.304,0.519-0.612,0.778-0.919c0.355-0.425,0.707-0.855,1.058-1.287c0.252-0.31,0.506-0.621,0.756-0.937  c0.348-0.439,0.693-0.883,1.033-1.324c0.242-0.312,0.483-0.624,0.722-0.938c0.346-0.462,0.689-0.93,1.03-1.396  c0.221-0.303,0.446-0.605,0.663-0.909c0.364-0.511,0.719-1.024,1.074-1.54c0.189-0.268,0.378-0.536,0.56-0.809  c0.463-0.679,0.916-1.365,1.361-2.056c0.071-0.11,0.147-0.219,0.218-0.331c0.514-0.802,1.018-1.615,1.514-2.43  c0.152-0.249,0.296-0.506,0.447-0.758c0.34-0.569,0.678-1.136,1.008-1.714c0.185-0.323,0.361-0.647,0.542-0.972  c0.286-0.511,0.573-1.022,0.85-1.54c0.191-0.349,0.376-0.708,0.563-1.065c0.258-0.493,0.518-0.989,0.771-1.487  c0.187-0.37,0.37-0.74,0.553-1.113c0.242-0.491,0.483-0.985,0.718-1.482c0.178-0.381,0.358-0.758,0.533-1.141  c0.228-0.497,0.452-0.995,0.674-1.494c0.171-0.385,0.34-0.772,0.506-1.158c0.218-0.505,0.43-1.016,0.643-1.525  c0.158-0.385,0.316-0.77,0.471-1.153c0.212-0.527,0.414-1.054,0.615-1.583c0.143-0.378,0.29-0.753,0.43-1.13  c0.207-0.562,0.405-1.129,0.605-1.696c0.124-0.346,0.25-0.693,0.37-1.044c0.225-0.659,0.439-1.324,0.65-1.991  c0.084-0.26,0.174-0.521,0.255-0.785c0.288-0.928,0.565-1.859,0.832-2.797c0.059-0.214,0.115-0.43,0.176-0.645  c0.199-0.729,0.398-1.457,0.586-2.188c0.088-0.35,0.17-0.702,0.258-1.052c0.146-0.602,0.293-1.207,0.432-1.812  c0.088-0.396,0.17-0.788,0.256-1.181c0.124-0.571,0.246-1.141,0.361-1.716c0.082-0.413,0.159-0.827,0.238-1.241  c0.105-0.56,0.21-1.12,0.306-1.685c0.073-0.422,0.143-0.847,0.212-1.272c0.088-0.56,0.174-1.124,0.258-1.685  c0.061-0.428,0.12-0.856,0.178-1.286c0.076-0.567,0.147-1.136,0.214-1.705c0.051-0.427,0.099-0.855,0.147-1.282  c0.061-0.582,0.117-1.164,0.17-1.75c0.04-0.419,0.077-0.837,0.112-1.259c0.051-0.608,0.089-1.219,0.128-1.833  c0.025-0.398,0.055-0.794,0.075-1.193c0.035-0.676,0.061-1.357,0.084-2.035c0.013-0.338,0.029-0.672,0.038-1.012  c0.029-1.016,0.044-2.038,0.044-3.064c0-10.73-1.495-21.11-4.289-30.944C285.443,154.043,270.765,133.191,251.181,118.545z"/>
<path style="fill:#EF8229;" d="M98.827,221.056c0.099,0.793,0.204,1.583,0.325,2.368c0.541,3.534,1.298,6.996,2.258,10.372  c0.284,1,0.591,1.989,0.909,2.971c0.09,0.275,0.182,0.548,0.274,0.823c0.263,0.785,0.538,1.566,0.823,2.341  c0.078,0.212,0.154,0.428,0.233,0.641c0.323,0.852,0.654,1.701,1.003,2.54l0.028,0.046c3.366,8.1,7.948,15.563,13.509,22.179  l0.058,0.095c0.252,0.3,0.513,0.592,0.768,0.886c0.147,0.17,0.291,0.342,0.44,0.508c0.658,0.749,1.329,1.487,2.012,2.211  c0.125,0.132,0.254,0.26,0.379,0.392c0.597,0.624,1.203,1.238,1.817,1.844c0.16,0.157,0.319,0.317,0.481,0.472  c0.717,0.694,1.445,1.379,2.187,2.049c0.126,0.113,0.254,0.225,0.381,0.338c0.649,0.579,1.307,1.148,1.974,1.707  c0.174,0.147,0.349,0.296,0.526,0.443c0.771,0.636,1.551,1.262,2.346,1.873c0.126,0.097,0.254,0.189,0.381,0.286  c0.698,0.531,1.407,1.05,2.122,1.56c0.191,0.137,0.381,0.273,0.571,0.407c0.822,0.575,1.653,1.139,2.495,1.688  c0.121,0.077,0.246,0.152,0.367,0.231c0.748,0.478,1.504,0.947,2.267,1.405c0.205,0.124,0.411,0.247,0.617,0.37  c0.869,0.508,1.744,1.006,2.629,1.487c0.117,0.063,0.24,0.124,0.358,0.187c0.792,0.425,1.593,0.835,2.4,1.234  c0.219,0.108,0.439,0.218,0.659,0.324c0.911,0.441,1.826,0.87,2.755,1.278c0.112,0.048,0.226,0.095,0.338,0.143  c0.498,0.216,1.003,0.418,1.505,0.626c4.229-0.865,8.605-1.327,13.091-1.327c7.201,0,14.125,1.186,20.598,3.349  c9.364-41.436,42.449-73.856,84.238-82.255c-0.011-0.555-0.014-1.113-0.031-1.665c-0.01-0.242-0.018-0.487-0.028-0.731  c-0.042-0.972-0.092-1.938-0.166-2.904c-0.074-0.965-0.169-1.923-0.273-2.877c-0.027-0.24-0.054-0.476-0.083-0.714  c-0.225-1.904-0.515-3.789-0.864-5.657c-0.042-0.233-0.086-0.464-0.133-0.693c-0.363-1.862-0.788-3.699-1.272-5.516  c-0.06-0.225-0.119-0.447-0.183-0.67c-0.498-1.812-1.052-3.597-1.665-5.358c-0.074-0.216-0.152-0.43-0.228-0.645  c-0.627-1.758-1.309-3.487-2.046-5.188c-0.087-0.203-0.177-0.41-0.267-0.613c-0.749-1.696-1.553-3.364-2.408-4.999  c-0.102-0.196-0.206-0.39-0.311-0.588c-0.868-1.628-1.786-3.225-2.753-4.789c-0.117-0.187-0.233-0.374-0.352-0.559  c-1.027-1.632-2.107-3.227-3.239-4.781c-3.395-4.663-7.249-8.97-11.497-12.852l-0.013-0.013c-0.02-0.019-0.039-0.035-0.059-0.055  c-0.233-0.21-0.469-0.418-0.703-0.626c-0.259-0.231-0.517-0.464-0.779-0.691c-0.124-0.11-0.249-0.214-0.375-0.319  c-0.125-0.108-0.249-0.214-0.374-0.319c-0.128-0.11-0.256-0.216-0.384-0.326c-0.128-0.11-0.255-0.218-0.383-0.326  c-0.257-0.212-0.515-0.42-0.773-0.63c-0.256-0.207-0.513-0.416-0.772-0.621c-0.266-0.21-0.532-0.416-0.799-0.621  c-0.258-0.2-0.516-0.397-0.776-0.594c-0.271-0.203-0.545-0.405-0.816-0.606c-0.262-0.193-0.525-0.386-0.787-0.573  c-0.277-0.2-0.556-0.397-0.833-0.59c-0.267-0.187-0.531-0.374-0.801-0.557c-0.281-0.191-0.56-0.381-0.843-0.567  c-0.272-0.183-0.546-0.363-0.819-0.542c-0.284-0.183-0.568-0.368-0.854-0.546c-0.278-0.178-0.559-0.35-0.837-0.522  c-0.287-0.178-0.572-0.355-0.861-0.529c-0.285-0.168-0.571-0.338-0.857-0.506c-0.29-0.168-0.579-0.338-0.871-0.504  c-0.29-0.166-0.582-0.328-0.874-0.487c-0.292-0.163-0.584-0.326-0.877-0.485c-0.298-0.16-0.599-0.315-0.897-0.472  c-0.293-0.154-0.585-0.306-0.879-0.458c-0.305-0.156-0.615-0.306-0.922-0.458l-0.003-0.002c-0.009-0.004-0.016-0.009-0.016-0.009  c-0.29-0.143-0.572-0.286-0.86-0.425c-0.16-0.075-0.324-0.152-0.486-0.227c-0.161-0.073-0.325-0.152-0.486-0.227  c-0.284-0.132-0.565-0.267-0.85-0.395c-0.198-0.088-0.395-0.172-0.591-0.258c-0.198-0.084-0.393-0.172-0.591-0.258  c-0.3-0.13-0.601-0.26-0.902-0.386c-0.533-0.223-1.065-0.443-1.601-0.655c-0.26-0.103-0.525-0.2-0.785-0.298  c-0.371-0.143-0.74-0.287-1.11-0.424c-0.282-0.103-0.565-0.202-0.848-0.3c-0.356-0.126-0.711-0.256-1.066-0.378  c-0.146-0.051-0.295-0.097-0.443-0.145c-0.147-0.048-0.293-0.097-0.442-0.147c-0.175-0.057-0.352-0.113-0.526-0.17  c-0.175-0.059-0.349-0.116-0.525-0.172c-0.304-0.092-0.606-0.183-0.911-0.275c-0.347-0.107-0.696-0.21-1.047-0.313  c-0.307-0.088-0.618-0.17-0.928-0.258c-0.348-0.097-0.699-0.191-1.05-0.284c-0.312-0.082-0.624-0.161-0.934-0.238  c-0.354-0.09-0.708-0.176-1.064-0.26c-0.313-0.073-0.628-0.145-0.944-0.216c-0.356-0.08-0.713-0.157-1.07-0.233  c-0.318-0.068-0.634-0.132-0.954-0.196c-0.359-0.069-0.721-0.141-1.085-0.207c-0.158-0.029-0.318-0.057-0.475-0.086  c-0.159-0.027-0.317-0.057-0.475-0.084c-0.369-0.063-0.736-0.124-1.104-0.183c-0.317-0.053-0.634-0.103-0.95-0.149  c-0.374-0.055-0.75-0.107-1.127-0.157c-0.156-0.021-0.315-0.04-0.472-0.061c-0.156-0.021-0.313-0.044-0.471-0.063  c-0.384-0.048-0.769-0.09-1.153-0.13c-0.311-0.035-0.621-0.072-0.933-0.103c-0.198-0.019-0.397-0.035-0.596-0.053  c-0.198-0.017-0.397-0.035-0.596-0.053c-0.303-0.025-0.606-0.053-0.909-0.075c-0.418-0.031-0.839-0.055-1.258-0.08  c-0.286-0.017-0.571-0.038-0.857-0.053c-0.311-0.015-0.624-0.023-0.937-0.033c-0.156-0.006-0.312-0.013-0.468-0.019  c-0.243-0.006-0.482-0.019-0.722-0.025c-0.707-0.017-1.417-0.027-2.129-0.027c0,0-0.008,0-0.011,0h-0.002c0,0-0.008,0-0.013,0  c-0.71,0-1.42,0.011-2.127,0.027c-0.242,0.006-0.481,0.018-0.723,0.025c-0.156,0.006-0.312,0.013-0.467,0.019  c-0.314,0.011-0.626,0.019-0.938,0.033c-0.286,0.015-0.571,0.035-0.856,0.053c-0.419,0.025-0.839,0.048-1.258,0.08  c-0.303,0.023-0.605,0.051-0.911,0.075c-0.198,0.017-0.396,0.035-0.594,0.053c-0.198,0.017-0.397,0.033-0.596,0.053  c-0.312,0.031-0.622,0.068-0.933,0.103c-0.386,0.04-0.77,0.082-1.155,0.13c-0.157,0.019-0.314,0.042-0.471,0.063  c-0.157,0.021-0.315,0.04-0.472,0.061c-0.376,0.051-0.751,0.103-1.126,0.157c-0.319,0.046-0.635,0.097-0.951,0.149  c-0.369,0.059-0.736,0.119-1.104,0.183c-0.158,0.027-0.316,0.057-0.474,0.084c-0.159,0.029-0.318,0.057-0.476,0.086  c-0.363,0.068-0.726,0.139-1.086,0.207c-0.317,0.063-0.634,0.128-0.951,0.196c-0.358,0.075-0.715,0.154-1.071,0.233  c-0.316,0.071-0.63,0.143-0.945,0.216c-0.355,0.084-0.71,0.17-1.063,0.26c-0.311,0.075-0.622,0.156-0.934,0.238  c-0.352,0.092-0.701,0.187-1.051,0.284c-0.309,0.088-0.619,0.17-0.928,0.258c-0.348,0.103-0.697,0.205-1.046,0.313  c-0.303,0.092-0.606,0.183-0.909,0.275c-0.176,0.057-0.35,0.113-0.526,0.172c-0.174,0.057-0.349,0.113-0.526,0.17  c-0.148,0.051-0.293,0.099-0.442,0.147c-0.148,0.048-0.297,0.095-0.444,0.145c-0.355,0.121-0.71,0.252-1.065,0.378  c-0.283,0.099-0.567,0.198-0.848,0.3c-0.372,0.137-0.74,0.282-1.109,0.424c-0.261,0.099-0.526,0.196-0.787,0.298  c-0.534,0.212-1.067,0.432-1.6,0.655c-0.301,0.126-0.602,0.256-0.902,0.386c-0.199,0.086-0.393,0.174-0.591,0.258  c-0.197,0.086-0.395,0.17-0.59,0.258c-0.286,0.128-0.568,0.262-0.851,0.395c-0.161,0.075-0.325,0.154-0.486,0.227  c-0.161,0.075-0.326,0.152-0.487,0.227c-0.286,0.139-0.568,0.282-0.851,0.422c-0.008,0.002-0.015,0.006-0.023,0.011l-0.003,0.002  c-0.307,0.152-0.617,0.302-0.922,0.458c-0.295,0.152-0.587,0.304-0.879,0.458c-0.299,0.157-0.598,0.313-0.897,0.472  c-0.293,0.159-0.586,0.321-0.877,0.485c-0.291,0.159-0.583,0.321-0.875,0.487c-0.29,0.166-0.579,0.336-0.87,0.504  c-0.286,0.168-0.571,0.338-0.857,0.506c-0.288,0.174-0.574,0.35-0.861,0.529c-0.279,0.172-0.56,0.344-0.837,0.522  c-0.286,0.178-0.571,0.363-0.854,0.546c-0.273,0.178-0.547,0.359-0.819,0.542c-0.283,0.187-0.562,0.376-0.843,0.567  c-0.27,0.183-0.534,0.37-0.801,0.557c-0.281,0.193-0.558,0.39-0.833,0.59c-0.262,0.187-0.524,0.381-0.787,0.573  c-0.271,0.202-0.545,0.403-0.816,0.606c-0.26,0.198-0.517,0.395-0.776,0.594c-0.267,0.205-0.533,0.412-0.799,0.621  c-0.258,0.205-0.515,0.414-0.772,0.621c-0.257,0.21-0.515,0.418-0.772,0.63c-0.129,0.107-0.256,0.216-0.384,0.326  c-0.128,0.11-0.256,0.216-0.384,0.326c-0.124,0.105-0.247,0.212-0.374,0.319c-0.125,0.105-0.249,0.21-0.375,0.319  c-0.261,0.227-0.519,0.46-0.779,0.691c-0.234,0.207-0.471,0.416-0.704,0.626c-0.019,0.019-0.038,0.035-0.058,0.055l-0.012,0.013  c-4.25,3.882-8.104,8.188-11.498,12.852c-1.132,1.553-2.212,3.15-3.239,4.781c-0.117,0.185-0.234,0.372-0.352,0.559  c-0.966,1.564-1.886,3.162-2.753,4.789c-0.104,0.198-0.207,0.392-0.31,0.588c-0.856,1.635-1.659,3.302-2.408,4.999  c-0.09,0.203-0.181,0.41-0.268,0.613c-0.737,1.701-1.419,3.43-2.046,5.188c-0.076,0.214-0.154,0.428-0.227,0.645  c-0.613,1.762-1.167,3.546-1.666,5.358c-0.062,0.223-0.123,0.445-0.184,0.67c-0.481,1.816-0.907,3.653-1.271,5.516  c-0.047,0.229-0.09,0.46-0.133,0.693c-0.349,1.866-0.64,3.752-0.864,5.657c-0.029,0.238-0.055,0.474-0.082,0.714  c-0.105,0.954-0.2,1.91-0.273,2.877c-0.074,0.965-0.125,1.932-0.167,2.904c-0.01,0.244-0.019,0.489-0.028,0.731  c-0.031,0.976-0.055,1.952-0.055,2.937c0,2.948,0.149,5.86,0.441,8.73C98.673,219.787,98.747,220.424,98.827,221.056z"/>
<path style="fill:#F29F26;" d="M268.839,205.462c-0.042-0.972-0.092-1.939-0.166-2.903c-0.073-0.967-0.168-1.923-0.273-2.878  c-0.027-0.24-0.053-0.475-0.082-0.714c-0.225-1.904-0.515-3.788-0.864-5.655c-0.043-0.232-0.087-0.463-0.133-0.692  c-0.364-1.862-0.789-3.698-1.272-5.515c-0.06-0.226-0.12-0.446-0.182-0.67c-0.5-1.81-1.053-3.596-1.665-5.357  c-0.075-0.214-0.152-0.428-0.229-0.644c-0.626-1.757-1.308-3.484-2.045-5.187c-0.086-0.204-0.176-0.41-0.267-0.613  c-0.749-1.694-1.551-3.359-2.408-4.996c-0.101-0.197-0.205-0.39-0.309-0.587c-0.868-1.63-1.786-3.226-2.753-4.789  c-0.117-0.187-0.233-0.372-0.35-0.559c-1.029-1.632-2.108-3.223-3.238-4.778c-3.395-4.662-7.248-8.967-11.495-12.847l-0.013-0.013  c-0.019-0.018-0.038-0.035-0.057-0.055c-0.235-0.209-0.471-0.418-0.705-0.626c-0.258-0.231-0.516-0.464-0.777-0.693  c-0.126-0.107-0.25-0.211-0.376-0.317c-0.124-0.107-0.247-0.214-0.374-0.319c-0.128-0.11-0.256-0.215-0.384-0.326  c-0.127-0.11-0.254-0.218-0.382-0.326c-0.258-0.212-0.515-0.419-0.773-0.628c-0.257-0.207-0.515-0.417-0.771-0.621  c-0.267-0.21-0.532-0.417-0.8-0.621c-0.258-0.2-0.515-0.398-0.775-0.594c-0.271-0.204-0.545-0.405-0.815-0.606  c-0.264-0.193-0.527-0.384-0.789-0.573c-0.275-0.2-0.554-0.396-0.831-0.588c-0.267-0.19-0.531-0.375-0.801-0.557  c-0.281-0.193-0.561-0.382-0.843-0.569c-0.271-0.183-0.546-0.361-0.819-0.54c-0.284-0.185-0.567-0.37-0.852-0.55  c-0.279-0.175-0.559-0.348-0.837-0.519c-0.286-0.177-0.573-0.356-0.861-0.528c-0.286-0.171-0.571-0.338-0.857-0.508  c-0.29-0.168-0.579-0.338-0.87-0.502c-0.291-0.166-0.582-0.33-0.874-0.489c-0.293-0.161-0.584-0.324-0.877-0.481  c-0.298-0.161-0.599-0.317-0.897-0.472c-0.292-0.156-0.584-0.31-0.879-0.462c-0.304-0.154-0.614-0.304-0.921-0.456l-0.003-0.002  c-0.008-0.004-0.016-0.009-0.016-0.009c-0.29-0.143-0.573-0.286-0.859-0.424c-0.161-0.076-0.326-0.154-0.487-0.228  c-0.161-0.074-0.324-0.151-0.485-0.227c-0.284-0.131-0.567-0.267-0.85-0.395c-0.198-0.086-0.395-0.172-0.592-0.258  c-0.197-0.084-0.392-0.172-0.59-0.258c-0.3-0.128-0.601-0.259-0.903-0.386c-0.531-0.22-1.063-0.442-1.597-0.653  c-0.262-0.103-0.525-0.202-0.787-0.3c-0.37-0.141-0.737-0.286-1.108-0.422c-0.282-0.105-0.567-0.202-0.85-0.3  c-0.355-0.128-0.71-0.256-1.064-0.378c-0.147-0.051-0.293-0.097-0.443-0.147c-0.147-0.046-0.293-0.097-0.442-0.145  c-0.175-0.058-0.349-0.114-0.526-0.17c-0.174-0.059-0.348-0.115-0.525-0.172c-0.302-0.094-0.606-0.183-0.909-0.275  c-0.348-0.107-0.697-0.211-1.046-0.313c-0.309-0.087-0.619-0.17-0.928-0.258c-0.348-0.097-0.699-0.191-1.05-0.284  c-0.311-0.084-0.624-0.16-0.934-0.238c-0.353-0.09-0.71-0.176-1.064-0.26c-0.313-0.073-0.628-0.146-0.943-0.216  c-0.355-0.08-0.712-0.157-1.071-0.233c-0.317-0.068-0.633-0.131-0.951-0.196c-0.359-0.07-0.722-0.139-1.085-0.207  c-0.158-0.029-0.318-0.057-0.475-0.086c-0.159-0.027-0.317-0.058-0.475-0.084c-0.369-0.063-0.736-0.123-1.104-0.182  c-0.316-0.052-0.633-0.104-0.95-0.15c-0.374-0.055-0.749-0.105-1.126-0.157c-0.157-0.019-0.315-0.04-0.472-0.061  c-0.156-0.021-0.314-0.043-0.471-0.061c-0.384-0.048-0.769-0.09-1.155-0.131c-0.31-0.034-0.62-0.07-0.932-0.103  c-0.199-0.02-0.397-0.035-0.597-0.054c-0.198-0.017-0.395-0.034-0.592-0.052c-0.304-0.025-0.606-0.054-0.912-0.075  c-0.418-0.032-0.837-0.056-1.258-0.081c-0.284-0.016-0.569-0.038-0.855-0.051c-0.311-0.015-0.626-0.025-0.938-0.035  c-0.156-0.004-0.311-0.013-0.467-0.017c-0.244-0.008-0.483-0.02-0.722-0.026c-0.707-0.018-1.417-0.026-2.129-0.028  c-0.002,0-0.008,0-0.008,0h-0.003c-0.002,0-0.002,0-0.002,0s-0.009,0-0.011,0c-0.712,0.002-1.421,0.011-2.129,0.028  c-0.24,0.006-0.478,0.019-0.722,0.026c-0.156,0.004-0.311,0.013-0.467,0.017c-0.313,0.011-0.626,0.021-0.938,0.035  c-0.286,0.013-0.571,0.034-0.855,0.051c-0.42,0.025-0.84,0.048-1.258,0.081c-0.303,0.023-0.606,0.051-0.912,0.075  c-0.198,0.017-0.395,0.034-0.594,0.052c-0.198,0.018-0.397,0.033-0.594,0.054c-0.311,0.032-0.622,0.068-0.932,0.103  c-0.386,0.041-0.771,0.083-1.155,0.131c-0.157,0.018-0.315,0.04-0.471,0.061c-0.157,0.021-0.315,0.042-0.472,0.061  c-0.376,0.053-0.751,0.103-1.126,0.157c-0.317,0.046-0.634,0.099-0.951,0.15c-0.368,0.059-0.735,0.118-1.103,0.182  c-0.159,0.026-0.316,0.057-0.474,0.084c-0.159,0.029-0.318,0.057-0.476,0.086c-0.362,0.069-0.726,0.138-1.085,0.207  c-0.317,0.064-0.634,0.128-0.951,0.196c-0.358,0.075-0.714,0.154-1.071,0.233c-0.315,0.07-0.63,0.143-0.943,0.216  c-0.355,0.084-0.71,0.17-1.064,0.26c-0.311,0.076-0.621,0.153-0.934,0.238c-0.35,0.092-0.701,0.187-1.05,0.284  c-0.309,0.088-0.619,0.171-0.927,0.258c-0.349,0.102-0.698,0.205-1.047,0.313c-0.302,0.092-0.605,0.182-0.909,0.275  c-0.176,0.057-0.35,0.114-0.525,0.172c-0.176,0.056-0.35,0.112-0.526,0.17c-0.148,0.048-0.295,0.099-0.442,0.145  c-0.147,0.051-0.296,0.097-0.443,0.147c-0.355,0.121-0.71,0.249-1.066,0.378c-0.282,0.099-0.567,0.196-0.848,0.3  c-0.371,0.137-0.74,0.282-1.108,0.422c-0.26,0.099-0.525,0.198-0.787,0.3c-0.274,0.109-0.546,0.225-0.819,0.334  c-12.565,18.088-19.936,40.055-19.936,63.747c0,43.846,25.229,81.797,61.958,100.141c0.198-0.021,0.395-0.04,0.592-0.063  c0.262-0.031,0.525-0.064,0.787-0.099c0.993-0.13,1.982-0.273,2.965-0.438c0.059-0.01,0.117-0.018,0.176-0.028  c1.033-0.174,2.058-0.374,3.076-0.586c0.256-0.052,0.511-0.106,0.764-0.16c0.943-0.206,1.882-0.424,2.814-0.657  c0.083-0.024,0.164-0.041,0.246-0.062c1.002-0.256,1.993-0.538,2.979-0.828c0.246-0.072,0.489-0.147,0.733-0.223  c0.897-0.273,1.789-0.559,2.675-0.861c0.098-0.034,0.198-0.066,0.296-0.099c0.965-0.336,1.921-0.69,2.87-1.056  c0.233-0.092,0.467-0.185,0.699-0.277c0.852-0.339,1.696-0.687,2.534-1.052c0.112-0.051,0.225-0.095,0.338-0.145  c0.926-0.407,1.843-0.836,2.753-1.276c0.22-0.106,0.439-0.215,0.658-0.326c0.807-0.397,1.609-0.808,2.4-1.232  c0.119-0.066,0.24-0.126,0.359-0.189c0.886-0.478,1.76-0.977,2.628-1.487c0.204-0.121,0.41-0.245,0.615-0.368  c0.764-0.458,1.52-0.926,2.267-1.404c0.121-0.078,0.246-0.155,0.368-0.232c0.842-0.549,1.672-1.112,2.493-1.688  c0.192-0.134,0.381-0.271,0.572-0.405c0.714-0.511,1.421-1.03,2.121-1.562c0.126-0.095,0.254-0.189,0.381-0.286  c0.792-0.609,1.573-1.234,2.345-1.873c0.177-0.145,0.352-0.293,0.526-0.441c0.665-0.559,1.322-1.128,1.972-1.707  c0.128-0.112,0.256-0.224,0.382-0.338c0.741-0.67,1.47-1.353,2.186-2.047c0.161-0.157,0.321-0.316,0.478-0.472  c0.616-0.606,1.222-1.22,1.818-1.844c0.126-0.132,0.254-0.26,0.378-0.393c0.685-0.723,1.356-1.46,2.013-2.208  c0.147-0.169,0.291-0.338,0.439-0.508c0.256-0.296,0.515-0.587,0.769-0.886l0.057-0.097c5.56-6.61,10.141-14.073,13.505-22.17  l0.028-0.046c0.347-0.84,0.679-1.687,1.003-2.539c0.08-0.211,0.154-0.428,0.233-0.642c0.286-0.773,0.559-1.553,0.823-2.339  c0.092-0.274,0.183-0.548,0.273-0.823c0.318-0.983,0.626-1.97,0.909-2.967c0.96-3.377,1.716-6.838,2.258-10.372  c0.119-0.785,0.225-1.574,0.324-2.366c0.077-0.632,0.154-1.269,0.218-1.906c0.291-2.868,0.441-5.78,0.441-8.728  c0-0.983-0.025-1.959-0.057-2.935C268.859,205.948,268.85,205.705,268.839,205.462z"/>
<path style="fill:#9FDEF7;" d="M374.549,247.068c15.153,18.643,24.236,42.417,24.236,68.314c0,1.234-0.054,2.456-0.094,3.677  c7.616-2.385,15.718-3.677,24.124-3.677c44.508,0,80.584,36.075,80.584,80.584c0,44.502-36.076,80.582-80.584,80.582h-6.186h-31.636  H90.123c-45.026,0-81.523-36.502-81.523-81.527s36.498-81.524,81.523-81.524c7.082,0,13.95,0.909,20.502,2.604  c11.739-16.944,31.307-28.047,53.485-28.047c7.201,0,14.125,1.186,20.598,3.349c10.919-48.314,54.076-84.405,105.691-84.405  c23.774,0,45.761,7.655,63.63,20.635"/>
<path style="fill:#83D4ED;" d="M186.141,327.44c0-11.679,1.091-23.101,3.156-34.181c-5.981-1.818-12.321-2.818-18.899-2.818  c-22.176,0-41.745,11.103-53.484,28.047c-6.553-1.694-13.42-2.604-20.503-2.604c-45.025,0-81.522,36.5-81.522,81.524  s36.498,81.527,81.522,81.527h168.239C217.156,445.364,186.141,390.027,186.141,327.44z"/>
<g>
	<path style="fill:#231F20;" d="M183.569,79.163c4.749,0,8.6-3.851,8.6-8.6v-35.11c0-4.749-3.851-8.6-8.6-8.6s-8.6,3.851-8.6,8.6   v35.11C174.968,75.312,178.819,79.163,183.569,79.163z"/>
	<path style="fill:#231F20;" d="M106.193,93.599c1.593,2.758,4.484,4.301,7.457,4.301c1.458,0,2.937-0.372,4.291-1.152   c4.113-2.376,5.523-7.636,3.149-11.749l-17.556-30.409c-2.375-4.113-7.634-5.523-11.749-3.149   c-4.113,2.376-5.523,7.636-3.149,11.749L106.193,93.599z"/>
	<path style="fill:#231F20;" d="M27.743,130.381l30.407,17.557c1.355,0.783,2.833,1.153,4.291,1.153   c2.972,0,5.863-1.543,7.456-4.301c2.376-4.113,0.965-9.373-3.148-11.748l-30.407-17.557c-4.112-2.375-9.373-0.965-11.748,3.148   C22.219,122.747,23.629,128.006,27.743,130.381z"/>
	<path style="fill:#231F20;" d="M8.6,219.019h35.112c4.749,0,8.6-3.851,8.6-8.6s-3.851-8.6-8.6-8.6H8.6c-4.749,0-8.6,3.851-8.6,8.6   S3.851,219.019,8.6,219.019z"/>
	<path style="fill:#231F20;" d="M24.594,302.202c1.593,2.758,4.484,4.301,7.457,4.301c1.458,0,2.937-0.372,4.291-1.152   l30.407-17.555c4.113-2.376,5.523-7.636,3.149-11.749c-2.375-4.112-7.634-5.522-11.749-3.149l-30.407,17.555   C23.629,292.829,22.219,298.089,24.594,302.202z"/>
	<path style="fill:#231F20;" d="M304.694,149.091c1.458,0,2.937-0.372,4.291-1.153l30.409-17.557   c4.113-2.375,5.523-7.635,3.148-11.748c-2.374-4.112-7.633-5.526-11.748-3.148l-30.409,17.557   c-4.113,2.375-5.523,7.635-3.148,11.748C298.83,147.55,301.721,149.091,304.694,149.091z"/>
	<path style="fill:#231F20;" d="M249.195,96.747c1.355,0.783,2.833,1.153,4.291,1.153c2.972,0,5.863-1.543,7.456-4.301   l17.557-30.409c2.376-4.113,0.965-9.373-3.148-11.748s-9.373-0.965-11.748,3.148l-17.557,30.409   C243.671,89.113,245.081,94.372,249.195,96.747z"/>
	<path style="fill:#231F20;" d="M384.995,467.947H90.123c-40.21,0-72.923-32.715-72.923-72.926   c0-40.211,32.714-72.924,72.923-72.924c6.199,0,12.371,0.784,18.348,2.33c3.492,0.904,7.171-0.467,9.223-3.428   c2.634-3.801,5.69-7.22,9.081-10.21c0.042-0.037,0.085-0.071,0.127-0.109c0.762-0.669,1.543-1.313,2.337-1.937   c0.133-0.104,0.268-0.207,0.401-0.311c0.789-0.609,1.591-1.201,2.41-1.766c0.046-0.032,0.091-0.066,0.138-0.097   c1.835-1.259,3.74-2.408,5.706-3.441c0.026-0.014,0.052-0.027,0.077-0.041c0.977-0.512,1.968-0.994,2.973-1.448   c0.008-0.003,0.014-0.006,0.022-0.01c2.018-0.908,4.09-1.697,6.207-2.364c0.09-0.029,0.183-0.056,0.273-0.084   c0.936-0.29,1.881-0.554,2.833-0.796c0.14-0.035,0.279-0.073,0.42-0.108c0.89-0.218,1.789-0.407,2.691-0.583   c0.592-0.114,1.187-0.209,1.781-0.304c0.545-0.088,1.089-0.181,1.638-0.252c0.773-0.1,1.549-0.173,2.324-0.241   c0.328-0.029,0.655-0.068,0.984-0.09c0.103-0.008,0.205-0.015,0.31-0.021c1.002-0.066,2.004-0.102,3.007-0.113   c0.134-0.002,0.269-0.012,0.403-0.013c1.18-0.005,2.36,0.028,3.537,0.097c0.078,0.004,0.157,0.01,0.237,0.015   c2.373,0.147,4.734,0.444,7.07,0.888c0.075,0.014,0.15,0.026,0.225,0.041c1.11,0.216,2.213,0.469,3.309,0.751   c0.175,0.045,0.35,0.094,0.526,0.141c1.089,0.291,2.173,0.606,3.243,0.964c0.395,0.132,0.796,0.223,1.2,0.296   c0.097,0.017,0.193,0.034,0.291,0.048c0.399,0.058,0.799,0.095,1.2,0.097c0.011,0,0.022,0.002,0.033,0.002   c0.067,0,0.133-0.011,0.199-0.013c0.257-0.006,0.513-0.02,0.768-0.049c0.12-0.014,0.24-0.034,0.359-0.053   c0.217-0.034,0.432-0.074,0.646-0.125c0.123-0.029,0.244-0.059,0.364-0.094c0.22-0.062,0.438-0.135,0.654-0.216   c0.103-0.039,0.207-0.072,0.311-0.115c0.313-0.131,0.621-0.275,0.92-0.443c0.264-0.149,0.52-0.312,0.765-0.486   c1.716-1.22,2.934-3.037,3.402-5.111c0.026-0.114,0.057-0.226,0.083-0.339c0.27-1.176,0.56-2.341,0.87-3.498   c0.177-0.662,0.371-1.317,0.562-1.973c0.159-0.554,0.318-1.106,0.487-1.656c0.281-0.906,0.572-1.807,0.877-2.701   c0.068-0.201,0.137-0.401,0.205-0.602c11.484-33.001,39.693-57.962,74.459-64.951c0.191-0.039,0.376-0.089,0.562-0.139   c6.224-1.198,12.639-1.841,19.196-1.841c1.013,0,2.021,0.029,3.029,0.059c0.835,0.029,1.712,0.069,2.674,0.123   c0.04,0.002,0.078,0.001,0.117,0.003c19.088,1.091,37.222,7.525,52.756,18.808c3.844,2.792,9.22,1.938,12.012-1.904   s1.939-9.22-1.904-12.012c-16.172-11.748-34.742-19.022-54.361-21.406c-0.683-7.526-2.051-14.95-4.098-22.153   c-7.232-25.464-22.947-48.261-44.252-64.192c-21.148-15.817-46.323-24.177-72.805-24.177c-26.481,0-51.656,8.36-72.805,24.176   c-21.305,15.931-37.021,38.728-44.252,64.192c-3.065,10.786-4.618,21.991-4.618,33.305c0,1.101,0.017,2.201,0.046,3.281   c0.005,0.248,0.016,0.5,0.026,0.749l0.014,0.35c0.026,0.733,0.053,1.464,0.094,2.208c0.02,0.368,0.044,0.735,0.068,1.102   l0.023,0.331c0.04,0.605,0.078,1.212,0.127,1.801c0.031,0.395,0.068,0.786,0.104,1.179l0.015,0.154   c0.056,0.636,0.116,1.272,0.185,1.911l0.157,1.386c0.072,0.61,0.148,1.218,0.232,1.85c0.062,0.456,0.126,0.908,0.191,1.361   c0.088,0.601,0.181,1.201,0.282,1.834l0.226,1.364c0.106,0.603,0.216,1.208,0.33,1.807l0.042,0.221   c0.069,0.369,0.14,0.735,0.21,1.09c0.112,0.568,0.234,1.135,0.356,1.701l0.107,0.502c0.068,0.314,0.135,0.629,0.207,0.947   c0.15,0.653,0.309,1.306,0.463,1.929l0.277,1.14c0.202,0.789,0.415,1.572,0.637,2.376l0.186,0.685   c0.287,1.009,0.585,2.01,0.89,2.99c0.068,0.217,0.139,0.433,0.209,0.649l0.068,0.207c0.233,0.729,0.467,1.453,0.699,2.132   c0.095,0.279,0.194,0.557,0.291,0.833l0.164,0.463c0.197,0.558,0.392,1.115,0.596,1.664c0.107,0.291,0.218,0.581,0.33,0.872   l0.138,0.359c0.216,0.564,0.432,1.128,0.659,1.697c0.17,0.424,0.343,0.842,0.507,1.235c0.231,0.561,0.467,1.129,0.685,1.631   c0.157,0.366,0.316,0.729,0.475,1.092l0.084,0.189c0.241,0.54,0.481,1.079,0.713,1.58c0.189,0.412,0.381,0.822,0.594,1.273   c0.247,0.517,0.498,1.033,0.774,1.596l0.589,1.183c0.27,0.532,0.545,1.061,0.826,1.594l0.145,0.275   c0.155,0.295,0.309,0.59,0.458,0.864c0.297,0.551,0.602,1.099,0.913,1.657l0.157,0.281c0.144,0.261,0.29,0.521,0.428,0.763   c0.357,0.625,0.723,1.243,1.073,1.828l0.501,0.847c0.532,0.874,1.073,1.747,1.625,2.607l0.227,0.343   c0.478,0.744,0.965,1.484,1.477,2.239l0.694,1.003c0.348,0.503,0.698,1.006,1.052,1.504c0.174,0.243,0.35,0.483,0.528,0.725   l0.189,0.257c0.372,0.511,0.746,1.021,1.1,1.487c0.266,0.355,0.536,0.706,0.798,1.043c0.36,0.467,0.72,0.932,1.107,1.421   c0.241,0.302,0.482,0.601,0.726,0.901l0.083,0.102c0.376,0.463,0.756,0.924,1.127,1.367c0.281,0.336,0.564,0.672,0.852,1.008   c0.396,0.462,0.793,0.921,1.153,1.328c0.296,0.338,0.593,0.675,0.846,0.955c0.418,0.468,0.844,0.929,1.239,1.357   c0.296,0.322,0.592,0.643,0.855,0.917c0.448,0.475,0.905,0.948,1.336,1.388l0.199,0.205c0.204,0.211,0.409,0.421,0.607,0.621   c0.505,0.51,1.018,1.008,1.579,1.553l0.61,0.593c0.702,0.672,1.411,1.336,2.13,1.992c0.038,0.035,0.075,0.071,0.114,0.106   c0.741,0.673,1.49,1.336,2.248,1.992c0.099,0.088,0.201,0.176,0.291,0.25c0.01,0.009,0.019,0.016,0.029,0.024   c1.152,0.99,2.346,1.962,3.558,2.922c-0.245,0.291-0.504,0.567-0.745,0.861c-5.585-1.064-11.271-1.603-16.975-1.603   C40.429,304.896,0,345.325,0,395.02c0,49.697,40.429,90.127,90.123,90.127h294.872c4.749,0,8.6-3.851,8.6-8.6   S389.745,467.947,384.995,467.947z M225.096,218.335c-0.117,0.078-0.234,0.157-0.352,0.235c-0.128,0.087-0.256,0.175-0.384,0.263   c-1.156,0.791-2.298,1.6-3.424,2.431c-0.049,0.037-0.101,0.072-0.15,0.109c-1.32,0.978-2.618,1.983-3.895,3.015   c-0.004,0.003-0.008,0.005-0.012,0.009c-0.012,0.01-0.024,0.02-0.037,0.03c-1.093,0.885-2.168,1.792-3.228,2.715   c-0.054,0.046-0.108,0.094-0.161,0.141c-16.129,14.093-28.36,32.552-34.842,53.61c-1.189-0.24-2.384-0.448-3.584-0.629   c-3.606-0.541-7.252-0.813-10.92-0.813c-1.004,0-2.007,0.022-3.006,0.062c-0.186,0.008-0.371,0.024-0.557,0.033   c-0.051,0.002-0.1,0.006-0.15,0.009c-0.327,0.017-0.651,0.038-0.977,0.059c-0.441,0.028-0.883,0.048-1.322,0.085   c-0.23,0.018-0.459,0.047-0.69,0.069c-0.364,0.033-0.728,0.07-1.09,0.109c-0.206,0.023-0.414,0.039-0.619,0.062   c-0.191,0.023-0.384,0.042-0.575,0.066c-0.314,0.039-0.626,0.089-0.94,0.132c-0.666,0.09-1.333,0.181-1.995,0.289   c-0.062,0.011-0.125,0.017-0.187,0.027c-0.617-0.281-1.236-0.573-1.881-0.885l-0.547-0.269c-0.725-0.358-1.443-0.728-2.178-1.121   l-0.289-0.149c-0.804-0.436-1.599-0.889-2.368-1.338l-0.557-0.334c-0.68-0.409-1.355-0.826-2.022-1.251   c-0.118-0.077-0.236-0.152-0.344-0.217c-0.761-0.496-1.513-1.006-2.239-1.515L139.05,273c-0.644-0.459-1.281-0.926-1.886-1.385   l-0.367-0.275c-0.716-0.551-1.42-1.116-2.086-1.665l-0.508-0.428c-0.598-0.501-1.187-1.009-1.771-1.532l-0.345-0.306   c-0.667-0.602-1.319-1.216-1.989-1.864l-0.406-0.4c-0.554-0.545-1.099-1.098-1.599-1.621l-0.376-0.389   c-0.613-0.649-1.216-1.312-1.852-2.035l-0.624-0.72c-0.06-0.068-0.119-0.137-0.18-0.204c-0.096-0.127-0.194-0.25-0.295-0.373   c-5.07-6.029-9.158-12.739-12.151-19.944c-0.042-0.102-0.088-0.205-0.138-0.311c-0.273-0.668-0.534-1.339-0.786-2.004l-0.213-0.587   c-0.256-0.696-0.502-1.398-0.74-2.105l-0.245-0.734c-0.286-0.883-0.562-1.771-0.819-2.674c-0.865-3.044-1.548-6.181-2.029-9.316   c-0.107-0.707-0.202-1.418-0.291-2.136c-0.07-0.563-0.137-1.132-0.196-1.714c-0.263-2.589-0.397-5.233-0.397-7.86   c0-0.891,0.023-1.776,0.048-2.6l0.026-0.697c0.038-0.874,0.083-1.744,0.151-2.622c0.067-0.869,0.153-1.73,0.243-2.554l0.078-0.68   c0.198-1.679,0.459-3.387,0.78-5.102c0.031-0.173,0.063-0.345,0.116-0.608c0.317-1.622,0.701-3.292,1.131-4.912l0.174-0.637   c0.448-1.629,0.952-3.248,1.518-4.874l0.184-0.521c0.56-1.571,1.178-3.138,1.852-4.693l0.228-0.52   c0.67-1.517,1.398-3.026,2.167-4.498l0.274-0.52c0.777-1.457,1.61-2.908,2.442-4.255l0.35-0.557   c0.925-1.47,1.904-2.915,2.913-4.301c3.044-4.183,6.524-8.073,10.346-11.564c0.037-0.033,0.073-0.068,0.111-0.102l1.303-1.156   l5.614-4.44c0.225-0.162,0.449-0.324,0.734-0.519l0.126-0.088c0.186-0.13,0.372-0.261,0.584-0.405   c0.246-0.168,0.495-0.335,0.793-0.533c0.243-0.162,0.487-0.324,0.707-0.469c0.241-0.156,0.484-0.313,0.813-0.518   c0.214-0.138,0.43-0.271,0.646-0.403c0.011-0.008,0.084-0.052,0.095-0.059c0.245-0.153,0.488-0.302,0.733-0.45l1.558-0.913   c0.249-0.142,0.5-0.282,0.833-0.464c0.257-0.144,0.514-0.287,0.715-0.396l1.63-0.854c0.227-0.115,0.457-0.228,0.686-0.34   l0.099-0.048c0.029-0.015,0.059-0.029,0.088-0.044l3.464-1.603c0.263-0.114,0.526-0.229,0.79-0.339   c0.484-0.202,0.969-0.403,1.433-0.587l0.976-0.372c0.245-0.095,0.489-0.19,0.723-0.276l4.333-1.444   c0.318-0.098,0.636-0.192,0.883-0.264l0.856-0.239c0.314-0.087,0.629-0.172,0.944-0.255c0.261-0.068,0.522-0.135,0.877-0.223   c0.305-0.077,0.611-0.152,0.89-0.217l0.873-0.2c0.321-0.072,0.644-0.143,0.972-0.212c0.282-0.06,0.563-0.117,0.793-0.163   l1.861-0.345c0.336-0.058,0.673-0.113,1.064-0.176c0.257-0.042,0.514-0.084,0.784-0.123c0.34-0.049,0.683-0.098,1.019-0.143   l0.875-0.115c0.324-0.04,0.645-0.074,1.066-0.119c0.272-0.03,0.544-0.062,0.768-0.085l1.929-0.166   c0.29-0.023,0.578-0.039,0.868-0.056l2.935-0.132c1.255-0.031,2.592-0.03,3.851-0.001l2.958,0.133   c0.288,0.017,0.575,0.033,0.857,0.055l1.887,0.161c0.273,0.028,0.545,0.06,0.913,0.101c0.324,0.033,0.646,0.069,1.021,0.115   l0.82,0.109c0.342,0.046,0.686,0.095,1.024,0.144c0.262,0.038,0.526,0.08,0.839,0.132c0.336,0.054,0.673,0.11,1.001,0.164   l1.829,0.34c0.283,0.056,0.56,0.113,0.837,0.171c0.324,0.069,0.647,0.14,0.957,0.209l0.864,0.198   c0.304,0.072,0.608,0.146,1.007,0.246c0.26,0.063,0.521,0.13,0.775,0.197c0.316,0.084,0.632,0.169,0.886,0.24l0.863,0.24   c0.313,0.091,0.625,0.184,0.962,0.288l4.302,1.433c0.239,0.087,0.474,0.18,0.712,0.271l0.981,0.374   c0.487,0.193,0.971,0.393,1.451,0.594c0.264,0.111,0.527,0.225,0.782,0.335l3.472,1.607c0.029,0.015,0.059,0.029,0.088,0.044   l0.099,0.048c0.229,0.112,0.459,0.225,0.662,0.329l1.595,0.834c0.262,0.142,0.521,0.287,0.855,0.472   c0.243,0.132,0.485,0.267,0.74,0.412l1.544,0.903c0.254,0.154,0.506,0.309,0.759,0.467c0.011,0.008,0.084,0.052,0.095,0.059   c0.215,0.132,0.431,0.266,0.731,0.457l0.705,0.45c0.243,0.159,0.487,0.32,0.78,0.516c0.248,0.164,0.497,0.332,0.766,0.515   c0.189,0.128,0.375,0.259,0.56,0.389l0.157,0.111c0.239,0.166,0.476,0.335,0.749,0.531c0.224,0.159,0.447,0.324,0.642,0.468   l4.614,3.674c0.023,0.019,0.094,0.08,0.116,0.098l1.525,1.349c0.027,0.025,0.055,0.051,0.082,0.075   c3.818,3.488,7.299,7.38,10.347,11.566c1.008,1.384,1.988,2.829,2.954,4.365l0.273,0.433c0.869,1.405,1.702,2.855,2.457,4.274   l0.298,0.563c0.772,1.476,1.5,2.987,2.163,4.488l0.244,0.561c0.659,1.52,1.277,3.087,1.845,4.678l0.198,0.558   c0.55,1.586,1.053,3.205,1.514,4.879l0.146,0.536c0.438,1.646,0.822,3.312,1.16,5.045c0.032,0.157,0.063,0.318,0.103,0.536   c0.317,1.693,0.578,3.402,0.783,5.13l0.068,0.589c0.019,0.174,0.038,0.349,0.057,0.524   C247.365,205.81,235.626,211.243,225.096,218.335z M107.623,282.155c-0.224-0.235-0.444-0.473-0.694-0.745   c-0.349-0.377-0.7-0.755-1.093-1.194c-0.23-0.254-0.456-0.51-0.723-0.817c-0.338-0.381-0.671-0.764-0.998-1.146   c-0.238-0.277-0.473-0.556-0.718-0.849c-0.329-0.391-0.654-0.79-0.977-1.187l-0.687-0.85c-0.328-0.414-0.649-0.829-0.99-1.272   c-0.211-0.272-0.424-0.546-0.659-0.861c-0.318-0.419-0.628-0.844-0.94-1.272l-0.607-0.831c-0.311-0.435-0.615-0.874-0.919-1.314   l-0.593-0.855c-0.425-0.629-0.842-1.263-1.244-1.887l-0.219-0.333c-0.478-0.745-0.946-1.499-1.391-2.231l-0.427-0.723   c-0.311-0.52-0.62-1.041-0.931-1.586l-0.49-0.877c-0.264-0.475-0.53-0.95-0.798-1.448l-0.513-0.97   c-0.242-0.46-0.481-0.921-0.708-1.367l-0.504-1.012c-0.231-0.471-0.46-0.943-0.665-1.374c-0.167-0.352-0.332-0.705-0.508-1.09   c-0.211-0.455-0.416-0.915-0.605-1.339l-0.07-0.159c-0.133-0.303-0.268-0.606-0.422-0.967c-0.197-0.45-0.385-0.908-0.585-1.393   c-0.145-0.348-0.289-0.694-0.426-1.036c-0.196-0.491-0.384-0.983-0.565-1.458l-0.401-1.052c-0.173-0.47-0.339-0.942-0.505-1.415   l-0.403-1.143c-0.206-0.6-0.4-1.202-0.602-1.834l-0.229-0.707c-0.268-0.858-0.524-1.718-0.771-2.585l-0.159-0.588   c-0.186-0.673-0.37-1.344-0.535-1.993l-0.246-1.018c-0.137-0.556-0.274-1.112-0.4-1.665l-0.267-1.229   c-0.102-0.472-0.203-0.946-0.3-1.43l-0.224-1.169c-0.098-0.515-0.194-1.035-0.281-1.539l-0.194-1.165   c-0.083-0.522-0.164-1.048-0.241-1.57l-0.167-1.187c-0.07-0.528-0.135-1.058-0.196-1.559l-0.138-1.205   c-0.057-0.529-0.107-1.061-0.157-1.631l-0.018-0.199c-0.029-0.317-0.06-0.633-0.086-0.963c-0.041-0.511-0.074-1.023-0.107-1.537   l-0.081-1.261c-0.033-0.625-0.056-1.25-0.077-1.866l-0.035-0.945c-0.025-0.942-0.04-1.888-0.04-2.836   c0-9.725,1.333-19.348,3.964-28.605c6.207-21.858,19.705-41.432,38.007-55.117c18.153-13.575,39.766-20.751,62.504-20.751   s44.353,7.176,62.504,20.752c18.302,13.685,31.8,33.259,38.007,55.117c1.538,5.415,2.633,10.978,3.274,16.623   c-0.339,0.009-0.676,0.035-1.015,0.047c-0.764,0.027-1.528,0.066-2.29,0.108c-0.868,0.047-1.733,0.101-2.598,0.168   c-0.765,0.059-1.528,0.128-2.291,0.202c-0.755,0.073-1.508,0.148-2.262,0.236c-0.243-2.046-0.56-4.125-0.935-6.124   c-0.055-0.305-0.112-0.606-0.157-0.814c-0.392-2.018-0.864-4.062-1.402-6.082c-0.071-0.269-0.143-0.534-0.2-0.734   c-0.543-1.975-1.16-3.961-1.828-5.884l-0.258-0.732c-0.688-1.926-1.446-3.851-2.24-5.682l-0.306-0.705   c-0.816-1.847-1.708-3.698-2.65-5.501l-0.346-0.655c-0.947-1.778-1.966-3.551-3.063-5.323l-0.353-0.56   c-1.131-1.797-2.331-3.568-3.564-5.263c-3.712-5.098-7.952-9.841-12.602-14.096c-0.001,0-0.003-0.002-0.003-0.002   c-0.053-0.051-0.106-0.1-0.16-0.149l-0.921-0.82c-0.226-0.202-0.453-0.404-0.63-0.558c-0.159-0.141-0.321-0.278-0.475-0.407   l-2.937-2.428c-0.289-0.228-0.578-0.452-0.876-0.682l-1.76-1.328c-0.296-0.218-0.592-0.435-0.852-0.62   c-0.316-0.228-0.634-0.454-0.92-0.651l-0.118-0.083c-0.264-0.186-0.528-0.371-0.774-0.536c-0.314-0.214-0.627-0.426-0.892-0.601   c-0.301-0.202-0.605-0.403-0.957-0.632l-0.141-0.091c-0.27-0.174-0.542-0.348-0.728-0.464c-0.301-0.195-0.605-0.381-0.935-0.585   c-0.32-0.2-0.64-0.397-1.034-0.634l-1.826-1.067c-0.338-0.195-0.679-0.383-0.949-0.53c-0.325-0.182-0.647-0.36-1.017-0.561   l-1.935-1.013c-0.299-0.153-0.602-0.3-0.903-0.448l-0.048-0.024c-0.051-0.025-0.102-0.051-0.154-0.075l-0.157-0.077   c-0.235-0.117-0.47-0.234-0.778-0.382l-1.206-0.563c-0.248-0.116-0.498-0.233-0.77-0.355l-1.277-0.559   c-0.332-0.144-0.664-0.288-1.003-0.429c-0.582-0.243-1.162-0.483-1.752-0.716c-0.226-0.09-0.455-0.176-0.683-0.261l-0.419-0.159   c-0.33-0.128-0.659-0.255-1.003-0.381c-0.287-0.105-0.575-0.205-0.863-0.306l-0.401-0.142c-0.273-0.099-0.547-0.197-0.796-0.282   c-0.159-0.055-0.32-0.107-0.482-0.159l-0.439-0.145c-0.042-0.014-0.084-0.028-0.127-0.042l-1.051-0.342   c-0.048-0.016-0.098-0.03-0.148-0.046l-0.874-0.264c-0.385-0.118-0.771-0.232-1.209-0.361l-1.002-0.278   c-0.384-0.108-0.77-0.211-1.163-0.314c-0.362-0.096-0.725-0.188-0.991-0.252c-0.404-0.104-0.809-0.202-1.226-0.3l-1.029-0.235   c-0.388-0.088-0.779-0.173-1.174-0.256c-0.355-0.075-0.708-0.148-1.1-0.226l-1.611-0.303c-0.043-0.008-0.086-0.016-0.129-0.023   l-0.475-0.084c-0.4-0.068-0.799-0.134-1.148-0.19c-0.372-0.061-0.742-0.119-1.113-0.174c-0.407-0.06-0.818-0.116-1.226-0.171   l-1.015-0.133c-0.447-0.056-0.893-0.105-1.246-0.142c-0.349-0.04-0.699-0.08-1.098-0.119l-2.268-0.196   c-0.379-0.028-0.761-0.052-1.142-0.073l-1.215-0.073c-0.277-0.013-0.558-0.023-0.837-0.031l-0.625-0.023   c-0.042-0.002-0.083-0.003-0.125-0.004l-0.741-0.026c-1.523-0.034-3.092-0.038-4.711,0.001l-0.72,0.025   c-0.042,0.001-0.083,0.002-0.125,0.004l-0.625,0.023c-0.279,0.01-0.558,0.019-0.876,0.033l-1.173,0.071   c-0.381,0.023-0.762,0.045-1.149,0.074l-2.312,0.2c-0.349,0.034-0.699,0.074-0.952,0.104c-0.448,0.046-0.893,0.096-1.295,0.146   l-1.06,0.14c-0.41,0.055-0.819,0.112-1.215,0.169c-0.379,0.056-0.754,0.114-1.075,0.168c-0.4,0.064-0.799,0.13-1.208,0.201   l-2.254,0.418c-0.353,0.07-0.705,0.143-1.051,0.216c-0.393,0.083-0.785,0.168-1.189,0.258l-1.031,0.237   c-0.403,0.096-0.807,0.195-1.115,0.273c-0.361,0.088-0.723,0.181-1.088,0.276c-0.386,0.102-0.771,0.205-1.229,0.332l-1,0.28   c-0.379,0.112-0.758,0.224-1.117,0.334l-0.909,0.275c-0.042,0.014-0.084,0.026-0.126,0.04l-1.051,0.342   c-0.047,0.015-0.095,0.03-0.142,0.046l-0.905,0.299c-0.267,0.091-0.534,0.187-0.802,0.283l-0.411,0.146   c-0.288,0.101-0.576,0.202-0.874,0.311c-0.342,0.126-0.684,0.257-1.023,0.389l-0.37,0.141c-0.23,0.086-0.461,0.173-0.712,0.272   c-0.583,0.231-1.164,0.471-1.745,0.714c-0.333,0.14-0.665,0.284-1.008,0.431l-1.277,0.56c-0.257,0.115-0.514,0.234-0.769,0.354   l-1.178,0.55c-0.038,0.018-0.075,0.035-0.112,0.054l-0.84,0.416c-0.052,0.024-0.103,0.051-0.155,0.075l-0.048,0.024   c-0.301,0.148-0.604,0.296-0.926,0.46l-1.957,1.026c-0.33,0.18-0.657,0.36-0.901,0.498c-0.333,0.183-0.664,0.367-1.02,0.569   l-1.815,1.061c-0.031,0.019-0.063,0.038-0.095,0.057c-0.318,0.193-0.635,0.387-0.979,0.602c-0.302,0.187-0.605,0.374-0.822,0.514   c-0.318,0.2-0.637,0.405-1.002,0.642c-0.303,0.198-0.606,0.398-0.858,0.567c-0.316,0.209-0.629,0.42-0.919,0.618   c-0.269,0.182-0.532,0.367-0.797,0.553l-0.062,0.043c-0.333,0.23-0.662,0.464-0.943,0.667c-0.247,0.176-0.495,0.357-0.743,0.54   l-1.912,1.441c-0.289,0.224-0.578,0.447-0.892,0.694l-2.863,2.366c-0.166,0.14-0.332,0.281-0.473,0.404   c-0.229,0.199-0.456,0.4-0.682,0.603l-0.909,0.807c-0.066,0.06-0.13,0.119-0.195,0.181c-0.013,0.012-0.023,0.023-0.031,0.029   c-0.005,0.005-0.01,0.01-0.014,0.014c-4.629,4.242-8.846,8.965-12.538,14.035c-1.234,1.695-2.435,3.467-3.542,5.227l-0.412,0.654   c-1.06,1.716-2.08,3.487-3.048,5.305l-0.32,0.607c-0.938,1.795-1.832,3.65-2.65,5.5l-0.297,0.679   c-0.809,1.867-1.567,3.792-2.255,5.719c-0.091,0.255-0.182,0.51-0.248,0.705c-0.67,1.924-1.287,3.911-1.829,5.879l-0.212,0.776   c-0.539,2.035-1.008,4.076-1.379,5.977c-0.059,0.288-0.113,0.577-0.163,0.849c-0.388,2.074-0.708,4.17-0.946,6.182l-0.096,0.829   c-0.115,1.05-0.218,2.103-0.299,3.157c-0.082,1.062-0.138,2.125-0.186,3.231l-0.03,0.787c-0.034,1.069-0.059,2.136-0.059,3.214   c0,3.205,0.162,6.435,0.484,9.589c0.071,0.706,0.154,1.411,0.241,2.109c0.109,0.872,0.225,1.739,0.357,2.608   c0.589,3.846,1.425,7.69,2.485,11.418c0.312,1.101,0.649,2.191,1.012,3.307l0.291,0.876c0.29,0.865,0.592,1.725,0.914,2.598   l0.25,0.689c0.355,0.938,0.72,1.871,1.104,2.796c0.046,0.112,0.097,0.226,0.151,0.34c3.6,8.581,8.464,16.58,14.464,23.784   c0.107,0.146,0.219,0.289,0.336,0.427c0.212,0.253,0.429,0.502,0.646,0.749l0.316,0.364c0.139,0.16,0.276,0.321,0.371,0.426   c0.727,0.828,1.465,1.639,2.223,2.442l0.415,0.43c0.656,0.686,1.323,1.363,2.013,2.04l0.515,0.507   c0.789,0.765,1.592,1.52,2.419,2.265l0.405,0.36c0.716,0.64,1.444,1.269,2.158,1.866l0.596,0.501   c0.846,0.698,1.704,1.385,2.589,2.066l0.404,0.304c0.769,0.585,1.547,1.156,2.332,1.716l0.639,0.455   c0.146,0.102,0.298,0.204,0.445,0.306c-0.399,0.207-0.792,0.426-1.188,0.642c-0.025,0.013-0.048,0.026-0.073,0.04   c-2.311,1.261-4.559,2.648-6.734,4.159c-0.096,0.067-0.19,0.134-0.286,0.202c-0.44,0.309-0.884,0.61-1.317,0.928   c-1.797-1.355-3.527-2.749-5.178-4.173c-0.023-0.02-0.046-0.04-0.07-0.06c-0.001-0.001-0.001-0.001-0.002-0.002   c-0.644-0.555-1.279-1.117-1.909-1.688c-0.03-0.028-0.061-0.057-0.091-0.084c-0.649-0.592-1.291-1.19-1.953-1.824l-0.522-0.51   c-0.445-0.433-0.889-0.866-1.334-1.314l-0.691-0.711C108.41,282.977,108.033,282.589,107.623,282.155z"/>
	<path style="fill:#231F20;" d="M422.816,306.781c-5.272,0-10.506,0.461-15.655,1.374c-1.511-24.244-10.588-47.627-25.938-66.512   c-2.995-3.686-8.412-4.243-12.098-1.249c-3.686,2.996-4.245,8.412-1.249,12.098c14.387,17.7,22.31,40.033,22.31,62.889   c0,0.886-0.032,1.765-0.063,2.64l-0.026,0.755c-0.09,2.785,1.173,5.442,3.391,7.128c2.218,1.686,5.117,2.193,7.774,1.361   c6.957-2.179,14.209-3.284,21.555-3.284c39.693,0,71.984,32.291,71.984,71.984c0,39.69-32.291,71.982-71.984,71.982h-6.186   c-4.749,0-8.6,3.851-8.6,8.6s3.851,8.6,8.6,8.6h6.186c49.176,0,89.184-40.006,89.184-89.182   C512,346.789,471.994,306.781,422.816,306.781z"/>
</g>
<g>
</g>
<g>
</g>
<g>
</g>
<g>
</g>
<g>
</g>
<g>
</g>
<g>
</g>
<g>
</g>
<g>
</g>
<g>
</g>
<g>
</g>
<g>
</g>
<g>
</g>
<g>
</g>
<g>
</g>
</svg>
