<?xml version="1.0" encoding="iso-8859-1"?>
<!-- Generator: Adobe Illustrator 19.0.0, SVG Export Plug-In . SVG Version: 6.00 Build 0)  -->
<svg xmlns="http://www.w3.org/2000/svg" xmlns:xlink="http://www.w3.org/1999/xlink" version="1.1" id="Layer_1" x="0px" y="0px" viewBox="0 0 512.006 512.006" style="enable-background:new 0 0 512.006 512.006;" xml:space="preserve">
<path style="fill:#5ABCE2;" d="M499.258,325.927c0,0-35.946,21.934-73.123-12.428c-37.178-34.362-60.026,19.571-103.483,19.571  c-43.459,0-26.89-29.052-66.65-29.052c-39.761,0-33.893,27.311-70.456,27.311s-40.867-27.311-73.151-27.311  s-41.323,29.13-65.05,29.13c-23.729,0-36.272-12.941-36.272-12.941L9.412,503.392h493.183L499.258,325.927z"/>
<path style="fill:#67CFEF;" d="M502.279,320.203c0,0-4.409,4.549-12.941,8.252H474.89v4.057c-0.789,0.113-1.588,0.217-2.409,0.302  c-7.019-0.052-14.958-1.366-23.353-4.98c-8.765-5.458-16.562-13.867-27.386-19.098c-13.165-9.331-24.643-7.728-36.174-2.27  c-8.767,3.002-15.294,8.296-22.497,13.233c-5.596,3.397-11.437,6.65-17.679,9.098c-4.99,1.564-10.717,2.528-17.584,2.528  c-35.749,0-30.942-26.104-67.877-27.266c-0.245-0.008-0.485-0.018-0.736-0.024c-0.119-0.002-0.246-0.002-0.368-0.004  c-0.454-0.008-0.908-0.016-1.376-0.016c-0.017,0-0.031,0-0.048,0s-0.033,0-0.049,0c-0.47,0-0.923,0.009-1.377,0.016  c-0.121,0.002-0.247,0.002-0.368,0.004c-0.25,0.006-0.49,0.017-0.736,0.024c-36.934,1.162-32.126,27.266-67.875,27.266  c-6.866,0-12.593-0.964-17.583-2.528c-0.822-0.322-1.634-0.659-2.441-1.007c16.984,78.178,70.15,142.849,141.093,175.599h182.964  h0.099c6.379,0,11.665-4.63,12.712-10.71V328.455h-1.486L502.279,320.203z"/>
<g>
	<path style="fill:#231F20;" d="M511.204,439.15v-60.256c0-0.003,0-0.005,0-0.009v-60.261c0-3.481-2.097-6.62-5.314-7.954   c-3.219-1.332-6.919-0.596-9.381,1.865c-16.068,16.066-42.206,16.067-58.274,0.006c-0.002-0.002-0.004-0.005-0.006-0.008   c-11.043-11.045-25.715-17.126-41.315-17.126c-15.6,0-30.272,6.081-41.315,17.126c-0.002,0.002-0.004,0.005-0.006,0.008   c-16.062,16.057-42.19,16.059-58.259,0.008c-0.004-0.004-0.009-0.01-0.013-0.014c-11.044-11.045-25.716-17.126-41.316-17.126   s-30.273,6.081-41.316,17.126c-0.005,0.005-0.01,0.011-0.014,0.015c-7.789,7.781-18.13,12.067-29.125,12.067   c-10.998,0-21.344-4.288-29.133-12.075c-0.002-0.002-0.004-0.005-0.006-0.008c-11.043-11.045-25.715-17.126-41.315-17.126   s-30.272,6.081-41.317,17.125c-0.008,0.008-0.013,0.016-0.02,0.023c-7.788,7.777-18.127,12.061-29.117,12.061   c-11.001,0-21.349-4.29-29.141-12.083c-2.461-2.461-6.162-3.198-9.382-1.865c-3.216,1.332-5.314,4.471-5.314,7.954v60.262   c0,0.002,0,0.003,0,0.005v60.259c0,0.002,0,0.003,0,0.005v64.235c0,4.754,3.855,8.609,8.609,8.609h59.243   c4.754,0,8.609-3.855,8.609-8.609s-3.855-8.609-8.609-8.609H18.021v-38.826c8.142,4.181,17.209,6.408,26.619,6.408   c15.598,0,30.271-6.081,41.314-17.125c0.002-0.002,0.004-0.005,0.008-0.008c7.79-7.788,18.137-12.076,29.133-12.076   c10.99,0,21.331,4.284,29.119,12.063c0.008,0.008,0.013,0.015,0.02,0.023c11.044,11.043,25.716,17.124,41.316,17.124   s30.272-6.081,41.315-17.125c0.005-0.005,0.009-0.011,0.014-0.015c7.79-7.782,18.131-12.069,29.126-12.069   c10.995,0,21.338,4.287,29.128,12.071c0.004,0.004,0.009,0.01,0.013,0.015c11.391,11.39,26.352,17.085,41.315,17.085   c14.961,0,29.924-5.696,41.315-17.085c0.004-0.004,0.008-0.009,0.012-0.013c11.746-11.738,29.264-15.291,44.632-9.053   c4.411,1.791,9.428-0.334,11.215-4.737c1.788-4.406-0.333-9.427-4.737-11.215c-21.801-8.849-46.644-3.809-63.296,12.841   c-0.005,0.005-0.009,0.011-0.014,0.015c-16.063,16.05-42.186,16.05-58.252,0c-0.004-0.004-0.009-0.01-0.013-0.014   c-11.044-11.045-25.716-17.126-41.316-17.126s-30.273,6.081-41.316,17.126c-0.005,0.005-0.01,0.011-0.014,0.015   c-7.789,7.781-18.13,12.067-29.125,12.067c-10.998,0-21.344-4.288-29.133-12.075c-0.002-0.002-0.004-0.005-0.006-0.008   c-11.043-11.045-25.715-17.126-41.315-17.126s-30.272,6.081-41.317,17.125c-0.008,0.008-0.014,0.016-0.022,0.024   c-7.788,7.777-18.127,12.061-29.116,12.061c-9.855,0-19.179-3.453-26.619-9.771v-39.683c8.142,4.181,17.209,6.408,26.619,6.408   c15.598,0,30.271-6.081,41.314-17.125c0.002-0.002,0.004-0.005,0.008-0.008c7.79-7.788,18.137-12.076,29.133-12.076   c10.99,0,21.331,4.284,29.119,12.063c0.008,0.008,0.013,0.015,0.02,0.023c11.044,11.043,25.716,17.124,41.316,17.124   s30.272-6.081,41.315-17.125c0.004-0.004,0.009-0.01,0.013-0.015c7.79-7.783,18.132-12.07,29.127-12.07   c10.995,0,21.338,4.287,29.128,12.071c0.004,0.004,0.009,0.01,0.013,0.015c11.391,11.39,26.352,17.085,41.315,17.085   c14.961,0,29.924-5.696,41.315-17.085c0.008-0.008,0.013-0.015,0.02-0.023c7.789-7.779,18.128-12.063,29.119-12.063   c10.991,0,21.332,4.284,29.119,12.063c0.006,0.008,0.013,0.015,0.02,0.023c11.392,11.392,26.351,17.085,41.316,17.085   c9.146,0,18.288-2.14,26.619-6.396v39.711c-14.442,12.202-35.862,13.073-51.194,1.641c-3.81-2.844-9.206-2.056-12.047,1.755   c-2.843,3.812-2.056,9.206,1.755,12.047c10.309,7.687,22.551,11.456,34.763,11.456c9.21,0,18.398-2.158,26.724-6.388v38.896H97.709   c-4.754,0-8.609,3.855-8.609,8.609s3.855,8.609,8.609,8.609h404.886c4.754,0,8.609-3.855,8.609-8.609v-64.234   C511.204,439.155,511.204,439.152,511.204,439.15z M438.233,372.807c-0.002-0.002-0.003-0.004-0.005-0.006   c-11.043-11.045-25.715-17.126-41.315-17.126c-15.6,0-30.272,6.081-41.315,17.126c-0.002,0.002-0.003,0.004-0.005,0.006   c-16.062,16.058-42.192,16.06-58.26,0.008c-0.004-0.004-0.008-0.01-0.012-0.014c-11.044-11.045-25.716-17.126-41.316-17.126   s-30.273,6.081-41.316,17.126c-0.004,0.004-0.009,0.01-0.013,0.015c-7.789,7.782-18.131,12.069-29.126,12.069   c-10.998,0-21.345-4.289-29.133-12.076c-0.002-0.002-0.004-0.004-0.006-0.006c-11.043-11.045-25.715-17.126-41.315-17.126   s-30.272,6.081-41.317,17.125c-0.008,0.008-0.013,0.015-0.02,0.023c-7.788,7.777-18.127,12.061-29.117,12.061   c-9.855,0-19.179-3.453-26.619-9.772v-39.665c8.141,4.179,17.211,6.391,26.619,6.391c15.598,0,30.271-6.081,41.314-17.125   c0.002-0.002,0.004-0.005,0.008-0.008c7.79-7.788,18.137-12.076,29.133-12.076c10.99,0,21.331,4.284,29.119,12.063   c0.008,0.008,0.013,0.015,0.02,0.023c11.044,11.043,25.716,17.124,41.316,17.124s30.272-6.081,41.315-17.125   c0.005-0.005,0.009-0.011,0.014-0.015c7.79-7.782,18.131-12.069,29.126-12.069c10.995,0,21.338,4.287,29.128,12.071   c0.004,0.004,0.009,0.01,0.013,0.015c11.391,11.389,26.352,17.085,41.315,17.085c14.961,0,29.924-5.696,41.315-17.085   c0.008-0.008,0.013-0.015,0.02-0.023c7.789-7.779,18.128-12.063,29.119-12.063c10.991,0,21.332,4.284,29.119,12.063   c0.006,0.008,0.013,0.015,0.02,0.023c18.354,18.352,45.976,21.919,67.935,10.702v39.692   C477.813,388.815,453.488,388.056,438.233,372.807z"/>
	<path style="fill:#231F20;" d="M119.886,133.707h258.977c4.754,0,8.609-3.855,8.609-8.609c0-4.755-3.855-8.609-8.609-8.609H119.886   c-4.754,0-8.609,3.854-8.609,8.609C111.278,129.853,115.132,133.707,119.886,133.707z"/>
	<path style="fill:#231F20;" d="M109.831,173.375h7.197c4.754,0,8.609-3.855,8.609-8.609c0-4.755-3.855-8.609-8.609-8.609h-7.197   c-4.754,0-8.609,3.854-8.609,8.609C101.222,169.521,105.077,173.375,109.831,173.375z"/>
	<path style="fill:#231F20;" d="M244.627,229.394c-0.356-0.045-0.716-0.075-1.084-0.075c-15.423,0-27.97-12.548-27.97-27.972   c0-4.754-3.855-8.609-8.609-8.609s-8.609,3.855-8.609,8.609c0,24.409,19.456,44.347,43.673,45.151   c0.493,0.087,0.998,0.141,1.515,0.141c24.945,0,45.24-20.295,45.24-45.242s-20.294-45.241-45.24-45.241h-98.804   c-4.754,0-8.609,3.854-8.609,8.609c0,4.754,3.855,8.609,8.609,8.609h98.804c15.451,0,28.022,12.571,28.022,28.023   C271.566,216.487,259.578,228.822,244.627,229.394z"/>
	<path style="fill:#231F20;" d="M249.515,90.482h85.891c24.945,0,45.24-20.295,45.24-45.242C380.647,20.295,360.352,0,335.407,0   c-0.518,0-1.022,0.054-1.515,0.141c-24.217,0.804-43.673,20.742-43.673,45.151c0,4.754,3.855,8.609,8.609,8.609   s8.609-3.855,8.609-8.609c0-15.424,12.547-27.972,27.97-27.972c0.368,0,0.727-0.031,1.084-0.075   c14.95,0.572,26.938,12.907,26.938,27.996c0,15.452-12.571,28.024-28.022,28.024h-85.891c-4.754,0-8.609,3.855-8.609,8.609   C240.907,86.628,244.761,90.482,249.515,90.482z"/>
	<path style="fill:#231F20;" d="M407.674,133.707h9.414c4.754,0,8.609-3.855,8.609-8.609c0-4.755-3.855-8.609-8.609-8.609h-9.414   c-4.754,0-8.609,3.854-8.609,8.609C399.065,129.853,402.92,133.707,407.674,133.707z"/>
</g>
<g>
</g>
<g>
</g>
<g>
</g>
<g>
</g>
<g>
</g>
<g>
</g>
<g>
</g>
<g>
</g>
<g>
</g>
<g>
</g>
<g>
</g>
<g>
</g>
<g>
</g>
<g>
</g>
<g>
</g>
</svg>
