<?xml version="1.0" encoding="iso-8859-1"?>
<!-- Generator: Adobe Illustrator 19.0.0, SVG Export Plug-In . SVG Version: 6.00 Build 0)  -->
<svg xmlns="http://www.w3.org/2000/svg" xmlns:xlink="http://www.w3.org/1999/xlink" version="1.1" id="Layer_1" x="0px" y="0px" viewBox="0 0 512 512" style="enable-background:new 0 0 512 512;" xml:space="preserve">
<path style="fill:#ED5145;" d="M96.648,227.115c0,0,40.42-36.732,86.109,5.104c0.105-39.138,31.858-70.835,71.02-70.835  c37.925,0,68.904,29.727,70.916,67.149c27.095-13.664,64.273-22.788,95.976,3.877h15.628c0-100.804-81.718-182.522-182.52-182.522  c-100.464,0-181.96,81.171-182.508,181.507L96.648,227.115z"/>
<path style="fill:#F29F26;" d="M179.18,230.811c0.606,0.545,1.21,1.073,1.816,1.598h1.754c0-39.225,31.799-71.025,71.025-71.025  c39.225,0,71.025,31.8,71.025,71.025h2.301c6.539-7.097,32.322-30.828,71.826-14.193c-2.721-28.182-13.457-54.02-29.91-75.199  l-14.235-15.809c-26.208-25.171-61.801-40.641-101.007-40.641c-76.262,0-138.843,58.539-145.284,133.133  C125.114,211.262,151.426,205.742,179.18,230.811z"/>
<path style="fill:#58C445;" d="M169.75,222.062h13.759c5.011-34.32,34.556-60.677,70.266-60.677s65.254,26.357,70.266,60.677h16.109  l7.419-3.444c3.899-3.037,8.21-5.286,12.72-6.751c-9.603-50.081-53.635-87.92-106.512-87.92c-52.635,0-96.509,37.493-106.38,87.233  c6.144,1.605,11.993,4.628,17.033,9.074C166.121,220.832,167.913,221.441,169.75,222.062z"/>
<path style="fill:#F75C54;" d="M251.204,47.875c-32.231,0-62.532,8.248-88.923,22.733c8.167,38.258,26.515,72.737,52.079,100.472  c10.781-6.431,23.378-10.137,36.845-10.137c38.46,0,69.876,30.147,71.918,68.098c27.477-13.856,65.181-23.11,97.332,3.93h7.839  c2.679-0.722,5.344-1.478,7.98-2.3C435.04,129.507,352.662,47.875,251.204,47.875z"/>
<path style="fill:#F9A83D;" d="M368.073,142.318l-14.436-16.032c-26.577-25.525-62.674-41.214-102.433-41.214  c-28.482,0-55.076,8.059-77.643,22.008c9.76,23.773,23.655,45.403,40.8,64.002c10.78-6.431,23.377-10.137,36.844-10.137  c39.779,0,72.027,32.25,72.027,72.029h2.334c6.631-7.197,32.779-31.264,72.841-14.394  C395.645,189.999,384.758,163.796,368.073,142.318z"/>
<path style="fill:#6AD354;" d="M251.204,122.978c-22.191,0-42.845,6.576-60.123,17.88c6.863,10.767,14.662,20.875,23.278,30.223  c10.78-6.433,23.38-10.137,36.847-10.137c36.214,0,66.176,26.732,71.258,61.534h16.335l7.523-3.492  c3.956-3.081,8.328-5.361,12.901-6.846C349.482,161.352,304.828,122.978,251.204,122.978z"/>
<g>
	<path style="fill:#9FDEF7;" d="M463.839,229.706c-4.127,0-8.105,0.632-11.844,1.805c0.02-0.599,0.045-1.199,0.045-1.805   c0-29.386-23.821-53.206-53.205-53.206c-25.338,0-46.523,17.717-51.882,41.433c-3.178-1.061-6.576-1.642-10.112-1.642   c-10.885,0-20.493,5.449-26.254,13.767c-3.215-0.831-6.588-1.278-10.065-1.278c-22.103,0-40.02,17.918-40.02,40.019   c0,22.103,17.917,40.021,40.02,40.021h130.942h22.401h9.972c21.847,0,39.556-17.712,39.556-39.556   C503.395,247.414,485.685,229.706,463.839,229.706z"/>
	<path style="fill:#9FDEF7;" d="M130.443,265.099H65.625H47.869h-7.906c-17.319,0-31.358-14.04-31.358-31.359   c0-17.32,14.039-31.357,31.358-31.357c3.271,0,6.425,0.502,9.389,1.431c-0.017-0.474-0.037-0.95-0.037-1.431   c0-23.294,18.884-42.177,42.178-42.177c20.084,0,36.878,14.045,41.128,32.844c2.519-0.84,5.213-1.303,8.015-1.303   c8.63,0,16.246,4.322,20.813,10.913c2.548-0.659,5.222-1.012,7.979-1.012c17.521,0,31.724,14.204,31.724,31.725   s-14.203,31.725-31.724,31.725h-9.584"/>
</g>
<g>
	<path style="fill:#83D4ED;" d="M88.969,177.418c0-5.211,0.369-10.336,1.065-15.355c-19.042,4.069-33.321,20.982-33.321,41.238   c0,0.481,0.019,0.956,0.035,1.431c-2.964-0.928-6.118-1.431-9.389-1.431c-17.32,0-31.357,14.038-31.357,31.357   c0,17.32,14.038,31.359,31.357,31.359h7.906h17.759H133.2C106.339,245.789,88.969,213.632,88.969,177.418z"/>
	<path style="fill:#83D4ED;" d="M352.498,234.426c0-5.361,0.423-10.622,1.229-15.756c-3-0.935-6.181-1.462-9.489-1.462   c-10.886,0-20.494,5.449-26.254,13.767c-3.216-0.831-6.588-1.278-10.065-1.278c-22.103,0-40.019,17.918-40.019,40.019   c0,22.103,17.916,40.021,40.019,40.021h78.382C365.564,291.272,352.498,264.377,352.498,234.426z"/>
</g>
<g>
	<path style="fill:#231F20;" d="M502.521,300.214h-1.821C507.745,291.837,512,281.04,512,269.263   c0-26.556-21.605-48.161-48.161-48.161c-1.262,0-2.519,0.048-3.77,0.146c-2.28-16.593-11.179-31.095-23.93-40.779   c-0.003-0.807-0.116-1.626-0.36-2.438c-11.564-38.512-35.696-73.136-67.949-97.498c-33.346-25.186-73.118-38.498-115.016-38.498   c-74.34,0-142.366,43.569-173.511,111.058c-19.414,4.802-34.466,20.791-37.869,40.713c-0.489-0.017-0.98-0.026-1.471-0.026   C17.928,193.777,0,211.703,0,233.74s17.928,39.964,39.963,39.964h90.48c4.752,0,8.605-3.853,8.605-8.605s-3.853-8.605-8.605-8.605   h-90.48c-12.546,0-22.753-10.208-22.753-22.754c0-12.545,10.207-22.752,22.753-22.752c2.326,0,4.62,0.349,6.816,1.037   c2.668,0.836,5.57,0.327,7.789-1.367c2.22-1.692,3.482-4.357,3.384-7.149l-0.008-0.2c-0.012-0.308-0.024-0.615-0.024-0.926   c0-18.512,15.061-33.571,33.573-33.571c15.544,0,29.311,10.993,32.736,26.137c0.536,2.372,2.049,4.406,4.168,5.6   c2.118,1.194,4.643,1.437,6.947,0.666c1.711-0.57,3.491-0.861,5.292-0.861c5.476,0,10.612,2.696,13.739,7.209   c2.054,2.966,5.735,4.333,9.23,3.43c1.892-0.49,3.851-0.739,5.822-0.739c12.748,0,23.119,10.372,23.119,23.12   s-10.371,23.12-23.119,23.12h-9.584c-4.752,0-8.605,3.853-8.605,8.605s3.853,8.605,8.605,8.605h9.584   c22.238,0,40.329-18.091,40.329-40.33c0-11.377-4.742-21.66-12.345-28.999c10.317-19.891,30.706-32.836,53.115-33.664   c0.76-0.027,1.522-0.043,2.287-0.043c0.897,0,1.789,0.02,2.677,0.057c24.795,1.051,46.397,16.627,55.353,39.379   c0.005,0.015,0.012,0.03,0.017,0.045c0.286,0.729,0.556,1.467,0.815,2.21c0.062,0.18,0.124,0.359,0.185,0.54   c0.203,0.599,0.397,1.204,0.583,1.812c0.096,0.315,0.189,0.632,0.28,0.95c0,0.001,0,0.002,0.001,0.003   c-1.992,1.476-3.863,3.128-5.57,4.963c-2.194-0.3-4.412-0.452-6.634-0.452c-26.812,0-48.625,21.813-48.625,48.624   c0,11.969,4.355,22.935,11.553,31.416H9.48c-4.752,0-8.605,3.853-8.605,8.605s3.853,8.605,8.605,8.605h291.042h163.316h38.682   c4.752,0,8.605-3.853,8.605-8.605S507.272,300.214,502.521,300.214z M252.814,59.244c71.539,0,136.289,44.912,162.004,110.761   c-5.102-1.367-10.456-2.109-15.983-2.109c-2,0-3.976,0.104-5.93,0.288c-0.224-0.483-0.446-0.969-0.671-1.438   c-0.188-0.397-0.38-0.795-0.579-1.207c-0.33-0.674-0.665-1.347-1.008-2.024l-0.15-0.295c-0.138-0.274-0.275-0.548-0.403-0.794   c-0.403-0.785-0.817-1.565-1.233-2.336l-0.393-0.739c-0.551-1.01-1.111-2.014-1.675-2.995l-0.473-0.811   c-0.426-0.731-0.855-1.462-1.288-2.178l-0.66-1.079c-0.389-0.631-0.782-1.261-1.183-1.894l-0.703-1.096   c-0.407-0.629-0.819-1.254-1.227-1.864l-0.701-1.049c-0.474-0.699-0.959-1.393-1.426-2.057l-0.536-0.767   c-0.663-0.931-1.337-1.853-2.019-2.769l-0.618-0.813c-0.389-0.517-0.78-1.036-1.177-1.547c-0.059-0.075-0.131-0.165-0.207-0.254   c-4.476-5.735-9.393-11.198-14.624-16.243c-0.071-0.073-0.144-0.146-0.218-0.217l-0.227-0.214c-0.315-0.301-0.635-0.6-0.954-0.897   l-0.677-0.632c-0.342-0.322-0.686-0.643-1.02-0.947c-0.417-0.381-0.839-0.756-1.261-1.132l-0.338-0.301   c-0.374-0.335-0.75-0.669-1.133-1.002c-0.331-0.289-0.664-0.572-0.999-0.857l-0.527-0.449c-0.425-0.361-0.848-0.721-1.24-1.046   c-0.393-0.329-0.791-0.651-1.189-0.973l-0.442-0.357c-0.409-0.332-0.819-0.664-1.241-0.999c-0.359-0.284-0.722-0.564-1.084-0.844   l-0.305-0.236c-0.498-0.385-0.998-0.771-1.497-1.148c-0.445-0.337-0.895-0.666-1.345-0.996l-0.189-0.139   c-0.474-0.35-0.951-0.698-1.422-1.037c-0.45-0.323-0.904-0.64-1.356-0.956l-0.089-0.063c-0.518-0.364-1.037-0.724-1.554-1.078   c-0.458-0.313-0.92-0.62-1.381-0.926l-0.091-0.061c-0.532-0.355-1.066-0.708-1.594-1.05c-0.421-0.272-0.845-0.542-1.269-0.81   l-0.227-0.144c-0.537-0.338-1.076-0.678-1.607-1.004c-0.454-0.279-0.908-0.552-1.365-0.826l-0.169-0.102   c-0.539-0.322-1.079-0.642-1.624-0.959c-0.513-0.298-1.026-0.591-1.546-0.884c-0.553-0.313-1.105-0.624-1.663-0.93   c-0.516-0.285-1.036-0.564-1.573-0.852c-0.564-0.3-1.129-0.601-1.687-0.891c-0.528-0.274-1.058-0.545-1.575-0.805   c-0.57-0.288-1.143-0.573-1.736-0.865c-0.526-0.256-1.054-0.511-1.579-0.759c-0.589-0.281-1.18-0.556-1.721-0.802   c-0.55-0.255-1.103-0.507-1.646-0.748c-0.597-0.266-1.194-0.527-1.751-0.766c-0.548-0.238-1.098-0.471-1.675-0.712   c-0.593-0.246-1.19-0.489-1.79-0.731c-0.543-0.217-1.087-0.435-1.664-0.659c-0.6-0.232-1.203-0.463-1.807-0.687   c-0.557-0.208-1.114-0.416-1.648-0.607c-0.507-0.184-1.014-0.362-1.523-0.54l-0.312-0.11c-0.012-0.004-0.125-0.043-0.137-0.047   c-0.517-0.179-1.036-0.357-1.575-0.539c-0.508-0.168-1.015-0.332-1.524-0.495l-0.345-0.112c-0.558-0.177-1.115-0.355-1.685-0.531   c-0.635-0.196-1.274-0.382-1.893-0.563c-0.571-0.168-1.143-0.337-1.729-0.5c-0.632-0.176-1.267-0.346-1.926-0.522l-0.429-0.114   c-0.419-0.112-0.837-0.222-1.272-0.333c-0.651-0.165-1.304-0.322-1.949-0.475l-0.332-0.081c-0.464-0.112-0.925-0.223-1.403-0.331   c-0.494-0.112-0.988-0.218-1.484-0.325l-1.002-0.214c-0.399-0.086-0.798-0.171-1.224-0.258c-0.641-0.128-1.284-0.248-1.991-0.381   l-0.44-0.084c-0.433-0.083-0.868-0.165-1.317-0.244c-0.537-0.094-1.077-0.182-1.617-0.27l-0.853-0.14   c-0.429-0.07-0.858-0.141-1.278-0.203c-0.53-0.08-1.063-0.154-1.596-0.226l-1.013-0.14c-0.403-0.056-0.807-0.112-1.189-0.159   c-0.612-0.076-1.227-0.145-1.841-0.212l-0.838-0.094c-0.392-0.045-0.784-0.09-1.152-0.126c-0.634-0.065-1.27-0.117-1.906-0.171   l-0.875-0.076c-0.355-0.032-0.711-0.066-1.078-0.093c-0.61-0.046-1.224-0.082-1.837-0.118l-0.997-0.061   c-0.344-0.023-0.689-0.044-1.053-0.063c-0.756-0.037-1.517-0.063-2.276-0.088l-0.705-0.025c-0.304-0.013-0.609-0.025-0.913-0.032   c-2.609-0.068-5.25-0.068-7.862,0c-0.304,0.008-0.607,0.019-0.911,0.031l-0.708,0.026c-0.759,0.025-1.52,0.052-2.294,0.089   c-0.347,0.018-0.695,0.04-1.04,0.062l-0.991,0.061c-0.613,0.035-1.228,0.072-1.847,0.119c-0.358,0.026-0.715,0.059-1.071,0.091   l-0.878,0.076c-0.636,0.054-1.271,0.109-1.872,0.169c-0.397,0.038-0.792,0.083-1.186,0.128l-0.808,0.091   c-0.624,0.068-1.248,0.137-1.845,0.212c-0.41,0.051-0.819,0.108-1.227,0.163l-1.004,0.139c-0.532,0.072-1.065,0.145-1.581,0.224   c-0.428,0.065-0.856,0.133-1.282,0.203l-0.829,0.136c-0.549,0.089-1.097,0.179-1.664,0.278c-0.431,0.076-0.863,0.158-1.293,0.241   l-0.429,0.082c-0.67,0.125-1.339,0.25-2.029,0.387c-0.398,0.082-0.795,0.166-1.191,0.251l-1.072,0.23   c-0.477,0.102-0.954,0.204-1.435,0.314c-0.461,0.105-0.921,0.215-1.381,0.327l-0.337,0.081c-0.652,0.157-1.305,0.313-1.971,0.482   c-0.432,0.111-0.863,0.225-1.293,0.338l-0.414,0.111c-0.639,0.17-1.277,0.34-1.921,0.521c-0.571,0.16-1.141,0.328-1.701,0.492   c-0.635,0.186-1.27,0.371-1.916,0.57c-0.527,0.162-1.052,0.33-1.577,0.497c-0.008,0.002-0.112,0.035-0.119,0.038l-0.317,0.102   c-0.513,0.165-1.026,0.329-1.551,0.506c-0.52,0.174-1.038,0.353-1.555,0.531l-0.449,0.157c-0.509,0.177-1.016,0.356-1.497,0.529   c-0.56,0.202-1.116,0.41-1.665,0.614c-0.608,0.226-1.214,0.457-1.853,0.703c-0.543,0.212-1.086,0.429-1.626,0.646   c-0.597,0.24-1.193,0.482-1.822,0.743c-0.548,0.229-1.094,0.461-1.605,0.683c-0.598,0.256-1.194,0.516-1.777,0.778   c-0.551,0.245-1.098,0.494-1.61,0.731c-0.594,0.271-1.185,0.547-1.762,0.822c-0.528,0.251-1.053,0.504-1.597,0.769   c-0.577,0.283-1.151,0.569-1.713,0.853c-0.527,0.266-1.054,0.535-1.577,0.806c-0.567,0.294-1.133,0.595-1.725,0.91   c-0.513,0.276-1.025,0.553-1.546,0.838c-0.56,0.308-1.118,0.621-1.65,0.924c-0.521,0.294-1.039,0.588-1.558,0.891   c-0.543,0.316-1.083,0.637-1.655,0.978l-0.288,0.173c-0.404,0.244-0.81,0.487-1.201,0.728c-0.539,0.331-1.076,0.668-1.627,1.015   c-0.497,0.314-0.994,0.628-1.479,0.942c-0.539,0.347-1.073,0.702-1.587,1.044c-0.495,0.329-0.991,0.657-1.492,1   c-0.521,0.356-1.041,0.717-1.533,1.063c-0.493,0.343-0.985,0.687-1.456,1.026c-0.48,0.343-0.956,0.693-1.431,1.042l-0.189,0.139   c-0.45,0.33-0.899,0.659-1.333,0.987c-0.444,0.336-0.884,0.673-1.324,1.013l-0.398,0.308c-0.396,0.305-0.792,0.611-1.186,0.923   c-0.386,0.307-0.771,0.616-1.154,0.927l-0.588,0.475c-0.372,0.301-0.744,0.604-1.092,0.893c-0.423,0.351-0.84,0.705-1.258,1.061   l-0.538,0.458c-0.336,0.285-0.668,0.568-1.002,0.859c-0.38,0.331-0.754,0.666-1.129,1l-0.475,0.425   c-0.376,0.335-0.752,0.669-1.11,0.996c-0.346,0.316-0.691,0.638-1.033,0.959l-0.582,0.544c-0.356,0.331-0.71,0.663-1.004,0.942   l-0.273,0.257c-0.066,0.062-0.136,0.133-0.207,0.208c-5.221,5.034-10.129,10.484-14.596,16.204   c-0.081,0.096-0.16,0.195-0.239,0.293c-0.364,0.468-0.72,0.94-1.076,1.412l-0.726,0.955c-0.683,0.918-1.356,1.838-2.008,2.756   c-0.153,0.213-0.301,0.428-0.45,0.643l-0.077,0.112c-0.486,0.692-0.97,1.384-1.457,2.102l-0.687,1.027   c-0.414,0.62-0.825,1.241-1.221,1.855c-0.24,0.369-0.475,0.738-0.716,1.114c-0.397,0.627-0.788,1.256-1.189,1.905l-0.645,1.054   c-0.439,0.727-0.871,1.461-1.289,2.178l-0.467,0.798c-0.452,0.785-0.888,1.577-1.323,2.367c-5.591-3.319-11.863-5.583-18.538-6.556   C128.882,95.412,188.218,59.244,252.814,59.244z M138.535,183.208c-1.92-4.761-4.514-9.123-7.656-12.988   c0.345-0.668,0.697-1.331,1.054-1.997l0.344-0.649c0.486-0.894,0.982-1.78,1.5-2.682l0.401-0.685   c0.38-0.653,0.763-1.306,1.158-1.96l0.574-0.938c0.348-0.566,0.699-1.13,1.053-1.686l0.635-0.989   c0.358-0.555,0.723-1.105,1.091-1.656l0.613-0.919c0.422-0.62,0.85-1.233,1.316-1.893l0.441-0.632   c0.589-0.829,1.188-1.647,1.795-2.462l0.668-0.88c0.252-0.335,0.503-0.668,0.758-0.999c0.076-0.09,0.151-0.182,0.223-0.275   c4.056-5.214,8.524-10.175,13.282-14.749c0.048-0.046,0.1-0.098,0.154-0.153c0.023-0.021,0.044-0.042,0.067-0.063   c0.298-0.285,0.601-0.566,0.902-0.848l0.621-0.581c0.281-0.262,0.561-0.526,0.858-0.797c0.312-0.285,0.629-0.566,0.944-0.847   l0.51-0.454c0.324-0.289,0.648-0.578,0.97-0.862c0.278-0.241,0.557-0.478,0.837-0.715l0.55-0.468   c0.36-0.308,0.721-0.614,1.106-0.934c0.304-0.254,0.611-0.502,0.919-0.751l0.588-0.475c0.336-0.272,0.67-0.544,1.008-0.81   c0.337-0.267,0.677-0.529,1.016-0.792l0.409-0.315c0.381-0.294,0.76-0.588,1.156-0.885c0.382-0.289,0.77-0.572,1.156-0.856   l0.204-0.151c0.416-0.307,0.831-0.612,1.268-0.925c0.419-0.3,0.842-0.596,1.291-0.909c0.458-0.322,0.918-0.641,1.369-0.951   c0.432-0.294,0.868-0.583,1.325-0.886c0.459-0.308,0.92-0.612,1.391-0.918c0.442-0.286,0.888-0.568,1.32-0.84   c0.479-0.301,0.957-0.603,1.45-0.905c0.353-0.217,0.708-0.43,1.064-0.645l0.264-0.158c0.49-0.292,0.984-0.585,1.477-0.873   c0.45-0.261,0.9-0.517,1.376-0.786c0.487-0.276,0.978-0.552,1.461-0.819c0.469-0.257,0.939-0.511,1.381-0.749   c0.5-0.266,1.001-0.534,1.507-0.795c0.466-0.241,0.931-0.48,1.409-0.72c0.51-0.257,1.019-0.513,1.513-0.754   c0.476-0.232,0.956-0.463,1.448-0.696c0.504-0.241,1.011-0.477,1.558-0.727c0.469-0.216,0.937-0.429,1.419-0.644   c0.516-0.23,1.036-0.457,1.59-0.695c0.482-0.209,0.965-0.414,1.413-0.602c0.532-0.221,1.067-0.44,1.603-0.654   c0.497-0.2,0.994-0.398,1.456-0.58c0.54-0.208,1.081-0.414,1.633-0.62c0.489-0.183,0.979-0.366,1.498-0.553   c0.442-0.159,0.885-0.315,1.329-0.471l0.387-0.134c0.472-0.162,0.944-0.327,1.405-0.481c0.445-0.15,0.894-0.292,1.342-0.436   l0.4-0.128c0.48-0.154,0.958-0.305,1.426-0.451c0.557-0.171,1.114-0.335,1.682-0.5c0.504-0.148,1.009-0.296,1.503-0.435   c0.57-0.158,1.144-0.312,1.701-0.461l0.414-0.11c0.38-0.101,0.758-0.202,1.124-0.295c0.573-0.146,1.15-0.284,1.734-0.424   l0.36-0.086c0.388-0.095,0.777-0.188,1.161-0.275c0.406-0.093,0.813-0.18,1.221-0.267l1.081-0.231   c0.337-0.072,0.673-0.145,0.989-0.209c0.589-0.118,1.181-0.229,1.79-0.342l0.484-0.091c0.351-0.068,0.702-0.134,1.036-0.194   c0.486-0.084,0.973-0.163,1.461-0.243l0.861-0.141c0.345-0.057,0.693-0.114,1.053-0.169c0.444-0.068,0.892-0.128,1.339-0.189   l1.055-0.145c0.319-0.044,0.64-0.089,0.984-0.132c0.525-0.067,1.053-0.124,1.583-0.182l0.906-0.101   c0.293-0.034,0.586-0.068,0.913-0.1c0.539-0.055,1.083-0.101,1.626-0.146l0.984-0.086c0.272-0.025,0.544-0.051,0.81-0.07   c0.52-0.039,1.042-0.069,1.564-0.1l1.09-0.068c0.269-0.018,0.538-0.035,0.79-0.048c0.665-0.032,1.333-0.055,2.001-0.076   l1.487-0.055c2.323-0.06,4.662-0.06,6.987,0l1.485,0.055c0.668,0.023,1.336,0.044,1.983,0.075c0.269,0.014,0.535,0.031,0.801,0.049   l1.097,0.068c0.522,0.03,1.046,0.061,1.554,0.099c0.272,0.022,0.544,0.046,0.815,0.07l0.982,0.086   c0.545,0.046,1.092,0.093,1.661,0.15c0.293,0.028,0.586,0.063,0.879,0.097l0.935,0.105c0.521,0.057,1.042,0.113,1.583,0.182   c0.314,0.039,0.628,0.083,0.942,0.127l1.067,0.147c0.45,0.061,0.899,0.122,1.359,0.191c0.351,0.053,0.7,0.111,1.05,0.168   l0.879,0.144c0.477,0.077,0.954,0.156,1.414,0.236c0.355,0.063,0.707,0.13,1.059,0.198l0.57,0.109   c0.566,0.105,1.135,0.211,1.674,0.319c0.34,0.069,0.681,0.143,1.02,0.215l1.018,0.218c0.426,0.091,0.853,0.182,1.267,0.276   c0.395,0.089,0.788,0.185,1.184,0.281l0.354,0.085c0.577,0.138,1.153,0.275,1.712,0.417l1.532,0.403   c0.575,0.155,1.151,0.308,1.715,0.465c0.504,0.142,1.005,0.289,1.523,0.441c0.557,0.162,1.113,0.325,1.656,0.492   c0.513,0.158,1.022,0.322,1.512,0.478l0.337,0.109c0.446,0.143,0.893,0.286,1.319,0.427c0.474,0.159,0.947,0.324,1.419,0.486   l0.387,0.134c0.444,0.156,0.887,0.311,1.356,0.481c0.493,0.176,0.983,0.359,1.471,0.542c0.544,0.202,1.089,0.411,1.601,0.608   c0.498,0.195,0.994,0.393,1.484,0.589c0.535,0.214,1.069,0.432,1.576,0.643c0.482,0.202,0.962,0.406,1.483,0.632   c0.518,0.222,1.037,0.447,1.563,0.683c0.467,0.207,0.932,0.418,1.449,0.658c0.511,0.232,1.016,0.47,1.528,0.713   c0.478,0.227,0.956,0.456,1.411,0.678c0.515,0.252,1.027,0.509,1.555,0.776c0.464,0.232,0.924,0.47,1.393,0.712   c0.504,0.26,1.007,0.528,1.491,0.786c0.466,0.248,0.929,0.499,1.388,0.751c0.497,0.274,0.991,0.552,1.48,0.829   c0.456,0.258,0.913,0.516,1.365,0.781c0.495,0.289,0.989,0.582,1.453,0.858l0.144,0.086c0.406,0.244,0.809,0.486,1.221,0.74   c0.479,0.294,0.957,0.594,1.416,0.883l0.214,0.136c0.378,0.239,0.754,0.478,1.136,0.725c0.467,0.3,0.928,0.607,1.399,0.921   l0.1,0.067c0.401,0.267,0.803,0.534,1.207,0.81c0.463,0.315,0.921,0.636,1.39,0.964l0.102,0.07   c0.394,0.275,0.788,0.552,1.188,0.837c0.421,0.301,0.836,0.607,1.252,0.914l0.204,0.151c0.386,0.284,0.774,0.567,1.161,0.858   c0.444,0.336,0.885,0.677,1.324,1.016l0.317,0.245c0.315,0.244,0.631,0.487,0.934,0.727c0.361,0.287,0.72,0.577,1.077,0.867   l0.461,0.373c0.325,0.262,0.65,0.525,1.007,0.824c0.367,0.302,0.728,0.61,1.091,0.919l0.538,0.458   c0.281,0.238,0.56,0.474,0.834,0.713c0.327,0.286,0.65,0.574,0.973,0.864l0.38,0.338c0.359,0.319,0.72,0.639,1.087,0.975   c0.284,0.258,0.565,0.522,0.845,0.784l0.711,0.666c0.272,0.253,0.543,0.507,0.812,0.763c0.009,0.009,0.025,0.024,0.044,0.042   c0.058,0.059,0.116,0.116,0.175,0.173c4.756,4.573,9.226,9.534,13.283,14.75c0.054,0.069,0.118,0.148,0.186,0.229   c0.301,0.39,0.598,0.784,0.894,1.179l0.568,0.746c0.607,0.814,1.206,1.633,1.806,2.475l0.465,0.667   c0.431,0.611,0.86,1.225,1.258,1.811l0.644,0.964c0.366,0.546,0.727,1.094,1.081,1.642l0.633,0.984   c0.357,0.561,0.709,1.126,1.047,1.676l0.591,0.963c0.392,0.65,0.777,1.306,1.149,1.946l0.414,0.706   c0.507,0.883,1.005,1.772,1.498,2.678l0.341,0.644c0.368,0.685,0.734,1.371,1.103,2.09l0.485,0.958   c0.17,0.337,0.333,0.67,0.5,1.006c-6.349,2.526-12.188,6.081-17.309,10.486c-8.624-18.144-21.733-33.724-38.349-45.431   c-19.772-13.929-43.048-21.293-67.315-21.293c-45.725,0-86.937,26.425-106.109,67.657c-1.987-0.363-4.015-0.559-6.071-0.559   C139.934,183.143,139.233,183.165,138.535,183.208z M164.836,193.305c-0.807-0.822-1.653-1.597-2.533-2.329   c16.351-35.177,51.505-57.723,90.512-57.723c41.159,0,78.559,25.77,93.239,64.174c-1.992,3.284-3.697,6.782-5.072,10.467   c-1.372-0.141-2.755-0.211-4.142-0.211c-2.817,0-5.596,0.295-8.3,0.862c-0.011-0.034-0.024-0.069-0.035-0.103   c-0.277-0.856-0.566-1.705-0.87-2.547c-0.02-0.057-0.042-0.113-0.062-0.17c-11.333-31.138-41.002-52.268-74.758-52.268   c-0.976,0-1.948,0.018-2.917,0.054c-28.411,1.026-53.83,16.987-67.162,41.798c-4.169-1.462-8.645-2.266-13.307-2.266   C167.891,193.044,166.357,193.132,164.836,193.305z M300.522,300.214c-17.322,0-31.415-14.094-31.415-31.416   s14.093-31.414,31.415-31.414c2.675,0,5.336,0.337,7.909,1.004c3.486,0.901,7.176-0.467,9.229-3.43   c4.365-6.3,11.535-10.061,19.181-10.061c2.517,0,5.002,0.403,7.387,1.2c2.307,0.771,4.833,0.528,6.95-0.666   c2.119-1.194,3.632-3.229,4.169-5.6c4.547-20.121,22.836-34.725,43.489-34.725c24.592,0,44.6,20.008,44.6,44.601   c0,0.402-0.016,0.801-0.029,1.199l-0.011,0.318c-0.094,2.788,1.171,5.447,3.39,7.137c2.221,1.689,5.123,2.198,7.783,1.362   c2.984-0.936,6.103-1.411,9.269-1.411c17.067,0,30.951,13.884,30.951,30.951s-13.884,30.951-30.951,30.951H300.522V300.214z"/>
	<path style="fill:#231F20;" d="M472.302,351.063h-29.017c-4.752,0-8.605,3.853-8.605,8.605s3.853,8.605,8.605,8.605h29.017   c4.752,0,8.605-3.853,8.605-8.605S477.054,351.063,472.302,351.063z"/>
	<path style="fill:#231F20;" d="M423.921,359.668c0-4.752-3.853-8.605-8.605-8.605H39.698c-4.752,0-8.605,3.853-8.605,8.605   s3.853,8.605,8.605,8.605h375.618C420.068,368.273,423.921,364.42,423.921,359.668z"/>
	<path style="fill:#231F20;" d="M432.055,401.907H192.656c-4.752,0-8.605,3.853-8.605,8.605s3.853,8.605,8.605,8.605h239.398   c4.752,0,8.605-3.853,8.605-8.605S436.807,401.907,432.055,401.907z"/>
	<path style="fill:#231F20;" d="M172.221,410.512c0-4.752-3.853-8.605-8.605-8.605H79.945c-4.752,0-8.605,3.853-8.605,8.605   s3.853,8.605,8.605,8.605h83.671C168.368,419.117,172.221,415.264,172.221,410.512z"/>
	<path style="fill:#231F20;" d="M388.663,452.756h-97.044c-4.752,0-8.605,3.853-8.605,8.605s3.853,8.605,8.605,8.605h97.044   c4.752,0,8.605-3.853,8.605-8.605S393.415,452.756,388.663,452.756z"/>
	<path style="fill:#231F20;" d="M261.496,452.756H123.339c-4.752,0-8.605,3.853-8.605,8.605s3.853,8.605,8.605,8.605h138.157   c4.752,0,8.605-3.853,8.605-8.605S266.249,452.756,261.496,452.756z"/>
</g>
<g>
</g>
<g>
</g>
<g>
</g>
<g>
</g>
<g>
</g>
<g>
</g>
<g>
</g>
<g>
</g>
<g>
</g>
<g>
</g>
<g>
</g>
<g>
</g>
<g>
</g>
<g>
</g>
<g>
</g>
</svg>
