<?xml version="1.0" encoding="iso-8859-1"?>
<!-- Generator: Adobe Illustrator 19.0.0, SVG Export Plug-In . SVG Version: 6.00 Build 0)  -->
<svg xmlns="http://www.w3.org/2000/svg" xmlns:xlink="http://www.w3.org/1999/xlink" version="1.1" id="Layer_1" x="0px" y="0px" viewBox="0 0 512 512" style="enable-background:new 0 0 512 512;" xml:space="preserve">
<path style="fill:#9FDEF7;" d="M377.909,55.116c15.153,18.643,24.236,42.417,24.236,68.314c0,1.234-0.054,2.456-0.094,3.677  c7.616-2.385,15.718-3.677,24.124-3.677c44.508,0,80.584,36.076,80.584,80.584c0,44.501-36.076,80.582-80.584,80.582h-6.186h-31.636  H93.483c-45.026,0-81.523-36.502-81.523-81.527s36.498-81.524,81.523-81.524c7.082,0,13.95,0.909,20.501,2.604  c11.739-16.944,31.307-28.047,53.485-28.047c7.201,0,14.125,1.187,20.598,3.349c10.919-48.314,54.076-84.405,105.691-84.405  c23.774,0,45.761,7.655,63.63,20.635"/>
<path style="fill:#83D4ED;" d="M188.458,132.462c0-11.679,1.091-23.101,3.157-34.181c-5.982-1.818-12.322-2.818-18.899-2.818  c-22.177,0-41.746,11.103-53.485,28.047c-6.552-1.694-13.419-2.604-20.501-2.604c-45.026,0-81.523,36.5-81.523,81.524  s36.498,81.527,81.523,81.527h168.239C219.472,250.386,188.458,195.049,188.458,132.462z"/>
<g>
	<path style="fill:#231F20;" d="M384.995,293.462c4.749,0,8.6-3.851,8.6-8.6s-3.851-8.6-8.6-8.6H90.123   c-40.21,0-72.923-32.714-72.923-72.926c0-40.211,32.714-72.924,72.923-72.924c6.199,0,12.371,0.784,18.348,2.33   c3.491,0.903,7.171-0.467,9.223-3.428c10.561-15.244,27.913-24.345,46.416-24.345c6.088,0,12.101,0.977,17.874,2.906   c2.302,0.769,4.828,0.529,6.946-0.664c2.118-1.192,3.631-3.226,4.167-5.597c10.339-45.749,50.352-77.701,97.303-77.701   c21.214,0,41.471,6.567,58.576,18.993c3.844,2.792,9.22,1.938,12.012-1.904c2.792-3.842,1.939-9.22-1.904-12.012   C339.021,14.415,315.271,6.712,290.4,6.712c-26.697,0-52.806,9.234-73.518,26.001c-18.075,14.632-31.444,34.452-38.261,56.498   c-4.768-0.959-9.621-1.443-14.512-1.443c-22.175,0-43.078,10.012-57.011,27.046c-5.585-1.064-11.271-1.603-16.975-1.603   C40.429,113.212,0,153.641,0,203.335c0,49.697,40.429,90.127,90.123,90.127H384.995z"/>
	<path style="fill:#231F20;" d="M422.816,115.096c-5.272,0-10.506,0.461-15.655,1.374c-1.511-24.244-10.588-47.627-25.938-66.512   c-2.995-3.686-8.412-4.243-12.098-1.249c-3.686,2.996-4.245,8.412-1.249,12.098c14.387,17.7,22.31,40.033,22.31,62.889   c0,0.886-0.032,1.765-0.063,2.64l-0.026,0.755c-0.09,2.785,1.173,5.442,3.391,7.128c2.218,1.686,5.117,2.193,7.774,1.361   c6.957-2.179,14.209-3.284,21.555-3.284c39.693,0,71.984,32.291,71.984,71.984c0,39.69-32.291,71.982-71.984,71.982h-6.186   c-4.749,0-8.6,3.851-8.6,8.6s3.851,8.6,8.6,8.6h6.186c49.176,0,89.184-40.006,89.184-89.182   C512,155.104,471.994,115.096,422.816,115.096z"/>
	<path style="fill:#231F20;" d="M128.485,458.031h-9.298l6.575-6.575c3.358-3.359,3.358-8.804,0-12.163   c-3.359-3.357-8.803-3.357-12.163,0l-6.573,6.573v-9.295c0-4.749-3.851-8.6-8.6-8.6s-8.6,3.851-8.6,8.6v9.296l-6.574-6.574   c-3.357-3.356-8.802-3.357-12.163,0c-3.358,3.358-3.358,8.803,0,12.163l6.575,6.575h-9.297c-4.749,0-8.6,3.851-8.6,8.6   s3.851,8.6,8.6,8.6h9.295l-6.573,6.573c-3.358,3.359-3.358,8.804,0,12.163c1.68,1.679,3.88,2.519,6.081,2.519   s4.402-0.84,6.081-2.519l6.574-6.574v9.296c0,4.749,3.851,8.6,8.6,8.6s8.6-3.851,8.6-8.6v-9.295l6.573,6.573   c1.68,1.679,3.88,2.519,6.081,2.519c2.201,0,4.402-0.84,6.081-2.519c3.358-3.358,3.358-8.803,0-12.163l-6.573-6.573h9.296   c4.749,0,8.6-3.851,8.6-8.6S133.234,458.031,128.485,458.031z"/>
	<path style="fill:#231F20;" d="M128.485,349.013h-9.298l6.575-6.575c3.358-3.359,3.358-8.804,0-12.163   c-3.359-3.357-8.803-3.357-12.163,0l-6.573,6.573v-9.295c0-4.749-3.851-8.6-8.6-8.6s-8.6,3.851-8.6,8.6v9.296l-6.574-6.574   c-3.357-3.356-8.802-3.357-12.163,0c-3.358,3.358-3.358,8.803,0,12.163l6.575,6.575h-9.297c-4.749,0-8.6,3.851-8.6,8.6   s3.851,8.6,8.6,8.6h9.295l-6.573,6.573c-3.358,3.359-3.358,8.804,0,12.163c1.68,1.679,3.88,2.519,6.081,2.519   s4.402-0.84,6.081-2.519l6.574-6.575v9.297c0,4.749,3.851,8.6,8.6,8.6s8.6-3.851,8.6-8.6v-9.295l6.573,6.573   c1.68,1.679,3.88,2.519,6.081,2.519c2.201,0,4.402-0.84,6.081-2.519c3.358-3.358,3.358-8.803,0-12.163l-6.573-6.573h9.296   c4.749,0,8.6-3.851,8.6-8.6S133.234,349.013,128.485,349.013z"/>
	<path style="fill:#231F20;" d="M286.8,458.031h-9.3l6.576-6.576c3.358-3.358,3.358-8.803-0.001-12.162   c-3.357-3.357-8.802-3.358-12.162,0.001l-6.573,6.574v-9.297c0-4.749-3.851-8.6-8.6-8.6s-8.6,3.851-8.6,8.6v9.296l-6.573-6.573   c-3.357-3.358-8.802-3.358-12.162-0.001c-3.359,3.358-3.359,8.803-0.001,12.162l6.576,6.576h-9.298c-4.749,0-8.6,3.851-8.6,8.6   s3.851,8.6,8.6,8.6h9.296l-6.574,6.574c-3.358,3.358-3.358,8.803,0.001,12.162c1.679,1.679,3.879,2.519,6.08,2.519   c2.202,0,4.402-0.84,6.081-2.52l6.573-6.573v9.296c0,4.749,3.851,8.6,8.6,8.6s8.6-3.851,8.6-8.6v-9.297l6.573,6.574   c1.68,1.68,3.88,2.52,6.081,2.52c2.201,0,4.402-0.84,6.08-2.519c3.359-3.358,3.359-8.803,0.001-12.162l-6.574-6.574h9.298   c4.749,0,8.6-3.851,8.6-8.6S291.549,458.031,286.8,458.031z"/>
	<path style="fill:#231F20;" d="M286.8,349.013h-9.3l6.576-6.576c3.358-3.358,3.358-8.803-0.001-12.162   c-3.357-3.357-8.802-3.358-12.162,0.001l-6.573,6.574v-9.297c0-4.749-3.851-8.6-8.6-8.6s-8.6,3.851-8.6,8.6v9.296l-6.573-6.573   c-3.357-3.358-8.802-3.358-12.162-0.001c-3.359,3.358-3.359,8.803-0.001,12.162l6.576,6.576h-9.298c-4.749,0-8.6,3.851-8.6,8.6   s3.851,8.6,8.6,8.6h9.296l-6.574,6.574c-3.358,3.358-3.358,8.803,0.001,12.162c1.679,1.679,3.879,2.519,6.08,2.519   c2.202,0,4.402-0.84,6.081-2.52l6.573-6.573v9.296c0,4.749,3.851,8.6,8.6,8.6s8.6-3.851,8.6-8.6v-9.297l6.573,6.574   c1.68,1.68,3.88,2.52,6.081,2.52c2.201,0,4.402-0.84,6.08-2.519c3.359-3.358,3.359-8.803,0.001-12.162l-6.574-6.574h9.298   c4.749,0,8.6-3.851,8.6-8.6S291.549,349.013,286.8,349.013z"/>
	<path style="fill:#231F20;" d="M445.114,458.031h-9.298l6.575-6.575c3.358-3.359,3.358-8.804,0-12.163   c-3.359-3.357-8.803-3.357-12.163,0l-6.573,6.573v-9.295c0-4.749-3.851-8.6-8.6-8.6s-8.6,3.851-8.6,8.6v9.296l-6.574-6.574   c-3.357-3.356-8.802-3.357-12.163,0c-3.358,3.358-3.358,8.803,0,12.163l6.575,6.575h-9.297c-4.749,0-8.6,3.851-8.6,8.6   s3.851,8.6,8.6,8.6h9.295l-6.573,6.573c-3.358,3.359-3.358,8.804,0,12.163c1.68,1.679,3.88,2.519,6.081,2.519   s4.402-0.84,6.081-2.519l6.574-6.574v9.296c0,4.749,3.851,8.6,8.6,8.6s8.6-3.851,8.6-8.6v-9.295l6.573,6.573   c1.68,1.679,3.88,2.519,6.081,2.519c2.201,0,4.402-0.84,6.081-2.519c3.358-3.358,3.358-8.803,0-12.163l-6.573-6.573h9.296   c4.749,0,8.6-3.851,8.6-8.6S449.863,458.031,445.114,458.031z"/>
	<path style="fill:#231F20;" d="M365.957,403.834h-9.298l6.575-6.575c3.358-3.359,3.358-8.804,0-12.163   c-3.359-3.357-8.803-3.357-12.163,0l-6.573,6.573v-9.295c0-4.749-3.851-8.6-8.6-8.6s-8.6,3.851-8.6,8.6v9.296l-6.574-6.574   c-3.357-3.355-8.802-3.357-12.163,0c-3.358,3.358-3.358,8.803,0,12.163l6.575,6.575h-9.297c-4.749,0-8.6,3.851-8.6,8.6   s3.851,8.6,8.6,8.6h9.295l-6.573,6.573c-3.358,3.359-3.358,8.804,0,12.163c1.68,1.679,3.88,2.519,6.081,2.519   s4.402-0.84,6.081-2.519l6.574-6.574v9.296c0,4.749,3.851,8.6,8.6,8.6s8.6-3.851,8.6-8.6v-9.295l6.573,6.573   c1.68,1.679,3.88,2.519,6.081,2.519c2.201,0,4.402-0.84,6.081-2.519c3.358-3.358,3.358-8.803,0-12.163l-6.573-6.573h9.296   c4.749,0,8.6-3.851,8.6-8.6S370.706,403.834,365.957,403.834z"/>
	<path style="fill:#231F20;" d="M207.641,403.834h-9.298l6.575-6.575c3.358-3.359,3.358-8.804,0-12.163   c-3.359-3.357-8.803-3.357-12.163,0l-6.573,6.573v-9.295c0-4.749-3.851-8.6-8.6-8.6s-8.6,3.851-8.6,8.6v9.296l-6.574-6.574   c-3.357-3.355-8.802-3.357-12.163,0c-3.358,3.358-3.358,8.803,0,12.163l6.575,6.575h-9.297c-4.749,0-8.6,3.851-8.6,8.6   s3.851,8.6,8.6,8.6h9.295l-6.573,6.573c-3.358,3.359-3.358,8.804,0,12.163c1.68,1.679,3.88,2.519,6.081,2.519   c2.202,0,4.402-0.84,6.081-2.519l6.574-6.574v9.296c0,4.749,3.851,8.6,8.6,8.6s8.6-3.851,8.6-8.6v-9.295l6.573,6.573   c1.68,1.679,3.88,2.519,6.081,2.519c2.201,0,4.402-0.84,6.081-2.519c3.358-3.358,3.358-8.803,0-12.163l-6.573-6.573h9.296   c4.749,0,8.6-3.851,8.6-8.6S212.391,403.834,207.641,403.834z"/>
	<path style="fill:#231F20;" d="M445.114,349.013h-9.298l6.575-6.575c3.358-3.359,3.358-8.804,0-12.163   c-3.359-3.357-8.803-3.357-12.163,0l-6.573,6.573v-9.295c0-4.749-3.851-8.6-8.6-8.6s-8.6,3.851-8.6,8.6v9.296l-6.574-6.574   c-3.357-3.356-8.802-3.357-12.163,0c-3.358,3.358-3.358,8.803,0,12.163l6.575,6.575h-9.297c-4.749,0-8.6,3.851-8.6,8.6   s3.851,8.6,8.6,8.6h9.295l-6.573,6.573c-3.358,3.359-3.358,8.804,0,12.163c1.68,1.679,3.88,2.519,6.081,2.519   s4.402-0.84,6.081-2.519l6.574-6.574v9.296c0,4.749,3.851,8.6,8.6,8.6s8.6-3.851,8.6-8.6v-9.295l6.573,6.573   c1.68,1.679,3.88,2.519,6.081,2.519c2.201,0,4.402-0.84,6.081-2.519c3.358-3.358,3.358-8.803,0-12.163l-6.573-6.573h9.296   c4.749,0,8.6-3.851,8.6-8.6S449.863,349.013,445.114,349.013z"/>
</g>
<g>
</g>
<g>
</g>
<g>
</g>
<g>
</g>
<g>
</g>
<g>
</g>
<g>
</g>
<g>
</g>
<g>
</g>
<g>
</g>
<g>
</g>
<g>
</g>
<g>
</g>
<g>
</g>
<g>
</g>
</svg>
