<?xml version="1.0" encoding="iso-8859-1"?>
<!-- Generator: Adobe Illustrator 19.0.0, SVG Export Plug-In . SVG Version: 6.00 Build 0)  -->
<svg xmlns="http://www.w3.org/2000/svg" xmlns:xlink="http://www.w3.org/1999/xlink" version="1.1" id="Layer_1" x="0px" y="0px" viewBox="0 0 512 512" style="enable-background:new 0 0 512 512;" xml:space="preserve">
<path style="fill:#9FDEF7;" d="M375.391,54.633c15.153,18.643,24.236,42.417,24.236,68.313c0,1.234-0.055,2.456-0.095,3.677  c7.617-2.385,15.718-3.677,24.124-3.677c44.507,0,80.584,36.076,80.584,80.584c0,44.501-36.076,80.581-80.584,80.581h-6.186h-31.635  H90.965c-45.026,0-81.523-36.502-81.523-81.526s36.498-81.524,81.523-81.524c7.082,0,13.95,0.909,20.501,2.604  c11.739-16.944,31.307-28.047,53.485-28.047c7.201,0,14.125,1.187,20.598,3.349c10.919-48.314,54.076-84.405,105.69-84.405  c23.774,0,45.761,7.655,63.631,20.635"/>
<path style="fill:#83D4ED;" d="M188.38,132.292c0-11.679,1.091-23.101,3.156-34.181c-5.982-1.818-12.322-2.818-18.899-2.818  c-22.177,0-41.746,11.103-53.485,28.047c-6.552-1.694-13.419-2.604-20.501-2.604c-45.026,0-81.523,36.5-81.523,81.524  s36.498,81.526,81.523,81.526h168.24C219.395,250.216,188.38,194.879,188.38,132.292z"/>
<g>
	<path style="fill:#231F20;" d="M384.994,293.462H90.123C40.429,293.462,0,253.031,0,203.336c0-49.694,40.429-90.124,90.123-90.124   c5.704,0,11.392,0.539,16.977,1.603c13.933-17.036,34.836-27.046,57.011-27.046c4.89,0,9.744,0.484,14.512,1.443   c6.817-22.046,20.185-41.865,38.261-56.498C237.595,15.946,263.704,6.712,290.4,6.712c24.871,0,48.62,7.704,68.684,22.277   c3.843,2.792,4.696,8.17,1.905,12.012c-2.792,3.842-8.168,4.696-12.012,1.904c-17.105-12.426-37.362-18.993-58.576-18.993   c-46.951,0-86.964,31.952-97.302,77.7c-0.536,2.37-2.05,4.404-4.167,5.596s-4.642,1.433-6.946,0.664   c-5.773-1.929-11.785-2.906-17.873-2.906c-18.503,0-35.855,9.101-46.416,24.345c-2.053,2.964-5.736,4.326-9.222,3.428   c-5.978-1.546-12.151-2.33-18.349-2.33C49.914,130.412,17.2,163.124,17.2,203.336s32.714,72.926,72.923,72.926h294.871   c4.749,0,8.6,3.851,8.6,8.6S389.744,293.462,384.994,293.462z"/>
	<path style="fill:#231F20;" d="M422.816,293.462h-6.186c-4.749,0-8.6-3.851-8.6-8.6s3.851-8.6,8.6-8.6h6.186   c39.692,0,71.984-32.291,71.984-71.981c0-39.692-32.291-71.984-71.984-71.984c-7.346,0-14.598,1.104-21.555,3.284   c-2.658,0.832-5.556,0.326-7.774-1.361c-2.218-1.687-3.481-4.343-3.391-7.128l0.026-0.755c0.03-0.875,0.063-1.754,0.063-2.64   c0-22.856-7.923-45.189-22.31-62.889c-2.996-3.686-2.437-9.102,1.249-12.098c3.685-2.994,9.102-2.437,12.098,1.249   c15.35,18.885,24.426,42.268,25.938,66.512c5.149-0.914,10.383-1.374,15.655-1.374c49.176,0,89.184,40.007,89.184,89.184   C512,253.456,471.993,293.462,422.816,293.462z"/>
	<path style="fill:#231F20;" d="M450.848,367.377c-1.798,0-3.611-0.56-5.159-1.724c-3.798-2.853-4.563-8.244-1.711-12.041   l15.068-20.06c2.853-3.799,8.245-4.566,12.041-1.711c3.798,2.853,4.563,8.244,1.711,12.041l-15.069,20.06   C456.041,366.192,453.461,367.377,450.848,367.377z"/>
	<path style="fill:#231F20;" d="M416.311,413.346c-1.798,0-3.611-0.561-5.16-1.724c-3.797-2.853-4.562-8.244-1.71-12.042   l15.069-20.057c2.854-3.797,8.244-4.563,12.042-1.71c3.797,2.853,4.562,8.244,1.71,12.042l-15.068,20.057   C421.504,412.161,418.924,413.346,416.311,413.346z"/>
	<path style="fill:#231F20;" d="M381.775,459.318c-1.798,0-3.611-0.56-5.159-1.723c-3.798-2.853-4.563-8.244-1.711-12.041   l15.069-20.06c2.853-3.799,8.245-4.564,12.041-1.711c3.798,2.853,4.563,8.244,1.711,12.041l-15.069,20.06   C386.967,458.132,384.387,459.318,381.775,459.318z"/>
	<path style="fill:#231F20;" d="M347.236,505.288c-1.798,0-3.611-0.561-5.16-1.724c-3.797-2.852-4.562-8.243-1.709-12.041   l15.072-20.06c2.851-3.798,8.243-4.563,12.041-1.709c3.797,2.852,4.562,8.243,1.709,12.041l-15.072,20.06   C352.428,504.104,349.848,505.288,347.236,505.288z"/>
	<path style="fill:#231F20;" d="M112.376,367.377c-1.797,0-3.61-0.56-5.158-1.724c-3.798-2.853-4.563-8.244-1.711-12.041   l15.069-20.06c2.854-3.797,8.244-4.563,12.041-1.711c3.798,2.853,4.563,8.244,1.711,12.041l-15.069,20.06   C117.569,366.192,114.988,367.377,112.376,367.377z"/>
	<path style="fill:#231F20;" d="M77.839,413.346c-1.797,0-3.611-0.561-5.159-1.724c-3.798-2.853-4.563-8.244-1.71-12.042   l15.069-20.057c2.852-3.795,8.244-4.562,12.041-1.71c3.798,2.853,4.563,8.244,1.71,12.042l-15.069,20.057   C83.032,412.161,80.451,413.346,77.839,413.346z"/>
	<path style="fill:#231F20;" d="M43.302,459.318c-1.797,0-3.61-0.56-5.158-1.723c-3.798-2.853-4.563-8.244-1.711-12.041   l15.069-20.06c2.853-3.797,8.245-4.564,12.041-1.711c3.798,2.853,4.563,8.244,1.711,12.041l-15.069,20.06   C48.496,458.132,45.915,459.318,43.302,459.318z"/>
	<path style="fill:#231F20;" d="M8.763,505.288c-1.797,0-3.611-0.561-5.159-1.724c-3.798-2.852-4.563-8.243-1.71-12.041   l15.071-20.06c2.853-3.795,8.244-4.562,12.041-1.709c3.798,2.852,4.563,8.243,1.71,12.041l-15.071,20.06   C13.957,504.104,11.377,505.288,8.763,505.288z"/>
	<path style="fill:#231F20;" d="M180.07,367.377c-1.797,0-3.61-0.56-5.158-1.724c-3.798-2.853-4.563-8.244-1.711-12.041   l15.069-20.06c2.854-3.797,8.244-4.563,12.041-1.711c3.798,2.853,4.563,8.244,1.711,12.041l-15.069,20.06   C185.262,366.192,182.682,367.377,180.07,367.377z"/>
	<path style="fill:#231F20;" d="M145.533,413.346c-1.797,0-3.611-0.561-5.159-1.724c-3.798-2.853-4.563-8.244-1.71-12.042   l15.069-20.057c2.853-3.795,8.244-4.562,12.041-1.71c3.798,2.853,4.563,8.244,1.71,12.042l-15.069,20.057   C150.726,412.161,148.146,413.346,145.533,413.346z"/>
	<path style="fill:#231F20;" d="M110.997,459.318c-1.797,0-3.61-0.56-5.158-1.723c-3.798-2.853-4.563-8.244-1.711-12.041   l15.069-20.06c2.853-3.797,8.245-4.564,12.041-1.711c3.798,2.853,4.563,8.244,1.711,12.041l-15.069,20.06   C116.189,458.132,113.609,459.318,110.997,459.318z"/>
	<path style="fill:#231F20;" d="M76.458,505.288c-1.797,0-3.611-0.561-5.159-1.724c-3.798-2.852-4.563-8.243-1.71-12.041   l15.072-20.06c2.853-3.795,8.244-4.562,12.041-1.709c3.798,2.852,4.563,8.243,1.71,12.041l-15.072,20.06   C81.651,504.104,79.07,505.288,76.458,505.288z"/>
	<path style="fill:#231F20;" d="M247.764,367.377c-1.797,0-3.61-0.56-5.158-1.724c-3.798-2.853-4.563-8.244-1.711-12.041   l15.069-20.06c2.853-3.799,8.245-4.566,12.041-1.711c3.798,2.853,4.563,8.244,1.711,12.041l-15.069,20.06   C252.958,366.192,250.378,367.377,247.764,367.377z"/>
	<path style="fill:#231F20;" d="M213.228,413.346c-1.797,0-3.611-0.561-5.159-1.724c-3.798-2.853-4.563-8.244-1.71-12.042   l15.069-20.057c2.853-3.795,8.244-4.562,12.041-1.71c3.798,2.853,4.563,8.244,1.71,12.042l-15.069,20.057   C218.421,412.161,215.841,413.346,213.228,413.346z"/>
	<path style="fill:#231F20;" d="M178.692,459.318c-1.797,0-3.61-0.56-5.158-1.723c-3.798-2.853-4.563-8.244-1.711-12.041   l15.069-20.06c2.854-3.797,8.244-4.564,12.041-1.711c3.798,2.853,4.563,8.244,1.711,12.041l-15.069,20.06   C183.884,458.132,181.304,459.318,178.692,459.318z"/>
	<path style="fill:#231F20;" d="M144.153,505.288c-1.797,0-3.611-0.561-5.159-1.724c-3.798-2.852-4.563-8.243-1.71-12.041   l15.072-20.06c2.853-3.795,8.245-4.562,12.041-1.709c3.798,2.852,4.563,8.243,1.71,12.041l-15.072,20.06   C149.345,504.104,146.765,505.288,144.153,505.288z"/>
	<path style="fill:#231F20;" d="M315.46,367.377c-1.798,0-3.611-0.56-5.159-1.724c-3.798-2.853-4.563-8.244-1.711-12.041   l15.068-20.06c2.853-3.799,8.246-4.566,12.041-1.711c3.798,2.853,4.563,8.244,1.711,12.041l-15.069,20.06   C320.652,366.192,318.071,367.377,315.46,367.377z"/>
	<path style="fill:#231F20;" d="M280.923,413.346c-1.798,0-3.611-0.561-5.16-1.724c-3.797-2.853-4.562-8.244-1.71-12.042   l15.069-20.057c2.853-3.797,8.245-4.563,12.042-1.71c3.797,2.853,4.562,8.244,1.71,12.042l-15.069,20.057   C286.115,412.161,283.534,413.346,280.923,413.346z"/>
	<path style="fill:#231F20;" d="M246.385,459.318c-1.797,0-3.61-0.56-5.158-1.723c-3.798-2.853-4.563-8.244-1.711-12.041   l15.069-20.06c2.853-3.799,8.246-4.564,12.041-1.711c3.798,2.853,4.563,8.244,1.711,12.041l-15.069,20.06   C251.578,458.132,248.997,459.318,246.385,459.318z"/>
	<path style="fill:#231F20;" d="M211.846,505.288c-1.797,0-3.611-0.561-5.159-1.724c-3.798-2.852-4.563-8.243-1.71-12.041   l15.072-20.06c2.853-3.795,8.245-4.562,12.041-1.709c3.798,2.852,4.563,8.243,1.71,12.041l-15.072,20.06   C217.04,504.104,214.46,505.288,211.846,505.288z"/>
	<path style="fill:#231F20;" d="M383.154,367.377c-1.798,0-3.611-0.56-5.159-1.724c-3.798-2.853-4.563-8.244-1.711-12.041   l15.069-20.06c2.853-3.799,8.246-4.566,12.041-1.711c3.798,2.853,4.563,8.244,1.711,12.041l-15.069,20.06   C388.346,366.192,385.766,367.377,383.154,367.377z"/>
	<path style="fill:#231F20;" d="M348.617,413.346c-1.798,0-3.611-0.561-5.16-1.724c-3.797-2.853-4.562-8.244-1.71-12.042   l15.069-20.057c2.853-3.797,8.244-4.563,12.042-1.71c3.797,2.853,4.562,8.244,1.71,12.042l-15.068,20.057   C353.811,412.161,351.229,413.346,348.617,413.346z"/>
	<path style="fill:#231F20;" d="M314.078,459.318c-1.798,0-3.611-0.561-5.16-1.724c-3.797-2.852-4.562-8.243-1.709-12.041   l15.072-20.06c2.852-3.797,8.243-4.562,12.041-1.709c3.797,2.852,4.562,8.243,1.709,12.041l-15.072,20.06   C319.272,458.132,316.691,459.318,314.078,459.318z"/>
	<path style="fill:#231F20;" d="M279.542,505.288c-1.798,0-3.611-0.56-5.16-1.724c-3.797-2.852-4.562-8.244-1.709-12.041   l15.072-20.06c2.852-3.798,8.243-4.566,12.041-1.709c3.797,2.852,4.562,8.244,1.709,12.041l-15.073,20.06   C284.734,504.104,282.153,505.288,279.542,505.288z"/>
</g>
<g>
</g>
<g>
</g>
<g>
</g>
<g>
</g>
<g>
</g>
<g>
</g>
<g>
</g>
<g>
</g>
<g>
</g>
<g>
</g>
<g>
</g>
<g>
</g>
<g>
</g>
<g>
</g>
<g>
</g>
</svg>
