<?xml version="1.0" encoding="iso-8859-1"?>
<!-- Generator: Adobe Illustrator 19.0.0, SVG Export Plug-In . SVG Version: 6.00 Build 0)  -->
<svg xmlns="http://www.w3.org/2000/svg" xmlns:xlink="http://www.w3.org/1999/xlink" version="1.1" id="Layer_1" x="0px" y="0px" viewBox="0 0 512 512" style="enable-background:new 0 0 512 512;" xml:space="preserve">
<path style="fill:#E4F2F9;" d="M277.069,407.723h25.023c28.186,0,51.034-22.848,51.034-51.032c0-28.186-22.848-51.034-51.034-51.034  c-5.323,0-10.454,0.817-15.279,2.328c0.025-0.773,0.06-1.548,0.06-2.328c0-37.908-30.732-68.64-68.64-68.64  c-32.688,0-60.019,22.856-66.935,53.453c-4.1-1.368-8.484-2.121-13.045-2.121c-14.044,0-26.438,7.031-33.871,17.764  c-4.149-1.073-8.499-1.648-12.983-1.648c-28.515,0-51.629,23.114-51.629,51.629c0,28.515,23.114,51.631,51.629,51.631h156.786"/>
<path style="fill:#D7EDF9;" d="M158.711,298.755c0-2.597,0.074-5.177,0.212-7.74c-0.061,0.254-0.132,0.504-0.19,0.76  c-4.1-1.368-8.484-2.121-13.045-2.121c-14.044,0-26.438,7.031-33.871,17.764c-4.149-1.073-8.499-1.648-12.983-1.648  c-28.515,0-51.629,23.114-51.629,51.629c0,28.515,23.114,51.631,51.629,51.631h112.488  C179.229,383.015,158.711,343.284,158.711,298.755z"/>
<path style="fill:#9FDEF7;" d="M420.853,312.499h21.118c28.517,0,51.631-23.116,51.631-51.631s-23.114-51.629-51.631-51.629  c-4.483,0-8.835,0.573-12.983,1.647c-7.431-10.729-19.827-17.762-33.869-17.762c-4.562,0-8.945,0.751-13.047,2.121  c-6.913-30.596-34.246-53.453-66.932-53.453c-37.91,0-68.64,30.73-68.64,68.64c0,0.781,0.031,1.556,0.06,2.328  c-4.824-1.512-9.957-2.328-15.281-2.328c-23.225,0-42.812,15.519-48.991,36.75c10.453-6.443,22.763-10.167,35.946-10.167  c37.908,0,68.64,30.732,68.64,68.64c0,0.781-0.034,1.556-0.06,2.328c4.824-1.512,9.955-2.328,15.279-2.328  c9.296,0,18.004,2.498,25.51,6.842h65.802"/>
<path style="fill:#83D4ED;" d="M299.917,187.53c0-17.481,3.169-34.219,8.951-49.682c-32.573,5.355-57.425,33.623-57.425,67.713  c0,0.781,0.031,1.556,0.06,2.328c-4.824-1.512-9.957-2.328-15.281-2.328c-23.225,0-42.812,15.519-48.991,36.75  c10.453-6.443,22.763-10.167,35.946-10.167c37.908,0,68.64,30.732,68.64,68.64c0,0.781-0.034,1.556-0.06,2.328  c4.824-1.512,9.954-2.328,15.279-2.328c9.296,0,18.004,2.498,25.51,6.842h33.685C326.388,282.503,299.917,238.112,299.917,187.53z"/>
<path style="fill:#EDE21B;" d="M186.785,227.145c2.333,0,4.656-0.087,6.97-0.237c9.322-10.124,22.676-16.474,37.524-16.474  c3.657,0,7.221,0.393,10.661,1.124c0.844-0.519,1.687-1.039,2.519-1.586c0.704-0.462,1.396-0.944,2.089-1.423  c0.433-16.07,6.379-30.76,16.03-42.245c-12.886,7.006-27.254,10.671-42.226,10.671c-5.433,0-10.754-0.491-15.919-1.428  l-11.894-3.033c-35.365-11.697-60.952-45.069-60.952-84.304c0-19.639,6.29-38.255,18.185-53.828c1.556-2.039,1.525-4.875-0.073-6.88  c-1.601-2.003-4.358-2.663-6.691-1.594c-18.115,8.285-33.476,21.493-44.419,38.196c-11.236,17.146-17.174,37.087-17.174,57.672  C81.414,179.877,128.684,227.145,186.785,227.145z"/>
<path style="fill:#EAC71C;" d="M213.123,210.97c-1.436,0.061-2.873,0.104-4.318,0.104c-58.1,0-105.371-47.268-105.371-105.37  c0-20.585,5.938-40.526,17.173-57.672c4.676-7.139,10.167-13.631,16.327-19.382c-12.878,8.06-23.909,18.824-32.321,31.664  C93.379,77.46,87.441,97.402,87.441,117.987c0,58.101,47.27,105.37,105.371,105.37c2.333,0,4.656-0.087,6.97-0.237  c3.825-4.153,8.335-7.658,13.342-10.364L213.123,210.97L213.123,210.97z"/>
<circle style="fill:#F29F26;" cx="244.279" cy="79.591" r="18.301"/>
<g>
	<path style="fill:#231F20;" d="M256.854,407.723c0-4.788-3.882-8.67-8.67-8.67H91.398c-23.686,0-42.959-19.272-42.959-42.961   c0-23.686,19.271-42.959,42.959-42.959c3.653,0,7.293,0.462,10.813,1.373c3.52,0.908,7.23-0.47,9.299-3.456   c6.085-8.785,16.084-14.03,26.745-14.03c3.502,0,6.969,0.565,10.302,1.675c2.326,0.777,4.867,0.532,7.001-0.672   c2.134-1.202,3.659-3.252,4.198-5.641c3.61-15.97,13.244-29.132,26.21-37.369c0.295-0.139,0.59-0.275,0.871-0.45   c7.545-4.651,16.013-7.541,24.798-8.509c0.216-0.024,0.431-0.049,0.648-0.069c0.45-0.044,0.901-0.082,1.351-0.117   c0.419-0.031,0.84-0.057,1.261-0.08c0.327-0.018,0.655-0.038,0.983-0.051c0.781-0.03,1.565-0.05,2.353-0.05   c33.068,0,59.97,26.902,59.97,59.97c0,0.525-0.021,1.047-0.038,1.566l-0.017,0.477c-0.092,2.808,1.182,5.487,3.418,7.186   c2.236,1.7,5.159,2.215,7.839,1.372c4.091-1.282,8.36-1.931,12.686-1.931c0.854,0,1.706,0.033,2.555,0.085   c0.219,0.013,0.436,0.034,0.654,0.05c0.669,0.051,1.335,0.116,2,0.198c0.193,0.024,0.387,0.048,0.579,0.074   c1.734,0.24,3.451,0.58,5.137,1.031c0.049,0.013,0.098,0.028,0.146,0.041c0.776,0.21,1.545,0.446,2.308,0.7   c0.151,0.05,0.3,0.101,0.45,0.153c0.726,0.25,1.445,0.521,2.157,0.812c0.092,0.038,0.188,0.072,0.28,0.111   c0.777,0.323,1.542,0.672,2.3,1.043c0.192,0.093,0.378,0.194,0.567,0.292c0.546,0.277,1.087,0.567,1.622,0.868   c12.884,7.274,21.608,21.088,21.608,36.909c0,23.358-19.005,42.362-42.364,42.362h-25.023c-4.788,0-8.67,3.882-8.67,8.67   s3.882,8.67,8.67,8.67h25.023c32.921,0,59.704-26.782,59.704-59.702c0-13.297-4.373-25.588-11.751-35.522h43.36   c4.788,0,8.67-3.882,8.67-8.67c0-4.788-3.882-8.67-8.67-8.67h-63.572c-0.243-0.128-0.495-0.236-0.739-0.36   c-0.656-0.335-1.318-0.658-1.988-0.969c-0.326-0.151-0.651-0.299-0.98-0.443c-0.807-0.357-1.625-0.694-2.449-1.014   c-0.193-0.075-0.385-0.156-0.579-0.229c-2.159-0.814-4.376-1.505-6.644-2.068c-0.082-0.021-0.166-0.037-0.248-0.057   c-1.006-0.245-2.021-0.463-3.046-0.656c-0.228-0.043-0.456-0.082-0.684-0.122c-0.88-0.155-1.767-0.29-2.66-0.406   c-0.288-0.038-0.575-0.077-0.865-0.111c-0.858-0.099-1.723-0.176-2.592-0.237c-0.287-0.021-0.573-0.049-0.861-0.066   c-1.128-0.064-2.262-0.104-3.406-0.104c-2.343,0-4.675,0.135-6.987,0.406c-4.138-38.758-37.035-69.047-76.873-69.047   c-1.182,0-2.361,0.033-3.54,0.087c-0.483,0.022-0.963,0.063-1.445,0.093c-0.675,0.044-1.349,0.087-2.022,0.148   c-0.624,0.056-1.246,0.13-1.868,0.202c-0.506,0.059-1.012,0.117-1.516,0.186c-0.721,0.098-1.438,0.208-2.154,0.325   c-0.374,0.062-0.748,0.127-1.122,0.194c-0.458,0.082-0.92,0.147-1.377,0.237c4.649-4.116,10.183-7.206,16.201-8.986   c0.181-0.053,0.362-0.109,0.543-0.159c0.408-0.115,0.817-0.219,1.229-0.322c0.28-0.069,0.559-0.137,0.84-0.2   c0.355-0.081,0.712-0.157,1.071-0.229c0.345-0.068,0.69-0.132,1.037-0.192c0.316-0.055,0.634-0.109,0.954-0.158   c0.397-0.06,0.795-0.109,1.195-0.157c0.282-0.034,0.564-0.072,0.846-0.1c0.461-0.046,0.922-0.079,1.385-0.109   c0.231-0.015,0.461-0.038,0.691-0.049c0.697-0.035,1.396-0.055,2.096-0.055c0.943,0,1.88,0.044,2.817,0.106   c0.307,0.021,0.612,0.046,0.919,0.073c0.685,0.06,1.367,0.14,2.047,0.233c0.283,0.039,0.568,0.067,0.851,0.113   c2.05,0.322,4.075,0.788,6.056,1.408c2.688,0.843,5.613,0.326,7.849-1.377c2.237-1.706,3.507-4.392,3.408-7.204l-0.01-0.272   c-0.022-0.58-0.044-1.161-0.044-1.747c0-0.54,0.026-1.072,0.041-1.607c0-0.014,0.003-0.028,0.003-0.042   c0.082-3.054,0.4-6.058,0.922-9.005c0.072-0.399,0.134-0.801,0.215-1.196c0.056-0.284,0.125-0.564,0.184-0.846   c0.153-0.706,0.31-1.409,0.487-2.105c0.034-0.134,0.07-0.268,0.105-0.402c6.749-25.728,30.197-44.765,58.012-44.765   c28.218,0,52.264,19.202,58.475,46.693c0.541,2.39,2.066,4.44,4.201,5.643c2.136,1.203,4.68,1.449,7.002,0.67   c3.328-1.111,6.795-1.674,10.302-1.674c10.661,0,20.658,5.244,26.743,14.027c2.068,2.988,5.78,4.369,9.299,3.457   c3.515-0.909,7.154-1.371,10.813-1.371c23.689,0,42.961,19.271,42.961,42.959s-19.271,42.961-42.961,42.961H420.85   c-4.788,0-8.67,3.882-8.67,8.67c0,4.788,3.882,8.67,8.67,8.67h21.118c33.251,0,60.301-27.05,60.301-60.301   c0-33.249-27.05-60.299-60.301-60.299c-3.184,0-6.357,0.249-9.488,0.746c-9.408-10.648-22.992-16.86-37.366-16.86   c-2.35,0-4.687,0.165-7,0.493c-4.724-13.486-13.191-25.573-24.394-34.641c-13.689-11.082-30.943-17.184-48.586-17.184   c-23.053,0-43.769,10.157-57.946,26.215c-11.397,5.944-23.782,8.966-36.843,8.966c-4.723,0-9.459-0.416-14.08-1.238l-11.286-2.88   c-32.748-10.961-54.725-41.457-54.725-75.978c0-17.721,5.672-34.515,16.406-48.566c3.977-5.207,3.902-12.422-0.191-17.553   c-2.721-3.406-6.782-5.359-11.141-5.359c-2.06,0-4.058,0.436-5.928,1.293c-19.605,8.966-36.225,23.257-48.065,41.329   c-12.163,18.559-18.591,40.145-18.591,62.424c0,59.776,46.233,108.954,104.817,113.665c-0.963,1.98-1.815,4.027-2.56,6.131   c-1.838,1.24-3.626,2.559-5.356,3.96c-11.203,9.068-19.669,21.154-24.395,34.641c-2.313-0.328-4.65-0.493-6.998-0.493   c-14.374,0-27.957,6.212-37.367,16.862c-3.133-0.496-6.307-0.747-9.489-0.747c-33.249,0-60.299,27.049-60.299,60.299   c0,33.251,27.049,60.301,60.299,60.301h156.786C252.972,416.393,256.854,412.511,256.854,407.723z M90.084,121.775   c0-18.893,5.447-37.191,15.754-52.921c7.816-11.93,18.087-21.918,30.095-29.346c-8.55,14.738-13.019,31.355-13.019,48.7   c0,42.113,26.886,79.3,66.9,92.536c0.191,0.063,0.384,0.119,0.58,0.169l11.894,3.033c0.196,0.05,0.393,0.093,0.594,0.129   c5.732,1.04,11.609,1.568,17.468,1.568c7.704,0,15.221-0.865,22.504-2.581c-2.298,6.048-3.877,12.448-4.588,19.107   c-2.313-0.271-4.645-0.406-6.989-0.406c-0.901,0-1.798,0.025-2.691,0.066c-0.294,0.013-0.587,0.038-0.88,0.055   c-0.597,0.036-1.193,0.077-1.786,0.131c-0.359,0.033-0.716,0.073-1.074,0.113c-0.519,0.056-1.036,0.119-1.552,0.19   c-0.398,0.054-0.794,0.113-1.191,0.174c-0.454,0.072-0.907,0.151-1.358,0.233c-0.444,0.08-0.889,0.16-1.331,0.25   c-0.34,0.069-0.677,0.148-1.015,0.224c-10.635,2.366-20.524,7.605-28.46,15.221c-1.074,0.037-2.12,0.055-3.153,0.055   C133.465,218.475,90.084,175.096,90.084,121.775z"/>
	<path style="fill:#231F20;" d="M484.479,337.141c-3.827-2.876-9.263-2.105-12.139,1.725l-15.192,20.223   c-2.875,3.828-2.104,9.263,1.725,12.139c1.56,1.173,3.388,1.738,5.201,1.738c2.634,0,5.234-1.195,6.938-3.463l15.192-20.223   C489.08,345.453,488.308,340.018,484.479,337.141z"/>
	<path style="fill:#231F20;" d="M449.663,383.487c-3.829-2.877-9.264-2.104-12.14,1.724l-15.192,20.221   c-2.875,3.829-2.104,9.264,1.724,12.14c1.561,1.173,3.389,1.738,5.202,1.738c2.634,0,5.234-1.195,6.938-3.462l15.192-20.221   C454.262,391.798,453.491,386.363,449.663,383.487z"/>
	<path style="fill:#231F20;" d="M414.844,429.829c-3.827-2.877-9.263-2.105-12.139,1.725l-15.192,20.223   c-2.875,3.828-2.104,9.263,1.725,12.139c1.56,1.173,3.388,1.738,5.201,1.738c2.634,0,5.234-1.195,6.938-3.463l15.192-20.223   C419.444,438.14,418.674,432.706,414.844,429.829z"/>
	<path style="fill:#231F20;" d="M380.027,476.176c-3.829-2.876-9.264-2.105-12.139,1.723l-15.194,20.223   c-2.876,3.829-2.105,9.264,1.723,12.139c1.561,1.173,3.389,1.738,5.202,1.738c2.634,0,5.234-1.195,6.937-3.461l15.194-20.223   C384.628,484.486,383.856,479.051,380.027,476.176z"/>
	<path style="fill:#231F20;" d="M416.235,337.141c-3.826-2.876-9.263-2.105-12.139,1.725l-15.192,20.223   c-2.875,3.828-2.104,9.263,1.725,12.139c1.56,1.173,3.388,1.738,5.201,1.738c2.633,0,5.234-1.195,6.938-3.463l15.192-20.223   C420.836,345.453,420.064,340.018,416.235,337.141z"/>
	<path style="fill:#231F20;" d="M381.419,383.487c-3.83-2.877-9.264-2.104-12.14,1.724l-15.192,20.221   c-2.875,3.829-2.104,9.264,1.724,12.14c1.561,1.173,3.389,1.738,5.202,1.738c2.633,0,5.234-1.195,6.938-3.462l15.192-20.221   C386.018,391.798,385.247,386.363,381.419,383.487z"/>
	<path style="fill:#231F20;" d="M346.601,429.83c-3.83-2.876-9.265-2.105-12.139,1.723l-15.194,20.223   c-2.876,3.829-2.105,9.264,1.723,12.139c1.561,1.173,3.389,1.738,5.202,1.738c2.634,0,5.234-1.195,6.937-3.461l15.194-20.223   C351.201,438.14,350.429,432.706,346.601,429.83z"/>
	<path style="fill:#231F20;" d="M311.784,476.176c-3.83-2.876-9.265-2.105-12.139,1.723l-15.194,20.223   c-2.876,3.829-2.105,9.264,1.723,12.139c1.561,1.173,3.389,1.738,5.202,1.738c2.634,0,5.234-1.195,6.937-3.461l15.194-20.223   C316.383,484.486,315.611,479.051,311.784,476.176z"/>
	<path style="fill:#231F20;" d="M278.356,429.83c-3.829-2.876-9.265-2.105-12.139,1.723l-15.194,20.223   c-2.876,3.829-2.105,9.264,1.723,12.139c1.561,1.173,3.389,1.738,5.202,1.738c2.634,0,5.235-1.195,6.937-3.461l15.194-20.223   C282.956,438.14,282.184,432.706,278.356,429.83z"/>
	<path style="fill:#231F20;" d="M243.536,476.175c-3.826-2.876-9.263-2.105-12.139,1.725l-15.192,20.223   c-2.875,3.828-2.104,9.263,1.725,12.139c1.56,1.173,3.388,1.738,5.201,1.738c2.633,0,5.235-1.195,6.938-3.463l15.192-20.223   C248.136,484.486,247.364,479.051,243.536,476.175z"/>
	<path style="fill:#231F20;" d="M210.112,429.83c-3.829-2.876-9.264-2.105-12.139,1.723l-15.194,20.223   c-2.876,3.829-2.105,9.264,1.723,12.139c1.561,1.173,3.389,1.738,5.202,1.738c2.633,0,5.235-1.195,6.937-3.461l15.194-20.223   C214.711,438.14,213.939,432.706,210.112,429.83z"/>
	<path style="fill:#231F20;" d="M175.291,476.175c-3.827-2.876-9.263-2.105-12.139,1.725l-15.192,20.223   c-2.875,3.828-2.104,9.263,1.725,12.139c1.56,1.173,3.388,1.738,5.201,1.738c2.633,0,5.235-1.195,6.938-3.463l15.192-20.223   C179.891,484.486,179.121,479.051,175.291,476.175z"/>
	<path style="fill:#231F20;" d="M141.868,429.83c-3.83-2.876-9.265-2.105-12.139,1.723l-15.194,20.223   c-2.876,3.829-2.105,9.264,1.723,12.139c1.561,1.173,3.389,1.738,5.202,1.738c2.634,0,5.235-1.195,6.937-3.461l15.194-20.223   C146.467,438.14,145.696,432.706,141.868,429.83z"/>
	<path style="fill:#231F20;" d="M107.047,476.175c-3.827-2.876-9.263-2.105-12.139,1.725l-15.192,20.223   c-2.875,3.828-2.104,9.263,1.725,12.139c1.56,1.173,3.388,1.738,5.201,1.738c2.634,0,5.235-1.195,6.938-3.463l15.192-20.223   C111.648,484.486,110.876,479.051,107.047,476.175z"/>
	<path style="fill:#231F20;" d="M73.62,429.829c-3.826-2.877-9.263-2.105-12.139,1.725l-15.192,20.223   c-2.875,3.828-2.104,9.263,1.725,12.139c1.56,1.173,3.388,1.738,5.201,1.738c2.634,0,5.235-1.195,6.938-3.463l15.192-20.223   C78.22,438.14,77.449,432.706,73.62,429.829z"/>
	<path style="fill:#231F20;" d="M38.803,476.176c-3.83-2.876-9.265-2.105-12.139,1.723L11.47,498.122   c-2.876,3.829-2.105,9.264,1.723,12.139c1.561,1.173,3.389,1.738,5.202,1.738c2.634,0,5.235-1.195,6.937-3.461l15.194-20.223   C43.403,484.486,42.631,479.051,38.803,476.176z"/>
	<path style="fill:#231F20;" d="M244.276,106.559c14.872,0,26.971-12.1,26.971-26.973c0-14.872-12.099-26.971-26.971-26.971   s-26.971,12.1-26.971,26.972S229.404,106.559,244.276,106.559z M244.276,69.955c5.31,0,9.631,4.32,9.631,9.631   s-4.32,9.633-9.631,9.633s-9.631-4.321-9.631-9.633C234.645,74.275,238.964,69.955,244.276,69.955z"/>
	<circle style="fill:#231F20;" cx="208.179" cy="10.87" r="10.87"/>
</g>
<g>
</g>
<g>
</g>
<g>
</g>
<g>
</g>
<g>
</g>
<g>
</g>
<g>
</g>
<g>
</g>
<g>
</g>
<g>
</g>
<g>
</g>
<g>
</g>
<g>
</g>
<g>
</g>
<g>
</g>
</svg>
