<?xml version="1.0" encoding="iso-8859-1"?>
<!-- Generator: Adobe Illustrator 19.0.0, SVG Export Plug-In . SVG Version: 6.00 Build 0)  -->
<svg xmlns="http://www.w3.org/2000/svg" xmlns:xlink="http://www.w3.org/1999/xlink" version="1.1" id="Layer_1" x="0px" y="0px" viewBox="0 0 511.999 511.999" style="enable-background:new 0 0 511.999 511.999;" xml:space="preserve">
<path style="fill:#9FDEF7;" d="M344.502,241.879H360.5c32.597,0,59.023-26.425,59.023-59.022c0-0.351-0.021-0.696-0.027-1.046  H311.054c-20.955,0-37.943-16.99-37.943-37.943c0-20.953,16.987-37.941,37.943-37.941c3.296,0,6.491,0.423,9.542,1.21  c4.005-5.78,9.972-10.092,16.939-11.985c-11.502-29.665-40.296-50.707-74.022-50.707c-37.806,0-69.418,26.433-77.414,61.822  c-4.743-1.583-9.813-2.452-15.09-2.452c-16.242,0-30.576,8.133-39.172,20.543c-4.798-1.24-9.832-1.906-15.017-1.906  c-32.981,0-59.714,26.734-59.714,59.712c0,8.914,1.985,17.355,5.489,24.951c6.165-23.052,27.186-40.03,52.182-40.03  c25.729,0,47.239,17.989,52.681,42.069c3.229-1.076,6.679-1.668,10.271-1.668c11.051,0,20.807,5.535,26.657,13.98  c3.265-0.843,6.689-1.296,10.218-1.296c15.606,0,29.151,8.803,35.959,21.708h62.749"/>
<path style="fill:#83D4ED;" d="M132.513,124.292c-2.629-0.354-5.311-0.542-8.035-0.542c-32.981,0-59.714,26.734-59.714,59.712  c0,8.914,1.985,17.355,5.489,24.951c5.78-21.61,24.616-37.884,47.542-39.834C120.082,152.743,125.154,137.806,132.513,124.292z"/>
<path style="fill:#D7EDF9;" d="M465.893,106.804c-3.914,0-7.685,0.601-11.231,1.712c0.021-0.567,0.044-1.138,0.044-1.712  c0-27.858-22.584-50.443-50.443-50.443c-24.023,0-44.109,16.796-49.188,39.282c-3.015-1.005-6.235-1.556-9.588-1.556  c-10.32,0-19.429,5.168-24.891,13.053c-3.05-0.787-6.246-1.21-9.542-1.21c-20.955,0-37.943,16.987-37.943,37.941  s16.987,37.943,37.943,37.943h154.84c20.71,0,37.502-16.789,37.502-37.503C503.395,123.594,486.603,106.804,465.893,106.804z"/>
<path style="fill:#E4F2F9;" d="M48.771,221.108c4.191,0,8.229,0.645,12.028,1.834c-0.022-0.609-0.046-1.219-0.046-1.834  c0-29.836,24.187-54.023,54.023-54.023c25.729,0,47.239,17.989,52.681,42.069c3.229-1.076,6.679-1.668,10.271-1.668  c11.051,0,20.807,5.535,26.657,13.98c3.265-0.843,6.689-1.296,10.218-1.296c22.443,0,40.636,18.193,40.636,40.635  c0,22.441-18.193,40.635-40.636,40.635H48.771c-22.183,0.002-40.166-17.98-40.166-40.163  C8.605,239.092,26.588,221.108,48.771,221.108z"/>
<path style="fill:#D7EDF9;" d="M116.416,187.726c0-6.874,0.521-13.626,1.528-20.219c-27.734,2.284-49.534,25.5-49.534,53.822  c0,0.615,0.026,1.225,0.046,1.834c-3.798-1.189-7.836-1.834-12.028-1.834c-22.183,0-40.166,17.983-40.166,40.168  c0,22.183,17.983,40.165,40.166,40.165h124.496C142.277,278.434,116.416,236.104,116.416,187.726z"/>
<path style="fill:#E4F2F9;" d="M472.477,108.101c-3.914,0-7.685,0.601-11.231,1.712c0.022-0.567,0.044-1.138,0.044-1.712  c0-27.858-22.584-50.443-50.443-50.443c-19.988,0-37.241,11.632-45.402,28.489c-1.206,5.989-1.843,12.184-1.843,18.528  c0,32.899,17.027,61.818,42.746,78.435h66.128c20.71,0,37.502-16.789,37.502-37.503  C509.979,124.891,493.187,108.101,472.477,108.101z"/>
<g>
	<path style="fill:#F29F26;" d="M503.253,386.257c-0.247-0.529-0.78-0.866-1.362-0.866l-26.44,3.267l18.135-51.336   c0.002-0.006,0.004-0.013,0.006-0.019c4.712-13.342-3.832-1.652-3.832-1.652l-55.021,74.612c-0.245,0.467-0.227,1.025,0.045,1.477   c0.273,0.45,0.76,0.725,1.286,0.725l23.824-2.177l-21.145,54.217c-0.269,0.687,0,1.468,0.637,1.843   c0.239,0.141,0.502,0.208,0.763,0.208c0.435,0,0.864-0.187,1.157-0.542l27.248-34.492l8.648-10.949l25.843-32.714   C503.42,387.408,503.501,386.784,503.253,386.257z"/>
	<path style="fill:#F29F26;" d="M334.722,384.836c-0.247-0.529-0.779-0.866-1.362-0.866l-26.439,3.267l18.134-51.339   c0.003-0.006,0.004-0.011,0.006-0.018c4.714-13.342-3.832-1.652-3.832-1.652l-55.02,74.612c-0.246,0.466-0.227,1.026,0.046,1.478   c0.271,0.45,0.76,0.725,1.285,0.725l23.824-2.178l-21.144,54.216c-0.27,0.689,0,1.469,0.637,1.845   c0.239,0.14,0.502,0.208,0.763,0.208c0.435,0,0.864-0.187,1.157-0.543l27.248-34.492l8.648-10.948l25.844-32.715   C334.891,385.986,334.97,385.364,334.722,384.836z"/>
	<path style="fill:#F29F26;" d="M172.647,387.255c-0.246-0.528-0.779-0.866-1.361-0.866l-26.441,3.268l18.136-51.339   c0.002-0.006,0.004-0.012,0.006-0.019c4.712-13.341-3.832-1.651-3.832-1.651l-55.023,74.611c-0.244,0.467-0.226,1.027,0.046,1.478   c0.273,0.45,0.76,0.726,1.286,0.726l23.824-2.178L108.144,465.5c-0.27,0.689,0,1.468,0.637,1.844   c0.238,0.14,0.502,0.209,0.763,0.209c0.435,0,0.864-0.187,1.157-0.543l27.248-34.492l8.647-10.949l25.844-32.715   C172.814,388.406,172.894,387.784,172.647,387.255z"/>
</g>
<g>
	<path style="fill:#231F20;" d="M449.918,291.794l-15.08,20.07c-2.855,3.799-2.089,9.194,1.71,12.048   c1.549,1.164,3.363,1.725,5.163,1.725c2.614,0,5.195-1.186,6.885-3.436l15.08-20.07c2.855-3.799,2.089-9.194-1.71-12.048   C458.166,287.229,452.772,287.995,449.918,291.794z"/>
	<path style="fill:#231F20;" d="M427.41,336.081c-3.8-2.855-9.196-2.089-12.048,1.71l-15.08,20.07   c-2.855,3.799-2.089,9.194,1.71,12.048c1.549,1.164,3.363,1.725,5.163,1.725c2.614,0,5.195-1.186,6.885-3.436l15.08-20.07   C431.976,344.33,431.21,338.934,427.41,336.081z"/>
	<path style="fill:#231F20;" d="M392.853,382.077c-3.8-2.855-9.194-2.089-12.048,1.71l-15.08,20.071   c-2.855,3.8-2.089,9.194,1.71,12.048c1.549,1.164,3.363,1.725,5.163,1.725c2.614,0,5.195-1.186,6.885-3.436l15.08-20.071   C397.419,390.325,396.653,384.93,392.853,382.077z"/>
	<path style="fill:#231F20;" d="M358.294,428.074c-3.798-2.855-9.193-2.089-12.048,1.712l-15.078,20.071   c-2.854,3.799-2.088,9.193,1.712,12.048c1.548,1.164,3.362,1.725,5.162,1.725c2.614,0,5.195-1.186,6.886-3.437l15.078-20.071   C362.86,436.323,362.094,430.928,358.294,428.074z"/>
	<path style="fill:#231F20;" d="M97.657,368.199l15.078-20.07c2.854-3.799,2.088-9.193-1.712-12.048   c-3.798-2.855-9.193-2.089-12.048,1.712l-15.078,20.07c-2.854,3.799-2.088,9.193,1.712,12.048c1.548,1.164,3.362,1.725,5.162,1.725   C93.384,371.636,95.966,370.449,97.657,368.199z"/>
	<path style="fill:#231F20;" d="M76.467,382.077c-3.8-2.855-9.196-2.089-12.048,1.71l-15.08,20.071   c-2.855,3.8-2.089,9.194,1.71,12.048c1.549,1.164,3.363,1.725,5.163,1.725c2.614,0,5.195-1.186,6.885-3.436l15.08-20.071   C81.032,390.325,80.266,384.93,76.467,382.077z"/>
	<path style="fill:#231F20;" d="M41.911,428.075c-3.8-2.856-9.196-2.09-12.048,1.71l-15.08,20.071   c-2.855,3.8-2.089,9.194,1.71,12.048c1.549,1.164,3.363,1.725,5.163,1.725c2.614,0,5.195-1.186,6.885-3.436l15.08-20.071   C46.476,436.323,45.71,430.928,41.911,428.075z"/>
	<path style="fill:#231F20;" d="M292.961,291.794l-15.08,20.07c-2.855,3.799-2.089,9.194,1.71,12.048   c1.549,1.164,3.363,1.725,5.163,1.725c2.614,0,5.195-1.186,6.885-3.436l15.08-20.07c2.855-3.799,2.089-9.194-1.71-12.048   C301.207,287.229,295.814,287.995,292.961,291.794z"/>
	<path style="fill:#231F20;" d="M270.453,336.081c-3.801-2.855-9.195-2.089-12.048,1.71l-15.08,20.07   c-2.855,3.799-2.089,9.194,1.71,12.048c1.549,1.164,3.363,1.725,5.163,1.725c2.614,0,5.195-1.186,6.885-3.436l15.08-20.07   C275.018,344.33,274.252,338.934,270.453,336.081z"/>
	<path style="fill:#231F20;" d="M235.897,382.077c-3.799-2.855-9.196-2.089-12.048,1.71l-15.08,20.071   c-2.855,3.8-2.089,9.194,1.71,12.048c1.549,1.164,3.363,1.725,5.163,1.725c2.614,0,5.195-1.186,6.885-3.436l15.08-20.071   C240.461,390.325,239.696,384.93,235.897,382.077z"/>
	<path style="fill:#231F20;" d="M201.337,428.074c-3.798-2.855-9.192-2.089-12.048,1.712l-15.078,20.071   c-2.854,3.799-2.088,9.193,1.712,12.048c1.548,1.164,3.362,1.725,5.162,1.725c2.614,0,5.195-1.186,6.886-3.437l15.078-20.071   C205.903,436.323,205.137,430.928,201.337,428.074z"/>
	<path style="fill:#231F20;" d="M48.771,310.046h165.831c27.152,0,49.241-22.089,49.241-49.24c0-3.541-0.384-6.992-1.097-10.323   h50.564c4.752,0,8.605-3.853,8.605-8.605c0-4.752-3.853-8.605-8.605-8.605h-57.883c-4.942-7.336-11.691-13.088-19.465-16.829   c-0.014-0.008-0.028-0.014-0.043-0.022c-0.62-0.298-1.246-0.579-1.878-0.851c-0.208-0.089-0.415-0.176-0.624-0.264   c-0.557-0.23-1.115-0.454-1.681-0.664c-0.318-0.118-0.641-0.227-0.963-0.339c-0.499-0.173-0.995-0.351-1.499-0.509   c-0.8-0.251-1.61-0.481-2.428-0.691c-0.314-0.081-0.634-0.145-0.951-0.221c-0.594-0.14-1.19-0.275-1.792-0.393   c-0.343-0.068-0.689-0.125-1.035-0.185c-0.591-0.103-1.184-0.196-1.782-0.278c-0.34-0.046-0.68-0.09-1.022-0.13   c-0.641-0.074-1.288-0.131-1.935-0.18c-0.296-0.023-0.589-0.051-0.885-0.068c-0.941-0.054-1.888-0.088-2.842-0.088   c-2.273,0-4.541,0.157-6.787,0.467c-7.71-8.319-18.592-13.151-30.09-13.151c-1.439,0-2.873,0.075-4.297,0.225   c-9.014-24.293-32.06-40.626-58.654-40.626c-1.129,0-2.25,0.039-3.366,0.098c-0.314,0.017-0.626,0.044-0.939,0.066   c-0.828,0.057-1.653,0.127-2.473,0.215c-0.315,0.034-0.629,0.071-0.943,0.111c-0.883,0.11-1.76,0.238-2.632,0.383   c-0.211,0.036-0.424,0.067-0.635,0.104c-2.267,0.403-4.493,0.927-6.67,1.568c-0.051,0.015-0.101,0.032-0.153,0.047   c-1.02,0.303-2.026,0.634-3.024,0.986c-0.154,0.055-0.308,0.111-0.46,0.166c-0.935,0.339-1.86,0.699-2.773,1.081   c-0.127,0.053-0.254,0.103-0.381,0.157c-2.046,0.871-4.037,1.844-5.964,2.919c-0.237,0.131-0.467,0.271-0.701,0.406   c-0.666,0.383-1.326,0.776-1.977,1.182c-0.358,0.223-0.712,0.451-1.065,0.681c-0.503,0.328-0.999,0.666-1.492,1.008   c-0.412,0.286-0.825,0.57-1.229,0.865c-0.367,0.268-0.724,0.548-1.084,0.823c-1.109,0.845-2.192,1.723-3.243,2.641   c-0.056,0.048-0.113,0.095-0.168,0.143c-0.596,0.525-1.177,1.067-1.753,1.613c-0.134,0.128-0.271,0.255-0.404,0.384   c-0.588,0.569-1.166,1.149-1.732,1.74c-0.062,0.065-0.123,0.131-0.184,0.196c-1.258,1.326-2.478,2.693-3.621,4.129   c0-0.01,0-0.019,0-0.028c0-28.18,22.927-51.107,51.109-51.107c4.348,0,8.675,0.55,12.863,1.632c3.487,0.899,7.174-0.469,9.227-3.43   c7.303-10.544,19.302-16.838,32.099-16.838c4.208,0,8.368,0.677,12.366,2.01c2.307,0.771,4.832,0.529,6.949-0.667   c2.119-1.193,3.632-3.228,4.169-5.6c7.331-32.449,35.713-55.112,69.02-55.112c26.641,0,50.384,14.526,62.552,37.636   c-0.102,0.059-0.198,0.128-0.3,0.188c-0.615,0.362-1.22,0.741-1.814,1.138c-0.151,0.1-0.302,0.198-0.452,0.3   c-0.707,0.485-1.4,0.991-2.076,1.523c-0.072,0.057-0.142,0.118-0.214,0.175c-0.603,0.482-1.191,0.986-1.765,1.505   c-0.142,0.128-0.285,0.257-0.425,0.387c-0.631,0.587-1.251,1.187-1.844,1.818c-2.026-0.267-4.072-0.401-6.121-0.401   c-25.667,0-46.548,20.88-46.548,46.546c0,25.667,20.881,46.548,46.548,46.548h99.3c-3.658,24.226-24.622,42.857-49.853,42.857   h-15.998c-4.752,0-8.605,3.853-8.605,8.605c0,4.752,3.853,8.605,8.605,8.605H360.5c34.733,0,63.422-26.324,67.194-60.067h38.198   c25.423,0,46.107-20.683,46.107-46.108c0-25.426-20.683-46.11-46.107-46.11c-1.067,0-2.131,0.037-3.191,0.11   c-4.13-28.549-28.763-50.552-58.439-50.552c-24.923,0-46.543,15.217-55.148,37.893c-1.204-0.112-2.415-0.169-3.629-0.169   c-0.919,0-1.831,0.044-2.739,0.109c-6.555-13.592-16.462-25.245-28.966-33.97C298.99,41.296,281.606,35.84,263.511,35.84   c-20.081,0-39.721,6.945-55.3,19.557c-13.059,10.571-22.852,24.746-28.148,40.545c-2.986-0.487-6.013-0.734-9.056-0.734   c-16.478,0-32.034,7.237-42.663,19.61c-3.8-0.648-7.657-0.972-11.526-0.972c-37.671,0-68.319,30.647-68.319,68.317   c0,8.888,1.711,17.526,5.065,25.727c-0.339,1.57-0.632,3.159-0.851,4.77c-1.309-0.106-2.623-0.158-3.943-0.158   C21.878,212.504,0,234.383,0,261.276C0,288.168,21.878,310.046,48.771,310.046z M352.355,103.806   c2.307,0.769,4.828,0.526,6.946-0.669c2.118-1.193,3.631-3.228,4.167-5.599c4.264-18.874,21.42-32.572,40.795-32.572   c23.069,0,41.838,18.769,41.838,41.838c0,0.422-0.018,0.84-0.033,1.257l-0.004,0.137c-0.104,2.792,1.155,5.462,3.377,7.157   c2.22,1.695,5.126,2.21,7.795,1.371c2.791-0.874,5.704-1.319,8.658-1.319c15.933,0,28.897,12.965,28.897,28.9   c0,15.934-12.963,28.898-28.897,28.898h-46.397H311.054c-16.177,0-29.338-13.16-29.338-29.338c0-16.176,13.16-29.336,29.338-29.336   c2.497,0,4.983,0.315,7.391,0.937c3.493,0.9,7.172-0.468,9.225-3.431c0.325-0.47,0.673-0.92,1.033-1.36   c0.093-0.114,0.187-0.225,0.282-0.337c0.324-0.381,0.657-0.751,1.005-1.107c0.051-0.052,0.098-0.106,0.148-0.157   c0.4-0.401,0.818-0.784,1.246-1.152c0.096-0.082,0.194-0.16,0.29-0.241c0.367-0.304,0.743-0.596,1.129-0.876   c0.087-0.063,0.173-0.13,0.261-0.191c0.457-0.321,0.926-0.623,1.407-0.907c0.102-0.06,0.207-0.115,0.31-0.174   c0.402-0.229,0.813-0.445,1.231-0.649c0.12-0.058,0.24-0.119,0.36-0.176c0.507-0.236,1.022-0.454,1.547-0.65   c0.076-0.029,0.155-0.053,0.231-0.08c0.481-0.173,0.969-0.329,1.464-0.469c1.89-0.535,3.863-0.824,5.872-0.824   C347.821,102.691,350.132,103.065,352.355,103.806z M48.771,229.714c3.22,0,6.402,0.485,9.457,1.441   c2.663,0.834,5.564,0.324,7.784-1.367c2.219-1.691,3.482-4.354,3.385-7.143l-0.01-0.264c-0.015-0.424-0.031-0.847-0.031-1.274   c0-4.447,0.654-8.742,1.85-12.806c0.074-0.254,0.143-0.511,0.222-0.763c0.211-0.671,0.436-1.336,0.675-1.993   c0.023-0.063,0.049-0.125,0.072-0.188c0.231-0.624,0.474-1.243,0.733-1.854c0.023-0.055,0.047-0.108,0.07-0.162   c3.166-7.419,8.249-13.831,14.626-18.607c0.012-0.01,0.025-0.018,0.037-0.027c0.525-0.392,1.059-0.77,1.602-1.139   c0.106-0.072,0.212-0.144,0.318-0.215c0.454-0.304,0.916-0.598,1.381-0.886c0.152-0.094,0.302-0.189,0.455-0.282   c0.445-0.269,0.899-0.526,1.355-0.78c0.158-0.088,0.313-0.181,0.472-0.267c0.565-0.305,1.137-0.598,1.716-0.88   c0.318-0.155,0.641-0.298,0.964-0.445c0.279-0.128,0.556-0.257,0.838-0.38c0.362-0.157,0.728-0.305,1.095-0.454   c0.246-0.099,0.494-0.198,0.742-0.294c0.385-0.147,0.772-0.29,1.162-0.427c0.232-0.082,0.467-0.16,0.701-0.238   c0.406-0.136,0.812-0.27,1.222-0.394c0.207-0.062,0.414-0.117,0.622-0.177c0.851-0.244,1.709-0.463,2.577-0.657   c0.179-0.04,0.355-0.086,0.535-0.124c0.359-0.076,0.723-0.139,1.084-0.207c0.329-0.061,0.658-0.124,0.991-0.177   c0.333-0.055,0.67-0.101,1.006-0.148c0.378-0.053,0.756-0.101,1.137-0.145c0.305-0.036,0.612-0.068,0.92-0.097   c0.446-0.042,0.895-0.074,1.345-0.102c0.252-0.016,0.503-0.036,0.756-0.047c0.709-0.033,1.421-0.054,2.138-0.054   c21.371,0,39.583,14.541,44.287,35.361c0.536,2.371,2.049,4.405,4.167,5.598c2.118,1.194,4.641,1.438,6.946,0.669   c2.444-0.814,4.986-1.227,7.552-1.227c7.805,0,15.127,3.841,19.584,10.277c2.054,2.963,5.74,4.328,9.226,3.43   c2.627-0.679,5.34-1.023,8.066-1.023c0.67,0,1.335,0.028,1.996,0.069c0.191,0.012,0.381,0.028,0.571,0.044   c0.498,0.04,0.994,0.091,1.488,0.154c0.181,0.023,0.362,0.043,0.542,0.069c0.638,0.091,1.271,0.199,1.9,0.328   c0.124,0.026,0.245,0.058,0.369,0.085c0.499,0.109,0.993,0.23,1.484,0.362c0.241,0.066,0.482,0.134,0.721,0.205   c0.374,0.11,0.744,0.229,1.113,0.353c0.256,0.086,0.514,0.168,0.768,0.26c0.511,0.185,1.015,0.385,1.514,0.596   c0.352,0.148,0.696,0.31,1.041,0.471c0.188,0.087,0.376,0.175,0.564,0.267c0.381,0.187,0.758,0.379,1.129,0.58   c0.07,0.038,0.139,0.079,0.208,0.116c3.924,2.162,7.347,5.124,10.052,8.664c0.083,0.11,0.169,0.216,0.252,0.326   c0.226,0.303,0.442,0.612,0.657,0.924c0.166,0.241,0.327,0.484,0.486,0.729c0.171,0.264,0.345,0.525,0.509,0.793   c0.299,0.492,0.586,0.993,0.861,1.504c2.427,4.509,3.808,9.661,3.808,15.13c0,17.662-14.369,32.03-32.031,32.03H48.771   c-17.403,0.002-31.561-14.155-31.561-31.558C17.21,243.873,31.368,229.714,48.771,229.714z"/>
	<path style="fill:#231F20;" d="M501.891,376.786c-0.353,0-0.705,0.023-1.054,0.066l-12.64,1.562l13.503-38.224   c0.008-0.02,0.016-0.044,0.024-0.068c1.767-5.01,3.099-9.852,0.158-14.008c-1.685-2.383-4.436-3.804-7.358-3.804   c-4.026,0-7.419,2.395-11.689,8.236l-55.021,74.612c-0.259,0.352-0.492,0.722-0.695,1.108c-1.631,3.109-1.518,6.908,0.311,9.943   c1.957,3.223,5.677,5.177,9.425,4.826l9.969-0.911l-16.085,41.245c-1.821,4.653-0.018,9.868,4.276,12.39   c1.554,0.918,3.331,1.403,5.136,1.403c3.021,0,5.858-1.333,7.784-3.657c0.042-0.052,0.084-0.103,0.125-0.156l61.705-78.112   c2.409-2.997,2.913-7.154,1.28-10.627C509.389,379.07,505.797,376.786,501.891,376.786z M464.031,423.365l3.881-9.951   c1.083-2.778,0.651-5.918-1.141-8.301c-1.635-2.173-4.187-3.431-6.875-3.431c-0.26,0-0.522,0.012-0.784,0.035l-7.912,0.724   l19.689-26.699l-3.551,10.05c-0.993,2.811-0.461,5.935,1.407,8.258c1.868,2.324,4.801,3.524,7.763,3.149l9.082-1.122   L464.031,423.365z"/>
	<path style="fill:#231F20;" d="M342.516,381.187c-1.655-3.537-5.249-5.821-9.155-5.821c-0.353,0-0.705,0.023-1.055,0.066   l-12.639,1.562l13.494-38.2c0.01-0.026,0.019-0.054,0.028-0.081c1.77-5.016,3.108-9.861,0.165-14.021   c-1.684-2.384-4.436-3.806-7.358-3.806c-4.026,0-7.419,2.394-11.69,8.236l-55.02,74.612c-0.255,0.345-0.483,0.709-0.684,1.089   c-1.646,3.116-1.535,6.928,0.286,9.939c1.952,3.239,5.667,5.196,9.439,4.852l9.968-0.912l-16.084,41.242   c-1.821,4.649-0.022,9.864,4.298,12.407c1.55,0.909,3.319,1.389,5.114,1.389c3.026,0,5.866-1.337,7.792-3.668   c0.04-0.048,0.079-0.097,0.117-0.146l61.708-78.113C343.644,388.817,344.146,384.656,342.516,381.187z M295.5,421.946l3.882-9.955   c1.083-2.777,0.651-5.918-1.141-8.3c-1.635-2.173-4.187-3.431-6.875-3.431c-0.26,0-0.522,0.012-0.784,0.035l-7.912,0.724   l19.69-26.7l-3.551,10.053c-0.993,2.81-0.461,5.934,1.407,8.258c1.868,2.322,4.808,3.518,7.763,3.148l9.081-1.122L295.5,421.946z"/>
	<path style="fill:#231F20;" d="M180.443,383.613c-1.654-3.54-5.248-5.828-9.157-5.828c-0.353,0-0.705,0.023-1.055,0.066   l-12.64,1.562l13.504-38.226c0.006-0.018,0.013-0.034,0.018-0.052c0.003-0.009,0.006-0.017,0.009-0.025   c1.767-5.007,3.095-9.844,0.157-13.999c-1.684-2.383-4.436-3.804-7.358-3.804c-4.026,0-7.419,2.395-11.689,8.236L97.21,406.154   c-0.262,0.355-0.497,0.73-0.701,1.122c-1.624,3.11-1.506,6.907,0.319,9.93c1.957,3.224,5.667,5.173,9.425,4.827l9.969-0.912   l-16.085,41.242c-1.82,4.648-0.02,9.862,4.284,12.398c1.553,0.915,3.327,1.398,5.128,1.398c3.026,0,5.866-1.337,7.792-3.668   c0.04-0.048,0.079-0.097,0.117-0.146l61.703-78.111C181.567,391.241,182.072,387.084,180.443,383.613z M133.427,424.362l3.88-9.95   c1.083-2.778,0.651-5.918-1.141-8.301c-1.635-2.173-4.187-3.431-6.875-3.431c-0.26,0-0.522,0.012-0.784,0.035l-7.914,0.724   l19.69-26.699l-3.551,10.051c-0.993,2.811-0.461,5.935,1.407,8.259c1.868,2.322,4.81,3.517,7.763,3.148l9.08-1.122L133.427,424.362   z"/>
</g>
<g>
</g>
<g>
</g>
<g>
</g>
<g>
</g>
<g>
</g>
<g>
</g>
<g>
</g>
<g>
</g>
<g>
</g>
<g>
</g>
<g>
</g>
<g>
</g>
<g>
</g>
<g>
</g>
<g>
</g>
</svg>
