<?xml version="1.0" encoding="iso-8859-1"?>
<!-- Generator: Adobe Illustrator 19.0.0, SVG Export Plug-In . SVG Version: 6.00 Build 0)  -->
<svg xmlns="http://www.w3.org/2000/svg" xmlns:xlink="http://www.w3.org/1999/xlink" version="1.1" id="Layer_1" x="0px" y="0px" viewBox="0 0 512 512" style="enable-background:new 0 0 512 512;" xml:space="preserve">
<path style="fill:#9FDEF7;" d="M343.417,8.605H66.979c-19.645,0-21.114,11.364-20.011,18.724  c11.618,45.138,51.893,159.77,168.917,207.397c147.32,59.955-67.259,137.335,72.075,268.673c0,0-26.68-101.644,49.55-140.195  c74.671-37.763,89.577-93.087,66.809-152.461c-27.309-71.213,24.943-145.727,55.494-181.095l0,0c0,0,0.004-0.004,0.008-0.008  c0.045-0.052,0.09-0.104,0.136-0.157c1.656-1.947,16.991-20.877-13.278-20.877h-69.916"/>
<path style="fill:#74CEE2;" d="M282.255,489.307c1.436-2.072,3.464-3.696,5.837-4.641c-24.038-57.649-7.992-112.626,5.741-149.615  c9.767-26.308,18.202-49.028,10.606-69.267c-6.048-16.113-22.7-29.178-49.737-42.425C120.257,157.478,95.438,61.731,86.366,4.863  h-8.631c-8.891,0-15.331,2.244-19.142,6.667c-3.231,3.752-4.451,8.989-3.528,15.144c0.014,0.093,0.032,0.183,0.056,0.272  c12.086,46.96,52.897,161.352,170.508,209.217c27.42,11.16,43.689,23.616,49.737,38.079c7.594,18.165-0.84,38.557-10.607,62.17  C247.857,377.274,227.138,427.398,282.255,489.307z"/>
<path style="fill:#231F20;" d="M418.992,228.924c-1.659-6.958-3.871-14.048-6.638-21.263  c-25.379-66.179,22.841-136.331,53.902-172.31c0.011-0.013,0.022-0.024,0.031-0.037l0.22-0.254  c2.585-3.037,10.653-13.734,5.967-23.878C467.307,0,451.78,0,446.679,0h-69.916c-4.752,0-8.605,3.853-8.605,8.605  s3.853,8.605,8.605,8.605h69.916c6.03,0,8.794,0.848,9.891,1.339c-0.389,1.302-1.629,3.549-3.138,5.321l-0.044,0.052  c-0.028,0.032-0.058,0.066-0.086,0.099c-5.278,6.111-11.013,13.15-16.821,20.96H63.308c-0.744,0-1.463,0.104-2.152,0.282  c-2.39-7.353-4.274-13.973-5.733-19.608c-0.207-1.652-0.28-4.249,0.971-5.702c1.503-1.743,5.361-2.743,10.585-2.743h276.439  c4.752,0,8.605-3.853,8.605-8.605S348.17,0,343.417,0H66.979c-10.691,0-18.64,2.935-23.624,8.722  c-4.389,5.095-6.082,11.971-4.897,19.881c0.044,0.293,0.103,0.583,0.177,0.87C50.943,77.301,92.541,193.817,212.64,242.696  c25.886,10.535,41.1,21.944,46.509,34.882c6.646,15.895-1.353,35.234-10.615,57.625c-9.321,22.537-19.887,48.081-18.628,77.26  c1.456,33.698,18.514,65.491,52.15,97.197c1.637,1.545,3.758,2.341,5.898,2.341c1.507,0,3.025-0.395,4.388-1.203  c3.3-1.954,4.908-5.862,3.942-9.574c-0.063-0.244-6.306-24.699-3.524-53.128c3.596-36.733,19.957-62.713,48.632-77.214  c37.683-19.057,62.603-43.502,74.068-72.656c7.665-19.492,9.253-40.785,4.777-63.56 M424.494,62.191  c-5.626,8.658-11.063,17.964-15.947,27.77H239.08c-4.752,0-8.605,3.853-8.605,8.605c0,4.752,3.853,8.605,8.605,8.605h161.735  c-3.592,8.973-6.611,18.26-8.812,27.771H105.516c-6.529-9.262-12.319-18.591-17.44-27.771h119.811c4.752,0,8.605-3.853,8.605-8.605  c0-4.752-3.853-8.605-8.605-8.605H79.119c-4.693-9.696-8.651-19.043-11.983-27.77H424.494z M118.624,152.153h270.367  c-1.075,9.139-1.302,18.421-0.492,27.771h-34.327c-4.752,0-8.605,3.853-8.605,8.605s3.853,8.605,8.605,8.605h37.028  c1.277,5.561,2.952,11.13,5.082,16.689c1.436,3.745,2.703,7.439,3.806,11.083H214.727c-18.115-7.773-34.282-17.218-48.706-27.771  h158.035c4.752,0,8.605-3.853,8.605-8.605s-3.853-8.605-8.605-8.605H148.105c-0.928,0-1.819,0.151-2.657,0.423  C135.542,171.36,126.629,161.875,118.624,152.153z M249.181,242.116h154.933c1.567,9.654,1.853,18.914,0.855,27.771h-62.627  c-4.752,0-8.605,3.853-8.605,8.605s3.853,8.605,8.605,8.605h58.91c-3.218,9.889-8.245,19.206-15.075,27.938  c-0.542-0.108-1.101-0.166-1.676-0.166H274.634c2.903-9.442,4.646-18.69,4.097-27.771h31.342c4.752,0,8.605-3.853,8.605-8.605  s-3.853-8.605-8.605-8.605h-35.506C269.954,259.531,261.672,250.416,249.181,242.116z M286.313,404.831h-39.168  c0.268-9.597,1.944-18.833,4.403-27.771h53.157C297.19,385.104,291.038,394.393,286.313,404.831z M275.581,446.948  c-0.091,0.963-0.161,1.912-0.234,2.864h-18.168c-4.68-9.601-7.51-18.843-8.93-27.77h31.857  C277.934,429.858,276.412,438.165,275.581,446.948z M267.371,467.022h7.496c0.074,3.685,0.253,7.207,0.501,10.512  C272.437,473.983,269.783,470.479,267.371,467.022z M333.626,355.524c-2.712,1.371-5.324,2.845-7.858,4.399  c-0.352-0.044-0.707-0.073-1.069-0.073h-67.491c2.301-6.146,4.788-12.162,7.23-18.069c1.348-3.258,2.684-6.491,3.97-9.703h101.284  C359.736,340.579,347.715,348.4,333.626,355.524z"/>
<g>
</g>
<g>
</g>
<g>
</g>
<g>
</g>
<g>
</g>
<g>
</g>
<g>
</g>
<g>
</g>
<g>
</g>
<g>
</g>
<g>
</g>
<g>
</g>
<g>
</g>
<g>
</g>
<g>
</g>
</svg>
