<?xml version="1.0" encoding="iso-8859-1"?>
<!-- Generator: Adobe Illustrator 19.0.0, SVG Export Plug-In . SVG Version: 6.00 Build 0)  -->
<svg xmlns="http://www.w3.org/2000/svg" xmlns:xlink="http://www.w3.org/1999/xlink" version="1.1" id="Layer_1" x="0px" y="0px" viewBox="0 0 512 512" style="enable-background:new 0 0 512 512;" xml:space="preserve">
<path style="fill:#664E30;" d="M402.532,431.826v-3.558v-25.111h-40.281v25.112v3.558v14.728v53.782c0,1.69,1.369,3.06,3.061,3.06  h34.162c1.689,0,3.059-1.369,3.059-3.06v-40.874"/>
<path style="fill:#564228;" d="M384.721,500.335v-53.781v-14.728v-3.558v-25.111H364.58v25.112v3.558v14.728v53.782  c0,1.69,1.369,3.06,3.061,3.06h20.141C386.09,503.395,384.721,502.026,384.721,500.335z"/>
<polyline style="fill:#58C445;" points="415.839,75.499 382.391,8.605 308.172,157.042 346.406,157.042 287.54,274.774   325.578,274.774 261.387,403.157 503.395,403.157 439.204,274.774 477.242,274.774 418.376,157.042 456.609,157.042 428.46,100.74   "/>
<g>
	<path style="fill:#45AA30;" d="M348.106,153.642c-0.98-1.587-1.069-3.566-0.237-5.233l52.75-105.498l-13.298-26.595   l-66.046,132.093c-0.833,1.667-0.743,3.647,0.237,5.233s2.711,2.55,4.575,2.55h26.595   C350.817,156.192,349.086,155.228,348.106,153.642z"/>
	<path style="fill:#45AA30;" d="M327.473,271.374c-0.98-1.587-1.069-3.566-0.237-5.233l49.853-99.704   c4.374-8.748-4.221-10.243-4.221-10.243h-17.252l-54.974,109.949c-0.834,1.667-0.744,3.647,0.237,5.233   c0.98,1.585,2.712,2.55,4.575,2.55h26.595C330.185,273.924,328.453,272.96,327.473,271.374z"/>
	<path style="fill:#45AA30;" d="M301.321,399.756c-0.98-1.587-1.069-3.566-0.237-5.233l55.603-111.204   c4.282-8.589-5.33-9.395-5.33-9.395H334.79l-60.301,120.599c-0.833,1.667-0.743,3.647,0.237,5.233   c0.98,1.585,2.711,2.55,4.575,2.55h26.595C304.031,402.307,302.301,401.341,301.321,399.756z"/>
</g>
<g>
	<path style="fill:#231F20;" d="M511.091,399.309L453.126,283.38h24.115c2.982,0,5.752-1.545,7.321-4.081   c1.567-2.536,1.71-5.705,0.376-8.373l-52.639-105.279h24.31c2.982,0,5.752-1.545,7.32-4.081c1.568-2.536,1.711-5.705,0.378-8.372   l-28.149-56.302c-2.125-4.251-7.293-5.975-11.544-3.849c-4.251,2.125-5.974,7.294-3.849,11.544l21.921,43.849h-24.31   c-2.982,0-5.752,1.545-7.321,4.081c-1.567,2.536-1.71,5.705-0.376,8.373l52.639,105.278h-24.115c-2.982,0-5.752,1.545-7.321,4.081   c-1.567,2.536-1.71,5.705-0.376,8.373l57.965,115.928h-86.94H362.25h-86.94l55.586-111.172h75.938c4.752,0,8.605-3.853,8.605-8.605   s-3.853-8.605-8.605-8.605h-81.256h-17.869h-6.245l50.26-100.522h34.864c4.752,0,8.605-3.853,8.605-8.605s-3.853-8.605-8.605-8.605   h-40.182h-15.034h-9.276l60.296-120.59l25.751,51.501c2.125,4.25,7.295,5.975,11.545,3.848c4.25-2.125,5.974-7.294,3.848-11.545   L390.086,4.758C388.63,1.842,385.65,0,382.391,0s-6.239,1.841-7.696,4.756l-74.218,148.437c-1.334,2.668-1.191,5.836,0.376,8.373   c1.568,2.536,4.338,4.081,7.321,4.081h23.199h1.11l-52.639,105.278c-1.334,2.668-1.191,5.836,0.376,8.373   c1.568,2.536,4.338,4.081,7.321,4.081h20.168h3.946l-57.965,115.928c-1.334,2.668-1.191,5.836,0.376,8.373   c1.568,2.536,4.338,4.081,7.321,4.081h92.258v88.574c0,6.431,5.233,11.665,11.666,11.665h34.162   c6.432,0,11.664-5.233,11.664-11.665v-40.874c0-4.752-3.853-8.605-8.605-8.605s-8.605,3.853-8.605,8.605v35.329h-23.071v-83.028   h23.071v20.064c0,4.752,3.853,8.605,8.605,8.605s8.605-3.853,8.605-8.605v-20.064h92.257c2.983,0,5.752-1.545,7.321-4.081   C512.283,405.144,512.426,401.976,511.091,399.309z"/>
	<path style="fill:#231F20;" d="M18.656,227.385h258.861c4.752,0,8.605-3.853,8.605-8.605s-3.853-8.605-8.605-8.605H18.656   c-4.752,0-8.605,3.853-8.605,8.605S13.904,227.385,18.656,227.385z"/>
	<path style="fill:#231F20;" d="M15.799,249.826H8.605c-4.752,0-8.605,3.853-8.605,8.605s3.853,8.605,8.605,8.605h7.194   c4.752,0,8.605-3.853,8.605-8.605S20.551,249.826,15.799,249.826z"/>
	<path style="fill:#231F20;" d="M142.259,249.826h-98.76c-4.752,0-8.605,3.853-8.605,8.605s3.853,8.605,8.605,8.605h98.76   c15.444,0,28.008,12.565,28.008,28.01c0,15.081-11.981,27.411-26.925,27.984c-0.356-0.045-0.715-0.075-1.083-0.075   c-15.416,0-27.958-12.543-27.958-27.96c0-4.752-3.853-8.605-8.605-8.605c-4.752,0-8.605,3.853-8.605,8.605   c0,24.399,19.447,44.328,43.653,45.131c0.493,0.087,0.997,0.141,1.514,0.141c24.934,0,45.218-20.285,45.218-45.221   C187.477,270.111,167.193,249.826,142.259,249.826z"/>
	<path style="fill:#231F20;" d="M118.11,184.179h115.97c24.935,0,45.221-20.285,45.221-45.221s-20.285-45.221-45.221-45.221   c-0.517,0-1.022,0.054-1.514,0.141c-24.206,0.803-43.653,20.733-43.653,45.131c0,4.752,3.853,8.605,8.605,8.605   c4.752,0,8.605-3.853,8.605-8.605c0-15.417,12.542-27.959,27.958-27.959c0.368,0,0.727-0.031,1.083-0.075   c14.945,0.572,26.927,12.901,26.927,27.984c0,15.445-12.566,28.01-28.01,28.01H118.11c-4.752,0-8.605,3.853-8.605,8.605   S113.357,184.179,118.11,184.179z"/>
</g>
<g>
</g>
<g>
</g>
<g>
</g>
<g>
</g>
<g>
</g>
<g>
</g>
<g>
</g>
<g>
</g>
<g>
</g>
<g>
</g>
<g>
</g>
<g>
</g>
<g>
</g>
<g>
</g>
<g>
</g>
</svg>
