<?xml version="1.0" encoding="iso-8859-1"?>
<!-- Generator: Adobe Illustrator 19.0.0, SVG Export Plug-In . SVG Version: 6.00 Build 0)  -->
<svg xmlns="http://www.w3.org/2000/svg" xmlns:xlink="http://www.w3.org/1999/xlink" version="1.1" id="Layer_1" x="0px" y="0px" viewBox="0 0 512.004 512.004" style="enable-background:new 0 0 512.004 512.004;" xml:space="preserve">
<path style="fill:#D7EDF9;" d="M438.552,343.945c11.735-13.088,18.871-30.381,18.871-49.341c0-5.105-1.009-10.012-1.504-14.901  c-1.503-14.901-12.085-27.826-12.085-27.826c-13.397-18.887-35.437-31.213-60.357-31.213c-6.423,0-12.651,0.823-18.596,2.356  c-10.645-15.363-28.397-25.438-48.507-25.438c-6.535,0-12.811,1.078-18.687,3.034c-9.9-43.818-49.045-76.551-95.861-76.551  c-54.292,0-98.306,44.016-98.306,98.304c0,1.122,0.048,2.23,0.087,3.338c-6.911-2.167-14.26-3.338-21.888-3.338  c-40.36-0.001-73.084,32.724-73.084,73.094c0,25.227,12.783,47.47,32.225,60.604c0,0,22.396,1.49,44.357-17.409  c21.961-18.898,49.008-6.435,68.228,8.204c19.22,14.639,51.516,11.914,72.79-7.954c21.274-19.868,55.432-8.201,65.34,5.037  c9.909,13.238,46.768,21.574,70.438-0.226C385.684,321.919,424.967,332.119,438.552,343.945z"/>
<path style="fill:#9FDEF7;" d="M417.789,50.852c12.973,12.191,21.075,29.504,21.075,48.708c0,0.762-0.031,1.516-0.059,2.269  c4.698-1.472,9.693-2.269,14.878-2.269c27.437,0,49.682,22.245,49.682,49.687c0,27.439-22.245,49.682-49.682,49.682h-57.564h-67.283  c-4.02-0.866-8.181-1.347-12.459-1.347c-4.292,0-8.471,0.473-12.499,1.347h-6.606c-10.297-42.075-47.644-73.517-92.585-74.802  c8.605-15.348,25.019-25.727,43.868-25.727c4.366,0,8.6,0.559,12.642,1.602c7.236-10.445,19.303-17.293,32.975-17.293  c4.441,0,8.707,0.733,12.702,2.062c6.729-29.787,33.34-52.038,65.165-52.038c6.917,0,13.59,1.051,19.866,3.002"/>
<path style="fill:#E4F2F9;" d="M443.835,250.062c-13.397-18.887-35.437-31.213-60.357-31.213c-6.423,0-12.651,0.823-18.596,2.357  c-10.645-15.363-28.398-25.438-48.507-25.438c-6.535,0-12.811,1.078-18.687,3.034c-9.9-43.818-49.045-76.551-95.861-76.551  c-9.406,0-18.501,1.323-27.113,3.789c-3.109,15.049-4.746,30.637-4.746,46.608c0,61.678,24.366,117.659,63.988,158.86  c21.025-11.583,48.839-1.105,57.619,10.624c9.909,13.238,46.768,21.574,70.438-0.226s62.952-11.6,76.537,0.226  c11.735-13.088,18.871-30.382,18.871-49.341c0-5.105-1.009-10.012-1.504-14.901C454.417,262.986,443.835,250.062,443.835,250.062z"/>
<path style="fill:#83D4ED;" d="M302.644,87.555c0-1.476,0.025-2.946,0.066-4.412c-3.081-0.761-6.302-1.17-9.619-1.17  c-13.672,0-25.739,6.848-32.976,17.293c-4.04-1.044-8.274-1.602-12.641-1.602c-18.848,0-35.263,10.379-43.867,25.727  c44.941,1.285,82.288,32.728,92.585,74.802h6.605c4.03-0.874,8.208-1.347,12.5-1.347c4.278,0,8.439,0.481,12.459,1.347h21.442  C320.477,170.093,302.644,130.91,302.644,87.555z"/>
<g>
	<path style="fill:#231F20;" d="M2.53,337.614c-3.372,3.372-3.372,8.84,0,12.212c11.078,11.078,25.797,17.178,41.444,17.178   c15.648,0,30.366-6.1,41.443-17.179c0.003-0.003,0.006-0.008,0.01-0.011c7.815-7.81,18.192-12.111,29.223-12.111   c11.027,0,21.401,4.298,29.214,12.104c0.006,0.007,0.011,0.013,0.017,0.018c11.078,11.078,25.796,17.178,41.444,17.178   s30.367-6.1,41.444-17.179c0.004-0.004,0.009-0.01,0.013-0.015c7.813-7.807,18.189-12.107,29.217-12.107   c11.029,0,21.405,4.3,29.219,12.107c0.004,0.005,0.009,0.011,0.014,0.015c11.426,11.425,26.434,17.139,41.444,17.139   c15.008,0,30.018-5.714,41.444-17.139c0.008-0.008,0.013-0.015,0.021-0.023c7.813-7.804,18.185-12.101,29.211-12.101   s21.397,4.297,29.21,12.101c0.008,0.008,0.013,0.015,0.021,0.023c11.427,11.427,26.433,17.139,41.446,17.139   c15.007,0,30.019-5.715,41.444-17.139c3.373-3.372,3.373-8.84,0.001-12.212c-3.371-3.371-8.839-3.372-12.212-0.001   c-13.079,13.078-32.808,15.542-48.395,7.401c11.118-14.403,17.195-32.075,17.195-50.41c0-5.597-0.565-11.193-1.68-16.633   c-0.956-4.672-5.523-7.683-10.191-6.727c-4.673,0.956-7.685,5.519-6.728,10.191c0.881,4.303,1.327,8.733,1.327,13.169   c0,14.461-4.779,28.398-13.524,39.769c-10.585-9.016-23.871-13.941-37.913-13.941c-15.648,0-30.367,6.1-41.444,17.18   c-0.002,0.002-0.004,0.005-0.006,0.008c-16.112,16.107-42.322,16.109-58.441,0.008c-0.004-0.004-0.009-0.011-0.014-0.015   c-11.079-11.08-25.797-17.18-41.445-17.18s-30.367,6.1-41.444,17.18c-0.004,0.004-0.009,0.01-0.013,0.015   c-7.813,7.806-18.188,12.106-29.217,12.106c-11.03,0-21.407-4.301-29.221-12.11c-0.003-0.003-0.006-0.008-0.01-0.011   c-11.078-11.08-25.796-17.18-41.444-17.18s-30.367,6.1-41.446,17.179c-0.006,0.006-0.012,0.013-0.018,0.021   c-7.185,7.176-16.538,11.379-26.571,12.009c-0.288-0.258-0.59-0.506-0.92-0.729c-17.798-12.024-28.424-32.004-28.424-53.448   c0-35.543,28.912-64.459,64.45-64.459c6.582,0,13.076,0.99,19.304,2.943c2.676,0.84,5.593,0.327,7.822-1.375   c2.229-1.7,3.494-4.379,3.392-7.181l-0.015-0.393c-0.032-0.871-0.067-1.746-0.067-2.629c0-49.443,40.226-89.668,89.67-89.668   c0.857,0,1.708,0.031,2.561,0.054c0.017,0,0.032,0.004,0.05,0.004c40.168,1.147,74.893,29.203,84.443,68.222   c0.004,0.015,0.01,0.03,0.013,0.045c0.121,0.498,0.257,0.99,0.37,1.491c0.538,2.379,2.056,4.42,4.181,5.619   c2.124,1.198,4.657,1.44,6.97,0.673c1.742-0.58,3.508-1.055,5.289-1.441l0,0c1.702-0.37,3.415-0.648,5.135-0.839   c0.125-0.014,0.252-0.025,0.377-0.038c0.706-0.073,1.414-0.13,2.122-0.173c0.16-0.01,0.318-0.021,0.478-0.029   c1.306-0.067,2.617-0.068,3.929-0.03c0.444,0.012,0.889,0.017,1.332,0.041c0.635,0.035,1.269,0.093,1.905,0.152   c0.285,0.026,0.57,0.048,0.854,0.079c0.688,0.076,1.375,0.172,2.063,0.276c0.227,0.035,0.453,0.067,0.68,0.105   c0.688,0.114,1.376,0.245,2.065,0.389c12.499,2.613,23.705,9.911,31.138,20.637c2.061,2.972,5.751,4.351,9.257,3.442   c5.354-1.381,10.885-2.082,16.437-2.082c21.135,0,41.066,10.308,53.313,27.574c2.761,3.889,8.15,4.804,12.04,2.047   c3.89-2.76,4.806-8.151,2.047-12.041c-15.482-21.824-40.678-34.852-67.4-34.852c-5.058,0-10.105,0.462-15.065,1.374   c-1.715-2.066-3.55-4.007-5.477-5.838h90.746c32.157,0,58.318-26.161,58.318-58.318c0-32.16-26.161-58.323-58.318-58.323   c-2.227,0-4.444,0.125-6.642,0.376c-1.973-17.733-10.233-34.428-23.337-46.741c-3.478-3.267-8.942-3.095-12.208,0.38   c-3.265,3.476-3.096,8.941,0.38,12.208c11.834,11.121,18.352,26.184,18.352,42.415c0,0.567-0.023,1.128-0.043,1.687l-0.011,0.267   c-0.101,2.802,1.163,5.479,3.393,7.18c2.229,1.701,5.146,2.215,7.822,1.374c3.964-1.242,8.1-1.873,12.295-1.873   c22.633,0,41.046,18.416,41.046,41.052c0,22.633-18.414,41.046-41.046,41.046h-123.96c-0.177-0.036-0.355-0.059-0.532-0.094   c-0.838-0.162-1.676-0.314-2.522-0.445c-0.258-0.04-0.515-0.071-0.773-0.108c-0.867-0.124-1.734-0.242-2.608-0.331   c-0.235-0.025-0.471-0.037-0.706-0.059c-1.526-0.141-3.061-0.228-4.605-0.264c-0.443-0.011-0.885-0.035-1.328-0.037   c-0.092,0-0.182-0.008-0.274-0.008c-0.945,0-1.886,0.027-2.827,0.066c-0.036,0.001-0.072,0.001-0.108,0.002   c-3.245,0.14-6.469,0.508-9.654,1.112c-1.03-3.249-2.231-6.439-3.567-9.57c-0.133-0.313-0.26-0.628-0.396-0.939   c-0.289-0.662-0.595-1.316-0.898-1.972c-0.239-0.516-0.473-1.034-0.719-1.546c-0.266-0.552-0.543-1.098-0.818-1.645   c-0.298-0.592-0.595-1.184-0.902-1.769c-0.273-0.519-0.556-1.034-0.838-1.548c-0.318-0.583-0.639-1.164-0.968-1.74   c-0.311-0.543-0.629-1.082-0.949-1.619c-0.304-0.512-0.611-1.021-0.923-1.526c-0.378-0.613-0.764-1.22-1.155-1.825   c-0.25-0.386-0.502-0.771-0.756-1.154c-0.479-0.721-0.966-1.438-1.463-2.147c-0.149-0.212-0.298-0.422-0.448-0.633   c-5.627-7.929-12.324-15.123-19.951-21.298c-9.943-8.049-21.255-14.177-33.282-18.203c-0.271-0.092-0.544-0.18-0.816-0.27   c-0.919-0.299-1.838-0.592-2.765-0.866c-0.382-0.113-0.768-0.218-1.152-0.327c-2.801-0.797-5.635-1.479-8.497-2.046   c-0.416-0.082-0.828-0.176-1.245-0.253c7.465-6.471,17.114-10.197,27.274-10.197c3.543,0,7.07,0.447,10.483,1.328   c3.505,0.904,7.198-0.471,9.258-3.444c5.889-8.5,15.562-13.574,25.876-13.574c3.388,0,6.745,0.545,9.974,1.62   c2.313,0.768,4.846,0.526,6.97-0.673c2.124-1.198,3.643-3.24,4.181-5.619c6.027-26.675,29.36-45.306,56.741-45.306   c5.904,0,11.725,0.879,17.302,2.613c4.552,1.412,9.394-1.128,10.811-5.683c1.415-4.554-1.129-9.395-5.683-10.811   c-7.239-2.251-14.786-3.392-22.429-3.392c-17.222,0-34.066,5.958-47.427,16.773c-10.894,8.817-19.137,20.559-23.758,33.664   c-2.211-0.305-4.441-0.46-6.682-0.46c-14.013,0-27.259,6.042-36.453,16.402c-3.026-0.473-6.09-0.711-9.163-0.711   c-19.526,0-37.711,9.726-48.628,25.688c-55.569,0.976-100.939,44.544-104.775,99.382c-4.422-0.733-8.909-1.102-13.427-1.102   c-45.063,0.004-81.723,36.669-81.723,81.735c0,14.156,3.658,27.805,10.342,39.793C7.606,334.707,4.654,335.491,2.53,337.614z"/>
	<path style="fill:#231F20;" d="M497.259,398.066c-16.119,16.118-42.338,16.118-58.457,0.007c-0.002-0.002-0.004-0.005-0.007-0.008   c-11.078-11.08-25.795-17.18-41.444-17.18c-15.649,0-30.367,6.1-41.444,17.18c-0.002,0.002-0.004,0.005-0.007,0.008   c-16.112,16.107-42.322,16.109-58.441,0.008c-0.004-0.004-0.009-0.01-0.014-0.015c-11.079-11.08-25.797-17.18-41.446-17.18   s-30.367,6.1-41.444,17.18c-0.005,0.004-0.009,0.011-0.014,0.016c-7.813,7.806-18.188,12.105-29.216,12.105   c-11.03,0-21.407-4.301-29.221-12.11c-0.003-0.003-0.006-0.008-0.01-0.011c-11.078-11.08-25.796-17.18-41.444-17.18   s-30.367,6.1-41.446,17.179c-0.006,0.006-0.012,0.014-0.018,0.021c-7.811,7.802-18.185,12.101-29.211,12.101   c-11.034,0-21.416-4.304-29.231-12.12c-3.372-3.371-8.84-3.372-12.213,0.001c-3.372,3.372-3.372,8.84,0,12.212   c11.078,11.078,25.797,17.178,41.444,17.178c15.648,0,30.366-6.1,41.443-17.179c0.003-0.003,0.006-0.008,0.011-0.012   c7.815-7.81,18.192-12.111,29.221-12.111c11.027,0,21.401,4.298,29.214,12.103c0.006,0.007,0.012,0.013,0.017,0.019   c11.078,11.078,25.796,17.178,41.444,17.178s30.367-6.1,41.444-17.179c0.005-0.005,0.009-0.011,0.014-0.016   c7.813-7.807,18.188-12.106,29.217-12.106c11.028,0,21.404,4.3,29.218,12.107c0.005,0.004,0.01,0.011,0.014,0.016   c11.426,11.425,26.434,17.139,41.444,17.139c15.008,0,30.018-5.714,41.444-17.139c0.008-0.008,0.014-0.016,0.021-0.023   c7.813-7.802,18.185-12.1,29.21-12.1c11.026,0,21.397,4.297,29.21,12.1c0.008,0.008,0.014,0.016,0.021,0.023   c11.427,11.427,26.433,17.139,41.446,17.139c15.007,0,30.019-5.715,41.444-17.139c3.373-3.372,3.373-8.84,0.001-12.212   C506.101,394.696,500.632,394.695,497.259,398.066z"/>
	<path style="fill:#231F20;" d="M497.259,458.519c-16.119,16.117-42.338,16.118-58.457,0.006c-0.002-0.002-0.004-0.005-0.007-0.008   c-11.078-11.08-25.795-17.18-41.444-17.18c-15.649,0-30.367,6.1-41.444,17.18c-0.002,0.002-0.004,0.005-0.007,0.008   c-16.112,16.107-42.322,16.109-58.441,0.008c-0.004-0.004-0.009-0.01-0.014-0.015c-11.079-11.08-25.797-17.18-41.446-17.18   s-30.367,6.1-41.444,17.18c-0.005,0.005-0.009,0.011-0.014,0.016c-7.813,7.806-18.188,12.105-29.216,12.105   c-11.03,0-21.407-4.301-29.221-12.11c-0.003-0.003-0.006-0.008-0.01-0.011c-11.078-11.08-25.796-17.18-41.444-17.18   s-30.367,6.1-41.446,17.179c-0.006,0.007-0.012,0.014-0.019,0.022c-7.812,7.804-18.185,12.101-29.211,12.101   c-11.034,0-21.416-4.304-29.231-12.12c-3.372-3.371-8.84-3.372-12.213,0.001c-3.372,3.372-3.372,8.84,0,12.212   c11.078,11.078,25.797,17.178,41.444,17.178c15.648,0,30.366-6.1,41.443-17.179c0.003-0.003,0.006-0.008,0.011-0.012   c7.815-7.81,18.192-12.111,29.221-12.111c11.027,0,21.401,4.298,29.214,12.104c0.006,0.007,0.011,0.013,0.017,0.019   c11.078,11.078,25.796,17.178,41.444,17.178s30.367-6.1,41.444-17.179c0.005-0.004,0.009-0.011,0.014-0.016   c7.813-7.807,18.188-12.106,29.217-12.106s21.405,4.3,29.219,12.107c0.004,0.004,0.009,0.011,0.014,0.015   c11.426,11.425,26.434,17.139,41.444,17.139c15.008,0,30.018-5.714,41.444-17.139c0.008-0.008,0.013-0.015,0.021-0.023   c7.813-7.804,18.185-12.101,29.211-12.101s21.397,4.297,29.21,12.101c0.008,0.006,0.013,0.015,0.021,0.023   c11.427,11.427,26.433,17.139,41.446,17.139c15.007,0,30.019-5.715,41.444-17.139c3.373-3.372,3.373-8.84,0.001-12.212   C506.101,455.148,500.632,455.148,497.259,458.519z"/>
</g>
<g>
</g>
<g>
</g>
<g>
</g>
<g>
</g>
<g>
</g>
<g>
</g>
<g>
</g>
<g>
</g>
<g>
</g>
<g>
</g>
<g>
</g>
<g>
</g>
<g>
</g>
<g>
</g>
<g>
</g>
</svg>
