<?xml version="1.0" encoding="iso-8859-1"?>
<!-- Generator: Adobe Illustrator 19.0.0, SVG Export Plug-In . SVG Version: 6.00 Build 0)  -->
<svg xmlns="http://www.w3.org/2000/svg" xmlns:xlink="http://www.w3.org/1999/xlink" version="1.1" id="Layer_1" x="0px" y="0px" viewBox="0 0 512 512" style="enable-background:new 0 0 512 512;" xml:space="preserve">
<path style="fill:#F29F26;" d="M299.626,352.859L176.981,501.782c-0.861,1.039-2.115,1.589-3.388,1.589  c-0.763,0-1.534-0.2-2.232-0.611c-1.863-1.098-2.653-3.383-1.865-5.394l57.116-150.745h-58.584c-1.539,0-2.968-0.807-3.764-2.124  c-0.798-1.32-0.851-2.96-0.134-4.325l62.785-119.704h-93.108c-1.535,0-2.96-0.8-3.76-2.11c-0.798-1.309-0.86-2.941-0.157-4.307  l104.324-203.03c0.754-1.47,2.266-2.392,3.917-2.392h66.609h29.115H366.7c1.577,0,3.035,0.842,3.818,2.21  c0.786,1.368,0.782,3.049-0.014,4.413l-61.781,105.932h69.459c1.608,0,3.089,0.877,3.862,2.287c0.772,1.412,0.716,3.131-0.15,4.486  l-89.02,139.408h67.834c1.706,0,3.261,0.989,3.986,2.535c0.725,1.547,0.492,3.371-0.601,4.686l-47.067,57.15"/>
<path style="fill:#EF8229;" d="M164.363,336.358c-0.716,1.366-0.663,3.005,0.135,4.325c0.796,1.317,2.225,2.124,3.764,2.124h58.584  l-57.117,150.744c-0.787,2.012,0.002,4.296,1.865,5.394c0.124,0.073,0.252,0.132,0.382,0.192l128.218-194.321H234.06  c-1.54,0-2.968-0.807-3.764-2.124c-0.798-1.32-0.851-2.96-0.135-4.325l62.786-119.705h-76.928c-1.536,0-2.96-0.8-3.76-2.11  c-0.798-1.309-0.86-2.941-0.157-4.307L298.133,4.814h-59.767c-1.649,0-3.163,0.923-3.917,2.391L130.123,210.237  c-0.701,1.367-0.641,2.998,0.157,4.307c0.8,1.309,2.225,2.11,3.76,2.11h93.108L164.363,336.358z"/>
<g>
	<path style="fill:#231F20;" d="M173.594,512c-2.322,0-4.61-0.625-6.615-1.808c-5.544-3.266-7.864-9.987-5.515-15.978   l52.652-138.965h-46.087c-4.531,0-8.803-2.409-11.149-6.287c-2.349-3.883-2.498-8.789-0.388-12.804l56.155-107.061h-78.839   c-4.509,0-8.77-2.39-11.123-6.238c-2.353-3.857-2.532-8.74-0.472-12.749L226.539,7.077C228.781,2.713,233.223,0,238.131,0h66.609   c4.765,0,8.629,3.864,8.629,8.629s-3.864,8.629-8.629,8.629h-64.029l-99.982,194.58h86.188c3.02,0,5.82,1.579,7.384,4.164   c1.563,2.584,1.661,5.799,0.258,8.473L175.02,337.99h51.594c2.836,0,5.49,1.393,7.101,3.726c1.611,2.333,1.973,5.309,0.969,7.961   l-48.047,126.805l106.329-129.112c3.03-3.678,8.467-4.205,12.148-1.176c3.678,3.031,4.205,8.468,1.176,12.148L183.642,507.268   C181.144,510.283,177.488,512,173.594,512z"/>
	<path style="fill:#231F20;" d="M317.02,340.364c-1.931,0-3.873-0.645-5.481-1.967c-3.678-3.031-4.205-8.468-1.176-12.148   l41.389-50.256h-58.881c-3.152,0-6.052-1.718-7.568-4.483c-1.514-2.765-1.402-6.134,0.294-8.79l84.869-132.908h-61.746   c-3.089,0-5.943-1.651-7.481-4.332c-1.539-2.678-1.528-5.976,0.028-8.645l58.077-99.577h-25.491c-4.765,0-8.629-3.864-8.629-8.629   S329.089,0,333.854,0H366.7c4.658,0,8.989,2.509,11.304,6.547c2.316,4.028,2.299,9.032-0.046,13.051l-54.213,92.955h54.437   c4.762,0,9.143,2.594,11.43,6.77c2.288,4.184,2.116,9.27-0.448,13.28l-80.542,126.132h52.085c5.031,0,9.661,2.944,11.799,7.5   c2.135,4.555,1.437,9.997-1.777,13.864l-47.043,57.122C321.981,339.292,319.511,340.364,317.02,340.364z"/>
</g>
<g>
</g>
<g>
</g>
<g>
</g>
<g>
</g>
<g>
</g>
<g>
</g>
<g>
</g>
<g>
</g>
<g>
</g>
<g>
</g>
<g>
</g>
<g>
</g>
<g>
</g>
<g>
</g>
<g>
</g>
</svg>
