<?xml version="1.0" encoding="iso-8859-1"?>
<!-- Generator: Adobe Illustrator 19.0.0, SVG Export Plug-In . SVG Version: 6.00 Build 0)  -->
<svg xmlns="http://www.w3.org/2000/svg" xmlns:xlink="http://www.w3.org/1999/xlink" version="1.1" id="Layer_1" x="0px" y="0px" viewBox="0 0 512.006 512.006" style="enable-background:new 0 0 512.006 512.006;" xml:space="preserve">
<path style="fill:#EAC71C;" d="M163.368,367.823c31.6,30.877,62.131-24.828,92.637-24.828s36.467,29.908,77.745,29.908  c31.284,0,34.339-26.237,60.146-27.488c13.756-23.58,21.645-51.001,21.645-80.27c0-88.109-71.428-159.536-159.537-159.536  c-88.11,0-159.537,71.428-159.537,159.536c0,28.299,7.378,54.872,20.301,77.917C126.097,343.582,142.918,347.839,163.368,367.823z"/>
<path style="fill:#EDE21B;" d="M258.032,107.731c-30.292,0-58.611,8.442-82.735,23.103c-6.596,20.137-10.176,41.639-10.176,63.981  c0,62.896,28.283,119.178,72.811,156.851c6.709-3.863,13.406-6.547,20.101-6.547c30.506,0,36.467,29.908,77.747,29.908  c31.283,0,34.339-26.237,60.146-27.488c13.755-23.58,21.645-51.001,21.645-80.27C417.57,179.158,346.141,107.731,258.032,107.731z"/>
<path style="fill:#EF8229;" d="M200.284,372.698c18.737-9.248,37.234-29.702,55.721-29.702c25.345,0,33.766,20.63,59.558,27.616  c36.569-20.766,61.242-60.059,61.242-105.116c0-66.715-54.085-120.801-120.801-120.801s-120.802,54.085-120.802,120.801  C135.201,312.114,161.612,352.556,200.284,372.698z"/>
<path style="fill:#F29F26;" d="M258.032,146.817c-37.327,0-70.697,16.934-92.856,43.535c-0.031,1.484-0.056,2.97-0.056,4.463  c0,62.897,28.283,119.181,72.814,156.854c6.709-3.862,13.404-6.55,20.098-6.55c25.345,0,33.767,20.63,59.558,27.616  c36.569-20.766,61.242-60.059,61.242-105.116C378.833,200.902,324.748,146.817,258.032,146.817z"/>
<g>
	<path style="fill:#231F20;" d="M256.003,76.398c4.758,0,8.616-3.858,8.616-8.616V18.19c0-4.758-3.858-8.616-8.616-8.616   s-8.616,3.858-8.616,8.616v49.593C247.387,72.54,251.245,76.398,256.003,76.398z"/>
	<path style="fill:#231F20;" d="M149.776,98.554c1.596,2.763,4.492,4.309,7.471,4.309c1.46,0,2.942-0.373,4.299-1.156   c4.12-2.379,5.533-7.649,3.154-11.769l-24.795-42.948c-2.38-4.119-7.647-5.534-11.77-3.153c-4.12,2.379-5.533,7.649-3.154,11.769   L149.776,98.554z"/>
	<path style="fill:#231F20;" d="M37.682,149.213l42.948,24.796c1.357,0.783,2.838,1.156,4.299,1.156c2.978,0,5.874-1.545,7.47-4.31   c2.38-4.12,0.967-9.39-3.153-11.769L46.297,134.29c-4.12-2.378-9.39-0.967-11.769,3.153   C32.149,141.565,33.561,146.834,37.682,149.213z"/>
	<path style="fill:#231F20;" d="M8.879,273.929h49.593c4.758,0,8.616-3.858,8.616-8.616s-3.858-8.616-8.616-8.616H8.879   c-4.758,0-8.616,3.858-8.616,8.616C0.264,270.071,4.121,273.929,8.879,273.929z"/>
	<path style="fill:#231F20;" d="M444.918,265.313c0,4.758,3.858,8.616,8.616,8.616h49.593c4.758,0,8.616-3.858,8.616-8.616   s-3.858-8.616-8.616-8.616h-49.593C448.776,256.698,444.918,260.556,444.918,265.313z"/>
	<path style="fill:#231F20;" d="M427.08,175.165c1.46,0,2.942-0.373,4.299-1.156l42.946-24.796c4.12-2.379,5.533-7.649,3.153-11.769   c-2.378-4.12-7.646-5.533-11.769-3.153l-42.946,24.796c-4.12,2.379-5.533,7.649-3.153,11.769   C421.206,173.619,424.101,175.165,427.08,175.165z"/>
	<path style="fill:#231F20;" d="M350.46,101.708c1.357,0.783,2.838,1.156,4.299,1.156c2.978,0,5.874-1.545,7.47-4.309l24.797-42.948   c2.38-4.12,0.967-9.39-3.153-11.769c-4.119-2.38-9.39-0.967-11.769,3.153l-24.797,42.948   C344.926,94.059,346.339,99.327,350.46,101.708z"/>
	<path style="fill:#231F20;" d="M43.961,381.519c15.643,0,30.357-6.099,41.433-17.174c0.005-0.005,0.009-0.011,0.014-0.015   c7.819-7.812,18.199-12.115,29.235-12.115c11.033,0,21.414,4.302,29.232,12.114c0.005,0.005,0.01,0.011,0.015,0.016   c11.423,11.421,26.429,17.133,41.435,17.133c15.005,0,30.009-5.712,41.433-17.133c0.005-0.005,0.01-0.011,0.014-0.016   c7.818-7.812,18.199-12.115,29.234-12.115c11.034,0,21.416,4.302,29.235,12.115c0.004,0.005,0.009,0.011,0.014,0.015   c11.074,11.075,25.789,17.174,41.433,17.174c15.644,0,30.358-6.099,41.434-17.173c0.005-0.005,0.01-0.011,0.014-0.016   c7.818-7.812,18.199-12.115,29.234-12.115c11.034,0,21.416,4.302,29.235,12.115c0.005,0.005,0.009,0.011,0.014,0.015   c11.074,11.075,25.788,17.174,41.433,17.174s30.357-6.099,41.433-17.174c3.364-3.364,3.364-8.819-0.001-12.184   c-3.363-3.363-8.818-3.364-12.184,0.001c-7.82,7.82-18.206,12.127-29.247,12.127c-11.035,0-21.415-4.302-29.234-12.114   c-0.005-0.005-0.009-0.011-0.014-0.015c-8.341-8.342-18.747-13.857-30.058-16.074c10.2-22.038,15.578-46.328,15.578-70.772   c0-92.813-75.508-168.321-168.321-168.321S87.682,172.501,87.682,265.313c0,24.437,5.379,48.733,15.584,70.771   c-11.311,2.216-21.718,7.733-30.059,16.074c-0.004,0.005-0.009,0.011-0.014,0.015c-7.818,7.811-18.198,12.114-29.234,12.114   c-11.042,0-21.429-4.307-29.25-12.128c-3.363-3.363-8.818-3.364-12.184,0.001c-3.364,3.364-3.364,8.819,0.001,12.184   C13.602,375.42,28.316,381.519,43.961,381.519z M256.003,114.224c83.31,0,151.089,67.778,151.089,151.089   c0,24.43-5.962,48.691-17.241,70.162c-12.797,1.632-24.638,7.402-33.918,16.683c-0.005,0.005-0.009,0.011-0.014,0.015   c-3.841,3.838-8.304,6.824-13.157,8.873c26.661-24.26,42.476-59.039,42.476-95.734c0-27.381-8.457-53.545-24.457-75.666   c-2.788-3.856-8.174-4.721-12.031-1.932c-3.855,2.788-4.72,8.174-1.932,12.03c13.862,19.163,21.188,41.837,21.188,65.567   c0,39.525-21.163,76.497-55.248,96.577c-5.689-2.031-10.905-5.317-15.309-9.717c-0.005-0.005-0.009-0.011-0.014-0.015   c-11.075-11.077-25.79-17.175-41.435-17.175s-30.358,6.1-41.433,17.175c-0.005,0.005-0.009,0.011-0.014,0.015   c-4.6,4.594-10.021,7.873-15.795,9.847c-0.521-0.571-1.122-1.086-1.811-1.514c-33.156-20.616-52.952-56.202-52.952-95.193   c0-61.759,50.244-112.005,112.003-112.005c26.405,0,52.043,9.363,72.191,26.364c3.637,3.069,9.072,2.608,12.141-1.029   c3.069-3.637,2.608-9.072-1.028-12.141c-23.253-19.62-52.838-30.426-83.304-30.426c-71.26,0-129.235,57.975-129.235,129.236   c0,36.999,15.455,71.329,42.217,95.587c-4.686-2.009-9.078-4.91-12.899-8.727c-0.005-0.005-0.009-0.011-0.014-0.015   c-9.282-9.284-21.127-15.055-33.928-16.684c-0.027-0.054-0.047-0.11-0.075-0.164c-11.223-21.43-17.155-45.635-17.155-69.997   C104.914,182.003,172.693,114.224,256.003,114.224z"/>
	<path style="fill:#231F20;" d="M497.295,412.619c-7.82,7.82-18.206,12.127-29.247,12.127c-11.034,0-21.415-4.302-29.234-12.114   c-0.005-0.005-0.009-0.011-0.014-0.015c-11.075-11.077-25.79-17.175-41.435-17.175s-30.358,6.1-41.433,17.175   c-0.005,0.005-0.009,0.011-0.014,0.015c-7.819,7.811-18.201,12.114-29.235,12.114c-11.035,0-21.415-4.302-29.234-12.114   c-0.005-0.005-0.009-0.011-0.014-0.015c-11.075-11.077-25.79-17.175-41.435-17.175s-30.358,6.1-41.433,17.175   c-0.005,0.005-0.009,0.011-0.014,0.015c-16.125,16.107-42.345,16.107-58.47,0c-0.005-0.005-0.009-0.011-0.014-0.015   c-11.073-11.075-25.788-17.175-41.432-17.175s-30.357,6.099-41.434,17.175c-0.004,0.005-0.009,0.011-0.014,0.015   c-7.818,7.811-18.198,12.114-29.234,12.114c-11.042,0-21.429-4.307-29.25-12.128c-3.363-3.363-8.818-3.364-12.184,0.001   c-3.364,3.364-3.364,8.819,0.001,12.184c11.074,11.074,25.789,17.173,41.434,17.173c15.643,0,30.357-6.099,41.433-17.174   c0.005-0.005,0.009-0.011,0.014-0.015c7.819-7.812,18.199-12.115,29.235-12.115c11.033,0,21.414,4.302,29.232,12.114   c0.005,0.005,0.01,0.011,0.015,0.016c11.423,11.421,26.428,17.133,41.435,17.133c15.005,0,30.009-5.712,41.433-17.133   c0.005-0.005,0.01-0.011,0.014-0.016c7.818-7.812,18.199-12.115,29.234-12.115c11.035,0,21.416,4.302,29.235,12.115   c0.004,0.005,0.009,0.011,0.014,0.015c11.074,11.075,25.789,17.174,41.433,17.174s30.358-6.099,41.434-17.173   c0.005-0.005,0.01-0.011,0.014-0.016c7.818-7.812,18.199-12.115,29.234-12.115s21.416,4.302,29.235,12.115   c0.005,0.005,0.009,0.011,0.014,0.015c11.074,11.075,25.788,17.174,41.433,17.174c15.645,0,30.357-6.099,41.433-17.174   c3.364-3.364,3.364-8.819-0.001-12.184C506.115,409.255,500.661,409.254,497.295,412.619z"/>
	<path style="fill:#231F20;" d="M497.295,473.076c-7.82,7.82-18.206,12.127-29.247,12.127c-11.034,0-21.415-4.302-29.234-12.114   c-0.005-0.005-0.009-0.011-0.014-0.015c-11.075-11.077-25.79-17.175-41.435-17.175s-30.358,6.1-41.433,17.175   c-0.004,0.004-0.009,0.01-0.013,0.014c-7.819,7.812-18.201,12.114-29.236,12.114c-11.035,0-21.415-4.302-29.234-12.114   c-0.005-0.005-0.009-0.011-0.014-0.015c-11.075-11.077-25.79-17.175-41.435-17.175s-30.358,6.1-41.433,17.175   c-0.004,0.004-0.009,0.01-0.013,0.014c-16.125,16.108-42.347,16.108-58.472,0c-0.004-0.004-0.009-0.01-0.013-0.014   c-11.073-11.075-25.788-17.175-41.432-17.175s-30.357,6.099-41.434,17.175c-0.004,0.005-0.009,0.011-0.014,0.015   c-7.818,7.811-18.198,12.114-29.234,12.114c-11.042,0-21.429-4.307-29.25-12.128c-3.363-3.363-8.818-3.364-12.184,0.001   c-3.364,3.364-3.364,8.819,0.001,12.184c11.074,11.074,25.789,17.173,41.434,17.173c15.643,0,30.357-6.099,41.433-17.174   c0.005-0.005,0.009-0.011,0.014-0.015c7.819-7.812,18.199-12.115,29.235-12.115c11.033,0,21.414,4.302,29.232,12.114   c0.005,0.005,0.01,0.011,0.015,0.016c11.423,11.422,26.429,17.133,41.435,17.133c15.005,0,30.009-5.712,41.433-17.133   c0.005-0.005,0.01-0.011,0.014-0.016c7.818-7.812,18.199-12.115,29.234-12.115c11.035,0,21.416,4.302,29.235,12.115   c0.004,0.005,0.009,0.011,0.014,0.015c11.074,11.075,25.789,17.174,41.433,17.174s30.358-6.099,41.434-17.173   c0.005-0.005,0.01-0.011,0.014-0.016c7.818-7.812,18.199-12.115,29.234-12.115s21.416,4.302,29.235,12.115   c0.005,0.005,0.009,0.011,0.014,0.015c11.074,11.075,25.788,17.174,41.433,17.174c15.645,0,30.357-6.099,41.433-17.174   c3.364-3.364,3.364-8.819-0.001-12.185C506.115,469.712,500.661,469.711,497.295,473.076z"/>
</g>
<g>
</g>
<g>
</g>
<g>
</g>
<g>
</g>
<g>
</g>
<g>
</g>
<g>
</g>
<g>
</g>
<g>
</g>
<g>
</g>
<g>
</g>
<g>
</g>
<g>
</g>
<g>
</g>
<g>
</g>
</svg>
