<?xml version="1.0" encoding="iso-8859-1"?>
<!-- Generator: Adobe Illustrator 19.0.0, SVG Export Plug-In . SVG Version: 6.00 Build 0)  -->
<svg xmlns="http://www.w3.org/2000/svg" xmlns:xlink="http://www.w3.org/1999/xlink" version="1.1" id="Layer_1" x="0px" y="0px" viewBox="0 0 512.006 512.006" style="enable-background:new 0 0 512.006 512.006;" xml:space="preserve">
<path style="fill:#ED5145;" d="M66.605,296.693c0,0,48.339-43.93,102.982,6.103c0.125-46.805,38.1-84.712,84.936-84.712  c45.356,0,82.404,35.553,84.812,80.307c32.406-16.342,76.868-27.254,114.784,4.635h18.688c0-120.556-97.729-218.287-218.285-218.287  c-120.151,0-217.616,97.077-218.271,217.074L66.605,296.693z"/>
<path style="fill:#F29F26;" d="M165.31,301.113c0.724,0.652,1.447,1.285,2.173,1.913h2.097c0-46.912,38.03-84.943,84.943-84.943  c46.911,0,84.943,38.032,84.943,84.943h2.752c7.821-8.487,38.655-36.87,85.902-16.975c-3.257-33.704-16.095-64.605-35.771-89.935  l-17.026-18.907c-31.343-30.102-73.91-48.604-120.8-48.604c-91.206,0-166.051,70.011-173.754,159.221  C100.651,277.735,132.118,271.134,165.31,301.113z"/>
<path style="fill:#58C445;" d="M154.032,290.65h16.457c5.992-41.044,41.326-72.567,84.034-72.567  c42.706,0,78.041,31.523,84.034,72.567h19.265l8.871-4.119c4.664-3.632,9.821-6.322,15.214-8.074  c-11.484-59.893-64.144-105.148-127.383-105.148c-62.949,0-115.419,44.841-127.226,104.325c7.347,1.919,14.343,5.536,20.369,10.852  C149.692,289.178,151.836,289.907,154.032,290.65z"/>
<path style="fill:#F75C54;" d="M254.849,84.74c-38.011,0-73.747,9.726-104.868,26.81c9.631,45.118,31.269,85.78,61.417,118.489  c12.715-7.586,27.57-11.955,43.452-11.955c45.355,0,82.404,35.553,84.811,80.307c32.406-16.342,76.868-27.254,114.785,4.635h9.245  c3.16-0.851,6.302-1.743,9.41-2.712C471.645,181.01,374.499,84.74,254.849,84.74z"/>
<path style="fill:#F9A83D;" d="M392.673,196.116l-17.025-18.908c-31.344-30.102-73.911-48.604-120.8-48.604  c-33.588,0-64.952,9.503-91.565,25.956c11.51,28.033,27.896,53.545,48.115,75.478c12.713-7.585,27.57-11.955,43.451-11.955  c46.911,0,84.941,38.032,84.941,84.943h2.752c7.821-8.487,38.656-36.87,85.902-16.975  C425.188,252.347,412.349,221.445,392.673,196.116z"/>
<path style="fill:#6AD354;" d="M254.849,173.309c-26.171,0-50.526,7.756-70.907,21.087c8.094,12.696,17.293,24.617,27.453,35.641  c12.712-7.587,27.571-11.953,43.454-11.953c42.706,0,78.041,31.524,84.034,72.567h19.263l8.872-4.119  c4.663-3.632,9.82-6.322,15.214-8.074C370.748,218.564,318.087,173.309,254.849,173.309z"/>
<g>
	<path style="fill:#231F20;" d="M43.962,313.917c15.644,0,30.357-6.099,41.433-17.174c0.002-0.002,0.004-0.005,0.008-0.008   c7.82-7.817,18.204-12.12,29.24-12.12c11.033,0,21.414,4.302,29.232,12.114c0.005,0.005,0.01,0.011,0.015,0.016   c11.423,11.422,26.428,17.133,41.435,17.133c15.005,0,30.01-5.711,41.434-17.133c0.008-0.008,0.013-0.015,0.02-0.023   c7.818-7.807,18.195-12.107,29.226-12.107c11.039,0,21.422,4.305,29.241,12.12c0.002,0.002,0.004,0.005,0.008,0.008   c11.074,11.075,25.788,17.174,41.433,17.174c15.645,0,30.358-6.099,41.435-17.173c0.008-0.008,0.013-0.015,0.02-0.023   c7.818-7.807,18.195-12.107,29.226-12.107c11.039,0,21.422,4.305,29.241,12.12c0.002,0.002,0.004,0.005,0.008,0.008   c11.074,11.075,25.788,17.174,41.433,17.174s30.357-6.099,41.433-17.174c3.364-3.364,3.364-8.819-0.001-12.184   c-3.363-3.363-8.818-3.364-12.184,0.001c-4.524,4.524-9.912,7.864-15.786,9.883C477.069,173.887,377.627,77.176,256.006,77.176   c-59.657,0-115.908,23.057-158.395,64.923c-41.293,40.688-65.012,94.625-67.123,152.338c-5.868-2.019-11.251-5.358-15.773-9.879   c-3.365-3.363-8.819-3.363-12.185,0c-3.364,3.366-3.364,8.819,0,12.185C13.603,307.818,28.317,313.917,43.962,313.917z    M355.934,284.557c-0.002,0.002-0.004,0.004-0.006,0.008c-2.337,2.337-4.908,4.352-7.653,6.04c-0.104-0.793-0.233-1.58-0.358-2.368   c-0.084-0.529-0.163-1.059-0.255-1.584c-0.19-1.079-0.405-2.152-0.631-3.221c-0.067-0.312-0.128-0.628-0.198-0.939   c-0.296-1.328-0.624-2.647-0.976-3.958c-0.008-0.029-0.015-0.058-0.023-0.088c-4.355-16.108-12.988-30.819-25.283-42.655   c-17.428-16.778-40.351-26.017-64.548-26.017c-1.506,0-3.007,0.039-4.502,0.11c-0.887,0.042-1.764,0.12-2.644,0.186   c-0.583,0.044-1.166,0.073-1.747,0.128c-1.235,0.116-2.46,0.269-3.68,0.433c-0.201,0.027-0.405,0.045-0.605,0.074   c-38.4,5.393-69.233,34.029-77.62,71.599c-0.048,0.215-0.093,0.434-0.14,0.65c-0.243,1.13-0.474,2.264-0.676,3.409   c-0.083,0.464-0.153,0.931-0.229,1.397c-0.15,0.929-0.297,1.859-0.42,2.798c-0.001,0.01-0.003,0.019-0.004,0.029   c-2.72-1.665-5.294-3.663-7.647-6.014c-0.004-0.004-0.009-0.01-0.013-0.014c-4.913-4.913-10.544-8.842-16.653-11.698   c13.51-52.579,61.947-90.378,116.583-90.378c54.678,0,103.072,37.782,116.586,90.377   C366.48,275.715,360.848,279.643,355.934,284.557z M297.459,284.578c-0.008-0.008-0.013-0.015-0.02-0.023   c-11.075-11.074-25.79-17.173-41.435-17.173s-30.357,6.099-41.433,17.174c-0.002,0.002-0.004,0.004-0.006,0.008   c-9.306,9.303-21.976,13.225-34.13,11.79c0-0.002,0-0.005,0-0.008c0.056-0.661,0.131-1.317,0.205-1.973   c0.058-0.53,0.112-1.061,0.182-1.587c0.123-0.924,0.266-1.841,0.422-2.754c0.036-0.211,0.067-0.423,0.104-0.632   c6.191-34.343,35.786-60.588,70.983-62.305c1.217-0.057,2.44-0.089,3.672-0.089c1.24,0,2.472,0.032,3.696,0.09   c35.383,1.727,64.962,28.102,71.012,62.637c0.046,0.27,0.089,0.543,0.134,0.814c0.14,0.856,0.266,1.717,0.377,2.583   c0.06,0.478,0.113,0.96,0.165,1.441c0.066,0.604,0.124,1.212,0.176,1.82c-1.609,0.188-3.235,0.295-4.88,0.295   C315.654,296.685,305.275,292.385,297.459,284.578z M256.004,94.407c112.816,0,204.978,90.091,208.342,202.108   c-9.635-0.852-18.589-5.01-25.525-11.936c-0.008-0.008-0.013-0.015-0.02-0.023c-0.606-0.606-1.228-1.19-1.854-1.766   c-0.009-0.162-0.012-0.322-0.03-0.485c-3.612-32.14-15.815-62.821-35.285-88.729c-2.858-3.803-8.259-4.568-12.064-1.711   c-3.803,2.859-4.57,8.26-1.711,12.064c14.934,19.87,25.122,42.847,29.879,67.092c-6.435-2.383-13.305-3.638-20.368-3.638   c-2.781,0-5.529,0.202-8.237,0.58c-7.366-28.114-23.711-53.522-46.432-71.975c-24.407-19.821-55.195-30.738-86.695-30.738   c-31.442,0-62.187,10.882-86.571,30.637c-22.78,18.457-39.172,43.912-46.551,72.077c-2.707-0.379-5.458-0.582-8.24-0.582   c-7.073,0-13.953,1.259-20.396,3.65c14.91-76.734,82.14-133.006,161.758-133.006c42.776,0,83.315,16.312,114.154,45.93   c3.433,3.298,8.887,3.186,12.182-0.246c3.297-3.432,3.187-8.886-0.246-12.182c-34.064-32.717-78.844-50.734-126.091-50.734   c-45.163,0-88.48,16.655-121.973,46.898c-33.2,29.976-54.144,70.855-58.993,115.121c-0.618,0.569-1.231,1.145-1.829,1.741   c-0.008,0.008-0.013,0.015-0.02,0.023c-6.936,6.926-15.887,11.084-25.522,11.936C51.033,184.795,143.855,94.407,256.004,94.407z"/>
	<path style="fill:#231F20;" d="M497.295,345.017c-16.124,16.124-42.36,16.126-58.487,0.006c-0.002-0.002-0.004-0.005-0.008-0.008   c-11.075-11.076-25.79-17.176-41.435-17.176c-15.645,0-30.358,6.1-41.433,17.176c-0.005,0.004-0.009,0.011-0.014,0.015   c-16.13,16.109-42.353,16.107-58.475-0.008c-0.002-0.002-0.004-0.005-0.008-0.008c-11.075-11.076-25.79-17.176-41.435-17.176   s-30.358,6.1-41.433,17.176c-0.004,0.004-0.009,0.01-0.013,0.014c-16.125,16.109-42.346,16.107-58.472,0.001   c-0.005-0.004-0.009-0.011-0.014-0.015c-11.073-11.076-25.788-17.176-41.431-17.176s-30.357,6.1-41.434,17.176   c-0.002,0.002-0.004,0.005-0.008,0.008c-16.127,16.121-42.363,16.118-58.49-0.006c-3.363-3.363-8.818-3.364-12.184,0.001   c-3.364,3.364-3.364,8.819,0.001,12.184c11.423,11.422,26.428,17.133,41.434,17.133s30.009-5.712,41.433-17.133   c0.008-0.008,0.013-0.016,0.02-0.023c7.819-7.808,18.196-12.108,29.227-12.108c11.033,0,21.414,4.302,29.232,12.115   c0.005,0.005,0.01,0.011,0.015,0.017c11.423,11.421,26.428,17.132,41.435,17.132c15.005,0,30.009-5.711,41.433-17.132   c0.005-0.005,0.009-0.011,0.014-0.015c7.819-7.813,18.199-12.116,29.234-12.116c11.031,0,21.41,4.301,29.229,12.108   c0.008,0.008,0.014,0.016,0.02,0.023c11.424,11.423,26.425,17.133,41.433,17.133c15.004,0,30.011-5.713,41.434-17.133   c0.005-0.005,0.01-0.012,0.015-0.017c7.818-7.812,18.198-12.115,29.233-12.115c11.031,0,21.41,4.301,29.229,12.108   c0.008,0.008,0.014,0.016,0.022,0.023c11.423,11.422,26.427,17.133,41.433,17.133c15.005,0,30.008-5.711,41.433-17.133   c3.364-3.365,3.364-8.819,0-12.185C506.115,341.654,500.661,341.654,497.295,345.017z"/>
	<path style="fill:#231F20;" d="M497.295,405.474c-7.82,7.82-18.206,12.126-29.247,12.126c-11.031,0-21.41-4.3-29.226-12.107   c-0.008-0.008-0.013-0.015-0.02-0.023c-11.075-11.074-25.79-17.173-41.435-17.173c-15.645,0-30.357,6.099-41.433,17.174   c-0.002,0.002-0.004,0.004-0.006,0.007c-7.82,7.817-18.204,12.121-29.244,12.121c-11.031,0-21.41-4.3-29.226-12.107   c-0.008-0.008-0.013-0.015-0.02-0.023c-11.075-11.074-25.79-17.173-41.435-17.173s-30.357,6.099-41.433,17.174   c-0.002,0.002-0.003,0.004-0.005,0.006c-16.123,16.119-42.351,16.119-58.48,0.008c-0.004-0.004-0.009-0.01-0.013-0.014   c-11.074-11.075-25.788-17.174-41.431-17.174s-30.357,6.099-41.434,17.173c-0.008,0.008-0.013,0.015-0.02,0.023   c-7.818,7.807-18.195,12.107-29.226,12.107c-11.042,0-21.428-4.307-29.249-12.128c-3.365-3.363-8.819-3.363-12.185,0   c-3.364,3.365-3.364,8.819,0,12.185c11.075,11.074,25.79,17.173,41.435,17.173s30.357-6.099,41.433-17.174   c0.002-0.002,0.004-0.005,0.008-0.008c7.82-7.817,18.204-12.12,29.24-12.12c11.033,0,21.414,4.302,29.233,12.114   c0.005,0.005,0.01,0.011,0.014,0.016c11.423,11.422,26.428,17.133,41.435,17.133c15.005,0,30.01-5.711,41.434-17.133   c0.008-0.008,0.013-0.015,0.02-0.023c7.818-7.807,18.195-12.107,29.227-12.107c11.039,0,21.422,4.305,29.241,12.12   c0.002,0.002,0.004,0.005,0.008,0.008c11.074,11.075,25.788,17.174,41.433,17.174c15.645,0,30.358-6.099,41.435-17.173   c0.008-0.008,0.013-0.015,0.02-0.023c7.818-7.807,18.195-12.107,29.227-12.107c11.039,0,21.422,4.305,29.241,12.12   c0.002,0.002,0.004,0.005,0.008,0.008c11.074,11.075,25.788,17.174,41.433,17.174c15.645,0,30.357-6.099,41.433-17.174   c3.364-3.364,3.364-8.819-0.001-12.184C506.116,402.11,500.661,402.108,497.295,405.474z"/>
</g>
<g>
</g>
<g>
</g>
<g>
</g>
<g>
</g>
<g>
</g>
<g>
</g>
<g>
</g>
<g>
</g>
<g>
</g>
<g>
</g>
<g>
</g>
<g>
</g>
<g>
</g>
<g>
</g>
<g>
</g>
</svg>
