<?xml version="1.0" encoding="iso-8859-1"?>
<!-- Generator: Adobe Illustrator 19.0.0, SVG Export Plug-In . SVG Version: 6.00 Build 0)  -->
<svg xmlns="http://www.w3.org/2000/svg" xmlns:xlink="http://www.w3.org/1999/xlink" version="1.1" id="Layer_1" x="0px" y="0px" viewBox="0 0 512.001 512.001" style="enable-background:new 0 0 512.001 512.001;" xml:space="preserve">
<path style="fill:#CCCCCC;" d="M268.64,81.77c-11.217-21.118-28.294-39.448-50.516-52.301  C154.923-7.084,74.057,14.518,37.504,77.715C0.951,140.917,22.552,221.784,85.751,258.338c12.786,7.395,26.298,12.41,40.019,15.18  c10.75-7.872,24.002-12.525,38.349-12.525c7.205,0,14.124,1.189,20.6,3.349c10.098-44.693,47.798-78.902,94.25-83.776  c6.789-23.458,6.787-47.932,0.685-70.781"/>
<path style="fill:#BCBAB7;" d="M115.303,262.03c-63.199-36.554-84.8-117.421-48.247-180.623  c22.565-39.013,62.018-62.164,103.775-65.58c-49.332-4.052-98.923,19.889-125.351,65.58C8.927,144.61,30.528,225.477,93.727,262.03  c12.785,7.396,26.298,12.41,40.018,15.18c2.009-1.47,4.105-2.828,6.277-4.064C131.584,270.35,123.301,266.656,115.303,262.03z"/>
<path style="fill:#83D4ED;" d="M369.578,214.326c-19.78-21.155-47.935-34.379-79.179-34.379c-51.609,0-94.763,36.087-105.679,84.396  c-6.476-2.16-13.395-3.349-20.6-3.349c-22.171,0-41.738,11.102-53.474,28.044c-6.551-1.692-13.42-2.601-20.501-2.601  c-45.02,0-81.516,36.495-81.516,81.516c0,45.018,36.495,81.518,81.516,81.518h89.874c0.19-27.709,22.7-50.111,50.446-50.111  c5.262,0,10.339,0.807,15.108,2.302c-0.025-0.764-0.059-1.528-0.059-2.302c0-37.48,30.384-67.863,67.861-67.863  c32.316,0,59.341,22.599,66.176,52.848c4.055-1.354,8.388-2.097,12.898-2.097c13.884,0,26.137,6.951,33.485,17.563  c4.102-1.061,8.405-1.631,12.839-1.631c18.583,0,34.84,9.932,43.769,24.773c12.942-14.295,20.83-33.254,20.83-54.055  c0-44.503-36.074-80.574-80.574-80.574c-8.403,0-16.505,1.288-24.119,3.675c0.038-1.221,0.091-2.444,0.091-3.675  c0-18.197-4.485-35.347-12.41-50.405"/>
<path style="fill:#9FDEF7;" d="M422.48,289.858c-8.403,0-16.505,1.288-24.119,3.675c0.038-1.221,0.091-2.444,0.091-3.675  c0-18.197-4.485-35.347-12.41-50.405l-16.783-23.591c-19.78-21.155-47.935-34.379-79.179-34.379  c-25.523,0-48.971,8.836-67.483,23.604c-7.103,22.78-10.934,47.006-10.934,72.126c0,44.898,12.245,86.931,33.551,122.968  c0.385-37.149,30.607-67.148,67.843-67.148c32.316,0,59.341,22.598,66.176,52.848c4.055-1.354,8.388-2.097,12.898-2.097  c13.884,0,26.137,6.951,33.485,17.563c4.102-1.061,8.405-1.631,12.839-1.631c18.583,0,34.84,9.932,43.769,24.773  c12.942-14.295,20.83-33.254,20.83-54.055C503.054,325.928,466.98,289.858,422.48,289.858z"/>
<g>
	<circle style="fill:#EAE6E1;" cx="98.051" cy="90.594" r="20.881"/>
	<circle style="fill:#EAE6E1;" cx="175.673" cy="147.392" r="25.189"/>
	<path style="fill:#EAE6E1;" d="M100.78,206.804c3.132-18.406-5.38-37.599-22.609-47.229c-18.931-10.584-42.176-6.14-56.02,9.421   c5.515,28.443,20.294,54.932,42.984,74.639c8.285-1.701,16.065-5.691,22.318-11.693"/>
</g>
<path style="fill:#D8D1CA;" d="M49.456,154.297c-7.516,1.108-14.708,4.091-20.839,8.738c3.54,29.912,17.24,58.336,39.634,79.845  c5.249-1.467,10.224-3.885,14.673-7.152C62.624,213.034,51,184.136,49.456,154.297z"/>
<path style="fill:#C7E6F9;" d="M381.526,500.265H230.466c-27.863,0-50.451-22.588-50.451-50.451  c0-27.87,22.588-50.456,50.451-50.456c5.262,0,10.339,0.807,15.108,2.302c-0.025-0.764-0.059-1.528-0.059-2.302  c0-37.48,30.384-67.863,67.861-67.863c32.316,0,59.341,22.599,66.176,52.848c4.055-1.354,8.388-2.097,12.898-2.097  c13.884,0,26.137,6.951,33.485,17.563c4.102-1.061,8.405-1.631,12.839-1.631c28.192,0,51.045,22.853,51.045,51.043  s-22.853,51.044-51.045,51.044h-29.211"/>
<path style="fill:#E4F2F9;" d="M438.455,397.557c-4.434,0-8.738,0.568-12.839,1.631c-7.348-10.612-19.601-17.563-33.485-17.563  c-4.51,0-8.843,0.743-12.898,2.097c-6.836-30.25-33.861-52.848-66.176-52.848c-37.477,0-67.861,30.383-67.861,67.863  c0,0.495,0.022,0.985,0.038,1.474c26.04,44.024,65.623,79.081,113.025,99.432h22.948h28.038h29.211  c28.192,0,51.045-22.854,51.045-51.044C489.5,420.41,466.647,397.557,438.455,397.557z"/>
<g>
	<path style="fill:#231F20;" d="M98.048,61.081c-12.962,0-24.276,8.314-28.153,20.687c-2.359,7.523-1.646,15.513,2.006,22.497   c3.651,6.986,9.804,12.131,17.324,14.489c2.871,0.901,5.843,1.357,8.832,1.357c12.96,0,24.273-8.314,28.154-20.691   c4.865-15.525-3.806-32.115-19.333-36.983C104.009,61.538,101.038,61.081,98.048,61.081z M109.747,94.258   c-1.611,5.141-6.309,8.596-11.687,8.596c-1.236,0-2.471-0.191-3.67-0.566c-3.123-0.979-5.678-3.116-7.195-6.016   c-1.515-2.9-1.812-6.218-0.832-9.341c1.61-5.139,6.307-8.593,11.686-8.593c1.237,0,2.473,0.191,3.67,0.566   C108.166,80.925,111.767,87.814,109.747,94.258z"/>
	<path style="fill:#231F20;" d="M143.398,137.273c-2.703,8.62-1.886,17.775,2.297,25.781c4.185,8.006,11.236,13.903,19.856,16.605   c3.292,1.032,6.698,1.554,10.123,1.554c14.854,0,27.819-9.528,32.263-23.709c5.576-17.793-4.363-36.806-22.156-42.385   c-3.292-1.031-6.697-1.554-10.122-1.554C160.808,113.565,147.843,123.094,143.398,137.273z M159.866,142.435   c2.178-6.947,8.525-11.615,15.795-11.615c1.674,0,3.343,0.257,4.961,0.765c8.713,2.732,13.582,12.044,10.851,20.757   c-2.178,6.947-8.526,11.615-15.797,11.615c-1.673,0-3.342-0.257-4.962-0.765c-4.22-1.323-7.674-4.211-9.723-8.131   C158.94,151.142,158.541,146.658,159.866,142.435z"/>
	<path style="fill:#231F20;" d="M512.001,368.896c0-49.185-40.016-89.202-89.202-89.202c-5.264,0-10.49,0.458-15.627,1.368   c-1.027-16.464-5.53-32.634-13.176-47.163c-2.219-4.216-7.436-5.837-11.654-3.617c-4.217,2.22-5.836,7.436-3.617,11.654   c7.469,14.192,11.416,30.232,11.416,46.388c0,0.867-0.03,1.73-0.06,2.588l-0.026,0.819c-0.086,2.791,1.184,5.453,3.408,7.141   c2.225,1.688,5.128,2.198,7.797,1.36c6.944-2.176,14.19-3.28,21.539-3.28c39.671,0,71.946,32.275,71.946,71.946   c0,14.321-4.238,28.168-12.088,39.92c-0.3-0.325-0.617-0.631-0.924-0.948c-0.342-0.355-0.681-0.712-1.031-1.058   c-0.232-0.228-0.469-0.448-0.704-0.672c-0.545-0.521-1.096-1.034-1.659-1.535c-0.088-0.078-0.178-0.154-0.266-0.232   c-10.506-9.216-24.255-14.821-39.296-14.821c-3.14,0-6.272,0.247-9.362,0.734c-9.31-10.528-22.745-16.667-36.962-16.667   c-2.309,0-4.606,0.161-6.882,0.481c-4.678-13.326-13.048-25.267-24.12-34.229c-13.544-10.964-30.616-17.003-48.071-17.003   c-39.396,0-71.931,29.937-76.049,68.258c-2.269-0.262-4.56-0.395-6.861-0.395c-0.969,0-1.931,0.027-2.887,0.073   c-0.367,0.017-0.728,0.052-1.093,0.076c-0.58,0.039-1.162,0.077-1.738,0.133c-0.463,0.044-0.921,0.105-1.382,0.16   c-0.463,0.056-0.925,0.11-1.385,0.177c-0.526,0.076-1.048,0.165-1.569,0.256c-0.374,0.065-0.749,0.128-1.121,0.201   c-0.583,0.112-1.164,0.236-1.741,0.366c-0.286,0.065-0.572,0.129-0.856,0.198c-0.648,0.155-1.292,0.321-1.933,0.498   c-0.182,0.051-0.363,0.102-0.545,0.155c-0.729,0.209-1.452,0.428-2.169,0.664c-0.045,0.015-0.09,0.03-0.135,0.045   c-18.265,6.059-32.599,20.8-38.088,39.316c-0.006,0.024-0.013,0.047-0.02,0.07c-0.741,2.512-1.334,5.086-1.738,7.724H90.145   c-40.19,0-72.887-32.698-72.887-72.889c0-40.19,32.697-72.887,72.887-72.887c6.194,0,12.365,0.783,18.343,2.327   c3.499,0.901,7.193-0.47,9.251-3.441c3.934-5.68,8.813-10.503,14.341-14.323c0.049-0.033,0.097-0.069,0.146-0.102   c8.275-5.678,17.995-9.103,28.191-9.775c0.183-0.012,0.367-0.023,0.55-0.032c1.047-0.058,2.097-0.097,3.153-0.097   c6.078,0,12.089,0.977,17.869,2.906c2.31,0.773,4.843,0.531,6.967-0.669c0.796-0.449,1.508-1.016,2.114-1.675   c1.011-1.099,1.729-2.453,2.065-3.939c0.306-1.356,0.643-2.696,1-4.027c0.191-0.708,0.403-1.404,0.609-2.105   c0.169-0.581,0.333-1.166,0.512-1.742c0.318-1.016,0.657-2.021,1.005-3.022c0.074-0.216,0.145-0.434,0.221-0.647   c12.741-35.749,44.945-61.521,83.385-65.553c0.043-0.004,0.083-0.017,0.125-0.023c3.424-0.351,6.892-0.55,10.404-0.55   c27.917,0,53.798,11.238,72.876,31.644c3.255,3.48,8.715,3.664,12.196,0.41c3.482-3.255,3.664-8.715,0.41-12.196   c-22.053-23.586-53.211-37.114-85.482-37.114c-0.11,0-0.219,0.006-0.328,0.008c4.178-21.04,3.503-42.857-2.08-63.766   c-1.231-4.603-5.958-7.343-10.563-6.11c-4.604,1.231-7.339,5.959-6.11,10.563c5.328,19.947,5.588,40.832,0.795,60.752   c-0.336,0.053-0.669,0.121-1.005,0.176c-0.41,0.069-0.819,0.142-1.227,0.215c-1.34,0.236-2.672,0.496-3.995,0.778   c-0.109,0.024-0.219,0.045-0.328,0.069c-41.17,8.886-74.519,39.35-86.953,79.801c-0.811-0.163-1.629-0.292-2.444-0.428   c-0.381-0.064-0.759-0.142-1.141-0.2c-0.11-0.016-0.221-0.026-0.332-0.041c-3.491-0.507-7.02-0.769-10.566-0.769   c-1.266,0-2.526,0.043-3.782,0.107c-0.22,0.011-0.439,0.023-0.658,0.036c-12.8,0.757-25.013,4.777-35.736,11.786   c-11.849-2.76-23.227-7.267-33.872-13.423c-2.558-1.48-5.038-3.043-7.448-4.673c3.906-2.205,7.539-4.894,10.805-8.028   c3.438-3.3,3.551-8.761,0.251-12.2c-3.3-3.438-8.762-3.552-12.199-0.251c-3.983,3.821-8.77,6.679-14.014,8.391   c-0.344-0.322-0.679-0.651-1.019-0.977c-0.523-0.502-1.044-1.004-1.557-1.514c-0.444-0.441-0.884-0.884-1.321-1.331   c-0.617-0.632-1.225-1.27-1.828-1.915c-0.448-0.479-0.892-0.961-1.331-1.446c-0.64-0.706-1.272-1.418-1.894-2.14   c-0.308-0.357-0.614-0.714-0.918-1.074c-0.811-0.962-1.615-1.932-2.395-2.917c-0.104-0.131-0.202-0.263-0.305-0.394   c-0.742-0.945-1.469-1.903-2.183-2.868c-0.209-0.283-0.418-0.566-0.624-0.851c-0.778-1.071-1.543-2.15-2.286-3.245   c-0.081-0.119-0.157-0.239-0.237-0.359c-0.664-0.986-1.31-1.984-1.947-2.989c-0.212-0.335-0.424-0.671-0.633-1.008   c-0.653-1.054-1.293-2.115-1.914-3.188c-0.22-0.382-0.431-0.768-0.647-1.152c-0.4-0.709-0.793-1.421-1.18-2.138   c-0.306-0.568-0.61-1.138-0.907-1.711c-0.244-0.469-0.478-0.944-0.715-1.416c-0.642-1.278-1.265-2.564-1.86-3.862   c-0.071-0.155-0.143-0.311-0.215-0.466c-3.42-7.53-6.072-15.38-7.934-23.418c11.512-10.215,28.671-12.268,42.351-4.619   c13.557,7.577,20.916,22.949,18.312,38.25c-0.799,4.697,2.36,9.154,7.059,9.954c4.693,0.793,9.154-2.361,9.954-7.059   c3.827-22.486-6.987-45.074-26.905-56.208c-16.925-9.46-37.481-8.806-53.66,0.601c-1.727-23.834,3.411-48.409,16.25-70.608   C79.084,23.06,154.822,2.832,213.801,36.942c20.069,11.608,36.397,28.511,47.216,48.88c2.235,4.207,7.458,5.807,11.668,3.573   c4.208-2.236,5.808-7.459,3.573-11.668c-12.337-23.226-30.946-42.494-53.817-55.722C155.226-16.879,68.911,6.18,30.035,73.396   c-17.479,30.222-22.431,64.3-16.489,96.194c0.024,0.349,0.067,0.7,0.135,1.048c2.076,10.707,5.421,21.09,9.856,30.956   c0.162,0.361,0.319,0.725,0.484,1.085c0.373,0.813,0.754,1.622,1.143,2.428c0.569,1.183,1.151,2.361,1.753,3.529   c0.262,0.507,0.534,1.008,0.802,1.512c0.622,1.17,1.26,2.334,1.914,3.488c0.159,0.279,0.311,0.562,0.471,0.839   c0.842,1.459,1.719,2.9,2.614,4.331c0.163,0.261,0.326,0.522,0.491,0.782c0.924,1.455,1.876,2.895,2.855,4.317   c0.124,0.181,0.251,0.36,0.376,0.54c2.041,2.935,4.198,5.799,6.471,8.587c0.17,0.209,0.339,0.42,0.51,0.628   c1.059,1.282,2.143,2.547,3.252,3.796c0.266,0.301,0.536,0.599,0.806,0.896c1.089,1.207,2.195,2.403,3.329,3.574   c0.247,0.256,0.502,0.504,0.751,0.757c0.947,0.963,1.91,1.912,2.888,2.851c0.358,0.344,0.713,0.69,1.074,1.03   c1.12,1.052,2.262,2.083,3.421,3.101c0.18,0.157,0.352,0.326,0.532,0.482c0.092,0.079,0.189,0.149,0.283,0.224   c6.608,5.716,13.835,10.901,21.671,15.433c8.615,4.983,17.661,9.003,27.019,12.049c-0.448,0.517-0.908,1.019-1.342,1.55   c-5.582-1.061-11.264-1.598-16.963-1.598C40.439,277.807,0,318.246,0,367.951c0,49.706,40.439,90.146,90.144,90.146h81.834   c4.041,28.667,28.722,50.797,58.487,50.797h151.059c4.765,0,8.628-3.863,8.628-8.628c0-4.765-3.863-8.628-8.628-8.628H230.464   c-23.061,0-41.822-18.762-41.822-41.822c0-0.245,0.014-0.487,0.018-0.731c0.01-0.549,0.022-1.096,0.053-1.639   c0.008-0.126,0.02-0.251,0.029-0.378c0.039-0.589,0.083-1.176,0.146-1.758c0.006-0.056,0.015-0.111,0.022-0.167   c2.341-20.851,20.134-37.154,41.555-37.154c4.276,0,8.49,0.642,12.527,1.907c2.67,0.836,5.578,0.326,7.802-1.365   c2.226-1.692,3.493-4.358,3.402-7.154l-0.017-0.472c-0.018-0.513-0.038-1.026-0.038-1.544c0-32.662,26.572-59.235,59.233-59.235   c27.429,0,51.721,19.396,57.76,46.122c0.538,2.378,2.056,4.418,4.18,5.615c2.125,1.197,4.656,1.44,6.968,0.668   c3.286-1.098,6.707-1.653,10.166-1.653c10.522,0,20.388,5.177,26.392,13.846c2.059,2.976,5.752,4.344,9.256,3.442   c3.474-0.9,7.067-1.356,10.676-1.356c0.841,0,1.675,0.032,2.507,0.08c0.311,0.018,0.619,0.045,0.928,0.071   c0.497,0.039,0.992,0.087,1.485,0.143c0.403,0.046,0.806,0.096,1.206,0.154c0.33,0.047,0.657,0.105,0.985,0.16   c10.927,1.853,20.448,7.887,26.838,16.407c0.025,0.033,0.049,0.066,0.073,0.098c5.271,7.069,8.395,15.826,8.395,25.301   c0,23.388-19.029,42.415-42.417,42.415h-29.209c-4.765,0-8.628,3.863-8.628,8.628s3.863,8.628,8.628,8.628h29.211   c32.904,0,59.673-26.768,59.673-59.672c0-8.986-2.009-17.509-5.582-25.16C505.232,408.373,512.001,389.017,512.001,368.896z"/>
	<circle style="fill:#231F20;" cx="180.019" cy="66.746" r="10.818"/>
</g>
<g>
</g>
<g>
</g>
<g>
</g>
<g>
</g>
<g>
</g>
<g>
</g>
<g>
</g>
<g>
</g>
<g>
</g>
<g>
</g>
<g>
</g>
<g>
</g>
<g>
</g>
<g>
</g>
<g>
</g>
</svg>
