<?xml version="1.0" encoding="iso-8859-1"?>
<!-- Generator: Adobe Illustrator 19.0.0, SVG Export Plug-In . SVG Version: 6.00 Build 0)  -->
<svg xmlns="http://www.w3.org/2000/svg" xmlns:xlink="http://www.w3.org/1999/xlink" version="1.1" id="Layer_1" x="0px" y="0px" viewBox="0 0 512 512" style="enable-background:new 0 0 512 512;" xml:space="preserve">
<path style="fill:#F29F26;" d="M267.756,366.645l50.269-63.633c0.725-0.875,0.88-2.088,0.398-3.113  c-0.481-1.028-1.514-1.684-2.648-1.684l-51.428,6.355l35.276-99.856c0.004-0.013,0.008-0.022,0.013-0.035  c9.168-25.952-7.453-3.214-7.453-3.214l0,0L185.16,346.592c-0.476,0.906-0.442,1.996,0.09,2.873c0.53,0.875,1.479,1.411,2.502,1.411  l46.34-4.236l-41.128,105.457c-0.524,1.339,0.001,2.856,1.238,3.585c0.464,0.273,0.977,0.406,1.483,0.406  c0.846,0,1.68-0.364,2.252-1.055l53-67.092"/>
<path style="fill:#9FDEF7;" d="M389.448,325.601h33.461c44.52,0,80.618-36.094,80.618-80.62c0-44.53-36.099-80.629-80.618-80.629  c-8.415,0-16.522,1.293-24.147,3.68c0.046-1.218,0.097-2.443,0.097-3.68c0-59.885-48.552-108.439-108.441-108.439  c-51.645,0-94.824,36.107-105.746,84.443c-6.48-2.157-13.403-3.347-20.612-3.347c-22.184,0-41.767,11.112-53.508,28.06  c-6.556-1.692-13.427-2.6-20.513-2.6c-45.049,0-81.567,36.519-81.567,81.562c0,45.047,36.518,81.57,81.567,81.57h110.6  l91.544-124.137l0,0c0,0,16.621-22.738,7.453,3.214c-0.004,0.013-0.008,0.022-0.013,0.035l-35.276,99.856l51.428-6.355  c1.133,0,2.167,0.656,2.648,1.684c0.482,1.026,0.327,2.238-0.398,3.113L300.182,325.6h61.024"/>
<path style="fill:#83D4ED;" d="M182.182,147.86c0-5.35,0.213-10.649,0.621-15.894c-5.936-1.784-12.22-2.764-18.742-2.764  c-22.184,0-41.767,11.112-53.508,28.06c-6.556-1.692-13.427-2.6-20.513-2.6c-45.049,0-81.567,36.519-81.567,81.562  c0,45.047,36.518,81.57,81.567,81.57h110.6l29.239-39.651C200.13,242.986,182.182,197.523,182.182,147.86z"/>
<path style="fill:#EF8229;" d="M195.164,349.954c0.082,0,0.161-0.004,0.241-0.012l42.076-3.847l-45.926,101.466  c-1.004,2.563-0.012,5.436,2.362,6.833c0.132,0.077,0.273,0.14,0.412,0.207l82.692-134.748l-42.076,3.847  c-0.081,0.007-0.16,0.012-0.241,0.012c-1.937,0-3.763-1.03-4.767-2.688c-1.005-1.659-1.07-3.757-0.169-5.473  c0.063-0.119,0.133-0.234,0.214-0.341l80.658-128.672c-0.526-0.319-1.128-0.507-1.776-0.507c-0.957,0-3.873,0-11.398,10.293  L190.441,341.45c-0.079,0.108-0.15,0.222-0.213,0.341c-0.9,1.717-0.836,3.815,0.169,5.473  C191.401,348.923,193.227,349.954,195.164,349.954z"/>
<path style="fill:#231F20;" d="M422.909,155.879c-5.316,0-10.595,0.468-15.788,1.398C403.45,96.094,352.51,47.44,290.42,47.44  c-26.682,0-52.776,9.228-73.476,25.982c-18.097,14.65-31.472,34.499-38.272,56.579c-4.803-0.973-9.691-1.465-14.61-1.465  c-22.171,0-43.07,10.023-56.985,27.074c-5.605-1.072-11.313-1.613-17.037-1.613C40.391,153.996,0,194.385,0,244.03  c0,49.65,40.391,90.043,90.04,90.043h93.824l-5.523,7.49c-0.255,0.346-0.484,0.712-0.684,1.093  c-1.843,3.512-1.71,7.802,0.344,11.196c2.053,3.39,5.788,5.496,9.751,5.496c0.257,0,0.515-0.012,0.771-0.035l32.697-2.989  l-36.145,92.681c-2.055,5.244-0.023,11.122,4.833,13.98c1.752,1.03,3.749,1.574,5.777,1.574c3.408,0,6.608-1.504,8.778-4.125  c0.041-0.05,0.082-0.101,0.122-0.151l53-67.092c2.901-3.672,2.275-9-1.396-11.9c-3.672-2.901-9-2.275-11.9,1.396l-29.943,37.904  l27.641-70.874c1.067-2.736,0.642-5.827-1.123-8.173c-1.764-2.346-4.611-3.616-7.542-3.344l-33.718,3.082l7.855-10.651  c0.001-0.001,0.002-0.002,0.003-0.003l74.282-100.729l-25.38,71.847c-0.978,2.767-0.453,5.844,1.385,8.131  c1.84,2.288,4.733,3.464,7.644,3.101l37.641-4.652l-41.921,53.066c-2.901,3.672-2.275,9,1.396,11.9c3.672,2.9,9,2.277,11.9-1.396  l29.881-37.824h56.92c4.679,0,8.473-3.794,8.473-8.473c0-4.679-3.794-8.473-8.473-8.473h-43.532l6.96-8.81  c0.794-0.982,1.383-2.082,1.807-3.236c1.035-2.817,0.968-5.987-0.341-8.773c-1.866-3.99-5.917-6.566-10.322-6.566  c-0.347,0-0.694,0.022-1.04,0.065l-37.838,4.675l30.714-86.945c0.001-0.002,0.001-0.003,0.002-0.004  c0.004-0.015,0.01-0.03,0.015-0.044c0.169-0.48,0.343-0.971,0.517-1.471c0.031-0.088,0.06-0.177,0.091-0.264  c0.058-0.167,0.116-0.335,0.174-0.503c0.019-0.055,0.037-0.11,0.056-0.165c0.068-0.199,0.136-0.398,0.203-0.599  c0.036-0.107,0.071-0.214,0.106-0.321c0.051-0.155,0.103-0.308,0.153-0.464c0.032-0.097,0.063-0.196,0.094-0.294  c0.053-0.164,0.105-0.328,0.157-0.492c0.034-0.109,0.067-0.218,0.1-0.327c0.049-0.157,0.097-0.314,0.144-0.472  c0.029-0.095,0.055-0.191,0.083-0.286c0.05-0.172,0.101-0.342,0.149-0.515c0.033-0.118,0.064-0.235,0.096-0.354  c0.041-0.15,0.083-0.301,0.123-0.451c0.025-0.096,0.048-0.192,0.073-0.287c0.044-0.175,0.09-0.35,0.132-0.523  c0.013-0.053,0.024-0.106,0.037-0.159c0.051-0.215,0.102-0.43,0.148-0.646c0.019-0.088,0.036-0.177,0.054-0.265  c0.038-0.18,0.076-0.36,0.11-0.54c0.016-0.084,0.03-0.167,0.044-0.252c0.034-0.184,0.068-0.368,0.097-0.552  c0.013-0.077,0.022-0.154,0.034-0.231c0.029-0.19,0.058-0.378,0.084-0.567c0.01-0.072,0.016-0.144,0.024-0.216  c0.023-0.192,0.047-0.384,0.065-0.575c0.006-0.069,0.01-0.137,0.016-0.205c0.017-0.193,0.033-0.386,0.043-0.576  c0.004-0.076,0.004-0.15,0.008-0.226c0.008-0.183,0.017-0.368,0.019-0.55c0.001-0.061-0.002-0.122-0.002-0.182  c0-0.194,0.001-0.387-0.005-0.577c-0.003-0.1-0.012-0.197-0.017-0.294c-0.008-0.151-0.014-0.304-0.026-0.453  c-0.01-0.111-0.025-0.22-0.038-0.33c-0.015-0.135-0.028-0.27-0.047-0.404c-0.018-0.123-0.042-0.244-0.064-0.365  c-0.02-0.118-0.037-0.235-0.061-0.352c-0.026-0.126-0.06-0.25-0.091-0.375c-0.026-0.109-0.049-0.219-0.079-0.326  c-0.041-0.146-0.09-0.289-0.138-0.432c-0.026-0.082-0.05-0.165-0.078-0.247c-0.064-0.176-0.136-0.346-0.209-0.518  c-0.02-0.047-0.036-0.094-0.056-0.141c-0.095-0.212-0.199-0.42-0.311-0.626c-0.002-0.003-0.003-0.006-0.004-0.01  c-0.102-0.185-0.214-0.366-0.33-0.545c-0.014-0.022-0.025-0.044-0.04-0.066c-0.115-0.174-0.241-0.343-0.372-0.509  c-0.019-0.024-0.035-0.051-0.055-0.075c-0.759-0.952-1.762-1.788-3.06-2.471c-7.57-3.995-14.299,3.226-20.416,11.595  l-89.004,120.693H90.04c-40.304,0.001-73.094-32.79-73.094-73.096c0-40.301,32.79-73.089,73.094-73.089  c6.213,0,12.401,0.784,18.396,2.331c3.439,0.889,7.061-0.462,9.082-3.379c10.591-15.286,27.991-24.412,46.545-24.412  c6.096,0,12.13,0.981,17.935,2.913c2.272,0.758,4.755,0.517,6.839-0.659c2.084-1.176,3.574-3.178,4.102-5.513  c10.355-45.829,50.441-77.837,97.481-77.837c55.122,0,99.968,44.845,99.968,99.966c0,1.002-0.039,1.995-0.076,2.984l-0.015,0.379  c-0.104,2.751,1.136,5.379,3.323,7.049c2.185,1.67,5.049,2.176,7.675,1.352c6.98-2.185,14.251-3.293,21.614-3.293  c39.78,0,72.145,32.37,72.145,72.156c0,39.783-32.365,72.147-72.145,72.147h-33.461c-4.679,0-8.473,3.794-8.473,8.473  c0,4.679,3.794,8.473,8.473,8.473h33.461c49.126,0,89.091-39.966,89.091-89.093C512,195.85,472.034,155.879,422.909,155.879z"/>
<g>
</g>
<g>
</g>
<g>
</g>
<g>
</g>
<g>
</g>
<g>
</g>
<g>
</g>
<g>
</g>
<g>
</g>
<g>
</g>
<g>
</g>
<g>
</g>
<g>
</g>
<g>
</g>
<g>
</g>
</svg>
