<?xml version="1.0" encoding="iso-8859-1"?>
<!-- Generator: Adobe Illustrator 19.0.0, SVG Export Plug-In . SVG Version: 6.00 Build 0)  -->
<svg xmlns="http://www.w3.org/2000/svg" xmlns:xlink="http://www.w3.org/1999/xlink" version="1.1" id="Layer_1" x="0px" y="0px" viewBox="0 0 512 512" style="enable-background:new 0 0 512 512;" xml:space="preserve">
<path style="fill:#ED5145;" d="M231.656,86.368c16.976,9.801,36.907,9.852,53.309,1.886c1.304,18.186,11.312,35.423,28.291,45.225  c16.978,9.801,36.91,9.852,53.31,1.886c1.302,18.186,11.31,35.423,28.288,45.225c16.976,9.801,36.91,9.852,53.311,1.886  c1.302,18.186,11.312,35.423,28.288,45.225c8.517,4.916,17.777,7.379,26.962,7.607c-51.68,64.795-144.344,83.84-218.304,41.139  C211.15,233.746,181.313,143.974,211.587,66.82C216.375,74.662,223.14,81.452,231.656,86.368z"/>
<g>
	<path style="fill:#F29F26;" d="M285.112,276.45v-0.002c-38.949-22.486-37.413-100.959-0.607-187.985   c0.153-0.071,0.31-0.134,0.461-0.207c1.304,18.186,11.312,35.423,28.291,45.225c16.978,9.801,36.91,9.852,53.31,1.886   c1.302,18.186,11.31,35.423,28.288,45.225c16.976,9.801,36.91,9.852,53.311,1.886c0.013,0.17,0.038,0.336,0.05,0.503   C391.252,258.368,324.06,298.936,285.112,276.45z"/>
	<path style="fill:#F29F26;" d="M285.112,276.45L285.112,276.45l81.452-141.081c0.002-0.002,0.002-0.002,0.002-0.002   c1.302,18.186,11.31,35.423,28.288,45.225c16.976,9.801,36.91,9.852,53.311,1.886c1.302,18.186,11.312,35.423,28.288,45.225   c8.517,4.916,17.777,7.379,26.962,7.607C451.735,300.104,359.072,319.149,285.112,276.45z"/>
</g>
<path style="fill:#ED5145;" d="M366.566,135.366c1.302,18.186,11.31,35.423,28.288,45.225c16.976,9.801,36.91,9.852,53.311,1.886  c0.013,0.17,0.038,0.336,0.05,0.503c-56.963,75.388-124.155,115.954-163.104,93.468v-0.002l81.452-141.079L366.566,135.366z"/>
<g>
	<path style="fill:#F9A83D;" d="M498.595,231.539c-3.583-0.782-7.129-1.916-10.591-3.41c-0.083-0.035-0.164-0.072-0.246-0.107   c-0.543-0.239-1.085-0.486-1.624-0.741c-0.15-0.069-0.299-0.141-0.449-0.212c-0.485-0.236-0.967-0.479-1.447-0.729   c-0.158-0.083-0.318-0.162-0.474-0.245c-0.615-0.327-1.229-0.662-1.834-1.013c-0.832-0.48-1.641-0.983-2.439-1.495   c-0.112-0.071-0.222-0.143-0.334-0.214c-0.81-0.531-1.602-1.077-2.378-1.641c-0.029-0.019-0.058-0.041-0.086-0.063   c-8.454-6.163-14.817-14.296-18.829-23.388c-0.031-0.07-0.062-0.142-0.094-0.21c-0.371-0.857-0.727-1.718-1.056-2.591   c-0.05-0.126-0.097-0.255-0.145-0.381c-0.317-0.855-0.62-1.716-0.897-2.584c-0.035-0.106-0.068-0.212-0.1-0.321   c-0.246-0.785-0.473-1.577-0.687-2.371c-0.046-0.171-0.095-0.34-0.138-0.511c-0.216-0.832-0.407-1.667-0.585-2.506   c-0.025-0.119-0.059-0.237-0.084-0.356c-0.357-1.75-1.446-3.262-2.992-4.154s-3.4-1.08-5.097-0.515   c-0.119,0.04-0.241,0.071-0.361,0.111c-0.809,0.263-1.622,0.514-2.443,0.741c-0.178,0.048-0.356,0.094-0.534,0.141   c-0.784,0.21-1.572,0.407-2.364,0.583c-0.116,0.025-0.234,0.057-0.351,0.082c-0.884,0.193-1.774,0.357-2.666,0.509   c-0.143,0.024-0.282,0.05-0.424,0.073c-0.915,0.147-1.834,0.27-2.755,0.374c-0.083,0.009-0.164,0.019-0.246,0.027   c-9.877,1.072-20.099-0.377-29.662-4.614c-0.033-0.014-0.068-0.027-0.099-0.043c-0.876-0.389-1.746-0.803-2.609-1.239   c-0.117-0.06-0.235-0.119-0.352-0.181c-0.843-0.435-1.682-0.883-2.515-1.363c-0.829-0.48-1.638-0.983-2.437-1.497   c-0.112-0.07-0.222-0.142-0.333-0.212c-0.81-0.53-1.603-1.077-2.379-1.641c-0.029-0.019-0.058-0.041-0.085-0.062   c-8.452-6.163-14.816-14.292-18.827-23.382c-0.033-0.075-0.068-0.152-0.101-0.227c-0.371-0.85-0.723-1.708-1.052-2.575   c-0.053-0.133-0.1-0.268-0.15-0.402c-0.315-0.848-0.617-1.702-0.894-2.563c-0.038-0.114-0.07-0.233-0.105-0.348   c-0.244-0.775-0.467-1.554-0.678-2.338c-0.047-0.177-0.099-0.353-0.145-0.532c-0.212-0.824-0.403-1.659-0.579-2.492   c-0.026-0.121-0.061-0.241-0.085-0.363c-0.357-1.749-1.448-3.261-2.994-4.153l-0.002-0.001l-65.266,113.045   c16.048,21.631,37.4,39.087,62.136,50.448c50.54,2.426,101.466-16.985,137.135-55.851c1.509-1.645,2.027-3.97,1.354-6.101   C502.463,233.631,500.737,232.04,498.595,231.539z"/>
	<path style="fill:#F9A83D;" d="M302.501,247.236l65.268-113.045c-1.546-0.893-3.401-1.08-5.094-0.516   c-0.117,0.04-0.239,0.07-0.354,0.107c-0.813,0.266-1.631,0.517-2.453,0.746c-0.176,0.049-0.353,0.093-0.531,0.141   c-0.783,0.21-1.571,0.404-2.364,0.583c-0.117,0.026-0.236,0.057-0.354,0.082c-0.882,0.192-1.77,0.357-2.661,0.509   c-0.145,0.024-0.288,0.049-0.429,0.072c-0.914,0.148-1.829,0.271-2.751,0.376c-0.085,0.01-0.168,0.019-0.254,0.027   c-9.874,1.071-20.096-0.377-29.658-4.613c-0.033-0.015-0.065-0.027-0.097-0.043c-0.876-0.389-1.746-0.804-2.612-1.239   c-0.116-0.06-0.234-0.12-0.35-0.181c-0.843-0.433-1.685-0.883-2.515-1.364h-0.002l-0.002-0.002   c-0.832-0.48-1.643-0.984-2.442-1.499c-0.106-0.068-0.212-0.137-0.32-0.205c-0.815-0.533-1.614-1.084-2.395-1.652   c-0.019-0.012-0.039-0.027-0.058-0.042c-8.488-6.188-14.875-14.356-18.887-23.491c-0.006-0.01-0.011-0.021-0.015-0.032   c-0.4-0.91-0.777-1.828-1.129-2.756c-0.021-0.057-0.041-0.114-0.064-0.172c-0.344-0.921-0.673-1.851-0.97-2.79   c-0.004-0.009-0.005-0.018-0.005-0.018c-0.296-0.928-0.562-1.857-0.81-2.789c-0.021-0.079-0.043-0.159-0.065-0.238   c-0.235-0.911-0.444-1.825-0.637-2.744c-0.015-0.07-0.033-0.137-0.048-0.205c-0.334-1.623-1.305-3.034-2.679-3.942   c-8.882,19.951-13.826,42.042-13.826,65.288C270.939,187.42,282.672,220.511,302.501,247.236z"/>
</g>
<path style="fill:#ED5145;" d="M190.05,412.773c-2.362,4.091-7.607,5.497-11.697,3.135c-4.09-2.362-5.497-7.609-3.135-11.697  c3.883-6.727,1.58-15.329-5.147-19.212c-6.727-3.883-15.329-1.58-19.212,5.147c-10.118,17.523-4.091,40.007,13.431,50.123  c17.521,10.118,40.005,4.092,50.121-13.431l22.598-39.138l-24.359-14.063L190.05,412.773z"/>
<path style="fill:#CCCCCC;" d="M277.01,316.108l19.441-33.67c-3.823-1.844-7.605-3.835-11.339-5.989v-0.002h-0.002  c-3.733-2.154-7.348-4.437-10.855-6.823l-60.44,104.686l22.195,12.812l27.404-47.461"/>
<path style="fill:#F75F57;" d="M445.992,181.78c-0.111,0.036-0.222,0.065-0.334,0.102c-0.824,0.269-1.651,0.524-2.485,0.753  c-0.161,0.046-0.323,0.086-0.482,0.129c-0.811,0.218-1.627,0.418-2.444,0.602c-0.098,0.021-0.196,0.046-0.294,0.069  c-0.897,0.195-1.801,0.363-2.708,0.516c-0.127,0.021-0.252,0.044-0.379,0.064c-0.925,0.15-1.858,0.277-2.793,0.381  c-0.069,0.008-0.138,0.015-0.207,0.021c-9.884,1.075-20.115-0.373-29.684-4.614c-0.031-0.014-0.063-0.025-0.092-0.041  c-0.878-0.389-1.748-0.804-2.613-1.24c-0.115-0.06-0.233-0.119-0.348-0.18c-0.844-0.435-1.685-0.883-2.516-1.364l-0.001-0.001l0,0  c-0.829-0.48-1.637-0.982-2.436-1.495c-0.112-0.072-0.224-0.144-0.336-0.216c-0.809-0.529-1.601-1.075-2.374-1.637  c-0.031-0.021-0.061-0.044-0.092-0.067c-8.443-6.159-14.804-14.281-18.814-23.36c-0.039-0.089-0.077-0.177-0.115-0.264  c-0.367-0.84-0.715-1.688-1.04-2.541c-0.057-0.148-0.111-0.296-0.165-0.446c-0.31-0.835-0.607-1.675-0.879-2.521  c-0.043-0.135-0.08-0.271-0.122-0.404c-0.233-0.749-0.451-1.502-0.653-2.26c-0.054-0.195-0.109-0.388-0.159-0.585  c-0.209-0.81-0.396-1.629-0.571-2.447c-0.027-0.131-0.063-0.26-0.09-0.391c-0.357-1.749-1.449-3.261-2.994-4.153l-0.002-0.001  l-65.266,113.045c8.564,11.546,18.638,21.907,29.935,30.782c11.083-3.143,22.841-8.577,34.945-16.079l19.449-13.6  c21.459-16.667,43.411-39.142,64.114-66.115C449.428,181.399,447.637,181.232,445.992,181.78z"/>
<g>
	<path style="fill:#231F20;" d="M511.196,231.683c-0.656-1.406-1.671-2.566-2.897-3.417c-1.351-0.937-2.961-1.495-4.669-1.538   c-5.996-0.148-11.946-1.442-17.489-3.779c-1.848-0.779-3.65-1.674-5.394-2.68c-13.763-7.947-22.691-22.113-23.974-37.956   c-0.013-0.174-0.03-0.349-0.055-0.563c-0.015-0.182-0.053-0.361-0.079-0.541c-0.021-0.146-0.035-0.295-0.064-0.439   c-0.041-0.202-0.101-0.398-0.156-0.594c-0.039-0.136-0.068-0.277-0.113-0.411c-0.067-0.199-0.15-0.388-0.231-0.582   c-0.053-0.126-0.097-0.255-0.155-0.379c-0.091-0.193-0.201-0.376-0.306-0.56c-0.064-0.114-0.121-0.233-0.191-0.343   c-0.118-0.187-0.252-0.362-0.384-0.54c-0.073-0.099-0.138-0.203-0.216-0.298c-0.149-0.183-0.314-0.353-0.479-0.524   c-0.075-0.078-0.142-0.163-0.22-0.238c-0.191-0.185-0.398-0.352-0.606-0.519c-0.063-0.05-0.12-0.108-0.186-0.158   c-0.281-0.212-0.577-0.41-0.887-0.588c-0.255-0.147-0.519-0.27-0.784-0.389c-0.054-0.024-0.103-0.055-0.157-0.078   c-0.185-0.078-0.376-0.134-0.564-0.2c-0.143-0.048-0.282-0.108-0.426-0.15c-0.09-0.026-0.182-0.038-0.274-0.06   c-1.93-0.482-3.992-0.296-5.826,0.594c-6.569,3.191-13.896,4.877-21.189,4.877c-8.416,0-16.742-2.239-24.079-6.474   c-13.893-8.022-22.871-22.379-24.019-38.405c-0.028-0.388-0.087-0.77-0.166-1.146c-0.005-0.028-0.006-0.057-0.013-0.084   c-0.021-0.099-0.059-0.19-0.085-0.286c-0.063-0.248-0.132-0.492-0.217-0.732c-0.018-0.05-0.028-0.104-0.046-0.155   c-0.033-0.089-0.08-0.17-0.117-0.256c-0.09-0.217-0.186-0.429-0.293-0.638c-0.034-0.068-0.059-0.141-0.095-0.207   c-0.035-0.065-0.083-0.123-0.12-0.188c-0.119-0.204-0.247-0.401-0.382-0.594c-0.053-0.075-0.095-0.158-0.15-0.232   c-0.031-0.042-0.069-0.077-0.1-0.118c-0.157-0.203-0.328-0.394-0.503-0.583c-0.064-0.069-0.119-0.146-0.186-0.212   c-0.019-0.019-0.041-0.036-0.061-0.056c-0.259-0.255-0.532-0.496-0.823-0.718c-0.008-0.005-0.013-0.012-0.02-0.017   c-0.006-0.004-0.012-0.01-0.019-0.014c-0.018-0.014-0.039-0.025-0.058-0.039c-0.261-0.194-0.532-0.377-0.818-0.542   c-0.025-0.014-0.052-0.024-0.076-0.038c-0.023-0.012-0.043-0.027-0.064-0.04c-0.089-0.049-0.186-0.085-0.277-0.131   c-0.235-0.119-0.471-0.233-0.714-0.328c-0.042-0.017-0.079-0.041-0.122-0.057c-0.005-0.002-0.011-0.003-0.016-0.005   c-0.009-0.003-0.015-0.008-0.024-0.011c-0.082-0.03-0.166-0.045-0.249-0.073c-0.233-0.078-0.467-0.149-0.704-0.207   c-0.073-0.018-0.145-0.046-0.219-0.062c-0.072-0.016-0.144-0.02-0.216-0.034c-0.237-0.045-0.474-0.077-0.714-0.103   c-0.095-0.01-0.19-0.031-0.285-0.038c-0.046-0.003-0.092,0-0.139-0.003c-0.261-0.014-0.521-0.011-0.782-0.001   c-0.099,0.003-0.197-0.003-0.296,0.003c-0.018,0.001-0.035,0.003-0.054,0.005c-0.386,0.03-0.77,0.085-1.151,0.167   c-0.038,0.009-0.074,0.021-0.112,0.03c-0.313,0.072-0.626,0.159-0.931,0.266c-0.038,0.013-0.075,0.026-0.113,0.04   c-0.087,0.032-0.167,0.077-0.253,0.112c-0.177,0.072-0.356,0.134-0.529,0.218c-6.569,3.191-13.896,4.877-21.188,4.877   c-8.416,0-16.742-2.239-24.08-6.474c-13.892-8.022-22.872-22.379-24.021-38.406c-0.026-0.355-0.073-0.706-0.141-1.05   c-0.041-0.206-0.103-0.406-0.159-0.607c-0.038-0.134-0.063-0.274-0.106-0.406c-0.058-0.178-0.136-0.347-0.206-0.519   c-0.06-0.149-0.109-0.303-0.178-0.447c-0.046-0.099-0.106-0.19-0.157-0.286c-0.744-1.44-1.879-2.668-3.324-3.503   c0,0-0.001,0-0.002-0.001l0,0c-0.187-0.107-0.382-0.193-0.574-0.285c-0.124-0.06-0.246-0.132-0.372-0.186   c-1.289-0.545-2.682-0.762-4.056-0.647c-0.006,0-0.012,0-0.018,0c-0.249,0.021-0.496,0.067-0.742,0.109   c-0.097,0.017-0.193,0.023-0.289,0.043c-0.128,0.027-0.252,0.071-0.38,0.104c-0.546,0.141-1.085,0.323-1.603,0.573l0.049-0.025   l-0.391,0.175c-0.016,0.008-0.031,0.017-0.046,0.025c-6.471,3.073-13.652,4.705-20.805,4.705h-0.001   c-8.415,0-16.742-2.239-24.078-6.475c-6.979-4.028-12.869-9.764-17.035-16.587c-1.698-2.782-4.826-4.357-8.073-4.078   c-3.247,0.284-6.054,2.382-7.244,5.416c-15.486,39.466-16.355,83.387-2.448,123.67c11.707,33.911,33.312,63.36,61.786,84.709   l-54.252,93.966c-1.401,0.729-2.621,1.844-3.469,3.313l-22.545,39.126c6.219-10.812,2.497-24.669-8.308-30.906   c-3.441-1.987-7.353-3.036-11.311-3.036c-8.073,0-15.593,4.34-19.625,11.326c-6.041,10.46-7.641,22.661-4.507,34.354   c3.134,11.691,10.619,21.456,21.079,27.494c6.865,3.965,14.673,6.06,22.577,6.06c16.163,0,31.211-8.673,39.269-22.633   l22.598-39.138c0.759-1.312,1.139-2.791,1.142-4.281l4.121-7.138l2.505,1.446c1.352,0.78,2.828,1.15,4.283,1.15   c2.968,0,5.852-1.54,7.443-4.293c2.37-4.106,0.962-9.356-3.143-11.726l-2.504-1.446l12.559-21.751   c2.371-4.105,0.964-9.355-3.142-11.725c-4.104-2.37-9.355-0.964-11.725,3.142l-16.835,29.155c-0.006,0.011-0.014,0.02-0.019,0.03   c-0.005,0.01-0.011,0.021-0.016,0.032l-6.242,10.811l-7.327-4.23l51.64-89.446c0.006,0.003,0.012,0.008,0.018,0.011   c0.87,0.53,1.749,1.046,2.629,1.562c0.296,0.174,0.594,0.357,0.891,0.529c0.03,0.017,0.059,0.034,0.089,0.052   c0.004,0.002,0.009,0.005,0.013,0.008c0.015,0.009,0.03,0.016,0.045,0.025c1.2,0.692,2.415,1.373,3.646,2.045l-14.933,25.864   c-2.371,4.105-0.964,9.355,3.142,11.725c4.105,2.37,9.356,0.964,11.725-3.142l15.559-26.947c0.991,0.424,1.985,0.844,2.983,1.25   c21.312,8.662,44.144,13.188,67.168,13.186c3.306,0,6.615-0.093,9.921-0.28c23.14-1.304,46.144-7.136,67.078-17.064   c18.3-8.679,35.124-20.551,49.479-34.83c4.785-4.76,9.296-9.786,13.496-15.052c0.509-0.637,0.915-1.332,1.218-2.062   C512.253,236.408,512.229,233.898,511.196,231.683z M206.975,422.546c-5.002,8.664-14.352,14.048-24.401,14.048   c-4.896,0-9.734-1.3-13.993-3.761c-6.489-3.746-11.134-9.809-13.08-17.071c-1.946-7.264-0.955-14.837,2.793-21.327   c0.975-1.69,2.798-2.741,4.759-2.741c0.964,0,1.882,0.248,2.729,0.738c2.617,1.51,3.516,4.869,2.005,7.485   c-2.29,3.964-2.896,8.585-1.71,13.013c1.186,4.426,4.022,8.123,7.986,10.412c2.602,1.502,5.562,2.297,8.56,2.297   c6.115,0,11.811-3.285,14.864-8.573l18.305-31.704l9.492,5.48L206.975,422.546z M426.224,196.731   c-16.779,19.781-34.316,36.651-51.603,49.583c-1.152,0.862-2.304,1.707-3.454,2.533c-22.926,16.487-44.237,25.203-61.629,25.203   c-1.02,0-2.024-0.036-3.015-0.098c-0.322-0.02-0.634-0.057-0.952-0.083c-0.665-0.056-1.328-0.116-1.979-0.199   c-0.368-0.047-0.73-0.107-1.093-0.163c-0.589-0.09-1.174-0.188-1.751-0.303c-0.376-0.075-0.748-0.157-1.118-0.241   c-0.55-0.126-1.095-0.262-1.635-0.409c-0.208-0.057-0.414-0.117-0.62-0.177l66.092-114.476c0.15,0.339,0.314,0.671,0.47,1.006   c0.135,0.292,0.268,0.585,0.409,0.874c0.377,0.78,0.767,1.553,1.173,2.315c0.059,0.111,0.113,0.223,0.172,0.333   c0.469,0.87,0.961,1.726,1.469,2.574c0.146,0.244,0.299,0.483,0.448,0.724c0.378,0.612,0.763,1.217,1.16,1.815   c0.183,0.276,0.368,0.55,0.556,0.824c0.408,0.594,0.827,1.181,1.254,1.763c0.166,0.226,0.328,0.455,0.498,0.679   c0.595,0.789,1.206,1.565,1.838,2.326c0.092,0.112,0.19,0.218,0.283,0.329c0.545,0.648,1.104,1.286,1.675,1.914   c0.218,0.239,0.44,0.474,0.662,0.71c0.473,0.505,0.954,1.003,1.444,1.494c0.237,0.237,0.473,0.474,0.714,0.708   c0.138,0.134,0.271,0.275,0.411,0.408c0.424,0.404,0.862,0.796,1.297,1.189c0.165,0.149,0.324,0.303,0.491,0.45   c0.741,0.657,1.5,1.296,2.274,1.921c0.21,0.17,0.427,0.332,0.638,0.499c0.583,0.458,1.172,0.909,1.771,1.349   c0.278,0.204,0.558,0.403,0.839,0.603c0.578,0.41,1.164,0.81,1.757,1.203c0.265,0.175,0.527,0.353,0.795,0.525   c0.852,0.546,1.715,1.079,2.597,1.589c0.65,0.376,1.307,0.737,1.967,1.089c0.219,0.116,0.44,0.225,0.66,0.338   c0.446,0.232,0.893,0.462,1.343,0.682c0.261,0.128,0.524,0.248,0.785,0.371c0.416,0.196,0.833,0.393,1.252,0.582   c0.277,0.123,0.556,0.241,0.834,0.362c0.41,0.177,0.821,0.352,1.234,0.52c0.286,0.117,0.574,0.229,0.862,0.34   c0.411,0.161,0.823,0.319,1.237,0.47c0.29,0.106,0.582,0.21,0.872,0.312c0.417,0.147,0.836,0.29,1.255,0.427   c0.291,0.096,0.582,0.19,0.874,0.281c0.426,0.133,0.853,0.262,1.282,0.386c0.289,0.084,0.577,0.167,0.867,0.248   c0.44,0.122,0.882,0.236,1.324,0.349c0.28,0.071,0.56,0.144,0.841,0.211c0.461,0.111,0.925,0.212,1.389,0.313   c0.265,0.057,0.53,0.118,0.795,0.173c0.504,0.103,1.01,0.195,1.516,0.285c0.227,0.041,0.454,0.086,0.681,0.124   c0.626,0.105,1.253,0.2,1.882,0.286c0.111,0.015,0.221,0.034,0.332,0.049c0.017,0.002,0.034,0.005,0.052,0.008   c0.726,0.097,1.456,0.179,2.186,0.251c0.168,0.016,0.338,0.027,0.506,0.042c0.571,0.051,1.142,0.1,1.715,0.136   c0.279,0.018,0.558,0.027,0.836,0.042c0.462,0.024,0.926,0.047,1.389,0.061c0.319,0.01,0.637,0.011,0.956,0.016   c0.312,0.004,0.624,0.015,0.938,0.015c0.107,0,0.215-0.005,0.323-0.005c0.395-0.002,0.789-0.012,1.183-0.021   c0.373-0.009,0.747-0.017,1.12-0.032C425.976,196.737,426.1,196.737,426.224,196.731z M339.488,149.653   c0.712,0.024,1.426,0.035,2.141,0.035c2.327,0,4.657-0.129,6.974-0.379l-66.095,114.481   c-11.454-11.061-17.616-30.912-17.525-57.104c0.093-26.607,6.624-58.741,18.615-92.297c0.099,0.19,0.206,0.377,0.307,0.565   c0.122,0.23,0.247,0.458,0.371,0.687c0.393,0.719,0.799,1.43,1.219,2.134c0.087,0.145,0.17,0.293,0.258,0.437   c0.504,0.83,1.028,1.648,1.569,2.455c0.123,0.183,0.25,0.364,0.376,0.546c0.446,0.652,0.906,1.296,1.376,1.932   c0.143,0.192,0.282,0.386,0.427,0.577c0.587,0.776,1.188,1.542,1.81,2.292c0.077,0.093,0.159,0.183,0.237,0.277   c0.553,0.66,1.121,1.307,1.701,1.944c0.178,0.196,0.357,0.392,0.539,0.586c0.593,0.637,1.199,1.265,1.818,1.88   c0.08,0.079,0.158,0.162,0.238,0.241c0.694,0.681,1.408,1.343,2.134,1.995c0.193,0.173,0.389,0.342,0.584,0.513   c0.586,0.513,1.181,1.016,1.786,1.509c0.185,0.15,0.366,0.303,0.553,0.452c0.761,0.606,1.535,1.197,2.326,1.771   c0.165,0.12,0.335,0.235,0.501,0.353c0.654,0.466,1.32,0.921,1.994,1.364c0.232,0.152,0.464,0.305,0.697,0.455   c0.837,0.535,1.683,1.06,2.548,1.559C318.287,146.296,328.797,149.299,339.488,149.653z M214.724,84.301   c3.801,3.651,8.048,6.851,12.64,9.502c9.943,5.74,21.237,8.775,32.661,8.775h0.003c3.304,0,6.613-0.264,9.886-0.766   c-20.315,53.752-26.604,101.787-19.029,136.085C213.822,196.971,199.22,138.528,214.724,84.301z M365.12,290.639   c-0.57-0.018-1.137-0.053-1.706-0.076c-1.107-0.047-2.213-0.095-3.319-0.165c-0.674-0.043-1.347-0.1-2.019-0.15   c-1-0.076-2-0.153-2.998-0.248c-0.712-0.068-1.423-0.146-2.134-0.223c-0.958-0.104-1.915-0.212-2.871-0.334   c-0.725-0.091-1.45-0.19-2.173-0.292c-0.944-0.132-1.886-0.274-2.828-0.423c-0.722-0.115-1.443-0.232-2.163-0.356   c-0.947-0.163-1.892-0.339-2.836-0.519c-0.706-0.135-1.412-0.268-2.116-0.412c-0.866-0.177-1.727-0.37-2.59-0.562   c14.452-4.561,29.93-12.665,45.823-24.094c21.117-15.187,42.581-35.928,62.751-60.522c5.337,13.673,15.171,25.337,28.22,32.873   c4.599,2.654,9.501,4.734,14.572,6.201c-0.948,0.986-1.908,1.959-2.879,2.918c-30.08,29.735-70.569,46.465-113.703,46.466   C368.474,290.722,366.796,290.692,365.12,290.639z"/>
	<path style="fill:#231F20;" d="M8.584,285.948h167.042c4.74,0,8.584-3.843,8.584-8.584c0-4.74-3.843-8.584-8.584-8.584H8.584   c-4.74,0-8.584,3.843-8.584,8.584C0,282.104,3.843,285.948,8.584,285.948z"/>
	<path style="fill:#231F20;" d="M13.852,297.818H8.584c-4.74,0-8.584,3.843-8.584,8.584c0,4.74,3.843,8.584,8.584,8.584h5.268   c4.74,0,8.584-3.843,8.584-8.584C22.435,301.661,18.592,297.818,13.852,297.818z"/>
	<path style="fill:#231F20;" d="M148.298,333.216c0-19.519-15.88-35.399-35.398-35.399H40.575c-4.74,0-8.584,3.843-8.584,8.584   c0,4.74,3.843,8.584,8.584,8.584H112.9c10.053,0,18.231,8.179,18.231,18.232c0,9.801-7.78,17.797-17.485,18.193   c-0.246-0.021-0.494-0.038-0.746-0.038c-10.032,0-18.193-8.161-18.193-18.194c0-4.74-3.843-8.584-8.584-8.584   s-8.584,3.843-8.584,8.584c0,19.063,15.165,34.642,34.063,35.328c0.425,0.064,0.855,0.108,1.297,0.108   C132.419,368.614,148.298,352.735,148.298,333.216z"/>
	<path style="fill:#231F20;" d="M83.948,254.306h62.873c19.517,0,35.397-15.88,35.397-35.399c0-19.518-15.88-35.398-35.397-35.398   c-0.442,0-0.873,0.044-1.297,0.108c-18.898,0.686-34.063,16.265-34.063,35.327c0,4.74,3.843,8.584,8.584,8.584   c4.74,0,8.584-3.843,8.584-8.584c0-10.032,8.161-18.193,18.193-18.193c0.252,0,0.499-0.016,0.746-0.038   c9.705,0.396,17.484,8.392,17.484,18.193c0,10.053-8.178,18.232-18.23,18.232H83.948c-4.74,0-8.584,3.843-8.584,8.584   C75.364,250.463,79.208,254.306,83.948,254.306z"/>
	<path style="fill:#231F20;" d="M208.972,285.948c4.74,0,8.584-3.843,8.584-8.584c0-4.74-3.843-8.584-8.584-8.584h-6.892   c-4.74,0-8.584,3.843-8.584,8.584c0,4.74,3.843,8.584,8.584,8.584H208.972z"/>
</g>
<g>
</g>
<g>
</g>
<g>
</g>
<g>
</g>
<g>
</g>
<g>
</g>
<g>
</g>
<g>
</g>
<g>
</g>
<g>
</g>
<g>
</g>
<g>
</g>
<g>
</g>
<g>
</g>
<g>
</g>
</svg>
