<?xml version="1.0" encoding="iso-8859-1"?>
<!-- Generator: Adobe Illustrator 19.0.0, SVG Export Plug-In . SVG Version: 6.00 Build 0)  -->
<svg xmlns="http://www.w3.org/2000/svg" xmlns:xlink="http://www.w3.org/1999/xlink" version="1.1" id="Layer_1" x="0px" y="0px" viewBox="0 0 512.002 512.002" style="enable-background:new 0 0 512.002 512.002;" xml:space="preserve">
<path style="fill:#E4F2F9;" d="M419.916,258.737h27.462c30.933,0,56.009-25.075,56.009-56.007c0-30.933-25.074-56.007-56.009-56.007  c-5.843,0-11.474,0.898-16.767,2.555c0.027-0.847,0.066-1.697,0.066-2.555c0-41.604-33.728-75.332-75.332-75.332  c-35.874,0-65.871,25.084-73.459,58.663c-4.5-1.502-9.311-2.325-14.317-2.325c-15.413,0-29.015,7.717-37.173,19.492  c-4.553-1.178-9.327-1.809-14.249-1.809c-31.293,0-56.661,25.368-56.661,56.661s25.368,56.663,56.661,56.663h172.069"/>
<path style="fill:#9FDEF7;" d="M159.485,202.073c0-31.293,25.368-56.661,56.661-56.661c4.922,0,9.697,0.631,14.249,1.809  c8.159-11.776,21.761-19.492,37.173-19.492c2.551,0,5.05,0.216,7.485,0.624c-6.706-3.545-14.346-5.562-22.46-5.562  c-4.182,0-8.236,0.536-12.103,1.535c-6.93-10.001-18.483-16.557-31.575-16.557c-4.252,0-8.338,0.702-12.16,1.977  c-6.446-28.522-31.924-49.827-62.395-49.827c-35.338,0-63.987,28.648-63.987,63.985c0,0.728,0.032,1.451,0.056,2.17  c-4.497-1.408-9.28-2.17-14.243-2.17C29.911,123.903,8.613,145.2,8.613,171.476c0,26.272,21.298,47.571,47.574,47.571h23.326h26.926  h55.636C160.393,213.687,159.485,207.986,159.485,202.073z"/>
<path style="fill:#D7EDF9;" d="M282.755,142.925c0-8.279,0.782-16.374,2.259-24.224c-1.292,3.354-2.364,6.817-3.171,10.384  c-4.5-1.502-9.311-2.325-14.317-2.325c-15.413,0-29.015,7.717-37.173,19.492c-4.553-1.178-9.327-1.809-14.249-1.809  c-31.293,0-56.661,25.368-56.661,56.661s25.368,56.663,56.661,56.663h135.404C310.584,235.805,282.755,192.617,282.755,142.925z"/>
<path style="fill:#83D4ED;" d="M99.73,122.469c0-21.799,5.363-42.343,14.829-60.398c-25.668,8.327-44.231,32.421-44.231,60.862  c0,0.728,0.032,1.451,0.056,2.17c-4.497-1.409-9.28-2.17-14.243-2.17c-26.275,0-47.574,21.297-47.574,47.574  c0,26.272,21.298,47.571,47.574,47.571h23.326h26.926h35.141C115.829,194.284,99.73,160.259,99.73,122.469z"/>
<g>
	<path style="fill:#231F20;" d="M497.296,310.467c-7.817,7.817-18.2,12.123-29.238,12.123c-11.028,0-21.403-4.299-29.218-12.103   c-0.008-0.008-0.013-0.015-0.02-0.023c-11.072-11.071-25.782-17.168-41.422-17.168s-30.348,6.097-41.42,17.169   c-0.002,0.002-0.004,0.005-0.008,0.008c-7.817,7.814-18.198,12.116-29.232,12.116c-11.028,0-21.403-4.299-29.218-12.103   c-0.008-0.008-0.013-0.015-0.02-0.023c-11.072-11.071-25.782-17.168-41.422-17.168s-30.348,6.097-41.42,17.169   c-0.002,0.002-0.004,0.005-0.008,0.008c-16.117,16.112-42.336,16.113-58.459,0.008c-0.005-0.005-0.009-0.011-0.014-0.015   c-11.071-11.072-25.78-17.169-41.419-17.169s-30.348,6.097-41.421,17.168c-0.008,0.008-0.013,0.015-0.02,0.023   c-7.814,7.804-18.189,12.103-29.218,12.103c-11.039,0-21.421-4.305-29.24-12.124c-3.364-3.362-8.816-3.362-12.181,0   c-3.363,3.364-3.363,8.816,0,12.181C13.75,333.717,28.46,339.813,44.1,339.813s30.348-6.097,41.42-17.169   c0.002-0.002,0.004-0.004,0.006-0.006c7.817-7.814,18.198-12.117,29.233-12.117c11.03,0,21.407,4.301,29.223,12.11   c0.005,0.005,0.01,0.011,0.015,0.016c11.42,11.419,26.42,17.128,41.422,17.128c15.001,0,30.001-5.709,41.421-17.128   c0.008-0.008,0.013-0.015,0.02-0.023c7.815-7.804,18.189-12.103,29.217-12.103c11.035,0,21.417,4.303,29.234,12.117   c0.002,0.002,0.004,0.004,0.006,0.006c11.071,11.072,25.78,17.169,41.42,17.169s30.349-6.097,41.422-17.168   c0.008-0.008,0.013-0.015,0.02-0.023c7.815-7.804,18.189-12.103,29.217-12.103c11.035,0,21.417,4.303,29.234,12.117   c0.002,0.002,0.004,0.004,0.006,0.006c11.071,11.072,25.78,17.169,41.42,17.169s30.348-6.097,41.42-17.169   c3.363-3.363,3.363-8.816-0.001-12.18C506.114,307.104,500.66,307.103,497.296,310.467z"/>
	<path style="fill:#231F20;" d="M497.296,370.905c-16.12,16.119-42.347,16.121-58.469,0.006c-0.002-0.002-0.004-0.005-0.006-0.008   c-11.072-11.073-25.782-17.171-41.422-17.171s-30.349,6.098-41.42,17.171c-0.004,0.004-0.009,0.01-0.014,0.015   c-16.124,16.104-42.341,16.103-58.457-0.008c-0.002-0.002-0.004-0.005-0.006-0.008c-11.072-11.073-25.782-17.171-41.422-17.171   c-15.64,0-30.349,6.098-41.42,17.171c-0.004,0.004-0.008,0.01-0.012,0.014c-16.12,16.104-42.334,16.103-58.454,0.001   c-0.005-0.004-0.009-0.01-0.014-0.015c-11.07-11.073-25.78-17.171-41.419-17.171s-30.348,6.098-41.421,17.171   c-0.002,0.002-0.004,0.005-0.006,0.008c-16.122,16.116-42.351,16.113-58.472-0.006c-3.362-3.362-8.815-3.363-12.18,0.001   c-3.363,3.363-3.363,8.816,0.001,12.18c11.42,11.419,26.42,17.128,41.421,17.128s30-5.71,41.42-17.128   c0.008-0.008,0.013-0.016,0.02-0.023c7.816-7.805,18.191-12.104,29.218-12.104c11.03,0,21.407,4.301,29.223,12.111   c0.005,0.005,0.01,0.011,0.015,0.017c11.42,11.418,26.42,17.127,41.422,17.127c15,0,30-5.709,41.42-17.127   c0.005-0.005,0.009-0.011,0.014-0.015c7.816-7.811,18.194-12.112,29.225-12.112c11.028,0,21.403,4.3,29.219,12.104   c0.008,0.008,0.014,0.016,0.02,0.023c11.421,11.42,26.417,17.128,41.42,17.128c14.999,0,30.002-5.711,41.421-17.128   c0.005-0.005,0.01-0.012,0.015-0.017c7.815-7.81,18.193-12.111,29.224-12.111c11.028,0,21.403,4.3,29.219,12.104   c0.008,0.008,0.014,0.016,0.022,0.023c11.42,11.419,26.419,17.128,41.42,17.128c15.001,0,29.999-5.709,41.42-17.128   c3.363-3.364,3.363-8.816,0-12.181C506.113,367.543,500.66,367.543,497.296,370.905z"/>
	<path style="fill:#231F20;" d="M497.296,431.344c-7.817,7.817-18.2,12.123-29.238,12.123c-11.028,0-21.403-4.299-29.218-12.103   c-0.008-0.008-0.013-0.015-0.02-0.023c-11.072-11.071-25.782-17.168-41.422-17.168s-30.348,6.097-41.42,17.169   c-0.002,0.002-0.004,0.004-0.006,0.008c-7.817,7.814-18.198,12.117-29.233,12.117c-11.028,0-21.403-4.299-29.218-12.103   c-0.008-0.008-0.013-0.015-0.02-0.023c-11.072-11.071-25.782-17.168-41.422-17.168s-30.348,6.097-41.42,17.169   c-0.002,0.002-0.004,0.004-0.006,0.008c-16.118,16.113-42.338,16.114-58.46,0.008c-0.004-0.004-0.009-0.01-0.013-0.014   c-11.071-11.072-25.78-17.169-41.419-17.169s-30.348,6.097-41.421,17.168c-0.008,0.008-0.013,0.015-0.02,0.023   c-7.814,7.804-18.189,12.103-29.218,12.103c-11.039,0-21.421-4.305-29.24-12.124c-3.364-3.362-8.816-3.362-12.181,0   c-3.363,3.364-3.363,8.816,0,12.181c11.072,11.071,25.782,17.168,41.422,17.168s30.348-6.097,41.42-17.169   c0.002-0.002,0.004-0.005,0.006-0.008c7.817-7.814,18.198-12.117,29.232-12.117c11.03,0,21.407,4.301,29.223,12.11   c0.005,0.005,0.01,0.011,0.015,0.016c11.42,11.419,26.42,17.128,41.422,17.128c15.001,0,30.001-5.709,41.421-17.128   c0.008-0.008,0.013-0.015,0.02-0.023c7.815-7.804,18.189-12.103,29.217-12.103c11.035,0,21.416,4.303,29.233,12.117   c0.002,0.002,0.004,0.005,0.006,0.008c11.071,11.072,25.78,17.169,41.42,17.169s30.349-6.097,41.422-17.168   c0.008-0.008,0.013-0.015,0.02-0.023c7.815-7.804,18.189-12.103,29.217-12.103c11.035,0,21.416,4.303,29.233,12.117   c0.002,0.002,0.004,0.005,0.006,0.008c11.071,11.072,25.78,17.169,41.42,17.169s30.348-6.097,41.42-17.169   c3.363-3.363,3.363-8.816-0.001-12.18C506.114,427.981,500.66,427.98,497.296,431.344z"/>
	<path style="fill:#231F20;" d="M56.186,227.66h99.915c9.971,23.312,33.13,39.689,60.044,39.689h172.069   c4.757,0,8.613-3.856,8.613-8.613c0-4.756-3.856-8.613-8.613-8.613H216.146c-22.317,0-41.128-15.297-46.504-35.955   c-0.023-0.087-0.044-0.175-0.066-0.263c-0.163-0.641-0.312-1.288-0.449-1.939c-0.025-0.119-0.052-0.238-0.075-0.359   c-0.294-1.452-0.52-2.928-0.678-4.424c-0.02-0.191-0.037-0.382-0.054-0.573c-0.053-0.558-0.095-1.119-0.128-1.682   c-0.012-0.211-0.026-0.422-0.036-0.633c-0.033-0.737-0.056-1.478-0.056-2.223c0-26.493,21.555-48.048,48.048-48.048   c4.089,0,8.158,0.516,12.093,1.534c3.497,0.905,7.181-0.467,9.236-3.433c6.42-9.265,16.709-15.031,27.854-15.715   c0.743-0.045,1.49-0.069,2.239-0.069c0.941,0,1.88,0.041,2.814,0.113c0.062,0.005,0.125,0.006,0.186,0.012   c0.897,0.073,1.79,0.185,2.679,0.325c0.092,0.014,0.183,0.025,0.275,0.04c1.908,0.314,3.792,0.777,5.637,1.393   c2.309,0.771,4.836,0.53,6.955-0.668c2.121-1.194,3.636-3.231,4.172-5.604c6.913-30.587,33.667-51.949,65.059-51.949   c36.789,0,66.719,29.93,66.719,66.719c0,0.573-0.022,1.141-0.041,1.708l-0.02,0.57c-0.089,2.788,1.177,5.448,3.397,7.135   c2.221,1.688,5.12,2.197,7.784,1.363c4.583-1.434,9.358-2.162,14.195-2.162c26.134,0,47.395,21.261,47.395,47.394   s-21.261,47.394-47.395,47.394h-27.462c-4.757,0-8.613,3.856-8.613,8.613c0,4.757,3.856,8.613,8.613,8.613h27.462   c35.633,0,64.621-28.989,64.621-64.62s-28.989-64.62-64.621-64.62c-2.843,0-5.674,0.185-8.473,0.553   c-4.069-42.521-39.992-75.884-83.561-75.884c-19.157,0-37.893,6.625-52.755,18.658c-12.222,9.893-21.437,23.096-26.554,37.823   c-9.967-4.509-21.266-6.074-32.084-4.423c-8.864-9.907-21.584-15.679-35.037-15.679c-2.068,0-4.127,0.136-6.167,0.406   c-4.464-12.501-12.357-23.696-22.764-32.12c-12.854-10.405-29.058-16.136-45.626-16.136c-37.228,0-68.002,28.165-72.129,64.307   c-2-0.214-4.017-0.323-6.043-0.323C25.205,115.291,0,140.495,0,171.476C0,202.456,25.205,227.66,56.186,227.66z M56.186,132.516   c3.979,0,7.906,0.598,11.667,1.775c2.665,0.834,5.563,0.326,7.785-1.361c2.221-1.687,3.487-4.346,3.398-7.136l-0.017-0.502   c-0.017-0.462-0.034-0.925-0.034-1.391c0-30.532,24.84-55.373,55.374-55.373c26.054,0,48.257,17.729,53.994,43.113   c0.536,2.373,2.051,4.41,4.171,5.604c2.121,1.196,4.648,1.439,6.954,0.668c3.054-1.017,6.228-1.534,9.437-1.534   c9.763,0,18.92,4.804,24.496,12.85c0.32,0.462,0.68,0.885,1.072,1.268c-0.268,0.209-0.524,0.432-0.788,0.646   c-0.296,0.24-0.593,0.478-0.884,0.725c-0.428,0.363-0.847,0.739-1.266,1.114c-0.264,0.238-0.532,0.472-0.792,0.716   c-0.454,0.426-0.896,0.868-1.337,1.311c-0.21,0.211-0.425,0.415-0.632,0.629c-0.64,0.665-1.267,1.346-1.874,2.047   c-3.551-0.59-7.152-0.887-10.764-0.887c-35.992,0-65.274,29.282-65.274,65.274c0,0.998,0.031,1.993,0.075,2.987   c0.01,0.22,0.019,0.439,0.031,0.658c0.053,0.96,0.124,1.917,0.219,2.871c0.016,0.166,0.038,0.329,0.056,0.495   c0.048,0.45,0.094,0.901,0.152,1.35H56.186c-21.484,0-38.961-17.477-38.961-38.958C17.226,149.993,34.703,132.516,56.186,132.516z"/>
</g>
<g>
</g>
<g>
</g>
<g>
</g>
<g>
</g>
<g>
</g>
<g>
</g>
<g>
</g>
<g>
</g>
<g>
</g>
<g>
</g>
<g>
</g>
<g>
</g>
<g>
</g>
<g>
</g>
<g>
</g>
</svg>
