<?xml version="1.0" encoding="iso-8859-1"?>
<!-- Generator: Adobe Illustrator 19.0.0, SVG Export Plug-In . SVG Version: 6.00 Build 0)  -->
<svg xmlns="http://www.w3.org/2000/svg" xmlns:xlink="http://www.w3.org/1999/xlink" version="1.1" id="Layer_1" x="0px" y="0px" viewBox="0 0 512 512" style="enable-background:new 0 0 512 512;" xml:space="preserve">
<ellipse style="fill:#9FDEF7;" cx="140.597" cy="189.806" rx="22.064" ry="88.858"/>
<path style="fill:#86D2EA;" d="M146.109,186.856c0-32.885,4.439-61.577,11.032-76.943c-3.246-7.565-7.013-11.916-11.033-11.916  c-12.186,0-22.064,39.782-22.064,88.859c0,49.073,9.879,88.857,22.064,88.857c4.02,0,7.786-4.352,11.033-11.917  C150.548,248.431,146.109,219.739,146.109,186.856z"/>
<g>
	<path style="fill:#667291;" d="M86.052,490.487c0,7.128-5.778,12.908-12.908,12.908h-51.63c-7.129,0-12.908-5.779-12.908-12.908   v-17.739c0-7.128,5.778-12.908,12.908-12.908h51.63c7.129,0,12.908,5.779,12.908,12.908V490.487z"/>
	<circle style="fill:#667291;" cx="47.329" cy="36.307" r="27.702"/>
</g>
<g>
	<path style="fill:#556080;" d="M35.714,490.103v-17.74c0-7.128,5.777-12.908,12.908-12.908H25.914   c-7.128,0-12.908,5.779-12.908,12.908v17.739c0,7.128,5.779,12.908,12.908,12.908h22.708   C41.491,503.011,35.714,497.232,35.714,490.103z"/>
	<path style="fill:#556080;" d="M46.735,35.922c0-11.252,6.712-20.931,16.347-25.267c-3.466-1.56-7.306-2.435-11.354-2.435   c-15.299,0-27.702,12.402-27.702,27.702s12.404,27.702,27.703,27.702c4.049,0,7.889-0.874,11.354-2.435   C53.447,56.852,46.735,47.174,46.735,35.922z"/>
</g>
<path style="fill:#C7E6F9;" d="M486.938,123.529l-346.345-22.581c12.187,0.001,22.065,39.783,22.065,88.859  c0,49.073-9.879,88.856-22.065,88.857l346.345-22.581c9.089,0,16.458-29.673,16.458-66.276  C503.396,153.202,496.027,123.529,486.938,123.529z"/>
<path style="fill:#ED5145;" d="M259.362,211.765c0.563-7.208,0.85-14.545,0.85-21.958c0-29.653-4.589-58.087-13.075-81.912  l-48.385-3.155c9.799,17.212,18.436,45.954,18.436,85.067c0,39.112-8.636,67.854-18.435,85.065l48.384-3.155  c3.466-9.727,6.282-20.222,8.4-31.256"/>
<path style="fill:#CCCCCC;" d="M60.774,355.398V60.526c-3.982,2.216-8.565,3.482-13.445,3.482s-9.463-1.267-13.445-3.482v399.314  h26.891v-77.545"/>
<path style="fill:#DD3931;" d="M224.586,271.75c8.252-17.367,15.361-45.537,15.361-83.452c0-37.916-7.109-66.083-15.363-83.454  l-24.758-1.613c9.799,17.212,18.436,45.954,18.436,85.067c0,39.112-8.636,67.854-18.435,85.065L224.586,271.75z"/>
<path style="fill:#231F20;" d="M506.926,140.867c-1.58-6.361-6.358-25.611-19.643-25.939l-239.581-15.62  c-0.002,0-0.004,0-0.005-0.001l-48.385-3.155c-0.002,0-0.004,0-0.005,0l-57.212-3.73c-0.004,0-0.009,0-0.012,0  c-0.486-0.049-0.979-0.079-1.481-0.079c-0.002,0-0.004,0-0.006,0c-0.001,0-0.001,0-0.001,0H69.379v-27.22  c8.659-6.642,14.256-17.085,14.256-28.816C83.636,16.287,67.348,0,47.329,0S11.022,16.287,11.022,36.307  c0,11.731,5.598,22.174,14.256,28.816v386.113h-3.765c-11.862,0-21.513,9.651-21.513,21.513v17.739  C0.001,502.349,9.652,512,21.514,512h51.63c11.862,0,21.513-9.651,21.513-21.513v-17.739c0-11.862-9.651-21.513-21.513-21.513  h-3.765v-68.94c0-4.752-3.853-8.605-8.605-8.605s-8.605,3.853-8.605,8.605v68.94h-9.681V72.288c0.084,0.011,0.169,0.015,0.253,0.026  c0.606,0.076,1.215,0.139,1.831,0.185c0.173,0.013,0.346,0.029,0.52,0.04c0.741,0.045,1.485,0.076,2.237,0.076  c0.752,0,1.496-0.03,2.237-0.075c0.173-0.011,0.346-0.027,0.521-0.04c0.614-0.046,1.224-0.108,1.83-0.185  c0.084-0.011,0.169-0.014,0.253-0.026v283.11c0,4.752,3.853,8.605,8.605,8.605c4.752,0,8.605-3.853,8.605-8.605v-68.13h71.213l0,0  l0,0c0.002,0,0.004,0,0.006,0c0.502,0,0.994-0.029,1.48-0.079c0.004,0,0.009,0,0.013,0l57.202-3.729c0.005,0,0.011,0,0.016,0  l48.384-3.155c0.002,0,0.004-0.001,0.006-0.001l239.581-15.619c13.285-0.329,18.063-19.578,19.643-25.939  c3.272-13.176,5.075-30.557,5.075-48.938C512.001,171.424,510.198,154.044,506.926,140.867z M60.774,468.446h12.37  c2.373,0,4.303,1.93,4.303,4.303v17.739c0,2.373-1.93,4.303-4.303,4.303h-51.63c-2.373,0-4.303-1.93-4.303-4.303v-17.739  c0-2.373,1.93-4.303,4.303-4.303h12.37H60.774z M47.329,17.21c10.529,0,19.097,8.567,19.097,19.097  c0,7.225-4.035,13.524-9.968,16.768c-0.045,0.025-0.093,0.046-0.139,0.071c-0.416,0.224-0.845,0.425-1.28,0.617  c-0.17,0.074-0.338,0.151-0.51,0.219c-0.275,0.112-0.558,0.208-0.84,0.308c-4.081,1.412-8.644,1.412-12.725-0.001  c-0.28-0.099-0.561-0.195-0.836-0.307c-0.172-0.069-0.341-0.146-0.511-0.221c-0.433-0.193-0.862-0.394-1.278-0.616  c-0.046-0.025-0.095-0.046-0.141-0.072c-5.933-3.243-9.968-9.543-9.968-16.768C28.232,25.777,36.799,17.21,47.329,17.21z   M208.582,189.807c0,29.891-5.496,57.528-15.167,76.79l-33.323,2.173c9.743-23.81,11.003-63.589,11.153-76.036  c0-0.002,0-0.005,0-0.008c0.005-0.418,0.009-0.806,0.012-1.161c0-0.029,0-0.055,0.001-0.084c0.002-0.294,0.003-0.563,0.004-0.81  c0-0.067,0.001-0.131,0.001-0.194c0.001-0.248,0.001-0.479,0.001-0.671s0-0.423-0.001-0.671c0-0.063,0-0.127-0.001-0.194  c-0.001-0.246-0.002-0.515-0.004-0.81c0-0.029,0-0.054-0.001-0.084c-0.003-0.355-0.006-0.742-0.012-1.161c0-0.002,0-0.005,0-0.008  c-0.15-12.447-1.41-52.228-11.153-76.038l33.323,2.173C203.085,132.277,208.582,159.915,208.582,189.807z M148.873,246.11  c-0.012,0.054-0.024,0.102-0.035,0.156c-0.193,0.893-0.387,1.754-0.583,2.588c-0.07,0.299-0.141,0.582-0.212,0.873  c-0.14,0.577-0.279,1.148-0.419,1.695c-0.08,0.313-0.16,0.614-0.24,0.918c-0.132,0.501-0.265,0.993-0.398,1.468  c-0.082,0.293-0.163,0.583-0.244,0.866c-0.134,0.469-0.269,0.922-0.403,1.366c-0.076,0.252-0.153,0.507-0.228,0.751  c-0.153,0.489-0.304,0.956-0.456,1.414c-0.056,0.169-0.112,0.349-0.168,0.513c-0.207,0.612-0.413,1.197-0.616,1.753  c-0.04,0.108-0.079,0.204-0.117,0.311c-0.165,0.441-0.327,0.869-0.488,1.276c-0.07,0.177-0.139,0.342-0.209,0.512  c-0.129,0.315-0.257,0.625-0.383,0.919c-0.075,0.174-0.148,0.341-0.223,0.508c-0.12,0.27-0.239,0.531-0.356,0.782  c-0.071,0.153-0.143,0.304-0.213,0.45c-0.119,0.248-0.238,0.483-0.354,0.711c-0.062,0.123-0.126,0.25-0.187,0.366  c-0.139,0.265-0.274,0.51-0.407,0.745c-0.033,0.059-0.069,0.127-0.102,0.185c-0.165,0.286-0.324,0.55-0.478,0.794  c-0.045,0.071-0.086,0.131-0.13,0.198c-0.109,0.167-0.215,0.328-0.317,0.473c-0.052,0.074-0.101,0.141-0.152,0.21  c-0.057,0.077-0.111,0.148-0.166,0.219c-1.928-2.529-5.295-9.143-8.276-23.017c-3.34-15.548-5.179-35.543-5.179-56.303  c0-20.761,1.839-40.757,5.179-56.305c2.981-13.875,6.349-20.489,8.276-23.017c0.055,0.071,0.109,0.143,0.166,0.221  c0.049,0.069,0.099,0.134,0.151,0.209c0.103,0.147,0.211,0.31,0.321,0.479c0.042,0.066,0.083,0.124,0.126,0.191  c0.154,0.244,0.314,0.509,0.48,0.796c0.032,0.056,0.067,0.12,0.099,0.179c0.134,0.237,0.27,0.485,0.411,0.752  c0.06,0.115,0.124,0.242,0.185,0.362c0.117,0.229,0.234,0.465,0.355,0.714c0.07,0.144,0.14,0.295,0.211,0.445  c0.118,0.253,0.238,0.515,0.359,0.788c0.073,0.165,0.146,0.329,0.219,0.501c0.128,0.297,0.258,0.611,0.388,0.93  c0.068,0.166,0.134,0.326,0.203,0.498c0.165,0.414,0.33,0.85,0.498,1.299c0.037,0.098,0.072,0.187,0.109,0.287  c0.204,0.558,0.411,1.147,0.618,1.761c0.053,0.155,0.105,0.323,0.158,0.482c0.155,0.469,0.311,0.948,0.467,1.449  c0.073,0.236,0.147,0.483,0.221,0.725c0.138,0.454,0.275,0.918,0.413,1.397c0.079,0.274,0.157,0.554,0.237,0.837  c0.136,0.488,0.272,0.992,0.408,1.506c0.077,0.293,0.154,0.583,0.231,0.884c0.144,0.565,0.288,1.153,0.432,1.749  c0.067,0.274,0.132,0.539,0.199,0.821c0.209,0.887,0.415,1.801,0.621,2.756c3.34,15.547,5.179,35.544,5.179,56.305  C154.053,210.566,152.214,230.562,148.873,246.11z M69.379,109.553h52.256c-11.268,26.015-11.713,73.094-11.713,80.254  c0,7.159,0.444,54.238,11.713,80.252H69.379V109.553z M485.284,247.567l-226.108,14.742c1.862-6.501,3.474-13.263,4.81-20.225  c0.896-4.667-2.162-9.176-6.829-10.072c-4.67-0.896-9.177,2.162-10.072,6.829c-1.654,8.62-3.752,16.892-6.25,24.664l-20.534,1.339  l-7.458,0.486c6.386-15.782,12.951-40.521,12.951-75.523c0-35.003-6.566-59.744-12.951-75.525l3.812,0.248l24.181,1.577  c7.058,21.924,10.772,47.266,10.772,73.7c0,7.129-0.277,14.291-0.824,21.288c-0.37,4.738,3.17,8.879,7.909,9.249  c4.736,0.371,8.879-3.171,9.249-7.909c0.581-7.441,0.876-15.055,0.876-22.628c0-25.662-3.325-50.449-9.649-72.505l226.116,14.743  c3.494,4.339,9.507,24.663,9.507,57.762C494.791,222.905,488.777,243.228,485.284,247.567z"/>
<g>
</g>
<g>
</g>
<g>
</g>
<g>
</g>
<g>
</g>
<g>
</g>
<g>
</g>
<g>
</g>
<g>
</g>
<g>
</g>
<g>
</g>
<g>
</g>
<g>
</g>
<g>
</g>
<g>
</g>
</svg>
