<?xml version="1.0" encoding="iso-8859-1"?>
<!-- Generator: Adobe Illustrator 19.0.0, SVG Export Plug-In . SVG Version: 6.00 Build 0)  -->
<svg xmlns="http://www.w3.org/2000/svg" xmlns:xlink="http://www.w3.org/1999/xlink" version="1.1" id="Layer_1" x="0px" y="0px" viewBox="0 0 512.012 512.012" style="enable-background:new 0 0 512.012 512.012;" xml:space="preserve">
<path style="fill:#EAC71C;" d="M433.066,126.5c-5.02-17.674-15.767-32.941-30.106-43.665c-13.808-10.327-30.95-16.443-49.518-16.443  h-0.001c-18.569,0-35.71,6.116-49.518,16.443c-14.34,10.724-25.087,25.991-30.106,43.665c-2.044,7.201-3.139,14.8-3.139,22.657  c0,0.751,0.012,1.498,0.03,2.243c0.006,0.248,0.02,0.493,0.028,0.74c0.018,0.496,0.036,0.995,0.062,1.492  c0.016,0.292,0.037,0.583,0.055,0.874c0.029,0.448,0.059,0.897,0.095,1.341c0.025,0.31,0.054,0.615,0.083,0.923  c0.037,0.426,0.076,0.855,0.123,1.279c0.033,0.314,0.07,0.627,0.108,0.939c0.05,0.417,0.1,0.834,0.156,1.249  c0.043,0.316,0.088,0.627,0.132,0.94c0.061,0.411,0.124,0.825,0.191,1.234c0.05,0.31,0.1,0.62,0.154,0.932  c0.071,0.411,0.146,0.822,0.224,1.233c0.057,0.302,0.114,0.607,0.174,0.909c0.082,0.421,0.173,0.837,0.263,1.256  c0.012,0.054,0.023,0.108,0.036,0.16c12.831,1.76,23.944,8.892,30.993,19.065c4.553-1.178,9.33-1.809,14.253-1.809  c27.419,0,50.288,19.47,55.542,45.34c0.6-0.148,1.199-0.304,1.793-0.465c0.211-0.058,0.421-0.113,0.631-0.17  c0.789-0.222,1.577-0.453,2.359-0.696c0.122-0.038,0.24-0.08,0.362-0.117c0.666-0.211,1.326-0.43,1.987-0.659  c0.23-0.079,0.46-0.16,0.69-0.244c0.594-0.21,1.184-0.429,1.769-0.652c0.192-0.073,0.381-0.144,0.571-0.219  c0.755-0.293,1.507-0.599,2.253-0.918c0.14-0.059,0.276-0.12,0.414-0.18c0.615-0.264,1.226-0.537,1.832-0.815  c0.221-0.103,0.442-0.206,0.66-0.31c0.574-0.271,1.145-0.548,1.709-0.832c0.17-0.083,0.339-0.165,0.508-0.25  c0.718-0.366,1.43-0.741,2.137-1.128c0.149-0.081,0.296-0.167,0.447-0.248c0.562-0.314,1.123-0.632,1.68-0.957  c0.104-0.062,0.212-0.12,0.316-0.181l0.056-0.04c4.231-2.505,8.223-5.373,11.924-8.568l0.014-0.008  c0.013-0.013,0.025-0.024,0.04-0.037c0.536-0.461,1.066-0.933,1.59-1.409c0.001-0.001,0.003-0.002,0.004-0.004  c0.514-0.467,1.02-0.939,1.521-1.419c0.15-0.142,0.293-0.288,0.442-0.431c0.35-0.339,0.701-0.682,1.047-1.028  c0.183-0.183,0.36-0.369,0.54-0.555c0.307-0.314,0.613-0.629,0.915-0.948c0.19-0.202,0.38-0.406,0.568-0.611  c0.284-0.307,0.568-0.613,0.846-0.925c0.195-0.213,0.386-0.432,0.576-0.65c0.27-0.306,0.54-0.615,0.806-0.925  c0.191-0.222,0.379-0.447,0.569-0.674c0.258-0.309,0.518-0.625,0.774-0.94c0.185-0.228,0.372-0.457,0.555-0.687  c0.254-0.322,0.507-0.646,0.756-0.97c0.178-0.227,0.353-0.456,0.528-0.686c0.254-0.338,0.505-0.682,0.755-1.023  c0.162-0.222,0.325-0.443,0.485-0.664c0.267-0.374,0.528-0.75,0.787-1.129c0.137-0.197,0.276-0.392,0.409-0.591  c0.339-0.498,0.67-1.002,0.996-1.506c0.054-0.082,0.108-0.162,0.16-0.242c0.376-0.589,0.744-1.184,1.108-1.78  c0.111-0.183,0.218-0.369,0.327-0.554c0.25-0.418,0.496-0.834,0.738-1.256c0.135-0.235,0.264-0.474,0.397-0.71  c0.208-0.377,0.419-0.751,0.622-1.129c0.139-0.258,0.276-0.52,0.411-0.781c0.191-0.362,0.38-0.725,0.564-1.089  c0.136-0.27,0.269-0.542,0.404-0.815c0.177-0.36,0.353-0.722,0.526-1.086c0.131-0.279,0.263-0.558,0.391-0.836  c0.167-0.363,0.332-0.727,0.493-1.094c0.125-0.282,0.249-0.563,0.37-0.846c0.159-0.37,0.314-0.745,0.472-1.117  c0.114-0.283,0.23-0.562,0.344-0.845c0.156-0.384,0.3-0.772,0.45-1.159c0.104-0.276,0.211-0.551,0.316-0.827  c0.152-0.412,0.296-0.826,0.443-1.242c0.09-0.253,0.183-0.509,0.27-0.764c0.164-0.484,0.321-0.969,0.476-1.458  c0.062-0.192,0.127-0.382,0.186-0.574c0.213-0.68,0.415-1.362,0.61-2.047c0.044-0.156,0.084-0.316,0.128-0.473  c0.148-0.532,0.292-1.065,0.429-1.601c0.066-0.255,0.126-0.514,0.188-0.769c0.108-0.44,0.216-0.883,0.318-1.327  c0.066-0.289,0.125-0.577,0.188-0.865c0.09-0.419,0.181-0.835,0.264-1.256c0.06-0.3,0.116-0.606,0.173-0.909  c0.078-0.411,0.154-0.822,0.225-1.233c0.054-0.311,0.104-0.621,0.156-0.932c0.065-0.41,0.127-0.824,0.19-1.234  c0.044-0.313,0.087-0.625,0.13-0.94c0.056-0.416,0.108-0.832,0.157-1.249c0.037-0.312,0.072-0.625,0.108-0.939  c0.046-0.424,0.085-0.853,0.125-1.279c0.029-0.308,0.056-0.613,0.082-0.923c0.036-0.444,0.066-0.893,0.094-1.341  c0.018-0.292,0.039-0.583,0.055-0.874c0.026-0.496,0.043-0.995,0.063-1.492c0.009-0.247,0.022-0.492,0.027-0.74  c0.02-0.745,0.031-1.493,0.031-2.243C436.204,141.3,435.111,133.7,433.066,126.5z"/>
<path style="fill:#EDE21B;" d="M404.035,82.835c-13.808-10.327-30.95-16.443-49.518-16.443h-0.001  c-7.383,0-14.535,0.981-21.347,2.796c-6.438,15.169-10.002,31.854-10.002,49.372c0,26.973,8.45,51.97,22.839,72.497  c10.669,5.82,19.258,14.964,24.377,26.049c4.266,3.433,8.753,6.602,13.447,9.466c0.071-0.027,0.143-0.053,0.214-0.079  c0.192-0.073,0.381-0.144,0.57-0.219c0.756-0.293,1.508-0.599,2.254-0.918c0.14-0.059,0.276-0.12,0.414-0.18  c0.615-0.264,1.226-0.537,1.832-0.815c0.221-0.103,0.442-0.206,0.66-0.31c0.574-0.271,1.145-0.548,1.709-0.832  c0.17-0.083,0.339-0.165,0.508-0.25c0.718-0.366,1.43-0.741,2.137-1.128c0.149-0.081,0.296-0.167,0.447-0.248  c0.562-0.314,1.122-0.632,1.68-0.957c0.104-0.062,0.212-0.12,0.316-0.181l0.056-0.04c4.231-2.505,8.223-5.373,11.924-8.568  l0.014-0.008c0.013-0.013,0.025-0.024,0.04-0.037c0.536-0.461,1.066-0.933,1.589-1.409c0.002-0.001,0.004-0.002,0.005-0.004  c0.514-0.467,1.02-0.939,1.52-1.419c0.151-0.142,0.294-0.288,0.443-0.431c0.35-0.339,0.701-0.682,1.047-1.029  c0.183-0.183,0.36-0.369,0.54-0.555c0.307-0.314,0.613-0.629,0.915-0.948c0.19-0.202,0.38-0.406,0.568-0.611  c0.284-0.307,0.568-0.613,0.846-0.925c0.195-0.213,0.386-0.432,0.576-0.65c0.27-0.306,0.54-0.615,0.806-0.925  c0.191-0.222,0.379-0.447,0.569-0.674c0.258-0.309,0.518-0.625,0.774-0.94c0.185-0.228,0.372-0.457,0.555-0.687  c0.254-0.322,0.507-0.646,0.756-0.97c0.178-0.227,0.353-0.456,0.528-0.686c0.254-0.338,0.505-0.682,0.755-1.023  c0.162-0.222,0.325-0.443,0.485-0.664c0.267-0.374,0.528-0.75,0.786-1.129c0.138-0.197,0.277-0.392,0.41-0.591  c0.339-0.498,0.67-1.002,0.996-1.506c0.054-0.082,0.108-0.162,0.16-0.242c0.376-0.589,0.744-1.184,1.108-1.78  c0.111-0.183,0.218-0.369,0.327-0.554c0.25-0.418,0.496-0.834,0.738-1.256c0.135-0.235,0.264-0.474,0.397-0.71  c0.208-0.377,0.419-0.751,0.622-1.129c0.139-0.258,0.276-0.52,0.411-0.781c0.191-0.362,0.38-0.725,0.564-1.089  c0.136-0.27,0.269-0.542,0.404-0.815c0.177-0.36,0.353-0.722,0.526-1.086c0.131-0.279,0.263-0.558,0.391-0.836  c0.167-0.363,0.332-0.727,0.493-1.094c0.125-0.282,0.249-0.563,0.37-0.846c0.159-0.37,0.314-0.745,0.472-1.117  c0.114-0.283,0.23-0.562,0.344-0.845c0.156-0.384,0.3-0.772,0.45-1.159c0.103-0.276,0.211-0.551,0.316-0.827  c0.152-0.412,0.296-0.826,0.443-1.242c0.09-0.253,0.183-0.509,0.27-0.764c0.164-0.484,0.321-0.969,0.476-1.458  c0.062-0.192,0.127-0.382,0.186-0.574c0.213-0.68,0.415-1.362,0.61-2.047c0.044-0.156,0.084-0.316,0.128-0.473  c0.148-0.532,0.292-1.065,0.429-1.601c0.066-0.255,0.126-0.514,0.188-0.769c0.108-0.44,0.216-0.883,0.318-1.327  c0.066-0.289,0.125-0.577,0.188-0.865c0.09-0.419,0.181-0.835,0.264-1.256c0.06-0.3,0.116-0.606,0.173-0.909  c0.078-0.411,0.154-0.822,0.225-1.233c0.054-0.311,0.104-0.621,0.156-0.932c0.065-0.41,0.127-0.824,0.19-1.234  c0.044-0.313,0.087-0.625,0.13-0.94c0.056-0.416,0.108-0.832,0.157-1.249c0.037-0.312,0.072-0.625,0.108-0.939  c0.046-0.424,0.085-0.853,0.125-1.279c0.029-0.308,0.056-0.613,0.082-0.923c0.036-0.444,0.066-0.893,0.094-1.341  c0.018-0.292,0.039-0.583,0.054-0.874c0.027-0.496,0.044-0.995,0.064-1.492c0.009-0.247,0.022-0.492,0.027-0.74  c0.02-0.745,0.031-1.493,0.031-2.243c0-7.857-1.094-15.458-3.139-22.657C429.122,108.826,418.376,93.559,404.035,82.835z"/>
<path style="fill:#EF8229;" d="M404.629,147.393c-0.005-0.146-0.01-0.294-0.017-0.44c-0.024-0.583-0.057-1.166-0.1-1.746  c-0.045-0.579-0.102-1.156-0.164-1.73c-0.016-0.143-0.033-0.286-0.051-0.428c-0.135-1.146-0.309-2.28-0.518-3.402  c-0.025-0.139-0.052-0.279-0.081-0.417c-0.218-1.119-0.475-2.225-0.764-3.316c-0.038-0.135-0.072-0.268-0.111-0.403  c-0.299-1.09-0.634-2.164-1-3.222c-0.045-0.128-0.093-0.258-0.137-0.388c-0.379-1.054-0.788-2.095-1.231-3.117  c-0.054-0.124-0.108-0.248-0.16-0.372c-0.451-1.018-0.935-2.02-1.45-3.005c-0.06-0.118-0.123-0.236-0.186-0.353  c-0.52-0.978-1.073-1.94-1.655-2.881c-0.07-0.112-0.139-0.224-0.21-0.337c-0.617-0.979-1.268-1.939-1.948-2.872  c-2.041-2.804-4.358-5.396-6.914-7.73l-0.008-0.006c-0.012-0.011-0.023-0.023-0.034-0.031c-0.141-0.127-0.282-0.25-0.423-0.377  c-0.156-0.139-0.311-0.279-0.468-0.418c-0.073-0.065-0.15-0.127-0.226-0.193c-0.074-0.062-0.148-0.126-0.223-0.192  c-0.076-0.066-0.156-0.128-0.233-0.195c-0.075-0.066-0.153-0.131-0.229-0.196c-0.155-0.128-0.31-0.251-0.464-0.378  c-0.155-0.126-0.31-0.25-0.465-0.374c-0.159-0.126-0.32-0.25-0.48-0.376c-0.155-0.118-0.309-0.238-0.467-0.358  c-0.16-0.121-0.326-0.242-0.49-0.365c-0.158-0.115-0.316-0.23-0.474-0.344c-0.166-0.12-0.333-0.238-0.502-0.353  c-0.158-0.114-0.319-0.225-0.479-0.334c-0.169-0.116-0.338-0.229-0.507-0.342c-0.165-0.11-0.33-0.216-0.493-0.324  c-0.169-0.112-0.341-0.223-0.514-0.331c-0.168-0.107-0.335-0.21-0.504-0.314c-0.172-0.106-0.346-0.213-0.517-0.318  c-0.172-0.101-0.345-0.202-0.515-0.303c-0.174-0.102-0.348-0.205-0.522-0.304c-0.174-0.1-0.351-0.197-0.526-0.292  c-0.177-0.098-0.351-0.196-0.528-0.292c-0.179-0.096-0.359-0.191-0.54-0.284c-0.174-0.093-0.351-0.185-0.529-0.277  c-0.183-0.093-0.37-0.183-0.555-0.275c0,0-0.001,0-0.002-0.001c-0.003-0.002-0.01-0.005-0.014-0.006  c-0.17-0.085-0.34-0.17-0.513-0.254c-0.097-0.045-0.196-0.09-0.292-0.136c-0.098-0.044-0.195-0.092-0.293-0.137  c-0.169-0.079-0.34-0.158-0.513-0.237c-0.116-0.053-0.237-0.104-0.355-0.156c-0.117-0.051-0.236-0.103-0.354-0.156  c-0.181-0.078-0.361-0.157-0.543-0.233c-0.321-0.134-0.641-0.265-0.962-0.393c-0.158-0.062-0.316-0.121-0.473-0.18  c-0.223-0.086-0.443-0.17-0.668-0.254c-0.168-0.062-0.339-0.121-0.51-0.181c-0.212-0.075-0.426-0.153-0.642-0.226  c-0.087-0.029-0.177-0.059-0.266-0.087c-0.089-0.03-0.177-0.059-0.265-0.088c-0.106-0.033-0.212-0.069-0.317-0.103  c-0.107-0.033-0.209-0.069-0.317-0.104c-0.182-0.055-0.364-0.11-0.547-0.165c-0.208-0.064-0.419-0.126-0.629-0.186  c-0.185-0.054-0.373-0.104-0.559-0.157c-0.209-0.058-0.42-0.113-0.631-0.17c-0.188-0.051-0.376-0.097-0.562-0.142  c-0.213-0.054-0.425-0.107-0.639-0.157c-0.19-0.043-0.38-0.086-0.568-0.129c-0.214-0.05-0.429-0.095-0.644-0.141  c-0.193-0.04-0.382-0.079-0.574-0.116c-0.215-0.041-0.433-0.084-0.65-0.125c-0.097-0.018-0.191-0.032-0.288-0.052  c-0.095-0.016-0.191-0.034-0.285-0.051c-0.221-0.037-0.443-0.074-0.663-0.111c-0.192-0.031-0.381-0.061-0.573-0.088  c-0.223-0.033-0.45-0.066-0.676-0.095c-0.095-0.014-0.19-0.025-0.284-0.037c-0.094-0.014-0.188-0.026-0.284-0.037  c-0.232-0.029-0.461-0.055-0.694-0.08c-0.187-0.022-0.375-0.044-0.561-0.062c-0.117-0.011-0.238-0.02-0.358-0.031  c-0.12-0.01-0.239-0.022-0.356-0.031c-0.184-0.016-0.366-0.03-0.547-0.044c-0.252-0.019-0.505-0.034-0.756-0.048  c-0.172-0.011-0.344-0.023-0.517-0.031c-0.187-0.009-0.375-0.016-0.563-0.023c-0.094-0.002-0.187-0.008-0.28-0.011  c-0.148-0.003-0.292-0.011-0.435-0.014c-0.425-0.011-0.852-0.016-1.279-0.018c-0.002,0-0.006,0-0.008,0h-0.001  c-0.003,0-0.004,0-0.009,0c-0.428,0.002-0.852,0.008-1.279,0.018c-0.144,0.003-0.289,0.011-0.434,0.014  c-0.094,0.003-0.186,0.009-0.28,0.011c-0.19,0.006-0.378,0.014-0.563,0.023c-0.172,0.009-0.345,0.022-0.516,0.031  c-0.251,0.014-0.505,0.029-0.755,0.048c-0.183,0.014-0.365,0.028-0.548,0.044c-0.118,0.011-0.238,0.023-0.358,0.031  c-0.118,0.012-0.239,0.022-0.359,0.031c-0.186,0.018-0.373,0.041-0.561,0.062c-0.232,0.025-0.463,0.051-0.691,0.08  c-0.096,0.011-0.191,0.023-0.284,0.037c-0.096,0.012-0.191,0.023-0.284,0.037c-0.226,0.029-0.453,0.061-0.677,0.095  c-0.193,0.027-0.381,0.057-0.573,0.088c-0.22,0.036-0.442,0.073-0.663,0.111c-0.095,0.016-0.191,0.034-0.285,0.051  c-0.096,0.019-0.191,0.033-0.286,0.052c-0.22,0.041-0.436,0.084-0.652,0.125c-0.192,0.038-0.381,0.076-0.573,0.116  c-0.214,0.046-0.429,0.092-0.644,0.141c-0.19,0.043-0.377,0.086-0.568,0.129c-0.212,0.052-0.426,0.104-0.64,0.157  c-0.186,0.045-0.375,0.092-0.562,0.142c-0.211,0.057-0.422,0.112-0.632,0.17c-0.185,0.053-0.372,0.103-0.558,0.157  c-0.21,0.06-0.421,0.123-0.629,0.186c-0.183,0.056-0.364,0.111-0.547,0.165c-0.107,0.034-0.21,0.07-0.317,0.104  c-0.103,0.033-0.21,0.069-0.316,0.103c-0.089,0.029-0.178,0.058-0.266,0.088c-0.088,0.028-0.177,0.058-0.266,0.087  c-0.213,0.073-0.428,0.151-0.642,0.226c-0.169,0.06-0.34,0.118-0.51,0.181c-0.224,0.084-0.444,0.168-0.667,0.254  c-0.157,0.059-0.316,0.117-0.473,0.18c-0.322,0.128-0.643,0.26-0.963,0.393c-0.181,0.075-0.361,0.155-0.543,0.233  c-0.118,0.053-0.236,0.106-0.353,0.156c-0.118,0.052-0.239,0.103-0.356,0.156c-0.17,0.078-0.341,0.157-0.513,0.237  c-0.097,0.045-0.194,0.093-0.291,0.137c-0.098,0.045-0.196,0.09-0.294,0.136c-0.171,0.084-0.341,0.169-0.512,0.254  c-0.004,0.001-0.011,0.004-0.014,0.006c-0.001,0.001-0.003,0.001-0.003,0.001c-0.184,0.092-0.372,0.182-0.555,0.275  c-0.178,0.092-0.353,0.184-0.528,0.277c-0.181,0.094-0.361,0.188-0.541,0.284c-0.177,0.096-0.352,0.194-0.528,0.292  c-0.174,0.096-0.35,0.193-0.524,0.292c-0.174,0.099-0.348,0.202-0.522,0.304c-0.171,0.1-0.342,0.202-0.516,0.303  c-0.172,0.104-0.345,0.212-0.517,0.318c-0.167,0.104-0.336,0.208-0.504,0.314c-0.171,0.108-0.342,0.219-0.514,0.331  c-0.164,0.108-0.328,0.214-0.492,0.324c-0.169,0.113-0.338,0.227-0.507,0.342c-0.162,0.109-0.321,0.22-0.48,0.334  c-0.168,0.115-0.335,0.234-0.502,0.353c-0.156,0.113-0.314,0.229-0.473,0.344c-0.162,0.123-0.328,0.243-0.49,0.365  c-0.156,0.12-0.312,0.239-0.466,0.358c-0.162,0.125-0.323,0.249-0.48,0.376c-0.156,0.123-0.311,0.247-0.466,0.374  c-0.154,0.126-0.308,0.249-0.462,0.378c-0.078,0.065-0.155,0.13-0.23,0.196c-0.078,0.067-0.156,0.129-0.233,0.195  c-0.075,0.066-0.151,0.129-0.225,0.192c-0.075,0.066-0.152,0.128-0.224,0.193c-0.158,0.139-0.313,0.279-0.471,0.418  c-0.141,0.126-0.282,0.249-0.422,0.377c-0.012,0.01-0.024,0.022-0.034,0.031l-0.008,0.006c-2.555,2.335-4.872,4.925-6.914,7.73  c-0.681,0.934-1.329,1.893-1.948,2.872c-0.069,0.112-0.141,0.225-0.209,0.337c-0.583,0.941-1.136,1.903-1.656,2.881  c-0.064,0.117-0.124,0.235-0.186,0.353c-0.514,0.984-0.998,1.987-1.449,3.005c-0.055,0.123-0.109,0.247-0.16,0.372  c-0.443,1.021-0.853,2.062-1.231,3.117c-0.046,0.129-0.092,0.26-0.137,0.388c-0.367,1.059-0.7,2.132-1.003,3.222  c-0.037,0.135-0.071,0.268-0.11,0.403c-0.29,1.091-0.545,2.197-0.764,3.316c-0.029,0.138-0.055,0.278-0.08,0.417  c-0.211,1.122-0.383,2.256-0.519,3.402c-0.017,0.142-0.034,0.285-0.05,0.428c-0.064,0.574-0.118,1.15-0.164,1.73  c-0.044,0.579-0.075,1.163-0.101,1.746c-0.005,0.146-0.012,0.294-0.016,0.44c-0.018,0.585-0.033,1.174-0.033,1.765  c0,1.773,0.089,3.524,0.264,5.25c0.04,0.382,0.084,0.766,0.131,1.146c0.059,0.476,0.123,0.951,0.196,1.423  c0.324,2.126,0.781,4.208,1.357,6.237c0.171,0.602,0.356,1.195,0.548,1.787c0.054,0.166,0.109,0.33,0.164,0.494  c0.157,0.473,0.322,0.941,0.494,1.409c0.047,0.127,0.093,0.257,0.14,0.383c0.195,0.515,0.393,1.024,0.603,1.529l0.017,0.027  c2.024,4.871,4.777,9.357,8.122,13.334l0.034,0.058c0.152,0.181,0.307,0.356,0.463,0.533c0.087,0.102,0.174,0.206,0.263,0.306  c0.341,0.389,0.694,0.771,1.048,1.15c0.674-0.024,1.345-0.066,2.026-0.066c15.431,0,29.413,6.173,39.634,16.177  c0.052-0.004,0.106-0.006,0.157-0.011c0.019-0.002,0.037-0.002,0.055-0.003c0.64-0.054,1.273-0.124,1.904-0.2  c0.159-0.019,0.317-0.039,0.474-0.06c0.598-0.079,1.192-0.164,1.781-0.263c0.037-0.008,0.072-0.012,0.108-0.018  c0.621-0.106,1.237-0.225,1.851-0.351c0.155-0.031,0.306-0.066,0.459-0.099c0.568-0.122,1.134-0.254,1.693-0.394  c0.051-0.014,0.099-0.025,0.149-0.037c0.603-0.154,1.199-0.322,1.792-0.496c0.148-0.045,0.293-0.088,0.44-0.136  c0.54-0.163,1.076-0.335,1.608-0.516c0.061-0.022,0.12-0.04,0.18-0.059c0.581-0.202,1.155-0.416,1.726-0.638  c0.141-0.055,0.281-0.11,0.42-0.166c0.513-0.202,1.022-0.412,1.525-0.632c0.067-0.028,0.135-0.058,0.201-0.087  c0.559-0.244,1.109-0.504,1.657-0.767c0.132-0.064,0.265-0.13,0.396-0.196c0.486-0.241,0.967-0.487,1.445-0.741  c0.07-0.038,0.143-0.074,0.214-0.113c0.533-0.288,1.06-0.589,1.58-0.895c0.126-0.072,0.25-0.145,0.372-0.221  c0.461-0.275,0.914-0.557,1.363-0.844c0.074-0.047,0.149-0.094,0.222-0.14c0.507-0.33,1.007-0.669,1.5-1.014  c0.115-0.079,0.229-0.164,0.342-0.244c0.431-0.306,0.856-0.619,1.276-0.938c0.075-0.058,0.154-0.114,0.229-0.171  c0.476-0.367,0.946-0.744,1.41-1.126c0.107-0.089,0.211-0.178,0.318-0.267c0.4-0.336,0.794-0.678,1.186-1.026  c0.075-0.067,0.154-0.136,0.23-0.204c0.446-0.403,0.881-0.814,1.314-1.232c0.097-0.095,0.193-0.19,0.289-0.285  c0.369-0.364,0.736-0.733,1.094-1.108c0.076-0.078,0.153-0.156,0.227-0.235c0.411-0.436,0.815-0.88,1.212-1.329  c0.088-0.101,0.174-0.204,0.263-0.306c0.156-0.177,0.311-0.352,0.462-0.533l0.036-0.058c3.343-3.977,6.099-8.462,8.121-13.334  l0.017-0.027c0.21-0.505,0.41-1.014,0.603-1.529c0.05-0.126,0.095-0.256,0.141-0.383c0.173-0.467,0.337-0.936,0.495-1.409  c0.055-0.165,0.11-0.328,0.164-0.494c0.192-0.591,0.377-1.186,0.548-1.787c0.575-2.029,1.032-4.111,1.356-6.237  c0.072-0.472,0.137-0.947,0.196-1.423c0.048-0.381,0.093-0.764,0.131-1.146c0.174-1.726,0.265-3.477,0.265-5.25  C404.662,148.567,404.649,147.978,404.629,147.393z"/>
<path style="fill:#9FDEF7;" d="M288.466,297.519H86.528c-30.944,0-56.026-25.083-56.026-56.024  c0-30.943,25.082-56.024,56.026-56.024c5.845,0,11.477,0.898,16.773,2.556c-0.027-0.848-0.066-1.697-0.066-2.556  c0-41.617,33.739-75.356,75.356-75.356c35.885,0,65.891,25.092,73.482,58.681c4.502-1.501,9.313-2.326,14.321-2.326  c15.418,0,29.024,7.72,37.185,19.498c4.553-1.178,9.33-1.809,14.254-1.809c31.303,0,56.679,25.376,56.679,56.679  c0,31.304-25.376,56.681-56.679,56.681h2.343"/>
<path style="fill:#F29F26;" d="M405.689,146.952c-0.024-0.583-0.057-1.166-0.1-1.746c-0.045-0.579-0.102-1.156-0.164-1.73  c-0.016-0.143-0.033-0.286-0.051-0.428c-0.135-1.146-0.309-2.28-0.518-3.402c-0.025-0.139-0.052-0.279-0.081-0.417  c-0.218-1.119-0.475-2.225-0.764-3.316c-0.038-0.135-0.072-0.268-0.111-0.403c-0.299-1.09-0.634-2.164-1-3.222  c-0.045-0.128-0.093-0.258-0.137-0.388c-0.379-1.054-0.788-2.095-1.231-3.117c-0.054-0.124-0.108-0.248-0.16-0.372  c-0.451-1.018-0.935-2.02-1.45-3.005c-0.06-0.118-0.123-0.236-0.186-0.353c-0.52-0.978-1.073-1.94-1.655-2.881  c-0.07-0.112-0.139-0.224-0.21-0.337c-0.617-0.979-1.268-1.939-1.948-2.872c-2.041-2.804-4.358-5.396-6.914-7.73l-0.008-0.006  c-0.012-0.011-0.023-0.023-0.034-0.031c-0.141-0.127-0.282-0.25-0.423-0.377c-0.156-0.139-0.311-0.279-0.468-0.418  c-0.073-0.065-0.15-0.127-0.226-0.193c-0.074-0.062-0.148-0.126-0.223-0.192c-0.077-0.066-0.156-0.128-0.233-0.195  c-0.075-0.066-0.153-0.131-0.229-0.196c-0.155-0.128-0.31-0.251-0.464-0.378c-0.155-0.126-0.31-0.25-0.465-0.374  c-0.159-0.126-0.32-0.25-0.48-0.376c-0.156-0.118-0.309-0.238-0.467-0.358c-0.16-0.121-0.326-0.242-0.49-0.365  c-0.158-0.115-0.316-0.23-0.474-0.344c-0.166-0.12-0.333-0.238-0.502-0.353c-0.158-0.114-0.319-0.225-0.479-0.334  c-0.169-0.116-0.338-0.229-0.507-0.342c-0.165-0.11-0.33-0.216-0.493-0.324c-0.169-0.112-0.341-0.223-0.514-0.331  c-0.168-0.107-0.335-0.21-0.504-0.314c-0.172-0.106-0.346-0.213-0.517-0.318c-0.172-0.101-0.345-0.202-0.515-0.303  c-0.174-0.102-0.348-0.205-0.522-0.304c-0.174-0.1-0.351-0.197-0.526-0.292c-0.177-0.098-0.351-0.196-0.528-0.292  c-0.179-0.096-0.359-0.191-0.54-0.284c-0.174-0.093-0.351-0.185-0.529-0.277c-0.183-0.093-0.37-0.183-0.555-0.275  c0,0-0.001,0-0.002-0.001c-0.003-0.002-0.01-0.005-0.014-0.006c-0.17-0.085-0.34-0.17-0.513-0.254  c-0.097-0.045-0.196-0.09-0.292-0.136c-0.098-0.044-0.195-0.092-0.293-0.137c-0.169-0.079-0.34-0.158-0.513-0.237  c-0.116-0.053-0.237-0.104-0.355-0.156c-0.117-0.051-0.236-0.103-0.354-0.156c-0.181-0.078-0.361-0.157-0.543-0.233  c-0.321-0.134-0.641-0.265-0.962-0.393c-0.158-0.062-0.316-0.121-0.473-0.18c-0.223-0.086-0.443-0.17-0.668-0.254  c-0.168-0.062-0.339-0.121-0.51-0.181c-0.212-0.075-0.426-0.153-0.642-0.226c-0.087-0.029-0.177-0.059-0.266-0.087  c-0.089-0.03-0.177-0.059-0.265-0.088c-0.106-0.033-0.212-0.069-0.317-0.103c-0.107-0.033-0.209-0.069-0.317-0.104  c-0.182-0.055-0.364-0.11-0.547-0.165c-0.208-0.064-0.419-0.126-0.629-0.186c-0.185-0.054-0.373-0.104-0.559-0.157  c-0.209-0.058-0.42-0.113-0.631-0.17c-0.188-0.051-0.376-0.097-0.562-0.142c-0.213-0.054-0.425-0.107-0.639-0.157  c-0.19-0.043-0.38-0.086-0.568-0.129c-0.214-0.05-0.429-0.095-0.644-0.141c-0.193-0.04-0.382-0.079-0.574-0.116  c-0.215-0.041-0.433-0.084-0.65-0.125c-0.097-0.018-0.191-0.032-0.288-0.052c-0.095-0.016-0.191-0.034-0.285-0.051  c-0.221-0.037-0.443-0.074-0.663-0.111c-0.192-0.031-0.381-0.061-0.573-0.088c-0.223-0.033-0.45-0.066-0.676-0.095  c-0.095-0.014-0.19-0.025-0.284-0.037c-0.094-0.014-0.188-0.026-0.284-0.037c-0.232-0.029-0.461-0.055-0.694-0.08  c-0.187-0.022-0.375-0.044-0.561-0.062c-0.117-0.011-0.238-0.02-0.358-0.031c-0.12-0.01-0.239-0.022-0.356-0.031  c-0.184-0.016-0.366-0.03-0.547-0.044c-0.252-0.019-0.505-0.034-0.756-0.048c-0.172-0.011-0.344-0.023-0.517-0.031  c-0.187-0.009-0.375-0.016-0.563-0.023c-0.095-0.002-0.187-0.008-0.28-0.011c-0.148-0.003-0.292-0.011-0.435-0.014  c-0.425-0.011-0.852-0.016-1.279-0.018c-0.002,0-0.006,0-0.008,0h-0.001c-0.003,0-0.004,0-0.009,0  c-0.428,0.002-0.852,0.008-1.279,0.018c-0.144,0.003-0.289,0.011-0.434,0.014c-0.094,0.003-0.186,0.009-0.28,0.011  c-0.19,0.006-0.378,0.014-0.563,0.023c-0.172,0.009-0.345,0.022-0.516,0.031c-0.251,0.014-0.505,0.029-0.755,0.048  c-0.183,0.014-0.365,0.028-0.548,0.044c-0.118,0.011-0.238,0.023-0.358,0.031c-0.118,0.012-0.239,0.022-0.359,0.031  c-0.186,0.018-0.373,0.041-0.561,0.062c-0.232,0.025-0.463,0.051-0.691,0.08c-0.096,0.011-0.191,0.023-0.284,0.037  c-0.096,0.012-0.191,0.023-0.284,0.037c-0.226,0.029-0.453,0.061-0.677,0.095c-0.193,0.027-0.381,0.057-0.573,0.088  c-0.22,0.036-0.442,0.073-0.663,0.111c-0.095,0.016-0.191,0.034-0.285,0.051c-0.096,0.019-0.191,0.033-0.286,0.052  c-0.22,0.041-0.436,0.084-0.652,0.125c-0.192,0.038-0.381,0.076-0.573,0.116c-0.214,0.046-0.429,0.092-0.644,0.141  c-0.19,0.043-0.377,0.086-0.568,0.129c-0.212,0.052-0.426,0.104-0.64,0.157c-0.186,0.045-0.375,0.092-0.562,0.142  c-0.211,0.057-0.422,0.112-0.632,0.17c-0.185,0.053-0.372,0.103-0.558,0.157c-0.21,0.06-0.421,0.123-0.629,0.186  c-0.183,0.056-0.364,0.111-0.547,0.165c-0.107,0.034-0.21,0.07-0.318,0.104c-0.102,0.033-0.209,0.069-0.314,0.103  c-0.089,0.029-0.178,0.058-0.266,0.088c-0.088,0.028-0.177,0.058-0.266,0.087c-0.213,0.073-0.428,0.151-0.642,0.226  c-0.169,0.06-0.34,0.118-0.51,0.181c-0.224,0.084-0.444,0.168-0.667,0.254c-0.157,0.059-0.316,0.117-0.473,0.18  c-0.322,0.128-0.643,0.26-0.963,0.393c-0.181,0.075-0.361,0.155-0.543,0.233c-0.118,0.053-0.236,0.106-0.353,0.156  c-0.118,0.052-0.239,0.103-0.356,0.156c-0.17,0.078-0.341,0.157-0.513,0.237c-0.097,0.045-0.194,0.093-0.291,0.137  c-0.098,0.045-0.196,0.09-0.294,0.136c-0.171,0.084-0.341,0.169-0.512,0.254c-0.004,0.001-0.011,0.004-0.014,0.006  c-0.001,0.001-0.003,0.001-0.003,0.001c-0.184,0.092-0.372,0.182-0.555,0.275c-0.178,0.092-0.353,0.184-0.528,0.277  c-0.181,0.094-0.361,0.188-0.541,0.284c-0.177,0.096-0.352,0.194-0.528,0.292c-0.174,0.096-0.35,0.193-0.524,0.292  c-0.174,0.099-0.348,0.202-0.522,0.304c-0.171,0.1-0.342,0.202-0.516,0.303c-0.172,0.104-0.346,0.212-0.517,0.318  c-0.167,0.104-0.336,0.208-0.504,0.314c-0.171,0.108-0.342,0.219-0.514,0.331c-0.164,0.108-0.328,0.214-0.492,0.324  c-0.169,0.113-0.338,0.227-0.507,0.342c-0.162,0.109-0.321,0.22-0.48,0.334c-0.168,0.115-0.335,0.234-0.502,0.353  c-0.156,0.113-0.314,0.229-0.473,0.344c-0.124,0.095-0.251,0.187-0.377,0.281c-0.285,3.463-0.436,6.964-0.436,10.499  c0,26.977,8.452,51.976,22.844,72.505c4.6,2.511,8.819,5.635,12.535,9.272c0.052-0.004,0.106-0.006,0.157-0.011  c0.019-0.002,0.037-0.002,0.055-0.003c0.64-0.054,1.273-0.124,1.904-0.2c0.159-0.019,0.317-0.039,0.474-0.06  c0.598-0.079,1.192-0.164,1.781-0.263c0.037-0.008,0.072-0.012,0.108-0.018c0.621-0.106,1.237-0.225,1.851-0.351  c0.155-0.031,0.306-0.066,0.459-0.099c0.568-0.122,1.134-0.254,1.693-0.394c0.051-0.014,0.099-0.025,0.149-0.037  c0.603-0.154,1.199-0.322,1.792-0.496c0.148-0.045,0.293-0.088,0.44-0.136c0.54-0.163,1.076-0.335,1.608-0.516  c0.061-0.022,0.12-0.04,0.18-0.059c0.58-0.202,1.154-0.416,1.726-0.638c0.141-0.055,0.281-0.11,0.42-0.166  c0.513-0.202,1.022-0.412,1.525-0.632c0.067-0.028,0.135-0.058,0.201-0.087c0.559-0.244,1.109-0.504,1.657-0.767  c0.132-0.064,0.265-0.13,0.396-0.196c0.486-0.241,0.967-0.487,1.445-0.741c0.07-0.038,0.143-0.074,0.214-0.113  c0.533-0.288,1.06-0.589,1.58-0.895c0.126-0.072,0.25-0.145,0.372-0.221c0.461-0.275,0.914-0.557,1.363-0.844  c0.074-0.047,0.149-0.094,0.222-0.14c0.507-0.33,1.007-0.669,1.5-1.014c0.115-0.079,0.229-0.164,0.342-0.244  c0.431-0.306,0.856-0.619,1.276-0.938c0.075-0.058,0.154-0.114,0.229-0.171c0.476-0.367,0.946-0.744,1.41-1.126  c0.107-0.089,0.211-0.178,0.318-0.267c0.4-0.336,0.794-0.678,1.186-1.026c0.074-0.067,0.154-0.136,0.23-0.204  c0.446-0.403,0.881-0.814,1.314-1.232c0.097-0.095,0.193-0.19,0.289-0.285c0.369-0.364,0.736-0.733,1.094-1.108  c0.076-0.078,0.153-0.156,0.227-0.235c0.411-0.436,0.815-0.88,1.212-1.329c0.088-0.101,0.174-0.204,0.263-0.306  c0.156-0.177,0.311-0.352,0.462-0.533l0.036-0.058c3.343-3.977,6.099-8.462,8.121-13.334l0.017-0.027  c0.21-0.505,0.41-1.014,0.603-1.529c0.05-0.126,0.095-0.256,0.141-0.383c0.173-0.467,0.337-0.936,0.495-1.409  c0.055-0.165,0.11-0.328,0.164-0.494c0.192-0.591,0.377-1.186,0.548-1.787c0.575-2.029,1.032-4.111,1.356-6.237  c0.072-0.472,0.137-0.947,0.196-1.423c0.048-0.381,0.093-0.764,0.131-1.146c0.174-1.726,0.265-3.477,0.265-5.25  c0-0.591-0.014-1.18-0.033-1.765C405.7,147.246,405.696,147.098,405.689,146.952z"/>
<path style="fill:#83D4ED;" d="M158.598,176.784c0-24.123,5.432-46.974,15.128-67.41c-38.325,3.543-68.336,35.771-68.336,75.019  c0,0.858,0.038,1.708,0.066,2.556c-5.295-1.657-10.929-2.556-16.773-2.556c-30.944,0-56.026,25.081-56.026,56.024  c0,30.941,25.082,56.024,56.026,56.024h125.035C179.982,267.564,158.598,224.674,158.598,176.784z"/>
<g>
	<path style="fill:#231F20;" d="M43.964,378.624c15.644,0,30.358-6.099,41.433-17.174c0.002-0.002,0.004-0.004,0.006-0.008   c7.82-7.817,18.204-12.121,29.242-12.121c11.033,0,21.414,4.302,29.233,12.114c0.005,0.005,0.01,0.011,0.014,0.016   c11.423,11.422,26.429,17.133,41.435,17.133c15.005,0,30.01-5.711,41.434-17.133c0.008-0.008,0.013-0.015,0.02-0.023   c7.818-7.807,18.195-12.107,29.226-12.107c11.039,0,21.423,4.305,29.243,12.121c0.002,0.002,0.004,0.004,0.006,0.008   c11.074,11.075,25.788,17.174,41.433,17.174c15.644,0,30.358-6.099,41.435-17.173c0.008-0.008,0.013-0.015,0.02-0.023   c7.818-7.807,18.195-12.107,29.226-12.107c11.039,0,21.423,4.305,29.243,12.121c0.002,0.002,0.004,0.004,0.006,0.008   c11.074,11.075,25.788,17.174,41.433,17.174c15.644,0,30.358-6.099,41.433-17.174c3.364-3.364,3.364-8.819-0.001-12.184   c-3.363-3.363-8.818-3.364-12.184,0.001c-7.82,7.82-18.206,12.127-29.247,12.127c-11.031,0-21.41-4.3-29.228-12.107   c-0.008-0.008-0.013-0.015-0.02-0.023c-11.075-11.074-25.79-17.173-41.435-17.173c-15.644,0-30.357,6.099-41.433,17.174   c-0.002,0.002-0.004,0.005-0.007,0.008c-7.82,7.817-18.204,12.121-29.243,12.121c-11.031,0-21.41-4.3-29.228-12.107   c-0.008-0.008-0.013-0.015-0.02-0.023c-11.075-11.074-25.79-17.173-41.435-17.173c-15.644,0-30.357,6.099-41.433,17.174   c-0.002,0.002-0.004,0.005-0.006,0.008c-16.123,16.118-42.35,16.118-58.479,0.008c-0.004-0.004-0.009-0.01-0.013-0.014   c-11.074-11.075-25.788-17.174-41.432-17.174c-15.643,0-30.357,6.099-41.434,17.173c-0.008,0.008-0.013,0.015-0.02,0.023   c-7.818,7.807-18.195,12.107-29.228,12.107c-11.042,0-21.428-4.307-29.249-12.128c-3.365-3.363-8.82-3.363-12.186,0   c-3.364,3.365-3.364,8.819,0,12.185C13.604,372.525,28.319,378.624,43.964,378.624z"/>
	<path style="fill:#231F20;" d="M497.297,409.724c-16.125,16.125-42.361,16.126-58.488,0.005c-0.002-0.002-0.004-0.004-0.005-0.006   c-11.075-11.077-25.79-17.176-41.435-17.176c-15.644,0-30.359,6.1-41.433,17.176c-0.004,0.004-0.008,0.01-0.012,0.014   c-16.13,16.111-42.356,16.109-58.478-0.008c-0.002-0.002-0.004-0.004-0.005-0.006c-11.075-11.077-25.79-17.176-41.435-17.176   c-15.644,0-30.358,6.1-41.433,17.176c-0.004,0.004-0.008,0.01-0.012,0.014c-16.126,16.109-42.348,16.108-58.474,0   c-0.004-0.004-0.008-0.01-0.012-0.014c-11.073-11.077-25.788-17.176-41.432-17.176c-15.643,0-30.357,6.1-41.434,17.176   c-0.002,0.002-0.004,0.004-0.005,0.006c-16.127,16.122-42.364,16.12-58.492-0.005c-3.363-3.363-8.818-3.364-12.184,0.001   c-3.364,3.364-3.364,8.819,0.001,12.184c11.423,11.422,26.429,17.133,41.434,17.133s30.009-5.712,41.433-17.133   c0.008-0.008,0.013-0.015,0.02-0.023c7.818-7.808,18.196-12.109,29.229-12.109c11.033,0,21.415,4.302,29.233,12.116   c0.005,0.005,0.009,0.011,0.014,0.015c11.423,11.421,26.428,17.132,41.435,17.132c15.005,0,30.009-5.711,41.433-17.132   c0.005-0.005,0.01-0.011,0.014-0.016c7.818-7.813,18.199-12.116,29.234-12.116c11.031,0,21.411,4.301,29.23,12.109   c0.008,0.008,0.013,0.015,0.02,0.023c11.424,11.423,26.425,17.133,41.433,17.133c15.004,0,30.012-5.713,41.434-17.133   c0.005-0.005,0.009-0.011,0.014-0.015c7.818-7.813,18.199-12.116,29.234-12.116c11.031,0,21.411,4.301,29.23,12.109   c0.008,0.008,0.013,0.015,0.02,0.023c11.423,11.422,26.427,17.133,41.433,17.133s30.008-5.711,41.433-17.133   c3.364-3.365,3.364-8.819,0-12.185C506.118,406.361,500.663,406.361,497.297,409.724z"/>
	<path style="fill:#231F20;" d="M497.297,470.181c-7.82,7.82-18.206,12.127-29.247,12.127c-11.031,0-21.41-4.3-29.228-12.107   c-0.008-0.008-0.013-0.015-0.02-0.023c-11.075-11.074-25.79-17.173-41.435-17.173c-15.644,0-30.357,6.099-41.433,17.174   c-0.002,0.002-0.004,0.004-0.007,0.008c-7.82,7.817-18.204,12.121-29.243,12.121c-11.031,0-21.41-4.3-29.228-12.107   c-0.008-0.008-0.013-0.015-0.02-0.023c-11.075-11.074-25.79-17.173-41.435-17.173c-15.644,0-30.357,6.099-41.433,17.174   c-0.002,0.002-0.004,0.004-0.006,0.008c-16.123,16.119-42.351,16.119-58.48,0.008c-0.004-0.004-0.009-0.01-0.013-0.014   c-11.074-11.075-25.788-17.174-41.432-17.174c-15.643,0-30.357,6.099-41.434,17.173c-0.008,0.008-0.013,0.015-0.02,0.023   c-7.818,7.807-18.195,12.107-29.228,12.107c-11.042,0-21.428-4.307-29.249-12.128c-3.365-3.363-8.82-3.363-12.186,0   c-3.364,3.365-3.364,8.819,0,12.185c11.075,11.074,25.79,17.173,41.435,17.173c15.644,0,30.358-6.099,41.433-17.174   c0.002-0.002,0.004-0.005,0.006-0.008c7.82-7.817,18.204-12.121,29.242-12.121c11.033,0,21.414,4.302,29.233,12.114   c0.005,0.005,0.01,0.011,0.014,0.016c11.423,11.422,26.428,17.133,41.435,17.133c15.005,0,30.01-5.711,41.434-17.133   c0.008-0.008,0.013-0.015,0.02-0.023c7.818-7.807,18.195-12.107,29.226-12.107c11.039,0,21.423,4.305,29.243,12.121   c0.002,0.002,0.004,0.005,0.007,0.008c11.074,11.075,25.788,17.174,41.433,17.174c15.644,0,30.358-6.099,41.435-17.173   c0.008-0.008,0.013-0.015,0.02-0.023c7.818-7.807,18.195-12.107,29.226-12.107c11.039,0,21.423,4.305,29.243,12.121   c0.002,0.002,0.004,0.005,0.006,0.008c11.074,11.075,25.788,17.174,41.433,17.174c15.644,0,30.358-6.099,41.433-17.174   c3.364-3.364,3.364-8.819-0.001-12.184C506.119,466.817,500.663,466.816,497.297,470.181z"/>
	<path style="fill:#231F20;" d="M353.439,55.403c4.758,0,8.616-3.858,8.616-8.616V21.088c0-4.758-3.858-8.616-8.616-8.616   s-8.616,3.858-8.616,8.616v25.698C344.823,51.546,348.681,55.403,353.439,55.403z"/>
	<path style="fill:#231F20;" d="M294.795,64.812c1.596,2.763,4.491,4.309,7.47,4.309c1.46,0,2.942-0.373,4.299-1.156   c4.12-2.379,5.533-7.649,3.153-11.769l-12.851-22.259c-2.378-4.119-7.646-5.534-11.769-3.153c-4.12,2.379-5.533,7.649-3.153,11.769   L294.795,64.812z"/>
	<path style="fill:#231F20;" d="M412.082,233.502c-2.378-4.118-7.646-5.533-11.769-3.153c-4.12,2.379-5.533,7.649-3.153,11.769   l12.852,22.259c1.596,2.763,4.491,4.309,7.47,4.309c1.46,0,2.942-0.373,4.299-1.156c4.12-2.379,5.533-7.649,3.153-11.769   L412.082,233.502z"/>
	<path style="fill:#231F20;" d="M238.222,92.583l22.255,12.85c1.357,0.784,2.838,1.156,4.299,1.156c2.978,0,5.874-1.545,7.47-4.309   c2.38-4.12,0.967-9.39-3.153-11.769l-22.255-12.85c-4.12-2.379-9.39-0.968-11.769,3.153   C232.688,84.936,234.1,90.204,238.222,92.583z"/>
	<path style="fill:#231F20;" d="M446.399,192.88c-4.119-2.376-9.39-0.966-11.77,3.154c-2.379,4.122-0.966,9.391,3.154,11.77   l22.259,12.85c1.357,0.783,2.838,1.155,4.299,1.155c2.978,0,5.874-1.545,7.471-4.309c2.379-4.122,0.966-9.391-3.154-11.77   L446.399,192.88z"/>
	<path style="fill:#231F20;" d="M447.192,149.157c0,4.758,3.858,8.616,8.616,8.616h25.7c4.758,0,8.616-3.858,8.616-8.616   c0-4.758-3.858-8.616-8.616-8.616h-25.7C451.05,140.541,447.192,144.399,447.192,149.157z"/>
	<path style="fill:#231F20;" d="M442.1,106.589c1.461,0,2.942-0.373,4.299-1.154l22.259-12.85c4.12-2.379,5.533-7.649,3.154-11.77   c-2.38-4.119-7.646-5.532-11.77-3.154l-22.259,12.85c-4.12,2.379-5.533,7.649-3.154,11.77   C436.226,105.044,439.122,106.589,442.1,106.589z"/>
	<path style="fill:#231F20;" d="M400.313,67.965c1.357,0.784,2.838,1.156,4.299,1.156c2.978,0,5.874-1.545,7.47-4.309l12.852-22.259   c2.38-4.12,0.967-9.39-3.153-11.769c-4.119-2.38-9.39-0.967-11.769,3.153L397.16,56.196   C394.781,60.317,396.193,65.586,400.313,67.965z"/>
	<path style="fill:#231F20;" d="M86.528,306.135h201.938c4.758,0,8.616-3.858,8.616-8.616s-3.858-8.616-8.616-8.616H86.528   c-26.142,0-47.411-21.268-47.411-47.409s21.268-47.409,47.411-47.409c4.838,0,9.615,0.728,14.199,2.163   c2.667,0.835,5.566,0.325,7.787-1.363s3.487-4.348,3.398-7.137l-0.02-0.57c-0.019-0.566-0.041-1.135-0.041-1.708   c0-36.801,29.939-66.74,66.74-66.74c31.402,0,58.164,21.369,65.079,51.965c0.536,2.374,2.052,4.411,4.173,5.606   c2.121,1.198,4.648,1.44,6.957,0.668c3.746-1.249,7.647-1.884,11.594-1.884c1.907,0,3.791,0.166,5.645,0.456   c0.401,0.062,0.801,0.122,1.198,0.197c0.481,0.092,0.96,0.2,1.436,0.311c0.368,0.085,0.734,0.178,1.1,0.275   c0.453,0.121,0.907,0.242,1.355,0.38c0.27,0.083,0.537,0.178,0.806,0.267c0.38,0.127,0.76,0.255,1.136,0.394   c0.29,0.107,0.575,0.222,0.862,0.336c0.345,0.137,0.687,0.279,1.026,0.426c0.298,0.13,0.596,0.264,0.891,0.402   c0.318,0.149,0.633,0.304,0.947,0.461c0.302,0.152,0.603,0.303,0.899,0.462c0.297,0.159,0.59,0.33,0.883,0.496   c0.3,0.172,0.603,0.341,0.899,0.522c0.279,0.171,0.551,0.354,0.826,0.532c0.558,0.363,1.106,0.74,1.645,1.133   c0.256,0.187,0.517,0.369,0.768,0.563c0.283,0.218,0.557,0.448,0.834,0.673c0.254,0.208,0.509,0.414,0.758,0.629   c0.263,0.226,0.519,0.461,0.774,0.695c0.256,0.234,0.51,0.47,0.759,0.711c0.238,0.229,0.472,0.463,0.703,0.7   c0.264,0.269,0.522,0.544,0.779,0.822c0.207,0.224,0.414,0.449,0.615,0.678c0.288,0.328,0.565,0.666,0.842,1.005   c0.158,0.195,0.321,0.384,0.476,0.583c0.426,0.547,0.842,1.105,1.241,1.679c1.543,2.226,4.003,3.555,6.613,3.698   c0.869,0.047,1.754-0.037,2.628-0.263c3.345-0.865,6.788-1.345,10.256-1.477c0.042-0.001,0.083,0.003,0.124,0.002l0.649-0.026   c0.354-0.016,0.709-0.033,1.067-0.033c0.769,0,1.533,0.023,2.292,0.058c0.308,0.015,0.613,0.041,0.92,0.061   c0.437,0.029,0.876,0.059,1.31,0.1c0.397,0.038,0.793,0.084,1.188,0.131c0.323,0.039,0.646,0.079,0.967,0.124   c0.463,0.066,0.924,0.137,1.383,0.214c0.223,0.038,0.445,0.079,0.667,0.12c0.537,0.1,1.073,0.204,1.604,0.321   c0.083,0.018,0.166,0.039,0.249,0.057c7.924,1.799,15.18,5.573,21.154,10.821c0.083,0.073,0.169,0.144,0.252,0.219   c0.34,0.304,0.672,0.617,1.005,0.93c0.219,0.207,0.437,0.411,0.652,0.621c0.254,0.249,0.503,0.503,0.752,0.757   c0.293,0.3,0.583,0.602,0.867,0.91c0.182,0.196,0.362,0.393,0.542,0.592c0.361,0.403,0.715,0.811,1.062,1.226   c0.104,0.124,0.209,0.247,0.312,0.373c3.376,4.118,6.086,8.803,7.957,13.891c0.006,0.017,0.013,0.033,0.019,0.051   c0.261,0.712,0.505,1.433,0.732,2.16c0.008,0.024,0.016,0.048,0.024,0.072c1.402,4.506,2.158,9.293,2.158,14.254   c0,26.503-21.562,48.066-48.063,48.066c-4.758,0-8.616,3.858-8.616,8.616s3.858,8.616,8.616,8.616h2.343   c0.452,0,0.897-0.034,1.33-0.102c34.302-1.912,61.621-30.423,61.621-65.195c0-1.74-0.089-3.46-0.223-5.167   c0.128-0.044,0.266-0.086,0.393-0.13c0.275-0.094,0.548-0.192,0.774-0.274c0.656-0.232,1.306-0.473,1.987-0.732l0.6-0.229   c0.844-0.328,1.684-0.669,2.476-1.008l0.467-0.202c0.678-0.291,1.35-0.592,2.079-0.924l0.698-0.328   c0.638-0.302,1.271-0.608,1.867-0.909l0.579-0.288c0.795-0.405,1.582-0.82,2.355-1.242l0.403-0.224   c0.039-0.022,0.079-0.043,0.118-0.066c0.61-0.34,1.218-0.686,1.866-1.064l0.312-0.18c0.08-0.047,0.167-0.102,0.255-0.158   c4.517-2.689,8.817-5.779,12.788-9.188c0.108-0.087,0.212-0.178,0.316-0.27c0.557-0.479,1.106-0.969,1.65-1.464   c0.028-0.025,0.057-0.052,0.084-0.076c0.551-0.503,1.095-1.01,1.603-1.498l0.505-0.491c0.387-0.376,0.776-0.755,1.14-1.12   c0.163-0.164,0.323-0.33,0.482-0.494l0.128-0.132c0.337-0.346,0.674-0.692,1.037-1.075l0.68-0.732   c0.294-0.319,0.589-0.638,0.817-0.895c0.235-0.256,0.465-0.519,0.666-0.748c0.297-0.337,0.596-0.678,0.887-1.019l0.638-0.755   c0.284-0.339,0.568-0.687,0.857-1.042l0.62-0.769c0.282-0.355,0.56-0.713,0.785-1.007c0.204-0.262,0.407-0.524,0.63-0.818   c0.25-0.335,0.499-0.672,0.745-1.01l0.613-0.841c0.3-0.42,0.594-0.842,0.856-1.224l0.1-0.144c0.13-0.186,0.258-0.372,0.349-0.506   c0.382-0.559,0.753-1.124,1.093-1.651l0.102-0.154c0.039-0.057,0.075-0.113,0.112-0.171c0.407-0.638,0.807-1.282,1.22-1.96   l0.348-0.588c0.278-0.465,0.552-0.928,0.812-1.383l0.636-1.139c0.165-0.296,0.331-0.593,0.504-0.915   c0.152-0.284,0.302-0.571,0.444-0.841c0.208-0.397,0.416-0.795,0.64-1.235l0.437-0.881c0.194-0.395,0.388-0.793,0.593-1.226   l0.416-0.888c0.187-0.406,0.37-0.812,0.543-1.203c0.141-0.319,0.282-0.638,0.406-0.928l0.502-1.189   c0.016-0.036,0.03-0.072,0.045-0.109l0.346-0.851c0.134-0.331,0.261-0.662,0.388-0.995l0.477-1.249   c0.165-0.451,0.325-0.904,0.468-1.317l0.316-0.893c0.182-0.535,0.355-1.073,0.514-1.569l0.047-0.146   c0.062-0.187,0.124-0.375,0.162-0.502c0.237-0.752,0.46-1.508,0.684-2.293l0.14-0.515c0.162-0.588,0.322-1.178,0.465-1.736   c0.061-0.236,0.117-0.472,0.174-0.708l0.04-0.166c0.12-0.49,0.24-0.981,0.354-1.483l0.219-1.005   c0.097-0.449,0.194-0.896,0.28-1.333l0.19-0.99c0.086-0.454,0.169-0.907,0.25-1.372l0.523-3.425   c0.062-0.459,0.118-0.92,0.174-1.386l0.115-1.014c0.045-0.414,0.084-0.828,0.123-1.243l0.014-0.151   c0.032-0.338,0.061-0.674,0.094-1.051c0.039-0.493,0.072-0.991,0.106-1.505l0.059-0.947c0.023-0.449,0.041-0.9,0.057-1.349   l0.041-1.106c0.023-0.823,0.034-1.646,0.034-2.474c0-8.498-1.166-16.914-3.468-25.011c-5.431-19.124-17.234-36.245-33.234-48.211   c-15.884-11.88-34.792-18.159-54.679-18.159c-19.886,0-38.793,6.279-54.678,18.159c-16,11.965-27.803,29.088-33.234,48.211   c-2.301,8.101-3.468,16.516-3.468,25.011c0,0.825,0.013,1.643,0.033,2.463l0.042,1.119c0.017,0.449,0.033,0.899,0.058,1.358   l0.061,0.986c0.032,0.486,0.066,0.972,0.104,1.461c0.028,0.35,0.061,0.696,0.086,0.965c0.014,0.165,0.032,0.325,0.047,0.489   c-1.47,0.107-2.934,0.269-4.386,0.495c-5.082-14.932-14.377-28.324-26.741-38.332c-14.867-12.036-33.609-18.664-52.772-18.664   c-43.583,0-79.517,33.374-83.587,75.908c-2.801-0.368-5.631-0.554-8.476-0.554c-35.644,0-64.642,28.998-64.642,64.64   S50.884,306.135,86.528,306.135z M371.92,187.636c-0.457,0.219-0.915,0.436-1.38,0.64c-0.017,0.008-0.186,0.081-0.202,0.088   c-0.411,0.18-0.829,0.35-1.334,0.552l-0.279,0.11c-0.444,0.172-0.888,0.338-1.339,0.496c-0.081,0.026-0.156,0.052-0.22,0.073   c-0.438,0.15-0.881,0.292-1.328,0.426c-0.047,0.015-0.096,0.029-0.143,0.045l-0.238,0.072c-0.492,0.145-0.986,0.285-1.429,0.398   c-0.042,0.01-0.106,0.025-0.168,0.042c-0.467,0.116-0.939,0.227-1.497,0.347l-0.303,0.066c-0.509,0.106-1.02,0.205-1.537,0.292   c-0.034,0.006-0.072,0.013-0.111,0.019c-0.015,0.002-0.028,0.005-0.043,0.008c-9.31-8.019-20.543-13.17-32.573-15.007   c-0.07-0.011-0.141-0.018-0.211-0.029c-0.924-0.138-1.852-0.256-2.785-0.355c-0.317-0.033-0.635-0.059-0.953-0.088   c-0.078-0.008-0.156-0.015-0.234-0.022c-0.252-0.023-0.502-0.051-0.754-0.07c-0.372-0.028-0.744-0.047-1.117-0.069   c-0.302-0.018-0.602-0.038-0.905-0.052c-0.254-0.012-0.509-0.023-0.764-0.032c-0.115-0.004-0.23-0.014-0.346-0.017   c-2.425-3.076-4.406-6.445-5.896-10.032c-0.032-0.081-0.068-0.16-0.106-0.242c-0.143-0.351-0.283-0.715-0.438-1.13l-0.09-0.249   c-0.142-0.382-0.276-0.767-0.414-1.179l-0.13-0.393c-0.16-0.494-0.316-0.991-0.458-1.487c-0.482-1.701-0.863-3.443-1.129-5.191   c-0.06-0.388-0.112-0.779-0.162-1.176c-0.04-0.325-0.078-0.652-0.11-0.952c-0.146-1.444-0.22-2.919-0.22-4.382   c0-0.498,0.014-0.994,0.03-1.516l0.011-0.316c0.022-0.489,0.047-0.978,0.083-1.45c0.038-0.488,0.085-0.975,0.145-1.519l0.02-0.185   c0.001-0.004,0.014-0.108,0.014-0.112c0.114-0.956,0.257-1.905,0.444-2.892l0.025-0.14c0.011-0.05,0.022-0.098,0.03-0.148   c0.182-0.929,0.394-1.857,0.633-2.754l0.087-0.319c0.253-0.919,0.536-1.827,0.825-2.658l0.122-0.347   c0.318-0.887,0.662-1.761,1.053-2.661l0.108-0.248c0.369-0.835,0.775-1.676,1.205-2.501l0.156-0.293   c0.426-0.804,0.891-1.61,1.395-2.423l0.15-0.242c0.524-0.83,1.073-1.638,1.631-2.402c1.683-2.314,3.609-4.469,5.72-6.404   c0.008-0.006,0.016-0.014,0.024-0.022c0.006-0.006,0.014-0.013,0.022-0.019l4.25-3.409c0.046-0.032,0.094-0.066,0.14-0.099   l1.177-0.793l4.25-2.425c0.057-0.027,0.113-0.055,0.17-0.083l2.309-1.054c0.277-0.115,0.554-0.229,0.795-0.326l2.041-0.743   c0.058-0.019,0.197-0.066,0.254-0.085l3.557-1.007l4.05-0.748c0.044-0.005,0.159-0.02,0.204-0.026   c0.072-0.009,0.12-0.016,0.192-0.026c0.054-0.005,0.107-0.012,0.159-0.019l2.069-0.202c0.191-0.015,0.381-0.026,0.632-0.04   l1.48-0.065c0.37-0.01,0.74-0.014,1.04-0.016c0.37,0.002,0.741,0.006,1.108,0.015c0.009,0.001,0.107,0.004,0.115,0.004l1.425,0.065   c0.193,0.011,0.386,0.023,0.575,0.037l2.077,0.204c0.05,0.006,0.074,0.011,0.124,0.016c0.069,0.01,0.233,0.03,0.3,0.039   c0.039,0.005,0.079,0.011,0.117,0.016l1.395,0.212l6.114,1.511c0.008,0.002,0.202,0.068,0.209,0.069   c0.057,0.019,0.115,0.038,0.171,0.056l0.624,0.218c0.018,0.006,0.115,0.041,0.132,0.047l0.83,0.308   c0.026,0.011,0.104,0.04,0.13,0.05l0.26,0.099c0.282,0.112,0.561,0.227,0.843,0.344l2.319,1.059   c0.038,0.019,0.075,0.038,0.113,0.056l1.274,0.656l4.168,2.565c0.054,0.038,0.108,0.075,0.16,0.113l3.329,2.593   c0.006,0.005,0.107,0.088,0.112,0.095l0.81,0.72c0.008,0.006,0.014,0.013,0.019,0.019c0.01,0.008,0.018,0.016,0.026,0.023   c2.111,1.933,4.033,4.086,5.721,6.405c0.561,0.77,1.107,1.576,1.639,2.42l0.156,0.25c0.48,0.776,0.943,1.581,1.411,2.458   l0.066,0.121c0.018,0.037,0.037,0.073,0.056,0.11c0.429,0.823,0.836,1.665,1.189,2.459l0.151,0.348   c0.363,0.838,0.709,1.717,1.03,2.609l0.102,0.29c0.31,0.896,0.591,1.803,0.85,2.741l0.081,0.295   c0.247,0.936,0.459,1.857,0.63,2.735c0.01,0.048,0.02,0.108,0.031,0.156l0.037,0.196c0.178,0.953,0.323,1.905,0.432,2.837   l0.04,0.339c0.054,0.489,0.102,0.981,0.139,1.444c0.036,0.486,0.064,0.975,0.086,1.54l0.012,0.302   c0.017,0.487,0.028,0.978,0.028,1.47c0,1.457-0.074,2.931-0.221,4.379c-0.031,0.31-0.068,0.621-0.111,0.961   c-0.048,0.392-0.101,0.783-0.162,1.182c-0.265,1.734-0.644,3.479-1.124,5.174c-0.144,0.503-0.298,0.999-0.446,1.455l-0.153,0.458   c-0.127,0.381-0.26,0.76-0.421,1.193l-0.067,0.186c-0.016,0.041-0.031,0.082-0.046,0.123c-0.128,0.341-0.26,0.682-0.397,1.019   c-0.038,0.083-0.074,0.168-0.111,0.253c-1.661,4.002-3.935,7.734-6.759,11.094c-0.069,0.082-0.139,0.169-0.208,0.26   c-0.039,0.044-0.079,0.088-0.117,0.132c-0.016,0.019-0.072,0.083-0.088,0.102l-0.209,0.244c-0.336,0.38-0.676,0.755-1.009,1.108   l-0.102,0.106c-0.033,0.033-0.066,0.068-0.099,0.102c-0.298,0.312-0.603,0.62-0.957,0.967l-0.18,0.18   c-0.352,0.339-0.705,0.674-1.067,1.003l-0.218,0.193c-0.331,0.292-0.661,0.582-1.007,0.871l-0.244,0.207   c-0.392,0.323-0.788,0.643-1.153,0.923l-0.211,0.158c-0.35,0.265-0.703,0.526-1.033,0.76l-0.239,0.17   c-0.031,0.023-0.064,0.044-0.095,0.067c-0.395,0.277-0.795,0.55-1.201,0.814l-0.225,0.142c-0.369,0.238-0.741,0.47-1.12,0.696   c-0.045,0.026-0.089,0.054-0.134,0.081l-0.201,0.117c-0.425,0.25-0.855,0.498-1.273,0.722l-0.2,0.107   c-0.403,0.214-0.81,0.422-1.304,0.667L371.92,187.636z M282.101,128.854c4.406-15.51,13.986-29.403,26.979-39.119   c12.883-9.633,28.223-14.726,44.36-14.726c16.138,0,31.477,5.093,44.36,14.726c12.991,9.716,22.573,23.609,26.979,39.12   c1.865,6.566,2.811,13.396,2.811,20.303c0,0.674-0.011,1.344-0.028,2.024l-0.034,0.913c-0.014,0.361-0.026,0.723-0.045,1.072   l-0.051,0.795c-0.026,0.4-0.051,0.799-0.08,1.158l-0.092,1.021c-0.03,0.326-0.06,0.653-0.095,0.965l-0.099,0.869   c-0.044,0.374-0.09,0.747-0.138,1.1l-0.426,2.798c-0.065,0.369-0.132,0.738-0.205,1.115l-0.158,0.832   c-0.07,0.35-0.144,0.697-0.226,1.076l-0.174,0.802c-0.089,0.395-0.186,0.789-0.29,1.205l-0.164,0.673   c-0.122,0.48-0.252,0.957-0.377,1.407l-0.117,0.433c-0.174,0.613-0.353,1.222-0.562,1.891l-0.157,0.482   c-0.14,0.437-0.28,0.872-0.417,1.277l-0.25,0.704c-0.132,0.377-0.263,0.751-0.373,1.05l-0.423,1.104   c-0.088,0.234-0.178,0.466-0.279,0.717l-0.741,1.786c-0.107,0.247-0.213,0.491-0.332,0.755c-0.143,0.324-0.289,0.646-0.436,0.968   l-0.35,0.748c-0.156,0.327-0.314,0.653-0.479,0.988l-0.345,0.697c-0.166,0.328-0.337,0.656-0.527,1.016l-1.271,2.324   c-0.213,0.374-0.433,0.742-0.662,1.127l-0.279,0.473c-0.322,0.529-0.648,1.054-0.98,1.576l-0.169,0.255   c-0.286,0.443-0.575,0.884-0.909,1.374l-0.363,0.521c-0.228,0.333-0.457,0.662-0.673,0.966l-0.52,0.713   c-0.205,0.279-0.409,0.559-0.596,0.807c-0.149,0.196-0.296,0.389-0.499,0.647c-0.224,0.292-0.45,0.582-0.666,0.855l-0.492,0.61   c-0.232,0.285-0.465,0.569-0.73,0.885l-0.471,0.557c-0.239,0.279-0.479,0.557-0.751,0.864c-0.152,0.173-0.304,0.348-0.519,0.585   c-0.221,0.247-0.445,0.49-0.67,0.733c-0.008,0.009-0.087,0.095-0.095,0.103l-0.476,0.513c-0.271,0.286-0.547,0.569-0.839,0.868   l-0.471,0.485c-0.308,0.31-0.621,0.614-0.94,0.923l-0.405,0.395c-0.445,0.426-0.895,0.846-1.352,1.262   c-0.015,0.013-0.028,0.025-0.042,0.039c-0.429,0.389-0.864,0.776-1.304,1.156c-0.044,0.037-0.088,0.073-0.131,0.112   c-3.308,2.855-6.903,5.439-10.686,7.678c-0.057,0.033-0.117,0.071-0.18,0.111l-0.148,0.084c-0.509,0.297-1.022,0.588-1.538,0.876   h0.001l-0.383,0.212c-0.631,0.346-1.269,0.681-1.889,0.997l-0.326,0.16c-0.032,0.015-0.129,0.064-0.162,0.079   c-0.502,0.252-1.009,0.499-1.541,0.75l-0.543,0.255c-0.545,0.249-1.093,0.494-1.683,0.748l-0.363,0.157   c-0.658,0.281-1.321,0.55-2.014,0.82l-0.485,0.185c-0.211,0.081-0.423,0.16-0.64,0.241c-0.388-1.074-0.812-2.127-1.252-3.172   c-0.022-0.051-0.043-0.101-0.065-0.152c-0.395-0.929-0.81-1.847-1.246-2.752c-0.013-0.027-0.026-0.055-0.039-0.082   c-1.117-2.311-2.363-4.544-3.732-6.687c0.005-0.002,0.012-0.003,0.017-0.005c0.678-0.236,1.349-0.485,2.012-0.742   c0.191-0.073,0.378-0.148,0.477-0.188c0.606-0.24,1.208-0.488,1.747-0.724l0.254-0.111c0.652-0.285,1.296-0.587,1.962-0.908   l0.468-0.23c0.563-0.279,1.119-0.563,1.717-0.881c0.037-0.019,0.165-0.086,0.202-0.107c0.63-0.339,1.254-0.696,1.789-1.011   c0.186-0.108,0.367-0.213,0.547-0.324c0.521-0.312,1.035-0.632,1.505-0.933l0.195-0.123c0.036-0.023,0.072-0.045,0.109-0.069   c0.582-0.378,1.156-0.768,1.723-1.164c0.115-0.079,0.237-0.166,0.415-0.294c0.504-0.358,1-0.724,1.569-1.153   c0.011-0.009,0.108-0.08,0.117-0.088c0.03-0.023,0.06-0.045,0.09-0.068c0.549-0.423,1.091-0.858,1.698-1.359l0.309-0.261   c0.463-0.388,0.92-0.785,1.32-1.142l0.235-0.207c0.032-0.028,0.066-0.057,0.097-0.086c0.517-0.467,1.023-0.943,1.564-1.467   l0.311-0.307c0.43-0.425,0.857-0.855,1.276-1.293l0.267-0.277c0.475-0.505,0.942-1.017,1.425-1.565l0.282-0.327   c0.198-0.224,0.393-0.448,0.584-0.677c0.073-0.088,0.149-0.182,0.222-0.28c3.795-4.566,6.876-9.629,9.158-15.055   c0.042-0.092,0.083-0.184,0.122-0.278c0.244-0.588,0.477-1.181,0.701-1.778c0.056-0.143,0.11-0.291,0.165-0.447   c0.207-0.558,0.403-1.117,0.599-1.701l0.181-0.549c0.223-0.688,0.438-1.38,0.641-2.09c0.68-2.395,1.213-4.847,1.583-7.279   c0.085-0.556,0.16-1.114,0.227-1.645c0.057-0.452,0.11-0.907,0.155-1.366c0.205-2.026,0.309-4.084,0.309-6.118   c0-0.69-0.016-1.376-0.039-2.059l-0.003-0.111l-0.016-0.392c-0.028-0.677-0.066-1.356-0.118-2.059   c-0.052-0.666-0.116-1.326-0.19-2.005l-0.058-0.487c-0.154-1.307-0.358-2.645-0.599-3.938c-0.036-0.197-0.073-0.393-0.113-0.589   c-0.243-1.237-0.537-2.517-0.878-3.804c-0.012-0.043-0.023-0.087-0.036-0.131l-0.097-0.355c-0.342-1.245-0.736-2.507-1.182-3.802   l-0.109-0.308c-0.015-0.043-0.029-0.085-0.044-0.128c-0.444-1.234-0.925-2.452-1.436-3.634l-0.188-0.431   c-0.514-1.162-1.075-2.325-1.666-3.46c-0.075-0.148-0.154-0.294-0.241-0.456c-0.606-1.142-1.258-2.275-1.978-3.437l-0.204-0.327   c-0.722-1.144-1.486-2.27-2.268-3.345c-2.375-3.263-5.09-6.3-8.071-9.023c-0.007-0.006-0.014-0.013-0.022-0.019   c-0.04-0.037-0.081-0.073-0.122-0.111l-1.249-1.1c-0.025-0.022-0.061-0.053-0.086-0.073c-0.023-0.02-0.113-0.098-0.137-0.117   l-3.237-2.566c-0.034-0.025-0.069-0.052-0.104-0.076l-0.496-0.361c-0.195-0.14-0.389-0.278-0.586-0.414   c-0.197-0.141-0.392-0.277-0.577-0.402l-1.122-0.748c-0.224-0.148-0.453-0.295-0.652-0.42l-1.147-0.711   c-0.04-0.024-0.08-0.047-0.121-0.071l-1.11-0.649c-0.215-0.123-0.433-0.243-0.633-0.352l-2.489-1.304   c-0.024-0.012-0.05-0.024-0.073-0.036l-0.493-0.246c-0.05-0.024-0.099-0.048-0.15-0.071l-0.291-0.135   c-0.033-0.016-0.097-0.046-0.131-0.061l-1.478-0.668c-0.029-0.013-0.121-0.054-0.15-0.066l-0.635-0.271   c-0.361-0.152-0.722-0.298-1.12-0.458l-3.184-1.15c-0.026-0.009-0.141-0.046-0.167-0.055l-0.607-0.2   c-0.057-0.018-0.114-0.036-0.171-0.053l-0.528-0.159c-0.253-0.076-0.51-0.154-0.73-0.215l-1.356-0.374   c-0.255-0.068-0.509-0.132-0.692-0.177l-0.708-0.174c-0.039-0.01-0.079-0.019-0.117-0.027l-2.982-0.618   c-0.079-0.016-0.173-0.033-0.252-0.046l-0.95-0.16c-0.253-0.041-0.505-0.08-0.689-0.107c-0.281-0.042-0.565-0.082-0.85-0.118   l-0.195-0.025c-0.154-0.023-0.308-0.042-0.464-0.06c-0.262-0.032-0.519-0.062-0.753-0.087l-0.134-0.015   c-0.191-0.023-0.381-0.044-0.626-0.068l-0.296-0.025c-0.048-0.005-0.097-0.01-0.145-0.013l-0.144-0.014   c-0.017-0.001-0.14-0.013-0.157-0.014l-0.639-0.052c-0.311-0.023-0.622-0.043-0.877-0.057l-1.59-0.074   c-0.037-0.001-0.166-0.005-0.202-0.006l-0.313-0.01c-0.481-0.013-0.965-0.019-1.552-0.022c-0.484,0.002-0.965,0.009-1.423,0.02   l-2.075,0.088c-0.311,0.017-0.627,0.037-0.928,0.06l-0.944,0.079c-0.051,0.003-0.102,0.009-0.153,0.013l-0.349,0.03   c-0.184,0.018-0.368,0.039-0.552,0.06l-0.118,0.014c-0.263,0.029-0.526,0.058-0.786,0.09c-0.129,0.016-0.258,0.031-0.386,0.05   c-0.109,0.014-0.215,0.027-0.322,0.043c-0.263,0.033-0.523,0.07-0.72,0.1c-0.253,0.037-0.503,0.074-0.744,0.114l-0.982,0.167   c-0.086,0.014-0.137,0.023-0.222,0.039l-2.987,0.619c-0.042,0.011-0.084,0.02-0.127,0.03l-0.642,0.157   c-0.255,0.062-0.515,0.127-0.765,0.195l-1.315,0.362c-0.256,0.072-0.513,0.15-0.78,0.23l-0.502,0.152   c-0.07,0.022-0.14,0.042-0.209,0.066l-0.583,0.192c-0.018,0.005-0.104,0.033-0.122,0.04l-0.478,0.157   c-0.038,0.013-0.075,0.025-0.113,0.038l-2.026,0.737c-0.204,0.076-0.408,0.153-0.648,0.247c-0.366,0.146-0.731,0.295-1.1,0.449   l-0.61,0.258c-0.033,0.014-0.066,0.028-0.1,0.043c-0.004,0.002-0.101,0.045-0.106,0.046l-0.155,0.068   c-0.01,0.004-0.093,0.04-0.102,0.044l-1.571,0.718c-0.061,0.028-0.122,0.058-0.183,0.087l-0.456,0.227   c-0.037,0.018-0.073,0.036-0.111,0.054l-2.458,1.287c-0.221,0.121-0.443,0.243-0.628,0.349l-1.128,0.657   c-0.04,0.024-0.08,0.047-0.12,0.071l-1.139,0.704c-0.22,0.138-0.44,0.281-0.657,0.422l-1.105,0.739   c-0.206,0.139-0.408,0.279-0.61,0.423c-0.192,0.132-0.384,0.269-0.607,0.429l-0.461,0.336c-0.056,0.04-0.112,0.082-0.167,0.124   l-0.433,0.321c-0.026,0.022-0.123,0.095-0.151,0.114l-0.453,0.349c-0.193,0.149-0.383,0.295-0.531,0.415   c-0.192,0.152-0.381,0.304-0.572,0.459l-1.205,1.006c-0.04,0.032-0.123,0.104-0.162,0.138l-1.172,1.035   c-0.025,0.023-0.051,0.045-0.075,0.068c-0.019,0.018-0.038,0.034-0.058,0.053c-2.979,2.723-5.693,5.757-8.064,9.016   c-0.779,1.067-1.542,2.193-2.318,3.424l-0.202,0.324c-0.682,1.102-1.332,2.235-1.925,3.347l-0.228,0.432   c-0.603,1.153-1.172,2.335-1.685,3.495l-0.193,0.443c-0.51,1.176-0.993,2.401-1.438,3.642l-0.165,0.468   c-0.422,1.218-0.814,2.477-1.173,3.771l-0.093,0.342c-0.011,0.039-0.023,0.078-0.031,0.116c-0.333,1.248-0.629,2.533-0.882,3.819   c-0.039,0.19-0.073,0.377-0.102,0.535c-0.246,1.299-0.45,2.64-0.619,4.068l-0.047,0.416c-0.072,0.664-0.137,1.33-0.191,2.016   c-0.052,0.673-0.088,1.352-0.121,2.091l-0.017,0.472c-0.023,0.677-0.038,1.359-0.038,2.043c0,2.041,0.103,4.099,0.31,6.144   c0.046,0.439,0.097,0.878,0.151,1.31c0.07,0.561,0.145,1.119,0.229,1.664c0.373,2.447,0.907,4.901,1.589,7.3   c0.111,0.392,0.235,0.773,0.354,1.16c-0.165-0.109-0.336-0.21-0.502-0.317c-0.342-0.221-0.686-0.439-1.034-0.652   c-0.364-0.223-0.729-0.442-1.098-0.655c-0.391-0.226-0.787-0.445-1.184-0.661c-0.499-0.272-1-0.537-1.507-0.794   c-0.472-0.239-0.945-0.474-1.424-0.699c-0.341-0.159-0.684-0.313-1.028-0.466c-0.457-0.204-0.918-0.398-1.381-0.589   c-0.305-0.125-0.607-0.254-0.914-0.374c-0.718-0.28-1.443-0.544-2.173-0.794c-0.283-0.096-0.569-0.184-0.853-0.276   c-0.535-0.172-1.074-0.337-1.614-0.493c-0.299-0.086-0.599-0.173-0.9-0.254c-0.114-0.031-0.227-0.067-0.341-0.097l-0.073-0.521   c-0.05-0.373-0.095-0.745-0.138-1.113l-0.099-0.864c-0.039-0.361-0.073-0.725-0.112-1.166c-0.026-0.268-0.051-0.533-0.071-0.796   c-0.032-0.397-0.059-0.799-0.083-1.177l-0.051-0.801c-0.019-0.36-0.032-0.719-0.046-1.079l-0.036-0.915   c-0.017-0.673-0.027-1.347-0.027-2.025C279.289,142.255,280.235,135.423,282.101,128.854z"/>
</g>
<g>
</g>
<g>
</g>
<g>
</g>
<g>
</g>
<g>
</g>
<g>
</g>
<g>
</g>
<g>
</g>
<g>
</g>
<g>
</g>
<g>
</g>
<g>
</g>
<g>
</g>
<g>
</g>
<g>
</g>
</svg>
