<?xml version="1.0" encoding="iso-8859-1"?>
<!-- Generator: Adobe Illustrator 19.0.0, SVG Export Plug-In . SVG Version: 6.00 Build 0)  -->
<svg xmlns="http://www.w3.org/2000/svg" xmlns:xlink="http://www.w3.org/1999/xlink" version="1.1" id="Layer_1" x="0px" y="0px" viewBox="0 0 512 512" style="enable-background:new 0 0 512 512;" xml:space="preserve">
<path style="fill:#ED5145;" d="M256,256C119.368,256,8.605,366.763,8.605,503.395h151.126c0-53.168,43.101-96.269,96.269-96.269  c53.167,0,96.269,43.101,96.269,96.269h151.126C503.395,366.763,392.632,256,256,256z"/>
<path style="fill:#F29F26;" d="M392.908,360.801C357.386,326.684,309.14,305.715,256,305.715  c-109.175,0-197.679,88.506-197.679,197.68h101.41c0-53.168,43.101-96.269,96.269-96.269c53.167,0,96.269,43.101,96.269,96.269  h101.41c0-45.657-15.479-87.699-41.476-121.167"/>
<path style="fill:#58C445;" d="M256.001,356.38c-81.194,0-147.016,65.819-147.016,147.015h50.746  c0-53.168,43.101-96.269,96.269-96.269c53.167,0,96.269,43.101,96.269,96.269h50.747C403.016,422.2,337.193,356.38,256.001,356.38z"/>
<path style="fill:#F75C54;" d="M427.966,325.999C381.498,280.859,320.315,256,255.689,256c-42.114,0-82.762,10.565-118.833,30.41  c10.463,46.282,31.971,88.369,61.602,123.364c16.663-10.208,36.258-16.096,57.23-16.096c60.593,0,109.714,49.121,109.714,109.715  h128.335c2.199-0.571,4.389-1.164,6.566-1.786c0.187-0.158,0.367-0.326,0.539-0.503c1.419-1.462,2.184-3.437,2.121-5.474  C500.969,431.286,474.336,371.042,427.966,325.999z"/>
<path style="fill:#F9A83D;" d="M411.893,382.228L392.598,360.8c-35.523-34.117-83.767-55.086-136.908-55.086  c-37.865,0-73.24,10.654-103.302,29.117c13.334,31.643,32.117,60.418,55.16,85.18c14.162-8.194,30.604-12.886,48.142-12.886  c53.166,0,96.269,43.1,96.269,96.269h101.409C453.367,457.738,437.889,415.696,411.893,382.228z"/>
<path style="fill:#6AD354;" d="M255.69,356.38c-29.307,0-56.608,8.578-79.536,23.356c9.282,14.348,19.8,27.817,31.394,40.276  c14.162-8.194,30.604-12.886,48.142-12.886c53.166,0,96.269,43.101,96.269,96.269h50.746  C402.704,422.2,336.882,356.38,255.69,356.38z"/>
<path style="fill:#E4F2F9;" d="M67.03,297.12h52.366C158.544,271.144,205.499,256,256,256c30.362,0,59.44,5.481,86.315,15.488  c5.483-8.591,8.673-18.787,8.673-29.734c0-30.58-24.788-55.368-55.368-55.368c-5.776,0-11.343,0.886-16.577,2.527  c0.028-0.838,0.065-1.679,0.065-2.527c0-41.128-33.342-74.47-74.47-74.47c-35.465,0-65.117,24.799-72.619,57.994  c-4.449-1.485-9.205-2.302-14.153-2.302c-15.236,0-28.683,7.629-36.748,19.271c-4.502-1.165-9.22-1.788-14.088-1.788  c-30.935,0-56.012,25.077-56.012,56.013C11.018,272.041,36.096,297.12,67.03,297.12z"/>
<path style="fill:#9FDEF7;" d="M424.467,193.809h22.912c30.938,0,56.016-25.079,56.016-56.016c0-30.935-25.077-56.012-56.016-56.012  c-4.864,0-9.585,0.623-14.086,1.788c-8.063-11.643-21.512-19.271-36.746-19.271c-4.95,0-9.704,0.816-14.155,2.301  c-7.5-33.196-37.154-57.994-72.617-57.994c-41.13,0-74.47,33.341-74.47,74.469c0,0.849,0.034,1.689,0.065,2.528  c-5.233-1.64-10.803-2.528-16.578-2.528c-25.197,0-46.449,16.838-53.151,39.873c11.339-6.992,24.695-11.031,38.998-11.031  c41.128,0,74.47,33.342,74.47,74.47c0,0.848-0.037,1.688-0.065,2.527c5.234-1.639,10.8-2.527,16.577-2.527  c10.086,0,19.533,2.711,27.676,7.421h72.466"/>
<path style="fill:#83D4ED;" d="M286.018,89.756c0-29.574,8.106-57.25,22.204-80.948c-40.411,0.829-72.921,33.822-72.921,74.43  c0,0.849,0.034,1.689,0.065,2.528c-5.233-1.64-10.803-2.528-16.578-2.528c-25.197,0-46.449,16.838-53.151,39.873  c11.339-6.992,24.695-11.031,38.998-11.031c41.128,0,74.47,33.342,74.47,74.47c0,0.848-0.037,1.688-0.065,2.527  c5.234-1.639,10.8-2.527,16.577-2.527c10.086,0,19.533,2.711,27.676,7.421h1.793C300.758,166.106,286.018,129.654,286.018,89.756z"/>
<path style="fill:#D7EDF9;" d="M131.074,220.058c0-23.293,2.757-45.94,7.932-67.65c-2.589,5.217-4.599,10.771-5.915,16.592  c-4.449-1.485-9.205-2.302-14.153-2.302c-15.236,0-28.683,7.629-36.748,19.271c-4.502-1.165-9.22-1.788-14.088-1.788  c-30.935,0-56.012,25.077-56.012,56.013c0,30.935,25.077,56.014,56.012,56.014h52.366c5.821-3.864,11.821-7.481,17.974-10.851  C133.624,264.367,131.074,242.512,131.074,220.058z"/>
<path style="fill:#231F20;" d="M354.422,266.925c3.396-7.917,5.171-16.459,5.171-25.17c0-14.828-5.085-28.481-13.583-39.341h49.753  c4.752,0,8.605-3.853,8.605-8.605c0-4.752-3.853-8.605-8.605-8.605h-70.246c-0.276-0.146-0.563-0.27-0.841-0.413  c-0.705-0.36-1.413-0.711-2.133-1.047c-0.357-0.166-0.714-0.327-1.075-0.486c-0.837-0.371-1.683-0.723-2.538-1.058  c-0.242-0.095-0.481-0.195-0.724-0.286c-2.319-0.878-4.701-1.626-7.138-2.233c-0.049-0.012-0.1-0.023-0.15-0.034  c-1.119-0.275-2.25-0.518-3.39-0.734c-0.238-0.045-0.477-0.086-0.714-0.128c-0.954-0.169-1.916-0.317-2.884-0.443  c-0.309-0.041-0.616-0.082-0.926-0.118c-0.925-0.106-1.858-0.19-2.794-0.257c-0.309-0.023-0.616-0.053-0.926-0.07  c-1.214-0.069-2.434-0.112-3.666-0.112c-2.784,0-5.553,0.179-8.295,0.535c-0.255-2.627-0.632-5.219-1.126-7.769  c-0.742-3.826-1.747-7.558-2.996-11.179c-0.416-1.207-0.859-2.401-1.329-3.582c-12.211-30.708-42.229-52.475-77.236-52.475  c-1.069,0-2.136,0.028-3.201,0.069c-0.233,0.01-0.466,0.019-0.698,0.03c-2.236,0.104-4.461,0.299-6.671,0.582  c-0.018,0.002-0.038,0.005-0.056,0.008c-2.808,0.361-5.592,0.856-8.339,1.499c8.596-8.607,20.443-13.82,33.12-13.82  c4.777,0,9.488,0.717,14.003,2.133c2.665,0.835,5.567,0.325,7.79-1.367c2.22-1.691,3.483-4.356,3.385-7.146l-0.012-0.332  c-0.022-0.628-0.046-1.258-0.046-1.894c0-36.319,29.548-65.864,65.865-65.864c30.992,0,57.401,21.088,64.223,51.284  c0.536,2.372,2.05,4.406,4.168,5.6c2.119,1.195,4.641,1.438,6.949,0.667c3.698-1.233,7.544-1.859,11.433-1.859  c11.83,0,22.922,5.818,29.671,15.565c2.054,2.964,5.736,4.329,9.231,3.431c3.879-1.005,7.893-1.513,11.93-1.513  c26.143,0,47.411,21.266,47.411,47.407c0,26.143-21.267,47.411-47.411,47.411h-22.912c-4.752,0-8.605,3.853-8.605,8.605  c0,4.752,3.853,8.605,8.605,8.605h22.912c35.632,0,64.621-28.988,64.621-64.621c0-35.63-28.988-64.617-64.621-64.617  c-3.559,0-7.107,0.292-10.604,0.87c-10.065-11.585-24.716-18.353-40.227-18.353c-2.731,0-5.448,0.209-8.135,0.624  c-5.032-14.746-14.218-27.965-26.429-37.85C347.275,6.558,328.733,0,309.775,0c-43.085,0-78.615,32.97-82.687,75.004  c-2.742-0.355-5.513-0.535-8.297-0.535c-27.153,0-51.518,17.49-60.392,42.914c-2.049,1.373-4.044,2.834-5.971,4.394  c-12.211,9.885-21.398,23.106-26.429,37.849c-2.685-0.414-5.401-0.623-8.133-0.623c-15.511,0-30.162,6.769-40.229,18.353  c-3.497-0.578-7.046-0.87-10.606-0.87c-35.63,0-64.617,28.987-64.617,64.618s28.987,64.62,64.617,64.62h26.267  c-6.326,5.225-12.441,10.775-18.317,16.65C26.628,370.728,0,435.015,0,503.395C0,508.147,3.853,512,8.605,512h49.716h50.664h50.746  c4.753,0,8.605-3.853,8.605-8.605c0-48.338,39.326-87.664,87.664-87.664c48.339,0,87.664,39.326,87.664,87.664  c0,4.752,3.853,8.605,8.605,8.605h50.747h50.663h49.716c4.752,0,8.605-3.853,8.605-8.605c0-68.38-26.628-132.667-74.981-181.019  C412.95,298.306,384.928,279.623,354.422,266.925z M67.03,288.515c-26.141,0-47.407-21.267-47.407-47.41  c0-26.141,21.266-47.408,47.407-47.408c4.037,0,8.051,0.51,11.931,1.513c3.491,0.899,7.174-0.467,9.23-3.43  c6.753-9.747,17.846-15.567,29.674-15.567c3.889,0,7.734,0.625,11.429,1.859c2.308,0.772,4.832,0.528,6.95-0.665  c2.119-1.194,3.633-3.228,4.169-5.6c3.963-17.536,14.539-31.989,28.773-41.035c0.329-0.15,0.657-0.308,0.97-0.5  c8.287-5.109,17.587-8.283,27.236-9.346c0.237-0.026,0.473-0.053,0.711-0.075c0.495-0.049,0.992-0.09,1.488-0.129  c0.46-0.034,0.922-0.063,1.383-0.088c0.359-0.02,0.719-0.042,1.078-0.056c0.858-0.032,1.72-0.055,2.586-0.055  c36.319,0,65.865,29.548,65.865,65.865c0,0.589-0.023,1.175-0.043,1.758l-0.017,0.478c-0.095,2.788,1.168,5.449,3.388,7.139  c2.219,1.689,5.119,2.198,7.783,1.364c4.518-1.414,9.229-2.132,14.004-2.132c0.943,0,1.883,0.037,2.822,0.092  c0.241,0.014,0.48,0.037,0.72,0.055c0.739,0.056,1.476,0.127,2.21,0.218c0.213,0.027,0.426,0.053,0.639,0.082  c1.915,0.265,3.81,0.64,5.673,1.138c0.052,0.014,0.102,0.03,0.154,0.044c0.859,0.232,1.71,0.494,2.556,0.776  c0.166,0.055,0.33,0.111,0.495,0.168c0.802,0.277,1.597,0.577,2.384,0.897c0.101,0.042,0.204,0.079,0.305,0.12  c0.857,0.357,1.702,0.742,2.537,1.15c0.214,0.104,0.423,0.217,0.635,0.326c0.598,0.303,1.191,0.621,1.776,0.951  c14.226,8.029,23.859,23.28,23.859,40.746c0,6.629-1.4,13.125-4.084,19.106c-17.92-6.062-36.568-10.136-55.677-12.097  c-0.138-0.014-0.274-0.031-0.411-0.045c-1.084-0.11-2.172-0.202-3.258-0.298c-0.901-0.08-1.802-0.161-2.704-0.231  c-0.926-0.072-1.854-0.136-2.782-0.198c-1.092-0.073-2.184-0.141-3.277-0.2c-0.822-0.045-1.644-0.088-2.466-0.125  c-1.275-0.057-2.551-0.101-3.829-0.14c-0.669-0.02-1.337-0.045-2.007-0.061c-1.96-0.047-3.922-0.074-5.886-0.074  c-1.893,0-3.784,0.028-5.673,0.069c-0.608,0.013-1.215,0.031-1.823,0.048c-1.305,0.038-2.607,0.086-3.909,0.143  c-0.686,0.03-1.373,0.057-2.057,0.091c-1.588,0.083-3.173,0.179-4.756,0.29c-1.125,0.079-2.247,0.173-3.37,0.267  c-0.706,0.059-1.411,0.116-2.116,0.181c-1.24,0.113-2.478,0.237-3.715,0.368c-0.278,0.029-0.555,0.061-0.834,0.091  c-39.871,4.35-77.706,17.882-111.019,39.57H67.03V288.515z M360.524,494.79c-4.392-53.817-49.595-96.269-104.524-96.269  c-54.93,0-100.133,42.452-104.524,96.269h-33.621c4.455-72.329,64.714-129.805,138.146-129.805s133.69,57.476,138.145,129.805  H360.524z M462.111,494.79c-1.74-43.075-16.555-83.654-43.112-117.84c-2.916-3.753-8.32-4.433-12.074-1.517  c-3.753,2.915-4.433,8.321-1.517,12.075c24.187,31.136,37.746,68.068,39.477,107.281h-33.506  c-4.482-81.822-72.457-147.015-155.378-147.015c-82.923,0-150.898,65.193-155.38,147.015H67.119  C71.632,394.51,154.627,314.32,256,314.32c49.066,0,95.572,18.712,130.948,52.687c3.427,3.294,8.876,3.183,12.165-0.246  c3.293-3.428,3.183-8.874-0.246-12.166C360.272,317.524,309.533,297.11,256,297.11c-110.862,0-201.563,87.91-206.092,197.68H17.363  c4.042-113.698,87.96-207.402,197.214-226.588c0.072-0.013,0.144-0.026,0.216-0.038c3.741-0.653,7.513-1.219,11.311-1.695  c0.213-0.027,0.427-0.051,0.64-0.076c1.568-0.193,3.141-0.367,4.718-0.529c0.422-0.043,0.844-0.086,1.267-0.127  c1.627-0.158,3.26-0.301,4.897-0.427c0.176-0.013,0.353-0.03,0.53-0.044c1.786-0.132,3.578-0.241,5.374-0.335  c0.467-0.024,0.935-0.042,1.403-0.063c1.37-0.062,2.743-0.114,4.119-0.154c0.517-0.015,1.034-0.031,1.551-0.042  c1.795-0.04,3.593-0.067,5.398-0.067c1.919,0,3.831,0.026,5.74,0.071c0.545,0.013,1.09,0.038,1.634,0.054  c1.38,0.042,2.76,0.088,4.135,0.154c0.585,0.028,1.168,0.065,1.752,0.097c1.36,0.074,2.716,0.156,4.069,0.253  c0.529,0.038,1.058,0.082,1.588,0.123c1.439,0.113,2.876,0.237,4.309,0.375c0.425,0.041,0.849,0.084,1.274,0.127  c1.589,0.162,3.173,0.339,4.752,0.532c0.262,0.032,0.524,0.063,0.786,0.096c1.839,0.232,3.673,0.481,5.5,0.755  c0.001,0,0.002,0,0.003,0c112.111,16.801,198.981,111.817,203.096,227.549H462.111z"/>
<g>
</g>
<g>
</g>
<g>
</g>
<g>
</g>
<g>
</g>
<g>
</g>
<g>
</g>
<g>
</g>
<g>
</g>
<g>
</g>
<g>
</g>
<g>
</g>
<g>
</g>
<g>
</g>
<g>
</g>
</svg>
