<?xml version="1.0" encoding="iso-8859-1"?>
<!-- Generator: Adobe Illustrator 19.0.0, SVG Export Plug-In . SVG Version: 6.00 Build 0)  -->
<svg xmlns="http://www.w3.org/2000/svg" xmlns:xlink="http://www.w3.org/1999/xlink" version="1.1" id="Layer_1" x="0px" y="0px" viewBox="0 0 512 512" style="enable-background:new 0 0 512 512;" xml:space="preserve">
<path style="fill:#EDE21B;" d="M291.829,372.64c-92.222-25.289-160.182-109.854-160.182-209.992  c0-48.169,15.423-93.819,44.599-132.015c3.817-4.998,3.744-11.953-0.182-16.868c-3.922-4.916-10.69-6.532-16.408-3.912  C115.229,30.173,77.559,62.566,50.717,103.53C23.164,145.581,8.602,194.49,8.602,244.972c0,142.495,115.93,258.425,258.425,258.425  c50.483,0,99.394-14.563,141.443-42.115c40.964-26.842,73.357-64.512,93.677-108.941c2.617-5.72,1.002-12.485-3.913-16.41  c-4.916-3.922-11.87-3.995-16.869-0.181c-38.196,29.179-83.846,44.6-132.017,44.6c-9.115,0-18.1-0.562-26.924-1.656"/>
<path style="fill:#EAC71C;" d="M434.876,433.026c-42.048,27.552-90.959,42.115-141.443,42.115  c-142.493,0-258.424-115.93-258.424-258.425c0-50.482,14.562-99.393,42.114-141.443c3.63-5.538,7.463-10.915,11.479-16.131  C76.748,71.217,66.038,84.485,56.655,98.803C29.101,140.854,14.54,189.764,14.54,240.247c0,142.495,115.93,258.425,258.425,258.425  c50.483,0,99.393-14.563,141.443-42.115c24.476-16.038,45.888-35.944,63.497-58.844  C464.944,410.913,450.539,422.763,434.876,433.026z"/>
<path style="fill:#231F20;" d="M267.027,512C119.789,512,0,392.212,0,244.973c0-52.164,15.05-102.705,43.523-146.158  c27.732-42.323,66.654-75.79,112.557-96.783c9.321-4.27,20.305-1.653,26.708,6.368c6.398,8.012,6.52,19.302,0.295,27.455  c-28.023,36.685-42.834,80.529-42.834,126.795c0,93.916,63.268,176.855,153.855,201.696c4.583,1.256,7.277,5.988,6.021,10.569  c-1.256,4.583-5.991,7.279-10.569,6.021c-98.039-26.884-166.509-116.646-166.509-218.287c0-50.072,16.033-97.528,46.365-137.237  c1.424-1.863,1.396-4.446-0.068-6.278c-1.467-1.836-3.976-2.434-6.103-1.46C120.285,37.32,83.865,68.638,57.912,108.245  c-26.632,40.643-40.708,87.922-40.708,136.729c0,137.753,112.07,249.823,249.823,249.823c48.805,0,96.084-14.077,136.729-40.708  c39.606-25.952,70.924-62.373,90.569-105.324c0.976-2.133,0.377-4.646-1.457-6.11c-1.832-1.463-4.415-1.488-6.282-0.066  c-39.704,30.331-87.161,46.364-137.236,46.364c-9.347,0-18.761-0.578-27.981-1.721c-4.715-0.584-8.063-4.879-7.479-9.594  c0.584-4.715,4.883-8.056,9.594-7.479c8.521,1.056,17.224,1.59,25.868,1.59c46.268,0,90.114-14.811,126.796-42.834  c8.152-6.222,19.442-6.102,27.455,0.292c8.018,6.402,10.636,17.385,6.371,26.712c-20.996,45.903-54.463,84.826-96.785,112.558  C369.73,496.95,319.19,512,267.027,512z"/>
<g>
</g>
<g>
</g>
<g>
</g>
<g>
</g>
<g>
</g>
<g>
</g>
<g>
</g>
<g>
</g>
<g>
</g>
<g>
</g>
<g>
</g>
<g>
</g>
<g>
</g>
<g>
</g>
<g>
</g>
</svg>
