<?xml version="1.0" encoding="iso-8859-1"?>
<!-- Generator: Adobe Illustrator 19.0.0, SVG Export Plug-In . SVG Version: 6.00 Build 0)  -->
<svg xmlns="http://www.w3.org/2000/svg" xmlns:xlink="http://www.w3.org/1999/xlink" version="1.1" id="Layer_1" x="0px" y="0px" viewBox="0 0 512 512" style="enable-background:new 0 0 512 512;" xml:space="preserve">
<path style="fill:#CCCCCC;" d="M213.319,355.864l-0.022-0.013c-0.022-0.019-0.04-0.038-0.061-0.057  c-0.854-0.737-1.699-1.485-2.533-2.244c-0.002-0.002-0.004-0.004-0.006-0.006c-0.817-0.743-1.625-1.498-2.422-2.262  c-0.238-0.226-0.469-0.458-0.705-0.685c-0.558-0.544-1.117-1.089-1.666-1.64c-0.29-0.291-0.573-0.588-0.861-0.882  c-0.489-0.5-0.976-1.003-1.454-1.508c-0.305-0.323-0.607-0.648-0.908-0.975c-0.453-0.487-0.905-0.978-1.349-1.474  c-0.31-0.342-0.614-0.688-0.919-1.035c-0.432-0.488-0.859-0.98-1.282-1.475c-0.303-0.355-0.606-0.713-0.907-1.073  c-0.414-0.494-0.825-0.996-1.233-1.498c-0.297-0.364-0.592-0.727-0.883-1.095c-0.408-0.513-0.807-1.029-1.206-1.545  c-0.282-0.365-0.563-0.728-0.838-1.095c-0.409-0.539-0.808-1.085-1.204-1.63c-0.259-0.354-0.52-0.705-0.774-1.059  c-0.425-0.594-0.839-1.194-1.255-1.795c-0.217-0.315-0.438-0.626-0.654-0.943c-0.537-0.793-1.064-1.594-1.583-2.399  c-0.084-0.129-0.17-0.256-0.254-0.385c-0.602-0.938-1.189-1.883-1.767-2.835c-0.177-0.291-0.347-0.588-0.522-0.882  c-0.396-0.664-0.79-1.326-1.174-1.999c-0.216-0.376-0.424-0.755-0.635-1.134c-0.333-0.597-0.666-1.194-0.991-1.796  c-0.222-0.411-0.438-0.828-0.656-1.242c-0.302-0.577-0.603-1.153-0.897-1.734c-0.218-0.43-0.431-0.864-0.648-1.297  c-0.282-0.574-0.56-1.15-0.836-1.729c-0.21-0.443-0.418-0.887-0.623-1.333c-0.266-0.577-0.526-1.157-0.785-1.74  c-0.199-0.451-0.397-0.9-0.591-1.351c-0.255-0.589-0.502-1.185-0.746-1.779c-0.187-0.449-0.371-0.896-0.552-1.346  c-0.245-0.613-0.481-1.229-0.717-1.847c-0.168-0.439-0.338-0.877-0.5-1.317c-0.243-0.656-0.473-1.317-0.707-1.978  c-0.143-0.406-0.291-0.811-0.43-1.219c-0.264-0.77-0.513-1.545-0.76-2.321c-0.098-0.304-0.202-0.608-0.297-0.915  c-0.337-1.082-0.66-2.168-0.97-3.262c-0.071-0.25-0.136-0.502-0.204-0.753c-0.236-0.849-0.467-1.697-0.685-2.551  c-0.103-0.408-0.198-0.819-0.297-1.226c-0.173-0.701-0.346-1.408-0.508-2.114c-0.105-0.46-0.201-0.92-0.3-1.378  c-0.144-0.666-0.288-1.329-0.419-2c-0.096-0.48-0.187-0.964-0.279-1.448c-0.124-0.653-0.244-1.308-0.357-1.963  c-0.086-0.495-0.166-0.99-0.246-1.484c-0.105-0.653-0.205-1.311-0.301-1.965c-0.072-0.499-0.143-0.998-0.211-1.501  c-0.088-0.66-0.17-1.324-0.248-1.99c-0.058-0.498-0.116-0.995-0.17-1.495c-0.072-0.679-0.138-1.36-0.198-2.042  c-0.045-0.489-0.091-0.977-0.131-1.468c-0.057-0.709-0.103-1.423-0.15-2.138c-0.03-0.464-0.063-0.927-0.088-1.391  c-0.042-0.789-0.07-1.583-0.099-2.375c-0.014-0.393-0.034-0.785-0.044-1.179c-0.032-1.188-0.051-2.378-0.051-3.573  c0-12.515,1.744-24.622,5.002-36.092c7.927-27.909,24.823-52.039,47.371-69.097c-22.101-16.725-49.63-26.649-79.48-26.649  C67.632,124.162,8.605,183.187,8.605,256s59.027,131.84,131.839,131.84c29.858,0,57.395-9.932,79.498-26.666  C217.683,359.466,215.461,357.714,213.319,355.864z"/>
<path style="fill:#BCBAB7;" d="M38.255,257.834c0-69.191,53.303-125.925,121.083-131.399c-3.547-0.287-7.134-0.439-10.755-0.439  c-72.812,0-131.839,59.025-131.839,131.838s59.027,131.84,131.839,131.84c3.622,0,7.206-0.153,10.754-0.439  C91.558,383.76,38.255,327.024,38.255,257.834z"/>
<path style="fill:#EAC71C;" d="M393.74,348.074c0.487-0.5,0.975-1.003,1.455-1.508c0.303-0.323,0.606-0.648,0.907-0.975  c0.453-0.487,0.904-0.978,1.349-1.474c0.309-0.342,0.613-0.688,0.919-1.035c0.43-0.488,0.857-0.98,1.28-1.475  c0.304-0.355,0.607-0.713,0.908-1.073c0.414-0.494,0.825-0.996,1.233-1.498c0.296-0.364,0.592-0.727,0.883-1.095  c0.406-0.513,0.808-1.029,1.205-1.545c0.282-0.365,0.563-0.728,0.84-1.095c0.406-0.539,0.805-1.085,1.203-1.63  c0.257-0.354,0.518-0.705,0.773-1.059c0.425-0.594,0.84-1.194,1.254-1.795c0.218-0.315,0.44-0.626,0.653-0.943  c0.539-0.793,1.066-1.594,1.587-2.399c0.084-0.129,0.17-0.256,0.254-0.385c0.6-0.938,1.189-1.883,1.767-2.835  c0.175-0.291,0.345-0.588,0.521-0.882c0.397-0.664,0.791-1.326,1.175-1.999c0.216-0.376,0.423-0.755,0.634-1.134  c0.333-0.597,0.667-1.194,0.992-1.796c0.222-0.411,0.438-0.828,0.655-1.242c0.302-0.577,0.606-1.153,0.899-1.734  c0.217-0.43,0.429-0.864,0.644-1.297c0.282-0.574,0.564-1.15,0.837-1.729c0.21-0.443,0.418-0.887,0.623-1.333  c0.266-0.577,0.527-1.157,0.785-1.74c0.2-0.451,0.396-0.9,0.591-1.351c0.254-0.589,0.501-1.185,0.749-1.779  c0.184-0.449,0.369-0.896,0.55-1.346c0.245-0.613,0.481-1.229,0.717-1.847c0.167-0.439,0.337-0.877,0.501-1.317  c0.243-0.656,0.473-1.317,0.706-1.978c0.144-0.406,0.292-0.811,0.43-1.219c0.261-0.77,0.512-1.545,0.759-2.321  c0.098-0.304,0.202-0.608,0.297-0.915c0.338-1.082,0.66-2.168,0.971-3.262c0.069-0.25,0.134-0.502,0.203-0.753  c0.234-0.849,0.466-1.697,0.684-2.551c0.104-0.408,0.201-0.819,0.3-1.226c0.171-0.701,0.343-1.408,0.506-2.114  c0.104-0.46,0.199-0.92,0.299-1.378c0.144-0.666,0.288-1.329,0.421-2c0.097-0.48,0.187-0.964,0.279-1.448  c0.123-0.653,0.244-1.308,0.357-1.963c0.085-0.495,0.166-0.99,0.246-1.484c0.104-0.653,0.204-1.311,0.301-1.965  c0.071-0.499,0.141-0.998,0.209-1.501c0.088-0.66,0.17-1.324,0.25-1.99c0.058-0.498,0.115-0.995,0.17-1.495  c0.072-0.679,0.137-1.36,0.198-2.042c0.046-0.489,0.09-0.977,0.131-1.468c0.057-0.709,0.103-1.423,0.148-2.138  c0.029-0.464,0.063-0.927,0.088-1.391c0.042-0.789,0.07-1.583,0.099-2.375c0.014-0.393,0.033-0.785,0.044-1.179  c0.032-1.188,0.051-2.378,0.051-3.573c0-12.515-1.744-24.622-5.002-36.092c-7.996-28.155-25.114-52.474-47.955-69.556  c-21.997-16.45-49.302-26.192-78.881-26.192h-0.001l0,0c-29.581,0-56.885,9.742-78.881,26.192  c-22.842,17.082-39.96,41.401-47.956,69.556c-3.258,11.469-5.002,23.577-5.002,36.092c0,1.195,0.018,2.387,0.051,3.573  c0.01,0.394,0.03,0.785,0.044,1.179c0.028,0.792,0.057,1.585,0.099,2.375c0.025,0.464,0.058,0.927,0.088,1.391  c0.046,0.715,0.092,1.43,0.15,2.138c0.04,0.492,0.086,0.979,0.131,1.468c0.06,0.682,0.125,1.363,0.198,2.042  c0.054,0.5,0.113,0.997,0.17,1.495c0.079,0.665,0.16,1.328,0.248,1.99c0.068,0.502,0.139,1.001,0.211,1.501  c0.096,0.654,0.197,1.312,0.301,1.965c0.08,0.495,0.159,0.99,0.246,1.484c0.113,0.655,0.233,1.31,0.357,1.963  c0.091,0.483,0.183,0.967,0.279,1.448c0.131,0.67,0.275,1.334,0.419,2c0.1,0.459,0.196,0.919,0.3,1.378  c0.16,0.706,0.335,1.412,0.508,2.114c0.1,0.408,0.195,0.819,0.297,1.226c0.218,0.854,0.45,1.703,0.685,2.551  c0.069,0.251,0.133,0.504,0.204,0.753c0.31,1.094,0.634,2.18,0.97,3.262c0.096,0.307,0.2,0.61,0.297,0.915  c0.247,0.778,0.497,1.551,0.76,2.321c0.139,0.408,0.287,0.813,0.43,1.219c0.233,0.661,0.465,1.321,0.707,1.978  c0.161,0.439,0.332,0.877,0.5,1.317c0.237,0.617,0.472,1.233,0.717,1.847c0.181,0.45,0.365,0.897,0.552,1.346  c0.245,0.595,0.492,1.191,0.746,1.779c0.194,0.451,0.392,0.9,0.591,1.351c0.259,0.583,0.52,1.164,0.785,1.74  c0.204,0.445,0.413,0.89,0.623,1.333c0.275,0.579,0.555,1.154,0.836,1.729c0.215,0.433,0.428,0.867,0.648,1.297  c0.294,0.581,0.595,1.157,0.897,1.734c0.218,0.415,0.435,0.831,0.656,1.242c0.325,0.602,0.657,1.199,0.991,1.796  c0.211,0.379,0.418,0.757,0.635,1.134c0.383,0.672,0.778,1.335,1.174,1.999c0.174,0.294,0.344,0.591,0.522,0.882  c0.578,0.952,1.165,1.897,1.767,2.835c0.084,0.129,0.17,0.256,0.254,0.385c0.518,0.805,1.047,1.606,1.583,2.399  c0.216,0.317,0.437,0.628,0.654,0.943c0.416,0.601,0.83,1.201,1.255,1.795c0.254,0.355,0.515,0.706,0.774,1.059  c0.396,0.544,0.795,1.091,1.204,1.63c0.275,0.367,0.557,0.73,0.838,1.095c0.399,0.515,0.798,1.033,1.206,1.545  c0.291,0.368,0.586,0.731,0.883,1.095c0.408,0.502,0.819,1.005,1.233,1.498c0.3,0.36,0.603,0.719,0.907,1.073  c0.424,0.495,0.85,0.986,1.282,1.475c0.303,0.346,0.608,0.693,0.919,1.035c0.444,0.496,0.896,0.986,1.349,1.474  c0.3,0.328,0.602,0.652,0.908,0.975c0.478,0.507,0.964,1.009,1.454,1.508c0.287,0.294,0.57,0.591,0.861,0.882  c0.55,0.553,1.108,1.097,1.666,1.64c0.237,0.227,0.467,0.459,0.705,0.685c0.797,0.765,1.605,1.519,2.422,2.262  c0.002,0.002,0.004,0.004,0.006,0.006c0.834,0.758,1.68,1.507,2.533,2.244c0.022,0.019,0.04,0.038,0.061,0.057l0.022,0.013  c5.897,5.089,12.256,9.658,18.996,13.649l0.086,0.063c0.167,0.099,0.338,0.189,0.507,0.288c0.883,0.517,1.777,1.025,2.675,1.524  c0.238,0.131,0.472,0.267,0.71,0.397c1.126,0.615,2.261,1.212,3.404,1.793c0.267,0.138,0.539,0.268,0.808,0.401  c0.9,0.452,1.808,0.893,2.722,1.324c0.351,0.166,0.701,0.33,1.053,0.493c0.968,0.445,1.943,0.879,2.921,1.3  c0.219,0.095,0.435,0.194,0.655,0.288c1.188,0.507,2.386,0.992,3.59,1.461c0.302,0.116,0.606,0.23,0.909,0.345  c0.935,0.357,1.875,0.703,2.819,1.04c0.367,0.132,0.734,0.261,1.1,0.388c1.05,0.364,2.104,0.714,3.163,1.05  c0.193,0.062,0.382,0.127,0.575,0.188c1.245,0.388,2.497,0.755,3.756,1.109c0.333,0.091,0.669,0.181,1.004,0.271  c0.963,0.26,1.929,0.513,2.9,0.752c0.381,0.095,0.764,0.188,1.147,0.281c1.136,0.269,2.276,0.526,3.425,0.766  c0.153,0.032,0.303,0.069,0.457,0.101c1.292,0.264,2.594,0.507,3.9,0.735c0.361,0.065,0.724,0.12,1.086,0.181  c0.99,0.164,1.982,0.316,2.979,0.459c0.392,0.056,0.784,0.111,1.178,0.164c1.241,0.166,2.487,0.317,3.74,0.446  c0.088,0.01,0.174,0.021,0.262,0.03c1.337,0.137,2.682,0.246,4.03,0.343c0.385,0.027,0.772,0.048,1.158,0.073  c1.012,0.065,2.03,0.116,3.048,0.156c0.399,0.015,0.797,0.034,1.196,0.045c1.365,0.042,2.732,0.071,4.108,0.071l0,0h0.001  c1.374,0,2.744-0.029,4.108-0.071c0.398-0.011,0.797-0.03,1.194-0.045c1.021-0.039,2.036-0.091,3.049-0.156  c0.387-0.025,0.776-0.046,1.16-0.073c1.348-0.097,2.691-0.207,4.028-0.343c0.09-0.01,0.176-0.022,0.265-0.03  c1.252-0.129,2.497-0.281,3.738-0.446c0.395-0.053,0.786-0.109,1.179-0.164c0.998-0.143,1.991-0.295,2.979-0.459  c0.362-0.06,0.725-0.116,1.086-0.181c1.306-0.228,2.607-0.471,3.9-0.735c0.154-0.032,0.304-0.068,0.458-0.101  c1.147-0.24,2.289-0.497,3.425-0.766c0.382-0.092,0.765-0.186,1.148-0.281c0.969-0.24,1.937-0.492,2.898-0.752  c0.336-0.09,0.669-0.18,1.004-0.271c1.26-0.354,2.513-0.721,3.757-1.109c0.193-0.061,0.382-0.126,0.575-0.188  c1.059-0.336,2.114-0.686,3.162-1.05c0.369-0.127,0.735-0.256,1.1-0.388c0.945-0.337,1.885-0.683,2.819-1.04  c0.303-0.115,0.607-0.229,0.909-0.345c1.205-0.47,2.403-0.955,3.59-1.461c0.222-0.095,0.438-0.194,0.658-0.289  c0.979-0.421,1.95-0.854,2.917-1.299c0.352-0.162,0.703-0.327,1.053-0.493c0.914-0.431,1.821-0.872,2.722-1.324  c0.27-0.133,0.54-0.264,0.809-0.401c1.143-0.581,2.278-1.178,3.402-1.793c0.239-0.13,0.473-0.266,0.712-0.397  c0.897-0.499,1.791-1.007,2.676-1.524c0.166-0.099,0.338-0.189,0.504-0.288l0.087-0.063c6.74-3.991,13.097-8.56,18.996-13.649  l0.022-0.013c0.02-0.019,0.04-0.038,0.063-0.057c0.853-0.737,1.697-1.485,2.532-2.244c0.002-0.002,0.004-0.004,0.005-0.006  c0.819-0.743,1.624-1.498,2.422-2.262c0.239-0.226,0.469-0.458,0.703-0.685c0.559-0.544,1.119-1.089,1.667-1.64  C393.169,348.663,393.452,348.368,393.74,348.074z"/>
<path style="fill:#EDE21B;" d="M374.062,155.75c-20.542-15.361-45.715-24.867-73.045-26.058  c-39.762,22.358-66.628,64.943-66.628,113.809c0,71.692,57.819,129.872,129.37,130.474c6.176-3.771,12.037-8.008,17.492-12.714  l0.021-0.013c0.022-0.019,0.04-0.038,0.063-0.057c0.853-0.737,1.697-1.485,2.533-2.244c0.002-0.002,0.004-0.004,0.004-0.004  c0.82-0.745,1.624-1.501,2.422-2.264c0.24-0.226,0.469-0.458,0.703-0.685c0.559-0.544,1.12-1.089,1.668-1.64  c0.29-0.292,0.573-0.588,0.862-0.882c0.487-0.5,0.975-1.003,1.454-1.508c0.304-0.323,0.606-0.648,0.908-0.975  c0.452-0.487,0.904-0.978,1.349-1.474c0.309-0.342,0.613-0.688,0.919-1.035c0.43-0.488,0.857-0.98,1.279-1.475  c0.304-0.355,0.607-0.713,0.908-1.073c0.414-0.494,0.826-0.996,1.233-1.498c0.296-0.364,0.593-0.727,0.884-1.095  c0.406-0.513,0.807-1.029,1.204-1.546c0.282-0.365,0.563-0.728,0.84-1.095c0.406-0.539,0.805-1.085,1.204-1.63  c0.256-0.354,0.518-0.705,0.773-1.059c0.425-0.594,0.84-1.194,1.254-1.795c0.218-0.315,0.439-0.626,0.653-0.943  c0.538-0.793,1.065-1.594,1.587-2.399c0.084-0.129,0.17-0.256,0.254-0.385c0.599-0.938,1.189-1.883,1.767-2.835  c0.174-0.293,0.344-0.588,0.521-0.882c0.397-0.664,0.79-1.326,1.175-1.999c0.216-0.376,0.423-0.755,0.633-1.134  c0.333-0.597,0.668-1.194,0.992-1.796c0.223-0.411,0.439-0.828,0.655-1.242c0.302-0.577,0.606-1.153,0.899-1.734  c0.218-0.43,0.43-0.864,0.645-1.297c0.282-0.574,0.563-1.15,0.836-1.729c0.21-0.443,0.418-0.887,0.624-1.333  c0.265-0.577,0.527-1.157,0.785-1.74c0.199-0.451,0.395-0.9,0.591-1.351c0.254-0.589,0.5-1.185,0.748-1.779  c0.185-0.449,0.37-0.896,0.551-1.346c0.245-0.613,0.481-1.229,0.716-1.847c0.168-0.439,0.339-0.878,0.502-1.317  c0.242-0.656,0.472-1.317,0.706-1.978c0.143-0.406,0.293-0.811,0.43-1.219c0.26-0.77,0.511-1.545,0.758-2.321  c0.099-0.304,0.203-0.608,0.298-0.914c0.338-1.082,0.659-2.168,0.97-3.262c0.069-0.248,0.134-0.502,0.203-0.753  c0.236-0.849,0.467-1.697,0.685-2.551c0.103-0.408,0.2-0.819,0.3-1.226c0.17-0.701,0.342-1.408,0.504-2.114  c0.105-0.46,0.199-0.919,0.3-1.378c0.143-0.666,0.288-1.329,0.421-2c0.097-0.48,0.187-0.964,0.277-1.448  c0.124-0.653,0.244-1.308,0.357-1.963c0.086-0.495,0.166-0.99,0.247-1.484c0.103-0.653,0.203-1.311,0.3-1.965  c0.071-0.499,0.141-0.998,0.21-1.5c0.088-0.66,0.17-1.324,0.25-1.99c0.057-0.498,0.115-0.995,0.17-1.495  c0.071-0.679,0.137-1.36,0.198-2.04c0.046-0.489,0.09-0.977,0.132-1.468c0.057-0.709,0.103-1.423,0.147-2.138  c0.029-0.464,0.063-0.927,0.088-1.391c0.042-0.789,0.071-1.583,0.099-2.375c0.015-0.393,0.033-0.784,0.044-1.179  c0.033-1.188,0.051-2.378,0.051-3.573c0-12.515-1.744-24.622-5.002-36.092C414.02,197.151,396.902,172.832,374.062,155.75z"/>
<g>
	<circle style="fill:#EAE6E1;" cx="74.724" cy="207.425" r="15.465"/>
	<path style="fill:#EAE6E1;" d="M40.143,279.668c-10.235,0-19.725,3.16-27.564,8.551c8.301,33.046,29.071,61.141,57.022,78.986   c11.706-8.899,19.27-22.967,19.27-38.808C88.871,301.484,67.055,279.668,40.143,279.668z"/>
</g>
<path style="fill:#D8D1CA;" d="M40.06,279.67c-7.391,0.012-14.387,1.678-20.656,4.636c6.77,33.211,26.026,61.879,52.651,80.893  c3.426-2.973,6.433-6.411,8.921-10.223C59.8,335.541,44.995,309.277,40.06,279.67z"/>
<path style="fill:#EF8229;" d="M391.408,294.119c1.461-3.523,2.726-7.149,3.781-10.862c1.118-3.937,2-7.974,2.629-12.094  c0.252-1.649,0.465-3.309,0.635-4.983c0.34-3.346,0.514-6.743,0.514-10.181c0-1.147-0.027-2.287-0.065-3.424  c-0.011-0.284-0.021-0.568-0.032-0.852c-0.049-1.134-0.109-2.262-0.195-3.386l0,0c-0.086-1.126-0.197-2.242-0.318-3.355  c-0.031-0.279-0.062-0.555-0.096-0.831c-0.264-2.22-0.601-4.419-1.008-6.595c-0.049-0.271-0.101-0.54-0.156-0.809  c-0.425-2.171-0.92-4.313-1.482-6.431c-0.07-0.261-0.141-0.521-0.213-0.782c-0.581-2.111-1.228-4.193-1.943-6.247  c-0.086-0.251-0.175-0.502-0.265-0.752c-0.731-2.047-1.526-4.064-2.386-6.047c-0.102-0.24-0.207-0.479-0.312-0.716  c-0.876-1.977-1.812-3.921-2.807-5.828c-0.118-0.229-0.241-0.456-0.361-0.685c-1.012-1.9-2.083-3.76-3.21-5.585  c-0.137-0.217-0.272-0.435-0.41-0.652c-4.79-7.607-10.577-14.523-17.184-20.559l-0.013-0.015c-0.023-0.019-0.045-0.041-0.068-0.062  c-0.272-0.244-0.548-0.487-0.821-0.73c-0.302-0.27-0.605-0.541-0.909-0.807c-0.29-0.252-0.582-0.498-0.874-0.743  c-0.297-0.254-0.594-0.509-0.894-0.758c-0.299-0.247-0.6-0.489-0.9-0.734c-0.3-0.243-0.599-0.487-0.901-0.726  c-0.307-0.244-0.616-0.482-0.927-0.722c-0.301-0.233-0.603-0.467-0.908-0.695c-0.316-0.24-0.634-0.472-0.952-0.708  c-0.305-0.224-0.61-0.45-0.918-0.669c-0.323-0.232-0.648-0.461-0.971-0.686c-0.31-0.219-0.622-0.436-0.935-0.65  c-0.326-0.224-0.653-0.443-0.982-0.662c-0.317-0.212-0.637-0.423-0.956-0.63c-0.331-0.214-0.661-0.429-0.994-0.639  c-0.325-0.207-0.651-0.409-0.977-0.609c-0.335-0.207-0.668-0.414-1.005-0.615c-0.332-0.198-0.666-0.395-0.999-0.591  c-0.338-0.197-0.675-0.395-1.013-0.588c-0.339-0.193-0.679-0.382-1.019-0.568c-0.341-0.189-0.681-0.379-1.023-0.564  c-0.347-0.187-0.697-0.369-1.048-0.551c-0.341-0.18-0.682-0.359-1.024-0.534c-0.357-0.183-0.72-0.36-1.08-0.538  c-0.34-0.169-0.679-0.338-1.021-0.503c-0.376-0.18-0.755-0.352-1.134-0.529c-0.33-0.154-0.659-0.311-0.992-0.46  c-0.458-0.205-0.918-0.402-1.379-0.602c-0.35-0.152-0.699-0.304-1.051-0.452c-0.622-0.258-1.241-0.515-1.865-0.763  c-0.304-0.119-0.612-0.233-0.916-0.348c-0.431-0.166-0.862-0.335-1.294-0.494c-0.328-0.12-0.659-0.236-0.99-0.351  c-0.415-0.147-0.829-0.297-1.242-0.439c-0.343-0.116-0.689-0.227-1.034-0.34c-0.409-0.134-0.815-0.269-1.225-0.4  c-0.354-0.108-0.707-0.213-1.061-0.321c-0.406-0.123-0.812-0.246-1.223-0.365c-0.357-0.102-0.717-0.2-1.079-0.301  c-0.407-0.112-0.815-0.223-1.225-0.33c-0.364-0.097-0.727-0.188-1.09-0.279c-0.413-0.103-0.827-0.204-1.24-0.302  c-0.366-0.085-0.734-0.169-1.1-0.252c-0.415-0.094-0.83-0.184-1.248-0.272c-0.371-0.077-0.74-0.154-1.11-0.227  c-0.42-0.082-0.841-0.163-1.265-0.243c-0.37-0.068-0.74-0.134-1.11-0.198c-0.428-0.073-0.857-0.144-1.286-0.213  c-0.37-0.06-0.74-0.118-1.108-0.173c-0.436-0.065-0.876-0.124-1.313-0.183c-0.367-0.052-0.734-0.101-1.1-0.145  c-0.446-0.056-0.896-0.105-1.345-0.154c-0.362-0.04-0.725-0.082-1.089-0.118c-0.462-0.045-0.924-0.083-1.389-0.123  c-0.354-0.028-0.706-0.061-1.059-0.087c-0.487-0.037-0.978-0.066-1.466-0.094c-0.332-0.02-0.665-0.044-1-0.061  c-0.542-0.025-1.092-0.044-1.637-0.061c-0.283-0.009-0.561-0.023-0.842-0.029c-0.825-0.022-1.652-0.031-2.481-0.032  c-0.004,0-0.01,0-0.014,0l0,0h-0.001c-0.005,0-0.01,0-0.015,0c-0.829,0.001-1.655,0.012-2.48,0.032  c-0.283,0.006-0.561,0.022-0.842,0.029c-0.549,0.017-1.095,0.036-1.639,0.061c-0.333,0.017-0.666,0.041-0.998,0.061  c-0.489,0.028-0.979,0.057-1.466,0.094c-0.354,0.026-0.707,0.059-1.061,0.087c-0.463,0.04-0.926,0.077-1.387,0.123  c-0.365,0.037-0.727,0.079-1.09,0.118c-0.45,0.048-0.897,0.098-1.346,0.154c-0.367,0.044-0.731,0.094-1.098,0.145  c-0.439,0.059-0.876,0.118-1.314,0.183c-0.371,0.055-0.74,0.113-1.108,0.173c-0.429,0.069-0.858,0.14-1.288,0.213  c-0.37,0.063-0.74,0.13-1.108,0.198c-0.424,0.079-0.845,0.161-1.266,0.243c-0.371,0.073-0.741,0.15-1.109,0.227  c-0.418,0.088-0.834,0.179-1.249,0.272c-0.369,0.083-0.735,0.167-1.1,0.252c-0.415,0.098-0.827,0.2-1.239,0.302  c-0.364,0.09-0.727,0.182-1.09,0.279c-0.411,0.108-0.819,0.218-1.226,0.33c-0.36,0.102-0.723,0.2-1.082,0.301  c-0.408,0.118-0.814,0.241-1.22,0.365c-0.355,0.108-0.708,0.212-1.06,0.321c-0.411,0.131-0.817,0.266-1.227,0.4  c-0.343,0.113-0.689,0.224-1.032,0.34c-0.417,0.142-0.829,0.292-1.243,0.439c-0.33,0.115-0.661,0.23-0.99,0.351  c-0.432,0.159-0.863,0.328-1.293,0.494c-0.305,0.115-0.614,0.229-0.919,0.348c-0.624,0.247-1.246,0.504-1.865,0.763  c-0.352,0.147-0.701,0.3-1.052,0.452c-0.463,0.2-0.922,0.397-1.377,0.602c-0.335,0.15-0.662,0.307-0.992,0.46  c-0.381,0.177-0.759,0.35-1.136,0.529c-0.343,0.166-0.682,0.337-1.022,0.504c-0.359,0.176-0.721,0.354-1.078,0.535  c-0.343,0.176-0.684,0.356-1.026,0.536c-0.347,0.182-0.697,0.364-1.046,0.551c-0.342,0.186-0.683,0.375-1.023,0.564  c-0.34,0.186-0.682,0.376-1.018,0.568c-0.339,0.194-0.678,0.392-1.014,0.588c-0.335,0.196-0.667,0.393-0.998,0.591  c-0.337,0.202-0.671,0.409-1.005,0.615c-0.327,0.2-0.653,0.402-0.978,0.609c-0.333,0.209-0.665,0.425-0.995,0.639  c-0.318,0.208-0.638,0.418-0.955,0.63c-0.329,0.218-0.656,0.438-0.983,0.662c-0.314,0.213-0.623,0.429-0.934,0.65  c-0.327,0.225-0.65,0.454-0.971,0.686c-0.305,0.219-0.611,0.444-0.919,0.669c-0.316,0.236-0.636,0.47-0.951,0.708  c-0.303,0.229-0.605,0.461-0.906,0.694c-0.311,0.24-0.622,0.48-0.93,0.724c-0.301,0.241-0.601,0.483-0.9,0.726  c-0.3,0.244-0.602,0.485-0.899,0.734c-0.301,0.25-0.599,0.504-0.896,0.758c-0.29,0.246-0.583,0.492-0.872,0.743  c-0.305,0.266-0.607,0.537-0.909,0.807c-0.275,0.243-0.55,0.485-0.821,0.73c-0.023,0.022-0.047,0.042-0.069,0.062l-0.014,0.015  c-6.607,6.035-12.393,12.952-17.182,20.559c-0.139,0.217-0.274,0.435-0.41,0.652c-1.128,1.824-2.2,3.686-3.211,5.585  c-0.12,0.229-0.242,0.456-0.361,0.685c-0.997,1.907-1.934,3.851-2.807,5.828c-0.105,0.238-0.21,0.477-0.312,0.716  c-0.859,1.983-1.654,4-2.385,6.047c-0.091,0.25-0.18,0.501-0.266,0.752c-0.713,2.053-1.362,4.136-1.943,6.247  c-0.072,0.26-0.143,0.52-0.212,0.782c-0.563,2.118-1.058,4.261-1.483,6.431c-0.055,0.269-0.105,0.538-0.156,0.809  c-0.408,2.175-0.744,4.374-1.008,6.595c-0.034,0.278-0.066,0.554-0.095,0.831c-0.124,1.113-0.234,2.229-0.319,3.355l0,0  c-0.087,1.125-0.146,2.253-0.194,3.386c-0.012,0.284-0.024,0.568-0.033,0.852c-0.037,1.137-0.065,2.276-0.065,3.424  c0,3.438,0.174,6.835,0.515,10.181c0.17,1.675,0.381,3.334,0.631,4.983c0.63,4.121,1.512,8.158,2.631,12.094  c11.855,41.744,50.256,72.315,95.797,72.315h0.001l0,0c30.555,0,57.899-13.764,76.164-35.43"/>
<path style="fill:#F29F26;" d="M394.656,257.122c-0.048-1.134-0.108-2.261-0.194-3.386c-0.086-1.126-0.198-2.242-0.319-3.355  c-0.031-0.279-0.061-0.555-0.095-0.831c-0.262-2.22-0.601-4.419-1.009-6.595c-0.048-0.271-0.101-0.54-0.156-0.809  c-0.425-2.171-0.92-4.313-1.481-6.431c-0.071-0.261-0.141-0.521-0.214-0.782c-0.58-2.111-1.227-4.193-1.941-6.247  c-0.086-0.251-0.176-0.502-0.265-0.752c-0.731-2.047-1.527-4.064-2.387-6.047c-0.101-0.24-0.205-0.479-0.311-0.716  c-0.874-1.977-1.811-3.921-2.808-5.828c-0.117-0.229-0.24-0.456-0.361-0.685c-1.01-1.9-2.082-3.76-3.21-5.585  c-0.137-0.217-0.271-0.435-0.41-0.652c-1.197-1.902-2.456-3.76-3.775-5.573c-3.958-5.438-8.451-10.459-13.408-14.987l-0.013-0.015  c-0.024-0.02-0.046-0.041-0.07-0.062c-0.271-0.245-0.546-0.487-0.82-0.73c-0.302-0.27-0.606-0.541-0.91-0.807  c-0.145-0.126-0.29-0.247-0.437-0.372c-0.145-0.124-0.29-0.25-0.435-0.372c-0.15-0.127-0.299-0.252-0.45-0.38  c-0.147-0.127-0.296-0.254-0.445-0.379c-0.3-0.247-0.6-0.489-0.901-0.734c-0.298-0.243-0.599-0.485-0.899-0.726  c-0.309-0.244-0.62-0.484-0.93-0.724c-0.302-0.232-0.603-0.465-0.906-0.694c-0.315-0.239-0.635-0.472-0.952-0.708  c-0.307-0.225-0.611-0.45-0.918-0.669c-0.322-0.232-0.648-0.461-0.97-0.686c-0.311-0.219-0.62-0.436-0.935-0.65  c-0.326-0.224-0.653-0.443-0.983-0.662c-0.317-0.212-0.637-0.423-0.954-0.63c-0.33-0.214-0.661-0.429-0.996-0.639  c-0.324-0.207-0.651-0.409-0.977-0.609c-0.335-0.207-0.668-0.414-1.005-0.615c-0.332-0.198-0.666-0.395-0.998-0.591  c-0.338-0.197-0.677-0.395-1.014-0.588c-0.339-0.193-0.679-0.382-1.019-0.568c-0.34-0.189-0.681-0.379-1.023-0.564  c-0.349-0.187-0.697-0.369-1.044-0.551c-0.342-0.18-0.683-0.359-1.027-0.536c-0.355-0.181-0.716-0.357-1.076-0.534  c0,0-0.002-0.001-0.004-0.002c-0.009-0.004-0.017-0.009-0.026-0.013c-0.331-0.163-0.658-0.33-0.993-0.49  c-0.189-0.089-0.379-0.177-0.568-0.265c-0.189-0.087-0.378-0.175-0.566-0.265c-0.33-0.154-0.659-0.311-0.992-0.46  c-0.229-0.102-0.46-0.201-0.691-0.301c-0.23-0.099-0.457-0.2-0.688-0.3c-0.351-0.152-0.699-0.304-1.052-0.452  c-0.622-0.258-1.241-0.515-1.865-0.763c-0.304-0.119-0.611-0.233-0.916-0.349c-0.432-0.166-0.862-0.335-1.294-0.494  c-0.328-0.12-0.659-0.236-0.99-0.351c-0.416-0.147-0.829-0.297-1.243-0.439c-0.171-0.059-0.344-0.113-0.516-0.17  c-0.172-0.057-0.343-0.113-0.514-0.17c-0.205-0.068-0.41-0.133-0.613-0.2c-0.203-0.068-0.408-0.134-0.613-0.201  c-0.353-0.109-0.706-0.213-1.061-0.321c-0.406-0.124-0.811-0.246-1.219-0.365c-0.359-0.102-0.723-0.2-1.082-0.301  c-0.408-0.112-0.815-0.223-1.225-0.33c-0.364-0.097-0.727-0.188-1.091-0.279c-0.412-0.103-0.826-0.204-1.239-0.302  c-0.366-0.085-0.734-0.169-1.1-0.252c-0.416-0.094-0.831-0.184-1.248-0.272c-0.372-0.077-0.74-0.154-1.111-0.227  c-0.418-0.082-0.84-0.163-1.265-0.243c-0.185-0.034-0.37-0.066-0.555-0.1c-0.185-0.032-0.37-0.068-0.555-0.099  c-0.428-0.073-0.857-0.144-1.288-0.213c-0.37-0.06-0.74-0.118-1.107-0.173c-0.437-0.065-0.876-0.124-1.313-0.183  c-0.184-0.025-0.368-0.048-0.551-0.072c-0.183-0.025-0.367-0.051-0.551-0.072c-0.447-0.056-0.895-0.105-1.345-0.154  c-0.364-0.04-0.725-0.082-1.089-0.118c-0.231-0.023-0.464-0.041-0.695-0.062c-0.231-0.019-0.463-0.041-0.694-0.061  c-0.353-0.028-0.706-0.061-1.061-0.087c-0.487-0.037-0.977-0.066-1.466-0.094c-0.332-0.02-0.664-0.044-0.998-0.061  c-0.364-0.017-0.728-0.028-1.093-0.041c-0.183-0.005-0.365-0.015-0.546-0.019c-0.282-0.009-0.561-0.023-0.842-0.029  c-0.824-0.022-1.651-0.031-2.481-0.032c-0.004,0-0.009,0-0.013,0h-0.002l0,0c-0.005,0-0.01,0-0.015,0  c-0.828,0.001-1.655,0.012-2.481,0.032c-0.28,0.006-0.559,0.022-0.842,0.029c-0.181,0.005-0.362,0.015-0.545,0.019  c-0.365,0.013-0.73,0.025-1.094,0.041c-0.332,0.017-0.666,0.041-0.998,0.061c-0.489,0.028-0.979,0.057-1.466,0.094  c-0.353,0.026-0.706,0.059-1.061,0.087c-0.231,0.02-0.461,0.042-0.694,0.061c-0.231,0.022-0.463,0.04-0.694,0.062  c-0.364,0.037-0.727,0.079-1.089,0.118c-0.45,0.048-0.897,0.098-1.347,0.154c-0.183,0.022-0.366,0.048-0.549,0.072  c-0.184,0.024-0.368,0.047-0.551,0.072c-0.439,0.059-0.878,0.118-1.313,0.183c-0.372,0.055-0.74,0.113-1.109,0.173  c-0.428,0.069-0.857,0.14-1.288,0.213c-0.185,0.031-0.369,0.067-0.554,0.099c-0.185,0.033-0.371,0.066-0.556,0.1  c-0.424,0.079-0.844,0.16-1.265,0.243c-0.37,0.073-0.739,0.15-1.109,0.227c-0.418,0.088-0.834,0.179-1.248,0.272  c-0.37,0.083-0.736,0.167-1.101,0.252c-0.413,0.098-0.827,0.2-1.24,0.302c-0.361,0.09-0.725,0.182-1.09,0.279  c-0.409,0.108-0.819,0.218-1.224,0.33c-0.361,0.102-0.723,0.2-1.082,0.301c-0.408,0.118-0.815,0.241-1.221,0.365  c-0.353,0.108-0.706,0.212-1.061,0.321c-0.203,0.067-0.408,0.133-0.612,0.201c-0.203,0.067-0.409,0.132-0.612,0.2  c-0.172,0.057-0.344,0.113-0.516,0.17c-0.172,0.057-0.344,0.112-0.516,0.17c-0.413,0.142-0.828,0.291-1.241,0.439  c-0.33,0.115-0.661,0.23-0.99,0.351c-0.432,0.159-0.864,0.328-1.294,0.494c-0.304,0.115-0.613,0.229-0.919,0.349  c-0.319,0.127-0.637,0.26-0.956,0.39c-14.653,21.096-23.251,46.718-23.251,74.35c0,51.141,29.425,95.401,72.264,116.798  c0.229-0.026,0.46-0.045,0.689-0.072c0.308-0.038,0.613-0.076,0.92-0.116c1.157-0.153,2.31-0.318,3.456-0.51  c0.069-0.013,0.139-0.022,0.206-0.032c1.205-0.204,2.399-0.436,3.587-0.684c0.298-0.061,0.595-0.125,0.892-0.189  c1.099-0.24,2.195-0.493,3.283-0.767c0.096-0.025,0.194-0.046,0.288-0.07c1.168-0.299,2.323-0.625,3.474-0.965  c0.286-0.084,0.569-0.17,0.855-0.258c1.047-0.319,2.087-0.652,3.117-1.006c0.115-0.039,0.232-0.074,0.346-0.115  c1.126-0.39,2.242-0.805,3.348-1.233c0.273-0.106,0.544-0.214,0.815-0.323c0.994-0.394,1.979-0.801,2.956-1.227  c0.13-0.057,0.262-0.111,0.393-0.167c1.081-0.477,2.15-0.977,3.212-1.49c0.256-0.124,0.512-0.252,0.767-0.379  c0.942-0.466,1.876-0.943,2.801-1.438c0.139-0.074,0.28-0.145,0.418-0.219c1.034-0.559,2.054-1.14,3.066-1.733  c0.242-0.142,0.481-0.286,0.721-0.429c0.888-0.534,1.77-1.079,2.643-1.638c0.143-0.091,0.286-0.18,0.428-0.271  c0.981-0.639,1.95-1.296,2.909-1.967c0.224-0.157,0.444-0.316,0.667-0.473c0.834-0.595,1.658-1.2,2.473-1.82  c0.147-0.111,0.296-0.22,0.443-0.332c0.925-0.711,1.836-1.441,2.735-2.184c0.205-0.17,0.41-0.343,0.613-0.516  c0.778-0.651,1.544-1.315,2.3-1.99c0.148-0.132,0.299-0.262,0.446-0.395c0.864-0.782,1.712-1.579,2.548-2.389  c0.189-0.183,0.374-0.368,0.56-0.552c0.717-0.706,1.423-1.421,2.119-2.149c0.147-0.154,0.296-0.303,0.442-0.459  c0.797-0.844,1.579-1.704,2.348-2.576c0.172-0.196,0.34-0.395,0.512-0.593c0.299-0.344,0.602-0.685,0.896-1.034l0.068-0.112  c6.484-7.712,11.825-16.414,15.75-25.858l0.033-0.054c0.406-0.979,0.792-1.968,1.168-2.963c0.095-0.246,0.181-0.498,0.273-0.746  c0.332-0.904,0.651-1.814,0.961-2.728c0.108-0.321,0.214-0.64,0.317-0.961c0.372-1.146,0.731-2.299,1.061-3.462  c1.12-3.937,2.002-7.974,2.632-12.094c0.139-0.916,0.262-1.836,0.378-2.76c0.091-0.739,0.18-1.479,0.255-2.222  c0.34-3.346,0.513-6.743,0.513-10.181c0-1.147-0.027-2.287-0.063-3.424C394.68,257.69,394.669,257.406,394.656,257.122z"/>
<g>
	<path style="fill:#231F20;" d="M299.391,101.539c4.752,0,8.605-3.853,8.605-8.605V51.996c0-4.752-3.853-8.605-8.605-8.605   s-8.605,3.853-8.605,8.605v40.938C290.786,97.687,294.639,101.539,299.391,101.539z"/>
	<path style="fill:#231F20;" d="M299.391,410.461c-4.752,0-8.605,3.853-8.605,8.605v40.938c0,4.752,3.853,8.605,8.605,8.605   s8.605-3.853,8.605-8.605v-40.938C307.996,414.313,304.143,410.461,299.391,410.461z"/>
	<path style="fill:#231F20;" d="M210.407,119.084c1.593,2.76,4.485,4.304,7.461,4.304c1.459,0,2.939-0.372,4.294-1.154   c4.115-2.376,5.527-7.639,3.151-11.754l-20.47-35.455c-2.375-4.114-7.638-5.528-11.754-3.149   c-4.115,2.376-5.527,7.639-3.151,11.754L210.407,119.084z"/>
	<path style="fill:#231F20;" d="M388.374,392.914c-2.377-4.114-7.637-5.526-11.756-3.151c-4.115,2.377-5.527,7.64-3.15,11.756   l20.47,35.457c1.594,2.76,4.486,4.304,7.462,4.304c1.459,0,2.939-0.372,4.294-1.153c4.115-2.377,5.527-7.64,3.151-11.756   L388.374,392.914z"/>
	<path style="fill:#231F20;" d="M118.416,161.45l35.453,20.468c1.355,0.783,2.834,1.154,4.294,1.154   c2.974,0,5.866-1.544,7.461-4.304c2.377-4.115,0.966-9.378-3.149-11.754l-35.453-20.468c-4.115-2.376-9.378-0.966-11.754,3.149   C112.89,153.811,114.301,159.074,118.416,161.45z"/>
	<path style="fill:#231F20;" d="M480.367,350.549l-35.456-20.468c-4.118-2.373-9.378-0.966-11.756,3.15   c-2.376,4.116-0.965,9.38,3.151,11.756l35.456,20.468c1.356,0.782,2.834,1.153,4.294,1.153c2.974,0,5.866-1.544,7.462-4.304   C485.893,358.188,484.482,352.925,480.367,350.549z"/>
	<path style="fill:#231F20;" d="M144.93,256c0-4.752-3.853-8.605-8.605-8.605H95.387c-4.752,0-8.605,3.853-8.605,8.605   c0,4.752,3.853,8.605,8.605,8.605h40.94C141.078,264.605,144.93,260.752,144.93,256z"/>
	<path style="fill:#231F20;" d="M503.395,247.395h-40.94c-4.752,0-8.605,3.853-8.605,8.605c0,4.752,3.853,8.605,8.605,8.605h40.94   c4.752,0,8.605-3.853,8.605-8.605C512,251.248,508.147,247.395,503.395,247.395z"/>
	<path style="fill:#231F20;" d="M153.869,330.082l-35.453,20.468c-4.115,2.376-5.527,7.639-3.149,11.754   c1.593,2.76,4.485,4.304,7.461,4.304c1.459,0,2.939-0.372,4.294-1.154l35.453-20.468c4.115-2.376,5.527-7.639,3.149-11.755   C163.248,329.117,157.986,327.704,153.869,330.082z"/>
	<path style="fill:#231F20;" d="M440.617,183.072c1.459,0,2.939-0.372,4.294-1.153l35.456-20.468   c4.115-2.376,5.527-7.639,3.151-11.756c-2.376-4.114-7.638-5.527-11.756-3.151l-35.456,20.468   c-4.115,2.376-5.527,7.639-3.151,11.756C434.75,181.53,437.642,183.072,440.617,183.072z"/>
	<path style="fill:#231F20;" d="M222.16,389.763c-4.114-2.373-9.378-0.965-11.756,3.151l-20.469,35.457   c-2.376,4.115-0.965,9.379,3.151,11.756c1.355,0.782,2.834,1.153,4.294,1.153c2.974,0,5.866-1.544,7.462-4.304l20.469-35.457   C227.686,397.403,226.275,392.139,222.16,389.763z"/>
	<path style="fill:#231F20;" d="M376.619,122.234c1.355,0.783,2.834,1.154,4.294,1.154c2.974,0,5.866-1.544,7.461-4.304   l20.47-35.455c2.377-4.115,0.966-9.378-3.149-11.754c-4.114-2.376-9.378-0.966-11.755,3.149l-20.47,35.455   C371.092,114.594,372.504,119.857,376.619,122.234z"/>
	<path style="fill:#231F20;" d="M432.365,301.299c0.279-0.822,0.545-1.646,0.806-2.462l0.096-0.292   c0.078-0.239,0.157-0.477,0.22-0.684c0.36-1.153,0.705-2.31,1.049-3.521l0.209-0.772c0.247-0.901,0.494-1.803,0.727-2.713   c0.079-0.311,0.155-0.624,0.23-0.936l0.091-0.379c0.182-0.74,0.362-1.487,0.54-2.258c0.075-0.336,0.147-0.67,0.219-1.006   l0.112-0.518c0.151-0.694,0.299-1.384,0.43-2.051c0.089-0.442,0.173-0.886,0.257-1.332l0.042-0.223   c0.13-0.695,0.258-1.391,0.381-2.096c0.089-0.517,0.174-1.036,0.265-1.59c0.11-0.686,0.215-1.375,0.322-2.097   c0.074-0.52,0.147-1.039,0.22-1.581c0.094-0.698,0.18-1.4,0.274-2.189l0.173-1.521c0.076-0.724,0.145-1.45,0.209-2.146   c0.049-0.521,0.096-1.04,0.142-1.591c0.061-0.756,0.111-1.519,0.157-2.279l0.029-0.436c0.023-0.343,0.045-0.688,0.065-1.043   c0.045-0.839,0.075-1.682,0.106-2.532l0.017-0.415c0.011-0.277,0.023-0.556,0.029-0.827c0.034-1.266,0.054-2.535,0.054-3.81   c0-13.061-1.793-25.995-5.33-38.442c-8.347-29.391-26.486-55.705-51.078-74.096c-24.411-18.257-53.471-27.905-84.036-27.905   c-28.688,0-56.049,8.503-79.487,24.643c-23.433-16.137-50.765-24.643-79.46-24.643C63.003,115.557,0,178.559,0,256   c0,11.764,1.462,23.192,4.199,34.119c0.015,0.066,0.017,0.132,0.033,0.198c8.751,34.842,30.321,64.724,60.738,84.142   c0.245,0.157,0.503,0.282,0.76,0.412c21.654,13.658,47.275,21.576,74.713,21.576c28.709,0,56.054-8.516,79.496-24.671   c2.523,1.734,5.086,3.413,7.713,4.977c0.12,0.081,0.245,0.157,0.369,0.231c0.147,0.087,0.296,0.171,0.534,0.303   c0.94,0.552,1.892,1.092,2.863,1.632l0.746,0.417c1.203,0.657,2.414,1.295,3.587,1.89c0.232,0.12,0.469,0.238,0.705,0.353   l0.188,0.092c0.963,0.483,1.932,0.954,2.902,1.412l1.137,0.532c1.033,0.474,2.072,0.937,3.114,1.385l0.683,0.299   c1.27,0.542,2.552,1.062,3.872,1.576l0.932,0.355c0.997,0.381,1.999,0.75,2.969,1.095c0.403,0.146,0.808,0.288,1.207,0.426   c1.123,0.388,2.252,0.764,3.34,1.108l0.651,0.212c1.322,0.413,2.654,0.802,4.043,1.193l1.034,0.28   c1.025,0.278,2.053,0.545,3.07,0.796l1.24,0.303c1.21,0.286,2.427,0.56,3.608,0.807l0.537,0.117   c1.371,0.28,2.755,0.538,4.119,0.776c0.295,0.053,0.592,0.101,0.886,0.15l0.296,0.048c1.051,0.174,2.105,0.337,3.174,0.489   l1.248,0.173c1.326,0.177,2.658,0.338,3.983,0.475l0.285,0.032c1.423,0.145,2.854,0.262,4.296,0.367l1.223,0.077   c1.085,0.068,2.174,0.124,3.276,0.166l0.389,0.016c0.298,0.013,0.597,0.025,0.858,0.031c1.453,0.045,2.909,0.075,4.374,0.075   c1.462,0,2.92-0.03,4.336-0.074c0.299-0.008,0.6-0.02,0.899-0.032l0.395-0.016c1.093-0.042,2.179-0.098,3.281-0.167l1.217-0.077   c1.434-0.103,2.863-0.22,4.31-0.369l0.251-0.028c1.338-0.139,2.669-0.299,3.988-0.476c0.421-0.056,0.837-0.114,1.264-0.175   c1.061-0.152,2.116-0.313,3.161-0.487l0.299-0.048c0.295-0.048,0.592-0.097,0.865-0.145c1.385-0.242,2.767-0.5,4.206-0.793   l0.432-0.096c1.221-0.255,2.437-0.529,3.686-0.825l1.19-0.292c1.032-0.255,2.062-0.523,3.074-0.798l1.092-0.295   c1.338-0.376,2.67-0.766,4.028-1.19l0.57-0.186c1.135-0.359,2.262-0.735,3.372-1.119c0.409-0.141,0.814-0.284,1.18-0.416   c1.009-0.359,2.01-0.729,2.998-1.106l0.972-0.37c1.289-0.502,2.572-1.022,3.841-1.564l0.677-0.296   c1.049-0.451,2.089-0.915,3.137-1.397c0.378-0.174,0.754-0.351,1.115-0.522c0.975-0.46,1.943-0.93,2.858-1.39l0.209-0.103   c0.237-0.116,0.472-0.233,0.688-0.342c1.222-0.621,2.435-1.26,3.628-1.912l0.77-0.428c0.952-0.529,1.9-1.067,2.839-1.617   c0.018-0.011,0.088-0.049,0.108-0.061c0.152-0.085,0.303-0.17,0.453-0.259c0.114-0.068,0.227-0.139,0.338-0.212   c6.984-4.156,13.637-8.94,19.78-14.22c0.114-0.092,0.227-0.188,0.337-0.287c0.885-0.766,1.763-1.545,2.629-2.331   c0.038-0.034,0.075-0.069,0.112-0.104c0.838-0.764,1.663-1.536,2.447-2.288c0.177-0.168,0.352-0.338,0.525-0.51l0.234-0.229   c0.01-0.01,0.097-0.094,0.108-0.103c0.568-0.555,1.138-1.108,1.682-1.659c0.211-0.211,0.418-0.425,0.625-0.638l0.302-0.312   c0.515-0.528,1.03-1.058,1.559-1.617c0.327-0.346,0.65-0.695,0.945-1.016c0.485-0.522,0.968-1.049,1.434-1.567   c0.335-0.37,0.663-0.742,0.983-1.106c0.459-0.521,0.913-1.046,1.356-1.562c0.328-0.382,0.652-0.768,0.971-1.149   c0.44-0.525,0.878-1.059,1.319-1.602l0.11-0.133c0.279-0.343,0.557-0.687,0.843-1.048c0.428-0.542,0.854-1.089,1.267-1.624   l0.101-0.131c0.266-0.343,0.53-0.686,0.805-1.049c0.412-0.549,0.819-1.103,1.223-1.656c0.005-0.006,0.059-0.08,0.065-0.087   l0.274-0.375c0.18-0.245,0.359-0.489,0.532-0.731c0.457-0.638,0.902-1.282,1.332-1.906l0.191-0.274   c0.18-0.256,0.358-0.512,0.509-0.736c0.575-0.848,1.14-1.705,1.681-2.542l0.292-0.443c0.636-0.995,1.261-1.996,1.893-3.039   l0.529-0.897c0.428-0.715,0.852-1.428,1.249-2.125c0.17-0.295,0.336-0.593,0.499-0.891l0.222-0.398   c0.342-0.613,0.686-1.228,1.018-1.846c0.196-0.36,0.386-0.726,0.577-1.091l0.126-0.241c0.323-0.613,0.644-1.227,0.962-1.854   c0.184-0.366,0.366-0.733,0.546-1.099l0.131-0.264c0.004-0.01,0.049-0.103,0.054-0.112c0.287-0.584,0.572-1.169,0.844-1.745   c0.224-0.472,0.445-0.947,0.661-1.417c0.284-0.614,0.561-1.233,0.838-1.858c0.211-0.475,0.42-0.952,0.624-1.427   c0.234-0.543,0.464-1.092,0.693-1.639l0.693-1.692c0.257-0.643,0.506-1.286,0.773-1.988l0.529-1.393   c0.253-0.685,0.495-1.373,0.743-2.084l0.118-0.332C432.131,301.966,432.25,301.636,432.365,301.299z M68.953,356.323   c-21.74-15.538-38.239-37.956-46.291-64.045c5.417-2.632,11.363-4.003,17.481-4.003c22.124,0,40.123,18,40.123,40.124   C80.266,338.988,76.203,348.883,68.953,356.323z M140.444,379.235c-20.378,0-39.613-4.977-56.563-13.771   c8.736-10.248,13.595-23.235,13.595-37.067c0-31.615-25.719-57.334-57.333-57.334c-7.423,0-14.671,1.421-21.432,4.152   c-0.984-6.262-1.501-12.678-1.501-19.214c0-67.951,55.283-123.233,123.234-123.233c23.368,0,45.707,6.418,65.232,18.657   c-0.204,0.184-0.4,0.376-0.603,0.561c-3.187,2.898-6.233,5.939-9.136,9.11c-0.311,0.34-0.628,0.673-0.936,1.015   c-0.784,0.873-1.548,1.762-2.31,2.655c-0.386,0.452-0.774,0.902-1.154,1.36c-0.72,0.865-1.426,1.739-2.125,2.621   c-0.398,0.502-0.793,1.006-1.183,1.512c-0.673,0.873-1.34,1.752-1.993,2.641c-0.388,0.528-0.768,1.063-1.149,1.596   c-0.638,0.893-1.275,1.787-1.891,2.694c-0.359,0.529-0.706,1.068-1.057,1.603c-0.616,0.934-1.237,1.864-1.831,2.812   c-0.074,0.117-0.142,0.239-0.215,0.357c-1.289,2.072-2.513,4.181-3.693,6.315c-0.401,0.725-0.809,1.446-1.197,2.177   c-0.419,0.791-0.819,1.592-1.222,2.391c-0.408,0.806-0.815,1.61-1.207,2.422c-0.372,0.772-0.731,1.55-1.089,2.329   c-0.398,0.866-0.79,1.734-1.169,2.608c-0.325,0.748-0.645,1.497-0.957,2.25c-0.392,0.943-0.768,1.893-1.139,2.846   c-0.272,0.701-0.548,1.4-0.809,2.105c-0.402,1.085-0.781,2.178-1.155,3.273c-0.201,0.588-0.413,1.174-0.606,1.765   c-0.554,1.695-1.082,3.399-1.569,5.115c-3.537,12.448-5.33,25.383-5.33,38.443c0,1.275,0.019,2.544,0.053,3.781   c0.004,0.151,0.011,0.301,0.016,0.451c0.005,0.142,0.01,0.284,0.015,0.426l0.016,0.402c0.03,0.841,0.061,1.684,0.106,2.534   c0.023,0.399,0.048,0.799,0.074,1.198l0.016,0.238l0.003,0.043c0.049,0.758,0.099,1.517,0.159,2.279   c0.035,0.446,0.076,0.888,0.117,1.333l0.018,0.193c0.066,0.736,0.136,1.469,0.214,2.205c0.046,0.438,0.098,0.874,0.148,1.311   l0.032,0.28c0.084,0.707,0.171,1.412,0.268,2.136c0.071,0.528,0.146,1.053,0.223,1.584c0.102,0.695,0.209,1.394,0.322,2.092   c0,0.002,0.001,0.005,0.001,0.009c0,0.001,0,0.002,0.001,0.004c0.084,0.526,0.169,1.052,0.259,1.568   c0.12,0.7,0.248,1.402,0.39,2.148c0.094,0.493,0.187,0.986,0.28,1.45c0.1,0.51,0.209,1.025,0.323,1.559   c0.044,0.203,0.085,0.401,0.131,0.615l0.088,0.411c0.075,0.351,0.152,0.701,0.23,1.05c0.173,0.757,0.358,1.513,0.54,2.249   l0.105,0.438c0.068,0.284,0.137,0.567,0.214,0.874c0.232,0.91,0.478,1.814,0.727,2.71l0.063,0.234   c0.054,0.201,0.108,0.402,0.157,0.572c0.33,1.167,0.676,2.324,1.035,3.478c0.07,0.225,0.143,0.449,0.216,0.671l0.098,0.298   c0.267,0.835,0.535,1.667,0.812,2.478c0.106,0.309,0.215,0.617,0.325,0.924l0.202,0.571c0.225,0.64,0.451,1.278,0.682,1.905   c0.14,0.38,0.285,0.757,0.429,1.136l0.058,0.151l0.051,0.131c0.251,0.655,0.502,1.309,0.77,1.98   c0.195,0.483,0.392,0.964,0.579,1.412c0.265,0.643,0.531,1.285,0.795,1.895c0.19,0.443,0.385,0.885,0.581,1.328l0.057,0.13   c0.275,0.616,0.551,1.233,0.829,1.836c0.218,0.474,0.441,0.95,0.67,1.433c0.289,0.609,0.583,1.214,0.899,1.86l0.13,0.262   c0.183,0.369,0.366,0.737,0.549,1.097c0.312,0.617,0.631,1.232,0.959,1.857l0.17,0.322c0.174,0.335,0.35,0.668,0.526,0.996   c0.344,0.639,0.697,1.274,1.052,1.906l0.12,0.216l0.057,0.103c0.169,0.304,0.338,0.609,0.496,0.882   c0.411,0.722,0.833,1.433,1.246,2.124l0.163,0.279c0.134,0.23,0.269,0.459,0.404,0.682c0.615,1.012,1.24,2.019,1.908,3.061   l0.238,0.358c0.553,0.858,1.115,1.713,1.705,2.584l0.77,1.11c0.414,0.598,0.827,1.194,1.252,1.789   c0.101,0.141,0.204,0.28,0.307,0.421c0.109,0.15,0.216,0.299,0.326,0.447l0.085,0.116l0.096,0.131   c0.429,0.589,0.863,1.181,1.279,1.731c0.276,0.367,0.557,0.731,0.839,1.097l0.153,0.197c0.397,0.513,0.794,1.026,1.196,1.533   c0.318,0.4,0.638,0.795,0.941,1.166c0.436,0.537,0.874,1.075,1.304,1.585c0.324,0.387,0.65,0.773,0.977,1.157   c0.456,0.532,0.915,1.061,1.348,1.549c0.335,0.381,0.67,0.763,0.983,1.108c0.479,0.535,0.965,1.062,1.413,1.546   c0.333,0.364,0.667,0.723,0.994,1.068c0.514,0.544,1.036,1.083,1.55,1.608l0.269,0.277c0.214,0.222,0.428,0.442,0.65,0.665   c0.551,0.555,1.11,1.1,1.669,1.646l0.847,0.823c0.831,0.797,1.675,1.585,2.527,2.361c0.023,0.021,0.047,0.043,0.07,0.065   c0.246,0.225,0.495,0.447,0.742,0.67C186.137,372.819,163.803,379.235,140.444,379.235z M422.577,259.344l-0.042,1.099   c-0.026,0.742-0.053,1.485-0.091,2.216l-0.084,1.317c-0.042,0.667-0.085,1.333-0.136,1.966c-0.038,0.46-0.08,0.916-0.125,1.405   c-0.058,0.637-0.117,1.272-0.183,1.884l-0.16,1.404c-0.074,0.627-0.153,1.253-0.232,1.858l-0.196,1.403   c-0.092,0.622-0.188,1.248-0.282,1.833c-0.076,0.471-0.154,0.943-0.233,1.406c-0.107,0.614-0.219,1.227-0.333,1.832l-0.042,0.222   c-0.071,0.376-0.142,0.752-0.224,1.157c-0.117,0.597-0.246,1.188-0.386,1.839l-0.279,1.283c-0.153,0.667-0.316,1.333-0.475,1.99   l-0.279,1.14c-0.205,0.801-0.423,1.597-0.642,2.393l-0.187,0.694c-0.292,1.022-0.592,2.036-0.918,3.078l-0.273,0.835   c-0.231,0.726-0.465,1.45-0.707,2.164c-0.084,0.246-0.172,0.492-0.26,0.738l-0.161,0.454c-0.21,0.601-0.421,1.198-0.63,1.769   l-0.49,1.288c-0.215,0.563-0.429,1.124-0.65,1.675l-0.607,1.482c-0.201,0.482-0.402,0.965-0.608,1.445   c-0.184,0.426-0.369,0.849-0.556,1.272c-0.242,0.544-0.486,1.087-0.737,1.632c-0.191,0.415-0.385,0.829-0.588,1.256   c-0.242,0.513-0.492,1.021-0.77,1.59l-0.606,1.222c-0.276,0.544-0.56,1.084-0.844,1.629l-0.134,0.256   c-0.157,0.298-0.312,0.598-0.472,0.895c-0.294,0.546-0.598,1.089-0.93,1.686l-0.22,0.397c-0.118,0.213-0.237,0.427-0.375,0.669   c-0.354,0.62-0.717,1.233-1.091,1.854l-0.486,0.825c-0.543,0.895-1.097,1.783-1.623,2.607l-0.269,0.409   c-0.484,0.749-0.975,1.495-1.502,2.269c-0.114,0.17-0.232,0.338-0.351,0.508l-0.246,0.355c-0.383,0.557-0.768,1.113-1.165,1.668   l-0.77,1.053c-0.359,0.492-0.72,0.984-1.072,1.453c-0.226,0.299-0.455,0.596-0.685,0.893l-0.111,0.144   c-0.374,0.485-0.753,0.972-1.125,1.442c-0.236,0.297-0.474,0.592-0.714,0.885l-0.105,0.129c-0.382,0.47-0.766,0.939-1.158,1.409   c-0.279,0.332-0.557,0.663-0.846,1c-0.395,0.464-0.794,0.922-1.205,1.389c-0.281,0.319-0.56,0.638-0.856,0.965   c-0.414,0.46-0.831,0.915-1.28,1.398c-0.28,0.303-0.559,0.605-0.819,0.88c-0.453,0.477-0.913,0.951-1.36,1.41l-0.821,0.84   c-0.488,0.492-0.986,0.977-1.532,1.507l-0.684,0.665c-0.743,0.713-1.495,1.416-2.258,2.109c-0.032,0.029-0.067,0.06-0.099,0.091   c-0.727,0.658-1.462,1.31-2.203,1.95c-0.052,0.043-0.103,0.086-0.154,0.129c-5.505,4.749-11.48,9.042-17.76,12.76   c-0.085,0.051-0.17,0.103-0.254,0.157c-0.115,0.066-0.224,0.127-0.297,0.171c-0.831,0.486-1.673,0.964-2.483,1.413l-0.695,0.387   c-1.047,0.573-2.104,1.128-3.189,1.681l-0.744,0.368c-0.841,0.423-1.689,0.834-2.556,1.243l-0.966,0.452   c-0.897,0.414-1.801,0.818-2.736,1.219l-0.613,0.27c-1.104,0.471-2.219,0.921-3.318,1.351l-0.876,0.332   c-0.872,0.335-1.748,0.657-2.67,0.985c-0.327,0.117-0.653,0.233-0.995,0.351c-0.976,0.338-1.954,0.664-2.96,0.982l-0.526,0.172   c-1.167,0.365-2.342,0.708-3.465,1.023l-0.983,0.266c-0.899,0.244-1.804,0.48-2.707,0.702l-1.071,0.261   c-1.062,0.252-2.13,0.493-3.23,0.723l-0.388,0.086c-1.213,0.247-2.435,0.474-3.683,0.694l-0.992,0.164   c-0.925,0.154-1.857,0.296-2.782,0.428l-1.109,0.155c-1.155,0.155-2.314,0.296-3.515,0.421l-0.22,0.025   c-1.251,0.128-2.508,0.231-3.765,0.322l-1.093,0.068c-0.942,0.06-1.884,0.11-2.825,0.145l-1.141,0.043   c-1.277,0.039-2.558,0.068-3.843,0.068h-0.001c-1.288,0-2.568-0.028-3.881-0.068l-1.096-0.042   c-0.947-0.035-1.892-0.085-2.816-0.144l-1.104-0.069c-1.262-0.09-2.52-0.194-3.749-0.319l-0.276-0.031   c-1.166-0.119-2.326-0.261-3.484-0.416l-1.095-0.153c-0.935-0.134-1.865-0.278-2.798-0.43l-1.009-0.168   c-1.225-0.214-2.447-0.441-3.594-0.676l-0.486-0.106c-1.072-0.224-2.137-0.465-3.164-0.708l-1.104-0.27   c-0.91-0.224-1.812-0.46-2.713-0.703l-0.921-0.247c-1.181-0.332-2.353-0.676-3.498-1.033l-0.568-0.186   c-0.986-0.312-1.966-0.638-2.947-0.977c-0.33-0.114-0.659-0.231-1.026-0.364c-0.882-0.314-1.761-0.638-2.644-0.975l-0.844-0.322   c-1.121-0.437-2.235-0.887-3.326-1.353l-0.644-0.283c-0.914-0.393-1.822-0.798-2.701-1.201l-1.002-0.47   c-0.852-0.401-1.697-0.812-2.572-1.251l-0.736-0.365c-1.066-0.542-2.124-1.098-3.16-1.665l-0.67-0.375   c-0.84-0.467-1.677-0.941-2.495-1.421l-0.289-0.164c-0.092-0.06-0.185-0.116-0.28-0.172c-3.997-2.366-7.85-4.988-11.554-7.788   c-0.004-0.003-0.008-0.008-0.013-0.011c-1.041-0.787-1.982-1.519-2.872-2.224c-1.112-0.894-2.222-1.792-3.299-2.721   c-0.004-0.004-0.01-0.009-0.014-0.012c-0.043-0.037-0.087-0.074-0.132-0.112c-0.763-0.657-1.518-1.326-2.263-2.004   c-0.022-0.019-0.041-0.038-0.061-0.057c-0.38-0.345-0.759-0.71-1.138-1.063c-0.381-0.356-0.759-0.7-1.146-1.071l-0.716-0.697   c-0.497-0.484-0.994-0.968-1.478-1.455l-0.819-0.84c-0.453-0.462-0.904-0.926-1.357-1.408c-0.273-0.288-0.542-0.578-0.849-0.912   c-0.418-0.45-0.835-0.904-1.274-1.392c-0.279-0.308-0.552-0.618-0.858-0.967c-0.399-0.451-0.793-0.905-1.183-1.361   c-0.281-0.328-0.56-0.658-0.852-1.009c-0.384-0.459-0.767-0.925-1.166-1.418c-0.271-0.331-0.54-0.663-0.809-1.001   c-0.358-0.451-0.709-0.905-1.059-1.359l-0.152-0.197c-0.231-0.298-0.461-0.596-0.712-0.929c-0.374-0.494-0.74-0.995-1.12-1.517   l-0.214-0.291c-0.169-0.229-0.337-0.458-0.5-0.686c-0.372-0.518-0.735-1.044-1.098-1.569l-0.686-0.987   c-0.501-0.74-0.993-1.489-1.495-2.266l-0.226-0.341c-0.564-0.878-1.113-1.763-1.656-2.658l-0.485-0.822   c-0.367-0.615-0.732-1.231-1.105-1.882c-0.128-0.224-0.253-0.449-0.378-0.673l-0.201-0.361c-0.313-0.56-0.626-1.122-0.933-1.689   c-0.146-0.271-0.289-0.545-0.432-0.82l-0.176-0.335c-0.283-0.541-0.564-1.081-0.842-1.631l-0.594-1.19   c-0.267-0.544-0.531-1.091-0.787-1.629c-0.197-0.414-0.389-0.828-0.584-1.25c-0.232-0.504-0.459-1.009-0.674-1.494   c-0.025-0.055-0.047-0.105-0.072-0.161l-0.023-0.053c-0.172-0.39-0.344-0.782-0.525-1.201c-0.234-0.542-0.461-1.09-0.699-1.67   c-0.173-0.414-0.343-0.828-0.502-1.224c-0.23-0.575-0.452-1.153-0.673-1.733l-0.114-0.298c-0.117-0.305-0.236-0.61-0.351-0.925   c-0.203-0.553-0.399-1.107-0.596-1.663l-0.471-1.338c-0.244-0.712-0.473-1.428-0.707-2.161l-0.276-0.849   c-0.315-1.009-0.616-2.024-0.915-3.074l-0.184-0.68c-0.219-0.793-0.436-1.587-0.634-2.359l-0.287-1.183   c-0.16-0.65-0.323-1.306-0.471-1.964c-0.065-0.281-0.124-0.56-0.184-0.84l-0.043-0.198l-0.068-0.313   c-0.127-0.588-0.254-1.176-0.376-1.793c-0.047-0.24-0.095-0.485-0.143-0.737c-0.039-0.205-0.079-0.414-0.119-0.633   c-0.115-0.608-0.227-1.218-0.335-1.837c-0.081-0.459-0.155-0.919-0.228-1.374c-0.099-0.612-0.194-1.229-0.282-1.836   c-0.069-0.472-0.136-0.947-0.198-1.403c-0.083-0.618-0.159-1.239-0.231-1.841l-0.16-1.417c-0.068-0.625-0.127-1.252-0.186-1.918   l-0.022-0.23c-0.036-0.381-0.07-0.76-0.101-1.134c-0.054-0.666-0.097-1.336-0.141-2.018l-0.003-0.051l-0.016-0.26   c-0.023-0.328-0.044-0.655-0.062-0.971c-0.039-0.74-0.066-1.483-0.091-2.218l-0.042-1.115c-0.03-1.108-0.047-2.22-0.047-3.338   c0-11.469,1.573-22.822,4.675-33.74c0.454-1.599,0.942-3.188,1.462-4.766c0.419-1.271,0.874-2.531,1.335-3.787   c0.11-0.298,0.205-0.601,0.317-0.898c8.161-21.711,22.53-41.031,41.171-55.135c0.016-0.012,0.029-0.026,0.044-0.038   c0.169-0.128,0.331-0.265,0.502-0.392c21.414-16.013,46.908-24.477,73.729-24.477c26.82,0,52.314,8.464,73.728,24.477   c21.587,16.145,37.508,39.235,44.831,65.016c3.102,10.918,4.675,22.27,4.675,33.739   C422.625,257.117,422.609,258.229,422.577,259.344z"/>
	<path style="fill:#231F20;" d="M98.798,207.43c0-13.273-10.798-24.072-24.07-24.072c-13.273,0-24.072,10.798-24.072,24.072   c0,13.272,10.798,24.07,24.072,24.07C87.999,231.5,98.798,220.702,98.798,207.43z M74.727,214.29c-3.784,0-6.861-3.077-6.861-6.86   c0-3.784,3.077-6.861,6.861-6.861c3.783,0,6.86,3.077,6.86,6.861C81.588,211.212,78.509,214.29,74.727,214.29z"/>
	<path style="fill:#231F20;" d="M407.465,251.351c-0.054-1.229-0.117-2.45-0.211-3.669c-0.094-1.22-0.212-2.429-0.347-3.666   l-0.101-0.879c-0.283-2.379-0.65-4.789-1.087-7.122c-0.06-0.329-0.122-0.654-0.175-0.919c-0.454-2.318-0.996-4.669-1.618-7.015   l-0.226-0.828c-0.63-2.287-1.34-4.573-2.1-6.757c-0.098-0.285-0.2-0.569-0.3-0.853c-0.793-2.22-1.666-4.433-2.572-6.522   c-0.117-0.277-0.24-0.555-0.361-0.83c-0.941-2.128-1.967-4.255-3.036-6.304l-0.407-0.77c-1.082-2.033-2.255-4.072-3.518-6.117   l-0.415-0.66c-5.159-8.193-11.39-15.661-18.522-22.2c-0.069-0.067-0.139-0.13-0.21-0.195c-0.022-0.02-0.044-0.04-0.059-0.054   l-1.021-0.91c-0.268-0.24-0.536-0.479-0.818-0.724c-0.325-0.283-0.651-0.558-0.927-0.79l-0.091-0.077   c-0.295-0.253-0.592-0.507-0.907-0.769c-0.256-0.211-0.513-0.419-0.77-0.627l-0.451-0.366c-0.246-0.201-0.494-0.4-0.716-0.575   c-0.331-0.262-0.666-0.521-1.015-0.791c-0.329-0.254-0.658-0.509-0.977-0.748c-0.294-0.223-0.588-0.441-0.884-0.659l-0.414-0.304   c-0.252-0.185-0.504-0.37-0.739-0.538c-0.365-0.262-0.733-0.521-1.024-0.723c-0.353-0.25-0.709-0.497-1.037-0.721   c-0.362-0.248-0.727-0.493-1.07-0.722c-0.346-0.232-0.695-0.461-1.063-0.7l-0.128-0.083c-0.318-0.207-0.638-0.413-0.918-0.589   c-0.363-0.23-0.726-0.456-1.071-0.668c-0.369-0.228-0.738-0.457-1.136-0.695l-2.172-1.271c-0.379-0.213-0.756-0.426-1.092-0.608   l-1.116-0.615c-0.383-0.205-0.77-0.408-1.197-0.629c-0.347-0.184-0.695-0.367-1.029-0.537c-0.355-0.181-0.714-0.358-1.072-0.535   l-0.099-0.048c-0.366-0.182-0.729-0.363-1.141-0.561l-1.495-0.698c-0.27-0.127-0.541-0.253-0.826-0.381   c-0.453-0.202-0.907-0.398-1.363-0.596l-0.354-0.154c-0.3-0.13-0.6-0.259-0.925-0.396c-0.663-0.275-1.324-0.549-2.019-0.825   c-0.251-0.099-0.504-0.195-0.757-0.29l-0.51-0.195c-0.371-0.143-0.741-0.286-1.117-0.424c-0.312-0.115-0.628-0.226-0.942-0.337   l-0.498-0.176c-0.327-0.116-0.652-0.232-1.003-0.352l-2.398-0.786c-0.037-0.012-0.073-0.023-0.112-0.034l-1.08-0.327   c-0.44-0.133-0.882-0.267-1.359-0.404l-1.166-0.326c-0.438-0.119-0.879-0.24-1.286-0.346c-0.407-0.109-0.813-0.211-1.219-0.312   c-0.447-0.112-0.897-0.222-1.371-0.335l-1.16-0.266c-0.452-0.102-0.905-0.2-1.374-0.299c-0.401-0.084-0.8-0.166-1.225-0.25   c-0.444-0.087-0.893-0.173-1.353-0.259c-0.402-0.073-0.805-0.146-1.219-0.217c-0.456-0.079-0.913-0.154-1.367-0.227   c-0.408-0.067-0.815-0.13-1.233-0.193c-0.471-0.069-0.945-0.134-1.367-0.19c-0.424-0.06-0.848-0.116-1.233-0.162   c-0.495-0.062-0.992-0.116-1.467-0.168l-1.193-0.129c-0.402-0.04-0.805-0.073-1.208-0.109l-1.431-0.118   c-0.529-0.04-1.063-0.071-1.596-0.102l-0.317-0.02c-0.255-0.017-0.512-0.032-0.799-0.047c-0.587-0.027-1.182-0.048-1.78-0.067   l-0.879-0.03c-1.74-0.046-3.621-0.047-5.402-0.001c-0.211,0.005-0.423,0.013-0.632,0.022l-0.282,0.011   c-0.594,0.018-1.184,0.039-1.81,0.068l-1.062,0.066c-0.539,0.03-1.079,0.063-1.605,0.102l-1.471,0.122   c-0.394,0.033-0.788,0.068-1.203,0.109l-1.144,0.125c-0.497,0.054-0.991,0.109-1.455,0.166c-0.422,0.051-0.84,0.108-1.213,0.159   c-0.473,0.063-0.944,0.127-1.425,0.198c-0.413,0.061-0.823,0.126-1.225,0.193c-0.457,0.073-0.912,0.148-1.387,0.229   c-0.402,0.07-0.805,0.142-1.213,0.217c-0.447,0.084-0.894,0.17-1.365,0.261c-0.407,0.081-0.813,0.163-1.213,0.248   c-0.456,0.096-0.91,0.195-1.362,0.296l-1.183,0.271c-0.452,0.106-0.9,0.217-1.343,0.328c-0.411,0.102-0.822,0.205-1.186,0.302   c-0.442,0.115-0.882,0.236-1.395,0.376l-1.147,0.321c-0.443,0.129-0.886,0.261-1.299,0.387l-3.602,1.152   c-0.351,0.118-0.697,0.243-1.046,0.368l-0.452,0.159c-0.314,0.111-0.63,0.221-0.944,0.337c-0.385,0.143-0.768,0.29-1.151,0.438   l-0.446,0.17c-0.265,0.1-0.53,0.2-0.813,0.311c-0.668,0.266-1.335,0.54-2.006,0.82c-0.308,0.129-0.614,0.261-0.921,0.395   l-0.374,0.161c-0.453,0.196-0.904,0.389-1.323,0.58c-0.281,0.125-0.557,0.254-0.833,0.384l-0.662,0.308   c-0.28,0.129-0.557,0.257-0.868,0.407l-1.072,0.528c-0.389,0.191-0.781,0.384-1.217,0.605l-1.178,0.615   c-0.341,0.179-0.685,0.357-1.067,0.563c-0.367,0.199-0.731,0.401-1.042,0.574c-0.389,0.212-0.781,0.429-1.152,0.643l-1.099,0.638   c-0.356,0.208-0.711,0.418-1.07,0.634c-0.38,0.226-0.755,0.459-1.091,0.667c-0.368,0.226-0.736,0.454-1.051,0.654   c-0.37,0.232-0.74,0.471-1.126,0.723c-0.344,0.225-0.689,0.453-1.01,0.667c-0.362,0.241-0.723,0.483-1.053,0.709   c-0.358,0.244-0.71,0.489-0.979,0.68c-0.378,0.259-0.749,0.524-1.113,0.785l-2.031,1.497c-0.289,0.217-0.574,0.438-0.861,0.657   l-0.114,0.088c-0.337,0.26-0.676,0.521-1.047,0.815l-1.155,0.931c-0.264,0.213-0.527,0.426-0.77,0.629   c-0.336,0.279-0.666,0.56-1.034,0.874c-0.3,0.254-0.602,0.509-0.887,0.758c-0.305,0.266-0.608,0.536-0.91,0.807l-0.044,0.039   c-0.3,0.266-0.6,0.531-0.879,0.783c-0.02,0.018-0.072,0.066-0.093,0.083c-0.049,0.045-0.1,0.091-0.15,0.139   c-7.15,6.551-13.393,14.029-18.529,22.189l-0.473,0.754c-1.228,1.987-2.401,4.027-3.503,6.096l-0.376,0.714   c-1.084,2.073-2.11,4.204-3.05,6.331c-0.122,0.275-0.244,0.553-0.339,0.778c-0.93,2.148-1.803,4.361-2.571,6.514   c-0.112,0.304-0.218,0.609-0.313,0.883c-0.776,2.233-1.485,4.517-2.103,6.764c-0.082,0.294-0.161,0.588-0.239,0.877   c-0.615,2.314-1.157,4.666-1.599,6.928c-0.065,0.315-0.124,0.63-0.181,0.937c-0.444,2.375-0.813,4.787-1.089,7.112   c-0.041,0.332-0.077,0.662-0.109,0.948c-0.134,1.214-0.254,2.431-0.346,3.642c-0.095,1.227-0.159,2.457-0.211,3.701l-0.037,0.923   c-0.04,1.229-0.068,2.461-0.068,3.701c0,3.687,0.188,7.405,0.559,11.05c0.184,1.811,0.415,3.63,0.686,5.414   c0.678,4.427,1.639,8.85,2.86,13.145c13.138,46.261,55.935,78.569,104.075,78.569c31.965,0,62.124-14.029,82.743-38.489   c3.063-3.633,2.601-9.062-1.033-12.125c-3.632-3.062-9.062-2.601-12.125,1.033c-17.342,20.573-42.706,32.372-69.586,32.372   c-40.483,0-76.473-27.165-87.519-66.062c-1.025-3.608-1.834-7.324-2.401-11.038c-0.228-1.497-0.423-3.03-0.578-4.559   c-0.312-3.07-0.471-6.203-0.471-9.31c0-1.053,0.026-2.101,0.059-3.137l0.031-0.781c0.043-1.03,0.096-2.057,0.176-3.097   c0.076-1.024,0.177-2.039,0.296-3.099c0.023-0.224,0.047-0.446,0.082-0.726c0.237-2,0.546-4.025,0.922-6.031   c0.042-0.224,0.083-0.446,0.141-0.731c0.381-1.95,0.837-3.925,1.356-5.877l0.191-0.703c0.525-1.908,1.122-3.829,1.784-5.736   c0.068-0.198,0.137-0.395,0.231-0.654c0.664-1.861,1.395-3.717,2.198-5.57l0.265-0.606c0.79-1.788,1.653-3.579,2.562-5.319   l0.331-0.627c0.913-1.713,1.901-3.43,2.919-5.079l0.389-0.62c4.366-6.937,9.649-13.258,15.704-18.79   c0.023-0.022,0.046-0.043,0.069-0.066c0.239-0.214,0.48-0.428,0.77-0.684l0.096-0.086c0.239-0.213,0.477-0.427,0.731-0.649   c0.227-0.199,0.457-0.393,0.687-0.586c0.014-0.012,0.105-0.089,0.118-0.101c0.265-0.226,0.528-0.453,0.815-0.691   c0.195-0.161,0.392-0.322,0.589-0.481l1.029-0.83c0.283-0.223,0.566-0.443,0.85-0.66l2.551-1.905   c0.273-0.198,0.546-0.39,0.908-0.641c0.268-0.189,0.534-0.376,0.833-0.579c0.293-0.202,0.588-0.398,0.905-0.609   c0.291-0.195,0.586-0.387,0.859-0.566c0.291-0.19,0.586-0.381,0.933-0.599c0.284-0.182,0.569-0.357,0.894-0.557   c0.292-0.182,0.584-0.363,0.872-0.536l1.875-1.098c0.288-0.163,0.58-0.327,0.924-0.515l2.801-1.494   c0.327-0.166,0.658-0.328,1.004-0.498l2.317-1.106c0.176-0.083,0.352-0.166,0.556-0.256c0.364-0.163,0.731-0.323,1.099-0.482   l1.107-0.475c0.574-0.24,1.151-0.478,1.711-0.699l1.13-0.43c0.3-0.116,0.6-0.232,0.899-0.343c0.22-0.081,0.444-0.158,0.666-0.237   l0.57-0.202c0.264-0.094,0.526-0.188,0.794-0.28l3.061-0.978c0.369-0.112,0.739-0.224,1.052-0.315l1.003-0.28   c0.376-0.102,0.751-0.204,1.176-0.316c0.315-0.084,0.631-0.162,0.954-0.243c0.376-0.095,0.751-0.187,1.103-0.27l1.048-0.24   c0.376-0.085,0.754-0.167,1.138-0.247c0.332-0.07,0.667-0.139,0.976-0.2l1.186-0.228c0.337-0.062,0.673-0.123,0.993-0.177   c0.402-0.069,0.805-0.136,1.215-0.202c0.327-0.054,0.654-0.105,0.975-0.153c0.403-0.06,0.807-0.114,1.262-0.175   c0.312-0.044,0.622-0.086,0.965-0.127c0.402-0.051,0.802-0.095,1.228-0.14l0.987-0.109c0.319-0.031,0.64-0.059,0.961-0.086   l1.294-0.108c0.438-0.033,0.877-0.058,1.336-0.085l0.878-0.055c0.501-0.023,1.004-0.04,1.5-0.056l0.805-0.028   c1.502-0.038,3.006-0.039,4.578,0.001l0.771,0.027c0.5,0.016,1.005,0.032,1.47,0.055l0.953,0.058   c0.431,0.025,0.866,0.051,1.308,0.084l1.255,0.104c0.332,0.028,0.661,0.056,0.964,0.085l1.033,0.113   c0.4,0.043,0.802,0.087,1.24,0.142c0.311,0.037,0.62,0.079,0.981,0.129c0.402,0.055,0.806,0.11,1.196,0.167   c0.331,0.048,0.663,0.102,0.999,0.156c0.401,0.066,0.801,0.131,1.192,0.198c0.338,0.059,0.676,0.119,1.001,0.18   c0.398,0.073,0.794,0.152,1.166,0.224c0.339,0.068,0.678,0.137,1.003,0.204c0.381,0.08,0.759,0.162,1.135,0.246l1.019,0.233   c0.38,0.089,0.757,0.183,1.137,0.278c0.318,0.08,0.639,0.159,0.993,0.253c0.379,0.099,0.754,0.202,1.067,0.288l1.025,0.286   c0.374,0.109,0.744,0.221,1.119,0.335l4.403,1.452c0.222,0.077,0.445,0.156,0.664,0.237c0.292,0.108,0.582,0.219,0.873,0.332   l1.139,0.433c0.583,0.231,1.161,0.471,1.717,0.701l1.087,0.468c0.386,0.168,0.772,0.335,1.142,0.499l2.998,1.426   c0.28,0.137,0.559,0.274,0.851,0.424c0.281,0.143,0.56,0.29,0.839,0.437c0.014,0.008,0.109,0.058,0.122,0.065   c0.314,0.163,0.627,0.326,0.909,0.477l1.005,0.554c0.301,0.165,0.602,0.333,0.874,0.488l1.854,1.086   c0.301,0.181,0.601,0.366,0.919,0.561c0.288,0.179,0.578,0.356,0.906,0.565c0.256,0.161,0.513,0.328,0.769,0.495l0.113,0.072   c0.29,0.189,0.58,0.381,0.89,0.587c0.292,0.194,0.583,0.388,0.9,0.606c0.27,0.184,0.538,0.37,0.88,0.612   c0.282,0.195,0.563,0.394,0.863,0.608l0.964,0.705c0.241,0.177,0.479,0.354,0.732,0.545c0.275,0.208,0.551,0.421,0.867,0.665   c0.267,0.205,0.534,0.411,0.824,0.641l1.624,1.315c0.24,0.2,0.475,0.401,0.712,0.605l0.145,0.123   c0.256,0.216,0.514,0.432,0.758,0.645l1.544,1.37c0.04,0.038,0.08,0.074,0.119,0.112c6.052,5.529,11.335,11.851,15.716,18.807   l0.36,0.572c1.037,1.68,2.024,3.398,2.919,5.078l0.344,0.652c0.911,1.745,1.774,3.538,2.568,5.328l0.285,0.655   c0.779,1.796,1.511,3.653,2.177,5.52l0.242,0.685c0.648,1.862,1.243,3.781,1.779,5.727l0.186,0.682   c0.517,1.951,0.973,3.928,1.367,5.937c0.043,0.212,0.084,0.425,0.129,0.677c0.374,1.997,0.684,4.026,0.924,6.049l0.084,0.732   c0.112,1.021,0.213,2.043,0.292,3.075c0.078,1.032,0.132,2.065,0.176,3.08l0.029,0.781c0.033,1.044,0.06,2.091,0.06,3.145   c0,3.115-0.157,6.247-0.47,9.311c-0.154,1.505-0.347,3.037-0.58,4.553c-0.567,3.714-1.375,7.43-2.4,11.043   c-0.954,3.355-2.115,6.691-3.452,9.916c-1.82,4.39,0.262,9.425,4.652,11.245c4.388,1.823,9.424-0.262,11.245-4.652   c1.592-3.838,2.975-7.811,4.11-11.808c1.221-4.301,2.181-8.724,2.857-13.144c0.275-1.801,0.508-3.622,0.689-5.413   c0.37-3.64,0.558-7.358,0.558-11.051c0-1.24-0.028-2.473-0.071-3.771L407.465,251.351z"/>
</g>
<g>
</g>
<g>
</g>
<g>
</g>
<g>
</g>
<g>
</g>
<g>
</g>
<g>
</g>
<g>
</g>
<g>
</g>
<g>
</g>
<g>
</g>
<g>
</g>
<g>
</g>
<g>
</g>
<g>
</g>
</svg>
