<?xml version="1.0" encoding="iso-8859-1"?>
<!-- Generator: Adobe Illustrator 19.0.0, SVG Export Plug-In . SVG Version: 6.00 Build 0)  -->
<svg xmlns="http://www.w3.org/2000/svg" xmlns:xlink="http://www.w3.org/1999/xlink" version="1.1" id="Layer_1" x="0px" y="0px" viewBox="0 0 512 512" style="enable-background:new 0 0 512 512;" xml:space="preserve">
<path style="fill:#E4F2F9;" d="M324.779,160.609c-5.857,0-11.502,0.899-16.809,2.561c0.027-0.849,0.066-1.702,0.066-2.561  c0-41.709-33.813-75.521-75.521-75.521c-35.964,0-66.036,25.147-73.644,58.81c-4.512-1.506-9.334-2.332-14.353-2.332  c-15.452,0-29.088,7.737-37.267,19.542c-4.564-1.181-9.35-1.813-14.285-1.813c-31.372,0-56.804,25.432-56.804,56.803  s25.432,56.806,56.804,56.806h172.501h31.781h27.531c31.011,0,56.148-25.138,56.148-56.147  C380.929,185.745,355.791,160.609,324.779,160.609z"/>
<path style="fill:#83D4ED;" d="M445.839,235.884h9.495c21.209,0,38.402-17.195,38.402-38.403s-17.194-38.402-38.402-38.402  c-3.336,0-6.572,0.426-9.658,1.226c-5.529-7.983-14.748-13.212-25.195-13.212c-3.393,0-6.653,0.56-9.702,1.577  c-5.144-22.759-25.474-39.759-49.788-39.759c-28.196,0-51.056,22.859-51.056,51.056c0,0.581,0.025,1.157,0.044,1.732  c-0.643-0.202-1.302-0.366-1.958-0.534c-0.012,0.671-0.03,1.342-0.052,2.006c5.307-1.662,10.952-2.561,16.809-2.561  c31.011,0,56.148,25.136,56.148,56.147c0,6.718-1.184,13.156-3.347,19.128h39.116"/>
<path style="fill:#D7EDF9;" d="M156.421,156.398c0-4.263,0.215-8.475,0.628-12.63c-4.1-1.221-8.438-1.89-12.935-1.89  c-15.452,0-29.087,7.737-37.266,19.542c-4.564-1.181-9.351-1.813-14.286-1.813c-31.372,0-56.804,25.432-56.804,56.804  s25.432,56.806,56.804,56.806h142.114C188.755,254.317,156.421,209.138,156.421,156.398z"/>
<path style="fill:#9FDEF7;" d="M452.772,159.391c-3.337,0-6.573,0.426-9.659,1.226c-5.529-7.982-14.748-13.212-25.194-13.212  c-3.394,0-6.653,0.559-9.703,1.577c-4.397-19.461-19.904-34.701-39.508-38.712c-0.377,3.976-0.577,8.002-0.577,12.077  c0,50.146,29.23,93.465,71.579,113.85h3.568h9.495c21.209,0,38.402-17.195,38.402-38.403S473.981,159.391,452.772,159.391z"/>
<g>
	<path style="fill:#231F20;" d="M503.365,265.213H367.711c6.488-5.755,11.82-12.781,15.589-20.695h33.397   c4.768,0,8.635-3.866,8.635-8.635s-3.866-8.635-8.635-8.635h-27.982c0.023-0.137,0.038-0.276,0.059-0.414   c0.041-0.258,0.073-0.518,0.111-0.777c0.106-0.736,0.202-1.474,0.283-2.215c0.036-0.323,0.068-0.647,0.098-0.97   c0.067-0.718,0.121-1.438,0.165-2.159c0.018-0.304,0.041-0.608,0.055-0.912c0.046-1.012,0.078-2.027,0.078-3.045   c0-35.721-29.062-64.782-64.783-64.782c-0.832,0-1.663,0.021-2.493,0.052c-0.26,0.01-0.519,0.025-0.779,0.038   c-0.584,0.029-1.167,0.066-1.749,0.11c-0.159,0.012-0.318,0.016-0.477,0.03c3.657-19.698,20.969-34.66,41.71-34.66   c19.644,0,37.04,13.89,41.366,33.028c0.537,2.379,2.056,4.421,4.181,5.618c2.126,1.199,4.66,1.442,6.972,0.669   c2.255-0.751,4.6-1.133,6.97-1.133c7.213,0,13.978,3.549,18.097,9.495c2.06,2.976,5.761,4.345,9.262,3.442   c2.436-0.631,4.957-0.951,7.494-0.951c16.414,0,29.768,13.353,29.768,29.768s-13.353,29.769-29.768,29.769h-9.495   c-4.768,0-8.635,3.866-8.635,8.635s3.866,8.635,8.635,8.635h9.495c25.936,0,47.037-21.102,47.037-47.038   s-21.101-47.037-47.037-47.037c-2.085,0-4.165,0.138-6.226,0.411c-7.368-7.848-17.708-12.397-28.627-12.397   c-1.246,0-2.488,0.059-3.721,0.176c-8.686-22.955-30.556-38.358-55.768-38.358c-21.377,0-40.157,11.304-50.701,28.24   c-12.643-30.525-42.733-52.062-77.776-52.062c-19.205,0-37.988,6.642-52.888,18.705c-12.391,10.03-21.706,23.45-26.799,38.416   c-2.743-0.427-5.517-0.643-8.309-0.643c-15.72,0-30.568,6.867-40.763,18.619c-3.559-0.591-7.17-0.889-10.79-0.889   c-36.083,0-65.438,29.355-65.438,65.438c0,19.55,8.628,37.112,22.263,49.114H8.635c-4.768,0-8.635,3.866-8.635,8.635   s3.866,8.635,8.635,8.635h494.731c4.768,0,8.635-3.866,8.635-8.635S508.134,265.213,503.365,265.213z M44.797,216.099   c0-26.56,21.609-48.169,48.169-48.169c4.099,0,8.178,0.517,12.123,1.538c3.505,0.903,7.199-0.469,9.259-3.442   c6.864-9.909,18.143-15.825,30.169-15.825c3.954,0,7.863,0.636,11.62,1.889c2.315,0.773,4.848,0.53,6.972-0.668   c2.126-1.198,3.645-3.239,4.182-5.619c6.93-30.663,33.751-52.079,65.222-52.079c36.881,0,66.886,30.005,66.886,66.887   c0,0.11-0.006,0.219-0.008,0.329c-0.001,0.026-0.004,0.051-0.004,0.077c-0.011,0.624-0.028,1.248-0.049,1.865v0.012   c0,0,0,0.001,0,0.002c0,0,0,0.001,0,0.002c-0.003,0.104,0.009,0.206,0.009,0.31c0.001,0.244,0,0.488,0.021,0.73   c0.015,0.169,0.051,0.336,0.076,0.503c0.026,0.172,0.041,0.345,0.077,0.515c0.036,0.171,0.092,0.335,0.137,0.502   c0.044,0.162,0.079,0.327,0.133,0.486c0.05,0.147,0.117,0.286,0.174,0.428c0.069,0.173,0.13,0.349,0.209,0.516   c0.043,0.091,0.099,0.176,0.146,0.266c0.581,1.116,1.394,2.113,2.425,2.896c2.227,1.69,5.133,2.201,7.805,1.365   c4.589-1.438,9.377-2.167,14.229-2.167c26.199,0,47.514,21.314,47.514,47.513c0,0.766-0.022,1.527-0.058,2.285   c-0.011,0.228-0.03,0.454-0.044,0.682c-0.033,0.539-0.071,1.075-0.123,1.608c-0.024,0.246-0.053,0.491-0.08,0.736   c-0.058,0.525-0.124,1.046-0.2,1.565c-0.033,0.227-0.068,0.454-0.104,0.681c-0.09,0.556-0.188,1.108-0.297,1.657   c-0.036,0.18-0.069,0.359-0.107,0.54c-0.137,0.652-0.286,1.301-0.449,1.943c-0.018,0.07-0.033,0.141-0.052,0.213   c-5.298,20.455-23.913,35.607-46.003,35.607H92.966C66.405,264.27,44.797,242.66,44.797,216.099z"/>
	<path style="fill:#231F20;" d="M473.043,316.235h-29.117c-4.768,0-8.635,3.866-8.635,8.635s3.866,8.635,8.635,8.635h29.117   c4.768,0,8.635-3.866,8.635-8.635S477.811,316.235,473.043,316.235z"/>
	<path style="fill:#231F20;" d="M424.497,324.869c0-4.768-3.866-8.635-8.635-8.635H38.957c-4.768,0-8.635,3.866-8.635,8.635   s3.866,8.635,8.635,8.635h376.906C420.631,333.504,424.497,329.638,424.497,324.869z"/>
	<path style="fill:#231F20;" d="M432.658,367.255H192.439c-4.768,0-8.635,3.866-8.635,8.635s3.866,8.635,8.635,8.635h240.219   c4.768,0,8.635-3.866,8.635-8.635S437.427,367.255,432.658,367.255z"/>
	<path style="fill:#231F20;" d="M171.935,375.89c0-4.768-3.866-8.635-8.635-8.635H79.342c-4.768,0-8.635,3.866-8.635,8.635   s3.866,8.635,8.635,8.635H163.3C168.068,384.524,171.935,380.658,171.935,375.89z"/>
	<path style="fill:#231F20;" d="M389.117,418.277H291.74c-4.768,0-8.635,3.866-8.635,8.635s3.866,8.635,8.635,8.635h97.377   c4.768,0,8.635-3.866,8.635-8.635S393.886,418.277,389.117,418.277z"/>
	<path style="fill:#231F20;" d="M261.516,418.277H122.885c-4.768,0-8.635,3.866-8.635,8.635s3.866,8.635,8.635,8.635h138.631   c4.768,0,8.635-3.866,8.635-8.635S266.284,418.277,261.516,418.277z"/>
</g>
<g>
</g>
<g>
</g>
<g>
</g>
<g>
</g>
<g>
</g>
<g>
</g>
<g>
</g>
<g>
</g>
<g>
</g>
<g>
</g>
<g>
</g>
<g>
</g>
<g>
</g>
<g>
</g>
<g>
</g>
</svg>
