<?xml version="1.0" encoding="iso-8859-1"?>
<!-- Generator: Adobe Illustrator 19.0.0, SVG Export Plug-In . SVG Version: 6.00 Build 0)  -->
<svg xmlns="http://www.w3.org/2000/svg" xmlns:xlink="http://www.w3.org/1999/xlink" version="1.1" id="Layer_1" x="0px" y="0px" viewBox="0 0 511.995 511.995" style="enable-background:new 0 0 511.995 511.995;" xml:space="preserve">
<path style="fill:#EAC71C;" d="M239.717,255.997c0-42.962,20.553-81.12,52.362-105.19c-0.198-0.151-0.387-0.309-0.586-0.457  c-21.997-16.45-49.301-26.193-78.881-26.193h-0.001l0,0c-29.58,0-56.885,9.743-78.88,26.193  c-22.842,17.082-39.96,41.401-47.957,69.555c-3.257,11.469-5.001,23.577-5.001,36.092c0,1.195,0.017,2.387,0.049,3.573  c0.011,0.394,0.03,0.785,0.045,1.179c0.027,0.792,0.057,1.585,0.099,2.375c0.024,0.465,0.058,0.927,0.088,1.391  c0.045,0.715,0.091,1.43,0.147,2.139c0.04,0.49,0.087,0.978,0.131,1.468c0.062,0.681,0.126,1.362,0.198,2.039  c0.054,0.5,0.112,0.998,0.171,1.496c0.079,0.664,0.16,1.327,0.248,1.989c0.067,0.502,0.138,1.001,0.21,1.5  c0.096,0.655,0.198,1.313,0.302,1.966c0.08,0.495,0.159,0.988,0.246,1.483c0.113,0.655,0.233,1.31,0.357,1.963  c0.09,0.483,0.181,0.966,0.278,1.449c0.132,0.669,0.275,1.334,0.421,1.999c0.099,0.459,0.196,0.919,0.3,1.378  c0.16,0.707,0.332,1.412,0.506,2.114c0.1,0.408,0.196,0.819,0.299,1.225c0.217,0.855,0.45,1.704,0.685,2.552  c0.069,0.251,0.132,0.504,0.202,0.754c0.31,1.094,0.636,2.18,0.971,3.262c0.097,0.305,0.2,0.609,0.298,0.914  c0.247,0.778,0.497,1.551,0.758,2.321c0.141,0.408,0.288,0.812,0.43,1.22c0.232,0.66,0.465,1.32,0.707,1.978  c0.162,0.438,0.333,0.877,0.501,1.315c0.236,0.617,0.472,1.233,0.716,1.847c0.181,0.451,0.366,0.898,0.551,1.346  c0.246,0.596,0.494,1.191,0.748,1.78c0.194,0.451,0.39,0.899,0.591,1.35c0.258,0.583,0.521,1.164,0.786,1.74  c0.205,0.445,0.413,0.891,0.623,1.333c0.274,0.579,0.556,1.154,0.837,1.729c0.214,0.435,0.426,0.868,0.645,1.298  c0.294,0.581,0.597,1.157,0.898,1.734c0.218,0.415,0.433,0.83,0.656,1.242c0.325,0.602,0.657,1.199,0.991,1.796  c0.211,0.379,0.418,0.758,0.635,1.134c0.383,0.671,0.779,1.336,1.174,1.999c0.174,0.294,0.344,0.592,0.522,0.882  c0.578,0.953,1.165,1.897,1.767,2.835c0.083,0.129,0.17,0.256,0.254,0.385c0.52,0.805,1.048,1.606,1.584,2.399  c0.215,0.317,0.436,0.628,0.653,0.942c0.415,0.602,0.831,1.203,1.255,1.796c0.254,0.355,0.515,0.707,0.773,1.061  c0.399,0.543,0.797,1.09,1.204,1.629c0.278,0.367,0.559,0.73,0.84,1.095c0.398,0.516,0.798,1.034,1.205,1.545  c0.291,0.368,0.587,0.731,0.882,1.095c0.409,0.503,0.819,1.004,1.234,1.499c0.3,0.359,0.603,0.717,0.906,1.072  c0.425,0.495,0.851,0.987,1.281,1.476c0.304,0.345,0.61,0.692,0.919,1.035c0.445,0.495,0.897,0.986,1.348,1.474  c0.303,0.327,0.604,0.651,0.909,0.973c0.48,0.507,0.966,1.009,1.454,1.508c0.287,0.294,0.57,0.592,0.861,0.882  c0.551,0.553,1.108,1.097,1.667,1.64c0.237,0.228,0.468,0.459,0.703,0.685c0.798,0.765,1.605,1.519,2.422,2.262  c0.002,0.002,0.004,0.004,0.008,0.006c0.834,0.758,1.679,1.507,2.532,2.244c0.022,0.019,0.041,0.038,0.062,0.057l0.022,0.014  c5.898,5.09,12.257,9.659,18.996,13.649l0.086,0.063c0.167,0.1,0.338,0.19,0.507,0.288c0.884,0.518,1.777,1.025,2.674,1.525  c0.239,0.13,0.474,0.267,0.711,0.396c1.126,0.615,2.262,1.213,3.404,1.793c0.268,0.138,0.54,0.269,0.809,0.401  c0.901,0.453,1.808,0.893,2.72,1.324c0.352,0.166,0.702,0.329,1.055,0.493c0.967,0.445,1.94,0.879,2.919,1.302  c0.218,0.095,0.435,0.194,0.654,0.287c1.189,0.507,2.387,0.992,3.592,1.462c0.301,0.116,0.607,0.23,0.909,0.344  c0.936,0.357,1.875,0.705,2.819,1.041c0.367,0.131,0.735,0.261,1.101,0.387c1.049,0.365,2.103,0.714,3.162,1.051  c0.193,0.061,0.382,0.127,0.577,0.187c1.243,0.388,2.497,0.756,3.756,1.109c0.333,0.092,0.668,0.181,1.002,0.272  c0.963,0.261,1.93,0.513,2.9,0.751c0.381,0.096,0.764,0.189,1.148,0.281c1.136,0.27,2.275,0.526,3.425,0.767  c0.152,0.032,0.302,0.068,0.456,0.1c1.293,0.265,2.594,0.508,3.901,0.736c0.361,0.063,0.724,0.12,1.085,0.181  c0.99,0.162,1.982,0.315,2.979,0.458c0.39,0.056,0.784,0.111,1.177,0.164c1.241,0.166,2.488,0.317,3.74,0.447  c0.088,0.009,0.175,0.022,0.264,0.029c1.337,0.137,2.68,0.247,4.029,0.344c0.385,0.027,0.772,0.048,1.158,0.073  c1.012,0.063,2.03,0.115,3.049,0.156c0.398,0.015,0.796,0.033,1.195,0.045c1.366,0.042,2.733,0.07,4.108,0.07l0,0h0.001  c1.375,0,2.743-0.028,4.108-0.07c0.399-0.012,0.797-0.03,1.195-0.045c1.02-0.04,2.036-0.092,3.049-0.156  c0.386-0.025,0.774-0.046,1.158-0.073c1.349-0.097,2.693-0.208,4.029-0.344c0.088-0.009,0.176-0.022,0.265-0.029  c1.252-0.13,2.498-0.282,3.738-0.447c0.395-0.053,0.785-0.109,1.179-0.164c0.997-0.143,1.99-0.295,2.978-0.458  c0.361-0.06,0.724-0.117,1.085-0.181c1.306-0.228,2.608-0.471,3.901-0.736c0.153-0.032,0.303-0.068,0.457-0.1  c1.147-0.241,2.288-0.497,3.425-0.767c0.382-0.091,0.765-0.185,1.147-0.281c0.97-0.239,1.938-0.489,2.9-0.751  c0.336-0.091,0.669-0.18,1.004-0.272c1.258-0.353,2.513-0.721,3.756-1.109c0.194-0.06,0.382-0.126,0.575-0.187  c1.059-0.337,2.115-0.686,3.162-1.051c0.368-0.126,0.736-0.256,1.101-0.387c0.945-0.337,1.885-0.684,2.82-1.041  c0.301-0.114,0.606-0.228,0.908-0.344c1.205-0.471,2.402-0.956,3.59-1.462c0.22-0.094,0.438-0.193,0.658-0.288  c0.978-0.422,1.95-0.855,2.916-1.3c0.352-0.164,0.705-0.327,1.055-0.493c0.913-0.431,1.819-0.872,2.72-1.324  c0.269-0.132,0.541-0.264,0.809-0.401c1.144-0.58,2.277-1.178,3.402-1.793c0.241-0.129,0.473-0.266,0.713-0.396  c0.898-0.5,1.79-1.007,2.675-1.525c0.168-0.098,0.338-0.188,0.506-0.288l0.087-0.063c4.291-2.541,8.408-5.342,12.37-8.337  C260.262,337.101,239.717,298.951,239.717,255.997z"/>
<path style="fill:#EDE21B;" d="M292.564,151.445c-20.542-15.361-45.715-24.867-73.046-26.058  c-39.761,22.358-66.625,64.943-66.625,113.809c0,71.692,57.819,129.871,129.369,130.474c6.176-3.771,12.037-8.008,17.492-12.714  l0.022-0.013c0.021-0.019,0.04-0.038,0.063-0.057c0.853-0.737,1.697-1.485,2.532-2.244c0.003-0.002,0.005-0.004,0.005-0.004  c0.82-0.745,1.624-1.5,2.422-2.264c0.24-0.226,0.468-0.458,0.703-0.685c0.559-0.544,1.12-1.089,1.668-1.64  c0.29-0.292,0.573-0.588,0.862-0.882c0.487-0.5,0.973-1.003,1.454-1.508c0.304-0.323,0.606-0.648,0.908-0.975  c0.452-0.487,0.904-0.978,1.349-1.474c0.309-0.342,0.613-0.688,0.919-1.035c0.43-0.488,0.857-0.98,1.279-1.475  c0.304-0.355,0.608-0.713,0.908-1.073c0.414-0.494,0.825-0.996,1.233-1.498c0.296-0.364,0.593-0.727,0.884-1.095  c0.406-0.513,0.807-1.029,1.204-1.546c0.282-0.365,0.563-0.728,0.84-1.095c0.406-0.539,0.805-1.085,1.204-1.63  c0.256-0.354,0.52-0.705,0.773-1.059c0.425-0.594,0.84-1.194,1.254-1.795c0.218-0.315,0.439-0.626,0.653-0.943  c0.538-0.793,1.065-1.594,1.587-2.399c0.084-0.129,0.17-0.256,0.254-0.385c0.599-0.938,1.189-1.883,1.767-2.835  c0.174-0.293,0.344-0.588,0.521-0.882c0.397-0.664,0.79-1.326,1.175-1.999c0.215-0.376,0.423-0.755,0.632-1.134  c0.335-0.597,0.668-1.194,0.992-1.796c0.223-0.411,0.439-0.828,0.655-1.242c0.302-0.577,0.606-1.153,0.899-1.734  c0.218-0.43,0.43-0.864,0.645-1.297c0.282-0.574,0.563-1.15,0.836-1.729c0.21-0.443,0.418-0.887,0.624-1.333  c0.265-0.577,0.527-1.157,0.785-1.74c0.2-0.451,0.395-0.9,0.591-1.351c0.254-0.589,0.5-1.185,0.748-1.779  c0.185-0.449,0.37-0.896,0.551-1.346c0.246-0.613,0.481-1.229,0.716-1.847c0.168-0.439,0.338-0.878,0.502-1.317  c0.242-0.656,0.472-1.317,0.706-1.978c0.143-0.406,0.293-0.811,0.43-1.219c0.26-0.77,0.511-1.545,0.758-2.321  c0.099-0.304,0.203-0.608,0.298-0.914c0.339-1.082,0.659-2.168,0.97-3.262c0.069-0.248,0.134-0.502,0.203-0.753  c0.236-0.849,0.467-1.697,0.685-2.551c0.103-0.408,0.2-0.819,0.3-1.226c0.17-0.701,0.342-1.408,0.504-2.114  c0.105-0.46,0.199-0.919,0.299-1.378c0.144-0.666,0.289-1.329,0.422-2c0.097-0.48,0.187-0.964,0.277-1.448  c0.124-0.653,0.244-1.308,0.357-1.963c0.086-0.495,0.166-0.99,0.247-1.484c0.103-0.653,0.204-1.311,0.3-1.965  c0.071-0.499,0.141-0.998,0.21-1.501c0.088-0.66,0.17-1.324,0.251-1.99c0.057-0.498,0.115-0.995,0.17-1.495  c0.071-0.679,0.137-1.36,0.198-2.04c0.046-0.489,0.09-0.977,0.132-1.468c0.057-0.709,0.103-1.423,0.147-2.138  c0.029-0.464,0.063-0.927,0.088-1.391c0.042-0.789,0.071-1.583,0.099-2.375c0.015-0.393,0.033-0.784,0.044-1.179  c0.033-1.188,0.051-2.378,0.051-3.573c0-12.515-1.744-24.622-5.002-36.092C332.523,192.847,315.405,168.527,292.564,151.445z"/>
<path style="fill:#EF8229;" d="M239.717,255.997c0-31.156,10.813-59.781,28.883-82.345c-0.275-0.187-0.551-0.373-0.826-0.558  c-0.318-0.212-0.637-0.422-0.956-0.629c-0.331-0.214-0.661-0.429-0.995-0.639c-0.325-0.207-0.65-0.409-0.977-0.61  c-0.335-0.207-0.668-0.412-1.005-0.614c-0.332-0.199-0.665-0.395-0.998-0.591c-0.339-0.198-0.675-0.394-1.014-0.588  c-0.338-0.194-0.679-0.382-1.019-0.568c-0.34-0.189-0.681-0.379-1.023-0.564c-0.346-0.187-0.697-0.369-1.047-0.551  c-0.341-0.181-0.681-0.359-1.024-0.535c-0.358-0.183-0.72-0.359-1.081-0.537c-0.34-0.168-0.679-0.338-1.02-0.503  c-0.376-0.18-0.755-0.352-1.135-0.529c-0.33-0.154-0.658-0.31-0.991-0.459c-0.457-0.205-0.917-0.404-1.378-0.603  c-0.351-0.152-0.7-0.304-1.053-0.452c-0.618-0.259-1.239-0.515-1.864-0.763c-0.303-0.119-0.612-0.233-0.918-0.35  c-0.43-0.166-0.859-0.335-1.293-0.493c-0.329-0.12-0.66-0.236-0.991-0.352c-0.414-0.147-0.828-0.296-1.243-0.438  c-0.342-0.117-0.687-0.228-1.032-0.34c-0.408-0.133-0.815-0.269-1.227-0.399c-0.351-0.11-0.705-0.214-1.058-0.323  c-0.407-0.122-0.813-0.245-1.223-0.364c-0.358-0.103-0.719-0.2-1.079-0.301c-0.408-0.112-0.816-0.223-1.226-0.331  c-0.363-0.096-0.727-0.186-1.09-0.277c-0.413-0.103-0.827-0.204-1.24-0.303c-0.366-0.085-0.734-0.168-1.1-0.252  c-0.415-0.092-0.83-0.183-1.249-0.271c-0.37-0.077-0.74-0.154-1.109-0.227c-0.421-0.082-0.842-0.163-1.266-0.244  c-0.37-0.068-0.74-0.133-1.109-0.198c-0.428-0.074-0.858-0.145-1.288-0.213c-0.369-0.06-0.739-0.118-1.108-0.174  c-0.437-0.063-0.874-0.123-1.313-0.183c-0.367-0.051-0.734-0.1-1.1-0.145c-0.446-0.055-0.895-0.104-1.345-0.153  c-0.363-0.04-0.725-0.082-1.089-0.118c-0.461-0.045-0.924-0.083-1.389-0.123c-0.353-0.029-0.706-0.062-1.058-0.087  c-0.488-0.038-0.978-0.066-1.466-0.094c-0.335-0.022-0.666-0.044-1-0.061c-0.544-0.025-1.091-0.044-1.638-0.061  c-0.282-0.009-0.56-0.023-0.843-0.029c-0.824-0.022-1.651-0.031-2.48-0.033c-0.005,0-0.01,0-0.014,0h-0.001c-0.005,0-0.01,0-0.014,0  c-0.829,0.002-1.656,0.013-2.481,0.033c-0.282,0.006-0.56,0.022-0.842,0.029c-0.546,0.017-1.095,0.036-1.638,0.061  c-0.335,0.017-0.666,0.04-0.999,0.061c-0.488,0.028-0.978,0.056-1.465,0.094c-0.355,0.025-0.708,0.058-1.061,0.087  c-0.465,0.04-0.926,0.077-1.388,0.123c-0.365,0.037-0.726,0.079-1.09,0.118c-0.449,0.048-0.897,0.098-1.345,0.153  c-0.368,0.045-0.734,0.095-1.098,0.145c-0.439,0.06-0.877,0.119-1.316,0.183c-0.37,0.056-0.74,0.115-1.107,0.174  c-0.429,0.068-0.859,0.139-1.288,0.213c-0.37,0.063-0.74,0.13-1.109,0.198c-0.424,0.08-0.844,0.161-1.266,0.244  c-0.371,0.073-0.741,0.15-1.11,0.227c-0.417,0.088-0.833,0.179-1.248,0.271c-0.368,0.084-0.735,0.167-1.099,0.252  c-0.415,0.099-0.828,0.201-1.24,0.303c-0.364,0.091-0.727,0.182-1.089,0.277c-0.412,0.109-0.82,0.219-1.227,0.331  c-0.36,0.101-0.722,0.198-1.08,0.301c-0.409,0.118-0.815,0.241-1.221,0.364c-0.355,0.109-0.708,0.213-1.061,0.323  c-0.411,0.13-0.817,0.266-1.227,0.399c-0.343,0.112-0.689,0.223-1.032,0.34c-0.416,0.142-0.829,0.29-1.244,0.438  c-0.329,0.116-0.66,0.231-0.989,0.352c-0.432,0.159-0.863,0.327-1.293,0.493c-0.305,0.116-0.613,0.23-0.917,0.35  c-0.625,0.247-1.246,0.503-1.864,0.763c-0.353,0.147-0.702,0.3-1.053,0.452c-0.46,0.199-0.922,0.397-1.378,0.603  c-0.332,0.15-0.66,0.305-0.992,0.459c-0.379,0.177-0.758,0.35-1.134,0.529c-0.343,0.165-0.682,0.336-1.024,0.506  c-0.358,0.175-0.719,0.353-1.076,0.534c-0.344,0.176-0.685,0.355-1.027,0.536c-0.349,0.182-0.698,0.364-1.044,0.551  c-0.342,0.185-0.683,0.375-1.023,0.564c-0.34,0.186-0.681,0.375-1.019,0.568c-0.34,0.195-0.677,0.39-1.014,0.588  c-0.335,0.196-0.667,0.392-0.998,0.591c-0.337,0.202-0.671,0.408-1.005,0.614c-0.328,0.202-0.653,0.403-0.977,0.61  c-0.333,0.209-0.664,0.425-0.995,0.639c-0.321,0.208-0.639,0.417-0.956,0.629c-0.329,0.219-0.656,0.439-0.982,0.663  c-0.313,0.213-0.625,0.428-0.935,0.649c-0.326,0.226-0.65,0.455-0.97,0.687c-0.308,0.221-0.612,0.444-0.919,0.669  c-0.317,0.234-0.637,0.471-0.952,0.708c-0.303,0.229-0.605,0.46-0.906,0.694c-0.311,0.24-0.622,0.48-0.93,0.724  c-0.301,0.241-0.601,0.482-0.899,0.726c-0.3,0.244-0.603,0.485-0.901,0.735c-0.3,0.247-0.597,0.502-0.895,0.756  c-0.292,0.247-0.584,0.493-0.872,0.744c-0.305,0.266-0.607,0.536-0.909,0.807c-0.274,0.243-0.55,0.485-0.821,0.73  c-0.023,0.022-0.046,0.042-0.069,0.063l-0.013,0.014c-6.608,6.035-12.394,12.951-17.184,20.558  c-0.138,0.216-0.274,0.435-0.409,0.653c-1.128,1.823-2.2,3.685-3.211,5.584c-0.12,0.229-0.242,0.456-0.361,0.685  c-0.997,1.907-1.934,3.851-2.807,5.828c-0.105,0.239-0.21,0.476-0.313,0.716c-0.859,1.982-1.653,4-2.385,6.047  c-0.089,0.25-0.179,0.501-0.265,0.752c-0.714,2.053-1.362,4.136-1.944,6.247c-0.071,0.26-0.142,0.521-0.211,0.782  c-0.564,2.118-1.058,4.261-1.484,6.431c-0.053,0.269-0.104,0.538-0.155,0.809c-0.408,2.174-0.744,4.373-1.007,6.596  c-0.033,0.276-0.066,0.553-0.095,0.831c-0.123,1.113-0.234,2.229-0.319,3.354v0.001c-0.086,1.124-0.146,2.253-0.194,3.386  c-0.013,0.284-0.023,0.568-0.032,0.852c-0.039,1.137-0.066,2.276-0.066,3.424c0,3.438,0.174,6.835,0.514,10.181  c0.17,1.675,0.382,3.336,0.635,4.983c0.629,4.122,1.51,8.159,2.63,12.095c11.854,41.743,50.254,72.314,95.795,72.314h0.001  c20.761,0,40.026-6.369,55.981-17.239C250.528,315.772,239.717,287.149,239.717,255.997z"/>
<path style="fill:#F29F26;" d="M313.159,252.816c-0.048-1.134-0.108-2.261-0.194-3.386c-0.086-1.126-0.198-2.242-0.319-3.355  c-0.031-0.279-0.061-0.555-0.095-0.831c-0.262-2.22-0.601-4.419-1.009-6.595c-0.048-0.271-0.101-0.54-0.156-0.809  c-0.425-2.171-0.92-4.313-1.481-6.431c-0.071-0.261-0.142-0.521-0.214-0.782c-0.58-2.111-1.227-4.193-1.941-6.247  c-0.086-0.251-0.176-0.502-0.265-0.752c-0.731-2.047-1.527-4.064-2.387-6.047c-0.101-0.24-0.205-0.479-0.311-0.716  c-0.874-1.977-1.811-3.921-2.808-5.828c-0.117-0.229-0.24-0.456-0.361-0.685c-1.011-1.9-2.082-3.76-3.21-5.585  c-0.137-0.217-0.271-0.435-0.41-0.652c-1.197-1.902-2.456-3.76-3.775-5.573c-3.958-5.438-8.451-10.459-13.408-14.987l-0.013-0.015  c-0.024-0.02-0.046-0.041-0.069-0.062c-0.271-0.245-0.546-0.487-0.82-0.73c-0.302-0.27-0.606-0.541-0.91-0.807  c-0.145-0.126-0.29-0.247-0.437-0.372c-0.145-0.124-0.29-0.25-0.435-0.372c-0.15-0.127-0.3-0.252-0.449-0.38  c-0.148-0.127-0.297-0.254-0.446-0.379c-0.3-0.247-0.601-0.489-0.901-0.734c-0.298-0.243-0.599-0.485-0.899-0.726  c-0.309-0.244-0.62-0.484-0.93-0.724c-0.302-0.232-0.603-0.465-0.906-0.694c-0.315-0.239-0.635-0.472-0.952-0.708  c-0.307-0.225-0.611-0.45-0.919-0.669c-0.322-0.232-0.648-0.461-0.97-0.686c-0.311-0.219-0.62-0.436-0.935-0.65  c-0.326-0.224-0.653-0.443-0.983-0.662c-0.317-0.212-0.637-0.423-0.954-0.63c-0.33-0.214-0.662-0.429-0.996-0.639  c-0.324-0.207-0.651-0.409-0.977-0.609c-0.335-0.207-0.668-0.414-1.005-0.615c-0.332-0.198-0.666-0.395-0.998-0.591  c-0.338-0.197-0.677-0.395-1.014-0.588c-0.338-0.193-0.679-0.382-1.019-0.568c-0.34-0.189-0.681-0.379-1.023-0.564  c-0.349-0.187-0.697-0.369-1.044-0.551c-0.342-0.18-0.683-0.359-1.027-0.536c-0.355-0.181-0.716-0.357-1.076-0.534  c0,0-0.002-0.001-0.004-0.002c-0.009-0.004-0.017-0.009-0.026-0.013c-0.331-0.163-0.658-0.33-0.993-0.49  c-0.189-0.089-0.379-0.177-0.568-0.265c-0.189-0.087-0.378-0.175-0.566-0.265c-0.331-0.154-0.659-0.311-0.992-0.46  c-0.229-0.102-0.461-0.201-0.691-0.301c-0.23-0.099-0.457-0.2-0.688-0.3c-0.351-0.152-0.699-0.304-1.053-0.452  c-0.622-0.258-1.241-0.515-1.865-0.763c-0.304-0.119-0.611-0.233-0.916-0.349c-0.432-0.166-0.862-0.335-1.294-0.494  c-0.328-0.12-0.659-0.236-0.991-0.351c-0.415-0.147-0.828-0.297-1.242-0.439c-0.171-0.059-0.344-0.113-0.516-0.17  c-0.172-0.057-0.343-0.113-0.514-0.17c-0.207-0.068-0.41-0.133-0.613-0.2c-0.204-0.068-0.408-0.134-0.613-0.201  c-0.354-0.109-0.706-0.213-1.061-0.321c-0.406-0.124-0.811-0.246-1.22-0.365c-0.359-0.102-0.722-0.2-1.081-0.301  c-0.408-0.112-0.815-0.223-1.225-0.33c-0.364-0.097-0.727-0.188-1.091-0.279c-0.413-0.103-0.826-0.204-1.239-0.302  c-0.366-0.085-0.734-0.169-1.101-0.252c-0.415-0.094-0.83-0.184-1.247-0.272c-0.372-0.077-0.74-0.154-1.111-0.227  c-0.419-0.082-0.84-0.163-1.265-0.243c-0.185-0.034-0.37-0.066-0.555-0.1c-0.185-0.032-0.37-0.068-0.555-0.099  c-0.428-0.073-0.857-0.144-1.288-0.213c-0.37-0.06-0.739-0.118-1.107-0.173c-0.437-0.065-0.876-0.124-1.313-0.183  c-0.184-0.025-0.368-0.048-0.551-0.072c-0.183-0.025-0.367-0.051-0.551-0.072c-0.447-0.056-0.895-0.105-1.345-0.154  c-0.364-0.04-0.725-0.082-1.089-0.118c-0.231-0.023-0.465-0.041-0.695-0.062c-0.231-0.019-0.463-0.041-0.694-0.061  c-0.353-0.028-0.706-0.061-1.061-0.087c-0.487-0.037-0.977-0.066-1.466-0.094c-0.332-0.02-0.664-0.044-0.998-0.061  c-0.364-0.017-0.728-0.028-1.093-0.041c-0.183-0.005-0.364-0.015-0.546-0.019c-0.282-0.009-0.56-0.023-0.842-0.029  c-0.824-0.022-1.651-0.031-2.481-0.032c-0.004,0-0.009,0-0.013,0h-0.002l0,0c-0.005,0-0.01,0-0.015,0  c-0.828,0.001-1.655,0.012-2.481,0.032c-0.28,0.006-0.559,0.022-0.842,0.029c-0.181,0.005-0.364,0.015-0.544,0.019  c-0.366,0.013-0.731,0.025-1.095,0.041c-0.332,0.017-0.666,0.041-0.998,0.061c-0.489,0.028-0.979,0.057-1.466,0.094  c-0.353,0.026-0.706,0.059-1.061,0.087c-0.231,0.02-0.463,0.042-0.694,0.061c-0.231,0.022-0.463,0.04-0.694,0.062  c-0.364,0.037-0.727,0.079-1.089,0.118c-0.45,0.048-0.897,0.098-1.347,0.154c-0.183,0.022-0.367,0.048-0.549,0.072  c-0.184,0.024-0.368,0.047-0.551,0.072c-0.439,0.059-0.878,0.118-1.313,0.183c-0.372,0.055-0.74,0.113-1.109,0.173  c-0.429,0.069-0.857,0.14-1.288,0.213c-0.185,0.031-0.369,0.067-0.555,0.099c-0.184,0.033-0.37,0.066-0.555,0.1  c-0.423,0.079-0.844,0.16-1.265,0.243c-0.37,0.073-0.74,0.15-1.109,0.227c-0.418,0.088-0.834,0.179-1.248,0.272  c-0.37,0.083-0.736,0.167-1.1,0.252c-0.414,0.098-0.828,0.2-1.241,0.302c-0.361,0.09-0.725,0.182-1.089,0.279  c-0.41,0.108-0.82,0.218-1.225,0.33c-0.361,0.102-0.723,0.2-1.082,0.301c-0.408,0.118-0.815,0.241-1.221,0.365  c-0.353,0.108-0.706,0.212-1.061,0.321c-0.203,0.067-0.408,0.133-0.611,0.201c-0.204,0.067-0.41,0.132-0.613,0.2  c-0.172,0.057-0.344,0.113-0.516,0.17c-0.172,0.057-0.344,0.112-0.516,0.17c-0.414,0.142-0.828,0.291-1.241,0.439  c-0.33,0.115-0.662,0.23-0.99,0.351c-0.432,0.159-0.864,0.328-1.294,0.494c-0.304,0.115-0.613,0.229-0.919,0.349  c-0.319,0.127-0.637,0.26-0.956,0.39c-14.653,21.096-23.25,46.718-23.25,74.35c0,51.141,29.424,95.401,72.263,116.798  c0.229-0.026,0.46-0.045,0.689-0.072c0.308-0.038,0.613-0.076,0.92-0.116c1.157-0.153,2.31-0.318,3.456-0.51  c0.069-0.013,0.139-0.021,0.208-0.032c1.204-0.204,2.398-0.436,3.586-0.684c0.298-0.061,0.595-0.125,0.892-0.189  c1.1-0.24,2.195-0.493,3.283-0.767c0.096-0.025,0.194-0.046,0.288-0.07c1.168-0.299,2.323-0.625,3.474-0.965  c0.286-0.084,0.569-0.17,0.855-0.258c1.047-0.319,2.086-0.652,3.117-1.006c0.115-0.039,0.232-0.074,0.346-0.115  c1.126-0.39,2.242-0.805,3.348-1.233c0.273-0.106,0.544-0.214,0.816-0.323c0.993-0.394,1.978-0.801,2.955-1.227  c0.129-0.057,0.262-0.111,0.393-0.167c1.081-0.477,2.15-0.977,3.212-1.49c0.256-0.124,0.511-0.252,0.767-0.379  c0.942-0.466,1.876-0.943,2.801-1.438c0.139-0.074,0.28-0.145,0.418-0.219c1.034-0.559,2.054-1.14,3.066-1.733  c0.242-0.142,0.481-0.286,0.721-0.429c0.888-0.534,1.771-1.079,2.643-1.638c0.143-0.091,0.286-0.18,0.428-0.271  c0.981-0.639,1.95-1.296,2.909-1.967c0.224-0.157,0.444-0.316,0.667-0.473c0.834-0.595,1.659-1.2,2.473-1.82  c0.147-0.111,0.296-0.22,0.443-0.332c0.925-0.711,1.836-1.441,2.735-2.184c0.205-0.17,0.41-0.343,0.613-0.516  c0.778-0.651,1.545-1.315,2.3-1.99c0.148-0.132,0.298-0.262,0.446-0.395c0.864-0.782,1.712-1.579,2.548-2.389  c0.189-0.183,0.374-0.368,0.56-0.552c0.717-0.706,1.423-1.421,2.119-2.149c0.147-0.154,0.296-0.303,0.442-0.459  c0.797-0.844,1.579-1.704,2.348-2.576c0.171-0.196,0.34-0.395,0.512-0.593c0.299-0.344,0.601-0.685,0.896-1.034l0.068-0.112  c6.484-7.712,11.825-16.414,15.75-25.858l0.033-0.054c0.406-0.979,0.792-1.968,1.168-2.963c0.095-0.246,0.181-0.498,0.273-0.746  c0.332-0.904,0.651-1.814,0.961-2.728c0.108-0.321,0.214-0.64,0.317-0.961c0.372-1.146,0.731-2.299,1.061-3.462  c1.12-3.937,2.002-7.974,2.632-12.094c0.139-0.916,0.262-1.836,0.378-2.76c0.091-0.739,0.18-1.479,0.255-2.222  c0.339-3.346,0.513-6.743,0.513-10.181c0-1.147-0.027-2.287-0.063-3.424C313.182,253.385,313.171,253.1,313.159,252.816z"/>
<path style="fill:#CCCCCC;" d="M464.78,162.774c23.859,23.859,38.615,56.817,38.615,93.224c0,72.812-59.027,131.84-131.839,131.84  c-72.812,0-131.839-59.027-131.839-131.84s59.026-131.839,131.839-131.839c25.603,0,49.501,7.298,69.728,19.928"/>
<g>
	<circle style="fill:#EAE6E1;" cx="304.381" cy="221.34" r="20.825"/>
	<circle style="fill:#EAE6E1;" cx="418.193" cy="320.997" r="15.466"/>
	<circle style="fill:#EAE6E1;" cx="418.193" cy="242.164" r="25.121"/>
</g>
<path style="fill:#BCBAB7;" d="M270.04,255.997c0-69.191,53.302-125.925,121.081-131.399c-3.549-0.287-7.134-0.439-10.755-0.439  c-72.811,0-131.839,59.025-131.839,131.838s59.027,131.84,131.839,131.84c3.621,0,7.207-0.153,10.754-0.439  C323.339,381.923,270.04,325.187,270.04,255.997z"/>
<path style="fill:#EAE6E1;" d="M357.63,335.648c-6.23-17.548-22.979-30.114-42.665-30.114c-21.63,0-39.705,15.178-44.182,35.462  c18.641,22.076,44.395,37.945,73.738,44.061c6.384-5.512,11.215-12.772,13.738-21.039"/>
<path style="fill:#D8D1CA;" d="M284.946,316.932c-4.961,4.406-8.942,9.889-11.589,16.08c17.545,24.332,43.179,42.437,72.966,50.377  c1.803-1.734,3.465-3.612,4.962-5.622C322.691,365.873,299.188,344.205,284.946,316.932z"/>
<g>
	<path style="fill:#231F20;" d="M212.61,101.538c4.752,0,8.605-3.853,8.605-8.605V51.993c0-4.752-3.853-8.605-8.605-8.605   c-4.752,0-8.605,3.853-8.605,8.605v40.939C204.005,97.685,207.858,101.538,212.61,101.538z"/>
	<path style="fill:#231F20;" d="M212.61,410.458c-4.752,0-8.605,3.853-8.605,8.605v40.938c0,4.752,3.853,8.605,8.605,8.605   c4.752,0,8.605-3.853,8.605-8.605v-40.938C221.215,414.311,217.362,410.458,212.61,410.458z"/>
	<path style="fill:#231F20;" d="M123.627,119.081c1.594,2.76,4.485,4.304,7.461,4.304c1.459,0,2.939-0.372,4.294-1.154   c4.115-2.376,5.527-7.639,3.149-11.754L118.06,75.022c-2.375-4.114-7.637-5.528-11.754-3.149   c-4.115,2.376-5.527,7.639-3.149,11.754L123.627,119.081z"/>
	<path style="fill:#231F20;" d="M301.595,392.912c-2.376-4.114-7.638-5.526-11.756-3.151c-4.115,2.376-5.527,7.64-3.151,11.756   l20.469,35.457c1.594,2.76,4.486,4.304,7.462,4.304c1.459,0,2.939-0.372,4.294-1.153c4.115-2.376,5.527-7.64,3.151-11.756   L301.595,392.912z"/>
	<path style="fill:#231F20;" d="M31.635,161.447l35.454,20.469c1.355,0.783,2.834,1.154,4.294,1.154   c2.974,0,5.866-1.544,7.461-4.304c2.377-4.115,0.966-9.378-3.149-11.754L40.24,146.543c-4.114-2.376-9.378-0.966-11.754,3.149   C26.109,153.809,27.52,159.071,31.635,161.447z"/>
	<path style="fill:#231F20;" d="M58.151,255.997c0-4.752-3.853-8.605-8.605-8.605H8.605c-4.752,0-8.605,3.853-8.605,8.605   c0,4.752,3.853,8.605,8.605,8.605h40.941C54.297,264.602,58.151,260.749,58.151,255.997z"/>
	<path style="fill:#231F20;" d="M67.089,330.078l-35.455,20.468c-4.115,2.376-5.527,7.64-3.151,11.756   c1.594,2.76,4.486,4.304,7.462,4.304c1.46,0,2.939-0.372,4.294-1.153l35.455-20.468c4.115-2.376,5.527-7.64,3.151-11.756   S71.207,327.703,67.089,330.078z"/>
	<path style="fill:#231F20;" d="M135.38,389.762c-4.115-2.374-9.378-0.966-11.756,3.15l-20.469,35.457   c-2.376,4.115-0.965,9.379,3.151,11.756c1.355,0.782,2.834,1.153,4.294,1.153c2.974,0,5.866-1.544,7.462-4.304l20.469-35.457   C140.906,397.401,139.496,392.138,135.38,389.762z"/>
	<path style="fill:#231F20;" d="M289.839,122.231c1.355,0.783,2.834,1.154,4.294,1.154c2.974,0,5.866-1.544,7.461-4.304   l20.47-35.455c2.377-4.115,0.966-9.378-3.149-11.754c-4.115-2.376-9.379-0.966-11.754,3.149l-20.47,35.455   C284.312,114.593,285.723,119.855,289.839,122.231z"/>
	<path style="fill:#231F20;" d="M274.947,221.34c0,16.228,13.202,29.43,29.43,29.43c16.228,0,29.429-13.202,29.429-29.43   c0-16.227-13.201-29.428-29.429-29.428C288.15,191.911,274.947,205.113,274.947,221.34z M316.597,221.34   c0,6.739-5.482,12.22-12.219,12.22c-6.739,0-12.22-5.482-12.22-12.22s5.482-12.218,12.22-12.218   C311.115,209.121,316.597,214.602,316.597,221.34z"/>
	<path style="fill:#231F20;" d="M418.194,296.929c-13.273,0-24.071,10.798-24.071,24.071c0,13.273,10.798,24.071,24.071,24.071   c13.273,0,24.071-10.798,24.071-24.071C442.266,307.727,431.468,296.929,418.194,296.929z M418.194,327.862   c-3.784,0-6.861-3.077-6.861-6.861c0-3.784,3.077-6.861,6.861-6.861c3.784,0,6.861,3.077,6.861,6.861   C425.056,324.784,421.979,327.862,418.194,327.862z"/>
	<path style="fill:#231F20;" d="M418.193,208.439c-18.597,0-33.725,15.13-33.725,33.726s15.129,33.726,33.725,33.726   c18.598,0,33.728-15.13,33.728-33.726S436.791,208.439,418.193,208.439z M418.193,258.683c-9.107,0-16.515-7.41-16.515-16.516   c0-9.106,7.409-16.516,16.515-16.516c9.108,0,16.518,7.41,16.518,16.516C434.712,251.273,427.302,258.683,418.193,258.683z"/>
	<path style="fill:#231F20;" d="M470.865,156.688c-3.361-3.359-8.809-3.359-12.171,0c-3.36,3.361-3.36,8.808,0,12.17   c23.277,23.277,36.096,54.222,36.096,87.139c0,67.952-55.283,123.235-123.234,123.235c-3.559,0-7.081-0.16-10.565-0.458   c2.328-3.82,4.18-7.927,5.497-12.245c1.388-4.546-1.172-9.355-5.717-10.742c-4.546-1.384-9.354,1.172-10.742,5.717   c-1.607,5.263-4.381,10.077-8.11,14.117c-0.282-0.07-0.565-0.136-0.845-0.207c-0.725-0.185-1.447-0.382-2.168-0.581   c-0.924-0.254-1.845-0.52-2.76-0.795c-0.643-0.194-1.285-0.389-1.925-0.594c-0.595-0.19-1.19-0.381-1.781-0.58   c-1.07-0.359-2.137-0.729-3.196-1.118c-0.451-0.166-0.895-0.341-1.343-0.511c-0.814-0.31-1.626-0.627-2.434-0.954   c-0.454-0.184-0.908-0.368-1.36-0.556c-1.121-0.47-2.236-0.952-3.343-1.455c-0.339-0.154-0.674-0.316-1.011-0.473   c-0.88-0.41-1.755-0.829-2.626-1.26c-0.4-0.198-0.801-0.395-1.199-0.597c-1.072-0.545-2.138-1.104-3.196-1.679   c-0.418-0.228-0.831-0.465-1.247-0.697c-0.705-0.395-1.406-0.797-2.103-1.206c-0.506-0.297-1.012-0.592-1.512-0.896   c-0.872-0.528-1.738-1.068-2.598-1.618c-0.695-0.445-1.381-0.9-2.066-1.359c-0.308-0.205-0.614-0.413-0.92-0.621   c-8.046-5.489-15.414-11.901-21.943-19.089c5.049-14.498,18.991-24.639,34.623-24.639c15.489,0,29.376,9.801,34.556,24.389   c1.59,4.477,6.509,6.824,10.989,5.23c4.478-1.591,6.821-6.51,5.23-10.989c-7.611-21.437-28.016-35.84-50.774-35.84   c-19.341,0-36.914,10.571-46.42,26.63c-10.383-15.777-17.24-34.069-19.445-53.749c-0.075-0.684-0.151-1.369-0.215-2.057   c-0.061-0.641-0.12-1.282-0.172-1.926c-0.001-0.008-0.001-0.014-0.001-0.022c-0.098-1.267-0.177-2.537-0.238-3.812   c-0.018-0.38-0.034-0.76-0.049-1.14c-0.003-0.078-0.006-0.157-0.009-0.236c-0.056-1.535-0.096-3.074-0.096-4.62   c0-1.547,0.04-3.087,0.096-4.623c0.003-0.079,0.006-0.156,0.009-0.234c0.014-0.38,0.031-0.76,0.049-1.139   c0.06-1.276,0.14-2.547,0.238-3.814c0.001-0.006,0.001-0.014,0.001-0.02c0.051-0.643,0.111-1.285,0.172-1.926   c0.065-0.687,0.14-1.371,0.215-2.056c6.888-61.472,59.174-109.42,122.455-109.42c23.124,0,45.659,6.439,65.17,18.622   c4.033,2.515,9.34,1.29,11.857-2.742c2.517-4.031,1.289-9.34-2.742-11.857c-22.248-13.892-47.934-21.234-74.286-21.234   c-29.453,0-56.811,9.12-79.416,24.675c-23.449-16.159-50.825-24.675-79.531-24.675c-30.563,0-59.622,9.651-84.033,27.906   c-24.592,18.39-42.734,44.704-51.08,74.096c-3.534,12.45-5.327,25.385-5.327,38.443c0,1.275,0.018,2.544,0.053,3.802   c0.009,0.299,0.019,0.597,0.032,0.895l0.015,0.351c0.029,0.845,0.061,1.692,0.105,2.527c0.022,0.392,0.046,0.784,0.072,1.176   l0.022,0.31c0.048,0.759,0.098,1.518,0.159,2.295c0.03,0.369,0.065,0.736,0.098,1.103l0.039,0.45   c0.067,0.725,0.134,1.45,0.212,2.176c0.057,0.53,0.118,1.06,0.182,1.592c0.084,0.706,0.171,1.412,0.262,2.099   c0.071,0.54,0.148,1.077,0.227,1.618c0.101,0.696,0.21,1.396,0.323,2.096c0.085,0.529,0.171,1.057,0.261,1.58   c0.122,0.7,0.25,1.4,0.381,2.09c0.097,0.515,0.194,1.03,0.291,1.523c0.143,0.724,0.297,1.442,0.449,2.138l0.061,0.284   c0.086,0.401,0.172,0.803,0.261,1.192c0.172,0.758,0.356,1.516,0.538,2.253l0.095,0.39c0.074,0.307,0.148,0.614,0.224,0.908   c0.232,0.915,0.48,1.822,0.73,2.722l0.217,0.809c0.33,1.163,0.677,2.319,1.047,3.511l0.304,0.935   c0.265,0.829,0.53,1.653,0.824,2.517l0.445,1.263c0.247,0.702,0.495,1.405,0.759,2.123c0.132,0.356,0.27,0.713,0.408,1.071   l0.118,0.309c0.25,0.656,0.502,1.31,0.77,1.987c0.193,0.478,0.388,0.954,0.583,1.425c0.262,0.636,0.527,1.27,0.794,1.891   c0.207,0.481,0.418,0.961,0.632,1.444c0.273,0.617,0.552,1.233,0.841,1.864c0.218,0.472,0.438,0.945,0.657,1.407   c0.291,0.615,0.589,1.227,0.895,1.848l0.082,0.166c0.201,0.409,0.402,0.816,0.604,1.215c0.287,0.565,0.58,1.127,0.872,1.688   l0.261,0.499c0.175,0.333,0.35,0.666,0.524,0.987c0.343,0.639,0.697,1.274,1.051,1.907l0.177,0.319   c0.17,0.308,0.341,0.615,0.498,0.886c0.41,0.717,0.83,1.427,1.242,2.119l0.16,0.273c0.138,0.236,0.276,0.471,0.406,0.684   c0.615,1.014,1.241,2.021,1.884,3.022l0.268,0.407c0.553,0.856,1.113,1.709,1.691,2.562c0.159,0.236,0.323,0.468,0.484,0.699   l0.204,0.293c0.443,0.643,0.887,1.284,1.343,1.922c0.198,0.276,0.398,0.551,0.6,0.825l0.468,0.638   c0.343,0.468,0.687,0.936,1.044,1.409c0.267,0.353,0.538,0.703,0.809,1.054l0.076,0.1c0.425,0.552,0.852,1.101,1.283,1.646   c0.312,0.393,0.626,0.781,0.941,1.167c0.437,0.539,0.876,1.075,1.313,1.594c0.317,0.38,0.637,0.758,0.975,1.155   c0.45,0.524,0.902,1.047,1.359,1.563c0.321,0.364,0.641,0.726,0.978,1.101c0.471,0.523,0.948,1.043,1.439,1.575l0.967,1.036   c0.51,0.538,1.026,1.07,1.538,1.595l0.264,0.271c0.221,0.228,0.44,0.454,0.662,0.677c0.582,0.584,1.17,1.158,1.789,1.762   l0.727,0.706c0.851,0.815,1.711,1.62,2.582,2.413c0.019,0.017,0.038,0.033,0.058,0.052c0.843,0.767,1.697,1.524,2.56,2.268   c0.008,0.006,0.014,0.013,0.019,0.017c0.1,0.089,0.202,0.177,0.309,0.265c6.148,5.289,12.808,10.079,19.803,14.241   c0.111,0.073,0.223,0.144,0.337,0.211c0.167,0.1,0.337,0.197,0.563,0.323c0.939,0.551,1.888,1.089,2.903,1.654l0.71,0.395   c1.203,0.657,2.417,1.297,3.599,1.897c0.253,0.129,0.51,0.255,0.764,0.381l0.115,0.056c0.963,0.483,1.93,0.954,2.912,1.418   l1.128,0.526c1.03,0.474,2.067,0.937,3.101,1.382l0.697,0.305c1.269,0.541,2.548,1.058,3.862,1.571l0.944,0.359   c0.997,0.381,1.997,0.75,2.985,1.101c0.404,0.145,0.809,0.288,1.179,0.415c1.122,0.389,2.252,0.765,3.387,1.125l0.61,0.198   c1.325,0.414,2.66,0.806,4.022,1.188l1.047,0.285c1.03,0.281,2.065,0.549,3.066,0.794c0.415,0.104,0.831,0.205,1.25,0.305   c1.211,0.288,2.427,0.56,3.602,0.807l0.543,0.118c1.375,0.282,2.758,0.539,4.148,0.782l1.167,0.195   c1.049,0.172,2.1,0.335,3.163,0.486c0.415,0.059,0.831,0.118,1.25,0.174c1.324,0.176,2.654,0.338,3.987,0.477l0.282,0.031   c1.423,0.145,2.853,0.264,4.295,0.368l1.232,0.077c1.079,0.068,2.162,0.123,3.267,0.166l1.248,0.047   c1.454,0.045,2.91,0.074,4.373,0.074c1.463,0,2.919-0.029,4.357-0.073l1.282-0.048c1.086-0.043,2.168-0.099,3.273-0.167   l1.214-0.077c1.435-0.103,2.867-0.222,4.228-0.361l0.341-0.037c1.336-0.139,2.666-0.3,3.981-0.477l1.265-0.175   c1.055-0.152,2.107-0.313,3.165-0.486l1.158-0.194c1.388-0.243,2.772-0.501,4.222-0.797l0.423-0.092   c1.222-0.256,2.437-0.529,3.659-0.821c0.411-0.098,0.822-0.199,1.199-0.293c1.039-0.255,2.074-0.523,3.111-0.806l1.063-0.288   c1.34-0.376,2.675-0.768,3.978-1.176l0.632-0.203c1.135-0.36,2.265-0.736,3.351-1.113c0.406-0.139,0.81-0.282,1.194-0.42   c1.008-0.358,2.008-0.729,2.993-1.105l0.982-0.373c1.286-0.503,2.565-1.021,3.819-1.554l0.705-0.308   c1.046-0.451,2.085-0.914,3.145-1.404l1.101-0.515c0.973-0.46,1.943-0.93,2.842-1.382l0.177-0.087   c0.255-0.125,0.511-0.251,0.719-0.358c1.227-0.621,2.441-1.262,3.586-1.889c0.18-0.097,0.357-0.196,0.534-0.295l0.294-0.162   c0.954-0.531,1.901-1.069,2.812-1.603l0.097-0.055c0.167-0.094,0.333-0.188,0.499-0.287c0.111-0.067,0.219-0.134,0.327-0.205   c2.585-1.539,5.18-3.225,7.765-5.012c0.509,0.351,1.018,0.699,1.532,1.043c0.628,0.419,1.257,0.837,1.892,1.247   c1.179,0.762,2.369,1.507,3.571,2.234c0.452,0.272,0.908,0.538,1.362,0.807c1.289,0.759,2.587,1.505,3.902,2.223   c0.216,0.118,0.433,0.236,0.651,0.353c1.409,0.762,2.836,1.494,4.275,2.208c0.297,0.147,0.593,0.298,0.891,0.443   c1.483,0.724,2.983,1.42,4.495,2.093c0.329,0.146,0.66,0.29,0.991,0.435c1.526,0.665,3.062,1.31,4.617,1.922   c0.251,0.099,0.503,0.19,0.754,0.287c1.369,0.53,2.75,1.038,4.14,1.525c0.378,0.132,0.752,0.27,1.13,0.399   c1.453,0.496,2.919,0.964,4.394,1.413c0.526,0.16,1.053,0.317,1.582,0.471c1.441,0.421,2.889,0.825,4.349,1.199   c0.489,0.126,0.981,0.24,1.471,0.359c1.242,0.304,2.491,0.594,3.746,0.865c0.307,0.067,0.609,0.147,0.915,0.212   c0.06,0.012,0.119,0.016,0.18,0.028c9.241,1.92,18.811,2.933,28.613,2.933c77.441,0,140.444-63.003,140.444-140.445   C512,218.484,497.391,183.215,470.865,156.688z M231.297,248.749c-0.013,0.253-0.018,0.507-0.03,0.759   c-0.011,0.243-0.019,0.487-0.029,0.73c-0.011,0.266-0.022,0.53-0.031,0.796c-0.015,0.43-0.037,0.859-0.047,1.291   c-0.031,1.22-0.047,2.443-0.047,3.67c0,1.226,0.016,2.449,0.047,3.668c0.011,0.431,0.033,0.861,0.047,1.292   c0.01,0.267,0.02,0.534,0.031,0.8c0.01,0.245,0.017,0.489,0.029,0.735c0.012,0.251,0.017,0.503,0.03,0.754   c1.331,26.498,9.941,51.5,24.692,72.715c-13.269,7.224-28.095,11.007-43.377,11.007h-0.001c-40.483,0-76.472-27.165-87.518-66.064   c-1.024-3.602-1.832-7.316-2.401-11.043c-0.231-1.511-0.427-3.043-0.58-4.549c-0.312-3.075-0.47-6.207-0.47-9.313   c0-1.049,0.025-2.09,0.06-3.137l0.03-0.781c0.043-1.034,0.097-2.063,0.176-3.097c0.077-1.026,0.18-2.044,0.296-3.099   c0.024-0.233,0.051-0.465,0.082-0.725c0.238-2.003,0.546-4.028,0.923-6.032l0.139-0.727c0.383-1.957,0.84-3.934,1.356-5.874   l0.191-0.707c0.531-1.929,1.128-3.849,1.787-5.742l0.229-0.65c0.672-1.881,1.404-3.739,2.186-5.543l0.278-0.636   c0.791-1.788,1.654-3.579,2.563-5.318l0.331-0.628c0.914-1.716,1.902-3.431,2.945-5.12l0.362-0.579   c4.366-6.937,9.651-13.258,15.705-18.79c0.028-0.025,0.057-0.052,0.084-0.077l0.768-0.683c0.266-0.239,0.531-0.476,0.826-0.734   c0.168-0.147,0.338-0.29,0.508-0.433l0.416-0.354c0.216-0.185,0.431-0.369,0.687-0.579c0.184-0.155,0.371-0.304,0.558-0.456   l0.273-0.222c0.273-0.223,0.548-0.443,0.785-0.635c0.283-0.223,0.567-0.442,0.867-0.673c0.273-0.211,0.546-0.422,0.817-0.626   l0.872-0.649c0.278-0.204,0.554-0.408,0.858-0.626c0.278-0.2,0.556-0.397,0.907-0.641c0.268-0.189,0.537-0.375,0.834-0.578   c0.294-0.202,0.592-0.401,0.893-0.602c0.285-0.191,0.57-0.379,0.85-0.56l0.12-0.079c0.256-0.166,0.513-0.332,0.833-0.534   c0.282-0.18,0.565-0.355,0.882-0.551c0.3-0.187,0.603-0.372,0.89-0.544c0.303-0.183,0.608-0.362,0.952-0.563l0.902-0.523   c0.291-0.166,0.583-0.329,0.928-0.517l0.152-0.084c0.259-0.144,0.52-0.289,0.787-0.433c0.284-0.154,0.57-0.302,0.857-0.452   c0.014-0.008,0.095-0.049,0.109-0.057c0.311-0.163,0.621-0.327,0.896-0.468c0.324-0.163,0.65-0.325,1.021-0.507l0.222-0.111   c0.232-0.115,0.464-0.231,0.689-0.34l1.944-0.904c0.395-0.177,0.792-0.349,1.25-0.546l0.975-0.418   c0.563-0.237,1.128-0.471,1.694-0.695l1.108-0.424c0.301-0.115,0.603-0.233,0.92-0.349l1.239-0.441   c0.265-0.094,0.529-0.188,0.814-0.285c0.212-0.073,0.425-0.143,0.639-0.212l2.381-0.753c0.374-0.113,0.748-0.226,1.1-0.329   l0.97-0.271c0.381-0.104,0.762-0.208,1.16-0.313l0.968-0.246c0.384-0.096,0.767-0.19,1.11-0.272l1.021-0.234   c0.384-0.086,0.771-0.17,1.146-0.248c0.337-0.071,0.676-0.14,0.984-0.202l2.206-0.41c0.387-0.068,0.776-0.131,1.196-0.199   c0.335-0.054,0.67-0.108,0.95-0.151l1.265-0.175c0.324-0.044,0.648-0.088,0.966-0.127c0.408-0.051,0.815-0.095,1.24-0.141   l0.99-0.109c0.332-0.032,0.664-0.061,0.997-0.089l1.278-0.106c0.387-0.029,0.777-0.052,1.165-0.073l1.032-0.065   c0.5-0.023,1.004-0.04,1.498-0.056l0.805-0.028c0.758-0.019,1.519-0.028,2.268-0.03c0.763,0.002,1.524,0.012,2.31,0.031   l0.771,0.027c0.502,0.016,1.005,0.032,1.468,0.055l1.068,0.066c0.388,0.023,0.779,0.044,1.219,0.077l1.231,0.103   c0.331,0.028,0.66,0.056,0.964,0.085l1.034,0.113c0.408,0.044,0.814,0.088,1.215,0.138c0.327,0.04,0.652,0.084,0.985,0.13   l1.196,0.166c0.338,0.051,0.674,0.104,1.04,0.163c0.387,0.061,0.776,0.125,1.168,0.194l2.167,0.402   c0.338,0.068,0.678,0.137,1.009,0.205c0.386,0.082,0.771,0.165,1.104,0.24l1.025,0.234c0.385,0.092,0.771,0.187,1.134,0.277   l2.1,0.552l4.463,1.354c0.227,0.073,0.454,0.147,0.698,0.231c0.293,0.1,0.583,0.203,0.874,0.307l1.182,0.421   c0.296,0.109,0.588,0.222,0.881,0.336l1.123,0.428c0.568,0.225,1.135,0.459,1.716,0.702l0.961,0.412   c0.417,0.18,0.831,0.359,1.253,0.549l3.012,1.432c0.278,0.137,0.555,0.272,0.828,0.412c0.307,0.157,0.609,0.315,0.961,0.502   l0.138,0.071c0.268,0.139,0.536,0.279,0.797,0.421c0.099,0.053,0.198,0.106,0.296,0.161   C241.241,197.241,232.627,222.246,231.297,248.749z M275.303,362.105c-0.091,0.054-0.181,0.11-0.27,0.167l-0.289,0.164   c-0.83,0.487-1.668,0.963-2.436,1.391l-0.733,0.406c-1.046,0.572-2.096,1.127-3.204,1.689l-0.738,0.366   c-0.84,0.423-1.686,0.831-2.537,1.235l-0.981,0.457c-0.898,0.415-1.805,0.82-2.731,1.219l-0.612,0.268   c-1.107,0.471-2.223,0.924-3.311,1.349l-0.881,0.335c-0.874,0.335-1.751,0.658-2.655,0.98c-0.329,0.117-0.659,0.236-1.026,0.36   c-0.973,0.339-1.952,0.664-2.924,0.971l-0.556,0.181c-1.163,0.364-2.336,0.707-3.484,1.029l-0.965,0.261   c-0.894,0.243-1.794,0.477-2.729,0.706c-0.354,0.089-0.708,0.175-1.05,0.257c-1.063,0.252-2.129,0.492-3.225,0.722l-0.394,0.086   c-1.211,0.248-2.432,0.475-3.654,0.689l-1.004,0.167c-0.93,0.154-1.864,0.296-2.879,0.441l-1.023,0.142   c-1.156,0.156-2.318,0.296-3.41,0.411l-0.326,0.034c-1.25,0.128-2.507,0.232-3.765,0.323l-1.082,0.068   c-0.949,0.059-1.898,0.109-2.833,0.145l-1.143,0.043c-1.278,0.039-2.557,0.067-3.843,0.067h-0.001   c-1.286,0-2.566-0.027-3.859-0.068l-1.108-0.042c-0.954-0.037-1.905-0.086-2.826-0.144l-1.104-0.069   c-1.262-0.09-2.519-0.195-3.752-0.321l-0.265-0.029c-1.169-0.122-2.332-0.262-3.489-0.418l-1.098-0.153   c-0.938-0.134-1.872-0.279-2.793-0.429l-1.012-0.168c-1.224-0.213-2.443-0.441-3.592-0.676l-0.482-0.105   c-1.072-0.225-2.136-0.465-3.197-0.716c-0.351-0.083-0.698-0.168-1.085-0.265c-0.902-0.222-1.803-0.456-2.683-0.695l-0.952-0.257   c-1.177-0.33-2.349-0.673-3.545-1.048l-0.509-0.166c-0.984-0.312-1.963-0.637-2.974-0.989c-0.33-0.112-0.66-0.23-1.006-0.354   c-0.883-0.314-1.762-0.64-2.659-0.982l-0.825-0.312c-1.123-0.438-2.241-0.891-3.351-1.364l-0.617-0.271   c-0.915-0.395-1.823-0.8-2.75-1.227l-0.953-0.444c-0.852-0.403-1.697-0.813-2.6-1.267l-0.716-0.355   c-1.064-0.54-2.121-1.096-3.184-1.678l-0.636-0.354c-0.841-0.469-1.679-0.943-2.54-1.449l-0.25-0.141   c-0.093-0.06-0.187-0.118-0.283-0.174c-6.281-3.718-12.255-8.011-17.758-12.758c-0.031-0.027-0.063-0.054-0.095-0.081   c-0.794-0.684-1.579-1.38-2.353-2.085c-0.016-0.014-0.031-0.027-0.047-0.042c-0.749-0.682-1.489-1.374-2.227-2.081l-0.646-0.629   c-0.527-0.514-1.055-1.027-1.575-1.549l-0.8-0.822c-0.459-0.47-0.915-0.941-1.355-1.405l-0.845-0.907   c-0.425-0.46-0.851-0.923-1.257-1.375l-0.872-0.983c-0.406-0.459-0.806-0.922-1.186-1.366c-0.286-0.336-0.571-0.672-0.864-1.022   c-0.386-0.461-0.767-0.925-1.147-1.394c-0.275-0.339-0.552-0.678-0.826-1.023c-0.379-0.477-0.752-0.961-1.132-1.452l-0.085-0.111   c-0.236-0.304-0.471-0.608-0.695-0.907c-0.304-0.402-0.603-0.81-0.901-1.217l-0.945-1.295c-0.396-0.554-0.784-1.113-1.181-1.689   l-0.602-0.868c-0.502-0.741-0.996-1.493-1.496-2.266l-0.226-0.341c-0.563-0.877-1.111-1.76-1.664-2.669l-0.475-0.807   c-0.368-0.616-0.737-1.236-1.112-1.895c-0.125-0.217-0.246-0.437-0.369-0.657l-0.204-0.368c-0.313-0.56-0.626-1.122-0.936-1.696   c-0.144-0.265-0.283-0.531-0.424-0.798l-0.254-0.486c-0.258-0.494-0.516-0.988-0.773-1.493c-0.174-0.344-0.344-0.691-0.515-1.038   l-0.077-0.158c-0.265-0.538-0.528-1.078-0.788-1.629c-0.198-0.415-0.392-0.833-0.575-1.232c-0.248-0.542-0.496-1.089-0.739-1.635   c-0.186-0.421-0.37-0.838-0.555-1.268c-0.237-0.551-0.467-1.105-0.698-1.665c-0.173-0.42-0.346-0.838-0.507-1.236   c-0.229-0.575-0.452-1.153-0.677-1.745l-0.466-1.219c-0.227-0.615-0.443-1.233-0.658-1.846l-0.403-1.141   c-0.245-0.719-0.477-1.442-0.721-2.207l-0.267-0.814c-0.315-1.012-0.62-2.031-0.907-3.042l-0.194-0.72   c-0.218-0.79-0.435-1.58-0.641-2.388l-0.282-1.154c-0.16-0.65-0.319-1.303-0.47-1.969c-0.074-0.323-0.143-0.645-0.212-0.967   l-0.069-0.325c-0.133-0.61-0.265-1.222-0.39-1.858c-0.088-0.441-0.17-0.883-0.26-1.362c-0.114-0.608-0.227-1.218-0.333-1.835   c-0.081-0.46-0.155-0.919-0.228-1.372c-0.099-0.612-0.194-1.228-0.283-1.838c-0.068-0.461-0.133-0.922-0.197-1.403   c-0.083-0.618-0.159-1.24-0.233-1.859c-0.055-0.468-0.11-0.934-0.159-1.4c-0.069-0.634-0.128-1.27-0.185-1.897l-0.123-1.37   c-0.053-0.666-0.096-1.337-0.14-2.031l-0.025-0.361c-0.019-0.303-0.041-0.608-0.058-0.922c-0.039-0.737-0.066-1.476-0.093-2.241   l-0.042-1.093c-0.03-1.108-0.046-2.22-0.046-3.338c0-11.468,1.573-22.821,4.674-33.74c7.324-25.782,23.245-48.872,44.833-65.015   c21.414-16.014,46.907-24.478,73.728-24.478c23.345,0,45.689,6.415,65.209,18.638c-3.893,3.476-7.56,7.142-11.003,10.971   l-0.72-0.422c-0.385-0.221-0.774-0.436-1.109-0.618l-0.148-0.083c-0.322-0.179-0.643-0.357-0.968-0.532   c-0.339-0.183-0.681-0.361-1.022-0.539l-0.085-0.044c-0.379-0.2-0.754-0.398-1.137-0.594c-0.354-0.181-0.711-0.356-1.068-0.531   l-2.719-1.302c-0.273-0.128-0.547-0.255-0.814-0.376c-0.501-0.226-1.007-0.443-1.507-0.659l-0.251-0.109   c-0.299-0.129-0.598-0.258-0.881-0.378c-0.673-0.283-1.35-0.56-2.035-0.831c-0.233-0.091-0.469-0.181-0.703-0.269l-0.529-0.202   c-0.393-0.153-0.784-0.302-1.167-0.443c-0.276-0.101-0.554-0.199-0.831-0.296l-0.497-0.175c-0.365-0.13-0.73-0.26-1.078-0.38   c-0.316-0.109-0.635-0.212-0.953-0.315l-0.487-0.159c-0.338-0.112-0.678-0.223-1.055-0.341l-1.347-0.41   c-0.365-0.11-0.73-0.219-1.116-0.331l-1.186-0.332c-0.431-0.117-0.865-0.236-1.3-0.351c-0.317-0.084-0.637-0.163-0.955-0.245   l-0.247-0.062c-0.44-0.11-0.882-0.218-1.37-0.336l-1.179-0.27c-0.446-0.1-0.894-0.197-1.351-0.293   c-0.4-0.084-0.801-0.166-1.231-0.251l-2.547-0.473c-0.471-0.082-0.942-0.158-1.384-0.229c-0.401-0.066-0.803-0.129-1.26-0.198   l-1.369-0.191c-0.408-0.056-0.815-0.111-1.228-0.16c-0.487-0.06-0.978-0.114-1.449-0.165l-1.19-0.129   c-0.402-0.039-0.806-0.073-1.21-0.109l-0.599-0.052c-0.289-0.024-0.577-0.049-0.813-0.067c-0.501-0.038-1.002-0.068-1.504-0.097   l-0.331-0.022c-0.288-0.018-0.575-0.037-0.899-0.053c-0.589-0.027-1.18-0.048-1.778-0.067l-0.276-0.011   c-0.211-0.009-0.422-0.016-0.606-0.02c-0.89-0.023-1.783-0.034-2.749-0.037c-0.896,0.002-1.789,0.014-2.653,0.036   c-0.21,0.005-0.421,0.013-0.63,0.022l-0.285,0.011c-0.591,0.018-1.184,0.039-1.807,0.068c-0.291,0.015-0.581,0.033-0.871,0.053   l-0.324,0.02c-0.501,0.028-1.004,0.059-1.447,0.094c-0.291,0.02-0.584,0.045-0.874,0.07l-0.587,0.049   c-0.407,0.034-0.812,0.069-1.24,0.112l-1.148,0.125c-0.488,0.053-0.978,0.108-1.471,0.167c-0.41,0.051-0.817,0.105-1.212,0.159   l-1.434,0.2c-0.404,0.061-0.808,0.125-1.176,0.185c-0.472,0.075-0.943,0.153-1.408,0.233l-2.578,0.479   c-0.403,0.08-0.805,0.162-1.219,0.248c-0.447,0.096-0.893,0.193-1.383,0.301l-1.175,0.27c-0.445,0.105-0.887,0.214-1.348,0.329   l-0.162,0.041c-0.343,0.086-0.686,0.172-1.013,0.259c-0.439,0.115-0.874,0.234-1.36,0.367l-1.162,0.325   c-0.44,0.128-0.879,0.259-1.327,0.396l-2.699,0.854c-0.303,0.098-0.607,0.198-0.888,0.294c-0.337,0.115-0.672,0.234-1.009,0.354   l-0.606,0.214c-0.273,0.096-0.546,0.193-0.803,0.287c-0.397,0.146-0.792,0.298-1.188,0.451l-0.489,0.187   c-0.244,0.092-0.488,0.185-0.734,0.282c-0.681,0.269-1.357,0.548-2.014,0.823c-0.301,0.126-0.6,0.255-0.899,0.384l-0.316,0.137   c-0.481,0.208-0.964,0.416-1.434,0.628c-0.265,0.118-0.528,0.242-0.793,0.366l-0.73,0.339c-0.265,0.123-0.529,0.246-0.799,0.375   c-0.31,0.15-0.615,0.3-0.922,0.454l-0.161,0.081c-0.39,0.191-0.785,0.385-1.214,0.603c-0.375,0.193-0.745,0.386-1.148,0.599   c-0.366,0.19-0.732,0.381-1.089,0.573c-0.324,0.175-0.646,0.354-0.968,0.534l-0.092,0.052c-0.387,0.212-0.777,0.427-1.16,0.648   c-0.351,0.2-0.697,0.402-1.093,0.634c-0.361,0.211-0.723,0.425-1.098,0.65c-0.369,0.223-0.737,0.447-1.069,0.654   c-0.371,0.228-0.739,0.456-1.042,0.651c-0.329,0.205-0.654,0.417-0.981,0.628l-0.125,0.081c-0.353,0.229-0.703,0.46-1.05,0.692   c-0.36,0.241-0.719,0.481-1.048,0.707c-0.357,0.243-0.712,0.487-0.994,0.688c-0.371,0.257-0.74,0.517-1.08,0.765   c-0.337,0.241-0.669,0.485-1.018,0.74c-0.338,0.251-0.681,0.503-1.021,0.76c-0.331,0.25-0.659,0.502-0.973,0.745   c-0.339,0.259-0.676,0.521-1.049,0.815c-0.327,0.26-0.651,0.523-0.953,0.769l-0.225,0.182c-0.256,0.208-0.513,0.416-0.732,0.598   c-0.29,0.241-0.578,0.484-0.866,0.73l-0.37,0.314c-0.242,0.205-0.485,0.412-0.7,0.601c-0.341,0.296-0.679,0.598-0.965,0.857   l-0.885,0.786c-0.009,0.009-0.086,0.08-0.096,0.087c-0.042,0.039-0.084,0.077-0.126,0.117c-7.151,6.551-13.395,14.029-18.537,22.2   c-0.159,0.252-0.319,0.507-0.466,0.743c-1.227,1.985-2.4,4.025-3.503,6.096l-0.378,0.715c-1.084,2.074-2.11,4.204-3.059,6.349   l-0.331,0.757c-0.922,2.127-1.794,4.338-2.593,6.575c-0.101,0.284-0.203,0.568-0.288,0.82c-0.77,2.213-1.48,4.496-2.115,6.797   l-0.229,0.847c-0.613,2.307-1.155,4.657-1.613,6.994l-0.167,0.872c-0.444,2.372-0.813,4.784-1.092,7.142   c-0.039,0.321-0.075,0.642-0.106,0.925c-0.133,1.212-0.254,2.426-0.345,3.642c-0.094,1.224-0.159,2.452-0.21,3.66l-0.035,0.941   c-0.042,1.234-0.07,2.472-0.07,3.717c0,3.682,0.188,7.399,0.558,11.05c0.183,1.796,0.414,3.617,0.689,5.411   c0.677,4.434,1.638,8.859,2.859,13.148c13.137,46.261,55.934,78.569,104.073,78.569c19.18,0,37.76-5.017,54.198-14.563   c3.441,3.827,7.105,7.492,10.994,10.967C276.969,361.104,276.135,361.613,275.303,362.105z"/>
</g>
<g>
</g>
<g>
</g>
<g>
</g>
<g>
</g>
<g>
</g>
<g>
</g>
<g>
</g>
<g>
</g>
<g>
</g>
<g>
</g>
<g>
</g>
<g>
</g>
<g>
</g>
<g>
</g>
<g>
</g>
</svg>
