<?xml version="1.0" encoding="iso-8859-1"?>
<!-- Generator: Adobe Illustrator 19.0.0, SVG Export Plug-In . SVG Version: 6.00 Build 0)  -->
<svg xmlns="http://www.w3.org/2000/svg" xmlns:xlink="http://www.w3.org/1999/xlink" version="1.1" id="Layer_1" x="0px" y="0px" viewBox="0 0 512 512" style="enable-background:new 0 0 512 512;" xml:space="preserve">
<path style="fill:#EDE21B;" d="M272.145,206.594c-31.435-14.847-53.237-46.86-53.237-83.869c0-20.509,6.566-39.943,18.988-56.207  c1.624-2.127,1.594-5.089-0.078-7.182c-1.67-2.092-4.551-2.78-6.985-1.663c-18.915,8.65-34.953,22.442-46.381,39.882  c-11.731,17.902-17.931,38.725-17.931,60.218c0,60.667,49.357,110.025,110.025,110.025c21.494,0,42.317-6.2,60.22-17.931  c17.441-11.428,31.232-27.465,39.884-46.382c1.113-2.435,0.426-5.317-1.666-6.986c-2.093-1.67-5.054-1.701-7.181-0.078  c-16.262,12.423-35.699,18.99-56.207,18.99c-3.881,0-7.706-0.241-11.463-0.704"/>
<path style="fill:#EAC71C;" d="M358.637,228.42c-17.902,11.731-38.725,17.931-60.218,17.931  c-60.667,0-110.025-49.357-110.025-110.025c0-21.494,6.2-42.317,17.931-60.218c1.055-1.607,2.159-3.172,3.29-4.717  c-6.902,6.261-13.027,13.399-18.201,21.294c-11.731,17.902-17.931,38.725-17.931,60.218c0,60.667,49.357,110.025,110.024,110.025  c21.494,0,42.317-6.2,60.22-17.931c11.184-7.327,20.857-16.561,28.647-27.224C368.099,221.655,363.518,225.223,358.637,228.42z"/>
<g>
	<circle style="fill:#F29F26;" cx="133.717" cy="244.11" r="18.226"/>
	<path style="fill:#F29F26;" d="M336.886,111.654c-20.236,0-36.643-16.407-36.643-36.644c0,20.237-16.407,36.644-36.645,36.644   c20.238,0,36.645,16.407,36.645,36.644C300.243,128.06,316.65,111.654,336.886,111.654z"/>
</g>
<g>
	<path style="fill:#231F20;" d="M503.365,293.166H8.635c-4.768,0-8.635,3.866-8.635,8.635s3.866,8.635,8.635,8.635h494.731   c4.768,0,8.635-3.866,8.635-8.635S508.134,293.166,503.365,293.166z"/>
	<path style="fill:#231F20;" d="M473.043,344.19h-29.117c-4.768,0-8.635,3.866-8.635,8.635s3.866,8.635,8.635,8.635h29.117   c4.768,0,8.635-3.866,8.635-8.635S477.811,344.19,473.043,344.19z"/>
	<path style="fill:#231F20;" d="M424.497,352.824c0-4.768-3.866-8.635-8.635-8.635H38.957c-4.77,0-8.635,3.866-8.635,8.635   s3.865,8.635,8.635,8.635h376.906C420.631,361.459,424.497,357.593,424.497,352.824z"/>
	<path style="fill:#231F20;" d="M432.658,395.208H192.439c-4.77,0-8.635,3.866-8.635,8.635s3.865,8.635,8.635,8.635h240.219   c4.768,0,8.635-3.866,8.635-8.635S437.427,395.208,432.658,395.208z"/>
	<path style="fill:#231F20;" d="M171.935,403.843c0-4.768-3.865-8.635-8.635-8.635H79.342c-4.77,0-8.635,3.866-8.635,8.635   s3.865,8.635,8.635,8.635H163.3C168.068,412.477,171.935,408.611,171.935,403.843z"/>
	<path style="fill:#231F20;" d="M389.117,446.232H291.74c-4.768,0-8.635,3.866-8.635,8.635s3.866,8.635,8.635,8.635h97.377   c4.768,0,8.635-3.866,8.635-8.635S393.886,446.232,389.117,446.232z"/>
	<path style="fill:#231F20;" d="M261.516,446.232H122.884c-4.768,0-8.635,3.866-8.635,8.635s3.866,8.635,8.635,8.635h138.631   c4.768,0,8.635-3.866,8.635-8.635S266.284,446.232,261.516,446.232z"/>
	<path style="fill:#231F20;" d="M276.545,276.432c23.181,0,45.64-6.689,64.952-19.344c18.803-12.32,33.673-29.614,43.004-50.014   c2.766-6.051,1.066-13.175-4.135-17.326c-5.196-4.146-12.519-4.224-17.807-0.19c-14.745,11.264-32.368,17.216-50.965,17.216   c-3.469,0-6.97-0.215-10.407-0.639c-4.722-0.58-9.043,2.778-9.626,7.512c-0.585,4.733,2.778,9.043,7.512,9.626   c4.135,0.511,8.346,0.77,12.521,0.77c18.603,0,36.4-4.943,52.077-14.385c-7.87,13.203-18.658,24.479-31.639,32.985   c-16.491,10.807-35.679,16.519-55.487,16.519c-55.907,0-101.389-45.484-101.389-101.39c0-19.809,5.712-38.996,16.519-55.486   c8.505-12.98,19.779-23.767,32.984-31.638c-9.442,15.677-14.384,33.474-14.384,52.075c0,38.997,22.839,74.982,58.184,91.675   c4.315,2.038,9.459,0.191,11.495-4.119c2.038-4.312,0.193-9.459-4.119-11.495c-29.336-13.855-48.291-43.711-48.291-76.062   c0-18.597,5.954-36.221,17.216-50.967c4.038-5.288,3.959-12.613-0.192-17.81c-4.155-5.206-11.284-6.901-17.324-4.128   c-20.399,9.326-37.692,24.196-50.016,43.002c-12.655,19.311-19.344,41.77-19.344,64.951   C157.886,223.202,211.117,276.432,276.545,276.432z"/>
	<path style="fill:#231F20;" d="M133.714,270.973c14.811,0,26.861-12.051,26.861-26.863c0-14.811-12.05-26.861-26.861-26.861   c-14.812,0.001-26.861,12.051-26.861,26.861C106.853,258.923,118.902,270.973,133.714,270.973z M133.714,234.519   c5.289,0,9.592,4.302,9.592,9.592s-4.303,9.594-9.592,9.594s-9.592-4.304-9.592-9.595   C124.122,238.821,128.425,234.519,133.714,234.519z"/>
	<path style="fill:#231F20;" d="M337.43,162.472c0,5.981,4.847,10.827,10.829,10.827c5.98,0,10.829-4.846,10.829-10.827   c0-5.983-4.848-10.829-10.829-10.829C342.277,151.643,337.43,156.49,337.43,162.472z"/>
	<path style="fill:#231F20;" d="M263.598,120.288c15.446,0,28.011,12.565,28.011,28.009c0,4.768,3.866,8.635,8.635,8.635   s8.635-3.866,8.635-8.635c0-15.445,12.565-28.009,28.008-28.009c4.768,0,8.635-3.866,8.635-8.635s-3.866-8.635-8.635-8.635   c-15.443,0-28.008-12.565-28.008-28.009c0-4.768-3.866-8.635-8.635-8.635s-8.635,3.866-8.635,8.635   c0,15.445-12.565,28.009-28.01,28.009c-4.768,0-8.635,3.866-8.635,8.635S258.829,120.288,263.598,120.288z M300.243,101.578   c2.808,3.862,6.214,7.267,10.074,10.075c-3.861,2.808-7.266,6.214-10.074,10.075c-2.808-3.862-6.214-7.267-10.075-10.075   C294.029,108.845,297.435,105.44,300.243,101.578z"/>
</g>
<g>
</g>
<g>
</g>
<g>
</g>
<g>
</g>
<g>
</g>
<g>
</g>
<g>
</g>
<g>
</g>
<g>
</g>
<g>
</g>
<g>
</g>
<g>
</g>
<g>
</g>
<g>
</g>
<g>
</g>
</svg>
