<?xml version="1.0" encoding="iso-8859-1"?>
<!-- Generator: Adobe Illustrator 19.0.0, SVG Export Plug-In . SVG Version: 6.00 Build 0)  -->
<svg xmlns="http://www.w3.org/2000/svg" xmlns:xlink="http://www.w3.org/1999/xlink" version="1.1" id="Layer_1" x="0px" y="0px" viewBox="0 0 512 512" style="enable-background:new 0 0 512 512;" xml:space="preserve">
<path style="fill:#EAC71C;" d="M403.065,334.52c8.229-19.264,12.796-40.465,12.796-62.739c0-88.288-71.573-159.861-159.861-159.861  S96.139,183.493,96.139,271.781c0,22.274,4.57,43.475,12.797,62.739H403.065z"/>
<path style="fill:#EDE21B;" d="M413.229,325.579c5.785-16.619,8.938-34.472,8.938-53.063c0-89.146-72.266-161.415-161.413-161.415  c-5.182,0-10.301,0.254-15.358,0.732c-38.613,29.813-63.488,76.554-63.488,129.11c0,30.998,8.666,59.965,23.688,84.636  L413.229,325.579L413.229,325.579z"/>
<path style="fill:#EF8229;" d="M359.009,334.52c11.187-18.301,17.636-39.813,17.636-62.832c0-66.629-54.015-120.644-120.644-120.644  S135.356,205.06,135.356,271.688c0,23.019,6.449,44.531,17.636,62.832H359.009z"/>
<path style="fill:#F29F26;" d="M365.732,325.579c7.818-15.705,12.219-33.409,12.219-52.145c0-17.486-3.828-34.078-10.697-48.984  l-17.823-27.644c-21.489-24.847-53.247-40.568-88.677-40.568c-24.254,0-46.789,7.368-65.484,19.988  c-8.59,19.842-13.361,41.72-13.361,64.717c0,30.994,8.652,59.965,23.667,84.636L365.732,325.579L365.732,325.579z"/>
<g>
	<path style="fill:#231F20;" d="M256.002,82.691c-4.768,0-8.635-3.866-8.635-8.635v-49.64c0-4.768,3.866-8.635,8.635-8.635   c4.768,0,8.635,3.866,8.635,8.635v49.64C264.636,78.825,260.769,82.691,256.002,82.691z"/>
	<path style="fill:#231F20;" d="M157.147,109.182c-2.985,0-5.887-1.549-7.487-4.318l-24.819-42.99   c-2.384-4.129-0.968-9.412,3.161-11.796c4.133-2.383,9.411-0.967,11.796,3.161l24.819,42.99c2.384,4.129,0.968,9.412-3.161,11.796   C160.095,108.809,158.61,109.182,157.147,109.182z"/>
	<path style="fill:#231F20;" d="M84.758,181.554c-1.465,0-2.949-0.373-4.309-1.158l-42.99-24.821   c-4.129-2.384-5.546-7.665-3.16-11.795c2.384-4.131,7.665-5.544,11.795-3.16l42.99,24.821c4.129,2.384,5.546,7.665,3.16,11.795   C90.644,180.006,87.742,181.554,84.758,181.554z"/>
	<path style="fill:#231F20;" d="M58.275,280.416H8.636c-4.768,0-8.635-3.866-8.635-8.635s3.866-8.635,8.635-8.635h49.639   c4.768,0,8.635,3.866,8.635,8.635S63.043,280.416,58.275,280.416z"/>
	<path style="fill:#231F20;" d="M503.365,280.416h-49.64c-4.768,0-8.635-3.866-8.635-8.635s3.866-8.635,8.635-8.635h49.64   c4.768,0,8.635,3.866,8.635,8.635S508.134,280.416,503.365,280.416z"/>
	<path style="fill:#231F20;" d="M427.244,181.554c-2.985,0-5.887-1.548-7.486-4.318c-2.385-4.129-0.969-9.411,3.16-11.795   l42.989-24.821c4.132-2.385,9.412-0.968,11.795,3.16c2.385,4.129,0.969,9.411-3.16,11.795l-42.989,24.821   C430.193,181.181,428.708,181.554,427.244,181.554z"/>
	<path style="fill:#231F20;" d="M354.853,109.182c-1.465,0-2.949-0.373-4.309-1.158c-4.129-2.384-5.546-7.665-3.16-11.795   l24.821-42.99c2.383-4.129,7.665-5.544,11.795-3.16s5.546,7.665,3.16,11.795l-24.821,42.99   C360.74,107.634,357.838,109.182,354.853,109.182z"/>
	<path style="fill:#231F20;" d="M403.065,343.155H108.938c-3.458,0-6.583-2.063-7.941-5.243   c-8.952-20.96-13.491-43.209-13.491-66.13c0-92.909,75.587-168.496,168.496-168.496s168.496,75.587,168.496,168.496   c0,22.925-4.539,45.175-13.492,66.13C409.648,341.091,406.524,343.155,403.065,343.155z M114.752,325.885H397.25   c6.624-17.254,9.977-35.425,9.977-54.104c0-83.387-67.841-151.227-151.227-151.227s-151.227,67.84-151.227,151.227   C104.774,290.455,108.128,308.627,114.752,325.885z"/>
	<path style="fill:#231F20;" d="M359.161,343.155H152.825c-3.011,0-5.807-1.569-7.373-4.141   c-12.314-20.207-18.822-43.456-18.822-67.232c0-71.337,58.035-129.372,129.372-129.372c35.428,0,68.491,14.043,93.1,39.542   c3.31,3.432,3.214,8.898-0.217,12.21c-3.432,3.31-8.897,3.213-12.21-0.217c-21.324-22.097-49.975-34.265-80.673-34.265   c-61.813,0-112.102,50.29-112.102,112.102c0,18.999,4.791,37.602,13.897,54.104h196.395c9.116-16.515,13.915-35.119,13.915-54.104   c0-6.483-0.558-12.981-1.656-19.314c-0.816-4.699,2.332-9.169,7.031-9.984c4.699-0.825,9.169,2.331,9.984,7.031   c1.268,7.305,1.911,14.797,1.911,22.267c0,23.761-6.515,47.01-18.841,67.232C364.966,341.585,362.172,343.155,359.161,343.155z"/>
	<path style="fill:#231F20;" d="M374.946,259.626c-4.121,0-7.768-2.96-8.496-7.159c-2.391-13.771-7.288-26.822-14.557-38.789   c-2.475-4.076-1.179-9.387,2.897-11.863c4.077-2.476,9.387-1.178,11.863,2.898c8.394,13.821,14.051,28.893,16.81,44.8   c0.816,4.699-2.332,9.169-7.031,9.984C375.933,259.585,375.436,259.626,374.946,259.626z"/>
	<path style="fill:#231F20;" d="M503.365,343.155H8.635c-4.768,0-8.635-3.866-8.635-8.635s3.866-8.635,8.635-8.635h494.731   c4.768,0,8.635,3.866,8.635,8.635C512,339.287,508.134,343.155,503.365,343.155z"/>
	<path style="fill:#231F20;" d="M473.043,394.176h-29.117c-4.768,0-8.635-3.866-8.635-8.635s3.866-8.635,8.635-8.635h29.117   c4.768,0,8.635,3.866,8.635,8.635S477.811,394.176,473.043,394.176z"/>
	<path style="fill:#231F20;" d="M415.863,394.176H38.957c-4.768,0-8.635-3.866-8.635-8.635s3.866-8.635,8.635-8.635h376.906   c4.768,0,8.635,3.866,8.635,8.635S420.631,394.176,415.863,394.176z"/>
	<path style="fill:#231F20;" d="M432.658,445.196H192.439c-4.768,0-8.635-3.866-8.635-8.635s3.866-8.635,8.635-8.635h240.219   c4.768,0,8.635,3.866,8.635,8.635C441.293,441.33,437.427,445.196,432.658,445.196z"/>
	<path style="fill:#231F20;" d="M163.3,445.196H79.342c-4.768,0-8.635-3.866-8.635-8.635s3.866-8.635,8.635-8.635H163.3   c4.768,0,8.635,3.866,8.635,8.635C171.935,441.33,168.068,445.196,163.3,445.196z"/>
	<path style="fill:#231F20;" d="M389.118,496.218h-97.377c-4.768,0-8.635-3.866-8.635-8.635s3.866-8.635,8.635-8.635h97.377   c4.768,0,8.635,3.866,8.635,8.635S393.887,496.218,389.118,496.218z"/>
	<path style="fill:#231F20;" d="M261.516,496.218H122.885c-4.768,0-8.635-3.866-8.635-8.635s3.866-8.635,8.635-8.635h138.631   c4.768,0,8.635,3.866,8.635,8.635S266.284,496.218,261.516,496.218z"/>
</g>
<g>
</g>
<g>
</g>
<g>
</g>
<g>
</g>
<g>
</g>
<g>
</g>
<g>
</g>
<g>
</g>
<g>
</g>
<g>
</g>
<g>
</g>
<g>
</g>
<g>
</g>
<g>
</g>
<g>
</g>
</svg>
