<?xml version="1.0" encoding="iso-8859-1"?>
<!-- Generator: Adobe Illustrator 19.0.0, SVG Export Plug-In . SVG Version: 6.00 Build 0)  -->
<svg xmlns="http://www.w3.org/2000/svg" xmlns:xlink="http://www.w3.org/1999/xlink" version="1.1" id="Layer_1" x="0px" y="0px" viewBox="0 0 512 512" style="enable-background:new 0 0 512 512;" xml:space="preserve">
<path style="fill:#EAC71C;" d="M136.432,371.859h201.196c28.922-26.948,47.017-65.368,47.017-108.019  c0-81.525-66.089-147.615-147.614-147.615c-81.526,0-147.616,66.091-147.616,147.615C89.413,306.491,107.509,344.91,136.432,371.859  z"/>
<path style="fill:#EDE21B;" d="M236.081,116.225c-4.737,0-9.419,0.233-14.043,0.669c-35.312,27.265-58.063,70.009-58.063,118.073  c0,61.328,37.034,113.999,89.956,136.893h82.747c28.922-26.948,47.017-65.368,47.017-108.019  C383.696,182.316,317.607,116.225,236.081,116.225z"/>
<path style="fill:#EF8229;" d="M334.425,219.884c6.281,13.63,9.782,28.804,9.782,44.795c0,59.193-47.983,107.179-107.178,107.179  c-59.192,0-107.178-47.986-107.178-107.179c0-59.192,47.985-107.177,107.178-107.177c32.402,0,61.443,14.377,81.096,37.1"/>
<path style="fill:#F29F26;" d="M333.476,219.884l-16.299-25.28c-19.653-22.722-48.695-37.1-81.096-37.1  c-22.181,0-42.786,6.739-59.884,18.279c-7.857,18.146-12.221,38.154-12.221,59.185c0,60.36,35.872,112.341,87.459,135.792  c51.918-7.449,91.823-52.1,91.823-106.078C343.258,248.688,339.757,233.515,333.476,219.884z"/>
<g>
	<path style="fill:#231F20;" d="M237.029,89.876c4.757,0,8.613-3.856,8.613-8.613v-45.84c0-4.757-3.857-8.613-8.613-8.613   s-8.613,3.856-8.613,8.613v45.839C228.416,86.019,232.273,89.876,237.029,89.876z"/>
	<path style="fill:#231F20;" d="M138.282,110.029c1.594,2.763,4.49,4.308,7.468,4.308c1.46,0,2.941-0.373,4.298-1.155   c4.119-2.378,5.532-7.646,3.152-11.765l-22.92-39.697c-2.377-4.117-7.644-5.532-11.765-3.152   c-4.119,2.378-5.532,7.646-3.152,11.765L138.282,110.029z"/>
	<path style="fill:#231F20;" d="M34.909,157.091l39.697,22.918c1.357,0.783,2.837,1.154,4.298,1.154   c2.977,0,5.872-1.545,7.469-4.308c2.378-4.119,0.966-9.387-3.153-11.767l-39.697-22.918c-4.118-2.376-9.386-0.966-11.767,3.153   C29.377,149.445,30.79,154.712,34.909,157.091z"/>
	<path style="fill:#231F20;" d="M63.063,263.841c0-4.757-3.856-8.613-8.613-8.613H8.613c-4.757,0-8.613,3.856-8.613,8.613   s3.856,8.613,8.613,8.613H54.45C59.206,272.454,63.063,268.597,63.063,263.841z"/>
	<path style="fill:#231F20;" d="M395.155,181.165c1.46,0,2.941-0.372,4.298-1.154l39.697-22.918   c4.119-2.379,5.532-7.647,3.153-11.767c-2.378-4.118-7.645-5.532-11.767-3.153l-39.697,22.918   c-4.119,2.379-5.532,7.647-3.153,11.767C389.283,179.62,392.178,181.165,395.155,181.165z"/>
	<path style="fill:#231F20;" d="M324.009,113.181c1.357,0.784,2.837,1.155,4.298,1.155c2.977,0,5.872-1.545,7.468-4.308   l22.92-39.697c2.379-4.119,0.967-9.387-3.152-11.765c-4.118-2.378-9.387-0.967-11.765,3.152l-22.919,39.697   C318.479,105.535,319.89,110.803,324.009,113.181z"/>
	<path style="fill:#231F20;" d="M124.528,400.028h-18.645c-4.757,0-8.613,3.856-8.613,8.613s3.856,8.613,8.613,8.613h18.645   c4.757,0,8.613-3.857,8.613-8.613S129.284,400.028,124.528,400.028z"/>
	<path style="fill:#231F20;" d="M252.012,400.028H150.226c-4.757,0-8.613,3.856-8.613,8.613s3.857,8.613,8.613,8.613h101.786   c13.98,0,25.354,11.374,25.354,25.355c0,13.632-10.816,24.782-24.317,25.328c-0.34-0.041-0.685-0.068-1.037-0.068   c-13.954,0-25.307-11.353-25.307-25.307c0-4.757-3.857-8.613-8.613-8.613s-8.613,3.857-8.613,8.613   c0,22.967,18.301,41.728,41.083,42.497c0.473,0.08,0.955,0.131,1.45,0.131c23.479,0,42.58-19.102,42.58-42.581   S275.491,400.028,252.012,400.028z"/>
	<path style="fill:#231F20;" d="M382.917,400.028h-79.644c-4.757,0-8.613,3.856-8.613,8.613s3.856,8.613,8.613,8.613h79.644   c13.982,0,25.358,11.374,25.358,25.355c0,13.633-10.818,24.782-24.321,25.328c-0.34-0.041-0.685-0.068-1.037-0.068   c-13.953,0-25.305-11.353-25.305-25.307c0-4.757-3.856-8.613-8.613-8.613s-8.613,3.857-8.613,8.613   c0,22.967,18.3,41.728,41.081,42.497c0.473,0.08,0.955,0.131,1.45,0.131c23.481,0,42.584-19.102,42.584-42.581   S406.399,400.028,382.917,400.028z"/>
	<path style="fill:#231F20;" d="M469.42,255.228c-0.499,0-0.983,0.052-1.458,0.132c-22.78,0.773-41.078,19.532-41.078,42.497   c0,4.757,3.856,8.613,8.613,8.613s8.613-3.857,8.613-8.613c0-13.954,11.354-25.307,25.309-25.307c0.353,0,0.7-0.028,1.042-0.069   c13.499,0.549,24.311,11.698,24.311,25.329c0,13.98-11.372,25.355-25.354,25.355h-64.388c-4.757,0-8.613,3.856-8.613,8.613   s3.857,8.613,8.613,8.613h64.388c23.479,0,42.58-19.102,42.58-42.581C512,274.329,492.898,255.228,469.42,255.228z"/>
	<path style="fill:#231F20;" d="M417.597,363.246H398.89c-4.757,0-8.613,3.857-8.613,8.613s3.856,8.613,8.613,8.613h18.706   c4.757,0,8.613-3.856,8.613-8.613S422.353,363.246,417.597,363.246z"/>
	<path style="fill:#231F20;" d="M337.628,380.472h34.545c4.757,0,8.613-3.856,8.613-8.613s-3.857-8.613-8.613-8.613h-14.654   c22.901-27.819,35.739-63.073,35.739-99.405c0-86.145-70.083-156.228-156.227-156.228c-86.146,0-156.229,70.084-156.229,156.228   c0,36.331,12.839,71.585,35.741,99.405H67.782c-4.757,0-8.613,3.857-8.613,8.613s3.856,8.613,8.613,8.613h68.65H337.628z    M139.883,363.246c-26.641-26.062-41.856-62.098-41.856-99.405c0-76.645,62.356-139.002,139.003-139.002   c76.645,0,139.001,62.356,139.001,139.002c0,37.309-15.215,73.345-41.854,99.405h-36.448   c33.033-20.417,55.092-56.961,55.092-98.566c0-16.891-3.557-33.175-10.573-48.401c-1.992-4.319-7.108-6.21-11.426-4.217   c-4.322,1.991-6.21,7.107-4.218,11.426c5.967,12.948,8.992,26.806,8.992,41.192c0,54.348-44.215,98.566-98.565,98.566   s-98.565-44.216-98.565-98.566c0-54.347,44.215-98.564,98.565-98.564c28.643,0,55.828,12.437,74.582,34.121   c3.112,3.598,8.55,3.994,12.149,0.88c3.598-3.113,3.992-8.551,0.88-12.149c-22.029-25.47-53.962-40.079-87.611-40.079   c-63.848,0-115.791,51.943-115.791,115.79c0,41.604,22.059,78.148,55.092,98.566h-36.448V363.246z"/>
</g>
<g>
</g>
<g>
</g>
<g>
</g>
<g>
</g>
<g>
</g>
<g>
</g>
<g>
</g>
<g>
</g>
<g>
</g>
<g>
</g>
<g>
</g>
<g>
</g>
<g>
</g>
<g>
</g>
<g>
</g>
</svg>
