<?xml version="1.0" encoding="iso-8859-1"?>
<!-- Generator: Adobe Illustrator 19.0.0, SVG Export Plug-In . SVG Version: 6.00 Build 0)  -->
<svg xmlns="http://www.w3.org/2000/svg" xmlns:xlink="http://www.w3.org/1999/xlink" version="1.1" id="Layer_1" x="0px" y="0px" viewBox="0 0 512.001 512.001" style="enable-background:new 0 0 512.001 512.001;" xml:space="preserve">
<path style="fill:#ED5145;" d="M228.442,145.34c-85.855,0.001-156.956,63.16-169.383,145.549c8.111-4.418,17.413-6.931,27.299-6.931  c19.708,0,37.086,9.977,47.362,25.155c10.274-15.178,27.653-25.155,47.361-25.155s37.085,9.977,47.36,25.154V145.34z"/>
<path style="fill:#F9A83D;" d="M228.443,145.34L228.443,145.34l-0.001,163.773l0.001,0.001  c10.276-15.178,27.653-25.155,47.362-25.155c19.706,0,37.087,9.975,47.362,25.154c10.277-15.179,27.654-25.154,47.36-25.154  c9.889,0,19.188,2.514,27.299,6.931C385.4,208.5,314.299,145.34,228.443,145.34z"/>
<path style="fill:#F29F26;" d="M228.443,145.34c0,0-0.001,0-0.002,0l0,0c-23.743,0-45.529,19.054-62.556,50.803l-9.889,21.171  c-10.442,25.632-18.282,56.817-22.575,91.386c0.095,0.14,0.2,0.272,0.295,0.412c10.277-15.179,27.656-25.154,47.362-25.154  c19.709,0,37.089,9.977,47.363,25.155c0,0,0.002-0.003,0.002-0.004V145.34z"/>
<path style="fill:#ED5145;" d="M228.441,145.34c0.001,0,0.002,0,0.002,0l0,0c23.744,0,45.529,19.054,62.556,50.803l9.891,21.171  c10.44,25.632,18.282,56.817,22.573,91.386c-0.095,0.14-0.2,0.272-0.294,0.412c-10.277-15.179-27.656-25.154-47.363-25.154  c-19.709,0-37.087,9.977-47.363,25.155c0,0,0-0.003-0.002-0.004L228.441,145.34L228.441,145.34z"/>
<path style="fill:#F9A83D;" d="M231.421,257.085V140.316c0,0-0.001,0-0.002,0c-0.013,0-0.024,0.001-0.036,0.001  c-0.725,0-1.449,0.019-2.171,0.054c-0.263,0.014-0.525,0.04-0.789,0.057c-0.468,0.032-0.937,0.061-1.404,0.107  c-0.312,0.029-0.623,0.074-0.933,0.112c-0.418,0.05-0.834,0.095-1.249,0.156c-0.331,0.05-0.662,0.11-0.994,0.167  c-0.391,0.066-0.785,0.129-1.175,0.206c-0.342,0.068-0.684,0.145-1.027,0.222c-0.377,0.082-0.752,0.163-1.128,0.255  c-0.349,0.085-0.698,0.181-1.046,0.274c-0.366,0.098-0.731,0.196-1.097,0.302c-0.353,0.105-0.706,0.218-1.059,0.331  c-0.355,0.113-0.711,0.227-1.065,0.349c-0.357,0.122-0.712,0.253-1.069,0.384c-0.348,0.128-0.696,0.258-1.044,0.396  c-0.359,0.14-0.717,0.29-1.073,0.438c-0.341,0.143-0.683,0.289-1.023,0.439c-0.358,0.159-0.718,0.325-1.075,0.494  c-0.337,0.157-0.67,0.317-1.005,0.482c-0.361,0.18-0.721,0.361-1.079,0.548c-0.313,0.164-0.626,0.331-0.938,0.5  c-2.115,9.523-3.239,19.42-3.239,29.579C204.699,206.488,214.635,234.482,231.421,257.085z"/>
<path style="fill:#F75F57;" d="M295.15,192.072c-17.347-32.344-39.54-51.755-63.728-51.755c-0.001,0-0.001,0-0.001,0h-0.002v116.767  c7.922,10.667,17.371,20.135,28.023,28.075c4.429-1.641,9.106-2.766,13.968-3.287c0.038-0.004,0.074-0.01,0.112-0.012  c0.956-0.101,1.917-0.178,2.886-0.231c0.132-0.008,0.265-0.014,0.397-0.02c0.95-0.045,1.905-0.076,2.865-0.076h0.002l0,0  c0.963,0,1.917,0.031,2.869,0.076c0.131,0.006,0.263,0.013,0.393,0.019c0.971,0.055,1.934,0.131,2.893,0.232  c0.033,0.002,0.068,0.008,0.101,0.012c10.438,1.115,20.052,4.988,28.098,10.879c0.056,0.041,0.112,0.082,0.168,0.123  c0.759,0.56,1.505,1.138,2.234,1.731c0.1,0.081,0.198,0.164,0.297,0.245c0.711,0.589,1.412,1.188,2.094,1.808  c0.073,0.068,0.147,0.139,0.221,0.206c0.619,0.57,1.226,1.154,1.82,1.75c0.117,0.117,0.238,0.232,0.355,0.353  c0.608,0.618,1.2,1.255,1.78,1.902c0.079,0.087,0.161,0.168,0.24,0.255c1.153,1.3,2.794,2.054,4.524,2.099  c-4.458-33.813-12.254-64.345-22.535-89.585L295.15,192.072z"/>
<path style="fill:#CCCCCC;" d="M228.443,144.857c4.324,0,8.609,0.168,12.852,0.483v-31.919c0-6.878-5.575-12.449-12.449-12.449  h-0.807c-6.875,0-12.448,5.573-12.448,12.449v31.919C219.833,145.025,224.118,144.857,228.443,144.857z"/>
<path style="fill:#ED5145;" d="M214.237,466.587c0,4.736-3.853,8.59-8.589,8.59s-8.59-3.853-8.59-8.59  c0-7.791-6.315-14.106-14.106-14.106s-14.107,6.315-14.107,14.106c0,20.294,16.511,36.803,36.803,36.803  c20.294,0,36.803-16.509,36.803-36.803v-45.329h-28.214V466.587z"/>
<path style="fill:#CCCCCC;" d="M241.295,339.008v-44.274c-4.983,3.777-9.341,8.336-12.852,13.522  c-3.513-5.186-7.87-9.745-12.853-13.522v126.523h25.706v-54.971"/>
<g>
	<path style="fill:#231F20;" d="M405.557,286.354c-0.098-0.594-0.192-1.188-0.296-1.781c-0.124-0.704-0.258-1.404-0.391-2.106   c-0.113-0.599-0.221-1.2-0.34-1.797c-0.138-0.691-0.286-1.38-0.432-2.068c-0.128-0.604-0.251-1.21-0.384-1.812   c-0.15-0.675-0.311-1.346-0.468-2.019c-0.143-0.613-0.283-1.228-0.433-1.839c-0.161-0.659-0.335-1.313-0.504-1.969   c-0.16-0.621-0.315-1.243-0.482-1.862c-0.173-0.646-0.358-1.287-0.539-1.931c-0.175-0.623-0.347-1.248-0.528-1.87   c-0.185-0.632-0.381-1.26-0.574-1.891c-0.192-0.63-0.38-1.26-0.579-1.887c-0.195-0.615-0.4-1.225-0.603-1.837   c-0.21-0.636-0.414-1.273-0.631-1.907c-0.207-0.605-0.424-1.206-0.638-1.809c-0.225-0.635-0.444-1.271-0.677-1.903   c-0.217-0.592-0.444-1.181-0.668-1.77c-0.241-0.638-0.479-1.279-0.728-1.913c-0.226-0.577-0.463-1.149-0.694-1.723   c-0.259-0.642-0.514-1.286-0.78-1.924c-0.235-0.563-0.48-1.12-0.721-1.681c-0.277-0.645-0.55-1.291-0.834-1.933   c-0.244-0.551-0.498-1.097-0.748-1.644c-0.294-0.645-0.582-1.29-0.884-1.931c-0.255-0.542-0.521-1.08-0.781-1.621   c-0.309-0.64-0.613-1.282-0.929-1.919c-0.263-0.528-0.535-1.051-0.803-1.577c-0.327-0.642-0.65-1.287-0.985-1.926   c-0.269-0.513-0.549-1.021-0.822-1.531c-0.345-0.644-0.687-1.289-1.041-1.929c-0.28-0.506-0.569-1.007-0.854-1.51   c-0.359-0.637-0.716-1.275-1.083-1.907c-0.291-0.5-0.592-0.995-0.888-1.493c-0.373-0.63-0.744-1.26-1.126-1.885   c-0.301-0.493-0.613-0.981-0.92-1.472c-0.387-0.621-0.771-1.243-1.166-1.86c-0.315-0.492-0.64-0.976-0.961-1.465   c-0.399-0.608-0.793-1.219-1.2-1.823c-0.322-0.479-0.654-0.951-0.981-1.427c-0.417-0.606-0.829-1.215-1.253-1.817   c-0.327-0.465-0.665-0.922-0.998-1.384c-0.435-0.604-0.865-1.211-1.308-1.81c-0.339-0.458-0.688-0.91-1.031-1.366   c-0.448-0.594-0.891-1.191-1.345-1.78c-0.352-0.455-0.715-0.904-1.071-1.357c-0.457-0.58-0.91-1.163-1.374-1.738   c-0.372-0.461-0.755-0.915-1.133-1.372c-0.461-0.557-0.916-1.119-1.383-1.671c-0.385-0.455-0.78-0.903-1.171-1.356   c-0.471-0.547-0.938-1.097-1.416-1.638c-0.402-0.455-0.815-0.903-1.223-1.354c-0.476-0.527-0.947-1.059-1.429-1.582   c-0.433-0.469-0.876-0.929-1.315-1.393c-0.469-0.497-0.933-0.999-1.408-1.491c-0.465-0.481-0.941-0.954-1.411-1.43   c-0.458-0.465-0.913-0.935-1.376-1.395c-0.495-0.491-1.002-0.972-1.503-1.458c-0.452-0.437-0.898-0.88-1.354-1.313   c-0.55-0.522-1.112-1.033-1.669-1.549c-0.418-0.386-0.83-0.778-1.251-1.16c-0.985-0.893-1.979-1.777-2.985-2.65   c-27.175-23.585-60.712-38.33-96.153-42.594v-24.122c0-11.612-9.447-21.059-21.059-21.059h-0.807   c-11.611,0-21.058,9.447-21.058,21.059v24.122c-35.441,4.264-68.978,19.009-96.153,42.594   c-32.283,28.017-53.554,66.605-59.895,108.653c-0.488,3.233,0.898,6.463,3.575,8.337c2.677,1.875,6.185,2.073,9.056,0.508   c7.043-3.837,15.037-5.865,23.118-5.865c15.942,0,30.805,7.83,39.865,20.956c0.003,0.004,0.006,0.01,0.01,0.015   c0.09,0.131,0.185,0.26,0.302,0.422c0.109,0.157,0.234,0.299,0.352,0.448c0.09,0.113,0.173,0.234,0.269,0.341   c0.14,0.158,0.293,0.301,0.443,0.449c0.099,0.097,0.19,0.2,0.294,0.292c0.159,0.142,0.331,0.267,0.499,0.396   c0.105,0.081,0.206,0.17,0.315,0.245c0.175,0.122,0.362,0.225,0.546,0.334c0.114,0.067,0.222,0.143,0.339,0.204   c0.19,0.101,0.391,0.182,0.589,0.268c0.118,0.052,0.232,0.113,0.353,0.159c0.21,0.08,0.426,0.14,0.642,0.203   c0.116,0.034,0.229,0.08,0.348,0.109c0.336,0.084,0.678,0.149,1.026,0.192c0.043,0.005,0.087,0.003,0.13,0.009   c0.303,0.033,0.609,0.057,0.918,0.057c0.005,0,0.01,0,0.015,0c2.856,0,5.528-1.416,7.13-3.783   c7.906-11.678,20.379-19.238,34.153-20.946c1.967-0.244,3.961-0.368,5.973-0.368c9.273,0,18.175,2.659,25.79,7.457v117.412   c-0.852,1.336-1.353,2.918-1.353,4.619l0.04,45.29c-0.02-12.508-10.202-22.676-22.715-22.676   c-12.527,0-22.716,10.191-22.716,22.715c0,25.041,20.372,45.412,45.412,45.412c25.041,0,45.412-20.372,45.412-45.412V421.26   c0-1.566-0.424-3.03-1.155-4.294v-8.263h2.9c4.755,0,8.61-3.855,8.61-8.61s-3.855-8.61-8.61-8.61h-2.9v-25.195   c0-4.755-3.855-8.61-8.61-8.61s-8.61,3.855-8.61,8.61v46.362h-8.487v-96.9c0.031,0.017,0.066,0.029,0.098,0.046   c0.068,0.038,0.136,0.075,0.204,0.111c0.034,0.018,0.066,0.04,0.1,0.057c0.003,0.001,0.006,0.002,0.01,0.004   c0.016,0.009,0.034,0.014,0.051,0.022c0.125,0.061,0.256,0.11,0.384,0.165c0.012,0.005,0.024,0.011,0.036,0.016   c0.043,0.018,0.085,0.041,0.128,0.058c0.072,0.029,0.143,0.061,0.216,0.088c0.115,0.043,0.234,0.077,0.35,0.115   c0.048,0.016,0.093,0.041,0.142,0.056c0.059,0.018,0.119,0.024,0.18,0.041c0.103,0.029,0.204,0.065,0.309,0.09   c0.023,0.005,0.043,0.014,0.066,0.019c0.159,0.038,0.32,0.056,0.479,0.084c0.108,0.019,0.214,0.043,0.322,0.058   c0.047,0.006,0.094,0.017,0.141,0.023c0.343,0.042,0.687,0.065,1.028,0.065c0.355,0,0.709-0.023,1.059-0.067   c0.065-0.008,0.126-0.026,0.189-0.034c0.281-0.041,0.56-0.087,0.834-0.156c0.144-0.036,0.283-0.089,0.425-0.133   c0.189-0.058,0.381-0.109,0.566-0.179c0.055-0.02,0.105-0.048,0.16-0.071c0.043-0.017,0.084-0.04,0.127-0.058   c0.055-0.023,0.108-0.049,0.161-0.073c0.167-0.075,0.338-0.142,0.499-0.228c0.044-0.023,0.084-0.052,0.127-0.075   c0.031-0.017,0.065-0.028,0.095-0.045v23.26c0,4.755,3.855,8.61,8.61,8.61s8.61-3.855,8.61-8.61v-39.783   c7.615-4.798,16.519-7.457,25.792-7.457c16.089,0,31.089,7.967,40.124,21.314c1.601,2.365,4.274,3.783,7.13,3.783l0,0   c0,0,0,0,0.001,0c0.355,0,0.708-0.023,1.057-0.065c0.001,0,0.002,0,0.002,0c0.061-0.008,0.121-0.025,0.181-0.033   c0.286-0.042,0.571-0.089,0.85-0.159c0.096-0.024,0.186-0.061,0.28-0.088c0.24-0.069,0.481-0.137,0.714-0.226   c0.096-0.037,0.185-0.086,0.279-0.127c0.225-0.096,0.451-0.189,0.666-0.303c0.093-0.049,0.179-0.112,0.27-0.165   c0.209-0.121,0.419-0.239,0.617-0.377c0.094-0.065,0.178-0.143,0.269-0.212c0.044-0.033,0.087-0.068,0.13-0.102   c0.136-0.107,0.278-0.204,0.407-0.32c0.001-0.001,0.002-0.002,0.004-0.004c0.002-0.002,0.004-0.005,0.008-0.008   c0.086-0.076,0.161-0.166,0.245-0.246c0.168-0.163,0.339-0.323,0.494-0.499c0.073-0.084,0.137-0.179,0.207-0.266   c0.145-0.179,0.294-0.355,0.425-0.547l-0.009,0.013l-0.02,0.03c0.005-0.008,0.011-0.015,0.016-0.023l-0.015,0.023   c0.079-0.107,0.154-0.215,0.23-0.323c0.027-0.038,0.054-0.074,0.081-0.112c9.059-13.126,23.924-20.958,39.867-20.958   c8.08,0,16.074,2.029,23.117,5.865c0.341,0.186,0.693,0.343,1.049,0.48c0.123,0.046,0.249,0.079,0.373,0.119   c0.237,0.079,0.474,0.155,0.715,0.212c0.151,0.036,0.302,0.057,0.454,0.085c0.218,0.04,0.437,0.076,0.658,0.099   c0.163,0.016,0.325,0.023,0.488,0.03c0.127,0.005,0.254,0.024,0.381,0.024c0.009,0,0.023,0.002,0.023,0   c0.099,0,0.195-0.012,0.294-0.015c0.103-0.004,0.207-0.009,0.31-0.016c4.473-0.311,8.007-4.028,8.007-8.579   c0-0.66-0.073-1.303-0.214-1.92C405.763,287.552,405.656,286.955,405.557,286.354z M127.659,288.936   c-11.489-9.191-25.872-14.386-40.977-14.386c-5.319,0-10.61,0.65-15.745,1.915c13.727-54.88,55.721-98.324,108.443-115.283   C155.597,187.175,136.969,232.055,127.659,288.936z M181.19,274.55c-1.003,0-2.002,0.031-2.998,0.076   c-0.277,0.013-0.552,0.029-0.828,0.045c-0.811,0.047-1.62,0.109-2.426,0.185c-0.201,0.019-0.404,0.033-0.605,0.055   c-0.975,0.102-1.945,0.227-2.91,0.372c-0.237,0.036-0.472,0.077-0.709,0.115c-0.768,0.124-1.534,0.262-2.294,0.412   c-0.262,0.052-0.523,0.101-0.783,0.157c-0.951,0.2-1.897,0.416-2.836,0.659c-0.126,0.032-0.25,0.07-0.376,0.103   c-0.827,0.218-1.646,0.454-2.461,0.704c-0.27,0.083-0.539,0.167-0.808,0.253c-0.79,0.253-1.574,0.52-2.353,0.802   c-0.145,0.053-0.294,0.101-0.439,0.155c-0.901,0.334-1.792,0.692-2.676,1.064c-0.244,0.103-0.485,0.211-0.728,0.316   c-0.696,0.303-1.386,0.619-2.071,0.946c-0.225,0.108-0.451,0.212-0.675,0.322c-0.86,0.423-1.711,0.863-2.552,1.324   c-0.17,0.094-0.337,0.192-0.506,0.286c-0.693,0.387-1.38,0.789-2.059,1.201c-0.237,0.144-0.475,0.288-0.709,0.436   c-0.178,0.111-0.359,0.216-0.536,0.329c6.413-35.16,16.856-66.351,30.118-89.508c13.056-22.796,28.364-36.95,43.86-40.816v132.608   C208.756,279.078,195.288,274.55,181.19,274.55z M233.84,429.867v36.72c0,15.546-12.647,28.193-28.193,28.193   s-28.193-12.647-28.193-28.193c0-3.031,2.467-5.496,5.497-5.496s5.496,2.466,5.496,5.496c0,9.485,7.715,17.199,17.2,17.199   c9.485,0,17.199-7.715,17.199-17.199v-36.72H233.84z M232.685,136.299c-0.009,0-0.018,0-0.027,0   c-1.231-0.029-2.463-0.042-3.697-0.045c-0.344-0.001-0.691-0.001-1.035,0c-1.234,0.003-2.468,0.016-3.7,0.045   c-0.01,0-0.019,0-0.029,0v-22.878c0-2.118,1.723-3.84,3.839-3.84h0.807c2.118,0,3.84,1.723,3.84,3.84v22.878H232.685z    M310.51,284.547c-0.245-0.154-0.493-0.305-0.74-0.455c-0.664-0.404-1.334-0.795-2.012-1.174c-0.182-0.102-0.362-0.209-0.545-0.309   c-0.835-0.457-1.681-0.894-2.534-1.314c-0.231-0.114-0.465-0.222-0.697-0.333c-0.676-0.323-1.357-0.634-2.044-0.933   c-0.249-0.109-0.497-0.22-0.747-0.325c-0.88-0.371-1.767-0.728-2.665-1.06c-0.153-0.057-0.308-0.107-0.461-0.163   c-0.771-0.28-1.548-0.543-2.33-0.794c-0.272-0.087-0.546-0.173-0.819-0.257c-0.808-0.248-1.621-0.481-2.44-0.697   c-0.132-0.034-0.264-0.074-0.396-0.109c-0.936-0.241-1.88-0.456-2.828-0.656c-0.263-0.056-0.527-0.105-0.791-0.158   c-0.759-0.15-1.52-0.287-2.285-0.41c-0.239-0.039-0.476-0.081-0.716-0.116c-0.964-0.144-1.933-0.269-2.906-0.371   c-0.203-0.022-0.407-0.036-0.61-0.055c-0.805-0.076-1.612-0.138-2.423-0.185c-0.274-0.016-0.549-0.032-0.824-0.044   c-0.997-0.045-1.995-0.076-2.999-0.076c-1.022,0-2.042,0.031-3.056,0.077c-0.313,0.015-0.625,0.038-0.937,0.056   c-0.719,0.044-1.435,0.098-2.149,0.165c-0.339,0.032-0.678,0.065-1.016,0.101c-0.23,0.025-0.463,0.042-0.692,0.069   c-0.146,0.017-0.291,0.043-0.437,0.061c-0.371,0.047-0.742,0.102-1.112,0.156c-0.26,0.038-0.521,0.069-0.78,0.11   c-0.989,0.155-1.974,0.33-2.952,0.529c-0.207,0.042-0.411,0.093-0.617,0.137c-0.776,0.166-1.55,0.344-2.317,0.538   c-0.323,0.082-0.644,0.168-0.965,0.254c-0.673,0.181-1.342,0.372-2.007,0.574c-0.311,0.095-0.622,0.186-0.932,0.285   c-0.805,0.257-1.605,0.53-2.398,0.818c-0.142,0.052-0.287,0.098-0.429,0.15c-0.928,0.343-1.846,0.711-2.756,1.097   c-0.264,0.112-0.524,0.231-0.787,0.347c-0.658,0.288-1.311,0.585-1.958,0.894c-0.303,0.145-0.606,0.293-0.907,0.442   c-0.639,0.318-1.271,0.647-1.899,0.985c-0.256,0.138-0.514,0.272-0.769,0.413c-0.864,0.48-1.721,0.976-2.564,1.496   c-0.102,0.064-0.201,0.131-0.303,0.195c-0.74,0.462-1.471,0.94-2.193,1.431c-0.265,0.18-0.524,0.366-0.787,0.55   c-0.307,0.216-0.619,0.424-0.923,0.646V154.545c0.876,0.218,1.751,0.48,2.626,0.764c0.152,0.05,0.303,0.096,0.455,0.147   c0.837,0.283,1.673,0.596,2.509,0.938c0.164,0.068,0.327,0.138,0.492,0.208c0.855,0.363,1.709,0.747,2.56,1.171   c0.058,0.029,0.116,0.061,0.174,0.09c0.821,0.413,1.64,0.86,2.458,1.33c0.144,0.083,0.289,0.163,0.434,0.248   c0.823,0.483,1.644,0.999,2.463,1.54c0.172,0.114,0.344,0.23,0.517,0.347c0.828,0.56,1.653,1.142,2.475,1.759   c0.099,0.074,0.197,0.154,0.296,0.229c0.785,0.596,1.566,1.219,2.344,1.867c0.124,0.103,0.249,0.202,0.372,0.307   c0.809,0.682,1.613,1.398,2.416,2.136c0.169,0.156,0.338,0.313,0.507,0.471c0.801,0.751,1.599,1.525,2.392,2.331   c0.119,0.122,0.239,0.249,0.358,0.371c0.764,0.786,1.524,1.595,2.28,2.431c0.093,0.103,0.186,0.201,0.28,0.306   c0.79,0.881,1.576,1.797,2.357,2.735c0.159,0.192,0.319,0.382,0.478,0.576c0.771,0.937,1.538,1.899,2.299,2.891   c0.128,0.167,0.255,0.339,0.383,0.507c0.755,0.995,1.508,2.012,2.253,3.06c0.049,0.07,0.1,0.138,0.151,0.208   c0.768,1.085,1.529,2.204,2.285,3.344c0.143,0.216,0.287,0.432,0.43,0.649c0.735,1.121,1.465,2.268,2.188,3.441   c0.131,0.213,0.262,0.429,0.392,0.644c0.751,1.232,1.499,2.484,2.236,3.772c13.262,23.158,23.704,54.349,30.117,89.506   C310.858,284.757,310.682,284.655,310.51,284.547z M370.203,274.55c-15.107,0-29.49,5.195-40.979,14.386   c-9.309-56.88-27.937-101.761-51.719-127.755c1.496,0.481,2.986,0.976,4.465,1.5c0.085,0.03,0.17,0.062,0.255,0.093   c0.95,0.338,1.898,0.684,2.841,1.04c0.201,0.076,0.401,0.156,0.603,0.234c0.824,0.315,1.648,0.633,2.467,0.961   c0.257,0.103,0.512,0.211,0.77,0.315c0.761,0.309,1.521,0.621,2.276,0.942c0.285,0.122,0.568,0.246,0.852,0.369   c0.722,0.311,1.443,0.624,2.161,0.946c0.306,0.137,0.61,0.279,0.915,0.418c0.692,0.315,1.383,0.633,2.07,0.957   c0.318,0.151,0.633,0.305,0.949,0.456c0.67,0.322,1.34,0.646,2.005,0.977c0.325,0.161,0.649,0.327,0.973,0.491   c0.652,0.329,1.302,0.662,1.95,1c0.329,0.172,0.658,0.348,0.986,0.522c0.637,0.339,1.273,0.68,1.906,1.027   c0.33,0.181,0.66,0.365,0.989,0.549c0.626,0.349,1.251,0.701,1.872,1.058c0.329,0.189,0.658,0.381,0.986,0.573   c0.616,0.359,1.229,0.722,1.839,1.089c0.328,0.197,0.654,0.396,0.982,0.596c0.607,0.371,1.212,0.746,1.813,1.125   c0.323,0.203,0.646,0.408,0.967,0.613c0.599,0.383,1.197,0.771,1.791,1.161c0.319,0.21,0.636,0.419,0.953,0.631   c0.593,0.395,1.182,0.795,1.769,1.199c0.313,0.215,0.625,0.429,0.937,0.647c0.588,0.41,1.172,0.824,1.755,1.241   c0.303,0.217,0.607,0.434,0.909,0.653c0.587,0.426,1.17,0.858,1.75,1.291c0.292,0.217,0.583,0.434,0.874,0.653   c0.585,0.443,1.167,0.892,1.747,1.344c0.281,0.218,0.562,0.435,0.842,0.655c0.59,0.465,1.174,0.935,1.756,1.409   c0.262,0.212,0.524,0.422,0.783,0.635c0.598,0.491,1.19,0.989,1.782,1.488c0.241,0.203,0.483,0.405,0.723,0.609   c0.608,0.52,1.21,1.046,1.81,1.574c0.217,0.19,0.436,0.38,0.652,0.571c0.635,0.564,1.262,1.136,1.889,1.711   c0.175,0.16,0.353,0.319,0.527,0.48c0.691,0.639,1.374,1.286,2.054,1.938c0.105,0.101,0.213,0.2,0.318,0.301   c3.166,3.048,6.211,6.223,9.126,9.517c0.109,0.123,0.215,0.249,0.323,0.371c0.608,0.692,1.213,1.387,1.81,2.089   c0.183,0.215,0.362,0.434,0.543,0.65c0.518,0.616,1.034,1.232,1.543,1.855c0.217,0.266,0.429,0.536,0.646,0.803   c0.466,0.578,0.932,1.157,1.39,1.742c0.237,0.302,0.47,0.609,0.705,0.914c0.429,0.555,0.859,1.112,1.281,1.673   c0.249,0.329,0.492,0.663,0.737,0.994c0.401,0.542,0.803,1.086,1.199,1.634c0.252,0.349,0.499,0.702,0.749,1.053   c0.382,0.538,0.763,1.076,1.138,1.62c0.252,0.364,0.499,0.731,0.748,1.097c0.364,0.535,0.725,1.071,1.083,1.61   c0.252,0.38,0.5,0.763,0.749,1.145c0.347,0.533,0.691,1.065,1.031,1.602c0.249,0.393,0.495,0.789,0.74,1.184   c0.33,0.532,0.659,1.064,0.983,1.599c0.246,0.407,0.49,0.815,0.733,1.224c0.314,0.531,0.627,1.062,0.936,1.596   c0.242,0.418,0.481,0.837,0.719,1.257c0.302,0.534,0.602,1.07,0.899,1.607c0.235,0.425,0.467,0.851,0.697,1.279   c0.289,0.536,0.575,1.074,0.858,1.613c0.229,0.436,0.457,0.873,0.682,1.312c0.277,0.539,0.549,1.079,0.82,1.622   c0.221,0.442,0.441,0.886,0.659,1.33c0.266,0.543,0.526,1.09,0.786,1.638c0.213,0.449,0.425,0.898,0.634,1.348   c0.254,0.549,0.503,1.101,0.751,1.654c0.204,0.454,0.409,0.909,0.609,1.366c0.242,0.554,0.479,1.112,0.716,1.669   c0.196,0.461,0.392,0.92,0.583,1.383c0.232,0.561,0.457,1.126,0.683,1.691c0.185,0.463,0.372,0.926,0.553,1.39   c0.222,0.57,0.437,1.145,0.652,1.719c0.174,0.465,0.352,0.929,0.523,1.396c0.213,0.582,0.418,1.168,0.623,1.752   c0.163,0.463,0.329,0.924,0.489,1.389c0.207,0.605,0.405,1.213,0.604,1.82c0.147,0.45,0.299,0.898,0.443,1.348   c0.204,0.64,0.398,1.286,0.595,1.93c0.129,0.424,0.263,0.845,0.389,1.27c0.212,0.718,0.413,1.44,0.616,2.161   c0.1,0.356,0.204,0.709,0.302,1.065c0.295,1.081,0.579,2.166,0.852,3.257C380.814,275.199,375.523,274.55,370.203,274.55z"/>
	<path style="fill:#231F20;" d="M457.727,1.727c-3.8-2.856-9.198-2.09-12.055,1.713l-15.801,21.032   c-2.855,3.801-2.089,9.198,1.713,12.054c1.549,1.164,3.364,1.726,5.165,1.726c2.615,0,5.198-1.187,6.89-3.438l15.801-21.032   C462.295,9.98,461.529,4.583,457.727,1.727z"/>
	<path style="fill:#231F20;" d="M421.514,49.925c-3.802-2.856-9.198-2.09-12.054,1.713l-15.801,21.034   c-2.855,3.801-2.089,9.199,1.713,12.054c1.55,1.164,3.364,1.726,5.165,1.726c2.615,0,5.198-1.187,6.89-3.438l15.801-21.034   C426.082,58.179,425.316,52.78,421.514,49.925z"/>
	<path style="fill:#231F20;" d="M359.157,132.927c1.55,1.166,3.365,1.726,5.166,1.726c2.615,0,5.198-1.187,6.889-3.437   l15.804-21.033c2.856-3.801,2.09-9.199-1.711-12.054c-3.802-2.859-9.199-2.091-12.054,1.711l-15.804,21.033   C354.59,124.674,355.356,130.072,359.157,132.927z"/>
	<path style="fill:#231F20;" d="M362.276,36.526c1.55,1.164,3.365,1.726,5.166,1.726c2.615,0,5.198-1.187,6.889-3.437l15.803-21.032   c2.856-3.801,2.09-9.199-1.711-12.054c-3.802-2.856-9.2-2.09-12.055,1.711l-15.803,21.032   C357.708,28.272,358.475,33.669,362.276,36.526z"/>
	<path style="fill:#231F20;" d="M326.066,84.727c1.55,1.164,3.364,1.726,5.165,1.726c2.615,0,5.198-1.187,6.89-3.438l15.801-21.034   c2.855-3.801,2.089-9.199-1.713-12.054c-3.803-2.856-9.198-2.09-12.054,1.713l-15.801,21.034   C321.498,76.474,322.264,81.871,326.066,84.727z"/>
	<path style="fill:#231F20;" d="M289.852,132.928c1.55,1.164,3.364,1.726,5.165,1.726c2.615,0,5.198-1.187,6.89-3.438l15.802-21.033   c2.855-3.801,2.089-9.198-1.713-12.054c-3.799-2.856-9.198-2.09-12.054,1.713l-15.802,21.033   C285.284,124.675,286.05,130.072,289.852,132.928z"/>
	<path style="fill:#231F20;" d="M292.971,36.527c1.55,1.164,3.365,1.726,5.166,1.726c2.615,0,5.198-1.187,6.89-3.437l15.802-21.032   c2.855-3.802,2.089-9.199-1.712-12.056c-3.802-2.856-9.199-2.089-12.056,1.712l-15.802,21.032   C288.403,28.273,289.17,33.669,292.971,36.527z"/>
	<path style="fill:#231F20;" d="M256.757,84.727c1.55,1.164,3.365,1.726,5.166,1.726c2.615,0,5.198-1.187,6.89-3.437l15.803-21.034   c2.855-3.802,2.089-9.199-1.712-12.056c-3.802-2.856-9.199-2.09-12.056,1.712l-15.803,21.034   C252.189,76.474,252.956,81.87,256.757,84.727z"/>
	<path style="fill:#231F20;" d="M224.089,36.527c1.55,1.164,3.365,1.726,5.166,1.726c2.615,0,5.198-1.187,6.89-3.437l15.802-21.032   c2.855-3.802,2.089-9.199-1.712-12.056c-3.802-2.856-9.199-2.089-12.056,1.712l-15.802,21.032   C219.521,28.273,220.288,33.669,224.089,36.527z"/>
	<path style="fill:#231F20;" d="M187.877,84.727c1.55,1.164,3.364,1.726,5.165,1.726c2.615,0,5.198-1.187,6.89-3.438l15.801-21.034   c2.855-3.801,2.089-9.199-1.713-12.054c-3.802-2.856-9.198-2.09-12.054,1.713l-15.801,21.034   C183.308,76.474,184.075,81.871,187.877,84.727z"/>
	<path style="fill:#231F20;" d="M151.664,132.928c1.55,1.164,3.364,1.726,5.165,1.726c2.615,0,5.198-1.187,6.89-3.438l15.802-21.033   c2.855-3.801,2.089-9.198-1.713-12.054c-3.8-2.856-9.198-2.09-12.054,1.713l-15.802,21.033   C147.095,124.675,147.862,130.072,151.664,132.928z"/>
	<path style="fill:#231F20;" d="M154.468,36.527c1.55,1.164,3.365,1.726,5.166,1.726c2.615,0,5.198-1.187,6.89-3.437l15.802-21.032   c2.855-3.802,2.089-9.199-1.712-12.056c-3.802-2.856-9.198-2.089-12.056,1.712l-15.802,21.031   C149.901,28.273,150.666,33.669,154.468,36.527z"/>
	<path style="fill:#231F20;" d="M118.257,84.727c1.55,1.164,3.364,1.726,5.165,1.726c2.615,0,5.198-1.187,6.89-3.438l15.801-21.034   c2.855-3.801,2.089-9.199-1.713-12.054c-3.802-2.856-9.198-2.09-12.055,1.713l-15.801,21.034   C113.688,76.474,114.454,81.871,118.257,84.727z"/>
	<path style="fill:#231F20;" d="M82.044,132.928c1.55,1.164,3.364,1.726,5.165,1.726c2.615,0,5.198-1.187,6.89-3.438l15.802-21.033   c2.855-3.801,2.089-9.198-1.713-12.054c-3.8-2.856-9.197-2.09-12.054,1.713L80.33,120.875   C77.475,124.675,78.241,130.072,82.044,132.928z"/>
</g>
<g>
</g>
<g>
</g>
<g>
</g>
<g>
</g>
<g>
</g>
<g>
</g>
<g>
</g>
<g>
</g>
<g>
</g>
<g>
</g>
<g>
</g>
<g>
</g>
<g>
</g>
<g>
</g>
<g>
</g>
</svg>
