<?xml version="1.0" encoding="iso-8859-1"?>
<!-- Generator: Adobe Illustrator 19.0.0, SVG Export Plug-In . SVG Version: 6.00 Build 0)  -->
<svg xmlns="http://www.w3.org/2000/svg" xmlns:xlink="http://www.w3.org/1999/xlink" version="1.1" id="Layer_1" x="0px" y="0px" viewBox="0 0 511.999 511.999" style="enable-background:new 0 0 511.999 511.999;" xml:space="preserve">
<path style="fill:#ED5145;" d="M255.991,62.573c-105.318,0.001-192.537,77.476-207.78,178.543c9.95-5.419,21.36-8.503,33.488-8.503  c24.175,0,45.492,12.24,58.097,30.857c12.604-18.617,33.922-30.857,58.098-30.857c24.174,0,45.491,12.239,58.095,30.855V62.573  H255.991z"/>
<path style="fill:#F29F26;" d="M332.729,124.891c-20.889-38.945-47.611-62.318-76.737-62.318c0,0,0,0-0.001,0  c-55.461,0.001-102.207,84.754-116.562,200.391c0.118,0.171,0.249,0.335,0.367,0.507c12.604-18.617,33.922-30.857,58.098-30.857  c24.175,0,45.492,12.24,58.096,30.857c12.604-18.617,33.922-30.857,58.098-30.857c24.174,0,45.493,12.238,58.098,30.856  c0.116-0.171,0.246-0.335,0.362-0.505c-5.263-42.407-14.882-80.659-27.691-112.103"/>
<path style="fill:#F9A83D;" d="M255.992,62.573L255.992,62.573l-0.001,200.896l0.001,0.002  c12.604-18.617,33.922-30.857,58.098-30.857c24.174,0,45.493,12.238,58.098,30.856c12.604-18.618,33.922-30.856,58.095-30.856  c12.129,0,23.537,3.082,33.488,8.503C448.528,140.049,361.31,62.573,255.992,62.573z"/>
<path style="fill:#F29F26;" d="M255.992,62.573c0,0-0.001,0-0.002,0c-0.001,0-0.001,0-0.001,0  c-29.126,0-55.849,23.373-76.737,62.318l-12.132,25.971c-12.809,31.443-22.427,69.696-27.691,112.103  c0.115,0.17,0.246,0.334,0.362,0.505c12.605-18.618,33.924-30.856,58.098-30.856c24.176,0,45.494,12.24,58.098,30.857  c0.001-0.001,0.002-0.003,0.003-0.004V62.573H255.992z"/>
<path style="fill:#ED5145;" d="M255.99,62.573C255.991,62.573,255.991,62.573,255.99,62.573c0.003,0,0.003,0,0.003,0  c29.126,0,55.847,23.373,76.737,62.318l12.132,25.971c12.809,31.443,22.427,69.696,27.691,112.103  c-0.115,0.17-0.246,0.334-0.362,0.505c-12.605-18.618-33.925-30.856-58.098-30.856c-24.176,0-45.494,12.24-58.098,30.857  c-0.001-0.001-0.002-0.003-0.003-0.004V62.573H255.99z"/>
<path style="fill:#F9A83D;" d="M255.762,196.572V62.573c0,0-0.001,0-0.002,0c-0.015,0-0.029,0.001-0.044,0.001  c-0.873,0.001-1.744,0.023-2.613,0.066c-0.318,0.016-0.634,0.047-0.951,0.068c-0.564,0.038-1.129,0.072-1.691,0.127  c-0.376,0.037-0.751,0.089-1.124,0.135c-0.502,0.059-1.004,0.114-1.503,0.188c-0.401,0.059-0.798,0.132-1.198,0.2  c-0.472,0.08-0.943,0.157-1.414,0.249c-0.412,0.081-0.825,0.176-1.239,0.266c-0.452,0.1-0.906,0.197-1.357,0.307  c-0.421,0.103-0.84,0.219-1.259,0.333c-0.44,0.117-0.88,0.236-1.319,0.364c-0.426,0.126-0.851,0.263-1.276,0.398  c-0.429,0.137-0.857,0.274-1.284,0.421c-0.43,0.148-0.858,0.305-1.286,0.463c-0.42,0.155-0.839,0.311-1.257,0.476  c-0.431,0.169-0.862,0.347-1.291,0.528c-0.411,0.172-0.823,0.347-1.233,0.53c-0.432,0.192-0.864,0.39-1.296,0.593  c-0.404,0.19-0.807,0.383-1.209,0.582c-0.434,0.214-0.868,0.434-1.3,0.659c-0.395,0.206-0.788,0.417-1.183,0.631  c-0.003,0.001-0.005,0.003-0.008,0.004c-1.904,9.94-2.913,20.199-2.913,30.694C224.512,136.656,236.118,169.739,255.762,196.572z"/>
<path style="fill:#F75F57;" d="M332.499,124.891c-20.889-38.945-47.611-62.318-76.736-62.318c-0.001,0-0.002,0-0.002,0h-0.002  v133.995c10.968,14.982,24.438,28.015,39.806,38.474c3.486-0.94,7.076-1.626,10.755-2.019c0.045-0.005,0.089-0.011,0.136-0.015  c1.149-0.121,2.308-0.214,3.473-0.279c0.159-0.01,0.32-0.016,0.479-0.023c1.145-0.056,2.293-0.093,3.45-0.093h0.002l0,0h0.001  c1.159,0,2.308,0.037,3.455,0.093c0.157,0.008,0.316,0.014,0.472,0.023c1.169,0.066,2.33,0.158,3.482,0.28  c0.04,0.004,0.08,0.01,0.121,0.014c12.571,1.343,24.145,6.007,33.835,13.101c0.068,0.05,0.136,0.099,0.202,0.149  c0.913,0.674,1.812,1.369,2.69,2.085c0.12,0.098,0.238,0.198,0.358,0.296c0.856,0.708,1.701,1.429,2.522,2.176  c0.09,0.082,0.177,0.166,0.266,0.248c0.745,0.686,1.475,1.388,2.193,2.106c0.141,0.142,0.286,0.281,0.428,0.425  c0.733,0.745,1.445,1.512,2.144,2.291c0.094,0.106,0.195,0.204,0.289,0.308c1.388,1.565,3.362,2.473,5.447,2.527  c-5.367-40.715-14.755-77.479-27.134-107.869L332.499,124.891z"/>
<path style="fill:#CCCCCC;" d="M255.992,62.573c5.317,0,10.585,0.206,15.802,0.594V23.922c0-8.455-6.852-15.306-15.307-15.306h-0.99  c-8.454,0-15.306,6.851-15.306,15.306v39.245C245.405,62.779,250.675,62.573,255.992,62.573z"/>
<path style="fill:#ED5145;" d="M238.525,458.137c0,5.823-4.736,10.56-10.56,10.56c-5.823,0-10.561-4.736-10.561-10.56  c0-9.579-7.766-17.345-17.345-17.345c-9.578,0-17.344,7.767-17.344,17.345c0,24.95,20.3,45.248,45.249,45.248  c24.951,0,45.249-20.298,45.249-45.248v-55.734h-34.689v55.734H238.525z"/>
<path style="fill:#CCCCCC;" d="M271.793,295.433v-48.586c-6.126,4.644-11.483,10.249-15.802,16.624  c-4.319-6.377-9.676-11.98-15.802-16.626v155.558h31.603v-78.965"/>
<path style="fill:#231F20;" d="M472.196,239.197c-7.847-50.988-33.715-97.762-72.889-131.759  c-33.557-29.124-75.072-47.196-118.898-52.114V23.922C280.409,10.731,269.677,0,256.486,0h-0.99  c-13.191,0-23.922,10.731-23.922,23.922v31.401c-43.826,4.918-85.341,22.991-118.898,52.113  C73.34,141.575,47.42,188.593,39.692,239.83c-0.488,3.235,0.898,6.466,3.578,8.342c2.68,1.877,6.192,2.075,9.063,0.509  c8.952-4.876,19.107-7.453,29.366-7.453c20.242,0,39.117,9.942,50.627,26.607c0.008,0.012,0.014,0.024,0.023,0.036  c0.11,0.158,0.224,0.315,0.333,0.458c0.1,0.146,0.215,0.278,0.324,0.417c0.106,0.137,0.205,0.28,0.318,0.408  c0.114,0.13,0.242,0.246,0.364,0.368c0.125,0.126,0.243,0.26,0.375,0.377c0.124,0.111,0.26,0.205,0.389,0.308  c0.143,0.113,0.28,0.234,0.43,0.337c0.135,0.094,0.279,0.17,0.418,0.255c0.156,0.096,0.307,0.199,0.468,0.284  c0.155,0.082,0.32,0.145,0.479,0.219c0.155,0.07,0.306,0.15,0.465,0.211c0.185,0.071,0.377,0.122,0.568,0.18  c0.142,0.044,0.281,0.098,0.426,0.135c0.216,0.054,0.439,0.086,0.66,0.124c0.125,0.022,0.246,0.054,0.372,0.069  c0.349,0.043,0.702,0.066,1.059,0.066c0.005,0,0.012,0,0.017,0c0.174,0,0.346-0.023,0.519-0.033  c0.179-0.011,0.359-0.012,0.534-0.034c0.144-0.018,0.284-0.054,0.426-0.08c0.202-0.036,0.408-0.065,0.606-0.114  c0.122-0.031,0.238-0.078,0.359-0.113c0.213-0.064,0.429-0.122,0.635-0.202c0.112-0.043,0.219-0.101,0.328-0.15  c0.208-0.09,0.417-0.176,0.617-0.282c0.109-0.058,0.21-0.13,0.316-0.193c0.193-0.113,0.388-0.221,0.571-0.349  c0.121-0.084,0.23-0.184,0.347-0.275c0.158-0.123,0.321-0.239,0.471-0.373c0.143-0.128,0.272-0.274,0.407-0.412  c0.11-0.112,0.227-0.216,0.331-0.335c0.232-0.265,0.448-0.546,0.648-0.841c11.476-16.952,30.528-27.072,50.964-27.072  c12.155,0,23.806,3.605,33.679,10.074v146.023c-1.043,1.425-1.665,3.176-1.665,5.076v55.734c0,1.072-0.872,1.944-1.944,1.944  c-1.073,0-1.945-0.872-1.945-1.944c0-14.315-11.646-25.961-25.96-25.961c-14.314,0-25.96,11.646-25.96,25.961  c0,29.7,24.163,53.864,53.865,53.864s53.865-24.163,53.865-53.864v-55.734c0-1.749-0.525-3.375-1.421-4.733v-12.674h5.537  c4.758,0,8.616-3.858,8.616-8.616c0-4.758-3.858-8.616-8.616-8.616h-5.537v-44.326c0-4.758-3.858-8.616-8.616-8.616  s-8.616,3.858-8.616,8.616v70.349h-14.371V268.229c0.016,0.023,0.033,0.044,0.048,0.068c0.001,0.001,0.002,0.003,0.003,0.004  c0.239,0.352,0.507,0.676,0.791,0.985c0.078,0.084,0.16,0.163,0.241,0.243c0.066,0.066,0.128,0.135,0.196,0.197  c0.055,0.053,0.104,0.112,0.162,0.163c0.058,0.052,0.124,0.095,0.183,0.145c0.072,0.061,0.148,0.116,0.222,0.176  c0.088,0.07,0.173,0.143,0.265,0.21c0.352,0.257,0.719,0.491,1.106,0.691c0.065,0.033,0.134,0.058,0.198,0.09  c0.344,0.168,0.698,0.31,1.062,0.431c0.062,0.02,0.118,0.054,0.182,0.073c0.055,0.017,0.112,0.02,0.167,0.037  c0.34,0.097,0.686,0.173,1.039,0.228c0.068,0.011,0.135,0.029,0.202,0.038c0.368,0.048,0.741,0.076,1.117,0.076  c0.041,0,0.081-0.006,0.122-0.008c0.115-0.001,0.228-0.015,0.344-0.022c0.304-0.016,0.604-0.046,0.901-0.094  c0.134-0.022,0.266-0.046,0.398-0.074c0.294-0.061,0.58-0.14,0.865-0.23c0.11-0.036,0.221-0.065,0.33-0.104  c0.381-0.14,0.754-0.3,1.11-0.492c0.058-0.031,0.112-0.071,0.17-0.103c0.298-0.169,0.586-0.354,0.863-0.559  c0.108-0.08,0.211-0.165,0.316-0.25c0.228-0.185,0.446-0.382,0.656-0.591c0.092-0.092,0.184-0.179,0.271-0.275  c0.282-0.308,0.551-0.632,0.789-0.983c0.016-0.024,0.034-0.046,0.051-0.07v27.202c0,4.758,3.858,8.616,8.616,8.616  s8.616-3.858,8.616-8.616v-44.13c9.874-6.469,21.526-10.074,33.681-10.074c6.387,0,12.637,0.989,18.564,2.865  c13.039,4.128,24.51,12.552,32.399,24.206c0.517,0.764,1.153,1.415,1.863,1.965c0.115,0.089,0.224,0.188,0.344,0.272  c0.04,0.028,0.084,0.048,0.124,0.076c1.398,0.94,3.059,1.471,4.792,1.474c0.003,0,0.008,0,0.012,0c2.851,0,5.516-1.409,7.121-3.764  c0.072-0.098,0.141-0.198,0.211-0.297c11.495-16.782,30.441-26.797,50.763-26.797c10.259,0,20.414,2.577,29.366,7.453  c1.288,0.702,2.706,1.05,4.12,1.05c0.008,0,0.017-0.002,0.022,0c4.759,0,8.616-3.858,8.616-8.616  C472.409,240.457,472.336,239.814,472.196,239.197z M248.806,54.077V23.922c0-3.689,3.002-6.69,6.69-6.69h0.99  c3.69,0,6.691,3.002,6.691,6.69v30.155c-0.229-0.008-0.453-0.004-0.682-0.011c-2.165-0.065-4.333-0.109-6.504-0.109c0,0,0,0-0.001,0  l0,0h-0.001c-2.171,0-4.338,0.044-6.502,0.109C249.259,54.073,249.035,54.069,248.806,54.077z M81.699,223.997  c-7.478,0-14.915,1.072-22.051,3.148C76.401,155.017,132.35,98.267,202.169,78.629c-9.717,9.517-18.886,21.714-27.35,36.494  c-18.892,32.985-33.343,78.037-41.326,128.327C119.309,231.051,100.99,223.997,81.699,223.997z M194.143,224.096  c-0.374,0.017-0.745,0.044-1.119,0.067c-0.911,0.056-1.818,0.128-2.723,0.215c-0.379,0.037-0.757,0.071-1.135,0.113  c-1.135,0.126-2.265,0.272-3.388,0.447c-0.097,0.015-0.196,0.026-0.293,0.041c-1.215,0.194-2.419,0.422-3.619,0.672  c-0.355,0.074-0.709,0.156-1.063,0.235c-0.876,0.195-1.747,0.403-2.613,0.627c-0.374,0.097-0.747,0.192-1.119,0.294  c-1.021,0.28-2.037,0.579-3.044,0.899c-0.16,0.051-0.322,0.095-0.482,0.146c-1.155,0.376-2.297,0.783-3.431,1.211  c-0.33,0.124-0.655,0.257-0.982,0.386c-0.833,0.327-1.66,0.667-2.48,1.022c-0.355,0.154-0.711,0.307-1.064,0.466  c-0.92,0.414-1.831,0.845-2.733,1.295c-0.193,0.096-0.39,0.185-0.582,0.282c-1.079,0.547-2.142,1.123-3.195,1.72  c-0.291,0.165-0.577,0.338-0.866,0.507c-0.783,0.457-1.558,0.927-2.325,1.411c-0.326,0.206-0.653,0.412-0.976,0.624  c-0.826,0.538-1.641,1.093-2.447,1.663c-0.197,0.14-0.398,0.272-0.596,0.414c-0.057,0.041-0.116,0.08-0.173,0.121  c7.841-45.33,21.088-85.619,38.079-115.289c17-29.683,37.175-47.671,57.603-51.653v169.466  c-13.835-11.186-31.223-17.502-49.479-17.502C196.639,223.997,195.389,224.037,194.143,224.096z M264.598,411.019v47.118  c0,20.199-16.433,36.632-36.633,36.632c-20.199,0-36.633-16.433-36.633-36.632c0-4.814,3.915-8.729,8.728-8.729  c4.813,0,8.728,3.916,8.728,8.729c0,10.573,8.603,19.176,19.177,19.176c10.573,0,19.176-8.602,19.176-19.176v-47.118H264.598z   M430.285,223.997c-19.294,0-37.616,7.056-51.8,19.458c-0.009-0.057-0.018-0.115-0.028-0.172c-0.221-1.395-0.44-2.79-0.671-4.177  c-0.256-1.534-0.527-3.055-0.795-4.58c-0.561-3.204-1.15-6.382-1.763-9.537c-0.148-0.754-0.29-1.512-0.439-2.264  c-0.419-2.106-0.853-4.195-1.296-6.277c-0.121-0.568-0.243-1.132-0.366-1.697c-1.456-6.73-3.033-13.332-4.728-19.797  c-0.129-0.494-0.257-0.991-0.388-1.483c-0.521-1.958-1.052-3.904-1.595-5.836c-0.218-0.775-0.44-1.542-0.661-2.313  c-0.41-1.43-0.806-2.88-1.228-4.295c-0.039-0.131-0.092-0.255-0.136-0.383c-3.477-11.626-7.335-22.687-11.55-33.031  c-1.795-4.408-6.825-6.523-11.23-4.73c-4.407,1.795-6.525,6.823-4.73,11.23c10.043,24.654,18.015,53.623,23.41,84.862  c-0.058-0.042-0.118-0.081-0.177-0.123c-0.186-0.135-0.378-0.262-0.566-0.394c-0.587-0.415-1.172-0.833-1.77-1.231  c-0.237-0.158-0.48-0.305-0.718-0.46c-0.31-0.202-0.624-0.401-0.937-0.599c-0.254-0.16-0.504-0.327-0.759-0.486  c-0.055-0.034-0.109-0.071-0.165-0.106c-0.484-0.296-0.978-0.575-1.468-0.861c-0.267-0.156-0.532-0.317-0.801-0.47  c-1.066-0.605-2.145-1.189-3.238-1.744c-0.151-0.076-0.305-0.145-0.456-0.222c-0.948-0.473-1.904-0.925-2.871-1.359  c-0.326-0.146-0.655-0.289-0.982-0.431c-0.856-0.37-1.719-0.726-2.588-1.066c-0.297-0.116-0.592-0.237-0.892-0.35  c-1.15-0.434-2.31-0.848-3.482-1.228c-0.117-0.038-0.236-0.07-0.353-0.108c-1.051-0.336-2.112-0.647-3.178-0.939  c-0.35-0.096-0.702-0.185-1.054-0.277c-0.891-0.23-1.787-0.445-2.688-0.645c-0.336-0.074-0.67-0.153-1.007-0.223  c-1.209-0.251-2.424-0.482-3.648-0.676c-0.074-0.012-0.149-0.019-0.223-0.031c-1.146-0.179-2.299-0.327-3.457-0.457  c-0.37-0.041-0.743-0.075-1.116-0.111c-0.91-0.088-1.824-0.16-2.741-0.216c-0.369-0.023-0.739-0.048-1.109-0.066  c-1.247-0.059-2.499-0.099-3.755-0.099c-1.284,0-2.561,0.039-3.835,0.101c-0.404,0.019-0.805,0.053-1.208,0.079  c-0.878,0.056-1.754,0.123-2.627,0.208c-0.456,0.044-0.909,0.095-1.363,0.148c-0.842,0.097-1.68,0.209-2.516,0.332  c-0.431,0.064-0.863,0.125-1.291,0.196c-0.953,0.157-1.9,0.336-2.844,0.528c-0.291,0.059-0.585,0.109-0.876,0.171  c-1.232,0.265-2.454,0.558-3.669,0.881c-0.264,0.07-0.523,0.152-0.786,0.225c-0.948,0.263-1.891,0.538-2.827,0.836  c-0.401,0.127-0.797,0.264-1.195,0.397c-0.806,0.27-1.607,0.551-2.403,0.848c-0.409,0.152-0.817,0.306-1.225,0.465  c-0.819,0.32-1.629,0.657-2.436,1.004c-0.348,0.15-0.698,0.293-1.044,0.448c-1.13,0.505-2.249,1.031-3.353,1.587  c-0.008,0.004-0.015,0.008-0.023,0.011c-1.12,0.566-2.223,1.165-3.315,1.785c-0.317,0.18-0.626,0.369-0.939,0.552  c-0.769,0.45-1.533,0.911-2.288,1.387c-0.365,0.232-0.727,0.467-1.089,0.704c-0.71,0.465-1.412,0.943-2.107,1.431  c-0.345,0.242-0.691,0.482-1.032,0.731c-0.771,0.561-1.529,1.139-2.28,1.729c-0.238,0.186-0.48,0.365-0.716,0.554  c-0.066,0.053-0.135,0.102-0.2,0.155l0.001-169.454c21.665,4.189,42.88,24.027,60.528,56.929c2.25,4.195,7.472,5.771,11.665,3.521  c4.194-2.249,5.769-7.472,3.521-11.665c-9.313-17.362-19.526-31.462-30.437-42.171c69.786,19.657,125.703,76.393,142.452,148.497  C445.199,225.069,437.763,223.997,430.285,223.997z"/>
<g>
</g>
<g>
</g>
<g>
</g>
<g>
</g>
<g>
</g>
<g>
</g>
<g>
</g>
<g>
</g>
<g>
</g>
<g>
</g>
<g>
</g>
<g>
</g>
<g>
</g>
<g>
</g>
<g>
</g>
</svg>
