<?xml version="1.0" encoding="iso-8859-1"?>
<!-- Generator: Adobe Illustrator 19.0.0, SVG Export Plug-In . SVG Version: 6.00 Build 0)  -->
<svg xmlns="http://www.w3.org/2000/svg" xmlns:xlink="http://www.w3.org/1999/xlink" version="1.1" id="Layer_1" x="0px" y="0px" viewBox="0 0 512 512" style="enable-background:new 0 0 512 512;" xml:space="preserve">
<circle style="fill:#EAC71C;" cx="199.584" cy="192.204" r="120.298"/>
<path style="fill:#EDE21B;" d="M277.552,98.675c-20.5-15.333-45.95-24.41-73.517-24.41h-0.001l0,0  c-7.356,0-14.559,0.651-21.559,1.891c-26.998,24.662-43.937,60.152-43.937,99.601c0,68.002,50.331,124.239,115.772,133.516  c0.361-0.162,0.726-0.319,1.085-0.484c0.329-0.152,0.656-0.303,0.984-0.458c0.851-0.402,1.696-0.814,2.535-1.234  c0.252-0.125,0.504-0.246,0.753-0.374c1.067-0.542,2.124-1.099,3.172-1.67c0.222-0.122,0.442-0.248,0.664-0.372  c0.837-0.465,1.668-0.938,2.493-1.42c0.157-0.09,0.316-0.176,0.471-0.269l0.081-0.058c6.282-3.718,12.207-7.978,17.705-12.718  l0.019-0.015c0.02-0.019,0.038-0.035,0.058-0.052c0.796-0.688,1.583-1.385,2.361-2.092c0.002-0.002,0.004-0.004,0.006-0.005  c0.76-0.694,1.512-1.397,2.257-2.109c0.222-0.211,0.437-0.426,0.656-0.641c0.521-0.506,1.041-1.013,1.553-1.527  c0.27-0.271,0.535-0.549,0.802-0.822c0.454-0.468,0.908-0.933,1.356-1.408c0.284-0.299,0.563-0.603,0.845-0.907  c0.422-0.455,0.841-0.913,1.256-1.375c0.288-0.319,0.571-0.641,0.855-0.962c0.401-0.457,0.799-0.915,1.194-1.378  c0.284-0.332,0.565-0.663,0.845-0.999c0.386-0.463,0.769-0.927,1.149-1.395c0.275-0.34,0.551-0.679,0.824-1.021  c0.378-0.478,0.752-0.961,1.123-1.442c0.261-0.338,0.524-0.677,0.783-1.019c0.379-0.503,0.75-1.01,1.122-1.519  c0.241-0.329,0.483-0.656,0.721-0.987c0.395-0.553,0.783-1.113,1.169-1.674c0.202-0.293,0.409-0.583,0.609-0.877  c0.501-0.741,0.992-1.487,1.477-2.237c0.077-0.12,0.159-0.24,0.237-0.36c0.561-0.872,1.108-1.753,1.647-2.641  c0.165-0.272,0.324-0.549,0.486-0.824c0.369-0.617,0.737-1.237,1.094-1.862c0.202-0.352,0.394-0.705,0.592-1.056  c0.31-0.557,0.621-1.112,0.923-1.674c0.207-0.384,0.408-0.772,0.611-1.16c0.283-0.537,0.563-1.073,0.837-1.615  c0.203-0.401,0.402-0.807,0.601-1.21c0.264-0.535,0.525-1.071,0.781-1.611c0.196-0.413,0.388-0.826,0.58-1.241  c0.247-0.539,0.494-1.079,0.734-1.623c0.185-0.419,0.37-0.837,0.552-1.26c0.237-0.551,0.467-1.103,0.695-1.658  c0.172-0.418,0.345-0.834,0.513-1.256c0.228-0.569,0.45-1.144,0.669-1.72c0.157-0.41,0.315-0.815,0.467-1.227  c0.227-0.611,0.442-1.226,0.658-1.843c0.133-0.379,0.271-0.755,0.401-1.138c0.244-0.715,0.477-1.438,0.708-2.162  c0.091-0.285,0.188-0.568,0.276-0.852c0.315-1.01,0.617-2.022,0.907-3.042c0.067-0.232,0.125-0.469,0.19-0.701  c0.218-0.79,0.434-1.582,0.638-2.378c0.097-0.381,0.186-0.762,0.279-1.143c0.16-0.655,0.322-1.31,0.471-1.971  c0.098-0.426,0.187-0.856,0.28-1.283c0.134-0.62,0.268-1.239,0.392-1.863c0.09-0.449,0.174-0.899,0.258-1.349  c0.115-0.608,0.228-1.219,0.333-1.83c0.08-0.461,0.156-0.922,0.23-1.383c0.097-0.61,0.193-1.22,0.281-1.833  c0.069-0.465,0.133-0.928,0.197-1.396c0.082-0.616,0.158-1.235,0.232-1.854c0.055-0.466,0.109-0.927,0.158-1.394  c0.069-0.634,0.128-1.267,0.186-1.903c0.041-0.456,0.084-0.911,0.12-1.369c0.053-0.663,0.097-1.326,0.139-1.994  c0.027-0.431,0.059-0.863,0.082-1.295c0.04-0.738,0.066-1.476,0.092-2.215c0.013-0.366,0.032-0.73,0.042-1.098  c0.029-1.106,0.046-2.217,0.046-3.33c0-11.664-1.626-22.95-4.662-33.638C314.796,137.258,298.842,114.597,277.552,98.675z"/>
<circle style="fill:#EF8229;" cx="199.584" cy="192.204" r="90.493"/>
<path style="fill:#F29F26;" d="M296.748,193.154c-0.089-2.115-0.25-4.21-0.477-6.287c-0.029-0.256-0.058-0.513-0.089-0.77  c-0.245-2.075-0.56-4.127-0.94-6.156c-0.045-0.247-0.094-0.496-0.142-0.74c-0.396-2.028-0.859-4.029-1.385-6.006  c-0.065-0.24-0.128-0.477-0.194-0.713c-0.543-1.975-1.149-3.923-1.817-5.841c-0.079-0.228-0.159-0.455-0.24-0.682  c-0.684-1.915-1.427-3.8-2.23-5.655c-0.094-0.217-0.189-0.432-0.285-0.651c-0.816-1.847-1.692-3.663-2.623-5.446  c-0.11-0.209-0.219-0.416-0.331-0.625c-0.943-1.773-1.944-3.511-2.997-5.214c-0.125-0.2-0.251-0.404-0.378-0.606  c-4.464-7.092-9.859-13.536-16.017-19.161l-0.012-0.013c-0.022-0.02-0.044-0.04-0.066-0.059c-0.25-0.229-0.506-0.453-0.758-0.678  c-0.284-0.253-0.566-0.509-0.853-0.757c-0.265-0.229-0.534-0.456-0.802-0.683c-0.282-0.24-0.561-0.481-0.847-0.719  c-0.273-0.227-0.551-0.447-0.826-0.672c-0.285-0.23-0.567-0.46-0.853-0.688c-0.283-0.223-0.567-0.441-0.851-0.658  c-0.287-0.223-0.573-0.444-0.864-0.663c-0.288-0.219-0.579-0.431-0.869-0.648c-0.29-0.213-0.581-0.426-0.872-0.638  c-0.295-0.211-0.592-0.419-0.887-0.627c-0.296-0.208-0.594-0.415-0.891-0.616c-0.297-0.205-0.597-0.407-0.895-0.606  c-0.304-0.202-0.609-0.402-0.915-0.601c-0.3-0.197-0.603-0.392-0.906-0.583c-0.309-0.196-0.62-0.387-0.93-0.58  c-0.305-0.189-0.61-0.376-0.919-0.56c-0.316-0.189-0.635-0.376-0.953-0.563c-0.307-0.18-0.612-0.359-0.922-0.536  c-0.324-0.184-0.651-0.365-0.979-0.546c-0.308-0.171-0.615-0.342-0.926-0.511c-0.332-0.18-0.669-0.355-1.005-0.529  c-0.308-0.161-0.615-0.324-0.924-0.482c-0.349-0.177-0.699-0.349-1.051-0.521c-0.301-0.151-0.603-0.3-0.908-0.446  c-0.376-0.18-0.754-0.353-1.133-0.529c-0.284-0.132-0.564-0.266-0.849-0.394c-0.477-0.214-0.957-0.422-1.438-0.628  c-0.19-0.083-0.376-0.168-0.569-0.248c-0.665-0.283-1.335-0.555-2.009-0.821c-0.259-0.103-0.521-0.2-0.782-0.299  c-0.426-0.165-0.851-0.33-1.279-0.487c-0.293-0.106-0.588-0.209-0.882-0.314c-0.399-0.142-0.796-0.285-1.197-0.423  c-0.311-0.105-0.626-0.205-0.939-0.309c-0.386-0.127-0.776-0.256-1.166-0.38c-0.322-0.101-0.645-0.196-0.966-0.293  c-0.386-0.116-0.772-0.234-1.16-0.344c-0.329-0.095-0.658-0.186-0.99-0.276c-0.385-0.109-0.772-0.213-1.16-0.314  c-0.335-0.087-0.668-0.171-1.005-0.255c-0.388-0.097-0.776-0.194-1.166-0.285c-0.337-0.08-0.674-0.157-1.012-0.233  c-0.393-0.086-0.784-0.173-1.179-0.256c-0.34-0.07-0.681-0.14-1.022-0.208c-0.396-0.079-0.792-0.155-1.189-0.227  c-0.341-0.066-0.684-0.128-1.026-0.187c-0.402-0.068-0.805-0.134-1.209-0.2c-0.341-0.054-0.682-0.109-1.024-0.159  c-0.41-0.06-0.822-0.116-1.233-0.173c-0.339-0.045-0.677-0.09-1.016-0.132c-0.419-0.053-0.839-0.099-1.261-0.143  c-0.337-0.038-0.672-0.076-1.009-0.111c-0.43-0.043-0.863-0.076-1.294-0.114c-0.33-0.027-0.658-0.059-0.989-0.082  c-0.455-0.035-0.911-0.062-1.366-0.088c-0.311-0.017-0.62-0.04-0.93-0.056c-0.509-0.023-1.019-0.041-1.528-0.057  c-0.261-0.009-0.522-0.023-0.785-0.027c-0.769-0.019-1.54-0.029-2.312-0.029c-0.005,0-0.009,0-0.009,0h-0.005l0,0  c-0.005,0-0.009,0-0.014,0c-0.773,0-1.542,0.01-2.312,0.029c-0.261,0.005-0.523,0.019-0.784,0.027  c-0.51,0.016-1.02,0.033-1.527,0.057c-0.312,0.016-0.621,0.039-0.93,0.056c-0.456,0.026-0.913,0.053-1.367,0.088  c-0.33,0.024-0.658,0.055-0.989,0.082c-0.431,0.038-0.865,0.071-1.294,0.114c-0.337,0.033-0.673,0.072-1.009,0.111  c-0.422,0.044-0.841,0.09-1.261,0.143c-0.34,0.042-0.678,0.087-1.015,0.132c-0.413,0.057-0.824,0.113-1.234,0.173  c-0.342,0.052-0.683,0.106-1.025,0.159c-0.403,0.066-0.806,0.131-1.207,0.2c-0.343,0.059-0.685,0.122-1.026,0.187  c-0.398,0.072-0.794,0.148-1.19,0.227c-0.34,0.068-0.682,0.138-1.021,0.208c-0.394,0.083-0.787,0.17-1.179,0.256  c-0.34,0.076-0.677,0.154-1.013,0.233c-0.389,0.091-0.779,0.188-1.166,0.285c-0.336,0.084-0.67,0.168-1.004,0.255  c-0.388,0.101-0.776,0.205-1.16,0.314c-0.331,0.09-0.662,0.182-0.991,0.276c-0.386,0.111-0.773,0.228-1.157,0.344  c-0.323,0.098-0.646,0.193-0.968,0.293c-0.389,0.123-0.779,0.252-1.166,0.38c-0.313,0.103-0.627,0.203-0.939,0.309  c-0.401,0.138-0.798,0.281-1.196,0.423c-0.294,0.105-0.591,0.208-0.883,0.314c-0.428,0.157-0.853,0.323-1.279,0.487  c-0.261,0.1-0.524,0.197-0.782,0.299c-0.674,0.266-1.345,0.538-2.009,0.821c-0.191,0.081-0.379,0.166-0.57,0.248  c-0.48,0.207-0.961,0.414-1.437,0.628c-0.284,0.128-0.565,0.261-0.848,0.394c-0.379,0.176-0.757,0.35-1.135,0.529  c-0.303,0.146-0.606,0.297-0.909,0.446c-0.349,0.172-0.699,0.343-1.047,0.521c-0.311,0.157-0.62,0.322-0.928,0.483  c-0.335,0.175-0.669,0.35-1.003,0.528c-0.311,0.168-0.617,0.339-0.926,0.511c-0.328,0.182-0.654,0.362-0.979,0.546  c-0.309,0.176-0.614,0.356-0.921,0.536c-0.318,0.187-0.638,0.374-0.953,0.563c-0.308,0.185-0.613,0.372-0.919,0.56  c-0.311,0.193-0.622,0.384-0.93,0.58c-0.302,0.191-0.603,0.386-0.906,0.583c-0.305,0.199-0.61,0.399-0.914,0.601  c-0.299,0.199-0.598,0.401-0.896,0.606c-0.297,0.202-0.594,0.409-0.89,0.616c-0.298,0.208-0.594,0.416-0.887,0.627  c-0.066,0.049-0.131,0.096-0.197,0.145c-7.201,16.503-11.205,34.725-11.205,53.883c0,48.063,25.147,90.249,62.996,114.133  c0.831,0.021,1.662,0.053,2.5,0.053l0,0l0,0c42.444,0,78.234-28.495,89.283-67.398c1.042-3.67,1.864-7.433,2.451-11.272  c0.234-1.538,0.43-3.085,0.589-4.645c0.317-3.12,0.479-6.285,0.479-9.488c0-1.069-0.023-2.132-0.061-3.191  C296.769,193.682,296.759,193.419,296.748,193.154z"/>
<path style="fill:#83D4ED;" d="M422.844,313.994h20.96c28.303,0,51.244-22.943,51.244-51.244c0-28.301-22.941-51.242-51.244-51.242  c-4.45,0-8.769,0.57-12.886,1.635c-7.376-10.65-19.679-17.63-33.616-17.63c-4.527,0-8.878,0.746-12.95,2.105  c-6.861-30.367-33.99-53.052-66.431-53.052c-37.626,0-68.126,30.502-68.126,68.126c0,0.776,0.031,1.545,0.059,2.31  c-4.788-1.501-9.883-2.31-15.166-2.31c-23.051,0-42.492,15.403-48.624,36.476c10.374-6.396,22.593-10.09,35.676-10.09  c37.624,0,68.126,30.501,68.126,68.126c0,0.776-0.033,1.545-0.059,2.31c4.788-1.5,9.881-2.31,15.164-2.31  c9.227,0,17.869,2.479,25.319,6.788H395.6"/>
<path style="fill:#C7E6F9;" d="M280.137,408.505h24.835c27.975,0,50.651-22.678,50.651-50.65c0-27.975-22.676-50.65-50.651-50.65  c-5.284,0-10.376,0.811-15.164,2.31c0.025-0.767,0.059-1.536,0.059-2.31c0-37.624-30.502-68.126-68.126-68.126  c-32.443,0-59.569,22.685-66.433,53.052c-4.069-1.359-8.42-2.105-12.947-2.105c-13.939,0-26.24,6.979-33.618,17.63  c-4.118-1.065-8.435-1.636-12.886-1.636c-28.301,0-51.242,22.941-51.242,51.242c0,28.3,22.941,51.244,51.242,51.244h155.611"/>
<path style="fill:#E4F2F9;" d="M305.218,305.223c-5.444,0-10.692,0.836-15.624,2.383c0.027-0.79,0.061-1.582,0.061-2.383  c0-38.767-31.429-70.193-70.196-70.193c-33.428,0-61.379,23.372-68.45,54.661c-4.193-1.399-8.676-2.168-13.342-2.168  c-4.161,0-8.174,0.621-11.969,1.745c22.294,58.93,72.176,104.3,133.894,120.333h45.624c28.824,0,52.19-23.368,52.19-52.19  C357.407,328.588,334.042,305.223,305.218,305.223z"/>
<path style="fill:#9FDEF7;" d="M448.266,207.696c-4.584,0-9.033,0.588-13.278,1.687c-7.6-10.975-20.276-18.166-34.636-18.166  c-4.666,0-9.147,0.771-13.342,2.171c-7.069-31.29-35.021-54.664-68.45-54.664c-17.153,0-32.864,6.161-45.055,16.381  c0,0.025-0.002,0.049-0.002,0.074c0,75.651,51.3,139.311,121.008,158.117h22.479h31.275c29.161,0,52.801-23.64,52.801-52.801  C501.067,231.334,477.428,207.696,448.266,207.696z"/>
<g>
	<path style="fill:#231F20;" d="M200.119,53.968c4.752,0,8.605-3.853,8.605-8.605V8.605c0-4.752-3.853-8.605-8.605-8.605   s-8.605,3.853-8.605,8.605v36.758C191.514,50.115,195.367,53.968,200.119,53.968z"/>
	<path style="fill:#231F20;" d="M119.463,69.279c1.594,2.76,4.486,4.304,7.462,4.304c1.459,0,2.939-0.372,4.294-1.153   c4.115-2.377,5.527-7.64,3.151-11.756l-18.378-31.833c-2.376-4.114-7.638-5.526-11.756-3.151c-4.115,2.377-5.527,7.64-3.151,11.756   L119.463,69.279z"/>
	<path style="fill:#231F20;" d="M37.191,107.638l31.832,18.378c1.355,0.783,2.834,1.154,4.294,1.154   c2.974,0,5.866-1.544,7.461-4.304c2.377-4.115,0.966-9.378-3.149-11.754L45.796,92.735c-4.115-2.376-9.379-0.966-11.754,3.149   C31.665,100,33.075,105.262,37.191,107.638z"/>
	<path style="fill:#231F20;" d="M53.712,200.374c4.752,0,8.605-3.853,8.605-8.605s-3.853-8.605-8.605-8.605H16.954   c-4.752,0-8.605,3.853-8.605,8.605s3.853,8.605,8.605,8.605H53.712z"/>
	<path style="fill:#231F20;" d="M37.191,275.899c-4.115,2.376-5.527,7.639-3.149,11.755c1.593,2.76,4.485,4.304,7.461,4.304   c1.459,0,2.939-0.372,4.294-1.154l31.832-18.378c4.115-2.376,5.527-7.639,3.149-11.754c-2.375-4.114-7.637-5.527-11.754-3.149   L37.191,275.899z"/>
	<path style="fill:#231F20;" d="M326.918,127.171c1.459,0,2.939-0.372,4.294-1.153l31.834-18.378   c4.115-2.376,5.527-7.64,3.151-11.756c-2.376-4.114-7.638-5.526-11.756-3.151l-31.834,18.379c-4.115,2.376-5.527,7.64-3.151,11.756   C321.052,125.628,323.943,127.171,326.918,127.171z"/>
	<path style="fill:#231F20;" d="M269.019,72.43c1.355,0.782,2.834,1.153,4.294,1.153c2.974,0,5.867-1.544,7.462-4.304l18.378-31.833   c2.376-4.115,0.965-9.378-3.151-11.756c-4.114-2.373-9.378-0.965-11.756,3.151l-18.378,31.833   C263.492,64.79,264.903,70.053,269.019,72.43z"/>
	<path style="fill:#231F20;" d="M485.993,338.452c-3.797-2.855-9.193-2.089-12.048,1.712l-15.078,20.07   c-2.854,3.799-2.088,9.193,1.712,12.048c1.548,1.164,3.362,1.725,5.162,1.725c2.614,0,5.195-1.186,6.886-3.437l15.078-20.07   C490.559,346.701,489.793,341.308,485.993,338.452z"/>
	<path style="fill:#231F20;" d="M451.436,384.45c-3.798-2.855-9.193-2.089-12.048,1.712l-15.078,20.07   c-2.854,3.799-2.088,9.193,1.712,12.048c1.548,1.164,3.362,1.725,5.162,1.725c2.614,0,5.195-1.186,6.886-3.437l15.078-20.07   C456.002,392.699,455.237,387.304,451.436,384.45z"/>
	<path style="fill:#231F20;" d="M416.879,430.446c-3.798-2.855-9.193-2.089-12.048,1.712l-15.078,20.071   c-2.854,3.799-2.088,9.193,1.712,12.048c1.548,1.164,3.362,1.725,5.162,1.725c2.614,0,5.195-1.186,6.886-3.437l15.078-20.071   C421.447,438.695,420.681,433.3,416.879,430.446z"/>
	<path style="fill:#231F20;" d="M382.324,476.444c-3.8-2.855-9.194-2.089-12.048,1.71l-15.08,20.071   c-2.855,3.8-2.089,9.194,1.71,12.048c1.549,1.164,3.363,1.725,5.163,1.725c2.614,0,5.195-1.186,6.885-3.436l15.08-20.071   C386.89,484.692,386.124,479.299,382.324,476.444z"/>
	<path style="fill:#231F20;" d="M418.261,338.452c-3.798-2.855-9.193-2.089-12.048,1.712l-15.078,20.07   c-2.854,3.799-2.088,9.193,1.712,12.048c1.548,1.164,3.362,1.725,5.162,1.725c2.614,0,5.195-1.186,6.886-3.437l15.078-20.07   C422.827,346.701,422.061,341.308,418.261,338.452z"/>
	<path style="fill:#231F20;" d="M383.704,384.45c-3.797-2.855-9.193-2.089-12.048,1.712l-15.078,20.07   c-2.854,3.799-2.088,9.193,1.712,12.048c1.548,1.164,3.362,1.725,5.162,1.725c2.614,0,5.195-1.186,6.886-3.437l15.078-20.07   C388.27,392.699,387.504,387.304,383.704,384.45z"/>
	<path style="fill:#231F20;" d="M349.148,430.447c-3.801-2.855-9.196-2.089-12.048,1.71l-15.08,20.071   c-2.855,3.8-2.089,9.194,1.71,12.048c1.549,1.164,3.363,1.725,5.163,1.725c2.614,0,5.195-1.186,6.885-3.436l15.08-20.071   C353.713,438.695,352.947,433.3,349.148,430.447z"/>
	<path style="fill:#231F20;" d="M314.591,476.444c-3.801-2.855-9.196-2.089-12.048,1.71l-15.08,20.071   c-2.855,3.8-2.089,9.194,1.71,12.048c1.549,1.164,3.364,1.725,5.163,1.725c2.614,0,5.195-1.186,6.885-3.436l15.08-20.071   C319.156,484.692,318.39,479.299,314.591,476.444z"/>
	<path style="fill:#231F20;" d="M281.415,430.447c-3.8-2.855-9.196-2.089-12.048,1.71l-15.08,20.071   c-2.855,3.8-2.089,9.194,1.71,12.048c1.549,1.164,3.364,1.725,5.163,1.725c2.614,0,5.195-1.186,6.885-3.436l15.08-20.071   C285.98,438.695,285.214,433.3,281.415,430.447z"/>
	<path style="fill:#231F20;" d="M246.855,476.443c-3.797-2.854-9.193-2.089-12.048,1.712l-15.078,20.071   c-2.854,3.799-2.088,9.193,1.712,12.048c1.548,1.164,3.362,1.725,5.162,1.725c2.614,0,5.195-1.186,6.886-3.437l15.078-20.071   C251.421,484.692,250.655,479.299,246.855,476.443z"/>
	<path style="fill:#231F20;" d="M213.681,430.447c-3.8-2.855-9.196-2.089-12.048,1.71l-15.08,20.071   c-2.855,3.8-2.089,9.194,1.71,12.048c1.549,1.164,3.363,1.725,5.163,1.725c2.614,0,5.195-1.186,6.885-3.436l15.08-20.071   C218.246,438.695,217.48,433.3,213.681,430.447z"/>
	<path style="fill:#231F20;" d="M179.121,476.443c-3.798-2.854-9.193-2.089-12.048,1.712l-15.078,20.071   c-2.854,3.799-2.088,9.193,1.712,12.048c1.548,1.164,3.362,1.725,5.162,1.725c2.614,0,5.195-1.186,6.886-3.437l15.078-20.071   C183.687,484.692,182.922,479.299,179.121,476.443z"/>
	<path style="fill:#231F20;" d="M145.949,430.447c-3.8-2.855-9.196-2.089-12.048,1.71l-15.08,20.071   c-2.855,3.8-2.089,9.194,1.71,12.048c1.549,1.164,3.363,1.725,5.163,1.725c2.614,0,5.195-1.186,6.885-3.436l15.08-20.071   C150.514,438.695,149.748,433.3,145.949,430.447z"/>
	<path style="fill:#231F20;" d="M111.389,476.443c-3.797-2.854-9.193-2.089-12.048,1.712l-15.078,20.071   c-2.854,3.799-2.088,9.193,1.712,12.048c1.548,1.164,3.362,1.725,5.162,1.725c2.614,0,5.195-1.186,6.886-3.437l15.078-20.071   C115.955,484.692,115.189,479.299,111.389,476.443z"/>
	<path style="fill:#231F20;" d="M78.212,430.446c-3.798-2.855-9.193-2.089-12.048,1.712l-15.078,20.071   c-2.854,3.799-2.088,9.193,1.712,12.048c1.548,1.164,3.362,1.725,5.162,1.725c2.614,0,5.195-1.186,6.886-3.437l15.078-20.071   C82.778,438.695,82.012,433.3,78.212,430.446z"/>
	<path style="fill:#231F20;" d="M43.656,476.444c-3.8-2.855-9.196-2.089-12.048,1.71l-15.08,20.071   c-2.855,3.8-2.089,9.194,1.71,12.048c1.549,1.164,3.363,1.725,5.163,1.725c2.614,0,5.195-1.186,6.885-3.436l15.08-20.071   C48.221,484.692,47.455,479.299,43.656,476.444z"/>
	<path style="fill:#231F20;" d="M260.073,408.505c0-4.752-3.853-8.605-8.605-8.605H95.856c-23.509,0-42.637-19.128-42.637-42.639   c0-23.509,19.127-42.637,42.637-42.637c3.629,0,7.239,0.458,10.732,1.362c3.493,0.901,7.176-0.468,9.229-3.43   c4.973-7.178,12.579-11.966,21.017-13.438c0.587-0.101,1.174-0.191,1.76-0.261c0.147-0.017,0.297-0.026,0.444-0.041   c0.511-0.053,1.021-0.101,1.531-0.13c0.259-0.014,0.521-0.016,0.781-0.024c0.385-0.013,0.771-0.027,1.156-0.025   c0.794,0.003,1.584,0.033,2.373,0.096c0.133,0.011,0.266,0.029,0.399,0.042c0.655,0.059,1.308,0.139,1.958,0.238   c0.234,0.035,0.467,0.076,0.7,0.117c0.57,0.1,1.137,0.217,1.702,0.347c0.225,0.053,0.451,0.1,0.674,0.157   c0.763,0.195,1.522,0.409,2.273,0.659c0.394,0.131,0.795,0.222,1.198,0.295c0.099,0.018,0.198,0.034,0.297,0.049   c0.398,0.057,0.797,0.095,1.197,0.096c0.011,0,0.022,0.002,0.032,0.002c0.066,0,0.13-0.011,0.196-0.013   c0.259-0.005,0.517-0.02,0.774-0.049c0.119-0.014,0.238-0.034,0.356-0.053c0.218-0.034,0.435-0.075,0.65-0.126   c0.123-0.029,0.243-0.059,0.364-0.094c0.221-0.062,0.438-0.136,0.654-0.216c0.104-0.039,0.209-0.073,0.312-0.115   c0.313-0.13,0.622-0.274,0.92-0.443c0.529-0.299,1.022-0.65,1.469-1.046c1.345-1.186,2.296-2.775,2.7-4.554   c0.215-0.952,0.455-1.897,0.717-2.835c0.017-0.06,0.036-0.119,0.053-0.18c1.544-5.455,3.882-10.642,6.885-15.416   c0.145-0.23,0.285-0.465,0.432-0.694c0.401-0.618,0.82-1.226,1.243-1.83c0.203-0.29,0.409-0.58,0.617-0.866   c0.416-0.571,0.84-1.136,1.276-1.692c0.246-0.314,0.501-0.622,0.754-0.93c0.428-0.524,0.854-1.05,1.3-1.56   c0.368-0.419,0.752-0.824,1.13-1.234c0.617-0.669,1.251-1.323,1.9-1.963c0.468-0.461,0.935-0.923,1.418-1.369   c0.347-0.322,0.706-0.632,1.061-0.945c0.508-0.447,1.021-0.888,1.544-1.319c0.343-0.283,0.688-0.561,1.038-0.837   c0.589-0.464,1.19-0.912,1.796-1.353c0.3-0.218,0.597-0.442,0.901-0.655c0.921-0.642,1.854-1.266,2.812-1.857   c0.082-0.051,0.166-0.097,0.248-0.147c0.002-0.001,0.004-0.002,0.005-0.003c0.15-0.09,0.301-0.179,0.452-0.268   c0.684-0.409,1.377-0.803,2.076-1.184c0.002-0.001,0.004-0.002,0.006-0.003l0.116-0.065c0.268-0.146,0.537-0.293,0.808-0.435   c0.002-0.001,0.004-0.002,0.006-0.003c0.393-0.204,0.79-0.401,1.186-0.596c0.27-0.133,0.541-0.266,0.814-0.394   c0.006-0.003,0.011-0.006,0.017-0.01c0.418-0.198,0.838-0.392,1.261-0.58c0.256-0.113,0.513-0.224,0.77-0.333   c0.444-0.19,0.887-0.381,1.336-0.559c0.085-0.034,0.172-0.066,0.258-0.099c1.696-0.668,3.422-1.254,5.172-1.763   c0.198-0.058,0.396-0.117,0.595-0.172c0.497-0.139,0.997-0.27,1.497-0.396c0.231-0.057,0.463-0.114,0.695-0.169   c0.492-0.117,0.984-0.232,1.478-0.337c0.202-0.043,0.408-0.08,0.611-0.122c0.868-0.174,1.741-0.327,2.618-0.463   c0.329-0.052,0.656-0.106,0.987-0.152c0.347-0.047,0.697-0.085,1.046-0.127c0.46-0.055,0.921-0.108,1.383-0.152   c0.302-0.029,0.606-0.054,0.908-0.079c0.537-0.044,1.076-0.079,1.616-0.106c0.003,0,0.006-0.001,0.01-0.001   c0.258-0.014,0.516-0.03,0.776-0.04c0.8-0.032,1.602-0.054,2.408-0.054c32.821,0,59.521,26.7,59.521,59.521   c0,0.521-0.02,1.039-0.038,1.554l-0.017,0.473c-0.091,2.787,1.174,5.446,3.393,7.133c2.219,1.688,5.122,2.196,7.78,1.362   c4.06-1.272,8.297-1.917,12.591-1.917c0.848,0,1.693,0.032,2.536,0.084c0.217,0.013,0.432,0.033,0.65,0.049   c0.664,0.051,1.325,0.114,1.985,0.196c0.191,0.024,0.384,0.047,0.574,0.073c1.721,0.238,3.425,0.575,5.098,1.023   c0.048,0.013,0.097,0.028,0.145,0.042c0.77,0.209,1.533,0.442,2.289,0.695c0.151,0.051,0.3,0.101,0.45,0.153   c0.717,0.247,1.427,0.515,2.131,0.801c0.096,0.039,0.194,0.074,0.289,0.114c0.767,0.319,1.524,0.665,2.273,1.03   c0.198,0.097,0.392,0.201,0.587,0.301c0.532,0.27,1.058,0.552,1.579,0.845c12.795,7.217,21.459,20.932,21.459,36.639   c0,23.184-18.862,42.045-42.046,42.045h-24.835c-4.752,0-8.605,3.853-8.605,8.605s3.853,8.605,8.605,8.605h24.835   c32.674,0,59.256-26.582,59.256-59.255c0-13.197-4.34-25.397-11.663-35.256h43.035c4.752,0,8.605-3.853,8.605-8.605   s-3.853-8.605-8.605-8.605h-63.096c-0.248-0.131-0.507-0.242-0.758-0.369c-0.638-0.325-1.28-0.639-1.931-0.941   c-0.335-0.155-0.669-0.307-1.006-0.455c-0.786-0.347-1.583-0.676-2.387-0.989c-0.204-0.08-0.408-0.165-0.613-0.242   c-2.137-0.806-4.333-1.49-6.577-2.047c-0.09-0.023-0.181-0.041-0.271-0.062c-0.99-0.241-1.989-0.455-2.998-0.644   c-0.231-0.044-0.462-0.084-0.695-0.125c-0.87-0.153-1.746-0.286-2.628-0.401c-0.287-0.038-0.574-0.076-0.863-0.11   c-0.851-0.098-1.707-0.173-2.569-0.234c-0.286-0.02-0.571-0.049-0.858-0.066c-1.12-0.063-2.245-0.103-3.38-0.103   c-2.326,0-4.64,0.134-6.935,0.403c-4.107-38.468-36.758-68.529-76.297-68.529c-1.174,0-2.344,0.032-3.513,0.086   c-0.312,0.014-0.622,0.038-0.933,0.056c-0.596,0.033-1.191,0.07-1.783,0.116c-0.016,0.001-0.031,0.004-0.047,0.006   c-0.226,0.018-0.452,0.041-0.678,0.061c-0.382,0.034-0.763,0.072-1.143,0.112c-0.425,0.045-0.85,0.088-1.272,0.139   c-0.047,0.005-0.094,0.017-0.141,0.024c-0.213,0.027-0.426,0.056-0.64,0.085c-0.1,0.011-0.2,0.012-0.3,0.026   c-0.166,0.023-0.329,0.053-0.495,0.076c-0.265,0.038-0.529,0.082-0.794,0.123c-0.371,0.058-0.744,0.109-1.114,0.171   c-0.086,0.014-0.168,0.038-0.253,0.055c-0.115,0.015-0.229,0.023-0.344,0.042c-0.011,0.002-0.015,0.002-0.023,0.004   c-0.366,0.065-0.726,0.145-1.09,0.215c-0.123,0.024-0.246,0.04-0.368,0.063c0.012-0.011,0.024-0.022,0.036-0.032   c0.447-0.396,0.904-0.782,1.367-1.157c0.102-0.083,0.208-0.161,0.311-0.243c0.361-0.288,0.727-0.573,1.098-0.85   c0.174-0.129,0.352-0.253,0.527-0.38c0.308-0.222,0.616-0.442,0.929-0.655c0.199-0.136,0.401-0.267,0.603-0.399   c0.297-0.195,0.595-0.387,0.897-0.574c0.213-0.132,0.427-0.261,0.643-0.39c0.3-0.18,0.602-0.354,0.907-0.526   c0.218-0.124,0.438-0.246,0.658-0.366c0.31-0.168,0.624-0.33,0.938-0.489c0.219-0.112,0.439-0.225,0.66-0.333   c0.336-0.163,0.676-0.319,1.016-0.474c0.203-0.093,0.404-0.188,0.609-0.278c0.425-0.185,0.855-0.36,1.288-0.531   c0.125-0.049,0.247-0.104,0.373-0.153c0.554-0.213,1.112-0.415,1.676-0.606c0.182-0.061,0.366-0.115,0.549-0.174   c0.388-0.126,0.778-0.25,1.171-0.365c0.228-0.067,0.458-0.126,0.687-0.188c0.354-0.097,0.708-0.191,1.064-0.279   c0.244-0.06,0.49-0.115,0.736-0.17c0.347-0.079,0.695-0.153,1.044-0.223c0.252-0.049,0.504-0.097,0.757-0.143   c0.351-0.063,0.703-0.12,1.057-0.174c0.251-0.039,0.501-0.076,0.753-0.11c0.368-0.049,0.738-0.091,1.108-0.13   c0.24-0.026,0.479-0.054,0.719-0.075c0.41-0.037,0.821-0.062,1.233-0.087c0.202-0.012,0.403-0.029,0.607-0.038   c0.616-0.028,1.235-0.044,1.855-0.044c4.295,0,8.533,0.645,12.593,1.917c0.392,0.123,0.788,0.208,1.188,0.273   c0.129,0.022,0.253,0.032,0.381,0.047c0.276,0.032,0.553,0.053,0.829,0.058c0.07,0.001,0.145,0.016,0.215,0.015   c0.086,0,0.17-0.011,0.256-0.014c0.116-0.004,0.231-0.01,0.347-0.018c0.242-0.017,0.481-0.046,0.717-0.083   c0.063-0.011,0.128-0.018,0.191-0.029c4.021-0.724,7.074-4.233,7.074-8.461c0-0.257-0.018-0.508-0.041-0.759   c-0.019-0.515-0.04-1.032-0.04-1.552c0-1.133,0.044-2.258,0.106-3.38c0.014-0.246,0.034-0.492,0.052-0.737   c0.012-0.177,0.027-0.355,0.041-0.532c0.053-0.688,0.119-1.374,0.196-2.056c0.024-0.205,0.046-0.412,0.072-0.616   c0.041-0.332,0.081-0.665,0.127-0.996c0.076-0.546,0.169-1.089,0.26-1.631c0.022-0.128,0.041-0.257,0.063-0.384   c0.051-0.288,0.1-0.578,0.155-0.866c0.129-0.67,0.271-1.337,0.423-2c0.006-0.028,0.012-0.056,0.018-0.083   c0.04-0.174,0.08-0.347,0.12-0.521c0.18-0.746,0.37-1.49,0.578-2.225c0.026-0.091,0.052-0.182,0.079-0.273   c2.931-10.23,8.546-19.403,16.077-26.637c0.045-0.043,0.089-0.085,0.134-0.128c0.579-0.553,1.169-1.093,1.77-1.623   c0.087-0.077,0.176-0.153,0.264-0.229c0.573-0.499,1.155-0.99,1.748-1.467c0.119-0.096,0.241-0.189,0.361-0.284   c0.577-0.457,1.158-0.907,1.751-1.342c0.134-0.098,0.271-0.191,0.407-0.289c0.366-0.265,0.739-0.52,1.111-0.776   c0.372-0.255,0.744-0.512,1.123-0.759c2.671-1.748,5.492-3.287,8.444-4.595c0.187-0.083,0.37-0.172,0.558-0.253   c0.618-0.267,1.247-0.515,1.876-0.76c0.227-0.088,0.451-0.182,0.679-0.268c0.638-0.24,1.283-0.464,1.932-0.682   c0.219-0.074,0.438-0.152,0.658-0.224c0.674-0.218,1.356-0.423,2.043-0.617c0.191-0.055,0.383-0.111,0.575-0.163   c0.723-0.198,1.452-0.381,2.186-0.552c0.151-0.035,0.301-0.071,0.453-0.104c0.78-0.175,1.566-0.336,2.359-0.48   c0.096-0.017,0.191-0.034,0.288-0.052c0.846-0.15,1.699-0.284,2.559-0.398c2.579-0.343,5.205-0.537,7.877-0.537   c28.006,0,51.872,19.058,58.037,46.344c0.537,2.372,2.05,4.407,4.168,5.6c2.119,1.195,4.645,1.438,6.949,0.667   c3.308-1.103,6.749-1.663,10.227-1.663c10.581,0,20.504,5.205,26.541,13.923c2.053,2.964,5.731,4.334,9.23,3.431   c3.492-0.904,7.102-1.362,10.732-1.362c23.511,0,42.639,19.127,42.639,42.637s-19.127,42.639-42.639,42.639h-20.96   c-4.752,0-8.605,3.853-8.605,8.605s3.853,8.605,8.605,8.605h20.96c33.001,0,59.849-26.848,59.849-59.849   c0-33-26.848-59.847-59.849-59.847c-3.159,0-6.309,0.247-9.417,0.74c-9.338-10.569-22.818-16.735-37.086-16.735   c-2.331,0-4.651,0.163-6.948,0.489c-4.689-13.386-13.091-25.381-24.211-34.381c-13.586-10.999-30.711-17.055-48.222-17.055   c-1.24,0-2.474,0.03-3.7,0.088c-21.234-43.486-65.341-71.257-114.102-71.257c-70.016,0-126.977,56.961-126.977,126.976   c0,37.413,16.317,72.404,44.316,96.388c-4.532,2.642-8.655,6.004-12.184,9.998c-3.109-0.493-6.259-0.74-9.418-0.74   c-33,0-59.847,26.847-59.847,59.847c0,33.001,26.847,59.849,59.847,59.849h155.611C256.22,417.11,260.073,413.257,260.073,408.505z    M90.352,191.769c0-60.526,49.241-109.766,109.767-109.766c40.421,0,77.157,22.069,96.295,57.03   c-1.608,0.47-3.187,1.008-4.751,1.579c-0.33,0.12-0.663,0.239-0.991,0.364c-0.61,0.232-1.214,0.475-1.817,0.723   c-0.376,0.155-0.751,0.312-1.124,0.472c-0.581,0.25-1.161,0.502-1.734,0.766c-0.241,0.111-0.48,0.224-0.72,0.338   c-4.56-8.005-10.22-15.311-16.896-21.799c-3.409-3.311-8.856-3.233-12.169,0.174c-3.312,3.409-3.234,8.856,0.174,12.169   c5.646,5.487,10.411,11.68,14.219,18.476c-14.835,11.591-24.732,28.021-28.112,46.335c-0.019,0.102-0.038,0.205-0.056,0.308   c-0.153,0.848-0.298,1.696-0.423,2.551c-0.054,0.362-0.095,0.729-0.144,1.093c-0.084,0.637-0.183,1.269-0.251,1.909   c-0.796-0.093-1.596-0.148-2.396-0.209c-1.507-0.115-3.018-0.194-4.538-0.194c-0.801,0-1.601,0.017-2.396,0.051   c-0.265,0.011-0.527,0.033-0.791,0.047c-0.529,0.029-1.058,0.056-1.585,0.099c-0.318,0.026-0.635,0.063-0.952,0.096   c-0.416,0.041-0.835,0.075-1.25,0.125c-0.053,0.006-0.103,0.015-0.156,0.022c-0.336,0.041-0.667,0.094-1,0.14   c-0.446,0.062-0.893,0.123-1.336,0.196c-0.343,0.056-0.683,0.123-1.024,0.185c-0.429,0.079-0.858,0.155-1.284,0.242   c-0.349,0.071-0.694,0.152-1.04,0.23c-0.415,0.094-0.83,0.185-1.242,0.287c-0.35,0.086-0.695,0.181-1.042,0.273   c-0.404,0.108-0.809,0.216-1.211,0.332c-0.349,0.101-0.694,0.209-1.039,0.316c-0.396,0.123-0.791,0.245-1.183,0.376   c-0.345,0.115-0.687,0.236-1.03,0.357c-0.387,0.137-0.773,0.275-1.157,0.419c-0.341,0.129-0.681,0.262-1.02,0.398   c-0.38,0.152-0.758,0.304-1.134,0.464c-0.336,0.142-0.669,0.287-1.001,0.436c-0.372,0.166-0.743,0.333-1.112,0.507   c-0.33,0.155-0.658,0.313-0.985,0.473c-0.366,0.18-0.728,0.362-1.09,0.55c-0.323,0.167-0.643,0.336-0.963,0.508   c-0.358,0.194-0.714,0.392-1.068,0.593c-0.315,0.179-0.63,0.359-0.942,0.543c-0.351,0.208-0.698,0.419-1.043,0.634   c-0.308,0.19-0.614,0.381-0.919,0.577c-0.344,0.222-0.684,0.45-1.024,0.678c-0.298,0.201-0.596,0.4-0.89,0.607   c-0.337,0.236-0.669,0.478-1,0.721c-0.288,0.211-0.577,0.419-0.862,0.636c-0.33,0.251-0.656,0.509-0.981,0.767   c-0.276,0.219-0.555,0.437-0.828,0.66c-0.325,0.267-0.643,0.541-0.963,0.814c-0.264,0.226-0.53,0.45-0.791,0.68   c-0.321,0.285-0.635,0.578-0.95,0.87c-0.248,0.23-0.5,0.457-0.745,0.693c-0.321,0.308-0.632,0.623-0.945,0.938   c-0.229,0.23-0.463,0.456-0.688,0.689c-0.328,0.34-0.648,0.689-0.968,1.038c-0.201,0.218-0.407,0.431-0.605,0.653   c-0.37,0.413-0.728,0.837-1.086,1.261c-0.14,0.166-0.284,0.325-0.422,0.492c-0.49,0.594-0.97,1.196-1.437,1.809   c-0.123,0.16-0.237,0.326-0.357,0.487c-0.342,0.458-0.684,0.918-1.013,1.385c-0.17,0.243-0.331,0.493-0.499,0.738   c-0.269,0.395-0.54,0.787-0.799,1.19c-0.18,0.279-0.35,0.564-0.525,0.845c-0.236,0.378-0.472,0.754-0.699,1.138   c-0.179,0.301-0.346,0.608-0.518,0.912c-0.212,0.372-0.425,0.744-0.628,1.122c-0.172,0.319-0.336,0.644-0.501,0.967   c-0.191,0.371-0.384,0.742-0.568,1.119c-0.162,0.333-0.317,0.672-0.474,1.01c-0.174,0.374-0.349,0.748-0.515,1.126   c-0.152,0.346-0.296,0.697-0.442,1.048c-0.157,0.376-0.314,0.753-0.463,1.135c-0.141,0.359-0.274,0.723-0.409,1.086   c-0.091,0.247-0.19,0.489-0.278,0.739c-1.819,1.227-3.588,2.534-5.301,3.921c-1.686,1.365-3.301,2.806-4.86,4.304   c-0.059,0.057-0.117,0.114-0.176,0.171c-0.713,0.689-1.412,1.392-2.097,2.107c-0.069,0.072-0.14,0.143-0.209,0.215   c-1.441,1.519-2.824,3.09-4.134,4.718c-0.212,0.262-0.415,0.531-0.624,0.796c-0.388,0.496-0.774,0.993-1.151,1.497   c-0.124,0.166-0.255,0.325-0.378,0.492c-24.863-14.312-40.568-41.069-40.568-70.06c0-44.55,36.244-80.795,80.796-80.795   c12.024,0,23.59,2.577,34.373,7.661c4.299,2.025,9.426,0.184,11.452-4.114c2.026-4.299,0.184-9.427-4.114-11.452   c-13.097-6.173-27.131-9.303-41.711-9.303c-54.041,0-98.006,43.965-98.006,98.005c0,35.172,19.061,67.617,49.222,84.974   c-0.294,0.675-0.572,1.357-0.847,2.04c-0.043,0.107-0.088,0.212-0.131,0.318c-0.367,0.929-0.721,1.865-1.052,2.808   c-2.295-0.326-4.614-0.489-6.945-0.489c-0.864,0-1.732,0.024-2.601,0.07c-0.866,0.045-1.729,0.115-2.587,0.205   C107.794,261.11,90.352,227.731,90.352,191.769z"/>
</g>
<g>
</g>
<g>
</g>
<g>
</g>
<g>
</g>
<g>
</g>
<g>
</g>
<g>
</g>
<g>
</g>
<g>
</g>
<g>
</g>
<g>
</g>
<g>
</g>
<g>
</g>
<g>
</g>
<g>
</g>
</svg>
