<?xml version="1.0" encoding="iso-8859-1"?>
<!-- Generator: Adobe Illustrator 19.0.0, SVG Export Plug-In . SVG Version: 6.00 Build 0)  -->
<svg xmlns="http://www.w3.org/2000/svg" xmlns:xlink="http://www.w3.org/1999/xlink" version="1.1" id="Layer_1" x="0px" y="0px" viewBox="0 0 512 512" style="enable-background:new 0 0 512 512;" xml:space="preserve">
<path style="fill:#ED5145;" d="M247.677,105.979c-100.355,0-182.501,77.904-189.294,176.529c0.265,0.077,0.536,0.137,0.796,0.218  c-0.02-0.591-0.044-1.183-0.044-1.777c0-28.912,23.437-52.35,52.349-52.35c24.931,0,45.776,17.432,51.048,40.767  c3.128-1.044,6.471-1.618,9.951-1.618c2.986,0,5.869,0.43,8.604,1.209c-0.006-0.002-0.015-0.005-0.022-0.008  c10.62-26.378,36.431-45.009,66.612-45.009c29.196,0,54.302,17.437,65.523,42.456c-0.013,0.018-0.024,0.037-0.035,0.056  c12.253-18.023,32.912-29.867,56.349-29.867c35.749,0,65.046,27.54,67.88,62.559c0.02-1.135,0.043-2.269,0.043-3.41  C437.436,190.937,352.477,105.979,247.677,105.979z"/>
<path style="fill:#F75C54;" d="M245.011,106.865c-7.951,0-15.787,0.493-23.48,1.442c-6.943,17.734-10.76,37.037-10.76,57.232  c0,22.218,4.624,43.352,12.945,62.509c6.728-2.089,13.878-3.219,21.294-3.219c29.196,0,54.302,17.437,65.523,42.456  c-0.012,0.018-0.024,0.037-0.037,0.056c12.255-18.023,32.912-29.867,56.35-29.867c35.749,0,65.046,27.54,67.88,62.559  c0.019-1.135,0.043-2.268,0.043-3.41C434.771,191.823,349.812,106.865,245.011,106.865z"/>
<path style="fill:#F29F26;" d="M332.545,171.481c-24.158-16.536-53.382-26.208-84.868-26.208  c-58.985,0-110.032,33.945-134.698,83.359c24.264,0.683,44.386,17.868,49.552,40.735c3.128-1.044,6.471-1.618,9.951-1.618  c2.986,0,5.869,0.43,8.604,1.209c-0.006-0.002-0.015-0.005-0.022-0.008c10.62-26.378,36.431-45.009,66.612-45.009  c29.196,0,54.302,17.437,65.523,42.456c-0.013,0.018-0.024,0.037-0.035,0.056c12.253-18.023,32.912-29.867,56.349-29.867  c6.05,0,11.912,0.798,17.496,2.278c-7.642-18.708-18.943-35.532-33.012-49.587"/>
<path style="fill:#F9A83D;" d="M351.331,190.166l-21.45-17.8c-24.158-16.536-53.382-26.208-84.868-26.208  c-11.505,0-22.702,1.308-33.467,3.754c-0.508,5.14-0.772,10.352-0.772,15.626c0,22.218,4.624,43.352,12.945,62.509  c6.728-2.089,13.878-3.219,21.294-3.219c29.196,0,54.302,17.437,65.523,42.456c-0.012,0.018-0.024,0.037-0.037,0.056  c12.255-18.023,32.912-29.867,56.35-29.867c6.05,0,11.912,0.798,17.496,2.278C376.701,221.044,365.4,204.219,351.331,190.166z"/>
<path style="fill:#58C445;" d="M247.677,184.83c-42.836,0-79.994,24.288-98.471,59.838c6.491,6.751,11.188,15.24,13.326,24.7  c3.128-1.044,6.471-1.618,9.951-1.618c2.986,0,5.869,0.43,8.604,1.209c-0.006-0.002-0.015-0.005-0.022-0.008  c10.62-26.378,36.431-45.009,66.612-45.009c29.196,0,54.302,17.437,65.523,42.456c-0.027,0.041-0.054,0.085-0.082,0.126  c7.613-11.222,18.481-20.054,31.254-25.132C325.356,207.634,289.182,184.83,247.677,184.83z"/>
<path style="fill:#C7E6F9;" d="M439.976,406.015h12.769c27.974,0,50.65-22.679,50.65-50.651c0-27.975-22.676-50.649-50.65-50.649  c-5.283,0-10.378,0.811-15.165,2.31c0.026-0.767,0.059-1.536,0.059-2.31c0-37.626-30.501-68.126-68.126-68.126  c-32.442,0-59.569,22.685-66.432,53.052c-4.07-1.36-8.421-2.105-12.948-2.105c-13.938,0-26.24,6.979-33.617,17.629  c-4.118-1.065-8.436-1.635-12.886-1.635c-28.301,0-51.243,22.941-51.243,51.242c0,28.301,22.941,51.244,51.243,51.244h167.663"/>
<path style="fill:#83D4ED;" d="M158.878,358.792h33.679c-0.103-1.327-0.171-2.667-0.171-4.021c0-28.3,22.941-51.242,51.243-51.242  c0.21,0,0.417,0.017,0.626,0.019c-6.104-13.842-19.938-23.508-36.039-23.508c-3.421,0-6.739,0.437-9.902,1.256  c-5.67-8.184-15.122-13.546-25.832-13.546c-3.48,0-6.823,0.573-9.951,1.618c-5.273-23.336-26.117-40.767-51.048-40.767  c-28.912,0-52.349,23.438-52.349,52.35c0,0.595,0.024,1.188,0.044,1.777c-3.679-1.153-7.593-1.777-11.653-1.777  c-21.495-0.001-38.92,17.423-38.92,38.92c0,21.495,17.424,38.923,38.921,38.923h83.744"/>
<path style="fill:#6AD354;" d="M247.677,184.83c-12.206,0-23.948,1.978-34.931,5.621c2.099,13.146,5.826,25.75,10.97,37.595  c7.493-2.654,15.557-4.102,23.96-4.102c28.528,0,53.143,16.651,64.723,40.753c8.017-10.665,19.086-18.899,31.916-23.398  C325.286,207.592,289.143,184.83,247.677,184.83z"/>
<path style="fill:#9FDEF7;" d="M205.552,279.85c-3.421,0-6.739,0.437-9.902,1.256c-5.67-8.184-15.122-13.546-25.832-13.546  c-3.48,0-6.823,0.573-9.951,1.618c-5.273-23.336-26.117-40.767-51.048-40.767c-3.31,0-6.542,0.321-9.682,0.909  c-7.155,13.32-11.218,28.548-11.218,44.727c0,36.962,21.188,68.972,52.08,84.556h16.214h33.68c-0.103-1.327-0.171-2.665-0.171-4.021  c0-28.301,22.941-51.242,51.243-51.242c0.21,0,0.417,0.017,0.626,0.019C235.487,289.516,221.652,279.85,205.552,279.85z"/>
<path style="fill:#E4F2F9;" d="M449.005,303.448c-5.283,0-10.377,0.811-15.165,2.31c0.026-0.767,0.059-1.536,0.059-2.31  c0-37.626-30.501-68.126-68.126-68.126c-32.442,0-59.569,22.685-66.432,53.052c-4.07-1.36-8.421-2.105-12.948-2.105  c-13.938,0-26.24,6.979-33.617,17.629c-0.467-0.12-0.944-0.211-1.416-0.319c40.269,59.227,108.198,98.133,185.218,98.133  c12.368,0,24.497-1.02,36.321-2.949c15.924-8.537,26.756-25.334,26.756-44.664C499.654,326.123,476.976,303.448,449.005,303.448z"/>
<path style="fill:#231F20;" d="M452.745,296.109c-2.25,0-4.491,0.132-6.713,0.384c0.002-0.252,0.009-0.502,0.009-0.756  c0-109.379-88.986-198.363-198.365-198.363c-50.575,0-98.739,19.038-135.618,53.606c-34.378,32.226-55.953,75.063-61.381,121.474  c-1.047-0.069-2.097-0.11-3.152-0.11C21.319,272.344,0,293.664,0,319.87c0,26.207,21.319,47.528,47.526,47.528h83.744  c4.752,0,8.605-3.853,8.605-8.605c0-4.752-3.853-8.605-8.605-8.605H47.526c-16.715,0-30.316-13.6-30.316-30.318  c0-16.715,13.6-30.316,30.316-30.316c2.861,0,5.683,0.415,8.405,1.2c0.01,0.003,0.019,0.008,0.029,0.01  c0.204,0.061,0.411,0.116,0.617,0.169l0.014,0.001c0.004,0.001,0.009,0.002,0.013,0.003c0.385,0.12,0.777,0.205,1.169,0.27  c0.116,0.019,0.232,0.029,0.35,0.043c0.284,0.035,0.567,0.058,0.851,0.065c0.068,0.002,0.137,0.015,0.204,0.015  c0.016,0,0.03,0,0.045,0c0.085,0,0.168-0.011,0.253-0.013c0.114-0.004,0.227-0.01,0.34-0.018c0.243-0.017,0.483-0.045,0.72-0.083  c0.063-0.01,0.127-0.018,0.189-0.029c4.023-0.721,7.08-4.23,7.08-8.462c0-0.262-0.017-0.521-0.04-0.778  c-0.012-0.332-0.025-0.666-0.025-1c0-24.121,19.623-43.745,43.744-43.745c0.409,0,0.814,0.015,1.221,0.026  c0.011,0,0.022,0.003,0.033,0.003c11.713,0.33,22.405,5.281,30.139,13.244c0.045,0.049,0.08,0.106,0.127,0.155  c4.147,4.312,7.348,9.398,9.428,14.933c0.003,0.01,0.008,0.019,0.011,0.029c0.323,0.859,0.612,1.732,0.88,2.613  c0.044,0.146,0.086,0.293,0.129,0.44c0.253,0.865,0.487,1.736,0.686,2.618c0.47,2.075,1.688,3.892,3.403,5.114  c0.245,0.174,0.5,0.337,0.766,0.486c0.3,0.169,0.61,0.314,0.924,0.444c0.098,0.041,0.197,0.073,0.295,0.11  c0.224,0.084,0.449,0.159,0.677,0.224c0.113,0.031,0.225,0.06,0.339,0.087c0.228,0.055,0.457,0.098,0.688,0.133  c0.105,0.016,0.21,0.034,0.316,0.047c0.287,0.033,0.575,0.051,0.864,0.055c0.041,0.001,0.081,0.008,0.12,0.008  c0.006,0,0.013-0.001,0.019-0.001c0.41-0.001,0.819-0.039,1.226-0.098c0.089-0.013,0.176-0.028,0.266-0.044  c0.409-0.073,0.815-0.165,1.213-0.298c0.561-0.187,1.129-0.351,1.701-0.494c0.218-0.055,0.44-0.092,0.659-0.141  c0.353-0.077,0.706-0.157,1.062-0.217c0.274-0.046,0.551-0.076,0.827-0.112c0.303-0.04,0.607-0.083,0.912-0.111  c0.304-0.028,0.61-0.04,0.915-0.055c0.278-0.014,0.554-0.029,0.831-0.033c0.467-0.006,0.935-0.002,1.403,0.02  c0.033,0.001,0.067,0.001,0.1,0.003c1.112,0.059,2.223,0.201,3.327,0.424c0.051,0.011,0.101,0.023,0.153,0.033  c0.484,0.101,0.965,0.219,1.445,0.353c0.085,0.024,0.169,0.046,0.254,0.071c1.175,0.341,2.315,0.777,3.411,1.298  c0.094,0.044,0.186,0.09,0.279,0.136c0.534,0.262,1.06,0.541,1.57,0.844c0.003,0.002,0.008,0.004,0.011,0.006  c0.536,0.318,1.057,0.661,1.565,1.022c0.062,0.044,0.123,0.09,0.184,0.134c0.452,0.328,0.892,0.672,1.319,1.033  c0.053,0.044,0.108,0.087,0.159,0.132c0.466,0.4,0.916,0.819,1.35,1.255c0.043,0.044,0.084,0.09,0.127,0.134  c0.371,0.381,0.728,0.778,1.072,1.185c0.089,0.105,0.179,0.21,0.266,0.317c0.376,0.461,0.742,0.934,1.083,1.426  c2.053,2.966,5.737,4.336,9.231,3.429c2.515-0.651,5.121-0.981,7.745-0.981c0.624,0,1.245,0.026,1.862,0.063  c0.168,0.01,0.335,0.023,0.501,0.035c0.516,0.04,1.03,0.091,1.541,0.157c0.108,0.014,0.215,0.024,0.322,0.039  c0.603,0.084,1.201,0.187,1.795,0.305c0.143,0.029,0.285,0.061,0.428,0.092c0.483,0.103,0.963,0.218,1.438,0.345  c0.139,0.037,0.278,0.071,0.416,0.11c0.582,0.164,1.158,0.341,1.727,0.538c0.093,0.032,0.182,0.068,0.274,0.1  c0.488,0.174,0.971,0.36,1.449,0.558c0.142,0.059,0.285,0.118,0.426,0.18c1.111,0.48,2.191,1.024,3.235,1.63  c0.132,0.076,0.264,0.155,0.395,0.234c0.443,0.266,0.881,0.542,1.31,0.83c0.079,0.053,0.159,0.102,0.238,0.156  c0.496,0.339,0.981,0.695,1.457,1.063c0.108,0.084,0.213,0.17,0.319,0.255c0.387,0.308,0.768,0.625,1.14,0.952  c0.103,0.09,0.209,0.18,0.311,0.272c0.063,0.057,0.123,0.119,0.186,0.176c-0.055,0.014-0.109,0.03-0.162,0.044  c-0.218,0.056-0.432,0.119-0.65,0.177c-0.659,0.176-1.314,0.361-1.964,0.559c-0.294,0.089-0.584,0.183-0.876,0.277  c-0.586,0.188-1.168,0.386-1.746,0.592c-0.284,0.101-0.567,0.201-0.849,0.307c-0.652,0.244-1.297,0.5-1.938,0.766  c-0.184,0.076-0.37,0.146-0.553,0.225c-0.819,0.349-1.627,0.715-2.427,1.098c-0.19,0.091-0.378,0.19-0.567,0.284  c-0.61,0.3-1.214,0.609-1.811,0.929c-0.261,0.14-0.521,0.285-0.78,0.429c-0.532,0.296-1.061,0.6-1.583,0.911  c-0.254,0.152-0.508,0.301-0.758,0.456c-0.585,0.36-1.162,0.733-1.733,1.112c-0.165,0.109-0.331,0.213-0.495,0.324  c-0.728,0.494-1.443,1.004-2.148,1.528c-0.169,0.126-0.332,0.257-0.499,0.385c-0.535,0.407-1.064,0.821-1.583,1.246  c-0.231,0.188-0.458,0.381-0.687,0.572c-0.459,0.386-0.913,0.779-1.361,1.179c-0.223,0.199-0.446,0.397-0.666,0.599  c-0.496,0.456-0.983,0.923-1.464,1.396c-0.146,0.144-0.297,0.284-0.442,0.429c-0.617,0.62-1.221,1.252-1.81,1.898  c-0.144,0.158-0.282,0.322-0.425,0.481c-0.443,0.496-0.881,0.998-1.308,1.509c-0.195,0.232-0.384,0.468-0.575,0.703  c-0.375,0.462-0.743,0.93-1.105,1.405c-0.184,0.241-0.368,0.481-0.549,0.725c-0.396,0.537-0.782,1.081-1.161,1.631  c-0.122,0.177-0.248,0.351-0.369,0.529c-0.488,0.726-0.962,1.463-1.418,2.21c-0.114,0.186-0.221,0.376-0.332,0.565  c-0.341,0.572-0.676,1.149-0.998,1.733c-0.148,0.268-0.291,0.539-0.436,0.81c-0.281,0.527-0.553,1.058-0.817,1.595  c-0.137,0.277-0.274,0.554-0.407,0.833c-0.287,0.603-0.561,1.213-0.828,1.829c-0.088,0.203-0.182,0.403-0.268,0.608  c-0.343,0.815-0.669,1.639-0.977,2.472c-0.075,0.204-0.143,0.412-0.216,0.617c-0.228,0.64-0.449,1.283-0.655,1.932  c-0.094,0.294-0.182,0.589-0.271,0.885c-0.176,0.586-0.344,1.176-0.503,1.768c-0.08,0.299-0.16,0.597-0.237,0.898  c-0.168,0.669-0.323,1.343-0.468,2.02c-0.046,0.214-0.098,0.425-0.141,0.639c-0.181,0.891-0.342,1.789-0.482,2.693  c-0.032,0.204-0.055,0.412-0.085,0.617c-0.102,0.708-0.195,1.418-0.272,2.133c-0.033,0.304-0.06,0.61-0.088,0.915  c-0.03,0.325-0.069,0.647-0.094,0.973h-25.076c-4.752,0-8.605,3.853-8.605,8.605s3.853,8.605,8.605,8.605h26.255  c5.813,26.956,29.827,47.222,58.496,47.222h167.663c4.752,0,8.605-3.853,8.605-8.605s-3.853-8.605-8.605-8.605h-167.66  c-22.376,0-40.769-17.331-42.493-39.271c0-0.003,0-0.008,0-0.011c-0.044-0.575-0.077-1.112-0.101-1.625  c-0.023-0.574-0.044-1.15-0.044-1.731c0-23.509,19.127-42.637,42.638-42.637l-0.036,0.002c0.101,0.004,0.203,0.005,0.305,0.009  c0.089,0.003,0.179,0.006,0.269,0.008c0,0,0,0,0.001,0l0,0l0,0c0.013,0,0.026-0.001,0.039-0.001  c0.465,0.006,0.928,0.023,1.393,0.044c0.363,0.016,0.726,0.03,1.089,0.056c0.53,0.038,1.057,0.094,1.584,0.151  c0.333,0.037,0.668,0.066,0.999,0.11c0.58,0.076,1.156,0.175,1.732,0.275c0.276,0.048,0.555,0.086,0.829,0.14  c0.848,0.165,1.691,0.352,2.526,0.568c0.404,0.104,0.81,0.171,1.215,0.215c0.125,0.014,0.247,0.015,0.372,0.024  c0.189,0.013,0.38,0.035,0.568,0.035c0.097,0,0.191-0.014,0.287-0.017c0.132-0.004,0.264-0.013,0.395-0.024  c0.282-0.023,0.559-0.06,0.836-0.11c0.118-0.021,0.238-0.039,0.355-0.065c0.357-0.08,0.709-0.18,1.053-0.303  c0.027-0.01,0.055-0.015,0.082-0.026c0.369-0.138,0.726-0.305,1.073-0.493c0.102-0.055,0.199-0.119,0.299-0.179  c0.242-0.143,0.479-0.297,0.707-0.465c0.111-0.081,0.218-0.165,0.325-0.252c0.217-0.176,0.424-0.365,0.624-0.563  c0.089-0.088,0.181-0.171,0.267-0.264c0.274-0.296,0.536-0.608,0.77-0.947c6.04-8.718,15.962-13.923,26.543-13.923  c3.481,0,6.921,0.559,10.223,1.662c0.865,0.289,1.761,0.436,2.654,0.443c0.894,0.008,1.784-0.125,2.641-0.393  c0.571-0.179,1.126-0.417,1.656-0.716c0.455-0.257,0.877-0.559,1.272-0.888c1.446-1.203,2.475-2.849,2.897-4.711  c0.009-0.04,0.02-0.08,0.03-0.119c0.195-0.852,0.406-1.697,0.636-2.536c0.032-0.119,0.071-0.236,0.104-0.355  c1.718-6.098,4.394-11.856,7.982-17.154c0.008-0.011,0.013-0.019,0.02-0.03l0.001-0.001c0.042-0.062,0.087-0.122,0.129-0.183  c0.585-0.856,1.196-1.689,1.82-2.508c0.141-0.185,0.281-0.372,0.424-0.555c0.654-0.838,1.327-1.656,2.021-2.452  c0.116-0.133,0.234-0.264,0.352-0.396c1.519-1.715,3.124-3.336,4.813-4.85c0.047-0.043,0.095-0.086,0.143-0.128  c2.673-2.381,5.545-4.511,8.579-6.363c0.014-0.009,0.027-0.016,0.041-0.025c2.011-1.226,4.096-2.33,6.238-3.309  c0.043-0.019,0.085-0.04,0.128-0.059c6.416-2.913,13.365-4.684,20.546-5.171c0.218-0.014,0.437-0.03,0.655-0.042  c1.121-0.063,2.245-0.104,3.375-0.104c0.904,0,1.801,0.028,2.696,0.069c0.156,0.008,0.312,0.014,0.468,0.023  c0.564,0.03,1.123,0.076,1.682,0.123c0.309,0.025,0.62,0.041,0.927,0.071c28.199,2.777,51.206,25.656,53.531,54.363  c0.001,0.009,0.002,0.017,0.003,0.025c0.13,1.601,0.214,3.214,0.214,4.848c0,0.55-0.021,1.095-0.041,1.638l-0.013,0.379  c-0.096,2.789,1.167,5.45,3.388,7.141c2.218,1.69,5.122,2.2,7.784,1.364c4.06-1.272,8.297-1.917,12.592-1.917  c23.184,0,42.045,18.861,42.045,42.044c0,23.185-18.861,42.046-42.045,42.046h-12.768c-4.752,0-8.605,3.853-8.605,8.605  s3.853,8.605,8.605,8.605h12.769c32.673,0,59.255-26.582,59.255-59.256C512,322.69,485.418,296.109,452.745,296.109z   M247.677,114.584c83.945,0,154.74,57.399,175.2,135.008c-0.406-0.393-0.815-0.781-1.229-1.166  c-8.216-7.618-17.871-13.242-28.298-16.646c-7.968-18.147-19.146-34.477-33.271-48.586c-3.361-3.359-8.809-3.355-12.169,0.006  c-3.358,3.362-3.355,8.81,0.008,12.17c9.768,9.757,17.957,20.702,24.454,32.668c-0.952-0.036-1.905-0.053-2.857-0.053  c-1.2,0-2.398,0.034-3.593,0.091c-0.457,0.022-0.911,0.059-1.367,0.088c-0.72,0.047-1.438,0.097-2.154,0.163  c-0.577,0.054-1.15,0.119-1.724,0.186c-0.573,0.067-1.146,0.139-1.717,0.218c-0.652,0.09-1.302,0.187-1.949,0.295  c-0.458,0.076-0.915,0.16-1.371,0.245c-0.728,0.133-1.455,0.269-2.177,0.424c-0.277,0.059-0.552,0.129-0.828,0.191  c-1.506,0.34-2.998,0.724-4.476,1.153c-21.921-33.978-59.781-54.813-100.478-54.813c-41.137,0-78.785,20.863-100.664,55.089  c-6.097-4.357-13.018-7.589-20.468-9.459c25.682-42.221,71.066-67.978,121.132-67.978c28.731,0,56.397,8.543,80.009,24.704  c3.92,2.684,9.276,1.683,11.961-2.241c2.685-3.922,1.681-9.277-2.241-11.961c-26.485-18.13-57.514-27.713-89.729-27.713  c-30.128,0-59.455,8.464-84.813,24.478c-23.176,14.636-42.153,34.953-55.152,58.971c-0.486,0.03-0.97,0.067-1.453,0.108  c-0.278,0.024-0.555,0.047-0.831,0.074c-0.674,0.067-1.345,0.145-2.011,0.234c-0.177,0.024-0.357,0.042-0.535,0.068  c-0.833,0.118-1.66,0.254-2.481,0.406c-0.218,0.041-0.436,0.087-0.653,0.13c-0.613,0.12-1.224,0.248-1.831,0.386  c-0.274,0.062-0.546,0.127-0.819,0.194c-0.585,0.142-1.166,0.294-1.745,0.453c-0.234,0.065-0.47,0.126-0.702,0.193  c-0.791,0.227-1.575,0.468-2.351,0.726c-0.13,0.043-0.257,0.091-0.386,0.136c-0.654,0.223-1.303,0.455-1.947,0.699  c-0.253,0.096-0.504,0.196-0.756,0.295c-0.537,0.212-1.069,0.43-1.598,0.656c-0.245,0.104-0.49,0.208-0.734,0.315  c-0.649,0.287-1.292,0.585-1.929,0.895c-0.098,0.047-0.199,0.091-0.297,0.14c-0.728,0.358-1.447,0.734-2.158,1.121  c-0.211,0.114-0.418,0.233-0.627,0.351c-0.514,0.287-1.024,0.58-1.528,0.882c-0.23,0.138-0.46,0.276-0.689,0.416  c-0.163,0.1-0.33,0.196-0.493,0.298C105.843,161.963,171.818,114.584,247.677,114.584z M244.701,215.394  c-0.327,0.012-0.651,0.036-0.977,0.051c-0.66,0.032-1.32,0.063-1.976,0.111c-0.39,0.028-0.778,0.068-1.166,0.101  c-0.588,0.052-1.178,0.102-1.763,0.166c-0.413,0.045-0.823,0.1-1.235,0.151c-0.406,0.051-0.814,0.092-1.218,0.148  c-0.152,0.022-0.3,0.049-0.452,0.071c-0.421,0.061-0.839,0.13-1.258,0.198c-0.541,0.087-1.082,0.177-1.62,0.275  c-0.423,0.077-0.842,0.16-1.263,0.244c-0.529,0.105-1.057,0.214-1.582,0.33c-0.422,0.092-0.843,0.19-1.263,0.289  c-0.52,0.124-1.036,0.252-1.552,0.385c-0.418,0.108-0.835,0.218-1.251,0.332c-0.514,0.142-1.026,0.29-1.537,0.442  c-0.409,0.122-0.817,0.243-1.224,0.371c-0.513,0.161-1.023,0.331-1.532,0.503c-0.398,0.134-0.796,0.267-1.191,0.407  c-0.516,0.183-1.028,0.376-1.539,0.57c-0.38,0.143-0.762,0.284-1.139,0.433c-0.53,0.21-1.054,0.431-1.579,0.652  c-0.352,0.148-0.707,0.29-1.056,0.443c-0.579,0.253-1.15,0.52-1.721,0.785c-0.288,0.134-0.58,0.262-0.867,0.4  c-0.852,0.41-1.697,0.833-2.533,1.271c-0.099,0.052-0.196,0.109-0.295,0.161c-0.737,0.39-1.469,0.791-2.193,1.204  c-0.295,0.169-0.583,0.346-0.876,0.518c-0.523,0.308-1.047,0.615-1.563,0.935c-0.329,0.204-0.653,0.417-0.98,0.626  c-0.47,0.301-0.941,0.601-1.405,0.912c-0.34,0.228-0.674,0.463-1.01,0.696c-0.442,0.305-0.883,0.612-1.318,0.926  c-0.34,0.245-0.675,0.498-1.011,0.749c-0.424,0.316-0.845,0.635-1.263,0.959c-0.333,0.26-0.664,0.525-0.994,0.79  c-0.41,0.329-0.817,0.662-1.22,0.999c-0.326,0.273-0.649,0.549-0.97,0.827c-0.398,0.344-0.793,0.693-1.184,1.046  c-0.315,0.284-0.629,0.569-0.94,0.857c-0.388,0.36-0.771,0.727-1.152,1.095c-0.303,0.293-0.606,0.586-0.904,0.883  c-0.381,0.381-0.756,0.768-1.129,1.156c-0.286,0.298-0.574,0.595-0.856,0.897c-0.379,0.407-0.75,0.821-1.12,1.235  c-0.265,0.297-0.532,0.589-0.794,0.891c-0.387,0.445-0.764,0.901-1.141,1.356c-0.233,0.281-0.47,0.557-0.7,0.841  c-0.429,0.531-0.847,1.075-1.263,1.619c-0.167,0.217-0.339,0.43-0.503,0.65c-0.579,0.772-1.146,1.555-1.698,2.351  c-0.045,0.066-0.088,0.134-0.134,0.2c-0.502,0.728-0.996,1.465-1.476,2.213c-0.166,0.257-0.322,0.521-0.484,0.78  c-0.353,0.563-0.705,1.126-1.044,1.699c-0.186,0.315-0.365,0.636-0.548,0.954c-0.24,0.417-0.486,0.83-0.72,1.253  c-0.061,0.112-0.118,0.227-0.18,0.339c-0.187,0.344-0.368,0.694-0.551,1.041c-0.196,0.372-0.399,0.739-0.589,1.114  c-0.254-0.023-0.508-0.032-0.762-0.049c-0.299-0.02-0.598-0.044-0.898-0.058c-0.418-0.019-0.836-0.026-1.254-0.032  c-0.202-0.003-0.403-0.016-0.606-0.016c-0.04,0-0.08,0.003-0.119,0.003c-0.043,0-0.087-0.002-0.13-0.002l0,0  c-0.388,0.002-0.776,0.02-1.164,0.034c-0.214,0.008-0.429,0.008-0.643,0.019c-0.025,0.001-0.049,0.001-0.074,0.002  c-0.024,0.001-0.046,0.004-0.069,0.005c-0.428,0.024-0.854,0.061-1.28,0.098c-0.168,0.015-0.337,0.022-0.504,0.039  c-2.167-5.782-5.158-11.094-8.81-15.824c18.418-31.039,51.615-50.086,87.99-50.086c33.798,0,65.319,16.782,84.307,44.348  c-1.83,1.026-3.607,2.133-5.339,3.301c-0.096,0.065-0.19,0.131-0.286,0.196c-0.016,0.011-0.031,0.022-0.047,0.032  c-0.031,0.022-0.063,0.043-0.095,0.065c-0.71,0.485-1.41,0.982-2.103,1.491c-0.154,0.113-0.308,0.227-0.46,0.341  c-0.712,0.531-1.413,1.075-2.106,1.631c-0.084,0.068-0.172,0.13-0.256,0.198c-0.048,0.04-0.096,0.082-0.144,0.12  c-0.534,0.433-1.058,0.878-1.58,1.326c-0.159,0.137-0.319,0.272-0.478,0.41c-0.522,0.456-1.035,0.921-1.545,1.391  c-0.06,0.056-0.124,0.11-0.184,0.166c-0.014,0.013-0.029,0.026-0.043,0.039c-0.073,0.068-0.145,0.138-0.218,0.207  c-0.511,0.48-1.014,0.967-1.512,1.462c-0.137,0.136-0.273,0.269-0.409,0.406c-0.2,0.201-0.406,0.395-0.602,0.598  c-0.132-0.198-0.272-0.39-0.406-0.588c-0.202-0.297-0.406-0.592-0.611-0.885c-0.323-0.461-0.652-0.918-0.984-1.371  c-0.205-0.282-0.411-0.564-0.62-0.842c-0.089-0.118-0.174-0.24-0.264-0.357c-0.276-0.362-0.561-0.716-0.843-1.075  c-0.185-0.236-0.368-0.474-0.555-0.707c-0.563-0.698-1.134-1.388-1.718-2.064c-0.019-0.023-0.039-0.043-0.058-0.066  c-0.568-0.657-1.149-1.304-1.736-1.94c-0.198-0.214-0.4-0.423-0.6-0.635c-0.417-0.442-0.836-0.881-1.262-1.313  c-0.237-0.24-0.478-0.476-0.717-0.713c-0.402-0.398-0.808-0.792-1.219-1.181c-0.251-0.238-0.502-0.473-0.756-0.707  c-0.418-0.386-0.841-0.766-1.267-1.143c-0.247-0.219-0.495-0.439-0.744-0.655c-0.469-0.404-0.944-0.801-1.423-1.195  c-0.212-0.174-0.421-0.352-0.634-0.524c-1.392-1.122-2.819-2.198-4.28-3.224c-0.223-0.157-0.45-0.308-0.674-0.461  c-0.512-0.352-1.025-0.7-1.545-1.04c-0.272-0.179-0.548-0.352-0.822-0.527c-0.484-0.309-0.971-0.613-1.462-0.911  c-0.287-0.174-0.575-0.347-0.865-0.517c-0.496-0.293-0.995-0.579-1.497-0.862c-0.282-0.158-0.563-0.317-0.846-0.472  c-0.55-0.3-1.104-0.591-1.661-0.879c-0.238-0.123-0.474-0.25-0.713-0.37c-1.597-0.805-3.223-1.558-4.874-2.256  c-0.25-0.105-0.501-0.204-0.752-0.307c-0.578-0.238-1.157-0.471-1.74-0.696c-0.307-0.117-0.614-0.23-0.922-0.344  c-0.538-0.199-1.078-0.394-1.621-0.582c-0.323-0.112-0.646-0.222-0.971-0.329c-0.544-0.181-1.091-0.354-1.639-0.523  c-0.317-0.098-0.635-0.197-0.953-0.29c-0.597-0.175-1.197-0.341-1.798-0.503c-0.269-0.072-0.537-0.15-0.807-0.219  c-1.745-0.451-3.508-0.843-5.289-1.177c-0.283-0.053-0.568-0.098-0.852-0.148c-0.61-0.108-1.221-0.212-1.835-0.305  c-0.338-0.052-0.678-0.098-1.016-0.144c-0.567-0.079-1.135-0.153-1.705-0.219c-0.355-0.042-0.711-0.081-1.067-0.118  c-0.569-0.059-1.14-0.111-1.711-0.157c-0.347-0.028-0.694-0.058-1.042-0.082c-0.621-0.043-1.243-0.074-1.867-0.103  c-0.296-0.014-0.591-0.032-0.887-0.042c-0.92-0.031-1.841-0.051-2.767-0.051C246.681,215.338,245.689,215.358,244.701,215.394z   M287.468,279.002c-13.27,0.716-25.667,6.754-34.42,16.661c-1.004-0.159-2.014-0.283-3.026-0.39  c-0.124-0.013-0.245-0.035-0.369-0.047c-0.022-0.038-0.047-0.073-0.07-0.111c-0.488-0.83-0.999-1.641-1.533-2.436  c-0.04-0.058-0.076-0.118-0.116-0.177c-0.532-0.785-1.091-1.549-1.666-2.299c-0.081-0.104-0.159-0.21-0.24-0.314  c-0.566-0.724-1.153-1.428-1.757-2.117c-0.096-0.11-0.193-0.218-0.289-0.326c-0.611-0.683-1.24-1.35-1.888-1.995  c-0.088-0.088-0.179-0.174-0.268-0.261c-0.673-0.66-1.362-1.304-2.071-1.922c-0.044-0.038-0.088-0.074-0.132-0.112  c-0.734-0.635-1.483-1.248-2.252-1.836c-0.024-0.018-0.047-0.038-0.071-0.056c-0.758-0.578-1.536-1.128-2.327-1.66  c-0.092-0.062-0.184-0.126-0.278-0.188c-0.765-0.507-1.545-0.988-2.337-1.45c-0.119-0.07-0.24-0.14-0.36-0.209  c-0.791-0.452-1.594-0.882-2.41-1.289c-0.116-0.058-0.234-0.114-0.352-0.171c-0.837-0.409-1.683-0.797-2.544-1.156  c-0.075-0.031-0.153-0.06-0.229-0.091c-0.894-0.368-1.797-0.713-2.714-1.027c-0.015-0.005-0.029-0.011-0.043-0.016  c-0.908-0.31-1.829-0.587-2.757-0.843c-0.111-0.031-0.222-0.063-0.332-0.094c-0.888-0.238-1.786-0.447-2.69-0.635  c-0.15-0.031-0.298-0.062-0.447-0.091c-0.895-0.176-1.796-0.328-2.705-0.453c-0.152-0.02-0.303-0.04-0.454-0.059  c-0.924-0.118-1.853-0.215-2.79-0.28c-0.113-0.008-0.227-0.012-0.341-0.019c-0.986-0.061-1.976-0.099-2.973-0.099  c-1.085,0-2.17,0.037-3.251,0.11c-0.04,0.002-0.079,0.009-0.117,0.012c-1.04,0.072-2.077,0.174-3.109,0.314  c-0.622-0.667-1.272-1.302-1.935-1.921c-0.104-0.097-0.21-0.193-0.314-0.288c-0.651-0.596-1.317-1.172-2.003-1.722  c-0.012-0.01-0.024-0.02-0.037-0.03c-0.737-0.588-1.494-1.148-2.268-1.681c-0.061-0.042-0.123-0.082-0.184-0.123  c-0.705-0.48-1.424-0.937-2.158-1.37c-0.056-0.033-0.11-0.072-0.166-0.105c0.115-0.204,0.233-0.408,0.351-0.61  c0.123-0.213,0.244-0.427,0.37-0.639c0.077-0.13,0.152-0.262,0.229-0.393c0.202-0.336,0.413-0.663,0.621-0.994  c0.197-0.314,0.389-0.631,0.592-0.94c0.225-0.344,0.46-0.681,0.692-1.021c0.203-0.298,0.402-0.599,0.61-0.894  c0.039-0.054,0.079-0.107,0.117-0.16c0.204-0.288,0.416-0.57,0.626-0.854c0.19-0.259,0.379-0.521,0.572-0.777  c0.118-0.155,0.24-0.307,0.359-0.461c0.157-0.203,0.318-0.403,0.478-0.603c0.18-0.225,0.356-0.453,0.538-0.675  c0.148-0.181,0.299-0.359,0.449-0.538c0.158-0.189,0.319-0.375,0.48-0.563c0.169-0.197,0.335-0.395,0.506-0.589  c0.163-0.186,0.329-0.371,0.495-0.555c0.177-0.197,0.358-0.39,0.537-0.585c0.154-0.167,0.307-0.336,0.463-0.501  c0.172-0.182,0.344-0.364,0.518-0.543c0.203-0.21,0.411-0.416,0.616-0.624c0.143-0.144,0.284-0.289,0.428-0.431  c0.172-0.17,0.344-0.341,0.518-0.509c0.23-0.222,0.465-0.438,0.698-0.656c0.144-0.136,0.288-0.272,0.433-0.406  c0.159-0.146,0.316-0.295,0.477-0.439c0.26-0.234,0.528-0.461,0.793-0.692c0.177-0.155,0.354-0.311,0.534-0.464  c0.111-0.094,0.218-0.19,0.33-0.284c0.297-0.248,0.6-0.487,0.9-0.73c0.277-0.224,0.551-0.453,0.833-0.671  c0.323-0.252,0.654-0.493,0.982-0.738c0.273-0.204,0.543-0.413,0.82-0.613c0.085-0.061,0.173-0.12,0.258-0.182  c0.26-0.186,0.524-0.366,0.786-0.548c0.248-0.172,0.495-0.349,0.745-0.516c0.177-0.119,0.357-0.233,0.536-0.351  c0.209-0.137,0.418-0.27,0.629-0.404c0.224-0.143,0.445-0.289,0.671-0.43c0.211-0.131,0.425-0.259,0.637-0.387  c0.209-0.127,0.419-0.25,0.63-0.373c0.205-0.12,0.409-0.244,0.615-0.364c0.228-0.131,0.457-0.259,0.686-0.387  c0.227-0.127,0.456-0.25,0.685-0.373c0.185-0.1,0.369-0.202,0.555-0.301c0.238-0.126,0.475-0.25,0.714-0.372  c0.255-0.131,0.513-0.256,0.77-0.383c0.165-0.082,0.328-0.165,0.494-0.244c0.238-0.115,0.477-0.231,0.715-0.344  c0.286-0.134,0.575-0.261,0.864-0.392c0.157-0.071,0.313-0.143,0.47-0.212c0.225-0.099,0.449-0.201,0.674-0.297  c0.316-0.134,0.636-0.26,0.954-0.39c0.185-0.075,0.37-0.153,0.556-0.227c0.176-0.07,0.352-0.144,0.529-0.213  c0.358-0.138,0.721-0.266,1.081-0.397c0.335-0.123,0.667-0.251,1.005-0.368c0.404-0.14,0.814-0.267,1.222-0.398  c0.301-0.097,0.6-0.2,0.904-0.294c0.18-0.055,0.362-0.104,0.543-0.158c0.252-0.074,0.504-0.145,0.757-0.216  c0.274-0.077,0.548-0.16,0.824-0.234c0.252-0.068,0.506-0.129,0.759-0.194c0.226-0.058,0.453-0.112,0.68-0.167  c0.238-0.058,0.473-0.119,0.711-0.174c0.282-0.065,0.565-0.125,0.847-0.186c0.241-0.053,0.484-0.101,0.726-0.151  c0.204-0.042,0.407-0.086,0.612-0.126c0.296-0.057,0.593-0.112,0.89-0.165c0.25-0.045,0.5-0.085,0.751-0.127  c0.19-0.032,0.381-0.066,0.572-0.096c0.303-0.047,0.607-0.095,0.911-0.138c0.285-0.041,0.572-0.075,0.858-0.112  c0.159-0.02,0.317-0.043,0.477-0.062c0.302-0.037,0.605-0.074,0.909-0.106c0.347-0.038,0.697-0.066,1.047-0.098  c0.115-0.011,0.229-0.023,0.344-0.032c0.289-0.025,0.578-0.052,0.868-0.073c0.423-0.03,0.848-0.049,1.272-0.071  c0.087-0.004,0.173-0.011,0.26-0.014c0.248-0.012,0.495-0.028,0.744-0.038c0.76-0.027,1.523-0.042,2.288-0.042  c0.749,0,1.495,0.014,2.239,0.041c0.244,0.009,0.487,0.027,0.731,0.038c0.039,0.002,0.079,0.004,0.117,0.006  c0.46,0.023,0.922,0.043,1.38,0.075c0.285,0.02,0.569,0.049,0.854,0.074c0.062,0.005,0.125,0.012,0.187,0.017  c0.39,0.034,0.782,0.065,1.171,0.106c0.301,0.032,0.599,0.073,0.899,0.109c0.088,0.011,0.176,0.023,0.265,0.033  c0.344,0.043,0.688,0.083,1.032,0.131c0.307,0.044,0.611,0.095,0.915,0.143c0.098,0.015,0.195,0.032,0.293,0.047  c0.288,0.047,0.578,0.091,0.866,0.142c0.034,0.006,0.07,0.011,0.104,0.017c0.307,0.055,0.611,0.116,0.916,0.175  c0.119,0.023,0.239,0.047,0.358,0.072c0.295,0.059,0.589,0.115,0.882,0.177c0.304,0.066,0.606,0.137,0.909,0.205  c0.14,0.032,0.28,0.067,0.419,0.099c0.27,0.065,0.541,0.126,0.81,0.194c0.3,0.075,0.598,0.156,0.897,0.236  c0.152,0.041,0.303,0.083,0.455,0.125c0.254,0.07,0.509,0.138,0.762,0.211c0.294,0.085,0.587,0.174,0.88,0.262  c0.174,0.053,0.349,0.109,0.523,0.163c0.228,0.072,0.457,0.142,0.685,0.216c0.288,0.095,0.575,0.191,0.863,0.289  c0.189,0.065,0.376,0.132,0.565,0.199c0.212,0.075,0.425,0.148,0.636,0.225c0.282,0.103,0.561,0.208,0.842,0.314  c0.2,0.076,0.399,0.156,0.598,0.234c0.199,0.079,0.398,0.155,0.596,0.236c0.272,0.111,0.544,0.222,0.815,0.336  c0.216,0.091,0.43,0.186,0.644,0.28c0.183,0.08,0.367,0.158,0.549,0.239c0.262,0.117,0.524,0.234,0.784,0.354  c0.23,0.106,0.458,0.217,0.687,0.327c0.168,0.081,0.337,0.159,0.504,0.241c0.253,0.124,0.506,0.246,0.756,0.372  c0.238,0.119,0.472,0.244,0.708,0.367c0.161,0.084,0.324,0.168,0.485,0.253c0.241,0.128,0.482,0.255,0.721,0.385  c0.245,0.134,0.487,0.274,0.731,0.412c0.156,0.088,0.313,0.176,0.469,0.266c0.225,0.13,0.451,0.257,0.674,0.389  c0.255,0.151,0.506,0.308,0.758,0.463c0.155,0.095,0.31,0.189,0.465,0.285c0.205,0.128,0.412,0.254,0.616,0.384  c0.262,0.168,0.521,0.342,0.781,0.514c0.164,0.108,0.327,0.215,0.489,0.325c0.175,0.118,0.353,0.233,0.528,0.354  c0.272,0.187,0.539,0.382,0.808,0.573c0.198,0.141,0.396,0.281,0.592,0.423c0.118,0.086,0.239,0.169,0.357,0.256  c0.28,0.207,0.553,0.422,0.829,0.632c0.299,0.229,0.6,0.454,0.894,0.687c0.281,0.223,0.555,0.454,0.833,0.682  c0.294,0.241,0.589,0.479,0.878,0.725c0.271,0.231,0.536,0.47,0.802,0.706c0.286,0.253,0.575,0.502,0.858,0.76  c0.262,0.24,0.517,0.487,0.776,0.731c0.28,0.265,0.561,0.526,0.836,0.795c0.252,0.247,0.498,0.502,0.745,0.754  c0.261,0.265,0.525,0.528,0.781,0.798c0.113,0.119,0.223,0.242,0.336,0.361c0.139,0.148,0.276,0.299,0.414,0.449  c0.242,0.264,0.486,0.525,0.724,0.793c0.144,0.162,0.285,0.329,0.428,0.494c0.11,0.126,0.217,0.253,0.326,0.38  c0.223,0.26,0.447,0.52,0.667,0.784c0.155,0.186,0.304,0.376,0.457,0.565c0.099,0.123,0.198,0.246,0.296,0.37  c0.204,0.257,0.41,0.512,0.611,0.772c0.158,0.204,0.312,0.412,0.467,0.62c0.097,0.128,0.193,0.258,0.287,0.387  c0.185,0.25,0.371,0.499,0.552,0.752c0.155,0.216,0.307,0.436,0.459,0.654c0.099,0.142,0.198,0.286,0.296,0.429  c0.166,0.242,0.332,0.483,0.496,0.727c0.15,0.225,0.297,0.453,0.444,0.68c0.102,0.158,0.203,0.317,0.304,0.477  c0.147,0.232,0.296,0.465,0.441,0.7c0.144,0.234,0.287,0.471,0.428,0.708c0.104,0.174,0.208,0.351,0.31,0.527  c0.13,0.223,0.26,0.444,0.388,0.669c0.139,0.244,0.275,0.488,0.411,0.735c0.107,0.193,0.21,0.387,0.315,0.581  c0.005,0.01,0.011,0.02,0.016,0.03c-0.226,0.384-0.429,0.779-0.649,1.166c-0.124,0.219-0.245,0.44-0.368,0.66  c-1.133,2.05-2.167,4.144-3.103,6.282c-0.122,0.276-0.243,0.553-0.361,0.831c-0.266,0.628-0.527,1.257-0.776,1.892  c-0.176,0.447-0.341,0.899-0.509,1.35c-0.168,0.454-0.353,0.902-0.512,1.36c-2.293-0.325-4.609-0.487-6.938-0.487  C289.241,278.93,288.352,278.955,287.468,279.002z"/>
<g>
</g>
<g>
</g>
<g>
</g>
<g>
</g>
<g>
</g>
<g>
</g>
<g>
</g>
<g>
</g>
<g>
</g>
<g>
</g>
<g>
</g>
<g>
</g>
<g>
</g>
<g>
</g>
<g>
</g>
</svg>
