<?xml version="1.0" encoding="iso-8859-1"?>
<!-- Generator: Adobe Illustrator 19.0.0, SVG Export Plug-In . SVG Version: 6.00 Build 0)  -->
<svg xmlns="http://www.w3.org/2000/svg" xmlns:xlink="http://www.w3.org/1999/xlink" version="1.1" id="Layer_1" x="0px" y="0px" viewBox="0 0 511.999 511.999" style="enable-background:new 0 0 511.999 511.999;" xml:space="preserve">
<path style="fill:#E4F2F9;" d="M166.74,286.287H48.77c-22.183,0-40.165-17.981-40.165-40.164c0-22.185,17.982-40.168,40.165-40.168  c4.191,0,8.229,0.645,12.027,1.834c-0.022-0.609-0.046-1.219-0.046-1.834c0-29.836,24.187-54.024,54.024-54.024  c25.728,0,47.24,17.988,52.682,42.069c3.228-1.076,6.678-1.668,10.269-1.668c11.052,0,20.808,5.535,26.657,13.979  c3.266-0.842,6.69-1.296,10.22-1.296c22.443,0,40.637,18.193,40.637,40.636c0,22.441-18.194,40.634-40.637,40.634h-19.896"/>
<path style="fill:#9FDEF7;" d="M344.219,222.421h16.284c32.597,0,59.021-26.424,59.021-59.021c0-0.351-0.021-0.697-0.026-1.047  H311.053c-20.955,0-37.943-16.99-37.943-37.943s16.989-37.941,37.943-37.941c3.296,0,6.494,0.423,9.542,1.21  c4.005-5.779,9.974-10.09,16.939-11.984c-11.502-29.666-40.296-50.708-74.023-50.708c-37.805,0-69.417,26.435-77.414,61.822  c-4.742-1.582-9.813-2.451-15.09-2.451c-16.241,0-30.576,8.133-39.172,20.542c-4.798-1.239-9.83-1.905-15.017-1.905  c-32.98,0-59.715,26.734-59.715,59.713c0,9.569,2.263,18.607,6.264,26.624c7.013-21.7,27.372-37.4,51.407-37.4  c25.728,0,47.24,17.988,52.682,42.069c3.228-1.076,6.678-1.668,10.269-1.668c11.052,0,20.808,5.535,26.657,13.979  c3.266-0.842,6.69-1.296,10.22-1.296c13.802,0,25.989,6.886,33.334,17.406h65.09"/>
<path style="fill:#E4F2F9;" d="M465.893,87.345c-3.913,0-7.685,0.601-11.23,1.712c0.019-0.567,0.043-1.137,0.043-1.712  c0-27.858-22.584-50.443-50.443-50.443c-24.022,0-44.108,16.796-49.189,39.282c-3.014-1.005-6.235-1.556-9.588-1.556  c-10.32,0-19.429,5.168-24.891,13.053c-3.048-0.787-6.246-1.21-9.542-1.21c-20.955,0-37.943,16.987-37.943,37.941  s16.988,37.943,37.943,37.943h154.84c20.712,0,37.502-16.79,37.502-37.502C503.395,104.137,486.605,87.345,465.893,87.345z"/>
<g>
	<polygon style="fill:#F29F26;" points="390.596,256.225 376.493,314.317 413.706,310.475 358.249,426.291 369.951,346.004    330.582,350.805 347.867,264.869  "/>
	<polygon style="fill:#F29F26;" points="260.473,316.944 246.372,375.037 283.585,371.194 228.126,487.009 239.83,406.724    200.46,411.523 217.746,325.587  "/>
	<polygon style="fill:#F29F26;" points="130.351,316.944 116.249,375.037 153.462,371.194 98.004,487.009 109.708,406.724    70.339,411.523 87.624,325.587  "/>
</g>
<path style="fill:#83D4ED;" d="M177.826,87.343c-3.057-0.62-6.218-0.951-9.459-0.951c-16.242,0-30.577,8.133-39.173,20.542  c-4.798-1.239-9.831-1.905-15.017-1.905c-32.98,0-59.715,26.734-59.715,59.713c0,9.569,2.263,18.607,6.266,26.624  c7.013-21.7,27.37-37.4,51.405-37.4c25.728,0,47.24,17.988,52.681,42.069c3.229-1.076,6.679-1.668,10.271-1.668  c11.05,0,20.807,5.535,26.657,13.979c3.265-0.842,6.689-1.296,10.218-1.296c13.802,0,25.989,6.886,33.334,17.406h44.858  C228.182,208.123,181.776,153.455,177.826,87.343z"/>
<g>
	<path style="fill:#D7EDF9;" d="M348.455,78.503c-2.151-0.488-4.384-0.766-6.685-0.766c-10.32,0-19.429,5.168-24.891,13.053   c-3.051-0.787-6.246-1.21-9.542-1.21c-20.955,0-37.943,16.987-37.943,37.941s16.987,37.943,37.943,37.943h96.428   C371.162,150.057,348.578,116.926,348.455,78.503z"/>
	<path style="fill:#D7EDF9;" d="M73.704,170.081c-9.002,9.652-14.519,22.595-14.519,36.833c0,0.615,0.025,1.225,0.046,1.834   c-3.797-1.189-7.836-1.834-12.027-1.834c-22.183,0-40.166,17.983-40.166,40.168c0,22.183,17.983,40.164,40.166,40.164h106.209   h3.593C108.858,269.893,74.323,224.065,73.704,170.081z"/>
</g>
<g>
	<path style="fill:#EF8229;" d="M353.549,330.435c-0.86,0.073-1.704-0.275-2.264-0.931c-0.561-0.655-0.773-1.542-0.571-2.381   l16.34-67.492l-17.373,2.814c-1.068,0.172-1.93,0.969-2.184,2.021l-20.628,85.196c-0.202,0.839,0.011,1.726,0.571,2.381   c0.56,0.657,1.405,1.006,2.264,0.931l36.019-2.97l-14.185,76.306c-0.244,1.307,0.504,2.593,1.761,3.03   c0.256,0.089,0.518,0.138,0.778,0.147c0.291,0.012,0.575-0.037,0.851-0.117l34.641-101.907L353.549,330.435z"/>
	<path style="fill:#EF8229;" d="M222.675,393.225c-0.861,0.073-1.703-0.275-2.264-0.931c-0.56-0.655-0.773-1.542-0.57-2.381   l16.34-67.491l-17.374,2.814c-1.067,0.172-1.929,0.969-2.182,2.021l-20.628,85.196c-0.202,0.839,0.01,1.726,0.57,2.381   c0.561,0.657,1.405,1.006,2.264,0.931l36.019-2.97l-14.185,76.306c-0.243,1.307,0.506,2.593,1.761,3.03   c0.256,0.089,0.518,0.138,0.779,0.147c0.29,0.012,0.575-0.037,0.851-0.117l34.64-101.907L222.675,393.225z"/>
	<path style="fill:#EF8229;" d="M93.142,390.536c-0.859,0.073-1.703-0.275-2.264-0.931c-0.56-0.655-0.773-1.542-0.569-2.381   l16.34-67.491l-17.374,2.814c-1.068,0.172-1.929,0.969-2.184,2.021l-20.628,85.196c-0.203,0.839,0.009,1.726,0.569,2.381   c0.561,0.657,1.406,1.006,2.264,0.931l36.019-2.97L91.13,486.412c-0.243,1.307,0.507,2.593,1.761,3.03   c0.256,0.089,0.518,0.138,0.78,0.147c0.289,0.012,0.575-0.037,0.851-0.117l34.639-101.907L93.142,390.536z"/>
</g>
<g>
	<path style="fill:#231F20;" d="M465.893,78.74c-1.067,0-2.131,0.037-3.191,0.11c-4.13-28.549-28.763-50.552-58.439-50.552   c-24.922,0-46.543,15.217-55.148,37.893c-1.205-0.112-2.415-0.169-3.63-0.169c-0.919,0-1.831,0.044-2.74,0.109   c-6.555-13.592-16.463-25.244-28.966-33.971c-14.791-10.322-32.174-15.777-50.27-15.777c-20.081,0-39.72,6.945-55.299,19.558   c-13.06,10.571-22.853,24.746-28.149,40.544c-2.986-0.486-6.013-0.733-9.056-0.733c-16.477,0-32.033,7.237-42.663,19.609   c-3.802-0.646-7.66-0.972-11.526-0.972c-37.671,0-68.32,30.647-68.32,68.318c0,9.52,1.929,18.693,5.713,27.325   c-0.642,2.44-1.154,4.931-1.498,7.477c-1.309-0.106-2.622-0.158-3.942-0.158C21.878,197.349,0,219.229,0,246.122   c0,26.892,21.878,48.769,48.77,48.769h117.97c4.752,0,8.605-3.853,8.605-8.605c0-4.752-3.853-8.605-8.605-8.605H48.77   c-17.403,0-31.56-14.157-31.56-31.559c0-17.405,14.157-31.563,31.56-31.563c3.22,0,6.401,0.485,9.455,1.441   c2.664,0.833,5.565,0.324,7.785-1.367c2.219-1.691,3.482-4.353,3.385-7.142l-0.01-0.268c-0.015-0.422-0.031-0.843-0.031-1.27   c0-5.456,0.968-10.69,2.741-15.54c0.009-0.023,0.015-0.045,0.024-0.068c5.606-15.273,19.195-26.724,35.684-29.274   c0.085-0.013,0.17-0.024,0.255-0.036c0.597-0.089,1.198-0.165,1.803-0.23c0.198-0.022,0.397-0.041,0.595-0.059   c0.521-0.049,1.044-0.088,1.57-0.119c0.203-0.012,0.408-0.027,0.612-0.037c0.709-0.033,1.42-0.054,2.136-0.054   c4.675,0,9.199,0.696,13.463,2.001c1.219,0.373,2.416,0.796,3.589,1.266c1.76,0.706,3.467,1.519,5.112,2.432   c10.967,6.09,19.183,16.65,22.124,29.663c0.402,1.778,1.354,3.367,2.699,4.553c0.447,0.396,0.939,0.746,1.468,1.046   c1.324,0.746,2.806,1.121,4.295,1.109c0.893-0.006,1.789-0.153,2.653-0.441c2.443-0.814,4.982-1.227,7.549-1.227   c7.806,0,15.127,3.841,19.584,10.274c2.052,2.963,5.737,4.336,9.222,3.431c2.632-0.679,5.348-1.023,8.07-1.023   c0.614,0,1.225,0.022,1.835,0.056c0.155,0.009,0.308,0.024,0.461,0.036c0.469,0.033,0.936,0.074,1.4,0.129   c0.148,0.017,0.296,0.038,0.443,0.056c0.495,0.065,0.989,0.139,1.478,0.227c0.099,0.017,0.198,0.034,0.296,0.053   c2.467,0.466,4.861,1.217,7.132,2.232c0.033,0.015,0.066,0.03,0.099,0.045c0.532,0.241,1.058,0.496,1.577,0.765   c0.045,0.024,0.091,0.046,0.136,0.07c1.091,0.572,2.148,1.208,3.168,1.903c0.094,0.065,0.185,0.133,0.279,0.198   c0.375,0.261,0.744,0.531,1.109,0.809c0.18,0.138,0.357,0.279,0.535,0.421c0.27,0.215,0.537,0.436,0.8,0.66   c0.2,0.17,0.4,0.341,0.595,0.515c0.238,0.213,0.47,0.433,0.701,0.653c0.196,0.186,0.395,0.368,0.586,0.558   c0.371,0.371,0.734,0.752,1.089,1.142c0.198,0.218,0.386,0.444,0.579,0.667c0.189,0.221,0.378,0.44,0.561,0.666   c0.187,0.23,0.369,0.464,0.549,0.698c0.185,0.24,0.365,0.484,0.543,0.73c3.82,5.274,6.081,11.748,6.081,18.743   c0,17.661-14.369,32.029-32.032,32.029h-19.896c-4.752,0-8.605,3.853-8.605,8.605s3.853,8.605,8.605,8.605h19.896   c27.152,0,49.242-22.089,49.242-49.239c0-5.091-0.777-10.003-2.217-14.626h51.398c4.752,0,8.605-3.853,8.605-8.605   c0-4.752-3.853-8.605-8.605-8.605h-60.869c-0.302-0.357-0.623-0.695-0.935-1.042c-0.098-0.109-0.195-0.219-0.294-0.327   c-0.438-0.479-0.885-0.947-1.34-1.406c-0.125-0.126-0.25-0.251-0.375-0.375c-0.446-0.441-0.898-0.874-1.36-1.297   c-0.151-0.138-0.303-0.272-0.455-0.408c-0.45-0.401-0.902-0.799-1.365-1.183c-0.19-0.158-0.385-0.309-0.578-0.465   c-0.438-0.353-0.876-0.706-1.325-1.042c-0.293-0.221-0.595-0.428-0.892-0.641c-0.363-0.259-0.721-0.526-1.09-0.776   c-0.693-0.47-1.399-0.921-2.117-1.355c-0.057-0.034-0.115-0.066-0.172-0.099c-0.689-0.413-1.389-0.81-2.099-1.19   c-0.085-0.045-0.171-0.087-0.256-0.131c-0.688-0.364-1.385-0.711-2.092-1.041c-0.085-0.04-0.172-0.077-0.258-0.117   c-0.71-0.327-1.428-0.639-2.157-0.933c-0.083-0.033-0.166-0.066-0.248-0.098c-0.731-0.291-1.47-0.565-2.218-0.821   c-0.084-0.029-0.168-0.057-0.253-0.086c-0.743-0.251-1.494-0.483-2.252-0.698c-0.091-0.026-0.184-0.053-0.275-0.079   c-0.744-0.207-1.496-0.395-2.255-0.567c-0.109-0.025-0.217-0.052-0.326-0.075c-0.734-0.161-1.473-0.303-2.218-0.431   c-0.134-0.024-0.268-0.051-0.402-0.072c-0.711-0.116-1.428-0.213-2.15-0.298c-0.166-0.019-0.33-0.045-0.497-0.063   c-0.699-0.075-1.405-0.13-2.113-0.175c-0.181-0.012-0.36-0.031-0.542-0.041c-0.877-0.046-1.759-0.073-2.647-0.073   c-2.271,0-4.54,0.157-6.787,0.468c-7.71-8.32-18.592-13.151-30.091-13.151c-1.438,0-2.871,0.075-4.295,0.225   c-9.015-24.293-32.062-40.627-58.655-40.627c-1.115,0-2.222,0.037-3.325,0.095c-0.375,0.019-0.746,0.052-1.121,0.079   c-0.72,0.051-1.436,0.11-2.149,0.184c-0.455,0.047-0.908,0.101-1.36,0.158c-0.61,0.077-1.215,0.166-1.82,0.261   c-0.508,0.08-1.015,0.158-1.52,0.25c-0.473,0.087-0.942,0.187-1.412,0.285c-14.391,2.956-27.165,10.831-36.205,22.141   c-0.105-1.347-0.157-2.704-0.157-4.071c0-28.18,22.927-51.107,51.11-51.107c4.344,0,8.673,0.55,12.865,1.633   c3.493,0.898,7.172-0.469,9.226-3.431c7.304-10.543,19.302-16.837,32.099-16.837c4.209,0,8.369,0.677,12.368,2.009   c2.306,0.771,4.83,0.528,6.949-0.667c2.118-1.193,3.631-3.228,4.168-5.599c7.333-32.45,35.715-55.113,69.02-55.113   c26.641,0,50.385,14.527,62.552,37.637c-0.092,0.054-0.18,0.116-0.271,0.17c-0.632,0.372-1.254,0.762-1.865,1.169   c-0.139,0.093-0.28,0.183-0.417,0.278c-0.713,0.489-1.412,0.999-2.093,1.536c-0.066,0.052-0.129,0.108-0.195,0.16   c-0.608,0.486-1.199,0.993-1.779,1.517c-0.143,0.129-0.286,0.258-0.427,0.389c-0.63,0.586-1.249,1.186-1.841,1.816   c-2.026-0.267-4.072-0.401-6.122-0.401c-25.667,0-46.548,20.88-46.548,46.546c0,25.667,20.881,46.548,46.548,46.548h99.304   c-3.658,24.225-24.621,42.857-49.851,42.857h-16.284c-4.752,0-8.605,3.853-8.605,8.605c0,4.752,3.853,8.605,8.605,8.605h16.284   c34.733,0,63.421-26.325,67.192-60.068h38.198c25.424,0,46.107-20.683,46.107-46.107C512,99.426,491.317,78.74,465.893,78.74z    M465.893,153.748h-46.396H311.053c-16.177,0-29.338-13.16-29.338-29.338c0-16.176,13.16-29.336,29.338-29.336   c2.499,0,4.984,0.315,7.389,0.936c0.437,0.113,0.877,0.19,1.315,0.233c0.439,0.043,0.878,0.053,1.311,0.029   c2.605-0.143,5.061-1.469,6.6-3.693c0.325-0.47,0.674-0.92,1.034-1.36c0.092-0.113,0.186-0.224,0.281-0.335   c0.325-0.382,0.66-0.754,1.01-1.111c0.048-0.049,0.095-0.102,0.143-0.152c0.402-0.403,0.822-0.788,1.253-1.158   c0.09-0.077,0.184-0.153,0.275-0.229c0.375-0.311,0.759-0.61,1.154-0.895c0.08-0.058,0.158-0.118,0.239-0.175   c0.464-0.325,0.939-0.631,1.426-0.919c0.089-0.053,0.18-0.101,0.27-0.152c0.421-0.241,0.85-0.467,1.288-0.679   c0.104-0.051,0.209-0.104,0.314-0.153c0.518-0.241,1.046-0.465,1.582-0.665c0.055-0.02,0.112-0.038,0.167-0.058   c0.507-0.184,1.022-0.349,1.544-0.494c1.88-0.528,3.84-0.814,5.839-0.814c2.336,0,4.647,0.375,6.868,1.115   c2.306,0.768,4.83,0.526,6.948-0.668c2.118-1.194,3.631-3.228,4.167-5.599c4.265-18.875,21.421-32.573,40.795-32.573   c23.069,0,41.838,18.769,41.838,41.838c0,0.404-0.016,0.806-0.03,1.205l-0.008,0.204c-0.098,2.791,1.164,5.455,3.384,7.148   s5.124,2.203,7.79,1.367c2.79-0.874,5.702-1.319,8.656-1.319c15.933,0,28.897,12.966,28.897,28.901   C494.79,140.785,481.826,153.748,465.893,153.748z"/>
	<path style="fill:#231F20;" d="M412.823,301.915l-25.092,2.591l11.227-46.251c0.695-2.86-0.12-5.876-2.162-7.997   c-2.039-2.12-5.023-3.053-7.907-2.467l-42.728,8.643c-3.395,0.686-6.047,3.341-6.73,6.738l-17.285,85.937   c-0.545,2.708,0.244,5.514,2.121,7.542c1.877,2.028,4.612,3.026,7.357,2.697l28.188-3.437l-10.078,69.138   c-0.613,4.209,1.939,8.234,6.007,9.474c0.831,0.253,1.676,0.374,2.507,0.374c3.24,0,6.3-1.838,7.762-4.89l55.457-115.815   c1.345-2.808,1.067-6.125-0.726-8.672C418.948,302.974,415.916,301.593,412.823,301.915z M374.925,371.539l3.541-24.292   c0.387-2.655-0.485-5.336-2.359-7.254c-1.63-1.668-3.853-2.592-6.155-2.592c-0.346,0-0.695,0.022-1.042,0.063l-27.543,3.358   l13.809-68.652l23.866-4.826l-10.911,44.946c-0.659,2.716,0.042,5.583,1.88,7.689c1.839,2.107,4.597,3.187,7.366,2.9l21.934-2.264   L374.925,371.539z"/>
	<path style="fill:#231F20;" d="M282.7,362.634l-25.092,2.591l11.227-46.252c0.695-2.859-0.122-5.875-2.162-7.996   c-2.039-2.12-5.022-3.055-7.907-2.467l-42.727,8.643c-3.395,0.686-6.047,3.341-6.73,6.738l-17.285,85.937   c-0.545,2.708,0.244,5.514,2.121,7.542s4.616,3.026,7.357,2.697l28.188-3.437l-10.079,69.138c-0.613,4.209,1.939,8.234,6.007,9.473   c0.831,0.254,1.676,0.375,2.507,0.375c3.24,0,6.3-1.838,7.762-4.89l55.457-115.816c1.345-2.808,1.067-6.125-0.726-8.672   C288.827,363.694,285.793,362.314,282.7,362.634z M244.804,432.256l3.541-24.291c0.387-2.655-0.485-5.336-2.359-7.254   c-1.63-1.668-3.853-2.592-6.155-2.592c-0.346,0-0.695,0.022-1.042,0.063l-27.543,3.358l13.809-68.652l23.865-4.826l-10.91,44.946   c-0.659,2.716,0.042,5.584,1.88,7.689c1.84,2.106,4.591,3.19,7.366,2.9l21.934-2.264L244.804,432.256z"/>
	<path style="fill:#231F20;" d="M152.579,362.634l-25.093,2.591l11.227-46.251c0.695-2.86-0.12-5.876-2.162-7.997   c-2.039-2.12-5.023-3.055-7.907-2.467l-42.727,8.643c-3.395,0.686-6.047,3.341-6.73,6.738l-17.285,85.937   c-0.545,2.708,0.244,5.514,2.121,7.542c1.877,2.029,4.614,3.026,7.357,2.697l28.188-3.437l-10.079,69.138   c-0.613,4.209,1.939,8.234,6.007,9.473c0.831,0.254,1.676,0.375,2.507,0.375c3.24,0,6.3-1.838,7.762-4.89l55.458-115.815   c1.345-2.808,1.067-6.125-0.726-8.672C158.705,363.694,155.67,362.314,152.579,362.634z M114.682,432.256l3.541-24.291   c0.387-2.655-0.485-5.336-2.359-7.254c-1.63-1.668-3.853-2.592-6.155-2.592c-0.346,0-0.695,0.022-1.042,0.063l-27.543,3.358   l13.809-68.652l23.865-4.826l-10.911,44.946c-0.659,2.716,0.042,5.583,1.88,7.689c1.838,2.105,4.594,3.19,7.366,2.9l21.935-2.264   L114.682,432.256z"/>
</g>
<g>
</g>
<g>
</g>
<g>
</g>
<g>
</g>
<g>
</g>
<g>
</g>
<g>
</g>
<g>
</g>
<g>
</g>
<g>
</g>
<g>
</g>
<g>
</g>
<g>
</g>
<g>
</g>
<g>
</g>
</svg>
