<?xml version="1.0" encoding="iso-8859-1"?>
<!-- Generator: Adobe Illustrator 19.0.0, SVG Export Plug-In . SVG Version: 6.00 Build 0)  -->
<svg xmlns="http://www.w3.org/2000/svg" xmlns:xlink="http://www.w3.org/1999/xlink" version="1.1" id="Layer_1" x="0px" y="0px" viewBox="0 0 511.999 511.999" style="enable-background:new 0 0 511.999 511.999;" xml:space="preserve">
<path style="fill:#9FDEF7;" d="M352.522,206.596h7.98c32.597,0,59.021-26.426,59.021-59.023c0-0.351-0.022-0.695-0.026-1.044  H311.053c-20.955,0-37.943-16.99-37.943-37.943s16.988-37.942,37.943-37.942c3.296,0,6.494,0.423,9.542,1.21  c4.005-5.781,9.974-10.093,16.939-11.985c-11.503-29.665-40.296-50.706-74.024-50.706c-37.805,0-69.417,26.432-77.414,61.822  c-4.742-1.584-9.813-2.454-15.09-2.454c-16.241,0-30.576,8.133-39.172,20.544c-4.798-1.241-9.83-1.905-15.017-1.905  c-32.98,0-59.715,26.734-59.715,59.712c0,9.569,2.263,18.607,6.264,26.624c7.013-21.702,27.372-37.401,51.406-37.401  c25.728,0,47.239,17.99,52.681,42.069c3.228-1.076,6.678-1.668,10.269-1.668c11.052,0,20.808,5.535,26.657,13.981  c3.266-0.844,6.69-1.296,10.22-1.296c13.802,0,25.989,6.886,33.334,17.406h74.468"/>
<g>
	<path style="fill:#E4F2F9;" d="M166.438,270.462H48.771c-22.183,0-40.166-17.983-40.166-40.166   c0-22.185,17.983-40.168,40.166-40.168c4.191,0,8.229,0.645,12.027,1.834c-0.022-0.609-0.046-1.219-0.046-1.834   c0-29.836,24.187-54.023,54.024-54.023c25.728,0,47.239,17.99,52.681,42.069c3.228-1.076,6.677-1.668,10.269-1.668   c11.052,0,20.808,5.535,26.657,13.981c3.266-0.844,6.69-1.296,10.22-1.296c22.443,0,40.637,18.193,40.637,40.634   s-18.194,40.636-40.637,40.636h-18.046"/>
	<path style="fill:#E4F2F9;" d="M465.893,71.521c-3.913,0-7.685,0.601-11.23,1.712c0.019-0.567,0.043-1.139,0.043-1.712   c0-27.859-22.584-50.444-50.443-50.444c-24.022,0-44.108,16.796-49.188,39.282c-3.014-1.005-6.235-1.556-9.588-1.556   c-10.32,0-19.429,5.168-24.891,13.053c-3.048-0.787-6.246-1.21-9.542-1.21c-20.955,0-37.943,16.987-37.943,37.942   c0,20.953,16.988,37.943,37.943,37.943h154.84c20.712,0,37.502-16.789,37.502-37.504S486.605,71.521,465.893,71.521z"/>
</g>
<path style="fill:#83D4ED;" d="M183.902,68.992c-3.058-0.62-6.219-0.951-9.459-0.951c-16.242,0-30.578,8.133-39.174,20.542  c-4.798-1.239-9.83-1.905-15.017-1.905c-32.979,0-59.715,26.734-59.715,59.712c0,9.569,2.265,18.607,6.267,26.624  c7.012-21.7,27.369-37.398,51.405-37.398c25.727,0,47.239,17.988,52.681,42.069c3.229-1.076,6.679-1.668,10.271-1.668  c11.05,0,20.807,5.535,26.657,13.979c3.265-0.842,6.689-1.296,10.218-1.296c13.802,0,25.989,6.886,33.334,17.406h44.858  C234.256,189.771,187.852,135.104,183.902,68.992z"/>
<g>
	<path style="fill:#D7EDF9;" d="M354.53,60.152c-2.152-0.488-4.384-0.766-6.685-0.766c-10.321,0-19.429,5.168-24.891,13.053   c-3.05-0.787-6.246-1.21-9.543-1.21c-20.955,0-37.942,16.987-37.942,37.941s16.987,37.943,37.942,37.943h96.428   C377.237,131.707,354.654,98.575,354.53,60.152z"/>
	<path style="fill:#D7EDF9;" d="M79.78,151.73c-9.002,9.652-14.52,22.595-14.52,36.833c0,0.615,0.025,1.225,0.046,1.834   c-3.796-1.189-7.836-1.834-12.026-1.834c-22.183,0-40.166,17.983-40.166,40.168c0,22.183,17.983,40.164,40.166,40.164H159.49h3.593   C114.934,251.541,80.397,205.713,79.78,151.73z"/>
</g>
<g>
	<path style="fill:#231F20;" d="M501.23,268.39h-9.303l6.579-6.579c3.36-3.361,3.36-8.809,0-12.17   c-3.361-3.359-8.809-3.359-12.171,0l-6.576,6.577v-9.301c0-4.752-3.853-8.605-8.605-8.605c-4.752,0-8.605,3.853-8.605,8.605v9.301   l-6.577-6.577c-3.36-3.358-8.808-3.359-12.17,0c-3.36,3.36-3.36,8.808,0,12.17l6.579,6.579h-9.302   c-4.752,0-8.605,3.853-8.605,8.605c0,4.752,3.853,8.605,8.605,8.605h9.3l-6.576,6.576c-3.36,3.361-3.36,8.809,0,12.17   c1.681,1.68,3.882,2.52,6.085,2.52s4.405-0.84,6.085-2.52l6.577-6.577v9.302c0,4.752,3.853,8.605,8.605,8.605   c4.752,0,8.605-3.853,8.605-8.605v-9.301l6.576,6.577c1.681,1.68,3.882,2.52,6.085,2.52c2.202,0,4.405-0.84,6.085-2.52   c3.36-3.36,3.36-8.808,0-12.17l-6.576-6.576h9.301c4.752,0,8.605-3.853,8.605-8.605C509.834,272.244,505.982,268.39,501.23,268.39z   "/>
	<path style="fill:#231F20;" d="M427.549,366.272h-9.303l6.579-6.579c3.36-3.361,3.36-8.809,0-12.17   c-3.361-3.359-8.809-3.359-12.171,0l-6.576,6.577v-9.301c0-4.752-3.853-8.605-8.605-8.605c-4.752,0-8.605,3.853-8.605,8.605v9.301   l-6.577-6.577c-3.359-3.358-8.807-3.36-12.17,0c-3.36,3.36-3.36,8.808,0,12.17l6.579,6.579h-9.302   c-4.752,0-8.605,3.853-8.605,8.605c0,4.752,3.853,8.605,8.605,8.605h9.3l-6.576,6.576c-3.36,3.361-3.36,8.809,0,12.17   c1.681,1.68,3.882,2.52,6.085,2.52s4.405-0.84,6.085-2.52l6.577-6.577v9.302c0,4.752,3.853,8.605,8.605,8.605   c4.752,0,8.605-3.853,8.605-8.605v-9.301l6.576,6.577c1.681,1.68,3.882,2.52,6.085,2.52c2.202,0,4.405-0.84,6.085-2.52   c3.36-3.36,3.36-8.808,0-12.17l-6.576-6.576h9.301c4.752,0,8.605-3.853,8.605-8.605   C436.153,370.126,432.301,366.272,427.549,366.272z"/>
	<path style="fill:#231F20;" d="M353.869,464.154h-9.303l6.579-6.579c3.36-3.361,3.36-8.809,0-12.17   c-3.361-3.359-8.809-3.359-12.171,0l-6.576,6.577v-9.301c0-4.752-3.853-8.605-8.605-8.605c-4.752,0-8.605,3.853-8.605,8.605v9.301   l-6.577-6.577c-3.36-3.358-8.808-3.359-12.17,0c-3.36,3.36-3.36,8.808,0,12.17l6.579,6.579h-9.302   c-4.752,0-8.605,3.853-8.605,8.605c0,4.752,3.853,8.605,8.605,8.605h9.3l-6.576,6.576c-3.36,3.361-3.36,8.809,0,12.17   c1.681,1.68,3.882,2.52,6.085,2.52s4.405-0.84,6.085-2.52l6.577-6.577v9.302c0,4.752,3.853,8.605,8.605,8.605   c4.752,0,8.605-3.853,8.605-8.605v-9.301l6.576,6.577c1.681,1.68,3.882,2.52,6.085,2.52c2.202,0,4.405-0.84,6.085-2.52   c3.36-3.36,3.36-8.808,0-12.17l-6.576-6.576h9.301c4.752,0,8.605-3.853,8.605-8.605   C362.473,468.008,358.621,464.154,353.869,464.154z"/>
	<path style="fill:#231F20;" d="M367.601,276.995c0-4.752-3.853-8.605-8.605-8.605h-9.302l6.579-6.579   c3.36-3.361,3.36-8.808,0-12.17c-3.361-3.359-8.808-3.359-12.17,0l-6.576,6.576v-9.3c0-4.752-3.853-8.605-8.605-8.605   c-4.752,0-8.605,3.853-8.605,8.605v9.302l-6.579-6.579c-3.361-3.359-8.808-3.359-12.17,0c-3.36,3.361-3.36,8.808,0,12.17   l6.579,6.579h-9.302c-4.752,0-8.605,3.853-8.605,8.605c0,4.752,3.853,8.605,8.605,8.605h9.301l-6.576,6.576   c-3.36,3.361-3.36,8.808,0,12.17c1.681,1.68,3.882,2.52,6.085,2.52c2.203,0,4.405-0.84,6.085-2.52l6.579-6.579v9.302   c0,4.752,3.853,8.605,8.605,8.605c4.752,0,8.605-3.853,8.605-8.605v-9.301l6.576,6.576c1.681,1.68,3.882,2.52,6.085,2.52   c2.203,0,4.405-0.84,6.085-2.52c3.36-3.361,3.36-8.808,0-12.17l-6.576-6.576h9.301C363.748,285.6,367.601,281.747,367.601,276.995z   "/>
	<path style="fill:#231F20;" d="M282.592,390.059l-6.576-6.576h9.301c4.752,0,8.605-3.853,8.605-8.605   c0-4.752-3.853-8.605-8.605-8.605h-9.302l6.579-6.579c3.36-3.361,3.36-8.808,0-12.17c-3.361-3.359-8.808-3.359-12.17,0   l-6.576,6.576v-9.3c0-4.752-3.853-8.605-8.605-8.605s-8.605,3.853-8.605,8.605v9.302l-6.579-6.579   c-3.361-3.359-8.808-3.359-12.17,0c-3.36,3.361-3.36,8.808,0,12.17l6.579,6.579h-9.302c-4.752,0-8.605,3.853-8.605,8.605   c0,4.752,3.853,8.605,8.605,8.605h9.301l-6.576,6.576c-3.36,3.361-3.36,8.808,0,12.17c1.681,1.68,3.882,2.52,6.085,2.52   c2.203,0,4.405-0.84,6.085-2.52l6.579-6.579v9.302c0,4.752,3.853,8.605,8.605,8.605c4.752,0,8.605-3.853,8.605-8.605v-9.301   l6.576,6.576c1.681,1.68,3.882,2.52,6.085,2.52s4.405-0.84,6.085-2.52C285.952,398.868,285.952,393.42,282.592,390.059z"/>
	<path style="fill:#231F20;" d="M211.635,464.154h-9.302l6.579-6.579c3.36-3.361,3.36-8.808,0-12.17   c-3.361-3.359-8.808-3.359-12.17,0l-6.576,6.576v-9.3c0-4.752-3.853-8.605-8.605-8.605c-4.752,0-8.605,3.853-8.605,8.605v9.302   l-6.579-6.579c-3.361-3.359-8.808-3.359-12.17,0c-3.36,3.361-3.36,8.808,0,12.17l6.579,6.579h-9.302   c-4.752,0-8.605,3.853-8.605,8.605c0,4.752,3.853,8.605,8.605,8.605h9.301l-6.576,6.576c-3.36,3.361-3.36,8.808,0,12.17   c1.681,1.68,3.882,2.52,6.085,2.52c2.203,0,4.405-0.84,6.085-2.52l6.579-6.579v9.302c0,4.752,3.853,8.605,8.605,8.605   c4.752,0,8.605-3.853,8.605-8.605v-9.301l6.576,6.576c1.681,1.68,3.882,2.52,6.085,2.52c2.203,0,4.405-0.84,6.085-2.52   c3.36-3.361,3.36-8.808,0-12.17l-6.576-6.576h9.301c4.752,0,8.605-3.853,8.605-8.605S216.387,464.154,211.635,464.154z"/>
	<path style="fill:#231F20;" d="M151.045,374.877c0-4.752-3.853-8.605-8.605-8.605h-9.303l6.579-6.579   c3.36-3.361,3.36-8.809,0-12.17c-3.361-3.359-8.808-3.359-12.17,0l-6.577,6.577v-9.302c0-4.752-3.853-8.605-8.605-8.605   c-4.752,0-8.605,3.853-8.605,8.605v9.301l-6.576-6.577c-3.36-3.358-8.807-3.36-12.17,0c-3.36,3.36-3.36,8.808,0,12.17l6.579,6.579   h-9.305c-4.752,0-8.605,3.853-8.605,8.605c0,4.752,3.853,8.605,8.605,8.605h9.301l-6.576,6.576c-3.36,3.361-3.36,8.809,0,12.17   c1.681,1.68,3.882,2.52,6.085,2.52s4.405-0.84,6.085-2.52l6.576-6.577v9.301c0,4.752,3.853,8.605,8.605,8.605   s8.605-3.853,8.605-8.605v-9.302l6.577,6.577c1.68,1.68,3.882,2.52,6.085,2.52c2.202,0,4.405-0.84,6.085-2.52   c3.36-3.36,3.36-8.808,0-12.17l-6.576-6.576h9.301C147.192,383.482,151.045,379.629,151.045,374.877z"/>
	<path style="fill:#231F20;" d="M68.76,464.154h-9.303l6.579-6.579c3.36-3.361,3.36-8.809,0-12.17c-3.361-3.359-8.808-3.359-12.17,0   l-6.577,6.577v-9.302c0-4.752-3.853-8.605-8.605-8.605s-8.605,3.853-8.605,8.605v9.301l-6.576-6.577   c-3.36-3.358-8.807-3.359-12.17,0c-3.36,3.36-3.36,8.808,0,12.17l6.579,6.579H8.605c-4.752,0-8.605,3.853-8.605,8.605   c0,4.752,3.853,8.605,8.605,8.605h9.301l-6.576,6.576c-3.36,3.361-3.36,8.809,0,12.17c1.681,1.68,3.882,2.52,6.085,2.52   s4.405-0.84,6.085-2.52l6.576-6.577v9.301c0,4.752,3.853,8.605,8.605,8.605s8.605-3.853,8.605-8.605v-9.302l6.577,6.577   c1.68,1.68,3.882,2.52,6.085,2.52c2.202,0,4.405-0.84,6.085-2.52c3.36-3.36,3.36-8.808,0-12.17l-6.576-6.576h9.301   c4.752,0,8.605-3.853,8.605-8.605C77.362,468.005,73.512,464.154,68.76,464.154z"/>
	<path style="fill:#231F20;" d="M48.771,279.067h117.668c4.752,0,8.605-3.853,8.605-8.605s-3.853-8.605-8.605-8.605H48.771   c-17.403,0-31.561-14.159-31.561-31.561c0-17.405,14.158-31.563,31.561-31.563c3.22,0,6.401,0.484,9.455,1.441   c2.664,0.833,5.566,0.324,7.785-1.367c2.219-1.691,3.482-4.353,3.386-7.142l-0.01-0.268c-0.015-0.423-0.031-0.843-0.031-1.27   c0-5.409,0.954-10.599,2.698-15.414c0.025-0.07,0.047-0.141,0.073-0.211c5.609-15.264,19.195-26.708,35.679-29.258   c0.085-0.013,0.17-0.024,0.255-0.035c0.597-0.089,1.197-0.165,1.801-0.23c0.199-0.022,0.399-0.041,0.599-0.06   c0.52-0.049,1.042-0.088,1.567-0.119c0.204-0.012,0.408-0.027,0.612-0.037c0.709-0.033,1.42-0.054,2.136-0.054   c21.032,0,39.657,14.872,44.289,35.361c0.536,2.371,2.049,4.405,4.166,5.599c2.118,1.193,4.641,1.437,6.947,0.668   c2.443-0.814,4.982-1.227,7.549-1.227c7.806,0,15.127,3.841,19.584,10.277c0.513,0.741,1.128,1.382,1.817,1.912   c2.066,1.594,4.792,2.195,7.411,1.518c2.622-0.679,5.336-1.022,8.065-1.022c0.614,0,1.225,0.022,1.835,0.056   c0.155,0.009,0.308,0.024,0.461,0.036c0.469,0.033,0.936,0.074,1.4,0.129c0.148,0.017,0.296,0.038,0.443,0.056   c0.495,0.065,0.989,0.139,1.478,0.227c0.099,0.017,0.198,0.034,0.296,0.053c2.469,0.466,4.863,1.217,7.137,2.234   c0.03,0.013,0.06,0.027,0.09,0.041c0.538,0.242,1.067,0.5,1.591,0.771c0.041,0.022,0.082,0.042,0.123,0.062   c1.094,0.574,2.156,1.211,3.178,1.908c0.085,0.058,0.168,0.12,0.252,0.18c0.385,0.268,0.764,0.544,1.137,0.829   c0.173,0.132,0.344,0.269,0.514,0.404c0.279,0.222,0.554,0.45,0.826,0.681c0.193,0.165,0.385,0.329,0.574,0.497   c0.25,0.223,0.493,0.453,0.735,0.684c0.185,0.176,0.374,0.349,0.555,0.529c0.375,0.375,0.742,0.76,1.1,1.155   c0.188,0.207,0.367,0.422,0.55,0.634c0.2,0.232,0.4,0.465,0.594,0.703c0.18,0.222,0.355,0.446,0.529,0.672   c0.193,0.251,0.381,0.504,0.567,0.762c3.812,5.271,6.068,11.737,6.068,18.723c0,17.662-14.369,32.031-32.032,32.031h-18.046   c-4.752,0-8.605,3.853-8.605,8.605c0,4.752,3.853,8.605,8.605,8.605h18.046c27.152,0,49.242-22.089,49.242-49.241   c0-5.09-0.777-10.002-2.217-14.624h60.776c4.752,0,8.605-3.853,8.605-8.605s-3.853-8.605-8.605-8.605h-70.248   c-0.297-0.35-0.61-0.681-0.915-1.021c-0.108-0.12-0.214-0.241-0.323-0.36c-0.43-0.47-0.869-0.929-1.317-1.38   c-0.133-0.136-0.268-0.269-0.403-0.403c-0.438-0.432-0.881-0.857-1.334-1.271c-0.161-0.147-0.325-0.291-0.487-0.437   c-0.44-0.393-0.883-0.782-1.336-1.157c-0.202-0.168-0.41-0.329-0.615-0.495c-0.427-0.343-0.853-0.686-1.29-1.014   c-0.315-0.237-0.64-0.461-0.961-0.691c-0.341-0.243-0.677-0.494-1.023-0.728c-0.697-0.472-1.408-0.926-2.13-1.363   c-0.039-0.024-0.079-0.044-0.117-0.068c-0.707-0.425-1.425-0.83-2.153-1.221c-0.075-0.04-0.152-0.076-0.227-0.116   c-0.697-0.368-1.404-0.721-2.119-1.055c-0.081-0.038-0.161-0.072-0.242-0.11c-0.715-0.33-1.439-0.643-2.172-0.939   c-0.079-0.031-0.158-0.062-0.237-0.094c-0.735-0.293-1.478-0.568-2.23-0.825c-0.081-0.028-0.161-0.055-0.242-0.082   c-0.746-0.252-1.501-0.485-2.263-0.701c-0.089-0.025-0.179-0.052-0.268-0.076c-0.746-0.208-1.501-0.397-2.262-0.569   c-0.106-0.025-0.213-0.051-0.319-0.074c-0.736-0.161-1.477-0.304-2.224-0.432c-0.132-0.023-0.264-0.049-0.396-0.071   c-0.714-0.116-1.434-0.213-2.158-0.299c-0.163-0.019-0.325-0.044-0.488-0.062c-0.701-0.075-1.408-0.13-2.117-0.175   c-0.18-0.012-0.358-0.031-0.539-0.041c-0.877-0.046-1.759-0.073-2.647-0.073c-2.274,0-4.542,0.157-6.787,0.467   c-7.709-8.32-18.592-13.152-30.091-13.152c-1.438,0-2.872,0.075-4.295,0.225c-9.015-24.293-32.062-40.626-58.655-40.626   c-1.115,0-2.222,0.037-3.325,0.095c-0.375,0.019-0.746,0.052-1.121,0.079c-0.72,0.051-1.436,0.11-2.149,0.184   c-0.455,0.047-0.908,0.102-1.36,0.159c-0.61,0.077-1.215,0.166-1.819,0.26c-0.508,0.08-1.016,0.158-1.52,0.25   c-0.473,0.087-0.942,0.187-1.412,0.285c-14.392,2.956-27.165,10.831-36.203,22.142c-0.105-1.347-0.157-2.704-0.157-4.07   c0-28.18,22.927-51.107,51.11-51.107c4.351,0,8.678,0.549,12.861,1.632c3.486,0.899,7.176-0.467,9.229-3.431   c7.303-10.543,19.302-16.838,32.099-16.838c4.21,0,8.369,0.677,12.364,2.01c2.304,0.769,4.83,0.529,6.95-0.665   c2.119-1.193,3.633-3.228,4.17-5.6c7.331-32.45,35.714-55.113,69.02-55.113c26.641,0,50.385,14.526,62.552,37.636   c-0.103,0.06-0.201,0.13-0.303,0.19c-0.611,0.36-1.211,0.737-1.802,1.13c-0.155,0.103-0.312,0.203-0.465,0.309   c-0.702,0.482-1.392,0.984-2.062,1.513c-0.085,0.067-0.166,0.138-0.25,0.205c-0.587,0.471-1.16,0.961-1.72,1.466   c-0.154,0.139-0.308,0.278-0.459,0.418c-0.625,0.582-1.239,1.178-1.827,1.804c-2.025-0.267-4.072-0.401-6.121-0.401   c-25.667,0-46.548,20.88-46.548,46.546c0,25.667,20.881,46.548,46.548,46.548h99.296c-3.657,24.226-24.62,42.857-49.85,42.857   h-7.98c-4.752,0-8.605,3.853-8.605,8.605c0,4.752,3.853,8.605,8.605,8.605h7.98c34.732,0,63.42-26.325,67.192-60.067h38.198   c25.424,0,46.107-20.684,46.107-46.109s-20.683-46.109-46.107-46.109c-1.067,0-2.131,0.037-3.191,0.11   c-4.13-28.549-28.763-50.552-58.439-50.552c-24.922,0-46.542,15.217-55.147,37.893c-1.205-0.112-2.415-0.169-3.63-0.169   c-0.918,0-1.83,0.044-2.737,0.109c-6.555-13.592-16.462-25.245-28.967-33.969c-14.79-10.32-32.173-15.775-50.269-15.775   c-20.081,0-39.72,6.945-55.299,19.557c-13.06,10.571-22.852,24.744-28.148,40.544c-2.986-0.487-6.013-0.734-9.057-0.734   c-16.476,0-32.034,7.238-42.663,19.61c-3.798-0.646-7.656-0.971-11.526-0.971c-37.671,0-68.32,30.647-68.32,68.317   c0,9.519,1.929,18.692,5.713,27.324c-0.642,2.438-1.153,4.931-1.498,7.476c-1.309-0.106-2.623-0.158-3.942-0.158   C21.878,181.522,0,203.402,0,230.296C0,257.189,21.878,279.067,48.771,279.067z M352.353,68.523   c2.305,0.769,4.83,0.525,6.948-0.668c2.118-1.194,3.631-3.228,4.167-5.599c4.265-18.875,21.421-32.573,40.795-32.573   c23.069,0,41.838,18.769,41.838,41.838c0,0.404-0.016,0.808-0.03,1.208l-0.008,0.202c-0.098,2.791,1.164,5.455,3.384,7.148   c2.22,1.691,5.124,2.204,7.79,1.367c2.79-0.874,5.702-1.319,8.656-1.319c15.934,0,28.897,12.965,28.897,28.899   s-12.963,28.899-28.897,28.899h-46.396H311.053c-16.177,0-29.338-13.16-29.338-29.338c0-16.176,13.16-29.336,29.338-29.336   c2.499,0,4.984,0.315,7.388,0.936c3.493,0.902,7.174-0.467,9.227-3.43c0.01-0.014,0.02-0.027,0.03-0.041   c0.313-0.45,0.648-0.882,0.992-1.305c0.101-0.125,0.204-0.246,0.309-0.368c0.308-0.361,0.626-0.713,0.956-1.052   c0.066-0.068,0.128-0.139,0.194-0.205c0.392-0.393,0.8-0.767,1.22-1.127c0.109-0.094,0.22-0.184,0.331-0.275   c0.349-0.288,0.706-0.565,1.07-0.829c0.103-0.075,0.205-0.154,0.31-0.227c0.447-0.313,0.907-0.609,1.377-0.887   c0.117-0.069,0.238-0.133,0.356-0.2c0.385-0.218,0.777-0.425,1.175-0.62c0.133-0.065,0.265-0.132,0.399-0.195   c0.499-0.231,1.006-0.446,1.522-0.64c0.09-0.034,0.184-0.062,0.274-0.096c0.465-0.167,0.936-0.317,1.413-0.452   c1.896-0.538,3.874-0.828,5.891-0.828C347.822,67.407,350.133,67.782,352.353,68.523z"/>
</g>
<g>
</g>
<g>
</g>
<g>
</g>
<g>
</g>
<g>
</g>
<g>
</g>
<g>
</g>
<g>
</g>
<g>
</g>
<g>
</g>
<g>
</g>
<g>
</g>
<g>
</g>
<g>
</g>
<g>
</g>
</svg>
