<?xml version="1.0" encoding="iso-8859-1"?>
<!-- Generator: Adobe Illustrator 19.0.0, SVG Export Plug-In . SVG Version: 6.00 Build 0)  -->
<svg xmlns="http://www.w3.org/2000/svg" xmlns:xlink="http://www.w3.org/1999/xlink" version="1.1" id="Layer_1" x="0px" y="0px" viewBox="0 0 512.002 512.002" style="enable-background:new 0 0 512.002 512.002;" xml:space="preserve">
<path style="fill:#9FDEF7;" d="M345.264,421.026h15.237c32.597,0,59.023-26.424,59.023-59.021c0-0.351-0.021-0.697-0.027-1.047  H311.053c-20.955,0-37.943-16.99-37.943-37.943s16.987-37.941,37.943-37.941c3.296,0,6.491,0.422,9.542,1.21  c4.005-5.779,9.972-10.09,16.939-11.984c-11.502-29.666-40.296-50.708-74.023-50.708c-37.806,0-69.418,26.435-77.414,61.822  c-4.742-1.582-9.813-2.451-15.089-2.451c-16.242,0-30.577,8.133-39.173,20.542c-4.798-1.239-9.831-1.905-15.017-1.905  c-32.98,0-59.715,26.733-59.715,59.712c0,9.569,2.264,18.607,6.266,26.624c7.013-21.7,27.37-37.4,51.405-37.4  c25.728,0,47.239,17.988,52.681,42.069c3.229-1.076,6.679-1.668,10.271-1.668c11.05,0,20.807,5.535,26.657,13.979  c3.265-0.842,6.689-1.296,10.218-1.296c13.802,0,25.989,6.886,33.334,17.406h66.134"/>
<g>
	<path style="fill:#E4F2F9;" d="M154.98,484.891H48.771c-22.183,0-40.166-17.98-40.166-40.163c0-22.185,17.983-40.168,40.166-40.168   c4.191,0,8.229,0.645,12.027,1.834c-0.022-0.609-0.046-1.219-0.046-1.834c0-29.836,24.187-54.023,54.024-54.023   c25.728,0,47.239,17.988,52.681,42.069c3.229-1.076,6.679-1.668,10.271-1.668c11.05,0,20.807,5.535,26.657,13.979   c3.265-0.842,6.689-1.296,10.218-1.296c22.443,0,40.636,18.193,40.636,40.636c0,22.441-18.192,40.634-40.636,40.634h-30.581"/>
	<path style="fill:#E4F2F9;" d="M465.893,285.951c-3.914,0-7.685,0.601-11.231,1.712c0.022-0.567,0.044-1.137,0.044-1.712   c0-27.857-22.584-50.443-50.444-50.443c-24.023,0-44.109,16.796-49.188,39.282c-3.015-1.005-6.235-1.556-9.588-1.556   c-10.32,0-19.429,5.168-24.891,13.053c-3.05-0.788-6.246-1.21-9.542-1.21c-20.955,0-37.943,16.987-37.943,37.941   s16.987,37.943,37.943,37.943h154.84c20.71,0,37.502-16.789,37.502-37.502C503.395,302.743,486.603,285.951,465.893,285.951z"/>
</g>
<g>
	<path style="fill:#F29F26;" d="M206.596,182.95c-1.666-1.329-4.023-1.355-5.718-0.061c-12.942,9.886-28.412,15.114-44.735,15.114   c-40.678,0-73.772-33.095-73.772-73.773c0-16.324,5.225-31.792,15.114-44.735c1.293-1.693,1.268-4.051-0.062-5.716   c-1.328-1.666-3.622-2.214-5.56-1.325c-15.053,6.885-27.819,17.861-36.915,31.743c-9.338,14.25-14.273,30.823-14.273,47.931   c0,48.288,39.284,87.571,87.572,87.571c17.107,0,33.68-4.935,47.931-14.271c13.88-9.097,24.858-21.861,31.744-36.916   C208.808,186.571,208.262,184.279,206.596,182.95z"/>
	<path style="fill:#F29F26;" d="M301.179,149.802c-15.502,0-28.07-12.568-28.07-28.07c0,15.502-12.568,28.07-28.07,28.07   c15.503,0,28.07,12.568,28.07,28.07C273.111,162.37,285.677,149.802,301.179,149.802z"/>
	<path style="fill:#F29F26;" d="M208.143,113.603c-15.502,0-28.07-12.568-28.07-28.07c0,15.502-12.568,28.07-28.07,28.07   c15.502,0,28.07,12.568,28.07,28.07C180.073,126.169,192.641,113.603,208.143,113.603z"/>
	<path style="fill:#F29F26;" d="M280.692,55.177c-15.502,0-28.069-12.568-28.069-28.07c0,15.502-12.568,28.07-28.07,28.07   c15.502,0,28.07,12.568,28.07,28.07C252.623,67.744,265.19,55.177,280.692,55.177z"/>
</g>
<path style="fill:#83D4ED;" d="M182.149,282.757c-3.057-0.62-6.219-0.951-9.459-0.951c-16.242,0-30.577,8.133-39.173,20.542  c-4.798-1.239-9.831-1.905-15.017-1.905c-32.98,0-59.715,26.734-59.715,59.712c0,9.569,2.263,18.607,6.266,26.624  c7.012-21.7,27.37-37.4,51.405-37.4c25.728,0,47.239,17.988,52.681,42.069c3.229-1.076,6.679-1.668,10.271-1.668  c11.05,0,20.807,5.536,26.657,13.979c3.265-0.842,6.689-1.296,10.218-1.296c13.802,0,25.989,6.886,33.334,17.406h44.858  C232.502,403.536,186.099,348.869,182.149,282.757z"/>
<g>
	<path style="fill:#D7EDF9;" d="M352.776,273.917c-2.151-0.488-4.384-0.766-6.685-0.766c-10.32,0-19.429,5.168-24.891,13.053   c-3.05-0.787-6.246-1.21-9.542-1.21c-20.955,0-37.943,16.987-37.943,37.941c0,20.954,16.987,37.943,37.943,37.943h96.428   C375.483,345.471,352.9,312.34,352.776,273.917z"/>
	<path style="fill:#D7EDF9;" d="M78.027,365.495c-9.002,9.652-14.52,22.595-14.52,36.833c0,0.615,0.025,1.225,0.046,1.834   c-3.797-1.189-7.836-1.834-12.027-1.834c-22.183,0-40.166,17.983-40.166,40.168c0,22.183,17.983,40.164,40.166,40.164h106.21h3.593   C113.181,465.305,78.645,419.478,78.027,365.495z"/>
</g>
<path style="fill:#EF8229;" d="M192.121,206.628c-13.687,8.966-29.606,13.707-46.037,13.707c-46.379,0-84.11-37.731-84.11-84.11  c0-16.43,4.739-32.35,13.708-46.036c2.334-3.564,4.926-6.918,7.738-10.06c-9.328,6.255-17.353,14.33-23.579,23.834  c-8.969,13.687-13.708,29.606-13.708,46.036c0,46.379,37.732,84.11,84.111,84.11c16.431,0,32.35-4.739,46.036-13.707  c6.186-4.054,11.762-8.875,16.634-14.314C192.647,206.266,192.389,206.452,192.121,206.628z"/>
<g>
	<path style="fill:#231F20;" d="M281.716,121.733c0-4.752-3.853-8.605-8.605-8.605c-4.752,0-8.605,3.853-8.605,8.605   c0,10.733-8.732,19.465-19.465,19.465c-4.752,0-8.605,3.853-8.605,8.605c0,4.752,3.853,8.605,8.605,8.605   c10.733,0,19.465,8.732,19.465,19.465c0,4.752,3.853,8.605,8.605,8.605c4.752,0,8.605-3.853,8.605-8.605   c0-10.733,8.732-19.465,19.465-19.465c4.752,0,8.605-3.853,8.605-8.605s-3.853-8.605-8.605-8.605   C290.448,141.197,281.716,132.465,281.716,121.733z M273.111,154.293c-1.365-1.622-2.869-3.126-4.491-4.491   c1.622-1.365,3.126-2.869,4.491-4.491c1.365,1.622,2.869,3.126,4.491,4.491C275.979,151.167,274.474,152.671,273.111,154.293z"/>
	<path style="fill:#231F20;" d="M152.003,122.208c10.733,0,19.465,8.732,19.465,19.465c0,4.752,3.852,8.605,8.605,8.605   c4.752,0,8.605-3.853,8.605-8.605c0-10.733,8.732-19.465,19.465-19.465c4.752,0,8.605-3.853,8.605-8.605   c0-4.752-3.853-8.605-8.605-8.605c-10.733,0-19.465-8.732-19.465-19.465c0-4.752-3.853-8.605-8.605-8.605   c-4.753,0-8.605,3.853-8.605,8.605c0,10.733-8.732,19.465-19.465,19.465c-4.753,0-8.605,3.853-8.605,8.605   C143.398,118.355,147.251,122.208,152.003,122.208z M180.073,109.112c1.365,1.622,2.868,3.126,4.491,4.491   c-1.622,1.365-3.126,2.869-4.491,4.491c-1.365-1.622-2.869-3.126-4.491-4.491C177.205,112.238,178.708,110.734,180.073,109.112z"/>
	<path style="fill:#231F20;" d="M224.555,63.782c10.733,0,19.465,8.732,19.465,19.465c0,4.752,3.852,8.605,8.605,8.605   c4.752,0,8.605-3.853,8.605-8.605c0-10.733,8.731-19.465,19.463-19.465c4.752,0,8.605-3.853,8.605-8.605s-3.853-8.605-8.605-8.605   c-10.732,0-19.463-8.732-19.463-19.465c0-4.752-3.853-8.605-8.605-8.605c-4.753,0-8.605,3.853-8.605,8.605   c0,10.733-8.732,19.465-19.465,19.465c-4.752,0-8.605,3.853-8.605,8.605S219.801,63.782,224.555,63.782z M252.623,50.686   c1.365,1.622,2.869,3.126,4.49,4.491c-1.622,1.365-3.125,2.869-4.49,4.491c-1.365-1.622-2.869-3.126-4.491-4.491   C249.755,53.812,251.258,52.308,252.623,50.686z"/>
	<path style="fill:#231F20;" d="M465.893,277.346c-1.067,0-2.132,0.037-3.191,0.11c-4.13-28.549-28.763-50.552-58.439-50.552   c-24.923,0-46.543,15.217-55.148,37.893c-1.204-0.112-2.415-0.169-3.629-0.169c-0.919,0-1.831,0.044-2.74,0.109   c-6.555-13.592-16.462-25.244-28.966-33.97c-14.791-10.322-32.174-15.777-50.27-15.777c-20.081,0-39.72,6.945-55.3,19.558   c-13.059,10.571-22.853,24.746-28.148,40.544c-2.987-0.487-6.012-0.733-9.056-0.733c-16.478,0-32.035,7.237-42.664,19.609   c-3.801-0.646-7.66-0.972-11.525-0.972c-37.671,0-68.32,30.647-68.32,68.317c0,9.52,1.929,18.693,5.713,27.324   c-0.642,2.44-1.154,4.932-1.498,7.478c-1.308-0.106-2.623-0.158-3.942-0.158C21.878,395.955,0,417.835,0,444.729   c0,26.892,21.878,48.769,48.771,48.769h106.21c4.752,0,8.605-3.853,8.605-8.605c0-4.752-3.853-8.605-8.605-8.605H48.771   c-17.403-0.001-31.561-14.158-31.561-31.559c0-17.405,14.158-31.563,31.561-31.563c3.22,0,6.402,0.485,9.455,1.441   c2.663,0.834,5.565,0.325,7.785-1.367c2.22-1.691,3.482-4.353,3.386-7.142l-0.01-0.268c-0.015-0.422-0.031-0.843-0.031-1.27   c0-5.396,0.951-10.573,2.686-15.378c0.03-0.083,0.056-0.167,0.086-0.25c5.61-15.262,19.195-26.705,35.676-29.255   c0.084-0.013,0.168-0.023,0.252-0.035c0.599-0.089,1.201-0.165,1.808-0.23c0.197-0.022,0.394-0.041,0.592-0.059   c0.522-0.049,1.046-0.088,1.571-0.119c0.204-0.012,0.407-0.027,0.611-0.037c0.709-0.033,1.42-0.054,2.136-0.054   c21.372,0,39.583,14.541,44.287,35.36c0.134,0.593,0.329,1.165,0.58,1.708c0.751,1.629,1.999,2.997,3.587,3.892   c0.265,0.15,0.536,0.284,0.812,0.403c1.105,0.478,2.291,0.716,3.482,0.707c0.596-0.004,1.192-0.071,1.779-0.2   c0.294-0.065,0.585-0.145,0.873-0.241c2.444-0.814,4.984-1.227,7.552-1.227c7.805,0,15.127,3.841,19.584,10.275   c2.053,2.962,5.732,4.335,9.224,3.43c2.631-0.679,5.346-1.023,8.068-1.023c0.614,0,1.225,0.022,1.835,0.056   c0.155,0.009,0.308,0.024,0.461,0.035c0.468,0.033,0.936,0.074,1.4,0.129c0.148,0.017,0.296,0.038,0.444,0.056   c0.495,0.065,0.987,0.139,1.476,0.227c0.099,0.017,0.199,0.034,0.298,0.054c2.464,0.465,4.855,1.215,7.126,2.23   c0.038,0.017,0.075,0.034,0.113,0.052c0.525,0.237,1.043,0.489,1.555,0.754c0.053,0.028,0.106,0.054,0.159,0.082   c1.084,0.569,2.136,1.2,3.149,1.891c0.112,0.076,0.219,0.157,0.329,0.234c0.356,0.248,0.707,0.504,1.052,0.767   c0.194,0.147,0.384,0.299,0.574,0.452c0.253,0.202,0.503,0.409,0.751,0.62c0.215,0.183,0.429,0.366,0.639,0.554   c0.212,0.19,0.418,0.387,0.626,0.583c0.478,0.452,0.941,0.916,1.39,1.396c0.108,0.115,0.219,0.225,0.325,0.341   c0.225,0.247,0.44,0.503,0.657,0.758c0.159,0.186,0.319,0.372,0.474,0.563c0.207,0.254,0.408,0.512,0.607,0.772   c0.159,0.208,0.314,0.417,0.469,0.629c3.844,5.285,6.121,11.78,6.121,18.8c0,17.661-14.369,32.029-32.031,32.029h-30.581   c-4.752,0-8.605,3.853-8.605,8.605c0,4.752,3.853,8.605,8.605,8.605h30.581c27.152,0,49.241-22.089,49.241-49.239   c0-5.091-0.777-10.003-2.217-14.626h52.444c4.752,0,8.605-3.853,8.605-8.605c0-4.752-3.853-8.605-8.605-8.605h-61.913   c-0.313-0.369-0.644-0.72-0.967-1.079c-0.082-0.09-0.161-0.182-0.243-0.271c-0.451-0.494-0.912-0.976-1.381-1.449   c-0.11-0.111-0.219-0.22-0.33-0.33c-0.458-0.453-0.922-0.898-1.396-1.332c-0.138-0.126-0.277-0.248-0.416-0.373   c-0.461-0.413-0.926-0.821-1.402-1.214c-0.173-0.144-0.351-0.282-0.526-0.423c-0.454-0.366-0.909-0.731-1.375-1.081   c-0.262-0.197-0.534-0.383-0.799-0.574c-0.393-0.282-0.78-0.57-1.18-0.84c-0.689-0.467-1.392-0.915-2.105-1.348   c-0.07-0.042-0.143-0.081-0.213-0.123c-0.676-0.404-1.362-0.794-2.058-1.166c-0.094-0.049-0.188-0.096-0.282-0.145   c-0.68-0.358-1.368-0.701-2.066-1.028c-0.091-0.043-0.184-0.083-0.275-0.125c-0.705-0.325-1.418-0.634-2.139-0.925   c-0.086-0.034-0.173-0.068-0.259-0.102c-0.727-0.289-1.463-0.561-2.206-0.816c-0.087-0.03-0.174-0.059-0.261-0.088   c-0.741-0.25-1.489-0.481-2.245-0.696c-0.094-0.027-0.187-0.054-0.282-0.081c-0.743-0.207-1.493-0.394-2.249-0.566   c-0.11-0.025-0.219-0.052-0.33-0.076c-0.732-0.16-1.47-0.303-2.215-0.43c-0.136-0.024-0.269-0.051-0.404-0.072   c-0.711-0.116-1.427-0.213-2.148-0.297c-0.167-0.019-0.331-0.045-0.498-0.063c-0.699-0.075-1.404-0.13-2.111-0.175   c-0.182-0.012-0.361-0.031-0.543-0.041c-0.877-0.046-1.759-0.073-2.647-0.073c-2.272,0-4.54,0.157-6.786,0.468   c-7.71-8.319-18.593-13.151-30.09-13.151c-1.439,0-2.872,0.075-4.297,0.225c-9.014-24.293-32.06-40.626-58.655-40.626   c-1.115,0-2.222,0.037-3.324,0.095c-0.375,0.019-0.748,0.052-1.121,0.078c-0.719,0.051-1.436,0.11-2.148,0.184   c-0.455,0.047-0.908,0.102-1.361,0.159c-0.609,0.077-1.214,0.166-1.817,0.26c-0.509,0.08-1.018,0.158-1.522,0.25   c-0.472,0.086-0.94,0.187-1.409,0.284c-14.392,2.956-27.167,10.831-36.206,22.142c-0.105-1.348-0.158-2.705-0.158-4.072   c0-28.18,22.927-51.107,51.11-51.107c4.344,0,8.673,0.55,12.865,1.633c3.493,0.9,7.173-0.47,9.226-3.431   c7.303-10.543,19.303-16.837,32.1-16.837c4.208,0,8.368,0.677,12.366,2.009c2.306,0.769,4.831,0.527,6.947-0.667   c2.118-1.193,3.632-3.228,4.168-5.599c7.333-32.45,35.716-55.113,69.021-55.113c26.641,0,50.385,14.527,62.552,37.637   c-0.09,0.053-0.175,0.114-0.266,0.167c-0.636,0.374-1.261,0.766-1.876,1.177c-0.137,0.09-0.274,0.18-0.409,0.272   c-0.716,0.49-1.418,1.003-2.102,1.541c-0.059,0.046-0.115,0.096-0.174,0.143c-0.617,0.493-1.218,1.008-1.805,1.539   c-0.137,0.124-0.273,0.246-0.408,0.371c-0.634,0.588-1.255,1.192-1.851,1.824c-2.026-0.267-4.071-0.401-6.121-0.401   c-25.667,0-46.548,20.88-46.548,46.546c0,25.667,20.881,46.548,46.548,46.548h99.3c-3.658,24.225-24.622,42.857-49.853,42.857   h-15.237c-4.752,0-8.605,3.853-8.605,8.605c0,4.752,3.853,8.605,8.605,8.605h15.237c34.733,0,63.423-26.325,67.194-60.067h38.198   c25.424,0,46.107-20.683,46.107-46.107C512,298.032,491.317,277.346,465.893,277.346z M465.893,352.355h-46.397H311.053   c-16.177,0-29.338-13.16-29.338-29.338c0-16.176,13.16-29.336,29.338-29.336c2.497,0,4.983,0.315,7.391,0.937   c1.308,0.337,2.644,0.356,3.912,0.09c0.159-0.033,0.31-0.092,0.466-0.134c0.259-0.07,0.522-0.13,0.773-0.224   c1.613-0.6,3.047-1.682,4.073-3.164c0.326-0.471,0.677-0.922,1.037-1.364c0.089-0.11,0.182-0.218,0.273-0.326   c0.329-0.387,0.669-0.765,1.024-1.126c0.044-0.045,0.086-0.094,0.13-0.138c0.404-0.406,0.825-0.792,1.259-1.164   c0.088-0.075,0.179-0.147,0.267-0.222c0.379-0.314,0.766-0.615,1.165-0.902c0.077-0.056,0.154-0.115,0.232-0.17   c0.464-0.325,0.94-0.632,1.428-0.921c0.089-0.053,0.18-0.101,0.27-0.152c0.421-0.24,0.849-0.466,1.284-0.678   c0.107-0.052,0.211-0.105,0.318-0.155c0.517-0.241,1.042-0.464,1.579-0.664c0.058-0.022,0.117-0.04,0.174-0.06   c0.503-0.183,1.015-0.346,1.534-0.49c1.881-0.529,3.843-0.815,5.843-0.815c2.335,0,4.646,0.375,6.869,1.115   c2.307,0.768,4.83,0.526,6.946-0.669c2.118-1.193,3.631-3.228,4.167-5.599c4.264-18.874,21.42-32.572,40.795-32.572   c23.069,0,41.838,18.769,41.838,41.838c0,0.423-0.018,0.839-0.032,1.255l-0.005,0.139c-0.104,2.792,1.155,5.462,3.377,7.157   c2.22,1.695,5.125,2.21,7.795,1.371c2.791-0.874,5.704-1.319,8.658-1.319c15.933,0,28.897,12.966,28.897,28.901   C494.79,339.391,481.828,352.355,465.893,352.355z"/>
	<path style="fill:#231F20;" d="M128.247,248.302c18.786,0,36.991-5.421,52.648-15.678c15.241-9.988,27.292-24.005,34.853-40.536   c2.533-5.539,0.978-12.064-3.783-15.863c-2.338-1.866-5.274-2.895-8.266-2.895c-2.89,0-5.746,0.966-8.044,2.72   c-11.431,8.731-25.093,13.346-39.511,13.346c-35.934,0-65.167-29.234-65.167-65.168c0-14.419,4.616-28.081,13.347-39.512   c3.697-4.841,3.625-11.547-0.173-16.304c-2.528-3.169-6.303-4.988-10.357-4.988c-1.917,0-3.772,0.406-5.509,1.201   C71.75,72.189,57.733,84.24,47.75,99.478c-10.258,15.656-15.679,33.86-15.679,52.647C32.07,205.157,75.215,248.302,128.247,248.302   z M62.145,108.912c5.359-8.179,12.13-15.241,19.969-20.887c-5.493,11.177-8.348,23.458-8.348,36.203   c0,45.423,36.954,82.378,82.377,82.378c12.747,0,25.03-2.855,36.207-8.349c-5.645,7.837-12.706,14.609-20.888,19.97   c-12.845,8.415-27.788,12.863-43.214,12.863c-43.543,0-78.967-35.425-78.967-78.966C49.28,136.7,53.729,121.755,62.145,108.912z"/>
</g>
<g>
</g>
<g>
</g>
<g>
</g>
<g>
</g>
<g>
</g>
<g>
</g>
<g>
</g>
<g>
</g>
<g>
</g>
<g>
</g>
<g>
</g>
<g>
</g>
<g>
</g>
<g>
</g>
<g>
</g>
</svg>
