<?xml version="1.0" encoding="iso-8859-1"?>
<!-- Generator: Adobe Illustrator 19.0.0, SVG Export Plug-In . SVG Version: 6.00 Build 0)  -->
<svg xmlns="http://www.w3.org/2000/svg" xmlns:xlink="http://www.w3.org/1999/xlink" version="1.1" id="Layer_1" x="0px" y="0px" viewBox="0 0 512.001 512.001" style="enable-background:new 0 0 512.001 512.001;" xml:space="preserve">
<g>
	<path style="fill:#9FDEF7;" d="M293.783,350.095c11.355,5.972,21.124,14.547,28.515,24.933V64.81c0-8.289-6.721-15.01-15.01-15.01   h-13.505L293.783,350.095L293.783,350.095z"/>
	<path style="fill:#9FDEF7;" d="M218.219,350.095V49.8h-13.503c-8.291,0-15.01,6.722-15.01,15.01v310.218   C197.095,364.643,206.865,356.067,218.219,350.095z"/>
</g>
<path style="fill:#CCCCCC;" d="M332.232,450.431c3.283-8.824,5.077-18.374,5.077-28.343c0-31.262-17.653-58.386-43.525-71.993  V40.989c0-17.885-14.498-32.384-32.384-32.384h-10.794c-17.886,0-32.385,14.499-32.385,32.384v309.106  c-25.872,13.606-43.524,40.73-43.524,71.993c0,44.904,36.404,81.307,81.307,81.307c24.945,0,47.265-11.232,62.18-28.916"/>
<circle style="fill:#ED5145;" cx="256.002" cy="422.088" r="33.792"/>
<path style="fill:#C1BFBF;" d="M203.134,424.74c0-39.911,30.75-72.857,70.588-77.95c-3.521-0.45-7.107-0.706-10.756-0.706  c-44.925,0-81.345,35.215-81.345,78.655s36.42,78.655,81.345,78.655c3.65,0,7.236-0.256,10.756-0.706  C233.883,497.597,203.134,464.651,203.134,424.74z"/>
<path style="fill:#DD3931;" d="M264.501,388.296c-19.268,0-34.926,15.411-35.344,34.577c0.418,18.298,15.372,33.006,33.77,33.006  c3.811,0,7.468-0.64,10.886-1.804c-13.32-4.532-22.903-17.137-22.903-31.987c0-14.852,9.584-27.457,22.903-31.989  c-0.75-0.255-1.508-0.49-2.281-0.694v-0.408C269.26,388.539,266.91,388.296,264.501,388.296z"/>
<g>
	<path style="fill:#231F20;" d="M330.903,372.317V64.81c0-13.022-10.594-23.615-23.615-23.615h-4.899v-0.205   C302.388,18.388,284,0,261.399,0h-10.794c-22.602,0-40.99,18.388-40.99,40.989v0.205h-4.898c-13.022,0-23.615,10.594-23.615,23.615   v307.507c-9.625,14.47-15.01,31.684-15.01,49.773c0,49.578,40.334,89.912,89.912,89.912c26.559,0,51.621-11.653,68.758-31.974   c3.064-3.632,2.603-9.061-1.03-12.125c-3.632-3.066-9.062-2.604-12.125,1.03c-13.861,16.431-34.128,25.857-55.604,25.857   c-40.089,0-72.702-32.613-72.702-72.702c0-15.275,4.747-29.781,13.192-41.793c0.073-0.095,0.155-0.181,0.225-0.279   c5.755-8.088,13.184-14.975,21.655-20.12c0.125-0.076,0.253-0.15,0.379-0.225c1.122-0.672,2.259-1.319,3.415-1.928   c0.02-0.011,0.04-0.022,0.059-0.032c2.829-1.489,4.599-4.42,4.599-7.617V49.8v-8.81c0-13.112,10.668-23.779,23.78-23.779h10.794   c13.112,0,23.779,10.667,23.779,23.779v8.81v300.297c0,3.197,1.77,6.128,4.599,7.617c1.185,0.623,2.349,1.285,3.498,1.975   c0.114,0.068,0.228,0.134,0.341,0.202c8.475,5.145,15.91,12.035,21.67,20.129c0.069,0.097,0.15,0.182,0.223,0.275   c8.447,12.012,13.194,26.519,13.194,41.796c0,8.722-1.526,17.249-4.537,25.343c-1.656,4.454,0.61,9.409,5.065,11.065   c4.456,1.655,9.409-0.61,11.065-5.065c3.727-10.018,5.617-20.564,5.617-31.343C345.914,403.999,340.527,386.787,330.903,372.317z    M198.31,353.128v-35.375h11.304v27.317C205.607,347.483,201.837,350.184,198.31,353.128z M198.31,259.348v-23.987h11.304v23.987   H198.31z M209.614,276.559v23.984H198.31v-23.984H209.614z M198.31,218.152v-23.985h11.304v23.985H198.31z M198.31,176.957v-23.987   h11.304v23.987H198.31z M198.31,135.761v-23.984h11.304v23.984H198.31z M204.716,58.405h4.898v36.162H198.31V64.81   C198.31,61.279,201.184,58.405,204.716,58.405z M313.693,194.167v23.985h-11.305v-23.985H313.693z M302.388,176.957v-23.987h11.305   v23.987H302.388z M313.693,235.362v23.987h-11.305v-23.987H313.693z M313.693,276.559v23.984h-11.305v-23.984H313.693z    M313.693,135.761h-11.305v-23.984h11.305V135.761z M302.388,345.071v-27.317h11.305v35.375   C310.166,350.184,306.395,347.483,302.388,345.071z M307.288,58.405c3.531,0,6.405,2.874,6.405,6.405v29.756h-11.305V58.405   H307.288z"/>
	<path style="fill:#231F20;" d="M256.002,218.152c-4.752,0-8.605,3.853-8.605,8.605V380.57   c-19.267,3.987-33.792,21.088-33.792,41.518c0,23.378,19.019,42.397,42.397,42.397c23.377,0,42.396-19.019,42.396-42.397   c0-20.431-14.525-37.53-33.791-41.518V226.757C264.607,222.006,260.754,218.152,256.002,218.152z M281.188,422.088   c0,13.889-11.298,25.187-25.186,25.187c-13.889,0-25.187-11.298-25.187-25.187s11.298-25.187,25.187-25.187   C269.889,396.901,281.188,408.2,281.188,422.088z"/>
</g>
<g>
</g>
<g>
</g>
<g>
</g>
<g>
</g>
<g>
</g>
<g>
</g>
<g>
</g>
<g>
</g>
<g>
</g>
<g>
</g>
<g>
</g>
<g>
</g>
<g>
</g>
<g>
</g>
<g>
</g>
</svg>
