<?xml version="1.0" encoding="iso-8859-1"?>
<!-- Generator: Adobe Illustrator 19.0.0, SVG Export Plug-In . SVG Version: 6.00 Build 0)  -->
<svg xmlns="http://www.w3.org/2000/svg" xmlns:xlink="http://www.w3.org/1999/xlink" version="1.1" id="Layer_1" x="0px" y="0px" viewBox="0 0 512 512" style="enable-background:new 0 0 512 512;" xml:space="preserve">
<path style="fill:#5ABCE2;" d="M397.303,52.903C461.432,97.604,503.395,171.901,503.395,256  c0,136.632-110.763,247.395-247.395,247.395S8.605,392.632,8.605,256S119.368,8.605,256,8.605c42.037,0,81.625,10.484,116.293,28.98  "/>
<path style="fill:#B4E8F9;" d="M381.468,419.023c-34.724,26.764-78.237,42.682-125.469,42.682  c-113.607,0-205.704-92.097-205.704-205.704S142.392,50.296,255.999,50.296S461.704,142.393,461.704,256  c0,54.922-21.526,104.817-56.599,141.71"/>
<path style="fill:#85D0E8;" d="M274.058,461.37c-1.049-0.058-2.094-0.125-3.139-0.199c-0.599-0.043-1.197-0.085-1.794-0.132  c-1.107-0.088-2.21-0.189-3.312-0.294c-0.508-0.049-1.018-0.093-1.524-0.145c-1.594-0.165-3.186-0.344-4.769-0.545  c-0.109-0.014-0.214-0.03-0.323-0.044c-1.478-0.19-2.952-0.397-4.42-0.618c-0.526-0.079-1.051-0.167-1.576-0.25  c-1.056-0.168-2.109-0.34-3.16-0.524c-0.592-0.103-1.181-0.21-1.77-0.319c-1.001-0.184-2-0.375-2.996-0.573  c-0.579-0.115-1.157-0.23-1.734-0.351c-1.069-0.222-2.133-0.456-3.197-0.695c-0.482-0.109-0.964-0.211-1.446-0.324  c-1.526-0.355-3.047-0.724-4.561-1.112c-0.187-0.048-0.373-0.102-0.56-0.151c-1.332-0.346-2.659-0.705-3.98-1.077  c-0.515-0.145-1.026-0.298-1.539-0.446c-0.999-0.29-1.996-0.585-2.988-0.888c-0.565-0.174-1.13-0.352-1.693-0.53  c-0.955-0.301-1.905-0.61-2.853-0.925c-0.552-0.184-1.103-0.367-1.651-0.554c-1.021-0.35-2.037-0.71-3.049-1.075  c-0.454-0.162-0.91-0.322-1.363-0.487c-1.448-0.534-2.889-1.079-4.321-1.642c-0.227-0.089-0.45-0.184-0.676-0.274  c-1.214-0.483-2.423-0.976-3.626-1.481c-0.49-0.207-0.978-0.421-1.467-0.63c-0.939-0.403-1.877-0.811-2.808-1.229  c-0.535-0.239-1.067-0.481-1.599-0.725c-0.901-0.413-1.797-0.831-2.691-1.256c-0.516-0.246-1.032-0.489-1.545-0.739  c-0.978-0.474-1.949-0.961-2.917-1.45c-0.408-0.205-0.819-0.408-1.224-0.615c-1.361-0.699-2.713-1.412-4.056-2.14  c-0.244-0.132-0.485-0.271-0.729-0.404c-1.103-0.606-2.202-1.217-3.293-1.84c-0.463-0.265-0.92-0.535-1.38-0.802  c-0.874-0.51-1.746-1.023-2.613-1.545c-0.495-0.299-0.989-0.6-1.481-0.902c-0.844-0.517-1.683-1.043-2.519-1.573  c-0.472-0.299-0.945-0.598-1.414-0.9c-0.928-0.6-1.85-1.209-2.768-1.822c-0.355-0.237-0.712-0.469-1.065-0.708  c-1.263-0.855-2.517-1.723-3.759-2.606c-0.242-0.171-0.479-0.348-0.72-0.521c-1.002-0.719-1.999-1.444-2.987-2.179  c-0.421-0.312-0.836-0.63-1.253-0.945c-0.51-0.385-1.024-0.766-1.531-1.155l-0.132-0.119c-8.359-6.454-16.213-13.528-23.481-21.171  l-0.024-0.023c-0.638-0.671-1.261-1.355-1.89-2.035c-0.441-0.477-0.89-0.947-1.326-1.427c-0.994-1.095-1.973-2.201-2.942-3.316  c-0.439-0.504-0.87-1.018-1.305-1.526c-0.698-0.82-1.399-1.636-2.085-2.466c-0.455-0.551-0.896-1.111-1.346-1.667  c-0.569-0.703-1.143-1.405-1.705-2.117c-0.466-0.591-0.919-1.192-1.377-1.788c-0.529-0.688-1.063-1.371-1.584-2.066  c-0.464-0.617-0.914-1.245-1.37-1.867c-0.502-0.686-1.008-1.368-1.502-2.06c-0.454-0.636-0.896-1.28-1.343-1.921  c-0.481-0.691-0.966-1.378-1.438-2.075c-0.444-0.654-0.876-1.317-1.313-1.975c-0.459-0.694-0.921-1.387-1.373-2.087  c-0.431-0.669-0.852-1.346-1.276-2.02c-0.442-0.702-0.886-1.406-1.321-2.115c-0.415-0.679-0.821-1.364-1.228-2.048  c-0.426-0.714-0.852-1.427-1.27-2.148c-0.4-0.691-0.79-1.387-1.183-2.082c-0.409-0.725-0.819-1.45-1.219-2.179  c-0.384-0.7-0.759-1.407-1.136-2.113c-0.392-0.736-0.784-1.469-1.166-2.21c-0.369-0.712-0.729-1.428-1.09-2.145  c-0.374-0.743-0.746-1.489-1.112-2.237c-0.351-0.722-0.696-1.448-1.04-2.175c-0.357-0.755-0.712-1.511-1.061-2.272  c-0.333-0.728-0.66-1.46-0.986-2.192c-0.34-0.769-0.679-1.538-1.01-2.31c-0.316-0.736-0.626-1.475-0.934-2.215  c-0.324-0.78-0.643-1.56-0.957-2.344c-0.298-0.744-0.593-1.491-0.882-2.239c-0.305-0.787-0.606-1.579-0.901-2.371  c-0.282-0.752-0.558-1.506-0.829-2.263c-0.288-0.8-0.57-1.603-0.848-2.407c-0.262-0.757-0.521-1.517-0.776-2.278  c-0.269-0.81-0.531-1.623-0.791-2.438c-0.243-0.765-0.485-1.531-0.721-2.3c-0.251-0.822-0.495-1.646-0.736-2.472  c-0.225-0.77-0.449-1.54-0.664-2.313c-0.233-0.834-0.457-1.672-0.68-2.509c-0.205-0.772-0.41-1.545-0.607-2.321  c-0.215-0.848-0.419-1.701-0.624-2.554c-0.185-0.773-0.371-1.547-0.547-2.322c-0.196-0.862-0.38-1.726-0.564-2.591  c-0.166-0.779-0.335-1.555-0.492-2.336c-0.175-0.872-0.338-1.747-0.502-2.622c-0.146-0.782-0.296-1.561-0.433-2.345  c-0.157-0.888-0.298-1.781-0.443-2.673c-0.126-0.777-0.256-1.551-0.374-2.331c-0.137-0.911-0.257-1.826-0.382-2.741  c-0.105-0.769-0.215-1.536-0.312-2.307c-0.116-0.934-0.217-1.873-0.322-2.811c-0.084-0.758-0.175-1.513-0.251-2.274  c-0.097-0.967-0.175-1.939-0.258-2.91c-0.065-0.738-0.136-1.474-0.19-2.214c-0.076-1.021-0.133-2.048-0.196-3.073  c-0.041-0.694-0.092-1.388-0.127-2.085c-0.057-1.14-0.092-2.285-0.13-3.429c-0.02-0.588-0.051-1.173-0.066-1.763  c-0.043-1.735-0.067-3.476-0.067-5.222c0-8.876,0.561-17.62,1.653-26.199c12.426-97.747,93.452-174.075,193.295-179.218  c-3.564-0.184-7.149-0.286-10.756-0.286l0,0c-0.001,0-0.001,0-0.001,0c-104.731,0-191.181,78.269-204.05,179.504  c-1.092,8.58-1.653,17.323-1.653,26.199c0,1.746,0.024,3.486,0.067,5.222c0.015,0.589,0.045,1.175,0.066,1.763  c0.038,1.143,0.073,2.289,0.13,3.429c0.034,0.696,0.086,1.39,0.127,2.085c0.062,1.025,0.118,2.052,0.196,3.073  c0.055,0.74,0.126,1.476,0.19,2.214c0.083,0.97,0.161,1.943,0.258,2.91c0.075,0.76,0.167,1.516,0.251,2.274  c0.104,0.938,0.204,1.877,0.322,2.811c0.097,0.771,0.207,1.538,0.312,2.307c0.125,0.914,0.246,1.83,0.382,2.741  c0.117,0.78,0.247,1.554,0.374,2.331c0.145,0.892,0.287,1.784,0.443,2.673c0.138,0.784,0.287,1.563,0.433,2.345  c0.163,0.876,0.327,1.75,0.502,2.622c0.157,0.781,0.326,1.557,0.492,2.336c0.185,0.865,0.369,1.73,0.564,2.591  c0.176,0.777,0.362,1.549,0.547,2.322c0.205,0.853,0.409,1.706,0.624,2.554c0.197,0.777,0.401,1.549,0.606,2.321  c0.223,0.838,0.446,1.676,0.68,2.509c0.215,0.773,0.439,1.544,0.664,2.313c0.241,0.826,0.484,1.65,0.736,2.472  c0.236,0.769,0.477,1.535,0.721,2.3c0.259,0.815,0.522,1.629,0.791,2.438c0.254,0.762,0.513,1.521,0.776,2.278  c0.278,0.805,0.56,1.607,0.848,2.407c0.272,0.756,0.549,1.51,0.829,2.263c0.295,0.792,0.596,1.583,0.901,2.371  c0.29,0.749,0.584,1.495,0.882,2.239c0.314,0.784,0.634,1.564,0.957,2.344c0.308,0.74,0.617,1.479,0.934,2.215  c0.332,0.773,0.67,1.542,1.01,2.31c0.326,0.732,0.653,1.464,0.986,2.192c0.349,0.76,0.703,1.517,1.061,2.272  c0.343,0.727,0.689,1.453,1.04,2.175c0.366,0.749,0.739,1.494,1.112,2.237c0.36,0.716,0.721,1.433,1.09,2.145  c0.382,0.74,0.774,1.475,1.166,2.21c0.376,0.706,0.751,1.412,1.136,2.113c0.4,0.73,0.81,1.455,1.219,2.179  c0.393,0.696,0.783,1.392,1.183,2.082c0.418,0.721,0.844,1.434,1.27,2.148c0.408,0.685,0.813,1.369,1.228,2.048  c0.433,0.709,0.878,1.412,1.321,2.115c0.424,0.674,0.844,1.351,1.276,2.02c0.452,0.7,0.914,1.393,1.373,2.087  c0.437,0.658,0.869,1.321,1.313,1.975c0.472,0.696,0.957,1.384,1.438,2.075c0.447,0.642,0.89,1.285,1.343,1.921  c0.494,0.692,0.999,1.374,1.502,2.06c0.457,0.623,0.908,1.25,1.37,1.867c0.521,0.695,1.054,1.378,1.584,2.066  c0.459,0.596,0.912,1.197,1.377,1.788c0.56,0.712,1.136,1.412,1.705,2.117c0.45,0.556,0.891,1.117,1.346,1.667  c0.686,0.83,1.386,1.647,2.085,2.466c0.435,0.509,0.866,1.022,1.305,1.526c0.969,1.115,1.949,2.221,2.942,3.316  c0.437,0.481,0.885,0.951,1.326,1.427c0.629,0.68,1.252,1.364,1.89,2.035l0.024,0.023c7.268,7.641,15.122,14.717,23.481,21.171  l0.132,0.119c0.507,0.389,1.021,0.77,1.531,1.155c0.417,0.315,0.833,0.634,1.253,0.945c0.989,0.737,1.986,1.461,2.987,2.179  c0.241,0.172,0.478,0.35,0.72,0.521c1.242,0.882,2.497,1.751,3.759,2.606c0.353,0.239,0.71,0.472,1.065,0.708  c0.919,0.613,1.839,1.223,2.768,1.822c0.469,0.302,0.942,0.601,1.414,0.9c0.835,0.529,1.675,1.054,2.519,1.573  c0.493,0.302,0.986,0.603,1.481,0.902c0.867,0.521,1.738,1.035,2.613,1.545c0.46,0.268,0.919,0.538,1.38,0.802  c1.091,0.624,2.189,1.235,3.293,1.84c0.244,0.133,0.485,0.272,0.729,0.404c1.343,0.729,2.697,1.441,4.056,2.14  c0.406,0.208,0.816,0.41,1.224,0.615c0.968,0.489,1.939,0.975,2.917,1.45c0.513,0.25,1.028,0.493,1.545,0.739  c0.894,0.425,1.79,0.843,2.691,1.256c0.532,0.244,1.065,0.486,1.599,0.725c0.931,0.418,1.869,0.826,2.808,1.229  c0.489,0.21,0.977,0.424,1.467,0.63c1.203,0.506,2.412,0.998,3.626,1.481c0.226,0.09,0.449,0.185,0.676,0.274  c1.432,0.564,2.873,1.109,4.321,1.643c0.453,0.166,0.909,0.325,1.363,0.487c1.012,0.365,2.029,0.725,3.049,1.075  c0.549,0.187,1.099,0.37,1.651,0.554c0.948,0.315,1.898,0.624,2.853,0.925c0.563,0.179,1.128,0.356,1.693,0.53  c0.993,0.303,1.99,0.599,2.988,0.888c0.513,0.148,1.024,0.301,1.539,0.446c1.322,0.372,2.648,0.73,3.98,1.077  c0.187,0.048,0.373,0.102,0.56,0.151c1.513,0.388,3.034,0.757,4.561,1.112c0.481,0.112,0.964,0.215,1.446,0.324  c1.063,0.24,2.128,0.473,3.197,0.695c0.577,0.12,1.155,0.236,1.734,0.351c0.996,0.199,1.995,0.389,2.996,0.573  c0.589,0.11,1.179,0.216,1.77,0.319c1.051,0.184,2.104,0.356,3.16,0.524c0.525,0.083,1.05,0.171,1.576,0.25  c1.468,0.222,2.942,0.428,4.42,0.618c0.109,0.014,0.214,0.03,0.323,0.044c1.583,0.201,3.174,0.38,4.769,0.545  c0.507,0.053,1.016,0.096,1.524,0.145c1.101,0.105,2.205,0.205,3.312,0.294c0.597,0.047,1.195,0.089,1.794,0.132  c1.044,0.073,2.09,0.141,3.139,0.199c0.602,0.033,1.204,0.068,1.808,0.096c1.108,0.052,2.22,0.091,3.334,0.126  c0.526,0.017,1.051,0.038,1.578,0.051c1.632,0.038,3.266,0.062,4.906,0.062c0.002,0,0.004,0,0.005,0c0,0,0,0,0.001,0l0,0  c0.002,0,0.003,0,0.005,0c1.639,0,3.275-0.024,4.906-0.062c0.527-0.013,1.053-0.033,1.579-0.051  c1.113-0.034,2.224-0.074,3.334-0.126c0.311-0.015,0.622-0.032,0.933-0.049C274.641,461.4,274.349,461.386,274.058,461.37z"/>
<g>
	<path style="fill:#231F20;" d="M256,512c-68.38,0-132.667-26.628-181.019-74.981C26.628,388.667,0,324.38,0,256   S26.628,123.333,74.981,74.981C123.333,26.628,187.62,0,256,0c41.952,0,83.565,10.372,120.344,29.993   c4.193,2.237,5.778,7.45,3.542,11.643c-2.238,4.193-7.451,5.777-11.643,3.542C333.949,26.881,295.136,17.21,256,17.21   C124.331,17.21,17.21,124.331,17.21,256S124.331,494.79,256,494.79S494.79,387.669,494.79,256   c0-78.054-38.283-151.34-102.406-196.039c-3.899-2.717-4.858-8.081-2.138-11.979c2.716-3.9,8.079-4.859,11.98-2.138   C470.963,93.757,512,172.32,512,256c0,68.38-26.628,132.667-74.981,181.019C388.667,485.372,324.38,512,256,512z"/>
	<path style="fill:#231F20;" d="M255.999,470.309C137.829,470.309,41.69,374.17,41.69,256S137.829,41.691,255.999,41.691   c118.171,0,214.31,96.139,214.31,214.309c0,55.208-20.941,107.64-58.967,147.639c-3.274,3.445-8.721,3.582-12.165,0.308   c-3.444-3.274-3.582-8.72-0.308-12.165c34.971-36.785,54.23-85.006,54.23-135.781c0-108.681-88.418-197.098-197.1-197.098   C147.318,58.902,58.9,147.319,58.9,256s88.418,197.099,197.099,197.099c43.937,0,85.507-14.14,120.216-40.892   c3.764-2.904,9.168-2.203,12.069,1.562c2.901,3.764,2.202,9.167-1.562,12.069C348.973,454.93,303.771,470.309,255.999,470.309z"/>
	<path style="fill:#231F20;" d="M212.352,385.252V165.309h144.356v19.208H234.036v80.852h103.466v17.967H234.036v101.917h-21.684   V385.252z"/>
	<path style="fill:#231F20;" d="M154.493,206.521c-18.522,0-33.592-15.07-33.592-33.592s15.07-33.59,33.592-33.59   s33.591,15.069,33.591,33.59S173.015,206.521,154.493,206.521z M154.493,156.549c-9.032,0-16.382,7.348-16.382,16.38   c0,9.033,7.349,16.382,16.382,16.382c9.032,0,16.381-7.349,16.381-16.382C170.874,163.897,163.525,156.549,154.493,156.549z"/>
</g>
<g>
</g>
<g>
</g>
<g>
</g>
<g>
</g>
<g>
</g>
<g>
</g>
<g>
</g>
<g>
</g>
<g>
</g>
<g>
</g>
<g>
</g>
<g>
</g>
<g>
</g>
<g>
</g>
<g>
</g>
</svg>
