<?xml version="1.0" encoding="iso-8859-1"?>
<!-- Generator: Adobe Illustrator 19.0.0, SVG Export Plug-In . SVG Version: 6.00 Build 0)  -->
<svg xmlns="http://www.w3.org/2000/svg" xmlns:xlink="http://www.w3.org/1999/xlink" version="1.1" id="Layer_1" x="0px" y="0px" viewBox="0 0 511.999 511.999" style="enable-background:new 0 0 511.999 511.999;" xml:space="preserve">
<g>
	<path style="fill:#5ABCE2;" d="M124.596,364.531c-3.85,1.437-7.785,2.174-11.676,2.293c-3.889-0.119-7.826-0.856-11.676-2.293   c-18.921-7.066-28.529-28.13-21.463-47.053l33.14-63.873l33.14,63.873C153.125,336.401,143.519,357.465,124.596,364.531z"/>
	<path style="fill:#5ABCE2;" d="M410.758,160.726c-3.851,1.436-7.786,2.173-11.677,2.293c-3.889-0.119-7.825-0.857-11.676-2.293   c-18.919-7.066-28.529-28.13-21.462-47.052l33.139-63.873l33.14,63.873C439.287,132.595,429.68,153.659,410.758,160.726z"/>
</g>
<g>
	<path style="fill:#68CCEA;" d="M436.847,111.416c-0.031-0.087-0.069-0.171-0.113-0.254l-31.192-60.126   c-0.395-0.758-1.18-1.235-2.036-1.235c-0.243,0-0.477,0.048-0.701,0.119l-12.806,75.347c-0.018,0.102-0.028,0.207-0.033,0.312   c-0.671,14.254,5.974,27.188,16.615,35.165c2.975-0.337,5.897-1.035,8.72-2.087C434.265,151.572,443.93,130.381,436.847,111.416z"/>
	<path style="fill:#68CCEA;" d="M149.654,317.937c-0.031-0.087-0.069-0.171-0.112-0.254l-31.192-60.126   c-0.395-0.758-1.18-1.235-2.036-1.235c-0.243,0-0.477,0.048-0.701,0.119l-12.806,75.347c-0.018,0.102-0.028,0.207-0.033,0.312   c-0.671,14.254,5.974,27.188,16.615,35.164c2.975-0.337,5.897-1.035,8.72-2.087C147.071,358.093,156.737,336.902,149.654,317.937z"/>
</g>
<g>
	<path style="fill:#9FDEF7;" d="M294.098,350.094c11.353,5.973,21.124,14.548,28.514,24.934V64.811c0-8.29-6.719-15.01-15.01-15.01   h-13.503L294.098,350.094L294.098,350.094z"/>
	<path style="fill:#9FDEF7;" d="M218.533,350.094V49.801H205.03c-8.29,0-15.01,6.721-15.01,15.01v310.217   C197.41,364.643,207.18,356.067,218.533,350.094z"/>
</g>
<path style="fill:#CCCCCC;" d="M332.546,450.431c3.283-8.824,5.077-18.374,5.077-28.343c0-31.262-17.653-58.386-43.525-71.993  V40.989c0-17.885-14.498-32.384-32.384-32.384h-10.794c-17.886,0-32.385,14.499-32.385,32.384v309.106  c-25.872,13.606-43.524,40.73-43.524,71.993c0,44.904,36.404,81.307,81.307,81.307c24.944,0,47.265-11.232,62.18-28.916"/>
<circle style="fill:#ED5145;" cx="256.312" cy="422.088" r="33.792"/>
<path style="fill:#C1BFBF;" d="M204.191,424.74c0-33.959,22.268-62.861,53.446-73.869c-0.279-1.473-0.507-2.965-0.697-4.471  c-41.606,3.473-74.262,37.21-74.262,78.34c0,43.44,36.419,78.655,81.345,78.655c3.649,0,7.236-0.256,10.756-0.706  C234.941,497.597,204.191,464.651,204.191,424.74z"/>
<path style="fill:#DD3931;" d="M265.558,388.296c-19.267,0-34.925,15.411-35.344,34.577c0.419,18.298,15.372,33.006,33.77,33.006  c3.811,0,7.469-0.64,10.888-1.804c-13.32-4.532-22.904-17.137-22.904-31.987c0-14.852,9.585-27.457,22.904-31.989  c-0.75-0.255-1.509-0.49-2.282-0.694v-0.408C270.316,388.539,267.965,388.296,265.558,388.296z"/>
<g>
	<path style="fill:#231F20;" d="M440.282,110.663c-0.12-0.326-0.262-0.644-0.424-0.953l-33.14-63.873   c-1.48-2.851-4.425-4.641-7.639-4.641s-6.159,1.79-7.639,4.641l-33.139,63.873c-0.159,0.309-0.301,0.627-0.423,0.953   c-8.715,23.335,3.18,49.41,26.516,58.126c4.631,1.726,9.481,2.678,14.418,2.831c0.088,0.003,0.176,0.004,0.265,0.004   c0.088,0,0.176-0.001,0.265-0.004c4.937-0.153,9.789-1.104,14.423-2.833C437.102,160.073,448.997,133.999,440.282,110.663z    M407.752,152.663c-2.788,1.04-5.704,1.626-8.672,1.746c-2.968-0.119-5.883-0.706-8.666-1.744   c-14.291-5.338-21.649-21.196-16.578-35.523l25.245-48.657l25.246,48.656C429.399,131.47,422.039,147.328,407.752,152.663z"/>
	<path style="fill:#231F20;" d="M153.698,313.515l-33.14-63.873c-1.48-2.852-4.425-4.641-7.639-4.641   c-3.214,0-6.159,1.79-7.639,4.641l-33.14,63.873c-0.159,0.309-0.301,0.627-0.423,0.953c-8.715,23.336,3.18,49.411,26.514,58.126   c4.628,1.726,9.48,2.679,14.421,2.832c0.088,0.003,0.176,0.004,0.265,0.004s0.176-0.001,0.265-0.004   c4.941-0.153,9.793-1.105,14.422-2.833c23.334-8.714,35.228-34.788,26.513-58.125C154,314.142,153.858,313.824,153.698,313.515z    M121.587,356.469c-2.783,1.039-5.697,1.625-8.667,1.745c-2.97-0.119-5.885-0.706-8.666-1.744   c-14.291-5.337-21.649-21.196-16.578-35.524l25.245-48.656l25.245,48.656C143.237,335.275,135.877,351.133,121.587,356.469z"/>
	<path style="fill:#231F20;" d="M331.217,64.811c0-13.022-10.594-23.615-23.615-23.615h-4.899V40.99   c0-22.602-18.388-40.99-40.989-40.99h-10.794c-22.602,0-40.99,18.388-40.99,40.989v0.205h-4.898   c-13.022,0-23.615,10.594-23.615,23.615v307.504c-9.625,14.47-15.01,31.684-15.01,49.773c0,49.578,40.334,89.912,89.912,89.912   c26.559,0,51.621-11.653,68.758-31.974c3.064-3.632,2.603-9.061-1.03-12.125c-3.632-3.066-9.062-2.604-12.125,1.03   c-13.861,16.434-34.128,25.859-55.604,25.859c-40.089,0-72.702-32.613-72.702-72.702c0-15.275,4.747-29.782,13.193-41.794   c0.073-0.094,0.154-0.18,0.224-0.276c5.756-8.089,13.185-14.975,21.656-20.121c0.127-0.076,0.256-0.152,0.383-0.227   c1.111-0.666,2.237-1.305,3.382-1.909c0.03-0.016,0.058-0.032,0.088-0.048c2.829-1.489,4.599-4.42,4.599-7.617v-0.001V49.801v-8.81   c0-13.112,10.668-23.779,23.78-23.779h10.794c13.112,0,23.779,10.667,23.779,23.779v309.106c0,3.197,1.771,6.128,4.599,7.617   c0.041,0.021,0.081,0.045,0.122,0.067c1.125,0.595,2.233,1.224,3.326,1.878c0.14,0.083,0.281,0.165,0.42,0.25   c8.465,5.145,15.89,12.029,21.642,20.111c0.07,0.098,0.151,0.183,0.224,0.278c8.447,12.012,13.194,26.519,13.194,41.795   c0,8.722-1.526,17.249-4.537,25.343c-1.656,4.454,0.61,9.409,5.065,11.065c4.456,1.655,9.409-0.61,11.065-5.065   c3.727-10.018,5.617-20.564,5.617-31.343c0-18.089-5.387-35.302-15.01-49.772V64.811H331.217z M198.624,353.128v-35.374h11.304   v27.316C205.921,347.483,202.151,350.184,198.624,353.128z M198.624,259.348v-23.987h11.304v23.987H198.624z M209.928,276.559   v23.986h-11.304v-23.986H209.928z M198.624,218.152v-23.987h11.304v23.987H198.624z M198.624,176.956v-23.984h11.304v23.984   H198.624z M198.624,135.762v-23.985h11.304v23.985H198.624z M205.03,58.406h4.898v36.161h-11.304V64.811   C198.624,61.28,201.498,58.406,205.03,58.406z M302.703,235.362h11.304v23.987h-11.304V235.362z M302.703,218.152v-23.987h11.304   v23.987H302.703z M302.703,176.956v-23.984h11.304v23.984H302.703z M302.703,276.559h11.304v23.986h-11.304V276.559z    M314.007,135.762h-11.304v-23.985h11.304V135.762z M302.703,345.071v-27.317h11.304v35.375   C310.48,350.185,306.71,347.483,302.703,345.071z M307.602,58.406c3.531,0,6.405,2.874,6.405,6.405v29.755h-11.304V58.406H307.602z   "/>
	<path style="fill:#231F20;" d="M256.316,60.432c-4.752,0-8.605,3.853-8.605,8.605V380.57   c-19.266,3.988-33.791,21.089-33.791,41.518c0,23.377,19.019,42.396,42.396,42.396c23.378,0,42.397-19.019,42.397-42.396   c0-20.431-14.526-37.531-33.792-41.518V69.037C264.921,64.285,261.068,60.432,256.316,60.432z M281.503,422.088   c0,13.887-11.298,25.186-25.187,25.186c-13.887,0-25.186-11.298-25.186-25.186c0-13.889,11.298-25.188,25.186-25.188   C270.204,396.9,281.503,408.2,281.503,422.088z"/>
</g>
<g>
</g>
<g>
</g>
<g>
</g>
<g>
</g>
<g>
</g>
<g>
</g>
<g>
</g>
<g>
</g>
<g>
</g>
<g>
</g>
<g>
</g>
<g>
</g>
<g>
</g>
<g>
</g>
<g>
</g>
</svg>
