<?xml version="1.0" encoding="iso-8859-1"?>
<!-- Generator: Adobe Illustrator 19.0.0, SVG Export Plug-In . SVG Version: 6.00 Build 0)  -->
<svg xmlns="http://www.w3.org/2000/svg" xmlns:xlink="http://www.w3.org/1999/xlink" version="1.1" id="Layer_1" x="0px" y="0px" viewBox="0 0 511.999 511.999" style="enable-background:new 0 0 511.999 511.999;" xml:space="preserve">
<g>
	<path style="fill:#9FDEF7;" d="M294.406,350.095c11.355,5.972,21.124,14.547,28.515,24.933V64.811c0-8.291-6.719-15.01-15.01-15.01   h-13.505L294.406,350.095L294.406,350.095z"/>
	<path style="fill:#9FDEF7;" d="M218.842,350.095V49.801h-13.502c-8.291,0-15.01,6.719-15.01,15.01v310.217   C197.719,364.643,207.49,356.067,218.842,350.095z"/>
</g>
<path style="fill:#CCCCCC;" d="M332.854,450.431c3.283-8.824,5.077-18.374,5.077-28.343c0-31.262-17.653-58.386-43.525-71.993  V40.989c0-17.885-14.497-32.384-32.384-32.384h-10.794c-17.886,0-32.385,14.499-32.385,32.384v309.106  c-25.872,13.606-43.523,40.73-43.523,71.993c0,44.904,36.403,81.307,81.306,81.307c24.944,0,47.265-11.232,62.18-28.916"/>
<circle style="fill:#ED5145;" cx="256.623" cy="422.088" r="33.791"/>
<path style="fill:#C1BFBF;" d="M204.922,424.74c0-32.601,20.521-60.545,49.747-72.467c-0.534-1.701-0.927-3.515-1.154-5.423  c-39.604,5.296-70.105,38.14-70.105,77.891c0,43.44,36.419,78.655,81.343,78.655c3.65,0,7.236-0.256,10.756-0.706  C235.672,497.597,204.922,464.651,204.922,424.74z"/>
<path style="fill:#DD3931;" d="M266.289,388.296c-19.268,0-34.926,15.411-35.345,34.577c0.419,18.298,15.372,33.006,33.772,33.006  c3.811,0,7.468-0.64,10.886-1.804c-13.32-4.532-22.903-17.137-22.903-31.987c0-14.852,9.585-27.457,22.903-31.989  c-0.75-0.255-1.508-0.49-2.281-0.694v-0.408C271.048,388.539,268.697,388.296,266.289,388.296z"/>
<g>
	<path style="fill:#231F20;" d="M331.526,64.811c0-13.022-10.594-23.615-23.615-23.615h-4.899V40.99   c0-22.602-18.388-40.99-40.989-40.99h-10.794c-22.602,0-40.99,18.388-40.99,40.989v0.205h-4.897   c-13.022,0-23.615,10.594-23.615,23.615v307.503c-9.625,14.47-15.01,31.684-15.01,49.774c0,49.578,40.334,89.912,89.911,89.912   c26.559,0,51.621-11.653,68.758-31.974c3.064-3.632,2.603-9.061-1.03-12.125c-3.631-3.066-9.061-2.604-12.125,1.03   c-13.861,16.434-34.128,25.859-55.604,25.859c-40.088,0-72.701-32.613-72.701-72.702c0-15.272,4.744-29.775,13.185-41.784   c0.076-0.098,0.16-0.186,0.232-0.287c5.756-8.09,13.188-14.979,21.662-20.125c0.118-0.072,0.239-0.141,0.357-0.212   c1.136-0.681,2.288-1.336,3.459-1.953c0.01-0.005,0.018-0.011,0.028-0.015c2.829-1.489,4.599-4.42,4.599-7.617V49.801v-8.81   c0-13.112,10.668-23.779,23.78-23.779h10.794c13.112,0,23.779,10.667,23.779,23.779v8.81v300.296c0,3.197,1.77,6.128,4.599,7.617   c1.184,0.623,2.349,1.285,3.497,1.974c0.114,0.068,0.229,0.134,0.342,0.203c8.475,5.145,15.91,12.035,21.67,20.128   c0.069,0.097,0.148,0.181,0.22,0.273c8.447,12.013,13.195,26.52,13.195,41.797c0,8.722-1.526,17.249-4.537,25.343   c-1.656,4.454,0.61,9.409,5.065,11.065c4.453,1.658,9.409-0.61,11.065-5.065c3.727-10.018,5.617-20.564,5.617-31.343   c0-18.089-5.387-35.301-15.01-49.772V64.811H331.526z M198.934,353.128v-35.374h11.303v27.316   C206.231,347.482,202.461,350.184,198.934,353.128z M198.934,259.348v-23.987h11.303v23.987H198.934z M210.237,276.559v23.986   h-11.303v-23.986H210.237z M198.934,218.152v-23.985h11.303v23.985H198.934z M198.934,176.957v-23.987h11.303v23.987H198.934z    M198.934,135.761v-23.985h11.303v23.985H198.934z M205.339,58.406h4.897v36.159h-11.303V64.811   C198.934,61.28,201.808,58.406,205.339,58.406z M314.316,194.167v23.985h-11.305v-23.985H314.316z M303.011,176.957v-23.987h11.305   v23.987H303.011z M314.316,235.362v23.987h-11.305v-23.987H314.316z M314.316,276.559v23.986h-11.305v-23.986H314.316z    M314.316,135.761h-11.305v-23.985h11.305V135.761z M303.011,345.071v-27.316h11.305v35.374   C310.789,350.184,307.018,347.483,303.011,345.071z M307.91,58.406c3.531,0,6.405,2.874,6.405,6.405v29.754h-11.305V58.406H307.91z   "/>
	<path style="fill:#231F20;" d="M495.542,73.801H482.48l6.416-6.416c3.36-3.361,3.36-8.808,0-12.17   c-3.361-3.359-8.808-3.359-12.17,0l-18.586,18.586h-15.625l25.898-25.897c3.36-3.36,3.36-8.808,0-12.17   c-3.36-3.357-8.807-3.359-12.17,0l-25.898,25.898V46.007l18.585-18.584c3.361-3.36,3.361-8.808,0.001-12.169   s-8.809-3.36-12.17-0.001l-6.417,6.416V8.605c0-4.752-3.853-8.605-8.605-8.605s-8.605,3.853-8.605,8.605V21.67l-6.417-6.416   c-3.359-3.359-8.807-3.36-12.169,0.001c-3.36,3.36-3.36,8.809,0.001,12.169l18.585,18.584v15.626l-25.898-25.898   c-3.361-3.359-8.808-3.359-12.17,0c-3.36,3.361-3.36,8.809,0,12.17l25.897,25.897h-15.624l-18.584-18.585   c-3.36-3.36-8.809-3.361-12.17-0.001c-3.361,3.36-3.361,8.808-0.001,12.169l6.416,6.417h-13.066c-4.752,0-8.605,3.853-8.605,8.605   s3.853,8.605,8.605,8.605h13.066l-6.416,6.417c-3.36,3.36-3.36,8.809,0.001,12.17c1.68,1.679,3.881,2.52,6.084,2.52   c2.203,0,4.405-0.84,6.085-2.521l18.584-18.585h15.625l-25.898,25.898c-3.36,3.36-3.36,8.808,0,12.17   c1.681,1.679,3.882,2.52,6.085,2.52c2.202,0,4.405-0.84,6.085-2.52l25.898-25.898v15.625l-18.586,18.586   c-3.36,3.361-3.36,8.809,0,12.171c3.361,3.359,8.808,3.359,12.17,0l6.416-6.416v13.062c0,4.752,3.853,8.605,8.605,8.605   s8.605-3.853,8.605-8.605v-13.062l6.416,6.416c1.681,1.68,3.882,2.52,6.085,2.52c2.203,0,4.405-0.84,6.085-2.52   c3.36-3.361,3.36-8.809,0-12.171l-18.586-18.586v-15.625l25.898,25.898c1.681,1.679,3.882,2.52,6.085,2.52   c2.203,0,4.405-0.84,6.085-2.52c3.36-3.361,3.36-8.809,0-12.17l-25.899-25.898h15.626l18.586,18.586   c1.681,1.679,3.882,2.52,6.085,2.52c2.203,0,4.405-0.84,6.085-2.52c3.36-3.361,3.36-8.809,0-12.171l-6.416-6.416h13.064   c4.752,0,8.605-3.853,8.605-8.605C504.147,77.654,500.294,73.801,495.542,73.801z"/>
	<path style="fill:#231F20;" d="M172.665,314.249c0-4.752-3.852-8.605-8.605-8.605h-13.062l6.416-6.416   c3.361-3.361,3.361-8.809,0-12.171c-3.36-3.359-8.808-3.359-12.169,0l-18.586,18.586h-15.626l25.897-25.897   c3.361-3.36,3.361-8.808,0-12.17c-3.359-3.358-8.807-3.358-12.169,0l-25.899,25.899v-15.626l18.586-18.584   c3.36-3.36,3.36-8.808,0-12.169c-3.36-3.36-8.808-3.36-12.17-0.001l-6.416,6.416v-13.064c0-4.752-3.853-8.605-8.605-8.605   c-4.753,0-8.605,3.853-8.605,8.605v13.064l-6.415-6.415c-3.36-3.359-8.808-3.36-12.17,0.001c-3.36,3.36-3.359,8.808,0.001,12.169   l18.585,18.584v15.626l-25.899-25.898c-3.36-3.359-8.808-3.359-12.17,0c-3.361,3.361-3.361,8.809,0,12.17l25.897,25.897H53.857   L35.275,287.06c-3.36-3.359-8.808-3.36-12.17-0.001c-3.36,3.36-3.361,8.809,0,12.17l6.416,6.417H16.457   c-4.753,0-8.605,3.853-8.605,8.605s3.852,8.605,8.605,8.605h13.065l-6.416,6.417c-3.36,3.36-3.36,8.809,0,12.169   c1.681,1.68,3.882,2.52,6.085,2.52c2.202,0,4.405-0.84,6.085-2.521l18.584-18.585h15.626l-25.899,25.896   c-3.361,3.36-3.361,8.808,0,12.17c1.68,1.68,3.882,2.52,6.085,2.52c2.202,0,4.405-0.84,6.085-2.52l25.899-25.898v15.627   l-18.585,18.586c-3.36,3.36-3.359,8.808,0.001,12.169c3.36,3.359,8.808,3.36,12.17-0.001l6.415-6.415v13.062   c0,4.752,3.852,8.605,8.605,8.605c4.752,0,8.605-3.853,8.605-8.605v-13.062l6.416,6.417c1.68,1.68,3.882,2.52,6.085,2.52   c2.202,0,4.405-0.84,6.085-2.52c3.36-3.361,3.36-8.809,0-12.171l-18.586-18.586v-15.626l25.899,25.898   c1.68,1.68,3.882,2.52,6.085,2.52c2.202,0,4.405-0.84,6.085-2.52c3.361-3.361,3.361-8.809,0-12.17l-25.899-25.898h15.627   l18.586,18.586c1.68,1.68,3.882,2.52,6.085,2.52s4.405-0.84,6.085-2.52c3.361-3.361,3.361-8.808,0-12.17l-6.416-6.416h13.062   C168.813,322.854,172.665,319.001,172.665,314.249z"/>
	<path style="fill:#231F20;" d="M256.624,312.557c-4.753,0-8.605,3.853-8.605,8.605v59.409   c-19.266,3.987-33.791,21.088-33.791,41.518c0,23.377,19.019,42.396,42.396,42.396c23.378,0,42.397-19.019,42.397-42.396   c0-20.431-14.526-37.53-33.792-41.518v-59.409C265.229,316.41,261.377,312.557,256.624,312.557z M281.811,422.088   c0,13.887-11.298,25.186-25.187,25.186c-13.887,0-25.186-11.298-25.186-25.186c0-13.889,11.298-25.187,25.186-25.187   C270.513,396.901,281.811,408.2,281.811,422.088z"/>
</g>
<g>
</g>
<g>
</g>
<g>
</g>
<g>
</g>
<g>
</g>
<g>
</g>
<g>
</g>
<g>
</g>
<g>
</g>
<g>
</g>
<g>
</g>
<g>
</g>
<g>
</g>
<g>
</g>
<g>
</g>
</svg>
